M48
;DRILL file {KiCad 4.0.7} date 01/22/18 20:26:37
;FORMAT={-:-/ absolute / inch / decimal}
FMAT,2
INCH,TZ
T1C0.016
T2C0.020
T3C0.035
T4C0.040
T5C0.047
T6C0.083
T7C0.126
%
G90
G05
M72
T1
X4.49Y-2.3
X4.49Y-2.67
X4.49Y-2.82
X5.08Y-3.56
X5.265Y-3.575
X5.32Y-1.96
X5.4Y-2.81
X5.4Y-2.98
X5.42Y-2.63
X5.44Y-2.98
X5.443Y-2.85
X5.459Y-2.599
X5.48Y-2.68
X5.501Y-2.641
X5.63Y-3.64
X5.63Y-3.69
X5.63Y-3.74
X5.63Y-3.8
X5.63Y-3.86
X5.63Y-3.91
X5.63Y-3.96
X5.68Y-3.64
X5.68Y-3.69
X5.68Y-3.74
X5.68Y-3.8
X5.68Y-3.86
X5.68Y-3.91
X5.68Y-3.96
X5.69Y-2.65
X5.73Y-2.74
X5.73Y-3.575
X5.73Y-3.64
X5.73Y-3.69
X5.73Y-3.74
X5.73Y-3.8
X5.73Y-3.86
X5.73Y-3.91
X5.73Y-3.96
X5.741Y-2.511
X5.78Y-3.64
X5.78Y-3.69
X5.78Y-3.74
X5.78Y-3.8
X5.78Y-3.86
X5.78Y-3.91
X5.78Y-3.96
X5.82Y-2.53
X5.98Y-2.85
X6.125Y-2.79
X6.125Y-3.085
X6.8Y-3.84
X6.8Y-3.9
X6.8Y-3.96
X6.8Y-4.02
X6.8Y-4.08
X6.8Y-4.14
X6.8Y-4.2
X6.8Y-4.26
X6.8Y-4.32
X6.86Y-3.84
X6.86Y-3.9
X6.86Y-3.96
X6.86Y-4.02
X6.86Y-4.08
X6.86Y-4.14
X6.86Y-4.2
X6.86Y-4.26
X6.86Y-4.32
X6.92Y-3.84
X6.92Y-3.9
X6.92Y-3.96
X6.92Y-4.02
X6.92Y-4.08
X6.92Y-4.14
X6.92Y-4.2
X6.92Y-4.26
X6.92Y-4.32
X6.98Y-3.84
X6.98Y-3.9
X6.98Y-3.96
X6.98Y-4.02
X6.98Y-4.08
X6.98Y-4.14
X6.98Y-4.2
X6.98Y-4.26
X6.98Y-4.32
X7.04Y-3.84
X7.04Y-3.9
X7.04Y-3.96
X7.04Y-4.02
X7.04Y-4.08
X7.04Y-4.14
X7.04Y-4.2
X7.04Y-4.26
X7.04Y-4.32
X7.1Y-2.09
X7.14Y-2.34
T2
X3.7155Y-2.12
X3.7155Y-4.2
X3.7432Y-2.0532
X3.7432Y-2.1868
X3.7432Y-4.1332
X3.7432Y-4.2668
X3.81Y-2.0255
X3.81Y-2.2145
X3.81Y-4.1055
X3.81Y-4.2945
X3.8768Y-2.0532
X3.8768Y-2.1868
X3.8768Y-4.1332
X3.8768Y-4.2668
X3.9045Y-2.12
X3.9045Y-4.2
X6.2455Y-2.09
X6.2455Y-5.18
X6.2732Y-2.0232
X6.2732Y-2.1568
X6.2732Y-5.1132
X6.2732Y-5.2468
X6.34Y-1.9955
X6.34Y-2.1845
X6.34Y-5.0855
X6.34Y-5.2745
X6.4068Y-2.0232
X6.4068Y-2.1568
X6.4068Y-5.1132
X6.4068Y-5.2468
X6.4345Y-2.09
X6.4345Y-5.18
T3
X4.72Y-2.12
X4.82Y-2.12
X5.02Y-2.12
X5.12Y-2.12
X5.32Y-2.12
X5.42Y-2.12
X5.62Y-2.12
X5.72Y-2.12
T4
X6.02Y-2.04
X6.02Y-2.14
X6.02Y-2.24
X6.02Y-2.34
T5
X6.21Y-4.22
X7.41Y-4.22
T6
X4.0194Y-5.26
X4.1247Y-2.5872
X4.3147Y-4.7679
X4.42Y-2.0951
X4.61Y-5.26
X4.9053Y-4.7679
X5.66Y-5.26
X5.9553Y-4.7679
X6.8379Y-2.5247
X6.8379Y-3.5953
X6.8379Y-4.8453
X7.33Y-2.2294
X7.33Y-2.82
X7.33Y-3.3
X7.33Y-3.8906
X7.33Y-4.55
X7.33Y-5.1406
T7
X3.81Y-2.12
X3.81Y-4.2
X6.34Y-2.09
X6.34Y-5.18
T0
M30
