G04 #@! TF.FileFunction,Copper,L1,Top,Signal*
%FSLAX46Y46*%
G04 Gerber Fmt 4.6, Leading zero omitted, Abs format (unit mm)*
G04 Created by KiCad (PCBNEW 4.0.7) date 01/22/18 20:26:34*
%MOMM*%
%LPD*%
G01*
G04 APERTURE LIST*
%ADD10C,0.100000*%
%ADD11C,3.500000*%
%ADD12R,1.800000X1.800000*%
%ADD13C,1.800000*%
%ADD14C,6.400000*%
%ADD15C,0.800000*%
%ADD16C,2.400000*%
%ADD17O,2.400000X2.400000*%
%ADD18C,1.651000*%
%ADD19R,2.700000X7.000000*%
%ADD20R,2.750000X7.820000*%
%ADD21C,0.600000*%
%ADD22C,0.508000*%
%ADD23C,0.254000*%
G04 APERTURE END LIST*
D10*
D11*
X112268000Y-53214800D03*
X104768000Y-65714800D03*
D12*
X135128000Y-53848000D03*
D13*
X137668000Y-53848000D03*
D14*
X161036000Y-53086000D03*
D15*
X163436000Y-53086000D03*
X162733056Y-54783056D03*
X161036000Y-55486000D03*
X159338944Y-54783056D03*
X158636000Y-53086000D03*
X159338944Y-51388944D03*
X161036000Y-50686000D03*
X162733056Y-51388944D03*
D14*
X96774000Y-106680000D03*
D15*
X99174000Y-106680000D03*
X98471056Y-108377056D03*
X96774000Y-109080000D03*
X95076944Y-108377056D03*
X94374000Y-106680000D03*
X95076944Y-104982944D03*
X96774000Y-104280000D03*
X98471056Y-104982944D03*
D14*
X161036000Y-131572000D03*
D15*
X163436000Y-131572000D03*
X162733056Y-133269056D03*
X161036000Y-133972000D03*
X159338944Y-133269056D03*
X158636000Y-131572000D03*
X159338944Y-129874944D03*
X161036000Y-129172000D03*
X162733056Y-129874944D03*
D11*
X186182000Y-98820000D03*
X173682000Y-91320000D03*
X186182000Y-83820000D03*
D16*
X188214000Y-107188000D03*
D17*
X157734000Y-107188000D03*
D12*
X142748000Y-53848000D03*
D13*
X145288000Y-53848000D03*
D12*
X119888000Y-53848000D03*
D13*
X122428000Y-53848000D03*
D12*
X127508000Y-53848000D03*
D13*
X130048000Y-53848000D03*
D11*
X102094000Y-133604000D03*
X109594000Y-121104000D03*
X117094000Y-133604000D03*
X124594000Y-121104000D03*
X186182000Y-71628000D03*
X173682000Y-64128000D03*
X186182000Y-56628000D03*
D18*
X152908000Y-59436000D03*
X152908000Y-56896000D03*
X152908000Y-54356000D03*
X152908000Y-51816000D03*
D11*
X143764000Y-133604000D03*
X151264000Y-121104000D03*
X186182000Y-130570000D03*
X173682000Y-123070000D03*
X186182000Y-115570000D03*
D19*
X129032000Y-106484000D03*
X133732000Y-106484000D03*
X129022000Y-96832000D03*
X133722000Y-96832000D03*
D20*
X145092000Y-106696000D03*
X138832000Y-106696000D03*
D14*
X96774000Y-53848000D03*
D15*
X99174000Y-53848000D03*
X98471056Y-55545056D03*
X96774000Y-56248000D03*
X95076944Y-55545056D03*
X94374000Y-53848000D03*
X95076944Y-52150944D03*
X96774000Y-51448000D03*
X98471056Y-52150944D03*
D21*
X114046000Y-71628000D03*
X145542000Y-90805000D03*
X155575000Y-78359000D03*
X155575000Y-70866000D03*
X146812000Y-100584000D03*
X145542000Y-100584000D03*
X144272000Y-100584000D03*
X143002000Y-100584000D03*
X143002000Y-99314000D03*
X144272000Y-99314000D03*
X145542000Y-99314000D03*
X146812000Y-99314000D03*
X146812000Y-98044000D03*
X145542000Y-98044000D03*
X144272000Y-98044000D03*
X143002000Y-98044000D03*
X143002000Y-96520000D03*
X144272000Y-96520000D03*
X145542000Y-96520000D03*
X146812000Y-96520000D03*
X146812000Y-94996000D03*
X145542000Y-94996000D03*
X144272000Y-94996000D03*
X143002000Y-94996000D03*
X143002000Y-93726000D03*
X144272000Y-93726000D03*
X145542000Y-93726000D03*
X146812000Y-93726000D03*
X146812000Y-92456000D03*
X145542000Y-92456000D03*
X144272000Y-92456000D03*
X143002000Y-92456000D03*
X129032000Y-90424000D03*
X137160000Y-75692000D03*
X137160000Y-71374000D03*
X181356000Y-59436000D03*
X135128000Y-49784000D03*
X180340000Y-53086000D03*
X137668000Y-66802000D03*
X139192000Y-68072000D03*
X145542000Y-69596000D03*
X147828000Y-64262000D03*
X139725159Y-67081159D03*
X138658841Y-66014841D03*
X145821159Y-63779159D03*
X144526000Y-67310000D03*
X138176000Y-75692000D03*
X133731000Y-90805000D03*
X138252006Y-72390000D03*
X151892000Y-72390000D03*
X114046000Y-67818000D03*
X114046000Y-58420000D03*
X172720000Y-109728000D03*
X172720000Y-108204000D03*
X172720000Y-106680000D03*
X172720000Y-105156000D03*
X172720000Y-103632000D03*
X172720000Y-102108000D03*
X172720000Y-100584000D03*
X172720000Y-99060000D03*
X172720000Y-97536000D03*
X174244000Y-97536000D03*
X174244000Y-99060000D03*
X174244000Y-100584000D03*
X174244000Y-102108000D03*
X174244000Y-103632000D03*
X174244000Y-105156000D03*
X174244000Y-106680000D03*
X174244000Y-108204000D03*
X174244000Y-109728000D03*
X175768000Y-109728000D03*
X175768000Y-108204000D03*
X175768000Y-106680000D03*
X175768000Y-105156000D03*
X175768000Y-103632000D03*
X175768000Y-102108000D03*
X175768000Y-100584000D03*
X175768000Y-99060000D03*
X175768000Y-97536000D03*
X177292000Y-97536000D03*
X177292000Y-99060000D03*
X177292000Y-100584000D03*
X177292000Y-102108000D03*
X177292000Y-103632000D03*
X177292000Y-105156000D03*
X177292000Y-106680000D03*
X177292000Y-108204000D03*
X177292000Y-109728000D03*
X178816000Y-109728000D03*
X178816000Y-108204000D03*
X178816000Y-106680000D03*
X178816000Y-105156000D03*
X178816000Y-103632000D03*
X178816000Y-102108000D03*
X178816000Y-100584000D03*
X178816000Y-99060000D03*
X178816000Y-97536000D03*
D22*
X110681200Y-71628000D02*
X104768000Y-65714800D01*
X114046000Y-71628000D02*
X110681200Y-71628000D01*
X145542000Y-90805000D02*
X145542000Y-106246000D01*
X155575000Y-70866000D02*
X155575000Y-78359000D01*
X145542000Y-106246000D02*
X145092000Y-106696000D01*
X145542000Y-100584000D02*
X146812000Y-100584000D01*
X143002000Y-100584000D02*
X144272000Y-100584000D01*
X144272000Y-99314000D02*
X143002000Y-99314000D01*
X146812000Y-99314000D02*
X145542000Y-99314000D01*
X145542000Y-98044000D02*
X146812000Y-98044000D01*
X143002000Y-98044000D02*
X144272000Y-98044000D01*
X144272000Y-96520000D02*
X143002000Y-96520000D01*
X146812000Y-96520000D02*
X145542000Y-96520000D01*
X145542000Y-94996000D02*
X146812000Y-94996000D01*
X143002000Y-94996000D02*
X144272000Y-94996000D01*
X144272000Y-93726000D02*
X143002000Y-93726000D01*
X146812000Y-93726000D02*
X145542000Y-93726000D01*
X145542000Y-92456000D02*
X146812000Y-92456000D01*
X143002000Y-92456000D02*
X144272000Y-92456000D01*
X137160000Y-71374000D02*
X137160000Y-75692000D01*
X129032000Y-90424000D02*
X129032000Y-96822000D01*
X129032000Y-96822000D02*
X129022000Y-96832000D01*
X135128000Y-49784000D02*
X153670000Y-49784000D01*
X153670000Y-49784000D02*
X155956000Y-52070000D01*
X155956000Y-52070000D02*
X155956000Y-53413922D01*
X155956000Y-53413922D02*
X159282079Y-56740001D01*
X159282079Y-56740001D02*
X178660001Y-56740001D01*
X178660001Y-56740001D02*
X181356000Y-59436000D01*
X180340000Y-53086000D02*
X182640000Y-53086000D01*
X182640000Y-53086000D02*
X186182000Y-56628000D01*
X137922000Y-66802000D02*
X137668000Y-66802000D01*
X139192000Y-68072000D02*
X137922000Y-66802000D01*
X147828000Y-64262000D02*
X145542000Y-66548000D01*
X145542000Y-66548000D02*
X145542000Y-69596000D01*
X139725159Y-67081159D02*
X139425160Y-66781160D01*
X139425160Y-66781160D02*
X138658841Y-66014841D01*
X145821159Y-63779159D02*
X145770841Y-63779159D01*
X144526000Y-65024000D02*
X144526000Y-67310000D01*
X145770841Y-63779159D02*
X144526000Y-65024000D01*
X138176000Y-75692000D02*
X138176000Y-72466006D01*
X133722000Y-90814000D02*
X133731000Y-90805000D01*
X133722000Y-96832000D02*
X133722000Y-90814000D01*
X138176000Y-72466006D02*
X138252006Y-72390000D01*
X140716000Y-72390000D02*
X138252006Y-72390000D01*
X151892000Y-72390000D02*
X140716000Y-72390000D01*
X143764000Y-132080000D02*
X138832000Y-127148000D01*
X138832000Y-127148000D02*
X138832000Y-106696000D01*
X135636000Y-108009000D02*
X136949000Y-106696000D01*
X136949000Y-106696000D02*
X138832000Y-106696000D01*
X114046000Y-67818000D02*
X114046000Y-58420000D01*
X114046000Y-58420000D02*
X115316000Y-58420000D01*
X172720000Y-106680000D02*
X172720000Y-108204000D01*
X172720000Y-103632000D02*
X172720000Y-105156000D01*
X172720000Y-100584000D02*
X172720000Y-102108000D01*
X172720000Y-97536000D02*
X172720000Y-99060000D01*
X174244000Y-99060000D02*
X174244000Y-97536000D01*
X174244000Y-102108000D02*
X174244000Y-100584000D01*
X174244000Y-105156000D02*
X174244000Y-103632000D01*
X174244000Y-108204000D02*
X174244000Y-106680000D01*
X175768000Y-109728000D02*
X174244000Y-109728000D01*
X175768000Y-106680000D02*
X175768000Y-108204000D01*
X175768000Y-103632000D02*
X175768000Y-105156000D01*
X175768000Y-100584000D02*
X175768000Y-102108000D01*
X175768000Y-97536000D02*
X175768000Y-99060000D01*
X177292000Y-99060000D02*
X177292000Y-97536000D01*
X177292000Y-102108000D02*
X177292000Y-100584000D01*
X177292000Y-105156000D02*
X177292000Y-103632000D01*
X177292000Y-108204000D02*
X177292000Y-106680000D01*
X178816000Y-109728000D02*
X177292000Y-109728000D01*
X178816000Y-106680000D02*
X178816000Y-108204000D01*
X178816000Y-103632000D02*
X178816000Y-105156000D01*
X178816000Y-100584000D02*
X178816000Y-102108000D01*
X178816000Y-97536000D02*
X178816000Y-99060000D01*
D23*
G36*
X190018827Y-52514433D02*
X190298000Y-53917931D01*
X190298000Y-119926394D01*
X189955394Y-120269000D01*
X183424606Y-120269000D01*
X182499000Y-119343394D01*
X182499000Y-117672091D01*
X185317346Y-117672091D01*
X185556295Y-117919847D01*
X186503172Y-117980422D01*
X186807705Y-117919847D01*
X187046654Y-117672091D01*
X186182000Y-116807437D01*
X185317346Y-117672091D01*
X182499000Y-117672091D01*
X182499000Y-115891172D01*
X183771578Y-115891172D01*
X183832153Y-116195705D01*
X184079909Y-116434654D01*
X184944563Y-115570000D01*
X187419437Y-115570000D01*
X188284091Y-116434654D01*
X188531847Y-116195705D01*
X188592422Y-115248828D01*
X188531847Y-114944295D01*
X188284091Y-114705346D01*
X187419437Y-115570000D01*
X184944563Y-115570000D01*
X184079909Y-114705346D01*
X183832153Y-114944295D01*
X183771578Y-115891172D01*
X182499000Y-115891172D01*
X182499000Y-113467909D01*
X185317346Y-113467909D01*
X186182000Y-114332563D01*
X187046654Y-113467909D01*
X186807705Y-113220153D01*
X185860828Y-113159578D01*
X185556295Y-113220153D01*
X185317346Y-113467909D01*
X182499000Y-113467909D01*
X182499000Y-107551403D01*
X186378682Y-107551403D01*
X186657455Y-108226086D01*
X187173199Y-108742730D01*
X187847395Y-109022681D01*
X188577403Y-109023318D01*
X189252086Y-108744545D01*
X189768730Y-108228801D01*
X190048681Y-107554605D01*
X190049318Y-106824597D01*
X189770545Y-106149914D01*
X189254801Y-105633270D01*
X188580605Y-105353319D01*
X187850597Y-105352682D01*
X187175914Y-105631455D01*
X186659270Y-106147199D01*
X186379319Y-106821395D01*
X186378682Y-107551403D01*
X182499000Y-107551403D01*
X182499000Y-99292325D01*
X183796587Y-99292325D01*
X184158916Y-100169229D01*
X184829242Y-100840726D01*
X185705513Y-101204585D01*
X186654325Y-101205413D01*
X187531229Y-100843084D01*
X188202726Y-100172758D01*
X188566585Y-99296487D01*
X188567413Y-98347675D01*
X188205084Y-97470771D01*
X187534758Y-96799274D01*
X186658487Y-96435415D01*
X185709675Y-96434587D01*
X184832771Y-96796916D01*
X184161274Y-97467242D01*
X183797415Y-98343513D01*
X183796587Y-99292325D01*
X182499000Y-99292325D01*
X182499000Y-84292325D01*
X183796587Y-84292325D01*
X184158916Y-85169229D01*
X184829242Y-85840726D01*
X185705513Y-86204585D01*
X186654325Y-86205413D01*
X187531229Y-85843084D01*
X188202726Y-85172758D01*
X188566585Y-84296487D01*
X188567413Y-83347675D01*
X188205084Y-82470771D01*
X187534758Y-81799274D01*
X186658487Y-81435415D01*
X185709675Y-81434587D01*
X184832771Y-81796916D01*
X184161274Y-82467242D01*
X183797415Y-83343513D01*
X183796587Y-84292325D01*
X182499000Y-84292325D01*
X182499000Y-72100325D01*
X183796587Y-72100325D01*
X184158916Y-72977229D01*
X184829242Y-73648726D01*
X185705513Y-74012585D01*
X186654325Y-74013413D01*
X187531229Y-73651084D01*
X188202726Y-72980758D01*
X188566585Y-72104487D01*
X188567413Y-71155675D01*
X188205084Y-70278771D01*
X187534758Y-69607274D01*
X186658487Y-69243415D01*
X185709675Y-69242587D01*
X184832771Y-69604916D01*
X184161274Y-70275242D01*
X183797415Y-71151513D01*
X183796587Y-72100325D01*
X182499000Y-72100325D01*
X182499000Y-58730091D01*
X185317346Y-58730091D01*
X185556295Y-58977847D01*
X186503172Y-59038422D01*
X186807705Y-58977847D01*
X187046654Y-58730091D01*
X186182000Y-57865437D01*
X185317346Y-58730091D01*
X182499000Y-58730091D01*
X182499000Y-56949172D01*
X183771578Y-56949172D01*
X183832153Y-57253705D01*
X184079909Y-57492654D01*
X184944563Y-56628000D01*
X187419437Y-56628000D01*
X188284091Y-57492654D01*
X188531847Y-57253705D01*
X188592422Y-56306828D01*
X188531847Y-56002295D01*
X188284091Y-55763346D01*
X187419437Y-56628000D01*
X184944563Y-56628000D01*
X184079909Y-55763346D01*
X183832153Y-56002295D01*
X183771578Y-56949172D01*
X182499000Y-56949172D01*
X182499000Y-54525909D01*
X185317346Y-54525909D01*
X186182000Y-55390563D01*
X187046654Y-54525909D01*
X186807705Y-54278153D01*
X185860828Y-54217578D01*
X185556295Y-54278153D01*
X185317346Y-54525909D01*
X182499000Y-54525909D01*
X182499000Y-53376606D01*
X183424606Y-52451000D01*
X189955394Y-52451000D01*
X190018827Y-52514433D01*
X190018827Y-52514433D01*
G37*
X190018827Y-52514433D02*
X190298000Y-53917931D01*
X190298000Y-119926394D01*
X189955394Y-120269000D01*
X183424606Y-120269000D01*
X182499000Y-119343394D01*
X182499000Y-117672091D01*
X185317346Y-117672091D01*
X185556295Y-117919847D01*
X186503172Y-117980422D01*
X186807705Y-117919847D01*
X187046654Y-117672091D01*
X186182000Y-116807437D01*
X185317346Y-117672091D01*
X182499000Y-117672091D01*
X182499000Y-115891172D01*
X183771578Y-115891172D01*
X183832153Y-116195705D01*
X184079909Y-116434654D01*
X184944563Y-115570000D01*
X187419437Y-115570000D01*
X188284091Y-116434654D01*
X188531847Y-116195705D01*
X188592422Y-115248828D01*
X188531847Y-114944295D01*
X188284091Y-114705346D01*
X187419437Y-115570000D01*
X184944563Y-115570000D01*
X184079909Y-114705346D01*
X183832153Y-114944295D01*
X183771578Y-115891172D01*
X182499000Y-115891172D01*
X182499000Y-113467909D01*
X185317346Y-113467909D01*
X186182000Y-114332563D01*
X187046654Y-113467909D01*
X186807705Y-113220153D01*
X185860828Y-113159578D01*
X185556295Y-113220153D01*
X185317346Y-113467909D01*
X182499000Y-113467909D01*
X182499000Y-107551403D01*
X186378682Y-107551403D01*
X186657455Y-108226086D01*
X187173199Y-108742730D01*
X187847395Y-109022681D01*
X188577403Y-109023318D01*
X189252086Y-108744545D01*
X189768730Y-108228801D01*
X190048681Y-107554605D01*
X190049318Y-106824597D01*
X189770545Y-106149914D01*
X189254801Y-105633270D01*
X188580605Y-105353319D01*
X187850597Y-105352682D01*
X187175914Y-105631455D01*
X186659270Y-106147199D01*
X186379319Y-106821395D01*
X186378682Y-107551403D01*
X182499000Y-107551403D01*
X182499000Y-99292325D01*
X183796587Y-99292325D01*
X184158916Y-100169229D01*
X184829242Y-100840726D01*
X185705513Y-101204585D01*
X186654325Y-101205413D01*
X187531229Y-100843084D01*
X188202726Y-100172758D01*
X188566585Y-99296487D01*
X188567413Y-98347675D01*
X188205084Y-97470771D01*
X187534758Y-96799274D01*
X186658487Y-96435415D01*
X185709675Y-96434587D01*
X184832771Y-96796916D01*
X184161274Y-97467242D01*
X183797415Y-98343513D01*
X183796587Y-99292325D01*
X182499000Y-99292325D01*
X182499000Y-84292325D01*
X183796587Y-84292325D01*
X184158916Y-85169229D01*
X184829242Y-85840726D01*
X185705513Y-86204585D01*
X186654325Y-86205413D01*
X187531229Y-85843084D01*
X188202726Y-85172758D01*
X188566585Y-84296487D01*
X188567413Y-83347675D01*
X188205084Y-82470771D01*
X187534758Y-81799274D01*
X186658487Y-81435415D01*
X185709675Y-81434587D01*
X184832771Y-81796916D01*
X184161274Y-82467242D01*
X183797415Y-83343513D01*
X183796587Y-84292325D01*
X182499000Y-84292325D01*
X182499000Y-72100325D01*
X183796587Y-72100325D01*
X184158916Y-72977229D01*
X184829242Y-73648726D01*
X185705513Y-74012585D01*
X186654325Y-74013413D01*
X187531229Y-73651084D01*
X188202726Y-72980758D01*
X188566585Y-72104487D01*
X188567413Y-71155675D01*
X188205084Y-70278771D01*
X187534758Y-69607274D01*
X186658487Y-69243415D01*
X185709675Y-69242587D01*
X184832771Y-69604916D01*
X184161274Y-70275242D01*
X183797415Y-71151513D01*
X183796587Y-72100325D01*
X182499000Y-72100325D01*
X182499000Y-58730091D01*
X185317346Y-58730091D01*
X185556295Y-58977847D01*
X186503172Y-59038422D01*
X186807705Y-58977847D01*
X187046654Y-58730091D01*
X186182000Y-57865437D01*
X185317346Y-58730091D01*
X182499000Y-58730091D01*
X182499000Y-56949172D01*
X183771578Y-56949172D01*
X183832153Y-57253705D01*
X184079909Y-57492654D01*
X184944563Y-56628000D01*
X187419437Y-56628000D01*
X188284091Y-57492654D01*
X188531847Y-57253705D01*
X188592422Y-56306828D01*
X188531847Y-56002295D01*
X188284091Y-55763346D01*
X187419437Y-56628000D01*
X184944563Y-56628000D01*
X184079909Y-55763346D01*
X183832153Y-56002295D01*
X183771578Y-56949172D01*
X182499000Y-56949172D01*
X182499000Y-54525909D01*
X185317346Y-54525909D01*
X186182000Y-55390563D01*
X187046654Y-54525909D01*
X186807705Y-54278153D01*
X185860828Y-54217578D01*
X185556295Y-54278153D01*
X185317346Y-54525909D01*
X182499000Y-54525909D01*
X182499000Y-53376606D01*
X183424606Y-52451000D01*
X189955394Y-52451000D01*
X190018827Y-52514433D01*
G36*
X141097000Y-91984606D02*
X141097000Y-111776000D01*
X141107006Y-111825410D01*
X141134197Y-111865803D01*
X142134197Y-112865803D01*
X142176211Y-112893666D01*
X142224000Y-112903000D01*
X146775394Y-112903000D01*
X147701000Y-113828606D01*
X147701000Y-137123394D01*
X147358394Y-137466000D01*
X105625606Y-137466000D01*
X105283000Y-137123394D01*
X105283000Y-134076325D01*
X114708587Y-134076325D01*
X115070916Y-134953229D01*
X115741242Y-135624726D01*
X116617513Y-135988585D01*
X117566325Y-135989413D01*
X118252017Y-135706091D01*
X142899346Y-135706091D01*
X143138295Y-135953847D01*
X144085172Y-136014422D01*
X144389705Y-135953847D01*
X144628654Y-135706091D01*
X143764000Y-134841437D01*
X142899346Y-135706091D01*
X118252017Y-135706091D01*
X118443229Y-135627084D01*
X119114726Y-134956758D01*
X119478585Y-134080487D01*
X119478720Y-133925172D01*
X141353578Y-133925172D01*
X141414153Y-134229705D01*
X141661909Y-134468654D01*
X142526563Y-133604000D01*
X145001437Y-133604000D01*
X145866091Y-134468654D01*
X146113847Y-134229705D01*
X146174422Y-133282828D01*
X146113847Y-132978295D01*
X145866091Y-132739346D01*
X145001437Y-133604000D01*
X142526563Y-133604000D01*
X141661909Y-132739346D01*
X141414153Y-132978295D01*
X141353578Y-133925172D01*
X119478720Y-133925172D01*
X119479413Y-133131675D01*
X119117084Y-132254771D01*
X118446758Y-131583274D01*
X118250810Y-131501909D01*
X142899346Y-131501909D01*
X143764000Y-132366563D01*
X144628654Y-131501909D01*
X144389705Y-131254153D01*
X143442828Y-131193578D01*
X143138295Y-131254153D01*
X142899346Y-131501909D01*
X118250810Y-131501909D01*
X117570487Y-131219415D01*
X116621675Y-131218587D01*
X115744771Y-131580916D01*
X115073274Y-132251242D01*
X114709415Y-133127513D01*
X114708587Y-134076325D01*
X105283000Y-134076325D01*
X105283000Y-126020606D01*
X106208606Y-125095000D01*
X130572000Y-125095000D01*
X130621410Y-125084994D01*
X130661803Y-125057803D01*
X131661803Y-124057803D01*
X131689666Y-124015789D01*
X131699000Y-123968000D01*
X131699000Y-108392750D01*
X131747000Y-108392750D01*
X131747000Y-110110310D01*
X131843673Y-110343699D01*
X132022302Y-110522327D01*
X132255691Y-110619000D01*
X132898250Y-110619000D01*
X133057000Y-110460250D01*
X133057000Y-108234000D01*
X134407000Y-108234000D01*
X134407000Y-110460250D01*
X134565750Y-110619000D01*
X135208309Y-110619000D01*
X135441698Y-110522327D01*
X135620327Y-110343699D01*
X135717000Y-110110310D01*
X135717000Y-108809750D01*
X136822000Y-108809750D01*
X136822000Y-110732310D01*
X136918673Y-110965699D01*
X137097302Y-111144327D01*
X137330691Y-111241000D01*
X137985750Y-111241000D01*
X138144500Y-111082250D01*
X138144500Y-108651000D01*
X139519500Y-108651000D01*
X139519500Y-111082250D01*
X139678250Y-111241000D01*
X140333309Y-111241000D01*
X140566698Y-111144327D01*
X140745327Y-110965699D01*
X140842000Y-110732310D01*
X140842000Y-108809750D01*
X140683250Y-108651000D01*
X139519500Y-108651000D01*
X138144500Y-108651000D01*
X136980750Y-108651000D01*
X136822000Y-108809750D01*
X135717000Y-108809750D01*
X135717000Y-108392750D01*
X135558250Y-108234000D01*
X134407000Y-108234000D01*
X133057000Y-108234000D01*
X131905750Y-108234000D01*
X131747000Y-108392750D01*
X131699000Y-108392750D01*
X131699000Y-102857690D01*
X131747000Y-102857690D01*
X131747000Y-104575250D01*
X131905750Y-104734000D01*
X133057000Y-104734000D01*
X133057000Y-102507750D01*
X134407000Y-102507750D01*
X134407000Y-104734000D01*
X135558250Y-104734000D01*
X135717000Y-104575250D01*
X135717000Y-102857690D01*
X135634986Y-102659690D01*
X136822000Y-102659690D01*
X136822000Y-104582250D01*
X136980750Y-104741000D01*
X138144500Y-104741000D01*
X138144500Y-102309750D01*
X139519500Y-102309750D01*
X139519500Y-104741000D01*
X140683250Y-104741000D01*
X140842000Y-104582250D01*
X140842000Y-102659690D01*
X140745327Y-102426301D01*
X140566698Y-102247673D01*
X140333309Y-102151000D01*
X139678250Y-102151000D01*
X139519500Y-102309750D01*
X138144500Y-102309750D01*
X137985750Y-102151000D01*
X137330691Y-102151000D01*
X137097302Y-102247673D01*
X136918673Y-102426301D01*
X136822000Y-102659690D01*
X135634986Y-102659690D01*
X135620327Y-102624301D01*
X135441698Y-102445673D01*
X135208309Y-102349000D01*
X134565750Y-102349000D01*
X134407000Y-102507750D01*
X133057000Y-102507750D01*
X132898250Y-102349000D01*
X132255691Y-102349000D01*
X132022302Y-102445673D01*
X131843673Y-102624301D01*
X131747000Y-102857690D01*
X131699000Y-102857690D01*
X131699000Y-98740750D01*
X131737000Y-98740750D01*
X131737000Y-100458310D01*
X131833673Y-100691699D01*
X132012302Y-100870327D01*
X132245691Y-100967000D01*
X132888250Y-100967000D01*
X133047000Y-100808250D01*
X133047000Y-98582000D01*
X134397000Y-98582000D01*
X134397000Y-100808250D01*
X134555750Y-100967000D01*
X135198309Y-100967000D01*
X135431698Y-100870327D01*
X135610327Y-100691699D01*
X135707000Y-100458310D01*
X135707000Y-98740750D01*
X135548250Y-98582000D01*
X134397000Y-98582000D01*
X133047000Y-98582000D01*
X131895750Y-98582000D01*
X131737000Y-98740750D01*
X131699000Y-98740750D01*
X131699000Y-93205690D01*
X131737000Y-93205690D01*
X131737000Y-94923250D01*
X131895750Y-95082000D01*
X133047000Y-95082000D01*
X133047000Y-92855750D01*
X134397000Y-92855750D01*
X134397000Y-95082000D01*
X135548250Y-95082000D01*
X135707000Y-94923250D01*
X135707000Y-93205690D01*
X135610327Y-92972301D01*
X135431698Y-92793673D01*
X135198309Y-92697000D01*
X134555750Y-92697000D01*
X134397000Y-92855750D01*
X133047000Y-92855750D01*
X132888250Y-92697000D01*
X132245691Y-92697000D01*
X132012302Y-92793673D01*
X131833673Y-92972301D01*
X131737000Y-93205690D01*
X131699000Y-93205690D01*
X131699000Y-91984606D01*
X132624606Y-91059000D01*
X140171394Y-91059000D01*
X141097000Y-91984606D01*
X141097000Y-91984606D01*
G37*
X141097000Y-91984606D02*
X141097000Y-111776000D01*
X141107006Y-111825410D01*
X141134197Y-111865803D01*
X142134197Y-112865803D01*
X142176211Y-112893666D01*
X142224000Y-112903000D01*
X146775394Y-112903000D01*
X147701000Y-113828606D01*
X147701000Y-137123394D01*
X147358394Y-137466000D01*
X105625606Y-137466000D01*
X105283000Y-137123394D01*
X105283000Y-134076325D01*
X114708587Y-134076325D01*
X115070916Y-134953229D01*
X115741242Y-135624726D01*
X116617513Y-135988585D01*
X117566325Y-135989413D01*
X118252017Y-135706091D01*
X142899346Y-135706091D01*
X143138295Y-135953847D01*
X144085172Y-136014422D01*
X144389705Y-135953847D01*
X144628654Y-135706091D01*
X143764000Y-134841437D01*
X142899346Y-135706091D01*
X118252017Y-135706091D01*
X118443229Y-135627084D01*
X119114726Y-134956758D01*
X119478585Y-134080487D01*
X119478720Y-133925172D01*
X141353578Y-133925172D01*
X141414153Y-134229705D01*
X141661909Y-134468654D01*
X142526563Y-133604000D01*
X145001437Y-133604000D01*
X145866091Y-134468654D01*
X146113847Y-134229705D01*
X146174422Y-133282828D01*
X146113847Y-132978295D01*
X145866091Y-132739346D01*
X145001437Y-133604000D01*
X142526563Y-133604000D01*
X141661909Y-132739346D01*
X141414153Y-132978295D01*
X141353578Y-133925172D01*
X119478720Y-133925172D01*
X119479413Y-133131675D01*
X119117084Y-132254771D01*
X118446758Y-131583274D01*
X118250810Y-131501909D01*
X142899346Y-131501909D01*
X143764000Y-132366563D01*
X144628654Y-131501909D01*
X144389705Y-131254153D01*
X143442828Y-131193578D01*
X143138295Y-131254153D01*
X142899346Y-131501909D01*
X118250810Y-131501909D01*
X117570487Y-131219415D01*
X116621675Y-131218587D01*
X115744771Y-131580916D01*
X115073274Y-132251242D01*
X114709415Y-133127513D01*
X114708587Y-134076325D01*
X105283000Y-134076325D01*
X105283000Y-126020606D01*
X106208606Y-125095000D01*
X130572000Y-125095000D01*
X130621410Y-125084994D01*
X130661803Y-125057803D01*
X131661803Y-124057803D01*
X131689666Y-124015789D01*
X131699000Y-123968000D01*
X131699000Y-108392750D01*
X131747000Y-108392750D01*
X131747000Y-110110310D01*
X131843673Y-110343699D01*
X132022302Y-110522327D01*
X132255691Y-110619000D01*
X132898250Y-110619000D01*
X133057000Y-110460250D01*
X133057000Y-108234000D01*
X134407000Y-108234000D01*
X134407000Y-110460250D01*
X134565750Y-110619000D01*
X135208309Y-110619000D01*
X135441698Y-110522327D01*
X135620327Y-110343699D01*
X135717000Y-110110310D01*
X135717000Y-108809750D01*
X136822000Y-108809750D01*
X136822000Y-110732310D01*
X136918673Y-110965699D01*
X137097302Y-111144327D01*
X137330691Y-111241000D01*
X137985750Y-111241000D01*
X138144500Y-111082250D01*
X138144500Y-108651000D01*
X139519500Y-108651000D01*
X139519500Y-111082250D01*
X139678250Y-111241000D01*
X140333309Y-111241000D01*
X140566698Y-111144327D01*
X140745327Y-110965699D01*
X140842000Y-110732310D01*
X140842000Y-108809750D01*
X140683250Y-108651000D01*
X139519500Y-108651000D01*
X138144500Y-108651000D01*
X136980750Y-108651000D01*
X136822000Y-108809750D01*
X135717000Y-108809750D01*
X135717000Y-108392750D01*
X135558250Y-108234000D01*
X134407000Y-108234000D01*
X133057000Y-108234000D01*
X131905750Y-108234000D01*
X131747000Y-108392750D01*
X131699000Y-108392750D01*
X131699000Y-102857690D01*
X131747000Y-102857690D01*
X131747000Y-104575250D01*
X131905750Y-104734000D01*
X133057000Y-104734000D01*
X133057000Y-102507750D01*
X134407000Y-102507750D01*
X134407000Y-104734000D01*
X135558250Y-104734000D01*
X135717000Y-104575250D01*
X135717000Y-102857690D01*
X135634986Y-102659690D01*
X136822000Y-102659690D01*
X136822000Y-104582250D01*
X136980750Y-104741000D01*
X138144500Y-104741000D01*
X138144500Y-102309750D01*
X139519500Y-102309750D01*
X139519500Y-104741000D01*
X140683250Y-104741000D01*
X140842000Y-104582250D01*
X140842000Y-102659690D01*
X140745327Y-102426301D01*
X140566698Y-102247673D01*
X140333309Y-102151000D01*
X139678250Y-102151000D01*
X139519500Y-102309750D01*
X138144500Y-102309750D01*
X137985750Y-102151000D01*
X137330691Y-102151000D01*
X137097302Y-102247673D01*
X136918673Y-102426301D01*
X136822000Y-102659690D01*
X135634986Y-102659690D01*
X135620327Y-102624301D01*
X135441698Y-102445673D01*
X135208309Y-102349000D01*
X134565750Y-102349000D01*
X134407000Y-102507750D01*
X133057000Y-102507750D01*
X132898250Y-102349000D01*
X132255691Y-102349000D01*
X132022302Y-102445673D01*
X131843673Y-102624301D01*
X131747000Y-102857690D01*
X131699000Y-102857690D01*
X131699000Y-98740750D01*
X131737000Y-98740750D01*
X131737000Y-100458310D01*
X131833673Y-100691699D01*
X132012302Y-100870327D01*
X132245691Y-100967000D01*
X132888250Y-100967000D01*
X133047000Y-100808250D01*
X133047000Y-98582000D01*
X134397000Y-98582000D01*
X134397000Y-100808250D01*
X134555750Y-100967000D01*
X135198309Y-100967000D01*
X135431698Y-100870327D01*
X135610327Y-100691699D01*
X135707000Y-100458310D01*
X135707000Y-98740750D01*
X135548250Y-98582000D01*
X134397000Y-98582000D01*
X133047000Y-98582000D01*
X131895750Y-98582000D01*
X131737000Y-98740750D01*
X131699000Y-98740750D01*
X131699000Y-93205690D01*
X131737000Y-93205690D01*
X131737000Y-94923250D01*
X131895750Y-95082000D01*
X133047000Y-95082000D01*
X133047000Y-92855750D01*
X134397000Y-92855750D01*
X134397000Y-95082000D01*
X135548250Y-95082000D01*
X135707000Y-94923250D01*
X135707000Y-93205690D01*
X135610327Y-92972301D01*
X135431698Y-92793673D01*
X135198309Y-92697000D01*
X134555750Y-92697000D01*
X134397000Y-92855750D01*
X133047000Y-92855750D01*
X132888250Y-92697000D01*
X132245691Y-92697000D01*
X132012302Y-92793673D01*
X131833673Y-92972301D01*
X131737000Y-93205690D01*
X131699000Y-93205690D01*
X131699000Y-91984606D01*
X132624606Y-91059000D01*
X140171394Y-91059000D01*
X141097000Y-91984606D01*
G36*
X130372000Y-91927606D02*
X130372000Y-92697000D01*
X129855750Y-92697000D01*
X129697000Y-92855750D01*
X129697000Y-95082000D01*
X130372000Y-95082000D01*
X130372000Y-98582000D01*
X129697000Y-98582000D01*
X129697000Y-100808250D01*
X129855750Y-100967000D01*
X130372000Y-100967000D01*
X130372000Y-102349000D01*
X129865750Y-102349000D01*
X129707000Y-102507750D01*
X129707000Y-104734000D01*
X130372000Y-104734000D01*
X130372000Y-108205002D01*
X130382000Y-108205002D01*
X130382000Y-108234000D01*
X129707000Y-108234000D01*
X129707000Y-110460250D01*
X129865750Y-110619000D01*
X130382000Y-110619000D01*
X130382000Y-117857002D01*
X130429000Y-117857002D01*
X130429000Y-123407394D01*
X129503394Y-124333000D01*
X106208606Y-124333000D01*
X105283000Y-123407394D01*
X105283000Y-121576325D01*
X107208587Y-121576325D01*
X107570916Y-122453229D01*
X108241242Y-123124726D01*
X109117513Y-123488585D01*
X110066325Y-123489413D01*
X110752017Y-123206091D01*
X123729346Y-123206091D01*
X123968295Y-123453847D01*
X124915172Y-123514422D01*
X125219705Y-123453847D01*
X125458654Y-123206091D01*
X124594000Y-122341437D01*
X123729346Y-123206091D01*
X110752017Y-123206091D01*
X110943229Y-123127084D01*
X111614726Y-122456758D01*
X111978585Y-121580487D01*
X111978720Y-121425172D01*
X122183578Y-121425172D01*
X122244153Y-121729705D01*
X122491909Y-121968654D01*
X123356563Y-121104000D01*
X125831437Y-121104000D01*
X126696091Y-121968654D01*
X126943847Y-121729705D01*
X127004422Y-120782828D01*
X126943847Y-120478295D01*
X126696091Y-120239346D01*
X125831437Y-121104000D01*
X123356563Y-121104000D01*
X122491909Y-120239346D01*
X122244153Y-120478295D01*
X122183578Y-121425172D01*
X111978720Y-121425172D01*
X111979413Y-120631675D01*
X111617084Y-119754771D01*
X110946758Y-119083274D01*
X110750810Y-119001909D01*
X123729346Y-119001909D01*
X124594000Y-119866563D01*
X125458654Y-119001909D01*
X125219705Y-118754153D01*
X124272828Y-118693578D01*
X123968295Y-118754153D01*
X123729346Y-119001909D01*
X110750810Y-119001909D01*
X110070487Y-118719415D01*
X109121675Y-118718587D01*
X108244771Y-119080916D01*
X107573274Y-119751242D01*
X107209415Y-120627513D01*
X107208587Y-121576325D01*
X105283000Y-121576325D01*
X105283000Y-108392750D01*
X127047000Y-108392750D01*
X127047000Y-110110310D01*
X127143673Y-110343699D01*
X127322302Y-110522327D01*
X127555691Y-110619000D01*
X128198250Y-110619000D01*
X128357000Y-110460250D01*
X128357000Y-108234000D01*
X127205750Y-108234000D01*
X127047000Y-108392750D01*
X105283000Y-108392750D01*
X105283000Y-102857690D01*
X127047000Y-102857690D01*
X127047000Y-104575250D01*
X127205750Y-104734000D01*
X128357000Y-104734000D01*
X128357000Y-102507750D01*
X128198250Y-102349000D01*
X127555691Y-102349000D01*
X127322302Y-102445673D01*
X127143673Y-102624301D01*
X127047000Y-102857690D01*
X105283000Y-102857690D01*
X105283000Y-98740750D01*
X127037000Y-98740750D01*
X127037000Y-100458310D01*
X127133673Y-100691699D01*
X127312302Y-100870327D01*
X127545691Y-100967000D01*
X128188250Y-100967000D01*
X128347000Y-100808250D01*
X128347000Y-98582000D01*
X127195750Y-98582000D01*
X127037000Y-98740750D01*
X105283000Y-98740750D01*
X105283000Y-93205690D01*
X127037000Y-93205690D01*
X127037000Y-94923250D01*
X127195750Y-95082000D01*
X128347000Y-95082000D01*
X128347000Y-92855750D01*
X128188250Y-92697000D01*
X127545691Y-92697000D01*
X127312302Y-92793673D01*
X127133673Y-92972301D01*
X127037000Y-93205690D01*
X105283000Y-93205690D01*
X105283000Y-91984606D01*
X106208606Y-91059000D01*
X129503394Y-91059000D01*
X130372000Y-91927606D01*
X130372000Y-91927606D01*
G37*
X130372000Y-91927606D02*
X130372000Y-92697000D01*
X129855750Y-92697000D01*
X129697000Y-92855750D01*
X129697000Y-95082000D01*
X130372000Y-95082000D01*
X130372000Y-98582000D01*
X129697000Y-98582000D01*
X129697000Y-100808250D01*
X129855750Y-100967000D01*
X130372000Y-100967000D01*
X130372000Y-102349000D01*
X129865750Y-102349000D01*
X129707000Y-102507750D01*
X129707000Y-104734000D01*
X130372000Y-104734000D01*
X130372000Y-108205002D01*
X130382000Y-108205002D01*
X130382000Y-108234000D01*
X129707000Y-108234000D01*
X129707000Y-110460250D01*
X129865750Y-110619000D01*
X130382000Y-110619000D01*
X130382000Y-117857002D01*
X130429000Y-117857002D01*
X130429000Y-123407394D01*
X129503394Y-124333000D01*
X106208606Y-124333000D01*
X105283000Y-123407394D01*
X105283000Y-121576325D01*
X107208587Y-121576325D01*
X107570916Y-122453229D01*
X108241242Y-123124726D01*
X109117513Y-123488585D01*
X110066325Y-123489413D01*
X110752017Y-123206091D01*
X123729346Y-123206091D01*
X123968295Y-123453847D01*
X124915172Y-123514422D01*
X125219705Y-123453847D01*
X125458654Y-123206091D01*
X124594000Y-122341437D01*
X123729346Y-123206091D01*
X110752017Y-123206091D01*
X110943229Y-123127084D01*
X111614726Y-122456758D01*
X111978585Y-121580487D01*
X111978720Y-121425172D01*
X122183578Y-121425172D01*
X122244153Y-121729705D01*
X122491909Y-121968654D01*
X123356563Y-121104000D01*
X125831437Y-121104000D01*
X126696091Y-121968654D01*
X126943847Y-121729705D01*
X127004422Y-120782828D01*
X126943847Y-120478295D01*
X126696091Y-120239346D01*
X125831437Y-121104000D01*
X123356563Y-121104000D01*
X122491909Y-120239346D01*
X122244153Y-120478295D01*
X122183578Y-121425172D01*
X111978720Y-121425172D01*
X111979413Y-120631675D01*
X111617084Y-119754771D01*
X110946758Y-119083274D01*
X110750810Y-119001909D01*
X123729346Y-119001909D01*
X124594000Y-119866563D01*
X125458654Y-119001909D01*
X125219705Y-118754153D01*
X124272828Y-118693578D01*
X123968295Y-118754153D01*
X123729346Y-119001909D01*
X110750810Y-119001909D01*
X110070487Y-118719415D01*
X109121675Y-118718587D01*
X108244771Y-119080916D01*
X107573274Y-119751242D01*
X107209415Y-120627513D01*
X107208587Y-121576325D01*
X105283000Y-121576325D01*
X105283000Y-108392750D01*
X127047000Y-108392750D01*
X127047000Y-110110310D01*
X127143673Y-110343699D01*
X127322302Y-110522327D01*
X127555691Y-110619000D01*
X128198250Y-110619000D01*
X128357000Y-110460250D01*
X128357000Y-108234000D01*
X127205750Y-108234000D01*
X127047000Y-108392750D01*
X105283000Y-108392750D01*
X105283000Y-102857690D01*
X127047000Y-102857690D01*
X127047000Y-104575250D01*
X127205750Y-104734000D01*
X128357000Y-104734000D01*
X128357000Y-102507750D01*
X128198250Y-102349000D01*
X127555691Y-102349000D01*
X127322302Y-102445673D01*
X127143673Y-102624301D01*
X127047000Y-102857690D01*
X105283000Y-102857690D01*
X105283000Y-98740750D01*
X127037000Y-98740750D01*
X127037000Y-100458310D01*
X127133673Y-100691699D01*
X127312302Y-100870327D01*
X127545691Y-100967000D01*
X128188250Y-100967000D01*
X128347000Y-100808250D01*
X128347000Y-98582000D01*
X127195750Y-98582000D01*
X127037000Y-98740750D01*
X105283000Y-98740750D01*
X105283000Y-93205690D01*
X127037000Y-93205690D01*
X127037000Y-94923250D01*
X127195750Y-95082000D01*
X128347000Y-95082000D01*
X128347000Y-92855750D01*
X128188250Y-92697000D01*
X127545691Y-92697000D01*
X127312302Y-92793673D01*
X127133673Y-92972301D01*
X127037000Y-93205690D01*
X105283000Y-93205690D01*
X105283000Y-91984606D01*
X106208606Y-91059000D01*
X129503394Y-91059000D01*
X130372000Y-91927606D01*
G36*
X147701000Y-91984606D02*
X147701000Y-110453394D01*
X146775394Y-111379000D01*
X143292606Y-111379000D01*
X142367000Y-110453394D01*
X142367000Y-108809750D01*
X143082000Y-108809750D01*
X143082000Y-110732310D01*
X143178673Y-110965699D01*
X143357302Y-111144327D01*
X143590691Y-111241000D01*
X144245750Y-111241000D01*
X144404500Y-111082250D01*
X144404500Y-108651000D01*
X145779500Y-108651000D01*
X145779500Y-111082250D01*
X145938250Y-111241000D01*
X146593309Y-111241000D01*
X146826698Y-111144327D01*
X147005327Y-110965699D01*
X147102000Y-110732310D01*
X147102000Y-108809750D01*
X146943250Y-108651000D01*
X145779500Y-108651000D01*
X144404500Y-108651000D01*
X143240750Y-108651000D01*
X143082000Y-108809750D01*
X142367000Y-108809750D01*
X142367000Y-102659690D01*
X143082000Y-102659690D01*
X143082000Y-104582250D01*
X143240750Y-104741000D01*
X144404500Y-104741000D01*
X144404500Y-102309750D01*
X145779500Y-102309750D01*
X145779500Y-104741000D01*
X146943250Y-104741000D01*
X147102000Y-104582250D01*
X147102000Y-102659690D01*
X147005327Y-102426301D01*
X146826698Y-102247673D01*
X146593309Y-102151000D01*
X145938250Y-102151000D01*
X145779500Y-102309750D01*
X144404500Y-102309750D01*
X144245750Y-102151000D01*
X143590691Y-102151000D01*
X143357302Y-102247673D01*
X143178673Y-102426301D01*
X143082000Y-102659690D01*
X142367000Y-102659690D01*
X142367000Y-91984606D01*
X143292606Y-91059000D01*
X146775394Y-91059000D01*
X147701000Y-91984606D01*
X147701000Y-91984606D01*
G37*
X147701000Y-91984606D02*
X147701000Y-110453394D01*
X146775394Y-111379000D01*
X143292606Y-111379000D01*
X142367000Y-110453394D01*
X142367000Y-108809750D01*
X143082000Y-108809750D01*
X143082000Y-110732310D01*
X143178673Y-110965699D01*
X143357302Y-111144327D01*
X143590691Y-111241000D01*
X144245750Y-111241000D01*
X144404500Y-111082250D01*
X144404500Y-108651000D01*
X145779500Y-108651000D01*
X145779500Y-111082250D01*
X145938250Y-111241000D01*
X146593309Y-111241000D01*
X146826698Y-111144327D01*
X147005327Y-110965699D01*
X147102000Y-110732310D01*
X147102000Y-108809750D01*
X146943250Y-108651000D01*
X145779500Y-108651000D01*
X144404500Y-108651000D01*
X143240750Y-108651000D01*
X143082000Y-108809750D01*
X142367000Y-108809750D01*
X142367000Y-102659690D01*
X143082000Y-102659690D01*
X143082000Y-104582250D01*
X143240750Y-104741000D01*
X144404500Y-104741000D01*
X144404500Y-102309750D01*
X145779500Y-102309750D01*
X145779500Y-104741000D01*
X146943250Y-104741000D01*
X147102000Y-104582250D01*
X147102000Y-102659690D01*
X147005327Y-102426301D01*
X146826698Y-102247673D01*
X146593309Y-102151000D01*
X145938250Y-102151000D01*
X145779500Y-102309750D01*
X144404500Y-102309750D01*
X144245750Y-102151000D01*
X143590691Y-102151000D01*
X143357302Y-102247673D01*
X143178673Y-102426301D01*
X143082000Y-102659690D01*
X142367000Y-102659690D01*
X142367000Y-91984606D01*
X143292606Y-91059000D01*
X146775394Y-91059000D01*
X147701000Y-91984606D01*
G36*
X113157000Y-49820606D02*
X113157000Y-51001505D01*
X112744487Y-50830215D01*
X111795675Y-50829387D01*
X110918771Y-51191716D01*
X110247274Y-51862042D01*
X109883415Y-52738313D01*
X109882587Y-53687125D01*
X110244916Y-54564029D01*
X110915242Y-55235526D01*
X111791513Y-55599385D01*
X112740325Y-55600213D01*
X113157000Y-55428047D01*
X113157000Y-58122811D01*
X113111162Y-58233201D01*
X113110838Y-58605167D01*
X113157000Y-58716888D01*
X113157000Y-67520811D01*
X113111162Y-67631201D01*
X113110838Y-68003167D01*
X113157000Y-68114888D01*
X113157000Y-71644000D01*
X113167006Y-71693410D01*
X113194197Y-71733803D01*
X114194197Y-72733803D01*
X114236211Y-72761666D01*
X114284000Y-72771000D01*
X136271000Y-72771000D01*
X136271000Y-75394811D01*
X136225162Y-75505201D01*
X136224838Y-75877167D01*
X136366883Y-76220943D01*
X136629673Y-76484192D01*
X136973201Y-76626838D01*
X137345167Y-76627162D01*
X137668371Y-76493617D01*
X137989201Y-76626838D01*
X138361167Y-76627162D01*
X138704943Y-76485117D01*
X138968192Y-76222327D01*
X139110838Y-75878799D01*
X139111162Y-75506833D01*
X139065000Y-75395112D01*
X139065000Y-73279000D01*
X151594811Y-73279000D01*
X151705201Y-73324838D01*
X152077167Y-73325162D01*
X152420943Y-73183117D01*
X152684192Y-72920327D01*
X152746198Y-72771000D01*
X154686000Y-72771000D01*
X154686000Y-78061811D01*
X154640162Y-78172201D01*
X154639838Y-78544167D01*
X154781883Y-78887943D01*
X155044673Y-79151192D01*
X155388201Y-79293838D01*
X155760167Y-79294162D01*
X156103943Y-79152117D01*
X156367192Y-78889327D01*
X156509838Y-78545799D01*
X156510162Y-78173833D01*
X156464000Y-78062112D01*
X156464000Y-72771000D01*
X167095394Y-72771000D01*
X168021000Y-73696606D01*
X168021000Y-111268000D01*
X168031006Y-111317410D01*
X168058197Y-111357803D01*
X169058197Y-112357803D01*
X169100211Y-112385666D01*
X169148000Y-112395000D01*
X177255394Y-112395000D01*
X178181000Y-113320606D01*
X178181000Y-120920000D01*
X178191006Y-120969410D01*
X178218197Y-121009803D01*
X179218197Y-122009803D01*
X179260211Y-122037666D01*
X179308000Y-122047000D01*
X189955394Y-122047000D01*
X190298000Y-122389606D01*
X190298000Y-133026069D01*
X189952502Y-134763003D01*
X189008221Y-136176221D01*
X187595005Y-137120502D01*
X185858069Y-137466000D01*
X149313606Y-137466000D01*
X148971000Y-137123394D01*
X148971000Y-132331482D01*
X157200336Y-132331482D01*
X157782950Y-133741515D01*
X158860811Y-134821259D01*
X160269825Y-135406333D01*
X161795482Y-135407664D01*
X163205515Y-134825050D01*
X164285259Y-133747189D01*
X164870333Y-132338175D01*
X164871463Y-131042325D01*
X183796587Y-131042325D01*
X184158916Y-131919229D01*
X184829242Y-132590726D01*
X185705513Y-132954585D01*
X186654325Y-132955413D01*
X187531229Y-132593084D01*
X188202726Y-131922758D01*
X188566585Y-131046487D01*
X188567413Y-130097675D01*
X188205084Y-129220771D01*
X187534758Y-128549274D01*
X186658487Y-128185415D01*
X185709675Y-128184587D01*
X184832771Y-128546916D01*
X184161274Y-129217242D01*
X183797415Y-130093513D01*
X183796587Y-131042325D01*
X164871463Y-131042325D01*
X164871664Y-130812518D01*
X164289050Y-129402485D01*
X163211189Y-128322741D01*
X161802175Y-127737667D01*
X160276518Y-127736336D01*
X158866485Y-128318950D01*
X157786741Y-129396811D01*
X157201667Y-130805825D01*
X157200336Y-132331482D01*
X148971000Y-132331482D01*
X148971000Y-123542325D01*
X171296587Y-123542325D01*
X171658916Y-124419229D01*
X172329242Y-125090726D01*
X173205513Y-125454585D01*
X174154325Y-125455413D01*
X175031229Y-125093084D01*
X175702726Y-124422758D01*
X176066585Y-123546487D01*
X176067413Y-122597675D01*
X175705084Y-121720771D01*
X175034758Y-121049274D01*
X174158487Y-120685415D01*
X173209675Y-120684587D01*
X172332771Y-121046916D01*
X171661274Y-121717242D01*
X171297415Y-122593513D01*
X171296587Y-123542325D01*
X148971000Y-123542325D01*
X148971000Y-123206091D01*
X150399346Y-123206091D01*
X150638295Y-123453847D01*
X151585172Y-123514422D01*
X151889705Y-123453847D01*
X152128654Y-123206091D01*
X151264000Y-122341437D01*
X150399346Y-123206091D01*
X148971000Y-123206091D01*
X148971000Y-121784531D01*
X149161909Y-121968654D01*
X150026563Y-121104000D01*
X152501437Y-121104000D01*
X153366091Y-121968654D01*
X153613847Y-121729705D01*
X153674422Y-120782828D01*
X153613847Y-120478295D01*
X153366091Y-120239346D01*
X152501437Y-121104000D01*
X150026563Y-121104000D01*
X149161909Y-120239346D01*
X148971000Y-120423469D01*
X148971000Y-119001909D01*
X150399346Y-119001909D01*
X151264000Y-119866563D01*
X152128654Y-119001909D01*
X151889705Y-118754153D01*
X150942828Y-118693578D01*
X150638295Y-118754153D01*
X150399346Y-119001909D01*
X148971000Y-119001909D01*
X148971000Y-108051891D01*
X156115076Y-108051891D01*
X156316312Y-108353127D01*
X156870102Y-108806963D01*
X157134000Y-108763424D01*
X157134000Y-107788000D01*
X158334000Y-107788000D01*
X158334000Y-108763424D01*
X158597898Y-108806963D01*
X159151688Y-108353127D01*
X159352924Y-108051891D01*
X159299188Y-107788000D01*
X158334000Y-107788000D01*
X157134000Y-107788000D01*
X156168812Y-107788000D01*
X156115076Y-108051891D01*
X148971000Y-108051891D01*
X148971000Y-106324109D01*
X156115076Y-106324109D01*
X156168812Y-106588000D01*
X157134000Y-106588000D01*
X157134000Y-105612576D01*
X158334000Y-105612576D01*
X158334000Y-106588000D01*
X159299188Y-106588000D01*
X159352924Y-106324109D01*
X159151688Y-106022873D01*
X158597898Y-105569037D01*
X158334000Y-105612576D01*
X157134000Y-105612576D01*
X156870102Y-105569037D01*
X156316312Y-106022873D01*
X156115076Y-106324109D01*
X148971000Y-106324109D01*
X148971000Y-90916000D01*
X148960994Y-90866590D01*
X148933803Y-90826197D01*
X147933803Y-89826197D01*
X147891789Y-89798334D01*
X147844000Y-89789000D01*
X129719245Y-89789000D01*
X129562327Y-89631808D01*
X129218799Y-89489162D01*
X128846833Y-89488838D01*
X128503057Y-89630883D01*
X128344664Y-89789000D01*
X105140000Y-89789000D01*
X105090590Y-89799006D01*
X105050197Y-89826197D01*
X104050197Y-90826197D01*
X104022334Y-90868211D01*
X104013000Y-90916000D01*
X104013000Y-132150505D01*
X103446758Y-131583274D01*
X102570487Y-131219415D01*
X101621675Y-131218587D01*
X100744771Y-131580916D01*
X100073274Y-132251242D01*
X99709415Y-133127513D01*
X99708587Y-134076325D01*
X100070916Y-134953229D01*
X100741242Y-135624726D01*
X101617513Y-135988585D01*
X102566325Y-135989413D01*
X103443229Y-135627084D01*
X104013000Y-135058307D01*
X104013000Y-137123394D01*
X103670394Y-137466000D01*
X96843931Y-137466000D01*
X95106997Y-137120502D01*
X93693779Y-136176221D01*
X92749498Y-134763005D01*
X92404000Y-133026069D01*
X92404000Y-107439482D01*
X92938336Y-107439482D01*
X93520950Y-108849515D01*
X94598811Y-109929259D01*
X96007825Y-110514333D01*
X97533482Y-110515664D01*
X98943515Y-109933050D01*
X100023259Y-108855189D01*
X100608333Y-107446175D01*
X100609664Y-105920518D01*
X100027050Y-104510485D01*
X98949189Y-103430741D01*
X97540175Y-102845667D01*
X96014518Y-102844336D01*
X94604485Y-103426950D01*
X93524741Y-104504811D01*
X92939667Y-105913825D01*
X92938336Y-107439482D01*
X92404000Y-107439482D01*
X92404000Y-67816891D01*
X103903346Y-67816891D01*
X104142295Y-68064647D01*
X105089172Y-68125222D01*
X105393705Y-68064647D01*
X105632654Y-67816891D01*
X104768000Y-66952237D01*
X103903346Y-67816891D01*
X92404000Y-67816891D01*
X92404000Y-66035972D01*
X102357578Y-66035972D01*
X102418153Y-66340505D01*
X102665909Y-66579454D01*
X103530563Y-65714800D01*
X106005437Y-65714800D01*
X106870091Y-66579454D01*
X107117847Y-66340505D01*
X107178422Y-65393628D01*
X107117847Y-65089095D01*
X106870091Y-64850146D01*
X106005437Y-65714800D01*
X103530563Y-65714800D01*
X102665909Y-64850146D01*
X102418153Y-65089095D01*
X102357578Y-66035972D01*
X92404000Y-66035972D01*
X92404000Y-63612709D01*
X103903346Y-63612709D01*
X104768000Y-64477363D01*
X105632654Y-63612709D01*
X105393705Y-63364953D01*
X104446828Y-63304378D01*
X104142295Y-63364953D01*
X103903346Y-63612709D01*
X92404000Y-63612709D01*
X92404000Y-54607482D01*
X92938336Y-54607482D01*
X93520950Y-56017515D01*
X94598811Y-57097259D01*
X96007825Y-57682333D01*
X97533482Y-57683664D01*
X98943515Y-57101050D01*
X100023259Y-56023189D01*
X100608333Y-54614175D01*
X100609664Y-53088518D01*
X100027050Y-51678485D01*
X98949189Y-50598741D01*
X97540175Y-50013667D01*
X96014518Y-50012336D01*
X94604485Y-50594950D01*
X93524741Y-51672811D01*
X92939667Y-53081825D01*
X92938336Y-54607482D01*
X92404000Y-54607482D01*
X92404000Y-53917931D01*
X92749498Y-52180995D01*
X93693779Y-50767779D01*
X95106997Y-49823498D01*
X96843931Y-49478000D01*
X112814394Y-49478000D01*
X113157000Y-49820606D01*
X113157000Y-49820606D01*
G37*
X113157000Y-49820606D02*
X113157000Y-51001505D01*
X112744487Y-50830215D01*
X111795675Y-50829387D01*
X110918771Y-51191716D01*
X110247274Y-51862042D01*
X109883415Y-52738313D01*
X109882587Y-53687125D01*
X110244916Y-54564029D01*
X110915242Y-55235526D01*
X111791513Y-55599385D01*
X112740325Y-55600213D01*
X113157000Y-55428047D01*
X113157000Y-58122811D01*
X113111162Y-58233201D01*
X113110838Y-58605167D01*
X113157000Y-58716888D01*
X113157000Y-67520811D01*
X113111162Y-67631201D01*
X113110838Y-68003167D01*
X113157000Y-68114888D01*
X113157000Y-71644000D01*
X113167006Y-71693410D01*
X113194197Y-71733803D01*
X114194197Y-72733803D01*
X114236211Y-72761666D01*
X114284000Y-72771000D01*
X136271000Y-72771000D01*
X136271000Y-75394811D01*
X136225162Y-75505201D01*
X136224838Y-75877167D01*
X136366883Y-76220943D01*
X136629673Y-76484192D01*
X136973201Y-76626838D01*
X137345167Y-76627162D01*
X137668371Y-76493617D01*
X137989201Y-76626838D01*
X138361167Y-76627162D01*
X138704943Y-76485117D01*
X138968192Y-76222327D01*
X139110838Y-75878799D01*
X139111162Y-75506833D01*
X139065000Y-75395112D01*
X139065000Y-73279000D01*
X151594811Y-73279000D01*
X151705201Y-73324838D01*
X152077167Y-73325162D01*
X152420943Y-73183117D01*
X152684192Y-72920327D01*
X152746198Y-72771000D01*
X154686000Y-72771000D01*
X154686000Y-78061811D01*
X154640162Y-78172201D01*
X154639838Y-78544167D01*
X154781883Y-78887943D01*
X155044673Y-79151192D01*
X155388201Y-79293838D01*
X155760167Y-79294162D01*
X156103943Y-79152117D01*
X156367192Y-78889327D01*
X156509838Y-78545799D01*
X156510162Y-78173833D01*
X156464000Y-78062112D01*
X156464000Y-72771000D01*
X167095394Y-72771000D01*
X168021000Y-73696606D01*
X168021000Y-111268000D01*
X168031006Y-111317410D01*
X168058197Y-111357803D01*
X169058197Y-112357803D01*
X169100211Y-112385666D01*
X169148000Y-112395000D01*
X177255394Y-112395000D01*
X178181000Y-113320606D01*
X178181000Y-120920000D01*
X178191006Y-120969410D01*
X178218197Y-121009803D01*
X179218197Y-122009803D01*
X179260211Y-122037666D01*
X179308000Y-122047000D01*
X189955394Y-122047000D01*
X190298000Y-122389606D01*
X190298000Y-133026069D01*
X189952502Y-134763003D01*
X189008221Y-136176221D01*
X187595005Y-137120502D01*
X185858069Y-137466000D01*
X149313606Y-137466000D01*
X148971000Y-137123394D01*
X148971000Y-132331482D01*
X157200336Y-132331482D01*
X157782950Y-133741515D01*
X158860811Y-134821259D01*
X160269825Y-135406333D01*
X161795482Y-135407664D01*
X163205515Y-134825050D01*
X164285259Y-133747189D01*
X164870333Y-132338175D01*
X164871463Y-131042325D01*
X183796587Y-131042325D01*
X184158916Y-131919229D01*
X184829242Y-132590726D01*
X185705513Y-132954585D01*
X186654325Y-132955413D01*
X187531229Y-132593084D01*
X188202726Y-131922758D01*
X188566585Y-131046487D01*
X188567413Y-130097675D01*
X188205084Y-129220771D01*
X187534758Y-128549274D01*
X186658487Y-128185415D01*
X185709675Y-128184587D01*
X184832771Y-128546916D01*
X184161274Y-129217242D01*
X183797415Y-130093513D01*
X183796587Y-131042325D01*
X164871463Y-131042325D01*
X164871664Y-130812518D01*
X164289050Y-129402485D01*
X163211189Y-128322741D01*
X161802175Y-127737667D01*
X160276518Y-127736336D01*
X158866485Y-128318950D01*
X157786741Y-129396811D01*
X157201667Y-130805825D01*
X157200336Y-132331482D01*
X148971000Y-132331482D01*
X148971000Y-123542325D01*
X171296587Y-123542325D01*
X171658916Y-124419229D01*
X172329242Y-125090726D01*
X173205513Y-125454585D01*
X174154325Y-125455413D01*
X175031229Y-125093084D01*
X175702726Y-124422758D01*
X176066585Y-123546487D01*
X176067413Y-122597675D01*
X175705084Y-121720771D01*
X175034758Y-121049274D01*
X174158487Y-120685415D01*
X173209675Y-120684587D01*
X172332771Y-121046916D01*
X171661274Y-121717242D01*
X171297415Y-122593513D01*
X171296587Y-123542325D01*
X148971000Y-123542325D01*
X148971000Y-123206091D01*
X150399346Y-123206091D01*
X150638295Y-123453847D01*
X151585172Y-123514422D01*
X151889705Y-123453847D01*
X152128654Y-123206091D01*
X151264000Y-122341437D01*
X150399346Y-123206091D01*
X148971000Y-123206091D01*
X148971000Y-121784531D01*
X149161909Y-121968654D01*
X150026563Y-121104000D01*
X152501437Y-121104000D01*
X153366091Y-121968654D01*
X153613847Y-121729705D01*
X153674422Y-120782828D01*
X153613847Y-120478295D01*
X153366091Y-120239346D01*
X152501437Y-121104000D01*
X150026563Y-121104000D01*
X149161909Y-120239346D01*
X148971000Y-120423469D01*
X148971000Y-119001909D01*
X150399346Y-119001909D01*
X151264000Y-119866563D01*
X152128654Y-119001909D01*
X151889705Y-118754153D01*
X150942828Y-118693578D01*
X150638295Y-118754153D01*
X150399346Y-119001909D01*
X148971000Y-119001909D01*
X148971000Y-108051891D01*
X156115076Y-108051891D01*
X156316312Y-108353127D01*
X156870102Y-108806963D01*
X157134000Y-108763424D01*
X157134000Y-107788000D01*
X158334000Y-107788000D01*
X158334000Y-108763424D01*
X158597898Y-108806963D01*
X159151688Y-108353127D01*
X159352924Y-108051891D01*
X159299188Y-107788000D01*
X158334000Y-107788000D01*
X157134000Y-107788000D01*
X156168812Y-107788000D01*
X156115076Y-108051891D01*
X148971000Y-108051891D01*
X148971000Y-106324109D01*
X156115076Y-106324109D01*
X156168812Y-106588000D01*
X157134000Y-106588000D01*
X157134000Y-105612576D01*
X158334000Y-105612576D01*
X158334000Y-106588000D01*
X159299188Y-106588000D01*
X159352924Y-106324109D01*
X159151688Y-106022873D01*
X158597898Y-105569037D01*
X158334000Y-105612576D01*
X157134000Y-105612576D01*
X156870102Y-105569037D01*
X156316312Y-106022873D01*
X156115076Y-106324109D01*
X148971000Y-106324109D01*
X148971000Y-90916000D01*
X148960994Y-90866590D01*
X148933803Y-90826197D01*
X147933803Y-89826197D01*
X147891789Y-89798334D01*
X147844000Y-89789000D01*
X129719245Y-89789000D01*
X129562327Y-89631808D01*
X129218799Y-89489162D01*
X128846833Y-89488838D01*
X128503057Y-89630883D01*
X128344664Y-89789000D01*
X105140000Y-89789000D01*
X105090590Y-89799006D01*
X105050197Y-89826197D01*
X104050197Y-90826197D01*
X104022334Y-90868211D01*
X104013000Y-90916000D01*
X104013000Y-132150505D01*
X103446758Y-131583274D01*
X102570487Y-131219415D01*
X101621675Y-131218587D01*
X100744771Y-131580916D01*
X100073274Y-132251242D01*
X99709415Y-133127513D01*
X99708587Y-134076325D01*
X100070916Y-134953229D01*
X100741242Y-135624726D01*
X101617513Y-135988585D01*
X102566325Y-135989413D01*
X103443229Y-135627084D01*
X104013000Y-135058307D01*
X104013000Y-137123394D01*
X103670394Y-137466000D01*
X96843931Y-137466000D01*
X95106997Y-137120502D01*
X93693779Y-136176221D01*
X92749498Y-134763005D01*
X92404000Y-133026069D01*
X92404000Y-107439482D01*
X92938336Y-107439482D01*
X93520950Y-108849515D01*
X94598811Y-109929259D01*
X96007825Y-110514333D01*
X97533482Y-110515664D01*
X98943515Y-109933050D01*
X100023259Y-108855189D01*
X100608333Y-107446175D01*
X100609664Y-105920518D01*
X100027050Y-104510485D01*
X98949189Y-103430741D01*
X97540175Y-102845667D01*
X96014518Y-102844336D01*
X94604485Y-103426950D01*
X93524741Y-104504811D01*
X92939667Y-105913825D01*
X92938336Y-107439482D01*
X92404000Y-107439482D01*
X92404000Y-67816891D01*
X103903346Y-67816891D01*
X104142295Y-68064647D01*
X105089172Y-68125222D01*
X105393705Y-68064647D01*
X105632654Y-67816891D01*
X104768000Y-66952237D01*
X103903346Y-67816891D01*
X92404000Y-67816891D01*
X92404000Y-66035972D01*
X102357578Y-66035972D01*
X102418153Y-66340505D01*
X102665909Y-66579454D01*
X103530563Y-65714800D01*
X106005437Y-65714800D01*
X106870091Y-66579454D01*
X107117847Y-66340505D01*
X107178422Y-65393628D01*
X107117847Y-65089095D01*
X106870091Y-64850146D01*
X106005437Y-65714800D01*
X103530563Y-65714800D01*
X102665909Y-64850146D01*
X102418153Y-65089095D01*
X102357578Y-66035972D01*
X92404000Y-66035972D01*
X92404000Y-63612709D01*
X103903346Y-63612709D01*
X104768000Y-64477363D01*
X105632654Y-63612709D01*
X105393705Y-63364953D01*
X104446828Y-63304378D01*
X104142295Y-63364953D01*
X103903346Y-63612709D01*
X92404000Y-63612709D01*
X92404000Y-54607482D01*
X92938336Y-54607482D01*
X93520950Y-56017515D01*
X94598811Y-57097259D01*
X96007825Y-57682333D01*
X97533482Y-57683664D01*
X98943515Y-57101050D01*
X100023259Y-56023189D01*
X100608333Y-54614175D01*
X100609664Y-53088518D01*
X100027050Y-51678485D01*
X98949189Y-50598741D01*
X97540175Y-50013667D01*
X96014518Y-50012336D01*
X94604485Y-50594950D01*
X93524741Y-51672811D01*
X92939667Y-53081825D01*
X92938336Y-54607482D01*
X92404000Y-54607482D01*
X92404000Y-53917931D01*
X92749498Y-52180995D01*
X93693779Y-50767779D01*
X95106997Y-49823498D01*
X96843931Y-49478000D01*
X112814394Y-49478000D01*
X113157000Y-49820606D01*
G36*
X134193162Y-49597201D02*
X134192838Y-49969167D01*
X134334883Y-50312943D01*
X134597673Y-50576192D01*
X134941201Y-50718838D01*
X135313167Y-50719162D01*
X135424888Y-50673000D01*
X151985733Y-50673000D01*
X151670570Y-50987613D01*
X151447754Y-51524214D01*
X151447247Y-52105237D01*
X151669126Y-52642226D01*
X152079613Y-53053430D01*
X152157579Y-53085804D01*
X152081774Y-53117126D01*
X151670570Y-53527613D01*
X151447754Y-54064214D01*
X151447247Y-54645237D01*
X151669126Y-55182226D01*
X152079613Y-55593430D01*
X152157579Y-55625804D01*
X152081774Y-55657126D01*
X151670570Y-56067613D01*
X151447754Y-56604214D01*
X151447247Y-57185237D01*
X151669126Y-57722226D01*
X152079613Y-58133430D01*
X152157579Y-58165804D01*
X152081774Y-58197126D01*
X151670570Y-58607613D01*
X151447754Y-59144214D01*
X151447247Y-59725237D01*
X151669126Y-60262226D01*
X152079613Y-60673430D01*
X152616214Y-60896246D01*
X153197237Y-60896753D01*
X153734226Y-60674874D01*
X154145430Y-60264387D01*
X154368246Y-59727786D01*
X154368753Y-59146763D01*
X154146874Y-58609774D01*
X153736387Y-58198570D01*
X153658421Y-58166196D01*
X153734226Y-58134874D01*
X154145430Y-57724387D01*
X154368246Y-57187786D01*
X154368753Y-56606763D01*
X154146874Y-56069774D01*
X153736387Y-55658570D01*
X153658421Y-55626196D01*
X153734226Y-55594874D01*
X154145430Y-55184387D01*
X154368246Y-54647786D01*
X154368753Y-54066763D01*
X154146874Y-53529774D01*
X153736387Y-53118570D01*
X153658421Y-53086196D01*
X153734226Y-53054874D01*
X154145430Y-52644387D01*
X154368246Y-52107786D01*
X154368567Y-51739803D01*
X155067000Y-52438236D01*
X155067000Y-53413922D01*
X155134671Y-53754128D01*
X155282253Y-53975000D01*
X155327382Y-54042540D01*
X158653461Y-57368619D01*
X158941873Y-57561330D01*
X159282079Y-57629001D01*
X178291765Y-57629001D01*
X180213000Y-59550236D01*
X180213000Y-109691394D01*
X179287394Y-110617000D01*
X170724606Y-110617000D01*
X169799000Y-109691394D01*
X169799000Y-91792325D01*
X171296587Y-91792325D01*
X171658916Y-92669229D01*
X172329242Y-93340726D01*
X173205513Y-93704585D01*
X174154325Y-93705413D01*
X175031229Y-93343084D01*
X175702726Y-92672758D01*
X176066585Y-91796487D01*
X176067413Y-90847675D01*
X175705084Y-89970771D01*
X175034758Y-89299274D01*
X174158487Y-88935415D01*
X173209675Y-88934587D01*
X172332771Y-89296916D01*
X171661274Y-89967242D01*
X171297415Y-90843513D01*
X171296587Y-91792325D01*
X169799000Y-91792325D01*
X169799000Y-72120000D01*
X169788994Y-72070590D01*
X169761803Y-72030197D01*
X168761803Y-71030197D01*
X168719789Y-71002334D01*
X168672000Y-70993000D01*
X156509890Y-70993000D01*
X156510162Y-70680833D01*
X156368117Y-70337057D01*
X156105327Y-70073808D01*
X155761799Y-69931162D01*
X155389833Y-69930838D01*
X155046057Y-70072883D01*
X154782808Y-70335673D01*
X154640162Y-70679201D01*
X154639889Y-70993000D01*
X138014246Y-70993000D01*
X137953117Y-70845057D01*
X137690327Y-70581808D01*
X137346799Y-70439162D01*
X136974833Y-70438838D01*
X136631057Y-70580883D01*
X136367808Y-70843673D01*
X136305802Y-70993000D01*
X115860606Y-70993000D01*
X114935000Y-70067394D01*
X114935000Y-66987167D01*
X136732838Y-66987167D01*
X136874883Y-67330943D01*
X137137673Y-67594192D01*
X137481201Y-67736838D01*
X137599705Y-67736941D01*
X138353238Y-68490474D01*
X138398883Y-68600943D01*
X138661673Y-68864192D01*
X139005201Y-69006838D01*
X139377167Y-69007162D01*
X139720943Y-68865117D01*
X139984192Y-68602327D01*
X140126838Y-68258799D01*
X140127127Y-67926741D01*
X140254102Y-67874276D01*
X140517351Y-67611486D01*
X140565651Y-67495167D01*
X143590838Y-67495167D01*
X143732883Y-67838943D01*
X143995673Y-68102192D01*
X144339201Y-68244838D01*
X144653000Y-68245111D01*
X144653000Y-69298811D01*
X144607162Y-69409201D01*
X144606838Y-69781167D01*
X144748883Y-70124943D01*
X145011673Y-70388192D01*
X145355201Y-70530838D01*
X145727167Y-70531162D01*
X146070943Y-70389117D01*
X146334192Y-70126327D01*
X146476838Y-69782799D01*
X146477162Y-69410833D01*
X146431000Y-69299112D01*
X146431000Y-66916236D01*
X148246474Y-65100762D01*
X148356943Y-65055117D01*
X148620192Y-64792327D01*
X148699918Y-64600325D01*
X171296587Y-64600325D01*
X171658916Y-65477229D01*
X172329242Y-66148726D01*
X173205513Y-66512585D01*
X174154325Y-66513413D01*
X175031229Y-66151084D01*
X175702726Y-65480758D01*
X176066585Y-64604487D01*
X176067413Y-63655675D01*
X175705084Y-62778771D01*
X175034758Y-62107274D01*
X174158487Y-61743415D01*
X173209675Y-61742587D01*
X172332771Y-62104916D01*
X171661274Y-62775242D01*
X171297415Y-63651513D01*
X171296587Y-64600325D01*
X148699918Y-64600325D01*
X148762838Y-64448799D01*
X148763162Y-64076833D01*
X148621117Y-63733057D01*
X148358327Y-63469808D01*
X148014799Y-63327162D01*
X147642833Y-63326838D01*
X147299057Y-63468883D01*
X147035808Y-63731673D01*
X146989451Y-63843313D01*
X146677312Y-64155452D01*
X146755997Y-63965958D01*
X146756321Y-63593992D01*
X146614276Y-63250216D01*
X146351486Y-62986967D01*
X146007958Y-62844321D01*
X145635992Y-62843997D01*
X145292216Y-62986042D01*
X145028967Y-63248832D01*
X145018340Y-63274424D01*
X143897382Y-64395382D01*
X143704671Y-64683794D01*
X143637000Y-65024000D01*
X143637000Y-67012811D01*
X143591162Y-67123201D01*
X143590838Y-67495167D01*
X140565651Y-67495167D01*
X140659997Y-67267958D01*
X140660321Y-66895992D01*
X140518276Y-66552216D01*
X140255486Y-66288967D01*
X140143846Y-66242610D01*
X139497603Y-65596367D01*
X139451958Y-65485898D01*
X139189168Y-65222649D01*
X138845640Y-65080003D01*
X138473674Y-65079679D01*
X138129898Y-65221724D01*
X137866649Y-65484514D01*
X137724003Y-65828042D01*
X137723969Y-65867048D01*
X137482833Y-65866838D01*
X137139057Y-66008883D01*
X136875808Y-66271673D01*
X136733162Y-66615201D01*
X136732838Y-66987167D01*
X114935000Y-66987167D01*
X114935000Y-52948000D01*
X118340560Y-52948000D01*
X118340560Y-54748000D01*
X118384838Y-54983317D01*
X118523910Y-55199441D01*
X118736110Y-55344431D01*
X118988000Y-55395440D01*
X120788000Y-55395440D01*
X121023317Y-55351162D01*
X121239441Y-55212090D01*
X121384431Y-54999890D01*
X121388567Y-54979466D01*
X121557357Y-55148551D01*
X122121330Y-55382733D01*
X122731991Y-55383265D01*
X123296371Y-55150068D01*
X123728551Y-54718643D01*
X123962733Y-54154670D01*
X123963265Y-53544009D01*
X123730068Y-52979629D01*
X123698495Y-52948000D01*
X125960560Y-52948000D01*
X125960560Y-54748000D01*
X126004838Y-54983317D01*
X126143910Y-55199441D01*
X126356110Y-55344431D01*
X126608000Y-55395440D01*
X128408000Y-55395440D01*
X128643317Y-55351162D01*
X128859441Y-55212090D01*
X129004431Y-54999890D01*
X129008567Y-54979466D01*
X129177357Y-55148551D01*
X129741330Y-55382733D01*
X130351991Y-55383265D01*
X130916371Y-55150068D01*
X131348551Y-54718643D01*
X131582733Y-54154670D01*
X131583265Y-53544009D01*
X131350068Y-52979629D01*
X131318495Y-52948000D01*
X133580560Y-52948000D01*
X133580560Y-54748000D01*
X133624838Y-54983317D01*
X133763910Y-55199441D01*
X133976110Y-55344431D01*
X134228000Y-55395440D01*
X136028000Y-55395440D01*
X136263317Y-55351162D01*
X136479441Y-55212090D01*
X136624431Y-54999890D01*
X136628567Y-54979466D01*
X136797357Y-55148551D01*
X137361330Y-55382733D01*
X137971991Y-55383265D01*
X138536371Y-55150068D01*
X138968551Y-54718643D01*
X139202733Y-54154670D01*
X139203265Y-53544009D01*
X138970068Y-52979629D01*
X138938495Y-52948000D01*
X141200560Y-52948000D01*
X141200560Y-54748000D01*
X141244838Y-54983317D01*
X141383910Y-55199441D01*
X141596110Y-55344431D01*
X141848000Y-55395440D01*
X143648000Y-55395440D01*
X143883317Y-55351162D01*
X144099441Y-55212090D01*
X144244431Y-54999890D01*
X144248567Y-54979466D01*
X144417357Y-55148551D01*
X144981330Y-55382733D01*
X145591991Y-55383265D01*
X146156371Y-55150068D01*
X146588551Y-54718643D01*
X146822733Y-54154670D01*
X146823265Y-53544009D01*
X146590068Y-52979629D01*
X146158643Y-52547449D01*
X145594670Y-52313267D01*
X144984009Y-52312735D01*
X144419629Y-52545932D01*
X144251387Y-52713880D01*
X144251162Y-52712683D01*
X144112090Y-52496559D01*
X143899890Y-52351569D01*
X143648000Y-52300560D01*
X141848000Y-52300560D01*
X141612683Y-52344838D01*
X141396559Y-52483910D01*
X141251569Y-52696110D01*
X141200560Y-52948000D01*
X138938495Y-52948000D01*
X138538643Y-52547449D01*
X137974670Y-52313267D01*
X137364009Y-52312735D01*
X136799629Y-52545932D01*
X136631387Y-52713880D01*
X136631162Y-52712683D01*
X136492090Y-52496559D01*
X136279890Y-52351569D01*
X136028000Y-52300560D01*
X134228000Y-52300560D01*
X133992683Y-52344838D01*
X133776559Y-52483910D01*
X133631569Y-52696110D01*
X133580560Y-52948000D01*
X131318495Y-52948000D01*
X130918643Y-52547449D01*
X130354670Y-52313267D01*
X129744009Y-52312735D01*
X129179629Y-52545932D01*
X129011387Y-52713880D01*
X129011162Y-52712683D01*
X128872090Y-52496559D01*
X128659890Y-52351569D01*
X128408000Y-52300560D01*
X126608000Y-52300560D01*
X126372683Y-52344838D01*
X126156559Y-52483910D01*
X126011569Y-52696110D01*
X125960560Y-52948000D01*
X123698495Y-52948000D01*
X123298643Y-52547449D01*
X122734670Y-52313267D01*
X122124009Y-52312735D01*
X121559629Y-52545932D01*
X121391387Y-52713880D01*
X121391162Y-52712683D01*
X121252090Y-52496559D01*
X121039890Y-52351569D01*
X120788000Y-52300560D01*
X118988000Y-52300560D01*
X118752683Y-52344838D01*
X118536559Y-52483910D01*
X118391569Y-52696110D01*
X118340560Y-52948000D01*
X114935000Y-52948000D01*
X114935000Y-49820606D01*
X115277606Y-49478000D01*
X134242659Y-49478000D01*
X134193162Y-49597201D01*
X134193162Y-49597201D01*
G37*
X134193162Y-49597201D02*
X134192838Y-49969167D01*
X134334883Y-50312943D01*
X134597673Y-50576192D01*
X134941201Y-50718838D01*
X135313167Y-50719162D01*
X135424888Y-50673000D01*
X151985733Y-50673000D01*
X151670570Y-50987613D01*
X151447754Y-51524214D01*
X151447247Y-52105237D01*
X151669126Y-52642226D01*
X152079613Y-53053430D01*
X152157579Y-53085804D01*
X152081774Y-53117126D01*
X151670570Y-53527613D01*
X151447754Y-54064214D01*
X151447247Y-54645237D01*
X151669126Y-55182226D01*
X152079613Y-55593430D01*
X152157579Y-55625804D01*
X152081774Y-55657126D01*
X151670570Y-56067613D01*
X151447754Y-56604214D01*
X151447247Y-57185237D01*
X151669126Y-57722226D01*
X152079613Y-58133430D01*
X152157579Y-58165804D01*
X152081774Y-58197126D01*
X151670570Y-58607613D01*
X151447754Y-59144214D01*
X151447247Y-59725237D01*
X151669126Y-60262226D01*
X152079613Y-60673430D01*
X152616214Y-60896246D01*
X153197237Y-60896753D01*
X153734226Y-60674874D01*
X154145430Y-60264387D01*
X154368246Y-59727786D01*
X154368753Y-59146763D01*
X154146874Y-58609774D01*
X153736387Y-58198570D01*
X153658421Y-58166196D01*
X153734226Y-58134874D01*
X154145430Y-57724387D01*
X154368246Y-57187786D01*
X154368753Y-56606763D01*
X154146874Y-56069774D01*
X153736387Y-55658570D01*
X153658421Y-55626196D01*
X153734226Y-55594874D01*
X154145430Y-55184387D01*
X154368246Y-54647786D01*
X154368753Y-54066763D01*
X154146874Y-53529774D01*
X153736387Y-53118570D01*
X153658421Y-53086196D01*
X153734226Y-53054874D01*
X154145430Y-52644387D01*
X154368246Y-52107786D01*
X154368567Y-51739803D01*
X155067000Y-52438236D01*
X155067000Y-53413922D01*
X155134671Y-53754128D01*
X155282253Y-53975000D01*
X155327382Y-54042540D01*
X158653461Y-57368619D01*
X158941873Y-57561330D01*
X159282079Y-57629001D01*
X178291765Y-57629001D01*
X180213000Y-59550236D01*
X180213000Y-109691394D01*
X179287394Y-110617000D01*
X170724606Y-110617000D01*
X169799000Y-109691394D01*
X169799000Y-91792325D01*
X171296587Y-91792325D01*
X171658916Y-92669229D01*
X172329242Y-93340726D01*
X173205513Y-93704585D01*
X174154325Y-93705413D01*
X175031229Y-93343084D01*
X175702726Y-92672758D01*
X176066585Y-91796487D01*
X176067413Y-90847675D01*
X175705084Y-89970771D01*
X175034758Y-89299274D01*
X174158487Y-88935415D01*
X173209675Y-88934587D01*
X172332771Y-89296916D01*
X171661274Y-89967242D01*
X171297415Y-90843513D01*
X171296587Y-91792325D01*
X169799000Y-91792325D01*
X169799000Y-72120000D01*
X169788994Y-72070590D01*
X169761803Y-72030197D01*
X168761803Y-71030197D01*
X168719789Y-71002334D01*
X168672000Y-70993000D01*
X156509890Y-70993000D01*
X156510162Y-70680833D01*
X156368117Y-70337057D01*
X156105327Y-70073808D01*
X155761799Y-69931162D01*
X155389833Y-69930838D01*
X155046057Y-70072883D01*
X154782808Y-70335673D01*
X154640162Y-70679201D01*
X154639889Y-70993000D01*
X138014246Y-70993000D01*
X137953117Y-70845057D01*
X137690327Y-70581808D01*
X137346799Y-70439162D01*
X136974833Y-70438838D01*
X136631057Y-70580883D01*
X136367808Y-70843673D01*
X136305802Y-70993000D01*
X115860606Y-70993000D01*
X114935000Y-70067394D01*
X114935000Y-66987167D01*
X136732838Y-66987167D01*
X136874883Y-67330943D01*
X137137673Y-67594192D01*
X137481201Y-67736838D01*
X137599705Y-67736941D01*
X138353238Y-68490474D01*
X138398883Y-68600943D01*
X138661673Y-68864192D01*
X139005201Y-69006838D01*
X139377167Y-69007162D01*
X139720943Y-68865117D01*
X139984192Y-68602327D01*
X140126838Y-68258799D01*
X140127127Y-67926741D01*
X140254102Y-67874276D01*
X140517351Y-67611486D01*
X140565651Y-67495167D01*
X143590838Y-67495167D01*
X143732883Y-67838943D01*
X143995673Y-68102192D01*
X144339201Y-68244838D01*
X144653000Y-68245111D01*
X144653000Y-69298811D01*
X144607162Y-69409201D01*
X144606838Y-69781167D01*
X144748883Y-70124943D01*
X145011673Y-70388192D01*
X145355201Y-70530838D01*
X145727167Y-70531162D01*
X146070943Y-70389117D01*
X146334192Y-70126327D01*
X146476838Y-69782799D01*
X146477162Y-69410833D01*
X146431000Y-69299112D01*
X146431000Y-66916236D01*
X148246474Y-65100762D01*
X148356943Y-65055117D01*
X148620192Y-64792327D01*
X148699918Y-64600325D01*
X171296587Y-64600325D01*
X171658916Y-65477229D01*
X172329242Y-66148726D01*
X173205513Y-66512585D01*
X174154325Y-66513413D01*
X175031229Y-66151084D01*
X175702726Y-65480758D01*
X176066585Y-64604487D01*
X176067413Y-63655675D01*
X175705084Y-62778771D01*
X175034758Y-62107274D01*
X174158487Y-61743415D01*
X173209675Y-61742587D01*
X172332771Y-62104916D01*
X171661274Y-62775242D01*
X171297415Y-63651513D01*
X171296587Y-64600325D01*
X148699918Y-64600325D01*
X148762838Y-64448799D01*
X148763162Y-64076833D01*
X148621117Y-63733057D01*
X148358327Y-63469808D01*
X148014799Y-63327162D01*
X147642833Y-63326838D01*
X147299057Y-63468883D01*
X147035808Y-63731673D01*
X146989451Y-63843313D01*
X146677312Y-64155452D01*
X146755997Y-63965958D01*
X146756321Y-63593992D01*
X146614276Y-63250216D01*
X146351486Y-62986967D01*
X146007958Y-62844321D01*
X145635992Y-62843997D01*
X145292216Y-62986042D01*
X145028967Y-63248832D01*
X145018340Y-63274424D01*
X143897382Y-64395382D01*
X143704671Y-64683794D01*
X143637000Y-65024000D01*
X143637000Y-67012811D01*
X143591162Y-67123201D01*
X143590838Y-67495167D01*
X140565651Y-67495167D01*
X140659997Y-67267958D01*
X140660321Y-66895992D01*
X140518276Y-66552216D01*
X140255486Y-66288967D01*
X140143846Y-66242610D01*
X139497603Y-65596367D01*
X139451958Y-65485898D01*
X139189168Y-65222649D01*
X138845640Y-65080003D01*
X138473674Y-65079679D01*
X138129898Y-65221724D01*
X137866649Y-65484514D01*
X137724003Y-65828042D01*
X137723969Y-65867048D01*
X137482833Y-65866838D01*
X137139057Y-66008883D01*
X136875808Y-66271673D01*
X136733162Y-66615201D01*
X136732838Y-66987167D01*
X114935000Y-66987167D01*
X114935000Y-52948000D01*
X118340560Y-52948000D01*
X118340560Y-54748000D01*
X118384838Y-54983317D01*
X118523910Y-55199441D01*
X118736110Y-55344431D01*
X118988000Y-55395440D01*
X120788000Y-55395440D01*
X121023317Y-55351162D01*
X121239441Y-55212090D01*
X121384431Y-54999890D01*
X121388567Y-54979466D01*
X121557357Y-55148551D01*
X122121330Y-55382733D01*
X122731991Y-55383265D01*
X123296371Y-55150068D01*
X123728551Y-54718643D01*
X123962733Y-54154670D01*
X123963265Y-53544009D01*
X123730068Y-52979629D01*
X123698495Y-52948000D01*
X125960560Y-52948000D01*
X125960560Y-54748000D01*
X126004838Y-54983317D01*
X126143910Y-55199441D01*
X126356110Y-55344431D01*
X126608000Y-55395440D01*
X128408000Y-55395440D01*
X128643317Y-55351162D01*
X128859441Y-55212090D01*
X129004431Y-54999890D01*
X129008567Y-54979466D01*
X129177357Y-55148551D01*
X129741330Y-55382733D01*
X130351991Y-55383265D01*
X130916371Y-55150068D01*
X131348551Y-54718643D01*
X131582733Y-54154670D01*
X131583265Y-53544009D01*
X131350068Y-52979629D01*
X131318495Y-52948000D01*
X133580560Y-52948000D01*
X133580560Y-54748000D01*
X133624838Y-54983317D01*
X133763910Y-55199441D01*
X133976110Y-55344431D01*
X134228000Y-55395440D01*
X136028000Y-55395440D01*
X136263317Y-55351162D01*
X136479441Y-55212090D01*
X136624431Y-54999890D01*
X136628567Y-54979466D01*
X136797357Y-55148551D01*
X137361330Y-55382733D01*
X137971991Y-55383265D01*
X138536371Y-55150068D01*
X138968551Y-54718643D01*
X139202733Y-54154670D01*
X139203265Y-53544009D01*
X138970068Y-52979629D01*
X138938495Y-52948000D01*
X141200560Y-52948000D01*
X141200560Y-54748000D01*
X141244838Y-54983317D01*
X141383910Y-55199441D01*
X141596110Y-55344431D01*
X141848000Y-55395440D01*
X143648000Y-55395440D01*
X143883317Y-55351162D01*
X144099441Y-55212090D01*
X144244431Y-54999890D01*
X144248567Y-54979466D01*
X144417357Y-55148551D01*
X144981330Y-55382733D01*
X145591991Y-55383265D01*
X146156371Y-55150068D01*
X146588551Y-54718643D01*
X146822733Y-54154670D01*
X146823265Y-53544009D01*
X146590068Y-52979629D01*
X146158643Y-52547449D01*
X145594670Y-52313267D01*
X144984009Y-52312735D01*
X144419629Y-52545932D01*
X144251387Y-52713880D01*
X144251162Y-52712683D01*
X144112090Y-52496559D01*
X143899890Y-52351569D01*
X143648000Y-52300560D01*
X141848000Y-52300560D01*
X141612683Y-52344838D01*
X141396559Y-52483910D01*
X141251569Y-52696110D01*
X141200560Y-52948000D01*
X138938495Y-52948000D01*
X138538643Y-52547449D01*
X137974670Y-52313267D01*
X137364009Y-52312735D01*
X136799629Y-52545932D01*
X136631387Y-52713880D01*
X136631162Y-52712683D01*
X136492090Y-52496559D01*
X136279890Y-52351569D01*
X136028000Y-52300560D01*
X134228000Y-52300560D01*
X133992683Y-52344838D01*
X133776559Y-52483910D01*
X133631569Y-52696110D01*
X133580560Y-52948000D01*
X131318495Y-52948000D01*
X130918643Y-52547449D01*
X130354670Y-52313267D01*
X129744009Y-52312735D01*
X129179629Y-52545932D01*
X129011387Y-52713880D01*
X129011162Y-52712683D01*
X128872090Y-52496559D01*
X128659890Y-52351569D01*
X128408000Y-52300560D01*
X126608000Y-52300560D01*
X126372683Y-52344838D01*
X126156559Y-52483910D01*
X126011569Y-52696110D01*
X125960560Y-52948000D01*
X123698495Y-52948000D01*
X123298643Y-52547449D01*
X122734670Y-52313267D01*
X122124009Y-52312735D01*
X121559629Y-52545932D01*
X121391387Y-52713880D01*
X121391162Y-52712683D01*
X121252090Y-52496559D01*
X121039890Y-52351569D01*
X120788000Y-52300560D01*
X118988000Y-52300560D01*
X118752683Y-52344838D01*
X118536559Y-52483910D01*
X118391569Y-52696110D01*
X118340560Y-52948000D01*
X114935000Y-52948000D01*
X114935000Y-49820606D01*
X115277606Y-49478000D01*
X134242659Y-49478000D01*
X134193162Y-49597201D01*
M02*
