G04 #@! TF.FileFunction,Soldermask,Top*
%FSLAX46Y46*%
G04 Gerber Fmt 4.6, Leading zero omitted, Abs format (unit mm)*
G04 Created by KiCad (PCBNEW 4.0.7) date 01/22/18 20:26:34*
%MOMM*%
%LPD*%
G01*
G04 APERTURE LIST*
%ADD10C,0.100000*%
%ADD11C,3.900000*%
%ADD12R,2.200000X2.200000*%
%ADD13C,2.200000*%
%ADD14C,6.800000*%
%ADD15C,1.200000*%
%ADD16C,2.800000*%
%ADD17O,2.800000X2.800000*%
%ADD18C,2.051000*%
%ADD19R,3.100000X7.400000*%
%ADD20R,3.150000X8.220000*%
%ADD21C,0.254000*%
G04 APERTURE END LIST*
D10*
D11*
X112268000Y-53214800D03*
X104768000Y-65714800D03*
D12*
X135128000Y-53848000D03*
D13*
X137668000Y-53848000D03*
D14*
X161036000Y-53086000D03*
D15*
X163436000Y-53086000D03*
X162733056Y-54783056D03*
X161036000Y-55486000D03*
X159338944Y-54783056D03*
X158636000Y-53086000D03*
X159338944Y-51388944D03*
X161036000Y-50686000D03*
X162733056Y-51388944D03*
D14*
X96774000Y-106680000D03*
D15*
X99174000Y-106680000D03*
X98471056Y-108377056D03*
X96774000Y-109080000D03*
X95076944Y-108377056D03*
X94374000Y-106680000D03*
X95076944Y-104982944D03*
X96774000Y-104280000D03*
X98471056Y-104982944D03*
D14*
X161036000Y-131572000D03*
D15*
X163436000Y-131572000D03*
X162733056Y-133269056D03*
X161036000Y-133972000D03*
X159338944Y-133269056D03*
X158636000Y-131572000D03*
X159338944Y-129874944D03*
X161036000Y-129172000D03*
X162733056Y-129874944D03*
D11*
X186182000Y-98820000D03*
X173682000Y-91320000D03*
X186182000Y-83820000D03*
D16*
X188214000Y-107188000D03*
D17*
X157734000Y-107188000D03*
D12*
X142748000Y-53848000D03*
D13*
X145288000Y-53848000D03*
D12*
X119888000Y-53848000D03*
D13*
X122428000Y-53848000D03*
D12*
X127508000Y-53848000D03*
D13*
X130048000Y-53848000D03*
D11*
X102094000Y-133604000D03*
X109594000Y-121104000D03*
X117094000Y-133604000D03*
X124594000Y-121104000D03*
X186182000Y-71628000D03*
X173682000Y-64128000D03*
X186182000Y-56628000D03*
D18*
X152908000Y-59436000D03*
X152908000Y-56896000D03*
X152908000Y-54356000D03*
X152908000Y-51816000D03*
D11*
X143764000Y-133604000D03*
X151264000Y-121104000D03*
X186182000Y-130570000D03*
X173682000Y-123070000D03*
X186182000Y-115570000D03*
D19*
X129032000Y-106484000D03*
X133732000Y-106484000D03*
X129022000Y-96832000D03*
X133722000Y-96832000D03*
D20*
X145092000Y-106696000D03*
X138832000Y-106696000D03*
D14*
X96774000Y-53848000D03*
D15*
X99174000Y-53848000D03*
X98471056Y-55545056D03*
X96774000Y-56248000D03*
X95076944Y-55545056D03*
X94374000Y-53848000D03*
X95076944Y-52150944D03*
X96774000Y-51448000D03*
X98471056Y-52150944D03*
D21*
G36*
X161417000Y-82169000D02*
X105283000Y-82169000D01*
X105283000Y-79883000D01*
X161417000Y-79883000D01*
X161417000Y-82169000D01*
X161417000Y-82169000D01*
G37*
X161417000Y-82169000D02*
X105283000Y-82169000D01*
X105283000Y-79883000D01*
X161417000Y-79883000D01*
X161417000Y-82169000D01*
G36*
X161417000Y-85725000D02*
X105283000Y-85725000D01*
X105283000Y-83439000D01*
X161417000Y-83439000D01*
X161417000Y-85725000D01*
X161417000Y-85725000D01*
G37*
X161417000Y-85725000D02*
X105283000Y-85725000D01*
X105283000Y-83439000D01*
X161417000Y-83439000D01*
X161417000Y-85725000D01*
G36*
X161417000Y-89281000D02*
X105283000Y-89281000D01*
X105283000Y-86995000D01*
X161417000Y-86995000D01*
X161417000Y-89281000D01*
X161417000Y-89281000D01*
G37*
X161417000Y-89281000D02*
X105283000Y-89281000D01*
X105283000Y-86995000D01*
X161417000Y-86995000D01*
X161417000Y-89281000D01*
G36*
X152273000Y-110520845D02*
X149987000Y-110520845D01*
X149987000Y-92486845D01*
X152273000Y-92486845D01*
X152273000Y-110520845D01*
X152273000Y-110520845D01*
G37*
X152273000Y-110520845D02*
X149987000Y-110520845D01*
X149987000Y-92486845D01*
X152273000Y-92486845D01*
X152273000Y-110520845D01*
G36*
X155321000Y-110520845D02*
X153035000Y-110520845D01*
X153035000Y-92486845D01*
X155321000Y-92486845D01*
X155321000Y-110520845D01*
X155321000Y-110520845D01*
G37*
X155321000Y-110520845D02*
X153035000Y-110520845D01*
X153035000Y-92486845D01*
X155321000Y-92486845D01*
X155321000Y-110520845D01*
G36*
X158877000Y-102997000D02*
X156591000Y-102997000D01*
X156591000Y-92486845D01*
X158877000Y-92486845D01*
X158877000Y-102997000D01*
X158877000Y-102997000D01*
G37*
X158877000Y-102997000D02*
X156591000Y-102997000D01*
X156591000Y-92486845D01*
X158877000Y-92486845D01*
X158877000Y-102997000D01*
G36*
X161925000Y-102997000D02*
X159639000Y-102997000D01*
X159639000Y-92486845D01*
X161925000Y-92486845D01*
X161925000Y-102997000D01*
X161925000Y-102997000D01*
G37*
X161925000Y-102997000D02*
X159639000Y-102997000D01*
X159639000Y-92486845D01*
X161925000Y-92486845D01*
X161925000Y-102997000D01*
G36*
X138557000Y-132461000D02*
X136271000Y-132461000D01*
X136271000Y-111887000D01*
X138557000Y-111887000D01*
X138557000Y-132461000D01*
X138557000Y-132461000D01*
G37*
X138557000Y-132461000D02*
X136271000Y-132461000D01*
X136271000Y-111887000D01*
X138557000Y-111887000D01*
X138557000Y-132461000D01*
G36*
X135001000Y-132461000D02*
X132715000Y-132461000D01*
X132715000Y-111887000D01*
X135001000Y-111887000D01*
X135001000Y-132461000D01*
X135001000Y-132461000D01*
G37*
X135001000Y-132461000D02*
X132715000Y-132461000D01*
X132715000Y-111887000D01*
X135001000Y-111887000D01*
X135001000Y-132461000D01*
G36*
X158939910Y-125349000D02*
X156653914Y-125349000D01*
X156591590Y-111887000D01*
X158877586Y-111887000D01*
X158939910Y-125349000D01*
X158939910Y-125349000D01*
G37*
X158939910Y-125349000D02*
X156653914Y-125349000D01*
X156591590Y-111887000D01*
X158877586Y-111887000D01*
X158939910Y-125349000D01*
G36*
X161925000Y-125349000D02*
X159639000Y-125349000D01*
X159639000Y-111887000D01*
X161925000Y-111887000D01*
X161925000Y-125349000D01*
X161925000Y-125349000D01*
G37*
X161925000Y-125349000D02*
X159639000Y-125349000D01*
X159639000Y-111887000D01*
X161925000Y-111887000D01*
X161925000Y-125349000D01*
G36*
X125857000Y-95377000D02*
X106299000Y-95377000D01*
X106299000Y-93091000D01*
X125857000Y-93091000D01*
X125857000Y-95377000D01*
X125857000Y-95377000D01*
G37*
X125857000Y-95377000D02*
X106299000Y-95377000D01*
X106299000Y-93091000D01*
X125857000Y-93091000D01*
X125857000Y-95377000D01*
G36*
X125857000Y-98425000D02*
X106299000Y-98425000D01*
X106299000Y-96139000D01*
X125857000Y-96139000D01*
X125857000Y-98425000D01*
X125857000Y-98425000D01*
G37*
X125857000Y-98425000D02*
X106299000Y-98425000D01*
X106299000Y-96139000D01*
X125857000Y-96139000D01*
X125857000Y-98425000D01*
G36*
X125857000Y-101473000D02*
X106299000Y-101473000D01*
X106299000Y-99187000D01*
X125857000Y-99187000D01*
X125857000Y-101473000D01*
X125857000Y-101473000D01*
G37*
X125857000Y-101473000D02*
X106299000Y-101473000D01*
X106299000Y-99187000D01*
X125857000Y-99187000D01*
X125857000Y-101473000D01*
G36*
X125857000Y-104521000D02*
X106299000Y-104521000D01*
X106299000Y-102235000D01*
X125857000Y-102235000D01*
X125857000Y-104521000D01*
X125857000Y-104521000D01*
G37*
X125857000Y-104521000D02*
X106299000Y-104521000D01*
X106299000Y-102235000D01*
X125857000Y-102235000D01*
X125857000Y-104521000D01*
G36*
X125857000Y-107569000D02*
X106299000Y-107569000D01*
X106299000Y-105283000D01*
X125857000Y-105283000D01*
X125857000Y-107569000D01*
X125857000Y-107569000D01*
G37*
X125857000Y-107569000D02*
X106299000Y-107569000D01*
X106299000Y-105283000D01*
X125857000Y-105283000D01*
X125857000Y-107569000D01*
G36*
X138049000Y-100965000D02*
X136271000Y-100965000D01*
X136271000Y-92075000D01*
X138049000Y-92075000D01*
X138049000Y-100965000D01*
X138049000Y-100965000D01*
G37*
X138049000Y-100965000D02*
X136271000Y-100965000D01*
X136271000Y-92075000D01*
X138049000Y-92075000D01*
X138049000Y-100965000D01*
G36*
X140589000Y-100965000D02*
X138811000Y-100965000D01*
X138811000Y-92075000D01*
X140589000Y-92075000D01*
X140589000Y-100965000D01*
X140589000Y-100965000D01*
G37*
X140589000Y-100965000D02*
X138811000Y-100965000D01*
X138811000Y-92075000D01*
X140589000Y-92075000D01*
X140589000Y-100965000D01*
M02*
