G04 #@! TF.FileFunction,Legend,Bot*
%FSLAX46Y46*%
G04 Gerber Fmt 4.6, Leading zero omitted, Abs format (unit mm)*
G04 Created by KiCad (PCBNEW 4.0.7) date 01/22/18 20:26:34*
%MOMM*%
%LPD*%
G01*
G04 APERTURE LIST*
%ADD10C,0.100000*%
%ADD11C,0.120000*%
%ADD12C,0.150000*%
G04 APERTURE END LIST*
D10*
D11*
X150606000Y-76966000D02*
X148606000Y-76966000D01*
X148606000Y-74926000D02*
X150606000Y-74926000D01*
X112284000Y-74926000D02*
X114284000Y-74926000D01*
X114284000Y-76966000D02*
X112284000Y-76966000D01*
X132572000Y-76966000D02*
X130572000Y-76966000D01*
X130572000Y-74926000D02*
X132572000Y-74926000D01*
X145272000Y-57350000D02*
X143272000Y-57350000D01*
X143272000Y-59490000D02*
X145272000Y-59490000D01*
X121936000Y-57350000D02*
X119936000Y-57350000D01*
X119936000Y-59490000D02*
X121936000Y-59490000D01*
X129556000Y-57350000D02*
X127556000Y-57350000D01*
X127556000Y-59490000D02*
X129556000Y-59490000D01*
X137684000Y-57350000D02*
X135684000Y-57350000D01*
X135684000Y-59490000D02*
X137684000Y-59490000D01*
D12*
X129897000Y-71779000D02*
X129897000Y-71554000D01*
X133247000Y-71779000D02*
X133247000Y-71479000D01*
X133247000Y-68429000D02*
X133247000Y-68729000D01*
X129897000Y-68429000D02*
X129897000Y-68729000D01*
X129897000Y-71779000D02*
X133247000Y-71779000D01*
X129897000Y-68429000D02*
X133247000Y-68429000D01*
X129897000Y-71554000D02*
X128672000Y-71554000D01*
X147931000Y-71779000D02*
X147931000Y-71554000D01*
X151281000Y-71779000D02*
X151281000Y-71479000D01*
X151281000Y-68429000D02*
X151281000Y-68729000D01*
X147931000Y-68429000D02*
X147931000Y-68729000D01*
X147931000Y-71779000D02*
X151281000Y-71779000D01*
X147931000Y-68429000D02*
X151281000Y-68429000D01*
X147931000Y-71554000D02*
X146706000Y-71554000D01*
X111609000Y-71779000D02*
X111609000Y-71554000D01*
X114959000Y-71779000D02*
X114959000Y-71479000D01*
X114959000Y-68429000D02*
X114959000Y-68729000D01*
X111609000Y-68429000D02*
X111609000Y-68729000D01*
X111609000Y-71779000D02*
X114959000Y-71779000D01*
X111609000Y-68429000D02*
X114959000Y-68429000D01*
X111609000Y-71554000D02*
X110384000Y-71554000D01*
X145454666Y-76303143D02*
X145502285Y-76350762D01*
X145645142Y-76398381D01*
X145740380Y-76398381D01*
X145883238Y-76350762D01*
X145978476Y-76255524D01*
X146026095Y-76160286D01*
X146073714Y-75969810D01*
X146073714Y-75826952D01*
X146026095Y-75636476D01*
X145978476Y-75541238D01*
X145883238Y-75446000D01*
X145740380Y-75398381D01*
X145645142Y-75398381D01*
X145502285Y-75446000D01*
X145454666Y-75493619D01*
X144502285Y-76398381D02*
X145073714Y-76398381D01*
X144788000Y-76398381D02*
X144788000Y-75398381D01*
X144883238Y-75541238D01*
X144978476Y-75636476D01*
X145073714Y-75684095D01*
X109164666Y-76303143D02*
X109212285Y-76350762D01*
X109355142Y-76398381D01*
X109450380Y-76398381D01*
X109593238Y-76350762D01*
X109688476Y-76255524D01*
X109736095Y-76160286D01*
X109783714Y-75969810D01*
X109783714Y-75826952D01*
X109736095Y-75636476D01*
X109688476Y-75541238D01*
X109593238Y-75446000D01*
X109450380Y-75398381D01*
X109355142Y-75398381D01*
X109212285Y-75446000D01*
X109164666Y-75493619D01*
X108783714Y-75493619D02*
X108736095Y-75446000D01*
X108640857Y-75398381D01*
X108402761Y-75398381D01*
X108307523Y-75446000D01*
X108259904Y-75493619D01*
X108212285Y-75588857D01*
X108212285Y-75684095D01*
X108259904Y-75826952D01*
X108831333Y-76398381D01*
X108212285Y-76398381D01*
X127420666Y-76303143D02*
X127468285Y-76350762D01*
X127611142Y-76398381D01*
X127706380Y-76398381D01*
X127849238Y-76350762D01*
X127944476Y-76255524D01*
X127992095Y-76160286D01*
X128039714Y-75969810D01*
X128039714Y-75826952D01*
X127992095Y-75636476D01*
X127944476Y-75541238D01*
X127849238Y-75446000D01*
X127706380Y-75398381D01*
X127611142Y-75398381D01*
X127468285Y-75446000D01*
X127420666Y-75493619D01*
X127087333Y-75398381D02*
X126468285Y-75398381D01*
X126801619Y-75779333D01*
X126658761Y-75779333D01*
X126563523Y-75826952D01*
X126515904Y-75874571D01*
X126468285Y-75969810D01*
X126468285Y-76207905D01*
X126515904Y-76303143D01*
X126563523Y-76350762D01*
X126658761Y-76398381D01*
X126944476Y-76398381D01*
X127039714Y-76350762D01*
X127087333Y-76303143D01*
X144438666Y-60904381D02*
X144772000Y-60428190D01*
X145010095Y-60904381D02*
X145010095Y-59904381D01*
X144629142Y-59904381D01*
X144533904Y-59952000D01*
X144486285Y-59999619D01*
X144438666Y-60094857D01*
X144438666Y-60237714D01*
X144486285Y-60332952D01*
X144533904Y-60380571D01*
X144629142Y-60428190D01*
X145010095Y-60428190D01*
X144057714Y-59999619D02*
X144010095Y-59952000D01*
X143914857Y-59904381D01*
X143676761Y-59904381D01*
X143581523Y-59952000D01*
X143533904Y-59999619D01*
X143486285Y-60094857D01*
X143486285Y-60190095D01*
X143533904Y-60332952D01*
X144105333Y-60904381D01*
X143486285Y-60904381D01*
X121070666Y-60904381D02*
X121404000Y-60428190D01*
X121642095Y-60904381D02*
X121642095Y-59904381D01*
X121261142Y-59904381D01*
X121165904Y-59952000D01*
X121118285Y-59999619D01*
X121070666Y-60094857D01*
X121070666Y-60237714D01*
X121118285Y-60332952D01*
X121165904Y-60380571D01*
X121261142Y-60428190D01*
X121642095Y-60428190D01*
X120213523Y-59904381D02*
X120404000Y-59904381D01*
X120499238Y-59952000D01*
X120546857Y-59999619D01*
X120642095Y-60142476D01*
X120689714Y-60332952D01*
X120689714Y-60713905D01*
X120642095Y-60809143D01*
X120594476Y-60856762D01*
X120499238Y-60904381D01*
X120308761Y-60904381D01*
X120213523Y-60856762D01*
X120165904Y-60809143D01*
X120118285Y-60713905D01*
X120118285Y-60475810D01*
X120165904Y-60380571D01*
X120213523Y-60332952D01*
X120308761Y-60285333D01*
X120499238Y-60285333D01*
X120594476Y-60332952D01*
X120642095Y-60380571D01*
X120689714Y-60475810D01*
X128690666Y-60904381D02*
X129024000Y-60428190D01*
X129262095Y-60904381D02*
X129262095Y-59904381D01*
X128881142Y-59904381D01*
X128785904Y-59952000D01*
X128738285Y-59999619D01*
X128690666Y-60094857D01*
X128690666Y-60237714D01*
X128738285Y-60332952D01*
X128785904Y-60380571D01*
X128881142Y-60428190D01*
X129262095Y-60428190D01*
X128357333Y-59904381D02*
X127690666Y-59904381D01*
X128119238Y-60904381D01*
X136818666Y-60904381D02*
X137152000Y-60428190D01*
X137390095Y-60904381D02*
X137390095Y-59904381D01*
X137009142Y-59904381D01*
X136913904Y-59952000D01*
X136866285Y-59999619D01*
X136818666Y-60094857D01*
X136818666Y-60237714D01*
X136866285Y-60332952D01*
X136913904Y-60380571D01*
X137009142Y-60428190D01*
X137390095Y-60428190D01*
X136247238Y-60332952D02*
X136342476Y-60285333D01*
X136390095Y-60237714D01*
X136437714Y-60142476D01*
X136437714Y-60094857D01*
X136390095Y-59999619D01*
X136342476Y-59952000D01*
X136247238Y-59904381D01*
X136056761Y-59904381D01*
X135961523Y-59952000D01*
X135913904Y-59999619D01*
X135866285Y-60094857D01*
X135866285Y-60142476D01*
X135913904Y-60237714D01*
X135961523Y-60285333D01*
X136056761Y-60332952D01*
X136247238Y-60332952D01*
X136342476Y-60380571D01*
X136390095Y-60428190D01*
X136437714Y-60523429D01*
X136437714Y-60713905D01*
X136390095Y-60809143D01*
X136342476Y-60856762D01*
X136247238Y-60904381D01*
X136056761Y-60904381D01*
X135961523Y-60856762D01*
X135913904Y-60809143D01*
X135866285Y-60713905D01*
X135866285Y-60523429D01*
X135913904Y-60428190D01*
X135961523Y-60380571D01*
X136056761Y-60332952D01*
X132333905Y-72156381D02*
X132333905Y-72965905D01*
X132286286Y-73061143D01*
X132238667Y-73108762D01*
X132143429Y-73156381D01*
X131952952Y-73156381D01*
X131857714Y-73108762D01*
X131810095Y-73061143D01*
X131762476Y-72965905D01*
X131762476Y-72156381D01*
X130762476Y-73156381D02*
X131333905Y-73156381D01*
X131048191Y-73156381D02*
X131048191Y-72156381D01*
X131143429Y-72299238D01*
X131238667Y-72394476D01*
X131333905Y-72442095D01*
X150367905Y-72156381D02*
X150367905Y-72965905D01*
X150320286Y-73061143D01*
X150272667Y-73108762D01*
X150177429Y-73156381D01*
X149986952Y-73156381D01*
X149891714Y-73108762D01*
X149844095Y-73061143D01*
X149796476Y-72965905D01*
X149796476Y-72156381D01*
X149367905Y-72251619D02*
X149320286Y-72204000D01*
X149225048Y-72156381D01*
X148986952Y-72156381D01*
X148891714Y-72204000D01*
X148844095Y-72251619D01*
X148796476Y-72346857D01*
X148796476Y-72442095D01*
X148844095Y-72584952D01*
X149415524Y-73156381D01*
X148796476Y-73156381D01*
X114045905Y-72156381D02*
X114045905Y-72965905D01*
X113998286Y-73061143D01*
X113950667Y-73108762D01*
X113855429Y-73156381D01*
X113664952Y-73156381D01*
X113569714Y-73108762D01*
X113522095Y-73061143D01*
X113474476Y-72965905D01*
X113474476Y-72156381D01*
X113093524Y-72156381D02*
X112474476Y-72156381D01*
X112807810Y-72537333D01*
X112664952Y-72537333D01*
X112569714Y-72584952D01*
X112522095Y-72632571D01*
X112474476Y-72727810D01*
X112474476Y-72965905D01*
X112522095Y-73061143D01*
X112569714Y-73108762D01*
X112664952Y-73156381D01*
X112950667Y-73156381D01*
X113045905Y-73108762D01*
X113093524Y-73061143D01*
M02*
