G04 #@! TF.FileFunction,Soldermask,Bot*
%FSLAX46Y46*%
G04 Gerber Fmt 4.6, Leading zero omitted, Abs format (unit mm)*
G04 Created by KiCad (PCBNEW 4.0.7) date 01/22/18 20:26:34*
%MOMM*%
%LPD*%
G01*
G04 APERTURE LIST*
%ADD10C,0.100000*%
%ADD11C,3.900000*%
%ADD12R,2.200000X2.200000*%
%ADD13C,2.200000*%
%ADD14C,6.800000*%
%ADD15C,1.200000*%
%ADD16C,2.800000*%
%ADD17O,2.800000X2.800000*%
%ADD18R,2.400000X2.000000*%
%ADD19C,2.051000*%
%ADD20R,2.400000X2.100000*%
%ADD21R,1.800000X0.700000*%
%ADD22C,0.254000*%
G04 APERTURE END LIST*
D10*
D11*
X112268000Y-53214800D03*
X104768000Y-65714800D03*
D12*
X135128000Y-53848000D03*
D13*
X137668000Y-53848000D03*
D14*
X161036000Y-53086000D03*
D15*
X163436000Y-53086000D03*
X162733056Y-54783056D03*
X161036000Y-55486000D03*
X159338944Y-54783056D03*
X158636000Y-53086000D03*
X159338944Y-51388944D03*
X161036000Y-50686000D03*
X162733056Y-51388944D03*
D14*
X96774000Y-106680000D03*
D15*
X99174000Y-106680000D03*
X98471056Y-108377056D03*
X96774000Y-109080000D03*
X95076944Y-108377056D03*
X94374000Y-106680000D03*
X95076944Y-104982944D03*
X96774000Y-104280000D03*
X98471056Y-104982944D03*
D14*
X161036000Y-131572000D03*
D15*
X163436000Y-131572000D03*
X162733056Y-133269056D03*
X161036000Y-133972000D03*
X159338944Y-133269056D03*
X158636000Y-131572000D03*
X159338944Y-129874944D03*
X161036000Y-129172000D03*
X162733056Y-129874944D03*
D11*
X186182000Y-98820000D03*
X173682000Y-91320000D03*
X186182000Y-83820000D03*
D16*
X188214000Y-107188000D03*
D17*
X157734000Y-107188000D03*
D18*
X147606000Y-75946000D03*
X151606000Y-75946000D03*
X115284000Y-75946000D03*
X111284000Y-75946000D03*
X129572000Y-75946000D03*
X133572000Y-75946000D03*
D12*
X142748000Y-53848000D03*
D13*
X145288000Y-53848000D03*
D12*
X119888000Y-53848000D03*
D13*
X122428000Y-53848000D03*
D12*
X127508000Y-53848000D03*
D13*
X130048000Y-53848000D03*
D11*
X102094000Y-133604000D03*
X109594000Y-121104000D03*
X117094000Y-133604000D03*
X124594000Y-121104000D03*
X186182000Y-71628000D03*
X173682000Y-64128000D03*
X186182000Y-56628000D03*
D19*
X152908000Y-59436000D03*
X152908000Y-56896000D03*
X152908000Y-54356000D03*
X152908000Y-51816000D03*
D11*
X143764000Y-133604000D03*
X151264000Y-121104000D03*
X186182000Y-130570000D03*
X173682000Y-123070000D03*
X186182000Y-115570000D03*
D20*
X142272000Y-58420000D03*
X146272000Y-58420000D03*
X118936000Y-58420000D03*
X122936000Y-58420000D03*
X126556000Y-58420000D03*
X130556000Y-58420000D03*
X134684000Y-58420000D03*
X138684000Y-58420000D03*
D14*
X96774000Y-53848000D03*
D15*
X99174000Y-53848000D03*
X98471056Y-55545056D03*
X96774000Y-56248000D03*
X95076944Y-55545056D03*
X94374000Y-53848000D03*
X95076944Y-52150944D03*
X96774000Y-51448000D03*
X98471056Y-52150944D03*
D21*
X129372000Y-71104000D03*
X129372000Y-70604000D03*
X129372000Y-70104000D03*
X129372000Y-69604000D03*
X129372000Y-69104000D03*
X133772000Y-69104000D03*
X133772000Y-69604000D03*
X133772000Y-70104000D03*
X133772000Y-70604000D03*
X133772000Y-71104000D03*
X147406000Y-71104000D03*
X147406000Y-70604000D03*
X147406000Y-70104000D03*
X147406000Y-69604000D03*
X147406000Y-69104000D03*
X151806000Y-69104000D03*
X151806000Y-69604000D03*
X151806000Y-70104000D03*
X151806000Y-70604000D03*
X151806000Y-71104000D03*
X111084000Y-71104000D03*
X111084000Y-70604000D03*
X111084000Y-70104000D03*
X111084000Y-69604000D03*
X111084000Y-69104000D03*
X115484000Y-69104000D03*
X115484000Y-69604000D03*
X115484000Y-70104000D03*
X115484000Y-70604000D03*
X115484000Y-71104000D03*
D22*
G36*
X141605000Y-94869000D02*
X107315000Y-94869000D01*
X107315000Y-92583000D01*
X141605000Y-92583000D01*
X141605000Y-94869000D01*
X141605000Y-94869000D01*
G37*
X141605000Y-94869000D02*
X107315000Y-94869000D01*
X107315000Y-92583000D01*
X141605000Y-92583000D01*
X141605000Y-94869000D01*
G36*
X141605000Y-97917000D02*
X107315000Y-97917000D01*
X107315000Y-95631000D01*
X141605000Y-95631000D01*
X141605000Y-97917000D01*
X141605000Y-97917000D01*
G37*
X141605000Y-97917000D02*
X107315000Y-97917000D01*
X107315000Y-95631000D01*
X141605000Y-95631000D01*
X141605000Y-97917000D01*
G36*
X141605000Y-100965000D02*
X107315000Y-100965000D01*
X107315000Y-98679000D01*
X141605000Y-98679000D01*
X141605000Y-100965000D01*
X141605000Y-100965000D01*
G37*
X141605000Y-100965000D02*
X107315000Y-100965000D01*
X107315000Y-98679000D01*
X141605000Y-98679000D01*
X141605000Y-100965000D01*
G36*
X146685000Y-104013000D02*
X107315000Y-104013000D01*
X107315000Y-101727000D01*
X146685000Y-101727000D01*
X146685000Y-104013000D01*
X146685000Y-104013000D01*
G37*
X146685000Y-104013000D02*
X107315000Y-104013000D01*
X107315000Y-101727000D01*
X146685000Y-101727000D01*
X146685000Y-104013000D01*
G36*
X146685000Y-107061000D02*
X107315000Y-107061000D01*
X107315000Y-104775000D01*
X146685000Y-104775000D01*
X146685000Y-107061000D01*
X146685000Y-107061000D01*
G37*
X146685000Y-107061000D02*
X107315000Y-107061000D01*
X107315000Y-104775000D01*
X146685000Y-104775000D01*
X146685000Y-107061000D01*
G36*
X146685000Y-110109000D02*
X107315000Y-110109000D01*
X107315000Y-107823000D01*
X146685000Y-107823000D01*
X146685000Y-110109000D01*
X146685000Y-110109000D01*
G37*
X146685000Y-110109000D02*
X107315000Y-110109000D01*
X107315000Y-107823000D01*
X146685000Y-107823000D01*
X146685000Y-110109000D01*
G36*
X156083000Y-126238289D02*
X100711000Y-126364709D01*
X100711000Y-124079000D01*
X104738016Y-124079000D01*
X156083000Y-123952314D01*
X156083000Y-126238289D01*
X156083000Y-126238289D01*
G37*
X156083000Y-126238289D02*
X100711000Y-126364709D01*
X100711000Y-124079000D01*
X104738016Y-124079000D01*
X156083000Y-123952314D01*
X156083000Y-126238289D01*
G36*
X156083000Y-129413000D02*
X100711000Y-129413000D01*
X100711000Y-127127000D01*
X156083000Y-127127000D01*
X156083000Y-129413000D01*
X156083000Y-129413000D01*
G37*
X156083000Y-129413000D02*
X100711000Y-129413000D01*
X100711000Y-127127000D01*
X156083000Y-127127000D01*
X156083000Y-129413000D01*
G36*
X135509000Y-80645000D02*
X107315000Y-80645000D01*
X107315000Y-78359000D01*
X135509000Y-78359000D01*
X135509000Y-80645000D01*
X135509000Y-80645000D01*
G37*
X135509000Y-80645000D02*
X107315000Y-80645000D01*
X107315000Y-78359000D01*
X135509000Y-78359000D01*
X135509000Y-80645000D01*
G36*
X153797000Y-80645000D02*
X140141996Y-80645000D01*
X140141996Y-78359000D01*
X153797000Y-78359000D01*
X153797000Y-80645000D01*
X153797000Y-80645000D01*
G37*
X153797000Y-80645000D02*
X140141996Y-80645000D01*
X140141996Y-78359000D01*
X153797000Y-78359000D01*
X153797000Y-80645000D01*
M02*
