G04 #@! TF.FileFunction,Copper,L2,Bot,Signal*
%FSLAX46Y46*%
G04 Gerber Fmt 4.6, Leading zero omitted, Abs format (unit mm)*
G04 Created by KiCad (PCBNEW 4.0.7) date 01/22/18 20:26:34*
%MOMM*%
%LPD*%
G01*
G04 APERTURE LIST*
%ADD10C,0.100000*%
%ADD11C,3.500000*%
%ADD12R,1.800000X1.800000*%
%ADD13C,1.800000*%
%ADD14C,6.400000*%
%ADD15C,0.800000*%
%ADD16C,2.400000*%
%ADD17O,2.400000X2.400000*%
%ADD18R,2.000000X1.600000*%
%ADD19C,1.651000*%
%ADD20R,2.000000X1.700000*%
%ADD21R,1.400000X0.300000*%
%ADD22C,0.600000*%
%ADD23C,0.508000*%
%ADD24C,0.254000*%
G04 APERTURE END LIST*
D10*
D11*
X112268000Y-53214800D03*
X104768000Y-65714800D03*
D12*
X135128000Y-53848000D03*
D13*
X137668000Y-53848000D03*
D14*
X161036000Y-53086000D03*
D15*
X163436000Y-53086000D03*
X162733056Y-54783056D03*
X161036000Y-55486000D03*
X159338944Y-54783056D03*
X158636000Y-53086000D03*
X159338944Y-51388944D03*
X161036000Y-50686000D03*
X162733056Y-51388944D03*
D14*
X96774000Y-106680000D03*
D15*
X99174000Y-106680000D03*
X98471056Y-108377056D03*
X96774000Y-109080000D03*
X95076944Y-108377056D03*
X94374000Y-106680000D03*
X95076944Y-104982944D03*
X96774000Y-104280000D03*
X98471056Y-104982944D03*
D14*
X161036000Y-131572000D03*
D15*
X163436000Y-131572000D03*
X162733056Y-133269056D03*
X161036000Y-133972000D03*
X159338944Y-133269056D03*
X158636000Y-131572000D03*
X159338944Y-129874944D03*
X161036000Y-129172000D03*
X162733056Y-129874944D03*
D11*
X186182000Y-98820000D03*
X173682000Y-91320000D03*
X186182000Y-83820000D03*
D16*
X188214000Y-107188000D03*
D17*
X157734000Y-107188000D03*
D18*
X147606000Y-75946000D03*
X151606000Y-75946000D03*
X115284000Y-75946000D03*
X111284000Y-75946000D03*
X129572000Y-75946000D03*
X133572000Y-75946000D03*
D12*
X142748000Y-53848000D03*
D13*
X145288000Y-53848000D03*
D12*
X119888000Y-53848000D03*
D13*
X122428000Y-53848000D03*
D12*
X127508000Y-53848000D03*
D13*
X130048000Y-53848000D03*
D11*
X102094000Y-133604000D03*
X109594000Y-121104000D03*
X117094000Y-133604000D03*
X124594000Y-121104000D03*
X186182000Y-71628000D03*
X173682000Y-64128000D03*
X186182000Y-56628000D03*
D19*
X152908000Y-59436000D03*
X152908000Y-56896000D03*
X152908000Y-54356000D03*
X152908000Y-51816000D03*
D11*
X143764000Y-133604000D03*
X151264000Y-121104000D03*
X186182000Y-130570000D03*
X173682000Y-123070000D03*
X186182000Y-115570000D03*
D20*
X142272000Y-58420000D03*
X146272000Y-58420000D03*
X118936000Y-58420000D03*
X122936000Y-58420000D03*
X126556000Y-58420000D03*
X130556000Y-58420000D03*
X134684000Y-58420000D03*
X138684000Y-58420000D03*
D14*
X96774000Y-53848000D03*
D15*
X99174000Y-53848000D03*
X98471056Y-55545056D03*
X96774000Y-56248000D03*
X95076944Y-55545056D03*
X94374000Y-53848000D03*
X95076944Y-52150944D03*
X96774000Y-51448000D03*
X98471056Y-52150944D03*
D21*
X129372000Y-71104000D03*
X129372000Y-70604000D03*
X129372000Y-70104000D03*
X129372000Y-69604000D03*
X129372000Y-69104000D03*
X133772000Y-69104000D03*
X133772000Y-69604000D03*
X133772000Y-70104000D03*
X133772000Y-70604000D03*
X133772000Y-71104000D03*
X147406000Y-71104000D03*
X147406000Y-70604000D03*
X147406000Y-70104000D03*
X147406000Y-69604000D03*
X147406000Y-69104000D03*
X151806000Y-69104000D03*
X151806000Y-69604000D03*
X151806000Y-70104000D03*
X151806000Y-70604000D03*
X151806000Y-71104000D03*
X111084000Y-71104000D03*
X111084000Y-70604000D03*
X111084000Y-70104000D03*
X111084000Y-69604000D03*
X111084000Y-69104000D03*
X115484000Y-69104000D03*
X115484000Y-69604000D03*
X115484000Y-70104000D03*
X115484000Y-70604000D03*
X115484000Y-71104000D03*
D22*
X114046000Y-71628000D03*
X145542000Y-90805000D03*
X155575000Y-78359000D03*
X155575000Y-70866000D03*
X146812000Y-100584000D03*
X145542000Y-100584000D03*
X144272000Y-100584000D03*
X143002000Y-100584000D03*
X143002000Y-99314000D03*
X144272000Y-99314000D03*
X145542000Y-99314000D03*
X146812000Y-99314000D03*
X146812000Y-98044000D03*
X145542000Y-98044000D03*
X144272000Y-98044000D03*
X143002000Y-98044000D03*
X143002000Y-96520000D03*
X144272000Y-96520000D03*
X145542000Y-96520000D03*
X146812000Y-96520000D03*
X146812000Y-94996000D03*
X145542000Y-94996000D03*
X144272000Y-94996000D03*
X143002000Y-94996000D03*
X143002000Y-93726000D03*
X144272000Y-93726000D03*
X145542000Y-93726000D03*
X146812000Y-93726000D03*
X146812000Y-92456000D03*
X145542000Y-92456000D03*
X144272000Y-92456000D03*
X143002000Y-92456000D03*
X129032000Y-90424000D03*
X137160000Y-75692000D03*
X137160000Y-71374000D03*
X181356000Y-59436000D03*
X135128000Y-49784000D03*
X180340000Y-53086000D03*
X137668000Y-66802000D03*
X139192000Y-68072000D03*
X145542000Y-69596000D03*
X147828000Y-64262000D03*
X139725159Y-67081159D03*
X138658841Y-66014841D03*
X145821159Y-63779159D03*
X144526000Y-67310000D03*
X138176000Y-75692000D03*
X133731000Y-90805000D03*
X138252006Y-72390000D03*
X151892000Y-72390000D03*
X114046000Y-67818000D03*
X114046000Y-58420000D03*
X172720000Y-109728000D03*
X172720000Y-108204000D03*
X172720000Y-106680000D03*
X172720000Y-105156000D03*
X172720000Y-103632000D03*
X172720000Y-102108000D03*
X172720000Y-100584000D03*
X172720000Y-99060000D03*
X172720000Y-97536000D03*
X174244000Y-97536000D03*
X174244000Y-99060000D03*
X174244000Y-100584000D03*
X174244000Y-102108000D03*
X174244000Y-103632000D03*
X174244000Y-105156000D03*
X174244000Y-106680000D03*
X174244000Y-108204000D03*
X174244000Y-109728000D03*
X175768000Y-109728000D03*
X175768000Y-108204000D03*
X175768000Y-106680000D03*
X175768000Y-105156000D03*
X175768000Y-103632000D03*
X175768000Y-102108000D03*
X175768000Y-100584000D03*
X175768000Y-99060000D03*
X175768000Y-97536000D03*
X177292000Y-97536000D03*
X177292000Y-99060000D03*
X177292000Y-100584000D03*
X177292000Y-102108000D03*
X177292000Y-103632000D03*
X177292000Y-105156000D03*
X177292000Y-106680000D03*
X177292000Y-108204000D03*
X177292000Y-109728000D03*
X178816000Y-109728000D03*
X178816000Y-108204000D03*
X178816000Y-106680000D03*
X178816000Y-105156000D03*
X178816000Y-103632000D03*
X178816000Y-102108000D03*
X178816000Y-100584000D03*
X178816000Y-99060000D03*
X178816000Y-97536000D03*
D23*
X116332000Y-72644000D02*
X115316000Y-73660000D01*
X115316000Y-73660000D02*
X115316000Y-75914000D01*
X115316000Y-75914000D02*
X115284000Y-75946000D01*
D24*
X115484000Y-69104000D02*
X115484000Y-68920000D01*
D23*
X118618000Y-69088000D02*
X118110000Y-68580000D01*
X118110000Y-68580000D02*
X117094000Y-68580000D01*
X118618000Y-69088000D02*
X118618000Y-72644000D01*
D24*
X115824000Y-68580000D02*
X117094000Y-68580000D01*
X115484000Y-68920000D02*
X115824000Y-68580000D01*
X133772000Y-69104000D02*
X133772000Y-67818000D01*
X133772000Y-67818000D02*
X133858000Y-67818000D01*
D23*
X126238000Y-72644000D02*
X118618000Y-72644000D01*
X118618000Y-72644000D02*
X116332000Y-72644000D01*
X126746000Y-72644000D02*
X126238000Y-72644000D01*
X116268000Y-72644000D02*
X116332000Y-72644000D01*
X129540000Y-72644000D02*
X126746000Y-72644000D01*
X130302000Y-72644000D02*
X129540000Y-72644000D01*
X129572000Y-75946000D02*
X129572000Y-73374000D01*
X131572000Y-72136000D02*
X131572000Y-69342000D01*
X131572000Y-72136000D02*
X131572000Y-72644000D01*
X131572000Y-72644000D02*
X130302000Y-72644000D01*
X129572000Y-72676000D02*
X129572000Y-73374000D01*
X129540000Y-72644000D02*
X129572000Y-72676000D01*
D24*
X131572000Y-69358000D02*
X131588000Y-69342000D01*
D23*
X134112000Y-67818000D02*
X133858000Y-67818000D01*
X133858000Y-67818000D02*
X133096000Y-67818000D01*
X138430000Y-67310000D02*
X137922000Y-67818000D01*
X137922000Y-67818000D02*
X134112000Y-67818000D01*
X144272000Y-63500000D02*
X142240000Y-63500000D01*
X142240000Y-63500000D02*
X138430000Y-67310000D01*
X131572000Y-69342000D02*
X131572000Y-69342000D01*
X133096000Y-67818000D02*
X131572000Y-69342000D01*
X148336000Y-67564000D02*
X148844000Y-68072000D01*
X144272000Y-63500000D02*
X148336000Y-67564000D01*
X148844000Y-69104000D02*
X148836000Y-69104000D01*
X148844000Y-68072000D02*
X148844000Y-69104000D01*
D24*
X151806000Y-69104000D02*
X148836000Y-69104000D01*
X148844000Y-69088000D02*
X148836000Y-69088000D01*
D23*
X148836000Y-70612000D02*
X148836000Y-69088000D01*
D24*
X148836000Y-69104000D02*
X148844000Y-69096000D01*
X148844000Y-69096000D02*
X148844000Y-69088000D01*
D23*
X147606000Y-75946000D02*
X147606000Y-75914000D01*
X147606000Y-75914000D02*
X148836000Y-74684000D01*
X148836000Y-74684000D02*
X148836000Y-70612000D01*
X148836000Y-70612000D02*
X148836000Y-70604000D01*
D24*
X147406000Y-70604000D02*
X148836000Y-70604000D01*
X148836000Y-70604000D02*
X148844000Y-70596000D01*
D23*
X142272000Y-58420000D02*
X142272000Y-59778000D01*
X142272000Y-59778000D02*
X143991447Y-61497447D01*
X143991447Y-61497447D02*
X146304000Y-61497447D01*
X150876000Y-56925447D02*
X150876000Y-53848000D01*
X150876000Y-53848000D02*
X152908000Y-51816000D01*
X146304000Y-62230000D02*
X146304000Y-61497447D01*
X146304000Y-61497447D02*
X150876000Y-56925447D01*
X145034000Y-63500000D02*
X144272000Y-63500000D01*
X146304000Y-62230000D02*
X145034000Y-63500000D01*
X109728000Y-72644000D02*
X109728000Y-70612000D01*
D24*
X111084000Y-70604000D02*
X109736000Y-70604000D01*
X109728000Y-70612000D02*
X109736000Y-70604000D01*
D23*
X109728000Y-72644000D02*
X111252000Y-72644000D01*
X111284000Y-75946000D02*
X111284000Y-72644000D01*
X111284000Y-72644000D02*
X111252000Y-72644000D01*
X112268000Y-72644000D02*
X111252000Y-72644000D01*
D24*
X117086000Y-69604000D02*
X117094000Y-69596000D01*
D23*
X114554000Y-72644000D02*
X115062000Y-72644000D01*
X114554000Y-72644000D02*
X112268000Y-72644000D01*
X117856000Y-69596000D02*
X117094000Y-69596000D01*
X117856000Y-71374000D02*
X117856000Y-69596000D01*
X117348000Y-71882000D02*
X117856000Y-71374000D01*
X115824000Y-71882000D02*
X117348000Y-71882000D01*
X115062000Y-72644000D02*
X115824000Y-71882000D01*
D24*
X115484000Y-69604000D02*
X117086000Y-69604000D01*
X153408000Y-69604000D02*
X153408000Y-68080000D01*
X151806000Y-69604000D02*
X153408000Y-69604000D01*
X153408000Y-68080000D02*
X153416000Y-68072000D01*
X151806000Y-69604000D02*
X150630000Y-69604000D01*
D23*
X150368000Y-74676000D02*
X150368000Y-69850000D01*
X150368000Y-74676000D02*
X151606000Y-75914000D01*
D24*
X150368000Y-69866000D02*
X150368000Y-69850000D01*
X150630000Y-69604000D02*
X150368000Y-69866000D01*
D23*
X151606000Y-75946000D02*
X151606000Y-75914000D01*
D24*
X133772000Y-69604000D02*
X132596000Y-69604000D01*
D23*
X133572000Y-73882000D02*
X132280002Y-72590002D01*
X132280002Y-72590002D02*
X132280002Y-70104000D01*
X133572000Y-73882000D02*
X133572000Y-75946000D01*
D24*
X132280002Y-69919998D02*
X132280002Y-70104000D01*
X132596000Y-69604000D02*
X132280002Y-69919998D01*
D23*
X143372000Y-51816000D02*
X135752000Y-51816000D01*
X135752000Y-51816000D02*
X135128000Y-52440000D01*
X135128000Y-52440000D02*
X135128000Y-53848000D01*
X142748000Y-53848000D02*
X142748000Y-52440000D01*
X142748000Y-52440000D02*
X143372000Y-51816000D01*
X133372000Y-75946000D02*
X133572000Y-75946000D01*
X146272000Y-54832000D02*
X145288000Y-53848000D01*
X146272000Y-58420000D02*
X146272000Y-54832000D01*
X122936000Y-58420000D02*
X122936000Y-54356000D01*
X122936000Y-54356000D02*
X122428000Y-53848000D01*
X130556000Y-58420000D02*
X130556000Y-54356000D01*
X130556000Y-54356000D02*
X130048000Y-53848000D01*
X138684000Y-58420000D02*
X138684000Y-54864000D01*
X138684000Y-54864000D02*
X137668000Y-53848000D01*
D24*
X115484000Y-71104000D02*
X114570000Y-71104000D01*
X114570000Y-71104000D02*
X114046000Y-71628000D01*
X151806000Y-70604000D02*
X151806000Y-70104000D01*
X151806000Y-70104000D02*
X154940000Y-70104000D01*
D23*
X155575000Y-70739000D02*
X154940000Y-70104000D01*
X147320000Y-86868000D02*
X145542000Y-88646000D01*
X145542000Y-88646000D02*
X145542000Y-90805000D01*
X150241000Y-86868000D02*
X147320000Y-86868000D01*
X155575000Y-81534000D02*
X150241000Y-86868000D01*
X155575000Y-78359000D02*
X155575000Y-81534000D01*
X155575000Y-70866000D02*
X155575000Y-70739000D01*
X146812000Y-100584000D02*
X146387736Y-100584000D01*
X144272000Y-100584000D02*
X145542000Y-100584000D01*
X143002000Y-99314000D02*
X143002000Y-100584000D01*
X145542000Y-99314000D02*
X144272000Y-99314000D01*
X146812000Y-98044000D02*
X146812000Y-99314000D01*
X144272000Y-98044000D02*
X145542000Y-98044000D01*
X143002000Y-96520000D02*
X143002000Y-98044000D01*
X145542000Y-96520000D02*
X144272000Y-96520000D01*
X146812000Y-94996000D02*
X146812000Y-96520000D01*
X144272000Y-94996000D02*
X145542000Y-94996000D01*
X143002000Y-93726000D02*
X143002000Y-94996000D01*
X145542000Y-93726000D02*
X144272000Y-93726000D01*
X146812000Y-92456000D02*
X146812000Y-93726000D01*
X144272000Y-92456000D02*
X145542000Y-92456000D01*
X109594000Y-92590000D02*
X109728000Y-92456000D01*
X109728000Y-92456000D02*
X143002000Y-92456000D01*
X109594000Y-119834000D02*
X109594000Y-92590000D01*
D24*
X133772000Y-70104000D02*
X136017000Y-70104000D01*
D23*
X136144000Y-70231000D02*
X137160000Y-71374000D01*
X137160000Y-82296000D02*
X129032000Y-90424000D01*
X137160000Y-75692000D02*
X137160000Y-82296000D01*
D24*
X136017000Y-70104000D02*
X136144000Y-70231000D01*
X133772000Y-70104000D02*
X133772000Y-70604000D01*
D23*
X181356000Y-59436000D02*
X186182000Y-64262000D01*
X186182000Y-64262000D02*
X186182000Y-71628000D01*
X184912000Y-69850000D02*
X186690000Y-71628000D01*
X126556000Y-58420000D02*
X126406000Y-58420000D01*
X126406000Y-58420000D02*
X125048000Y-57062000D01*
X125048000Y-57062000D02*
X125048000Y-53690798D01*
X125048000Y-53690798D02*
X128954798Y-49784000D01*
X128954798Y-49784000D02*
X135128000Y-49784000D01*
X134684000Y-58420000D02*
X134684000Y-57062000D01*
X159282079Y-56740001D02*
X164239999Y-56740001D01*
X134684000Y-57062000D02*
X133773999Y-56151999D01*
X133773999Y-56151999D02*
X133773999Y-52584799D01*
X133773999Y-52584799D02*
X136574798Y-49784000D01*
X136574798Y-49784000D02*
X153670000Y-49784000D01*
X153670000Y-49784000D02*
X155956000Y-52070000D01*
X167894000Y-53086000D02*
X180340000Y-53086000D01*
X155956000Y-52070000D02*
X155956000Y-53413922D01*
X155956000Y-53413922D02*
X159282079Y-56740001D01*
X164239999Y-56740001D02*
X167894000Y-53086000D01*
D24*
X111084000Y-71104000D02*
X112514000Y-71104000D01*
X112514000Y-71104000D02*
X112514000Y-71112000D01*
D23*
X112514000Y-69604000D02*
X112514000Y-71112000D01*
X112514000Y-71112000D02*
X112522000Y-71120000D01*
D24*
X111084000Y-69604000D02*
X112514000Y-69604000D01*
X112514000Y-69604000D02*
X112522000Y-69596000D01*
D23*
X112522000Y-69596000D02*
X112522000Y-68072000D01*
D24*
X112522000Y-69580000D02*
X112522000Y-69596000D01*
X112522000Y-68080000D02*
X112522000Y-68072000D01*
D23*
X130810000Y-71882000D02*
X127254000Y-71882000D01*
X127254000Y-71882000D02*
X122174000Y-66802000D01*
X122174000Y-66802000D02*
X112522000Y-66802000D01*
X112522000Y-66802000D02*
X112522000Y-68072000D01*
X130810000Y-71882000D02*
X130810739Y-71119754D01*
D24*
X129372000Y-70604000D02*
X130810000Y-70604000D01*
X130810000Y-70612000D02*
X130810000Y-70612000D01*
X130802000Y-70612000D02*
X130810000Y-70612000D01*
X130810000Y-70604000D02*
X130802000Y-70612000D01*
X129372000Y-71104000D02*
X130810739Y-71119754D01*
D23*
X130810739Y-71135754D02*
X130810000Y-70612000D01*
X130810000Y-70612000D02*
X130810000Y-69596000D01*
D24*
X130810739Y-71119754D02*
X130810739Y-71135754D01*
X129380000Y-69596000D02*
X130810000Y-69596000D01*
D23*
X132842000Y-66802000D02*
X130810000Y-68834000D01*
X130810000Y-68834000D02*
X130810000Y-69596000D01*
X139954000Y-68834000D02*
X139192000Y-68072000D01*
X144780000Y-68834000D02*
X143510000Y-68834000D01*
X144780000Y-68834000D02*
X145542000Y-69596000D01*
X139954000Y-68834000D02*
X143510000Y-68834000D01*
X137668000Y-66802000D02*
X135128000Y-66802000D01*
X135128000Y-66802000D02*
X132842000Y-66802000D01*
D24*
X129380000Y-69596000D02*
X129372000Y-69604000D01*
X147406000Y-71104000D02*
X145558000Y-71104000D01*
X145558000Y-71104000D02*
X145542000Y-71088000D01*
X145542000Y-71088000D02*
X145542000Y-69596000D01*
X145542000Y-69596000D02*
X147398000Y-69596000D01*
X147398000Y-69596000D02*
X147406000Y-69604000D01*
D23*
X147828000Y-64262000D02*
X147828000Y-61976000D01*
X152908000Y-56896000D02*
X147828000Y-61976000D01*
D24*
X111084000Y-69104000D02*
X111084000Y-69002000D01*
X111084000Y-69002000D02*
X111506000Y-68580000D01*
D23*
X111506000Y-68580000D02*
X111506000Y-65786000D01*
X128778000Y-68072000D02*
X128270000Y-68072000D01*
X128778000Y-68072000D02*
X129540000Y-68072000D01*
X125984000Y-65786000D02*
X111506000Y-65786000D01*
X128270000Y-68072000D02*
X125984000Y-65786000D01*
D24*
X129372000Y-69104000D02*
X129372000Y-68072000D01*
X129372000Y-68072000D02*
X129540000Y-68072000D01*
D23*
X138658841Y-66014841D02*
X138430000Y-65786000D01*
X139928841Y-67284841D02*
X139725159Y-67081159D01*
X130302000Y-68072000D02*
X129540000Y-68072000D01*
X132588000Y-65786000D02*
X130302000Y-68072000D01*
X138430000Y-65786000D02*
X132588000Y-65786000D01*
X147012010Y-62588308D02*
X147012010Y-61790714D01*
X147012010Y-61790714D02*
X151628499Y-57174225D01*
X152908000Y-54356000D02*
X152082501Y-55181499D01*
X151628499Y-57174225D02*
X151628499Y-55635501D01*
X151628499Y-55635501D02*
X152082501Y-55181499D01*
X145821159Y-63779159D02*
X147012010Y-62588308D01*
X144526000Y-67310000D02*
X144526000Y-67284841D01*
X144526000Y-67284841D02*
X144526000Y-67310000D01*
X144526000Y-67310000D02*
X144526000Y-67284841D01*
X139954000Y-67284841D02*
X139928841Y-67284841D01*
X145821159Y-67284841D02*
X144526000Y-67284841D01*
X144526000Y-67284841D02*
X139954000Y-67284841D01*
X139954000Y-67284841D02*
X139928841Y-67284841D01*
X145821159Y-67284841D02*
X146786841Y-67284841D01*
D24*
X147406000Y-67904000D02*
X147406000Y-69104000D01*
X146786841Y-67284841D02*
X147406000Y-67904000D01*
D23*
X133731000Y-90805000D02*
X133731000Y-87107276D01*
X133731000Y-87107276D02*
X138176000Y-82804000D01*
X138176000Y-82804000D02*
X138176000Y-75692000D01*
X135112000Y-71104000D02*
X135620000Y-71104000D01*
X136906000Y-72390000D02*
X138252006Y-72390000D01*
X135620000Y-71104000D02*
X136906000Y-72390000D01*
D24*
X133772000Y-71104000D02*
X135112000Y-71104000D01*
X135112000Y-71104000D02*
X135128000Y-71120000D01*
X151892000Y-72390000D02*
X151892000Y-71190000D01*
X151892000Y-71190000D02*
X151806000Y-71104000D01*
X115484000Y-70104000D02*
X114046000Y-70104000D01*
D23*
X114046000Y-70104000D02*
X114046000Y-67818000D01*
D24*
X115484000Y-70104000D02*
X115484000Y-70604000D01*
D23*
X114046000Y-58420000D02*
X118936000Y-58420000D01*
X172720000Y-108204000D02*
X172720000Y-109728000D01*
X172720000Y-105156000D02*
X172720000Y-106680000D01*
X172720000Y-102108000D02*
X172720000Y-103632000D01*
X172720000Y-99060000D02*
X172720000Y-100584000D01*
X174244000Y-97536000D02*
X172720000Y-97536000D01*
X174244000Y-100584000D02*
X174244000Y-99060000D01*
X174244000Y-103632000D02*
X174244000Y-102108000D01*
X174244000Y-106680000D02*
X174244000Y-105156000D01*
X174244000Y-109728000D02*
X174244000Y-108204000D01*
X175768000Y-108204000D02*
X175768000Y-109728000D01*
X175768000Y-105156000D02*
X175768000Y-106680000D01*
X175768000Y-102108000D02*
X175768000Y-103632000D01*
X175768000Y-99060000D02*
X175768000Y-100584000D01*
X177292000Y-97536000D02*
X175768000Y-97536000D01*
X177292000Y-100584000D02*
X177292000Y-99060000D01*
X177292000Y-103632000D02*
X177292000Y-102108000D01*
X177292000Y-106680000D02*
X177292000Y-105156000D01*
X177292000Y-109728000D02*
X177292000Y-108204000D01*
X178816000Y-108204000D02*
X178816000Y-109728000D01*
X178816000Y-105156000D02*
X178816000Y-106680000D01*
X178816000Y-102108000D02*
X178816000Y-103632000D01*
X178816000Y-99060000D02*
X178816000Y-100584000D01*
X187120000Y-99382000D02*
X180662000Y-99382000D01*
X180662000Y-99382000D02*
X178816000Y-97536000D01*
D24*
G36*
X184829242Y-58648726D02*
X185705513Y-59012585D01*
X186654325Y-59013413D01*
X187531229Y-58651084D01*
X187635495Y-58547000D01*
X189955394Y-58547000D01*
X190298000Y-58889606D01*
X190298000Y-91732394D01*
X189955394Y-92075000D01*
X183424606Y-92075000D01*
X182499000Y-91149394D01*
X182499000Y-85922091D01*
X185317346Y-85922091D01*
X185556295Y-86169847D01*
X186503172Y-86230422D01*
X186807705Y-86169847D01*
X187046654Y-85922091D01*
X186182000Y-85057437D01*
X185317346Y-85922091D01*
X182499000Y-85922091D01*
X182499000Y-84141172D01*
X183771578Y-84141172D01*
X183832153Y-84445705D01*
X184079909Y-84684654D01*
X184944563Y-83820000D01*
X187419437Y-83820000D01*
X188284091Y-84684654D01*
X188531847Y-84445705D01*
X188592422Y-83498828D01*
X188531847Y-83194295D01*
X188284091Y-82955346D01*
X187419437Y-83820000D01*
X184944563Y-83820000D01*
X184079909Y-82955346D01*
X183832153Y-83194295D01*
X183771578Y-84141172D01*
X182499000Y-84141172D01*
X182499000Y-81717909D01*
X185317346Y-81717909D01*
X186182000Y-82582563D01*
X187046654Y-81717909D01*
X186807705Y-81470153D01*
X185860828Y-81409578D01*
X185556295Y-81470153D01*
X185317346Y-81717909D01*
X182499000Y-81717909D01*
X182499000Y-73730091D01*
X185317346Y-73730091D01*
X185556295Y-73977847D01*
X186503172Y-74038422D01*
X186807705Y-73977847D01*
X187046654Y-73730091D01*
X186182000Y-72865437D01*
X185317346Y-73730091D01*
X182499000Y-73730091D01*
X182499000Y-71949172D01*
X183771578Y-71949172D01*
X183832153Y-72253705D01*
X184079909Y-72492654D01*
X184944563Y-71628000D01*
X187419437Y-71628000D01*
X188284091Y-72492654D01*
X188531847Y-72253705D01*
X188592422Y-71306828D01*
X188531847Y-71002295D01*
X188284091Y-70763346D01*
X187419437Y-71628000D01*
X184944563Y-71628000D01*
X184079909Y-70763346D01*
X183832153Y-71002295D01*
X183771578Y-71949172D01*
X182499000Y-71949172D01*
X182499000Y-69525909D01*
X185317346Y-69525909D01*
X186182000Y-70390563D01*
X187046654Y-69525909D01*
X186807705Y-69278153D01*
X185860828Y-69217578D01*
X185556295Y-69278153D01*
X185317346Y-69525909D01*
X182499000Y-69525909D01*
X182499000Y-59472606D01*
X183424606Y-58547000D01*
X184727693Y-58547000D01*
X184829242Y-58648726D01*
X184829242Y-58648726D01*
G37*
X184829242Y-58648726D02*
X185705513Y-59012585D01*
X186654325Y-59013413D01*
X187531229Y-58651084D01*
X187635495Y-58547000D01*
X189955394Y-58547000D01*
X190298000Y-58889606D01*
X190298000Y-91732394D01*
X189955394Y-92075000D01*
X183424606Y-92075000D01*
X182499000Y-91149394D01*
X182499000Y-85922091D01*
X185317346Y-85922091D01*
X185556295Y-86169847D01*
X186503172Y-86230422D01*
X186807705Y-86169847D01*
X187046654Y-85922091D01*
X186182000Y-85057437D01*
X185317346Y-85922091D01*
X182499000Y-85922091D01*
X182499000Y-84141172D01*
X183771578Y-84141172D01*
X183832153Y-84445705D01*
X184079909Y-84684654D01*
X184944563Y-83820000D01*
X187419437Y-83820000D01*
X188284091Y-84684654D01*
X188531847Y-84445705D01*
X188592422Y-83498828D01*
X188531847Y-83194295D01*
X188284091Y-82955346D01*
X187419437Y-83820000D01*
X184944563Y-83820000D01*
X184079909Y-82955346D01*
X183832153Y-83194295D01*
X183771578Y-84141172D01*
X182499000Y-84141172D01*
X182499000Y-81717909D01*
X185317346Y-81717909D01*
X186182000Y-82582563D01*
X187046654Y-81717909D01*
X186807705Y-81470153D01*
X185860828Y-81409578D01*
X185556295Y-81470153D01*
X185317346Y-81717909D01*
X182499000Y-81717909D01*
X182499000Y-73730091D01*
X185317346Y-73730091D01*
X185556295Y-73977847D01*
X186503172Y-74038422D01*
X186807705Y-73977847D01*
X187046654Y-73730091D01*
X186182000Y-72865437D01*
X185317346Y-73730091D01*
X182499000Y-73730091D01*
X182499000Y-71949172D01*
X183771578Y-71949172D01*
X183832153Y-72253705D01*
X184079909Y-72492654D01*
X184944563Y-71628000D01*
X187419437Y-71628000D01*
X188284091Y-72492654D01*
X188531847Y-72253705D01*
X188592422Y-71306828D01*
X188531847Y-71002295D01*
X188284091Y-70763346D01*
X187419437Y-71628000D01*
X184944563Y-71628000D01*
X184079909Y-70763346D01*
X183832153Y-71002295D01*
X183771578Y-71949172D01*
X182499000Y-71949172D01*
X182499000Y-69525909D01*
X185317346Y-69525909D01*
X186182000Y-70390563D01*
X187046654Y-69525909D01*
X186807705Y-69278153D01*
X185860828Y-69217578D01*
X185556295Y-69278153D01*
X185317346Y-69525909D01*
X182499000Y-69525909D01*
X182499000Y-59472606D01*
X183424606Y-58547000D01*
X184727693Y-58547000D01*
X184829242Y-58648726D01*
G36*
X190298000Y-93941606D02*
X190298000Y-133026069D01*
X189952502Y-134763003D01*
X189008221Y-136176221D01*
X187595005Y-137120502D01*
X185858069Y-137466000D01*
X183089837Y-137466000D01*
X182743252Y-137122609D01*
X182702044Y-132672091D01*
X185317346Y-132672091D01*
X185556295Y-132919847D01*
X186503172Y-132980422D01*
X186807705Y-132919847D01*
X187046654Y-132672091D01*
X186182000Y-131807437D01*
X185317346Y-132672091D01*
X182702044Y-132672091D01*
X182685554Y-130891172D01*
X183771578Y-130891172D01*
X183832153Y-131195705D01*
X184079909Y-131434654D01*
X184944563Y-130570000D01*
X187419437Y-130570000D01*
X188284091Y-131434654D01*
X188531847Y-131195705D01*
X188592422Y-130248828D01*
X188531847Y-129944295D01*
X188284091Y-129705346D01*
X187419437Y-130570000D01*
X184944563Y-130570000D01*
X184079909Y-129705346D01*
X183832153Y-129944295D01*
X183771578Y-130891172D01*
X182685554Y-130891172D01*
X182663117Y-128467909D01*
X185317346Y-128467909D01*
X186182000Y-129332563D01*
X187046654Y-128467909D01*
X186807705Y-128220153D01*
X185860828Y-128159578D01*
X185556295Y-128220153D01*
X185317346Y-128467909D01*
X182663117Y-128467909D01*
X182548065Y-116042325D01*
X183796587Y-116042325D01*
X184158916Y-116919229D01*
X184829242Y-117590726D01*
X185705513Y-117954585D01*
X186654325Y-117955413D01*
X187531229Y-117593084D01*
X188202726Y-116922758D01*
X188566585Y-116046487D01*
X188567413Y-115097675D01*
X188205084Y-114220771D01*
X187534758Y-113549274D01*
X186658487Y-113185415D01*
X185709675Y-113184587D01*
X184832771Y-113546916D01*
X184161274Y-114217242D01*
X183797415Y-115093513D01*
X183796587Y-116042325D01*
X182548065Y-116042325D01*
X182508254Y-111742781D01*
X182497791Y-111693466D01*
X182470645Y-111653740D01*
X181461386Y-110653783D01*
X181419244Y-110626114D01*
X181372000Y-110617000D01*
X173010606Y-110617000D01*
X172085000Y-109691394D01*
X172085000Y-108746202D01*
X187504326Y-108746202D01*
X187657777Y-108974357D01*
X188383726Y-109051236D01*
X188770223Y-108974357D01*
X188923674Y-108746202D01*
X188214000Y-108036528D01*
X187504326Y-108746202D01*
X172085000Y-108746202D01*
X172085000Y-107357726D01*
X186350764Y-107357726D01*
X186427643Y-107744223D01*
X186655798Y-107897674D01*
X187365472Y-107188000D01*
X189062528Y-107188000D01*
X189772202Y-107897674D01*
X190000357Y-107744223D01*
X190077236Y-107018274D01*
X190000357Y-106631777D01*
X189772202Y-106478326D01*
X189062528Y-107188000D01*
X187365472Y-107188000D01*
X186655798Y-106478326D01*
X186427643Y-106631777D01*
X186350764Y-107357726D01*
X172085000Y-107357726D01*
X172085000Y-105629798D01*
X187504326Y-105629798D01*
X188214000Y-106339472D01*
X188923674Y-105629798D01*
X188770223Y-105401643D01*
X188044274Y-105324764D01*
X187657777Y-105401643D01*
X187504326Y-105629798D01*
X172085000Y-105629798D01*
X172085000Y-100922091D01*
X185317346Y-100922091D01*
X185556295Y-101169847D01*
X186503172Y-101230422D01*
X186807705Y-101169847D01*
X187046654Y-100922091D01*
X186182000Y-100057437D01*
X185317346Y-100922091D01*
X172085000Y-100922091D01*
X172085000Y-99141172D01*
X183771578Y-99141172D01*
X183832153Y-99445705D01*
X184079909Y-99684654D01*
X184944563Y-98820000D01*
X187419437Y-98820000D01*
X188284091Y-99684654D01*
X188531847Y-99445705D01*
X188592422Y-98498828D01*
X188531847Y-98194295D01*
X188284091Y-97955346D01*
X187419437Y-98820000D01*
X184944563Y-98820000D01*
X184079909Y-97955346D01*
X183832153Y-98194295D01*
X183771578Y-99141172D01*
X172085000Y-99141172D01*
X172085000Y-97064606D01*
X172431697Y-96717909D01*
X185317346Y-96717909D01*
X186182000Y-97582563D01*
X187046654Y-96717909D01*
X186807705Y-96470153D01*
X185860828Y-96409578D01*
X185556295Y-96470153D01*
X185317346Y-96717909D01*
X172431697Y-96717909D01*
X173010606Y-96139000D01*
X178562000Y-96139000D01*
X178611410Y-96128994D01*
X178651803Y-96101803D01*
X179122606Y-95631000D01*
X181372000Y-95631000D01*
X181421410Y-95620994D01*
X181461803Y-95593803D01*
X182461803Y-94593803D01*
X182489666Y-94551789D01*
X182493998Y-94529608D01*
X183424606Y-93599000D01*
X189955394Y-93599000D01*
X190298000Y-93941606D01*
X190298000Y-93941606D01*
G37*
X190298000Y-93941606D02*
X190298000Y-133026069D01*
X189952502Y-134763003D01*
X189008221Y-136176221D01*
X187595005Y-137120502D01*
X185858069Y-137466000D01*
X183089837Y-137466000D01*
X182743252Y-137122609D01*
X182702044Y-132672091D01*
X185317346Y-132672091D01*
X185556295Y-132919847D01*
X186503172Y-132980422D01*
X186807705Y-132919847D01*
X187046654Y-132672091D01*
X186182000Y-131807437D01*
X185317346Y-132672091D01*
X182702044Y-132672091D01*
X182685554Y-130891172D01*
X183771578Y-130891172D01*
X183832153Y-131195705D01*
X184079909Y-131434654D01*
X184944563Y-130570000D01*
X187419437Y-130570000D01*
X188284091Y-131434654D01*
X188531847Y-131195705D01*
X188592422Y-130248828D01*
X188531847Y-129944295D01*
X188284091Y-129705346D01*
X187419437Y-130570000D01*
X184944563Y-130570000D01*
X184079909Y-129705346D01*
X183832153Y-129944295D01*
X183771578Y-130891172D01*
X182685554Y-130891172D01*
X182663117Y-128467909D01*
X185317346Y-128467909D01*
X186182000Y-129332563D01*
X187046654Y-128467909D01*
X186807705Y-128220153D01*
X185860828Y-128159578D01*
X185556295Y-128220153D01*
X185317346Y-128467909D01*
X182663117Y-128467909D01*
X182548065Y-116042325D01*
X183796587Y-116042325D01*
X184158916Y-116919229D01*
X184829242Y-117590726D01*
X185705513Y-117954585D01*
X186654325Y-117955413D01*
X187531229Y-117593084D01*
X188202726Y-116922758D01*
X188566585Y-116046487D01*
X188567413Y-115097675D01*
X188205084Y-114220771D01*
X187534758Y-113549274D01*
X186658487Y-113185415D01*
X185709675Y-113184587D01*
X184832771Y-113546916D01*
X184161274Y-114217242D01*
X183797415Y-115093513D01*
X183796587Y-116042325D01*
X182548065Y-116042325D01*
X182508254Y-111742781D01*
X182497791Y-111693466D01*
X182470645Y-111653740D01*
X181461386Y-110653783D01*
X181419244Y-110626114D01*
X181372000Y-110617000D01*
X173010606Y-110617000D01*
X172085000Y-109691394D01*
X172085000Y-108746202D01*
X187504326Y-108746202D01*
X187657777Y-108974357D01*
X188383726Y-109051236D01*
X188770223Y-108974357D01*
X188923674Y-108746202D01*
X188214000Y-108036528D01*
X187504326Y-108746202D01*
X172085000Y-108746202D01*
X172085000Y-107357726D01*
X186350764Y-107357726D01*
X186427643Y-107744223D01*
X186655798Y-107897674D01*
X187365472Y-107188000D01*
X189062528Y-107188000D01*
X189772202Y-107897674D01*
X190000357Y-107744223D01*
X190077236Y-107018274D01*
X190000357Y-106631777D01*
X189772202Y-106478326D01*
X189062528Y-107188000D01*
X187365472Y-107188000D01*
X186655798Y-106478326D01*
X186427643Y-106631777D01*
X186350764Y-107357726D01*
X172085000Y-107357726D01*
X172085000Y-105629798D01*
X187504326Y-105629798D01*
X188214000Y-106339472D01*
X188923674Y-105629798D01*
X188770223Y-105401643D01*
X188044274Y-105324764D01*
X187657777Y-105401643D01*
X187504326Y-105629798D01*
X172085000Y-105629798D01*
X172085000Y-100922091D01*
X185317346Y-100922091D01*
X185556295Y-101169847D01*
X186503172Y-101230422D01*
X186807705Y-101169847D01*
X187046654Y-100922091D01*
X186182000Y-100057437D01*
X185317346Y-100922091D01*
X172085000Y-100922091D01*
X172085000Y-99141172D01*
X183771578Y-99141172D01*
X183832153Y-99445705D01*
X184079909Y-99684654D01*
X184944563Y-98820000D01*
X187419437Y-98820000D01*
X188284091Y-99684654D01*
X188531847Y-99445705D01*
X188592422Y-98498828D01*
X188531847Y-98194295D01*
X188284091Y-97955346D01*
X187419437Y-98820000D01*
X184944563Y-98820000D01*
X184079909Y-97955346D01*
X183832153Y-98194295D01*
X183771578Y-99141172D01*
X172085000Y-99141172D01*
X172085000Y-97064606D01*
X172431697Y-96717909D01*
X185317346Y-96717909D01*
X186182000Y-97582563D01*
X187046654Y-96717909D01*
X186807705Y-96470153D01*
X185860828Y-96409578D01*
X185556295Y-96470153D01*
X185317346Y-96717909D01*
X172431697Y-96717909D01*
X173010606Y-96139000D01*
X178562000Y-96139000D01*
X178611410Y-96128994D01*
X178651803Y-96101803D01*
X179122606Y-95631000D01*
X181372000Y-95631000D01*
X181421410Y-95620994D01*
X181461803Y-95593803D01*
X182461803Y-94593803D01*
X182489666Y-94551789D01*
X182493998Y-94529608D01*
X183424606Y-93599000D01*
X189955394Y-93599000D01*
X190298000Y-93941606D01*
G36*
X126608000Y-50873562D02*
X126608000Y-50474998D01*
X125973000Y-50474998D01*
X125973000Y-51508562D01*
X125168562Y-52313000D01*
X124134998Y-52313000D01*
X124134998Y-52948000D01*
X124533562Y-52948000D01*
X124419382Y-53062180D01*
X124226671Y-53350592D01*
X124159000Y-53690798D01*
X124159000Y-56967719D01*
X123936000Y-56922560D01*
X123825000Y-56922560D01*
X123825000Y-54486368D01*
X123962733Y-54154670D01*
X123963265Y-53544009D01*
X123730068Y-52979629D01*
X123298643Y-52547449D01*
X122734670Y-52313267D01*
X122124009Y-52312735D01*
X121559629Y-52545932D01*
X121423000Y-52682322D01*
X121423000Y-50474998D01*
X120788000Y-50474998D01*
X120788000Y-52313000D01*
X120496750Y-52313000D01*
X120338000Y-52471750D01*
X120338000Y-53398000D01*
X120788000Y-53398000D01*
X120788000Y-54298000D01*
X120338000Y-54298000D01*
X120338000Y-55224250D01*
X120496750Y-55383000D01*
X120788000Y-55383000D01*
X120788000Y-57221002D01*
X121405920Y-57221002D01*
X121339569Y-57318110D01*
X121288560Y-57570000D01*
X121288560Y-59270000D01*
X121332838Y-59505317D01*
X121471910Y-59721441D01*
X121684110Y-59866431D01*
X121936000Y-59917440D01*
X123936000Y-59917440D01*
X124171317Y-59873162D01*
X124387441Y-59734090D01*
X124532431Y-59521890D01*
X124583440Y-59270000D01*
X124583440Y-57854676D01*
X124908560Y-58179796D01*
X124908560Y-59270000D01*
X124952838Y-59505317D01*
X125091910Y-59721441D01*
X125304110Y-59866431D01*
X125556000Y-59917440D01*
X127556000Y-59917440D01*
X127791317Y-59873162D01*
X128007441Y-59734090D01*
X128152431Y-59521890D01*
X128203440Y-59270000D01*
X128203440Y-57570000D01*
X128159162Y-57334683D01*
X128020090Y-57118559D01*
X127807890Y-56973569D01*
X127556000Y-56922560D01*
X126608000Y-56922560D01*
X126608000Y-55383000D01*
X126899250Y-55383000D01*
X127058000Y-55224250D01*
X127058000Y-54298000D01*
X126608000Y-54298000D01*
X126608000Y-53398000D01*
X127058000Y-53398000D01*
X127058000Y-52948000D01*
X127958000Y-52948000D01*
X127958000Y-53398000D01*
X128408000Y-53398000D01*
X128408000Y-54298000D01*
X127958000Y-54298000D01*
X127958000Y-55224250D01*
X128116750Y-55383000D01*
X128408000Y-55383000D01*
X128408000Y-57221002D01*
X129025920Y-57221002D01*
X128959569Y-57318110D01*
X128908560Y-57570000D01*
X128908560Y-59270000D01*
X128952838Y-59505317D01*
X129091910Y-59721441D01*
X129304110Y-59866431D01*
X129556000Y-59917440D01*
X131556000Y-59917440D01*
X131791317Y-59873162D01*
X132007441Y-59734090D01*
X132152431Y-59521890D01*
X132203440Y-59270000D01*
X132203440Y-57570000D01*
X132159162Y-57334683D01*
X132020090Y-57118559D01*
X131807890Y-56973569D01*
X131556000Y-56922560D01*
X131445000Y-56922560D01*
X131445000Y-54486368D01*
X131582733Y-54154670D01*
X131583265Y-53544009D01*
X131350068Y-52979629D01*
X130918643Y-52547449D01*
X130881002Y-52531819D01*
X130881002Y-52313000D01*
X130048192Y-52313000D01*
X129744009Y-52312735D01*
X129743368Y-52313000D01*
X129043000Y-52313000D01*
X129043000Y-50953034D01*
X129323034Y-50673000D01*
X133593000Y-50673000D01*
X133593000Y-51508562D01*
X133145381Y-51956181D01*
X132952670Y-52244593D01*
X132939063Y-52313000D01*
X131754998Y-52313000D01*
X131754998Y-52948000D01*
X132884999Y-52948000D01*
X132884999Y-56151999D01*
X132952670Y-56492205D01*
X133106077Y-56721794D01*
X133145381Y-56780617D01*
X133377443Y-57012679D01*
X133232559Y-57105910D01*
X133087569Y-57318110D01*
X133036560Y-57570000D01*
X133036560Y-59270000D01*
X133080838Y-59505317D01*
X133219910Y-59721441D01*
X133432110Y-59866431D01*
X133684000Y-59917440D01*
X135684000Y-59917440D01*
X135919317Y-59873162D01*
X136135441Y-59734090D01*
X136280431Y-59521890D01*
X136331440Y-59270000D01*
X136331440Y-57570000D01*
X136287162Y-57334683D01*
X136214010Y-57221002D01*
X136663000Y-57221002D01*
X136663000Y-55013959D01*
X136797357Y-55148551D01*
X137361330Y-55382733D01*
X137795000Y-55383111D01*
X137795000Y-56922560D01*
X137684000Y-56922560D01*
X137448683Y-56966838D01*
X137232559Y-57105910D01*
X137087569Y-57318110D01*
X137036560Y-57570000D01*
X137036560Y-59270000D01*
X137080838Y-59505317D01*
X137219910Y-59721441D01*
X137432110Y-59866431D01*
X137684000Y-59917440D01*
X139684000Y-59917440D01*
X139919317Y-59873162D01*
X140135441Y-59734090D01*
X140280431Y-59521890D01*
X140331440Y-59270000D01*
X140331440Y-57570000D01*
X140287162Y-57334683D01*
X140148090Y-57118559D01*
X139935890Y-56973569D01*
X139684000Y-56922560D01*
X139573000Y-56922560D01*
X139573000Y-54864000D01*
X139505329Y-54523794D01*
X139460532Y-54456750D01*
X141213000Y-54456750D01*
X141213000Y-54874310D01*
X141309673Y-55107699D01*
X141488302Y-55286327D01*
X141721691Y-55383000D01*
X142139250Y-55383000D01*
X142298000Y-55224250D01*
X142298000Y-54298000D01*
X141371750Y-54298000D01*
X141213000Y-54456750D01*
X139460532Y-54456750D01*
X139312618Y-54235382D01*
X139202758Y-54125522D01*
X139203265Y-53544009D01*
X138970068Y-52979629D01*
X138812405Y-52821690D01*
X141213000Y-52821690D01*
X141213000Y-53239250D01*
X141371750Y-53398000D01*
X142298000Y-53398000D01*
X142298000Y-52471750D01*
X142139250Y-52313000D01*
X141721691Y-52313000D01*
X141488302Y-52409673D01*
X141309673Y-52588301D01*
X141213000Y-52821690D01*
X138812405Y-52821690D01*
X138538643Y-52547449D01*
X138501002Y-52531819D01*
X138501002Y-52313000D01*
X137668192Y-52313000D01*
X137364009Y-52312735D01*
X137363368Y-52313000D01*
X136663000Y-52313000D01*
X136663000Y-50953034D01*
X136943034Y-50673000D01*
X143648000Y-50673000D01*
X143648000Y-52313000D01*
X143356750Y-52313000D01*
X143198000Y-52471750D01*
X143198000Y-53398000D01*
X143648000Y-53398000D01*
X143648000Y-54298000D01*
X143198000Y-54298000D01*
X143198000Y-55224250D01*
X143356750Y-55383000D01*
X143648000Y-55383000D01*
X143648000Y-57058370D01*
X143523890Y-56973569D01*
X143272000Y-56922560D01*
X141272000Y-56922560D01*
X141036683Y-56966838D01*
X140820559Y-57105910D01*
X140675569Y-57318110D01*
X140624560Y-57570000D01*
X140624560Y-59270000D01*
X140668838Y-59505317D01*
X140807910Y-59721441D01*
X141020110Y-59866431D01*
X141272000Y-59917440D01*
X141410736Y-59917440D01*
X141450671Y-60118206D01*
X141643382Y-60406618D01*
X143362829Y-62126065D01*
X143651241Y-62318776D01*
X143991447Y-62386447D01*
X144890317Y-62386447D01*
X144665764Y-62611000D01*
X142240000Y-62611000D01*
X141899795Y-62678670D01*
X141611382Y-62871382D01*
X139224611Y-65258153D01*
X139189168Y-65222649D01*
X139077528Y-65176292D01*
X139058618Y-65157382D01*
X138942327Y-65079679D01*
X138770206Y-64964671D01*
X138430000Y-64897000D01*
X132588000Y-64897000D01*
X132247794Y-64964671D01*
X132075673Y-65079679D01*
X131959382Y-65157382D01*
X129933764Y-67183000D01*
X128638236Y-67183000D01*
X126612618Y-65157382D01*
X126496327Y-65079679D01*
X126324206Y-64964671D01*
X125984000Y-64897000D01*
X111506000Y-64897000D01*
X111165794Y-64964671D01*
X110877382Y-65157382D01*
X110684671Y-65445794D01*
X110617000Y-65786000D01*
X110617000Y-68306560D01*
X110384000Y-68306560D01*
X110148683Y-68350838D01*
X109932559Y-68489910D01*
X109787569Y-68702110D01*
X109736560Y-68954000D01*
X109736560Y-69254000D01*
X109756067Y-69357671D01*
X109736560Y-69454000D01*
X109736560Y-69754000D01*
X109748791Y-69819000D01*
X107710998Y-69819000D01*
X107710998Y-70454000D01*
X109774193Y-70454000D01*
X109780838Y-70489317D01*
X109854620Y-70603978D01*
X109787569Y-70702110D01*
X109777061Y-70754000D01*
X107710998Y-70754000D01*
X107710998Y-71389000D01*
X109761962Y-71389000D01*
X109780838Y-71489317D01*
X109919910Y-71705441D01*
X110132110Y-71850431D01*
X110384000Y-71901440D01*
X111784000Y-71901440D01*
X111784000Y-73977002D01*
X112419000Y-73977002D01*
X112419000Y-71988512D01*
X112522000Y-72009000D01*
X112862206Y-71941329D01*
X113110871Y-71775176D01*
X113110838Y-71813167D01*
X113252883Y-72156943D01*
X113515673Y-72420192D01*
X113859201Y-72562838D01*
X114149000Y-72563090D01*
X114149000Y-72977002D01*
X114741762Y-72977002D01*
X114687382Y-73031382D01*
X114494671Y-73319794D01*
X114427000Y-73660000D01*
X114427000Y-74498560D01*
X114284000Y-74498560D01*
X114048683Y-74542838D01*
X113832559Y-74681910D01*
X113687569Y-74894110D01*
X113636560Y-75146000D01*
X113636560Y-76746000D01*
X113680838Y-76981317D01*
X113819910Y-77197441D01*
X114032110Y-77342431D01*
X114284000Y-77393440D01*
X116284000Y-77393440D01*
X116519317Y-77349162D01*
X116735441Y-77210090D01*
X116880431Y-76997890D01*
X116931440Y-76746000D01*
X116931440Y-75146000D01*
X116887162Y-74910683D01*
X116748090Y-74694559D01*
X116535890Y-74549569D01*
X116284000Y-74498560D01*
X116205000Y-74498560D01*
X116205000Y-74028236D01*
X116700236Y-73533000D01*
X128683000Y-73533000D01*
X128683000Y-74498560D01*
X128572000Y-74498560D01*
X128336683Y-74542838D01*
X128120559Y-74681910D01*
X127975569Y-74894110D01*
X127924560Y-75146000D01*
X127924560Y-76746000D01*
X127968838Y-76981317D01*
X128107910Y-77197441D01*
X128320110Y-77342431D01*
X128572000Y-77393440D01*
X130572000Y-77393440D01*
X130807317Y-77349162D01*
X131023441Y-77210090D01*
X131168431Y-76997890D01*
X131219440Y-76746000D01*
X131219440Y-76504750D01*
X131937000Y-76504750D01*
X131937000Y-76872310D01*
X132033673Y-77105699D01*
X132212302Y-77284327D01*
X132445691Y-77381000D01*
X132913250Y-77381000D01*
X133072000Y-77222250D01*
X133072000Y-76346000D01*
X134072000Y-76346000D01*
X134072000Y-77222250D01*
X134230750Y-77381000D01*
X134698309Y-77381000D01*
X134931698Y-77284327D01*
X135110327Y-77105699D01*
X135207000Y-76872310D01*
X135207000Y-76504750D01*
X135048250Y-76346000D01*
X134072000Y-76346000D01*
X133072000Y-76346000D01*
X132095750Y-76346000D01*
X131937000Y-76504750D01*
X131219440Y-76504750D01*
X131219440Y-75146000D01*
X131195674Y-75019690D01*
X131937000Y-75019690D01*
X131937000Y-75387250D01*
X132095750Y-75546000D01*
X133072000Y-75546000D01*
X133072000Y-74669750D01*
X134072000Y-74669750D01*
X134072000Y-75546000D01*
X135048250Y-75546000D01*
X135207000Y-75387250D01*
X135207000Y-75019690D01*
X135110327Y-74786301D01*
X134931698Y-74607673D01*
X134698309Y-74511000D01*
X134230750Y-74511000D01*
X134072000Y-74669750D01*
X133072000Y-74669750D01*
X132913250Y-74511000D01*
X132445691Y-74511000D01*
X132212302Y-74607673D01*
X132033673Y-74786301D01*
X131937000Y-75019690D01*
X131195674Y-75019690D01*
X131175162Y-74910683D01*
X131036090Y-74694559D01*
X130823890Y-74549569D01*
X130572000Y-74498560D01*
X130461000Y-74498560D01*
X130461000Y-73533000D01*
X131572000Y-73533000D01*
X131912206Y-73465329D01*
X132200618Y-73272618D01*
X132393329Y-72984206D01*
X132437000Y-72764656D01*
X132437000Y-72977002D01*
X133072000Y-72977002D01*
X133072000Y-71901440D01*
X134472000Y-71901440D01*
X134472000Y-72977002D01*
X135107000Y-72977002D01*
X135107000Y-71992005D01*
X135112000Y-71993000D01*
X135251764Y-71993000D01*
X136277382Y-73018618D01*
X136565795Y-73211330D01*
X136906000Y-73279000D01*
X137954817Y-73279000D01*
X138065207Y-73324838D01*
X138437173Y-73325162D01*
X138780949Y-73183117D01*
X139044198Y-72920327D01*
X139186844Y-72576799D01*
X139187168Y-72204833D01*
X139045123Y-71861057D01*
X138782333Y-71597808D01*
X138438805Y-71455162D01*
X138094930Y-71454862D01*
X138095162Y-71188833D01*
X137953117Y-70845057D01*
X137690327Y-70581808D01*
X137618911Y-70552154D01*
X137145002Y-70019006D01*
X137145002Y-69754000D01*
X136909442Y-69754000D01*
X136808447Y-69640381D01*
X136562154Y-69454000D01*
X137145002Y-69454000D01*
X137145002Y-68819000D01*
X135107000Y-68819000D01*
X135107000Y-68707000D01*
X137922000Y-68707000D01*
X138262206Y-68639329D01*
X138381742Y-68559458D01*
X138398883Y-68600943D01*
X138661673Y-68864192D01*
X138773313Y-68910549D01*
X139325382Y-69462618D01*
X139613794Y-69655329D01*
X139954000Y-69723000D01*
X144411764Y-69723000D01*
X144703238Y-70014474D01*
X144748883Y-70124943D01*
X144780000Y-70156114D01*
X144780000Y-71088000D01*
X144838004Y-71379605D01*
X144964334Y-71568671D01*
X145003185Y-71626815D01*
X145019184Y-71642815D01*
X145187081Y-71755000D01*
X145266395Y-71807996D01*
X145558000Y-71866000D01*
X146530992Y-71866000D01*
X146706000Y-71901440D01*
X147947000Y-71901440D01*
X147947000Y-74315764D01*
X147764204Y-74498560D01*
X146606000Y-74498560D01*
X146370683Y-74542838D01*
X146154559Y-74681910D01*
X146009569Y-74894110D01*
X145958560Y-75146000D01*
X145958560Y-76746000D01*
X146002838Y-76981317D01*
X146141910Y-77197441D01*
X146354110Y-77342431D01*
X146606000Y-77393440D01*
X148606000Y-77393440D01*
X148841317Y-77349162D01*
X149057441Y-77210090D01*
X149202431Y-76997890D01*
X149253440Y-76746000D01*
X149253440Y-76504750D01*
X149971000Y-76504750D01*
X149971000Y-76872310D01*
X150067673Y-77105699D01*
X150246302Y-77284327D01*
X150479691Y-77381000D01*
X150947250Y-77381000D01*
X151106000Y-77222250D01*
X151106000Y-76346000D01*
X152106000Y-76346000D01*
X152106000Y-77222250D01*
X152264750Y-77381000D01*
X152732309Y-77381000D01*
X152965698Y-77284327D01*
X153144327Y-77105699D01*
X153241000Y-76872310D01*
X153241000Y-76504750D01*
X153082250Y-76346000D01*
X152106000Y-76346000D01*
X151106000Y-76346000D01*
X150129750Y-76346000D01*
X149971000Y-76504750D01*
X149253440Y-76504750D01*
X149253440Y-75523796D01*
X149464618Y-75312618D01*
X149657330Y-75024205D01*
X149658228Y-75019690D01*
X149971000Y-75019690D01*
X149971000Y-75387250D01*
X150129750Y-75546000D01*
X151106000Y-75546000D01*
X151106000Y-74669750D01*
X152106000Y-74669750D01*
X152106000Y-75546000D01*
X153082250Y-75546000D01*
X153241000Y-75387250D01*
X153241000Y-75019690D01*
X153144327Y-74786301D01*
X152965698Y-74607673D01*
X152732309Y-74511000D01*
X152264750Y-74511000D01*
X152106000Y-74669750D01*
X151106000Y-74669750D01*
X150947250Y-74511000D01*
X150479691Y-74511000D01*
X150246302Y-74607673D01*
X150067673Y-74786301D01*
X149971000Y-75019690D01*
X149658228Y-75019690D01*
X149725000Y-74684000D01*
X149725000Y-70389000D01*
X150471000Y-70389000D01*
X150471000Y-70392569D01*
X150458560Y-70454000D01*
X150458560Y-70754000D01*
X150471000Y-70820113D01*
X150471000Y-70892569D01*
X150458560Y-70954000D01*
X150458560Y-71254000D01*
X150471000Y-71320113D01*
X150471000Y-72977002D01*
X151106000Y-72977002D01*
X151106000Y-72926072D01*
X151361673Y-73182192D01*
X151705201Y-73324838D01*
X152077167Y-73325162D01*
X152420943Y-73183117D01*
X152627418Y-72977002D01*
X153141000Y-72977002D01*
X153141000Y-71315431D01*
X153153440Y-71254000D01*
X153153440Y-70954000D01*
X153141000Y-70887886D01*
X153141000Y-70866000D01*
X154444764Y-70866000D01*
X154646814Y-71068050D01*
X154781883Y-71394943D01*
X155044673Y-71658192D01*
X155388201Y-71800838D01*
X155760167Y-71801162D01*
X156103943Y-71659117D01*
X156367192Y-71396327D01*
X156509838Y-71052799D01*
X156510162Y-70680833D01*
X156398840Y-70411411D01*
X156396330Y-70398795D01*
X156389245Y-70388192D01*
X156368117Y-70337057D01*
X156328682Y-70297554D01*
X156203618Y-70110382D01*
X155568618Y-69475382D01*
X155280205Y-69282671D01*
X155179002Y-69262540D01*
X155179002Y-68819000D01*
X153141000Y-68819000D01*
X153141000Y-66230998D01*
X152506000Y-66230998D01*
X152506000Y-68306560D01*
X151106000Y-68306560D01*
X151106000Y-66230998D01*
X150471000Y-66230998D01*
X150471000Y-68342000D01*
X149733000Y-68342000D01*
X149733000Y-68072000D01*
X149665329Y-67731794D01*
X149472618Y-67443382D01*
X148259327Y-66230091D01*
X172817346Y-66230091D01*
X173056295Y-66477847D01*
X174003172Y-66538422D01*
X174307705Y-66477847D01*
X174546654Y-66230091D01*
X173682000Y-65365437D01*
X172817346Y-66230091D01*
X148259327Y-66230091D01*
X146475917Y-64446681D01*
X146613351Y-64309486D01*
X146659708Y-64197846D01*
X146939000Y-63918554D01*
X146939000Y-63964811D01*
X146893162Y-64075201D01*
X146892838Y-64447167D01*
X147034883Y-64790943D01*
X147297673Y-65054192D01*
X147641201Y-65196838D01*
X148013167Y-65197162D01*
X148356943Y-65055117D01*
X148620192Y-64792327D01*
X148762683Y-64449172D01*
X171271578Y-64449172D01*
X171332153Y-64753705D01*
X171579909Y-64992654D01*
X172444563Y-64128000D01*
X174919437Y-64128000D01*
X175784091Y-64992654D01*
X176031847Y-64753705D01*
X176092422Y-63806828D01*
X176031847Y-63502295D01*
X175784091Y-63263346D01*
X174919437Y-64128000D01*
X172444563Y-64128000D01*
X171579909Y-63263346D01*
X171332153Y-63502295D01*
X171271578Y-64449172D01*
X148762683Y-64449172D01*
X148762838Y-64448799D01*
X148763162Y-64076833D01*
X148717000Y-63965112D01*
X148717000Y-62344236D01*
X149035327Y-62025909D01*
X172817346Y-62025909D01*
X173682000Y-62890563D01*
X174546654Y-62025909D01*
X174307705Y-61778153D01*
X173360828Y-61717578D01*
X173056295Y-61778153D01*
X172817346Y-62025909D01*
X149035327Y-62025909D01*
X149881546Y-61179691D01*
X149939211Y-61237356D01*
X150554420Y-60622147D01*
X152305570Y-60622147D01*
X152400938Y-60836124D01*
X152975340Y-60923589D01*
X153415062Y-60836124D01*
X153510430Y-60622147D01*
X152908000Y-60019717D01*
X152305570Y-60622147D01*
X150554420Y-60622147D01*
X151462355Y-59714212D01*
X151507876Y-59943062D01*
X151721853Y-60038430D01*
X152324283Y-59436000D01*
X153491717Y-59436000D01*
X154094147Y-60038430D01*
X154308124Y-59943062D01*
X154395589Y-59368660D01*
X154308124Y-58928938D01*
X154094147Y-58833570D01*
X153491717Y-59436000D01*
X152324283Y-59436000D01*
X152032425Y-59144142D01*
X152616142Y-58560425D01*
X152908000Y-58852283D01*
X153510430Y-58249853D01*
X153501958Y-58230845D01*
X153734226Y-58134874D01*
X154145430Y-57724387D01*
X154368246Y-57187786D01*
X154368577Y-56807990D01*
X154709356Y-56467211D01*
X154241870Y-55999725D01*
X154154168Y-56087427D01*
X154146874Y-56069774D01*
X153736387Y-55658570D01*
X153658421Y-55626196D01*
X153734226Y-55594874D01*
X154145430Y-55184387D01*
X154368246Y-54647786D01*
X154368753Y-54066763D01*
X154146874Y-53529774D01*
X153736387Y-53118570D01*
X153658421Y-53086196D01*
X153734226Y-53054874D01*
X154145430Y-52644387D01*
X154368246Y-52107786D01*
X154368567Y-51739803D01*
X155067000Y-52438236D01*
X155067000Y-53413922D01*
X155134671Y-53754128D01*
X155282253Y-53975000D01*
X155327382Y-54042540D01*
X158653461Y-57368619D01*
X158941873Y-57561330D01*
X159282079Y-57629001D01*
X164239999Y-57629001D01*
X164580205Y-57561330D01*
X164868617Y-57368619D01*
X168262236Y-53975000D01*
X178181000Y-53975000D01*
X178181000Y-94451394D01*
X177255394Y-95377000D01*
X171688000Y-95377000D01*
X171638590Y-95387006D01*
X171598197Y-95414197D01*
X170598197Y-96414197D01*
X170570334Y-96456211D01*
X170561000Y-96504000D01*
X170561000Y-110506000D01*
X170571006Y-110555410D01*
X170598197Y-110595803D01*
X171598197Y-111595803D01*
X171640211Y-111623666D01*
X171688000Y-111633000D01*
X177255394Y-111633000D01*
X178181000Y-112558606D01*
X178181000Y-137123394D01*
X177838394Y-137466000D01*
X96843931Y-137466000D01*
X95106997Y-137120502D01*
X93693779Y-136176221D01*
X93379649Y-135706091D01*
X101229346Y-135706091D01*
X101468295Y-135953847D01*
X102415172Y-136014422D01*
X102719705Y-135953847D01*
X102958654Y-135706091D01*
X116229346Y-135706091D01*
X116468295Y-135953847D01*
X117415172Y-136014422D01*
X117719705Y-135953847D01*
X117958654Y-135706091D01*
X117094000Y-134841437D01*
X116229346Y-135706091D01*
X102958654Y-135706091D01*
X102094000Y-134841437D01*
X101229346Y-135706091D01*
X93379649Y-135706091D01*
X92749498Y-134763005D01*
X92582843Y-133925172D01*
X99683578Y-133925172D01*
X99744153Y-134229705D01*
X99991909Y-134468654D01*
X100856563Y-133604000D01*
X103331437Y-133604000D01*
X104196091Y-134468654D01*
X104443847Y-134229705D01*
X104463329Y-133925172D01*
X114683578Y-133925172D01*
X114744153Y-134229705D01*
X114991909Y-134468654D01*
X115856563Y-133604000D01*
X118331437Y-133604000D01*
X119196091Y-134468654D01*
X119443847Y-134229705D01*
X119453659Y-134076325D01*
X141378587Y-134076325D01*
X141740916Y-134953229D01*
X142411242Y-135624726D01*
X143287513Y-135988585D01*
X144236325Y-135989413D01*
X145113229Y-135627084D01*
X145784726Y-134956758D01*
X146148585Y-134080487D01*
X146149413Y-133131675D01*
X145818781Y-132331482D01*
X157200336Y-132331482D01*
X157782950Y-133741515D01*
X158860811Y-134821259D01*
X160269825Y-135406333D01*
X161795482Y-135407664D01*
X163205515Y-134825050D01*
X164285259Y-133747189D01*
X164870333Y-132338175D01*
X164871664Y-130812518D01*
X164289050Y-129402485D01*
X163211189Y-128322741D01*
X161802175Y-127737667D01*
X160276518Y-127736336D01*
X158866485Y-128318950D01*
X157786741Y-129396811D01*
X157201667Y-130805825D01*
X157200336Y-132331482D01*
X145818781Y-132331482D01*
X145787084Y-132254771D01*
X145116758Y-131583274D01*
X144240487Y-131219415D01*
X143291675Y-131218587D01*
X142414771Y-131580916D01*
X141743274Y-132251242D01*
X141379415Y-133127513D01*
X141378587Y-134076325D01*
X119453659Y-134076325D01*
X119504422Y-133282828D01*
X119443847Y-132978295D01*
X119196091Y-132739346D01*
X118331437Y-133604000D01*
X115856563Y-133604000D01*
X114991909Y-132739346D01*
X114744153Y-132978295D01*
X114683578Y-133925172D01*
X104463329Y-133925172D01*
X104504422Y-133282828D01*
X104443847Y-132978295D01*
X104196091Y-132739346D01*
X103331437Y-133604000D01*
X100856563Y-133604000D01*
X99991909Y-132739346D01*
X99744153Y-132978295D01*
X99683578Y-133925172D01*
X92582843Y-133925172D01*
X92404000Y-133026069D01*
X92404000Y-131501909D01*
X101229346Y-131501909D01*
X102094000Y-132366563D01*
X102958654Y-131501909D01*
X116229346Y-131501909D01*
X117094000Y-132366563D01*
X117958654Y-131501909D01*
X117719705Y-131254153D01*
X116772828Y-131193578D01*
X116468295Y-131254153D01*
X116229346Y-131501909D01*
X102958654Y-131501909D01*
X102719705Y-131254153D01*
X101772828Y-131193578D01*
X101468295Y-131254153D01*
X101229346Y-131501909D01*
X92404000Y-131501909D01*
X92404000Y-125172091D01*
X172817346Y-125172091D01*
X173056295Y-125419847D01*
X174003172Y-125480422D01*
X174307705Y-125419847D01*
X174546654Y-125172091D01*
X173682000Y-124307437D01*
X172817346Y-125172091D01*
X92404000Y-125172091D01*
X92404000Y-107439482D01*
X92938336Y-107439482D01*
X93520950Y-108849515D01*
X94598811Y-109929259D01*
X96007825Y-110514333D01*
X97533482Y-110515664D01*
X98943515Y-109933050D01*
X100023259Y-108855189D01*
X100608333Y-107446175D01*
X100609664Y-105920518D01*
X100027050Y-104510485D01*
X98949189Y-103430741D01*
X97540175Y-102845667D01*
X96014518Y-102844336D01*
X94604485Y-103426950D01*
X93524741Y-104504811D01*
X92939667Y-105913825D01*
X92938336Y-107439482D01*
X92404000Y-107439482D01*
X92404000Y-91424000D01*
X104775000Y-91424000D01*
X104775000Y-122698000D01*
X104785006Y-122747410D01*
X104812197Y-122787803D01*
X105812197Y-123787803D01*
X105854211Y-123815666D01*
X105902000Y-123825000D01*
X112792000Y-123825000D01*
X112841410Y-123814994D01*
X112881803Y-123787803D01*
X113881803Y-122787803D01*
X113909666Y-122745789D01*
X113919000Y-122698000D01*
X113919000Y-121576325D01*
X122208587Y-121576325D01*
X122570916Y-122453229D01*
X123241242Y-123124726D01*
X124117513Y-123488585D01*
X125066325Y-123489413D01*
X125943229Y-123127084D01*
X126614726Y-122456758D01*
X126978585Y-121580487D01*
X126978588Y-121576325D01*
X148878587Y-121576325D01*
X149240916Y-122453229D01*
X149911242Y-123124726D01*
X150787513Y-123488585D01*
X151736325Y-123489413D01*
X151974086Y-123391172D01*
X171271578Y-123391172D01*
X171332153Y-123695705D01*
X171579909Y-123934654D01*
X172444563Y-123070000D01*
X174919437Y-123070000D01*
X175784091Y-123934654D01*
X176031847Y-123695705D01*
X176092422Y-122748828D01*
X176031847Y-122444295D01*
X175784091Y-122205346D01*
X174919437Y-123070000D01*
X172444563Y-123070000D01*
X171579909Y-122205346D01*
X171332153Y-122444295D01*
X171271578Y-123391172D01*
X151974086Y-123391172D01*
X152613229Y-123127084D01*
X153284726Y-122456758D01*
X153648585Y-121580487D01*
X153649119Y-120967909D01*
X172817346Y-120967909D01*
X173682000Y-121832563D01*
X174546654Y-120967909D01*
X174307705Y-120720153D01*
X173360828Y-120659578D01*
X173056295Y-120720153D01*
X172817346Y-120967909D01*
X153649119Y-120967909D01*
X153649413Y-120631675D01*
X153287084Y-119754771D01*
X152616758Y-119083274D01*
X151740487Y-118719415D01*
X150791675Y-118718587D01*
X149914771Y-119080916D01*
X149243274Y-119751242D01*
X148879415Y-120627513D01*
X148878587Y-121576325D01*
X126978588Y-121576325D01*
X126979413Y-120631675D01*
X126617084Y-119754771D01*
X125946758Y-119083274D01*
X125070487Y-118719415D01*
X124121675Y-118718587D01*
X123244771Y-119080916D01*
X122573274Y-119751242D01*
X122209415Y-120627513D01*
X122208587Y-121576325D01*
X113919000Y-121576325D01*
X113919000Y-112558606D01*
X114844606Y-111633000D01*
X147844000Y-111633000D01*
X147893410Y-111622994D01*
X147933803Y-111595803D01*
X148933803Y-110595803D01*
X148961666Y-110553789D01*
X148971000Y-110506000D01*
X148971000Y-107188000D01*
X155863050Y-107188000D01*
X156002731Y-107890224D01*
X156400509Y-108485541D01*
X156995826Y-108883319D01*
X157698050Y-109023000D01*
X157769950Y-109023000D01*
X158472174Y-108883319D01*
X159067491Y-108485541D01*
X159465269Y-107890224D01*
X159604950Y-107188000D01*
X159465269Y-106485776D01*
X159067491Y-105890459D01*
X158472174Y-105492681D01*
X157769950Y-105353000D01*
X157698050Y-105353000D01*
X156995826Y-105492681D01*
X156400509Y-105890459D01*
X156002731Y-106485776D01*
X155863050Y-107188000D01*
X148971000Y-107188000D01*
X148971000Y-93422091D01*
X172817346Y-93422091D01*
X173056295Y-93669847D01*
X174003172Y-93730422D01*
X174307705Y-93669847D01*
X174546654Y-93422091D01*
X173682000Y-92557437D01*
X172817346Y-93422091D01*
X148971000Y-93422091D01*
X148971000Y-91641172D01*
X171271578Y-91641172D01*
X171332153Y-91945705D01*
X171579909Y-92184654D01*
X172444563Y-91320000D01*
X174919437Y-91320000D01*
X175784091Y-92184654D01*
X176031847Y-91945705D01*
X176092422Y-90998828D01*
X176031847Y-90694295D01*
X175784091Y-90455346D01*
X174919437Y-91320000D01*
X172444563Y-91320000D01*
X171579909Y-90455346D01*
X171332153Y-90694295D01*
X171271578Y-91641172D01*
X148971000Y-91641172D01*
X148971000Y-91424000D01*
X148960994Y-91374590D01*
X148933803Y-91334197D01*
X147933803Y-90334197D01*
X147891789Y-90306334D01*
X147844000Y-90297000D01*
X146431000Y-90297000D01*
X146431000Y-89217909D01*
X172817346Y-89217909D01*
X173682000Y-90082563D01*
X174546654Y-89217909D01*
X174307705Y-88970153D01*
X173360828Y-88909578D01*
X173056295Y-88970153D01*
X172817346Y-89217909D01*
X146431000Y-89217909D01*
X146431000Y-89014236D01*
X147688236Y-87757000D01*
X150241000Y-87757000D01*
X150581206Y-87689329D01*
X150869618Y-87496618D01*
X156203618Y-82162618D01*
X156327465Y-81977268D01*
X156396329Y-81874206D01*
X156464000Y-81534000D01*
X156464000Y-78656189D01*
X156509838Y-78545799D01*
X156510162Y-78173833D01*
X156368117Y-77830057D01*
X156105327Y-77566808D01*
X155761799Y-77424162D01*
X155389833Y-77423838D01*
X155046057Y-77565883D01*
X154782808Y-77828673D01*
X154640162Y-78172201D01*
X154639838Y-78544167D01*
X154686000Y-78655888D01*
X154686000Y-81165764D01*
X149872764Y-85979000D01*
X147320000Y-85979000D01*
X146979794Y-86046671D01*
X146722969Y-86218276D01*
X146691382Y-86239382D01*
X144913382Y-88017382D01*
X144720671Y-88305794D01*
X144653000Y-88646000D01*
X144653000Y-90297000D01*
X134620000Y-90297000D01*
X134620000Y-87483976D01*
X138794353Y-83442718D01*
X138798523Y-83436690D01*
X138804618Y-83432618D01*
X138897048Y-83294288D01*
X138991711Y-83157465D01*
X138993257Y-83150300D01*
X138997329Y-83144206D01*
X139029787Y-82981028D01*
X139064883Y-82818400D01*
X139063570Y-82811190D01*
X139065000Y-82804000D01*
X139065000Y-75989189D01*
X139110838Y-75878799D01*
X139111162Y-75506833D01*
X138969117Y-75163057D01*
X138706327Y-74899808D01*
X138362799Y-74757162D01*
X137990833Y-74756838D01*
X137667629Y-74890383D01*
X137346799Y-74757162D01*
X136974833Y-74756838D01*
X136631057Y-74898883D01*
X136367808Y-75161673D01*
X136225162Y-75505201D01*
X136224838Y-75877167D01*
X136271000Y-75988888D01*
X136271000Y-81927764D01*
X128613526Y-89585238D01*
X128503057Y-89630883D01*
X128239808Y-89893673D01*
X128097162Y-90237201D01*
X128097110Y-90297000D01*
X105902000Y-90297000D01*
X105852590Y-90307006D01*
X105812197Y-90334197D01*
X104812197Y-91334197D01*
X104784334Y-91376211D01*
X104775000Y-91424000D01*
X92404000Y-91424000D01*
X92404000Y-76504750D01*
X109649000Y-76504750D01*
X109649000Y-76872310D01*
X109745673Y-77105699D01*
X109924302Y-77284327D01*
X110157691Y-77381000D01*
X110625250Y-77381000D01*
X110784000Y-77222250D01*
X110784000Y-76346000D01*
X111784000Y-76346000D01*
X111784000Y-77222250D01*
X111942750Y-77381000D01*
X112410309Y-77381000D01*
X112643698Y-77284327D01*
X112822327Y-77105699D01*
X112919000Y-76872310D01*
X112919000Y-76504750D01*
X112760250Y-76346000D01*
X111784000Y-76346000D01*
X110784000Y-76346000D01*
X109807750Y-76346000D01*
X109649000Y-76504750D01*
X92404000Y-76504750D01*
X92404000Y-75019690D01*
X109649000Y-75019690D01*
X109649000Y-75387250D01*
X109807750Y-75546000D01*
X110784000Y-75546000D01*
X110784000Y-74669750D01*
X111784000Y-74669750D01*
X111784000Y-75546000D01*
X112760250Y-75546000D01*
X112919000Y-75387250D01*
X112919000Y-75019690D01*
X112822327Y-74786301D01*
X112643698Y-74607673D01*
X112410309Y-74511000D01*
X111942750Y-74511000D01*
X111784000Y-74669750D01*
X110784000Y-74669750D01*
X110625250Y-74511000D01*
X110157691Y-74511000D01*
X109924302Y-74607673D01*
X109745673Y-74786301D01*
X109649000Y-75019690D01*
X92404000Y-75019690D01*
X92404000Y-66187125D01*
X102382587Y-66187125D01*
X102744916Y-67064029D01*
X103415242Y-67735526D01*
X104291513Y-68099385D01*
X105240325Y-68100213D01*
X106117229Y-67737884D01*
X106788726Y-67067558D01*
X107152585Y-66191287D01*
X107153413Y-65242475D01*
X106791084Y-64365571D01*
X106120758Y-63694074D01*
X105244487Y-63330215D01*
X104295675Y-63329387D01*
X103418771Y-63691716D01*
X102747274Y-64362042D01*
X102383415Y-65238313D01*
X102382587Y-66187125D01*
X92404000Y-66187125D01*
X92404000Y-58605167D01*
X113110838Y-58605167D01*
X113252883Y-58948943D01*
X113515673Y-59212192D01*
X113859201Y-59354838D01*
X114231167Y-59355162D01*
X114342888Y-59309000D01*
X117295898Y-59309000D01*
X117332838Y-59505317D01*
X117471910Y-59721441D01*
X117684110Y-59866431D01*
X117936000Y-59917440D01*
X119936000Y-59917440D01*
X120171317Y-59873162D01*
X120387441Y-59734090D01*
X120532431Y-59521890D01*
X120583440Y-59270000D01*
X120583440Y-57570000D01*
X120539162Y-57334683D01*
X120400090Y-57118559D01*
X120187890Y-56973569D01*
X119936000Y-56922560D01*
X117936000Y-56922560D01*
X117700683Y-56966838D01*
X117484559Y-57105910D01*
X117339569Y-57318110D01*
X117296458Y-57531000D01*
X114343189Y-57531000D01*
X114232799Y-57485162D01*
X113860833Y-57484838D01*
X113517057Y-57626883D01*
X113253808Y-57889673D01*
X113111162Y-58233201D01*
X113110838Y-58605167D01*
X92404000Y-58605167D01*
X92404000Y-54607482D01*
X92938336Y-54607482D01*
X93520950Y-56017515D01*
X94598811Y-57097259D01*
X96007825Y-57682333D01*
X97533482Y-57683664D01*
X98943515Y-57101050D01*
X100023259Y-56023189D01*
X100316539Y-55316891D01*
X111403346Y-55316891D01*
X111642295Y-55564647D01*
X112589172Y-55625222D01*
X112893705Y-55564647D01*
X113132654Y-55316891D01*
X112272513Y-54456750D01*
X118353000Y-54456750D01*
X118353000Y-54874310D01*
X118449673Y-55107699D01*
X118628302Y-55286327D01*
X118861691Y-55383000D01*
X119279250Y-55383000D01*
X119438000Y-55224250D01*
X119438000Y-54298000D01*
X118511750Y-54298000D01*
X118353000Y-54456750D01*
X112272513Y-54456750D01*
X112268000Y-54452237D01*
X111403346Y-55316891D01*
X100316539Y-55316891D01*
X100608333Y-54614175D01*
X100609273Y-53535972D01*
X109857578Y-53535972D01*
X109918153Y-53840505D01*
X110165909Y-54079454D01*
X111030563Y-53214800D01*
X113505437Y-53214800D01*
X114370091Y-54079454D01*
X114617847Y-53840505D01*
X114678422Y-52893628D01*
X114664113Y-52821690D01*
X118353000Y-52821690D01*
X118353000Y-53239250D01*
X118511750Y-53398000D01*
X119438000Y-53398000D01*
X119438000Y-52471750D01*
X119279250Y-52313000D01*
X118861691Y-52313000D01*
X118628302Y-52409673D01*
X118449673Y-52588301D01*
X118353000Y-52821690D01*
X114664113Y-52821690D01*
X114617847Y-52589095D01*
X114370091Y-52350146D01*
X113505437Y-53214800D01*
X111030563Y-53214800D01*
X110165909Y-52350146D01*
X109918153Y-52589095D01*
X109857578Y-53535972D01*
X100609273Y-53535972D01*
X100609664Y-53088518D01*
X100027050Y-51678485D01*
X99462261Y-51112709D01*
X111403346Y-51112709D01*
X112268000Y-51977363D01*
X113132654Y-51112709D01*
X112893705Y-50864953D01*
X111946828Y-50804378D01*
X111642295Y-50864953D01*
X111403346Y-51112709D01*
X99462261Y-51112709D01*
X98949189Y-50598741D01*
X97540175Y-50013667D01*
X96014518Y-50012336D01*
X94604485Y-50594950D01*
X93524741Y-51672811D01*
X92939667Y-53081825D01*
X92938336Y-54607482D01*
X92404000Y-54607482D01*
X92404000Y-53917931D01*
X92749498Y-52180995D01*
X93693779Y-50767779D01*
X95106997Y-49823498D01*
X96843931Y-49478000D01*
X128003562Y-49478000D01*
X126608000Y-50873562D01*
X126608000Y-50873562D01*
G37*
X126608000Y-50873562D02*
X126608000Y-50474998D01*
X125973000Y-50474998D01*
X125973000Y-51508562D01*
X125168562Y-52313000D01*
X124134998Y-52313000D01*
X124134998Y-52948000D01*
X124533562Y-52948000D01*
X124419382Y-53062180D01*
X124226671Y-53350592D01*
X124159000Y-53690798D01*
X124159000Y-56967719D01*
X123936000Y-56922560D01*
X123825000Y-56922560D01*
X123825000Y-54486368D01*
X123962733Y-54154670D01*
X123963265Y-53544009D01*
X123730068Y-52979629D01*
X123298643Y-52547449D01*
X122734670Y-52313267D01*
X122124009Y-52312735D01*
X121559629Y-52545932D01*
X121423000Y-52682322D01*
X121423000Y-50474998D01*
X120788000Y-50474998D01*
X120788000Y-52313000D01*
X120496750Y-52313000D01*
X120338000Y-52471750D01*
X120338000Y-53398000D01*
X120788000Y-53398000D01*
X120788000Y-54298000D01*
X120338000Y-54298000D01*
X120338000Y-55224250D01*
X120496750Y-55383000D01*
X120788000Y-55383000D01*
X120788000Y-57221002D01*
X121405920Y-57221002D01*
X121339569Y-57318110D01*
X121288560Y-57570000D01*
X121288560Y-59270000D01*
X121332838Y-59505317D01*
X121471910Y-59721441D01*
X121684110Y-59866431D01*
X121936000Y-59917440D01*
X123936000Y-59917440D01*
X124171317Y-59873162D01*
X124387441Y-59734090D01*
X124532431Y-59521890D01*
X124583440Y-59270000D01*
X124583440Y-57854676D01*
X124908560Y-58179796D01*
X124908560Y-59270000D01*
X124952838Y-59505317D01*
X125091910Y-59721441D01*
X125304110Y-59866431D01*
X125556000Y-59917440D01*
X127556000Y-59917440D01*
X127791317Y-59873162D01*
X128007441Y-59734090D01*
X128152431Y-59521890D01*
X128203440Y-59270000D01*
X128203440Y-57570000D01*
X128159162Y-57334683D01*
X128020090Y-57118559D01*
X127807890Y-56973569D01*
X127556000Y-56922560D01*
X126608000Y-56922560D01*
X126608000Y-55383000D01*
X126899250Y-55383000D01*
X127058000Y-55224250D01*
X127058000Y-54298000D01*
X126608000Y-54298000D01*
X126608000Y-53398000D01*
X127058000Y-53398000D01*
X127058000Y-52948000D01*
X127958000Y-52948000D01*
X127958000Y-53398000D01*
X128408000Y-53398000D01*
X128408000Y-54298000D01*
X127958000Y-54298000D01*
X127958000Y-55224250D01*
X128116750Y-55383000D01*
X128408000Y-55383000D01*
X128408000Y-57221002D01*
X129025920Y-57221002D01*
X128959569Y-57318110D01*
X128908560Y-57570000D01*
X128908560Y-59270000D01*
X128952838Y-59505317D01*
X129091910Y-59721441D01*
X129304110Y-59866431D01*
X129556000Y-59917440D01*
X131556000Y-59917440D01*
X131791317Y-59873162D01*
X132007441Y-59734090D01*
X132152431Y-59521890D01*
X132203440Y-59270000D01*
X132203440Y-57570000D01*
X132159162Y-57334683D01*
X132020090Y-57118559D01*
X131807890Y-56973569D01*
X131556000Y-56922560D01*
X131445000Y-56922560D01*
X131445000Y-54486368D01*
X131582733Y-54154670D01*
X131583265Y-53544009D01*
X131350068Y-52979629D01*
X130918643Y-52547449D01*
X130881002Y-52531819D01*
X130881002Y-52313000D01*
X130048192Y-52313000D01*
X129744009Y-52312735D01*
X129743368Y-52313000D01*
X129043000Y-52313000D01*
X129043000Y-50953034D01*
X129323034Y-50673000D01*
X133593000Y-50673000D01*
X133593000Y-51508562D01*
X133145381Y-51956181D01*
X132952670Y-52244593D01*
X132939063Y-52313000D01*
X131754998Y-52313000D01*
X131754998Y-52948000D01*
X132884999Y-52948000D01*
X132884999Y-56151999D01*
X132952670Y-56492205D01*
X133106077Y-56721794D01*
X133145381Y-56780617D01*
X133377443Y-57012679D01*
X133232559Y-57105910D01*
X133087569Y-57318110D01*
X133036560Y-57570000D01*
X133036560Y-59270000D01*
X133080838Y-59505317D01*
X133219910Y-59721441D01*
X133432110Y-59866431D01*
X133684000Y-59917440D01*
X135684000Y-59917440D01*
X135919317Y-59873162D01*
X136135441Y-59734090D01*
X136280431Y-59521890D01*
X136331440Y-59270000D01*
X136331440Y-57570000D01*
X136287162Y-57334683D01*
X136214010Y-57221002D01*
X136663000Y-57221002D01*
X136663000Y-55013959D01*
X136797357Y-55148551D01*
X137361330Y-55382733D01*
X137795000Y-55383111D01*
X137795000Y-56922560D01*
X137684000Y-56922560D01*
X137448683Y-56966838D01*
X137232559Y-57105910D01*
X137087569Y-57318110D01*
X137036560Y-57570000D01*
X137036560Y-59270000D01*
X137080838Y-59505317D01*
X137219910Y-59721441D01*
X137432110Y-59866431D01*
X137684000Y-59917440D01*
X139684000Y-59917440D01*
X139919317Y-59873162D01*
X140135441Y-59734090D01*
X140280431Y-59521890D01*
X140331440Y-59270000D01*
X140331440Y-57570000D01*
X140287162Y-57334683D01*
X140148090Y-57118559D01*
X139935890Y-56973569D01*
X139684000Y-56922560D01*
X139573000Y-56922560D01*
X139573000Y-54864000D01*
X139505329Y-54523794D01*
X139460532Y-54456750D01*
X141213000Y-54456750D01*
X141213000Y-54874310D01*
X141309673Y-55107699D01*
X141488302Y-55286327D01*
X141721691Y-55383000D01*
X142139250Y-55383000D01*
X142298000Y-55224250D01*
X142298000Y-54298000D01*
X141371750Y-54298000D01*
X141213000Y-54456750D01*
X139460532Y-54456750D01*
X139312618Y-54235382D01*
X139202758Y-54125522D01*
X139203265Y-53544009D01*
X138970068Y-52979629D01*
X138812405Y-52821690D01*
X141213000Y-52821690D01*
X141213000Y-53239250D01*
X141371750Y-53398000D01*
X142298000Y-53398000D01*
X142298000Y-52471750D01*
X142139250Y-52313000D01*
X141721691Y-52313000D01*
X141488302Y-52409673D01*
X141309673Y-52588301D01*
X141213000Y-52821690D01*
X138812405Y-52821690D01*
X138538643Y-52547449D01*
X138501002Y-52531819D01*
X138501002Y-52313000D01*
X137668192Y-52313000D01*
X137364009Y-52312735D01*
X137363368Y-52313000D01*
X136663000Y-52313000D01*
X136663000Y-50953034D01*
X136943034Y-50673000D01*
X143648000Y-50673000D01*
X143648000Y-52313000D01*
X143356750Y-52313000D01*
X143198000Y-52471750D01*
X143198000Y-53398000D01*
X143648000Y-53398000D01*
X143648000Y-54298000D01*
X143198000Y-54298000D01*
X143198000Y-55224250D01*
X143356750Y-55383000D01*
X143648000Y-55383000D01*
X143648000Y-57058370D01*
X143523890Y-56973569D01*
X143272000Y-56922560D01*
X141272000Y-56922560D01*
X141036683Y-56966838D01*
X140820559Y-57105910D01*
X140675569Y-57318110D01*
X140624560Y-57570000D01*
X140624560Y-59270000D01*
X140668838Y-59505317D01*
X140807910Y-59721441D01*
X141020110Y-59866431D01*
X141272000Y-59917440D01*
X141410736Y-59917440D01*
X141450671Y-60118206D01*
X141643382Y-60406618D01*
X143362829Y-62126065D01*
X143651241Y-62318776D01*
X143991447Y-62386447D01*
X144890317Y-62386447D01*
X144665764Y-62611000D01*
X142240000Y-62611000D01*
X141899795Y-62678670D01*
X141611382Y-62871382D01*
X139224611Y-65258153D01*
X139189168Y-65222649D01*
X139077528Y-65176292D01*
X139058618Y-65157382D01*
X138942327Y-65079679D01*
X138770206Y-64964671D01*
X138430000Y-64897000D01*
X132588000Y-64897000D01*
X132247794Y-64964671D01*
X132075673Y-65079679D01*
X131959382Y-65157382D01*
X129933764Y-67183000D01*
X128638236Y-67183000D01*
X126612618Y-65157382D01*
X126496327Y-65079679D01*
X126324206Y-64964671D01*
X125984000Y-64897000D01*
X111506000Y-64897000D01*
X111165794Y-64964671D01*
X110877382Y-65157382D01*
X110684671Y-65445794D01*
X110617000Y-65786000D01*
X110617000Y-68306560D01*
X110384000Y-68306560D01*
X110148683Y-68350838D01*
X109932559Y-68489910D01*
X109787569Y-68702110D01*
X109736560Y-68954000D01*
X109736560Y-69254000D01*
X109756067Y-69357671D01*
X109736560Y-69454000D01*
X109736560Y-69754000D01*
X109748791Y-69819000D01*
X107710998Y-69819000D01*
X107710998Y-70454000D01*
X109774193Y-70454000D01*
X109780838Y-70489317D01*
X109854620Y-70603978D01*
X109787569Y-70702110D01*
X109777061Y-70754000D01*
X107710998Y-70754000D01*
X107710998Y-71389000D01*
X109761962Y-71389000D01*
X109780838Y-71489317D01*
X109919910Y-71705441D01*
X110132110Y-71850431D01*
X110384000Y-71901440D01*
X111784000Y-71901440D01*
X111784000Y-73977002D01*
X112419000Y-73977002D01*
X112419000Y-71988512D01*
X112522000Y-72009000D01*
X112862206Y-71941329D01*
X113110871Y-71775176D01*
X113110838Y-71813167D01*
X113252883Y-72156943D01*
X113515673Y-72420192D01*
X113859201Y-72562838D01*
X114149000Y-72563090D01*
X114149000Y-72977002D01*
X114741762Y-72977002D01*
X114687382Y-73031382D01*
X114494671Y-73319794D01*
X114427000Y-73660000D01*
X114427000Y-74498560D01*
X114284000Y-74498560D01*
X114048683Y-74542838D01*
X113832559Y-74681910D01*
X113687569Y-74894110D01*
X113636560Y-75146000D01*
X113636560Y-76746000D01*
X113680838Y-76981317D01*
X113819910Y-77197441D01*
X114032110Y-77342431D01*
X114284000Y-77393440D01*
X116284000Y-77393440D01*
X116519317Y-77349162D01*
X116735441Y-77210090D01*
X116880431Y-76997890D01*
X116931440Y-76746000D01*
X116931440Y-75146000D01*
X116887162Y-74910683D01*
X116748090Y-74694559D01*
X116535890Y-74549569D01*
X116284000Y-74498560D01*
X116205000Y-74498560D01*
X116205000Y-74028236D01*
X116700236Y-73533000D01*
X128683000Y-73533000D01*
X128683000Y-74498560D01*
X128572000Y-74498560D01*
X128336683Y-74542838D01*
X128120559Y-74681910D01*
X127975569Y-74894110D01*
X127924560Y-75146000D01*
X127924560Y-76746000D01*
X127968838Y-76981317D01*
X128107910Y-77197441D01*
X128320110Y-77342431D01*
X128572000Y-77393440D01*
X130572000Y-77393440D01*
X130807317Y-77349162D01*
X131023441Y-77210090D01*
X131168431Y-76997890D01*
X131219440Y-76746000D01*
X131219440Y-76504750D01*
X131937000Y-76504750D01*
X131937000Y-76872310D01*
X132033673Y-77105699D01*
X132212302Y-77284327D01*
X132445691Y-77381000D01*
X132913250Y-77381000D01*
X133072000Y-77222250D01*
X133072000Y-76346000D01*
X134072000Y-76346000D01*
X134072000Y-77222250D01*
X134230750Y-77381000D01*
X134698309Y-77381000D01*
X134931698Y-77284327D01*
X135110327Y-77105699D01*
X135207000Y-76872310D01*
X135207000Y-76504750D01*
X135048250Y-76346000D01*
X134072000Y-76346000D01*
X133072000Y-76346000D01*
X132095750Y-76346000D01*
X131937000Y-76504750D01*
X131219440Y-76504750D01*
X131219440Y-75146000D01*
X131195674Y-75019690D01*
X131937000Y-75019690D01*
X131937000Y-75387250D01*
X132095750Y-75546000D01*
X133072000Y-75546000D01*
X133072000Y-74669750D01*
X134072000Y-74669750D01*
X134072000Y-75546000D01*
X135048250Y-75546000D01*
X135207000Y-75387250D01*
X135207000Y-75019690D01*
X135110327Y-74786301D01*
X134931698Y-74607673D01*
X134698309Y-74511000D01*
X134230750Y-74511000D01*
X134072000Y-74669750D01*
X133072000Y-74669750D01*
X132913250Y-74511000D01*
X132445691Y-74511000D01*
X132212302Y-74607673D01*
X132033673Y-74786301D01*
X131937000Y-75019690D01*
X131195674Y-75019690D01*
X131175162Y-74910683D01*
X131036090Y-74694559D01*
X130823890Y-74549569D01*
X130572000Y-74498560D01*
X130461000Y-74498560D01*
X130461000Y-73533000D01*
X131572000Y-73533000D01*
X131912206Y-73465329D01*
X132200618Y-73272618D01*
X132393329Y-72984206D01*
X132437000Y-72764656D01*
X132437000Y-72977002D01*
X133072000Y-72977002D01*
X133072000Y-71901440D01*
X134472000Y-71901440D01*
X134472000Y-72977002D01*
X135107000Y-72977002D01*
X135107000Y-71992005D01*
X135112000Y-71993000D01*
X135251764Y-71993000D01*
X136277382Y-73018618D01*
X136565795Y-73211330D01*
X136906000Y-73279000D01*
X137954817Y-73279000D01*
X138065207Y-73324838D01*
X138437173Y-73325162D01*
X138780949Y-73183117D01*
X139044198Y-72920327D01*
X139186844Y-72576799D01*
X139187168Y-72204833D01*
X139045123Y-71861057D01*
X138782333Y-71597808D01*
X138438805Y-71455162D01*
X138094930Y-71454862D01*
X138095162Y-71188833D01*
X137953117Y-70845057D01*
X137690327Y-70581808D01*
X137618911Y-70552154D01*
X137145002Y-70019006D01*
X137145002Y-69754000D01*
X136909442Y-69754000D01*
X136808447Y-69640381D01*
X136562154Y-69454000D01*
X137145002Y-69454000D01*
X137145002Y-68819000D01*
X135107000Y-68819000D01*
X135107000Y-68707000D01*
X137922000Y-68707000D01*
X138262206Y-68639329D01*
X138381742Y-68559458D01*
X138398883Y-68600943D01*
X138661673Y-68864192D01*
X138773313Y-68910549D01*
X139325382Y-69462618D01*
X139613794Y-69655329D01*
X139954000Y-69723000D01*
X144411764Y-69723000D01*
X144703238Y-70014474D01*
X144748883Y-70124943D01*
X144780000Y-70156114D01*
X144780000Y-71088000D01*
X144838004Y-71379605D01*
X144964334Y-71568671D01*
X145003185Y-71626815D01*
X145019184Y-71642815D01*
X145187081Y-71755000D01*
X145266395Y-71807996D01*
X145558000Y-71866000D01*
X146530992Y-71866000D01*
X146706000Y-71901440D01*
X147947000Y-71901440D01*
X147947000Y-74315764D01*
X147764204Y-74498560D01*
X146606000Y-74498560D01*
X146370683Y-74542838D01*
X146154559Y-74681910D01*
X146009569Y-74894110D01*
X145958560Y-75146000D01*
X145958560Y-76746000D01*
X146002838Y-76981317D01*
X146141910Y-77197441D01*
X146354110Y-77342431D01*
X146606000Y-77393440D01*
X148606000Y-77393440D01*
X148841317Y-77349162D01*
X149057441Y-77210090D01*
X149202431Y-76997890D01*
X149253440Y-76746000D01*
X149253440Y-76504750D01*
X149971000Y-76504750D01*
X149971000Y-76872310D01*
X150067673Y-77105699D01*
X150246302Y-77284327D01*
X150479691Y-77381000D01*
X150947250Y-77381000D01*
X151106000Y-77222250D01*
X151106000Y-76346000D01*
X152106000Y-76346000D01*
X152106000Y-77222250D01*
X152264750Y-77381000D01*
X152732309Y-77381000D01*
X152965698Y-77284327D01*
X153144327Y-77105699D01*
X153241000Y-76872310D01*
X153241000Y-76504750D01*
X153082250Y-76346000D01*
X152106000Y-76346000D01*
X151106000Y-76346000D01*
X150129750Y-76346000D01*
X149971000Y-76504750D01*
X149253440Y-76504750D01*
X149253440Y-75523796D01*
X149464618Y-75312618D01*
X149657330Y-75024205D01*
X149658228Y-75019690D01*
X149971000Y-75019690D01*
X149971000Y-75387250D01*
X150129750Y-75546000D01*
X151106000Y-75546000D01*
X151106000Y-74669750D01*
X152106000Y-74669750D01*
X152106000Y-75546000D01*
X153082250Y-75546000D01*
X153241000Y-75387250D01*
X153241000Y-75019690D01*
X153144327Y-74786301D01*
X152965698Y-74607673D01*
X152732309Y-74511000D01*
X152264750Y-74511000D01*
X152106000Y-74669750D01*
X151106000Y-74669750D01*
X150947250Y-74511000D01*
X150479691Y-74511000D01*
X150246302Y-74607673D01*
X150067673Y-74786301D01*
X149971000Y-75019690D01*
X149658228Y-75019690D01*
X149725000Y-74684000D01*
X149725000Y-70389000D01*
X150471000Y-70389000D01*
X150471000Y-70392569D01*
X150458560Y-70454000D01*
X150458560Y-70754000D01*
X150471000Y-70820113D01*
X150471000Y-70892569D01*
X150458560Y-70954000D01*
X150458560Y-71254000D01*
X150471000Y-71320113D01*
X150471000Y-72977002D01*
X151106000Y-72977002D01*
X151106000Y-72926072D01*
X151361673Y-73182192D01*
X151705201Y-73324838D01*
X152077167Y-73325162D01*
X152420943Y-73183117D01*
X152627418Y-72977002D01*
X153141000Y-72977002D01*
X153141000Y-71315431D01*
X153153440Y-71254000D01*
X153153440Y-70954000D01*
X153141000Y-70887886D01*
X153141000Y-70866000D01*
X154444764Y-70866000D01*
X154646814Y-71068050D01*
X154781883Y-71394943D01*
X155044673Y-71658192D01*
X155388201Y-71800838D01*
X155760167Y-71801162D01*
X156103943Y-71659117D01*
X156367192Y-71396327D01*
X156509838Y-71052799D01*
X156510162Y-70680833D01*
X156398840Y-70411411D01*
X156396330Y-70398795D01*
X156389245Y-70388192D01*
X156368117Y-70337057D01*
X156328682Y-70297554D01*
X156203618Y-70110382D01*
X155568618Y-69475382D01*
X155280205Y-69282671D01*
X155179002Y-69262540D01*
X155179002Y-68819000D01*
X153141000Y-68819000D01*
X153141000Y-66230998D01*
X152506000Y-66230998D01*
X152506000Y-68306560D01*
X151106000Y-68306560D01*
X151106000Y-66230998D01*
X150471000Y-66230998D01*
X150471000Y-68342000D01*
X149733000Y-68342000D01*
X149733000Y-68072000D01*
X149665329Y-67731794D01*
X149472618Y-67443382D01*
X148259327Y-66230091D01*
X172817346Y-66230091D01*
X173056295Y-66477847D01*
X174003172Y-66538422D01*
X174307705Y-66477847D01*
X174546654Y-66230091D01*
X173682000Y-65365437D01*
X172817346Y-66230091D01*
X148259327Y-66230091D01*
X146475917Y-64446681D01*
X146613351Y-64309486D01*
X146659708Y-64197846D01*
X146939000Y-63918554D01*
X146939000Y-63964811D01*
X146893162Y-64075201D01*
X146892838Y-64447167D01*
X147034883Y-64790943D01*
X147297673Y-65054192D01*
X147641201Y-65196838D01*
X148013167Y-65197162D01*
X148356943Y-65055117D01*
X148620192Y-64792327D01*
X148762683Y-64449172D01*
X171271578Y-64449172D01*
X171332153Y-64753705D01*
X171579909Y-64992654D01*
X172444563Y-64128000D01*
X174919437Y-64128000D01*
X175784091Y-64992654D01*
X176031847Y-64753705D01*
X176092422Y-63806828D01*
X176031847Y-63502295D01*
X175784091Y-63263346D01*
X174919437Y-64128000D01*
X172444563Y-64128000D01*
X171579909Y-63263346D01*
X171332153Y-63502295D01*
X171271578Y-64449172D01*
X148762683Y-64449172D01*
X148762838Y-64448799D01*
X148763162Y-64076833D01*
X148717000Y-63965112D01*
X148717000Y-62344236D01*
X149035327Y-62025909D01*
X172817346Y-62025909D01*
X173682000Y-62890563D01*
X174546654Y-62025909D01*
X174307705Y-61778153D01*
X173360828Y-61717578D01*
X173056295Y-61778153D01*
X172817346Y-62025909D01*
X149035327Y-62025909D01*
X149881546Y-61179691D01*
X149939211Y-61237356D01*
X150554420Y-60622147D01*
X152305570Y-60622147D01*
X152400938Y-60836124D01*
X152975340Y-60923589D01*
X153415062Y-60836124D01*
X153510430Y-60622147D01*
X152908000Y-60019717D01*
X152305570Y-60622147D01*
X150554420Y-60622147D01*
X151462355Y-59714212D01*
X151507876Y-59943062D01*
X151721853Y-60038430D01*
X152324283Y-59436000D01*
X153491717Y-59436000D01*
X154094147Y-60038430D01*
X154308124Y-59943062D01*
X154395589Y-59368660D01*
X154308124Y-58928938D01*
X154094147Y-58833570D01*
X153491717Y-59436000D01*
X152324283Y-59436000D01*
X152032425Y-59144142D01*
X152616142Y-58560425D01*
X152908000Y-58852283D01*
X153510430Y-58249853D01*
X153501958Y-58230845D01*
X153734226Y-58134874D01*
X154145430Y-57724387D01*
X154368246Y-57187786D01*
X154368577Y-56807990D01*
X154709356Y-56467211D01*
X154241870Y-55999725D01*
X154154168Y-56087427D01*
X154146874Y-56069774D01*
X153736387Y-55658570D01*
X153658421Y-55626196D01*
X153734226Y-55594874D01*
X154145430Y-55184387D01*
X154368246Y-54647786D01*
X154368753Y-54066763D01*
X154146874Y-53529774D01*
X153736387Y-53118570D01*
X153658421Y-53086196D01*
X153734226Y-53054874D01*
X154145430Y-52644387D01*
X154368246Y-52107786D01*
X154368567Y-51739803D01*
X155067000Y-52438236D01*
X155067000Y-53413922D01*
X155134671Y-53754128D01*
X155282253Y-53975000D01*
X155327382Y-54042540D01*
X158653461Y-57368619D01*
X158941873Y-57561330D01*
X159282079Y-57629001D01*
X164239999Y-57629001D01*
X164580205Y-57561330D01*
X164868617Y-57368619D01*
X168262236Y-53975000D01*
X178181000Y-53975000D01*
X178181000Y-94451394D01*
X177255394Y-95377000D01*
X171688000Y-95377000D01*
X171638590Y-95387006D01*
X171598197Y-95414197D01*
X170598197Y-96414197D01*
X170570334Y-96456211D01*
X170561000Y-96504000D01*
X170561000Y-110506000D01*
X170571006Y-110555410D01*
X170598197Y-110595803D01*
X171598197Y-111595803D01*
X171640211Y-111623666D01*
X171688000Y-111633000D01*
X177255394Y-111633000D01*
X178181000Y-112558606D01*
X178181000Y-137123394D01*
X177838394Y-137466000D01*
X96843931Y-137466000D01*
X95106997Y-137120502D01*
X93693779Y-136176221D01*
X93379649Y-135706091D01*
X101229346Y-135706091D01*
X101468295Y-135953847D01*
X102415172Y-136014422D01*
X102719705Y-135953847D01*
X102958654Y-135706091D01*
X116229346Y-135706091D01*
X116468295Y-135953847D01*
X117415172Y-136014422D01*
X117719705Y-135953847D01*
X117958654Y-135706091D01*
X117094000Y-134841437D01*
X116229346Y-135706091D01*
X102958654Y-135706091D01*
X102094000Y-134841437D01*
X101229346Y-135706091D01*
X93379649Y-135706091D01*
X92749498Y-134763005D01*
X92582843Y-133925172D01*
X99683578Y-133925172D01*
X99744153Y-134229705D01*
X99991909Y-134468654D01*
X100856563Y-133604000D01*
X103331437Y-133604000D01*
X104196091Y-134468654D01*
X104443847Y-134229705D01*
X104463329Y-133925172D01*
X114683578Y-133925172D01*
X114744153Y-134229705D01*
X114991909Y-134468654D01*
X115856563Y-133604000D01*
X118331437Y-133604000D01*
X119196091Y-134468654D01*
X119443847Y-134229705D01*
X119453659Y-134076325D01*
X141378587Y-134076325D01*
X141740916Y-134953229D01*
X142411242Y-135624726D01*
X143287513Y-135988585D01*
X144236325Y-135989413D01*
X145113229Y-135627084D01*
X145784726Y-134956758D01*
X146148585Y-134080487D01*
X146149413Y-133131675D01*
X145818781Y-132331482D01*
X157200336Y-132331482D01*
X157782950Y-133741515D01*
X158860811Y-134821259D01*
X160269825Y-135406333D01*
X161795482Y-135407664D01*
X163205515Y-134825050D01*
X164285259Y-133747189D01*
X164870333Y-132338175D01*
X164871664Y-130812518D01*
X164289050Y-129402485D01*
X163211189Y-128322741D01*
X161802175Y-127737667D01*
X160276518Y-127736336D01*
X158866485Y-128318950D01*
X157786741Y-129396811D01*
X157201667Y-130805825D01*
X157200336Y-132331482D01*
X145818781Y-132331482D01*
X145787084Y-132254771D01*
X145116758Y-131583274D01*
X144240487Y-131219415D01*
X143291675Y-131218587D01*
X142414771Y-131580916D01*
X141743274Y-132251242D01*
X141379415Y-133127513D01*
X141378587Y-134076325D01*
X119453659Y-134076325D01*
X119504422Y-133282828D01*
X119443847Y-132978295D01*
X119196091Y-132739346D01*
X118331437Y-133604000D01*
X115856563Y-133604000D01*
X114991909Y-132739346D01*
X114744153Y-132978295D01*
X114683578Y-133925172D01*
X104463329Y-133925172D01*
X104504422Y-133282828D01*
X104443847Y-132978295D01*
X104196091Y-132739346D01*
X103331437Y-133604000D01*
X100856563Y-133604000D01*
X99991909Y-132739346D01*
X99744153Y-132978295D01*
X99683578Y-133925172D01*
X92582843Y-133925172D01*
X92404000Y-133026069D01*
X92404000Y-131501909D01*
X101229346Y-131501909D01*
X102094000Y-132366563D01*
X102958654Y-131501909D01*
X116229346Y-131501909D01*
X117094000Y-132366563D01*
X117958654Y-131501909D01*
X117719705Y-131254153D01*
X116772828Y-131193578D01*
X116468295Y-131254153D01*
X116229346Y-131501909D01*
X102958654Y-131501909D01*
X102719705Y-131254153D01*
X101772828Y-131193578D01*
X101468295Y-131254153D01*
X101229346Y-131501909D01*
X92404000Y-131501909D01*
X92404000Y-125172091D01*
X172817346Y-125172091D01*
X173056295Y-125419847D01*
X174003172Y-125480422D01*
X174307705Y-125419847D01*
X174546654Y-125172091D01*
X173682000Y-124307437D01*
X172817346Y-125172091D01*
X92404000Y-125172091D01*
X92404000Y-107439482D01*
X92938336Y-107439482D01*
X93520950Y-108849515D01*
X94598811Y-109929259D01*
X96007825Y-110514333D01*
X97533482Y-110515664D01*
X98943515Y-109933050D01*
X100023259Y-108855189D01*
X100608333Y-107446175D01*
X100609664Y-105920518D01*
X100027050Y-104510485D01*
X98949189Y-103430741D01*
X97540175Y-102845667D01*
X96014518Y-102844336D01*
X94604485Y-103426950D01*
X93524741Y-104504811D01*
X92939667Y-105913825D01*
X92938336Y-107439482D01*
X92404000Y-107439482D01*
X92404000Y-91424000D01*
X104775000Y-91424000D01*
X104775000Y-122698000D01*
X104785006Y-122747410D01*
X104812197Y-122787803D01*
X105812197Y-123787803D01*
X105854211Y-123815666D01*
X105902000Y-123825000D01*
X112792000Y-123825000D01*
X112841410Y-123814994D01*
X112881803Y-123787803D01*
X113881803Y-122787803D01*
X113909666Y-122745789D01*
X113919000Y-122698000D01*
X113919000Y-121576325D01*
X122208587Y-121576325D01*
X122570916Y-122453229D01*
X123241242Y-123124726D01*
X124117513Y-123488585D01*
X125066325Y-123489413D01*
X125943229Y-123127084D01*
X126614726Y-122456758D01*
X126978585Y-121580487D01*
X126978588Y-121576325D01*
X148878587Y-121576325D01*
X149240916Y-122453229D01*
X149911242Y-123124726D01*
X150787513Y-123488585D01*
X151736325Y-123489413D01*
X151974086Y-123391172D01*
X171271578Y-123391172D01*
X171332153Y-123695705D01*
X171579909Y-123934654D01*
X172444563Y-123070000D01*
X174919437Y-123070000D01*
X175784091Y-123934654D01*
X176031847Y-123695705D01*
X176092422Y-122748828D01*
X176031847Y-122444295D01*
X175784091Y-122205346D01*
X174919437Y-123070000D01*
X172444563Y-123070000D01*
X171579909Y-122205346D01*
X171332153Y-122444295D01*
X171271578Y-123391172D01*
X151974086Y-123391172D01*
X152613229Y-123127084D01*
X153284726Y-122456758D01*
X153648585Y-121580487D01*
X153649119Y-120967909D01*
X172817346Y-120967909D01*
X173682000Y-121832563D01*
X174546654Y-120967909D01*
X174307705Y-120720153D01*
X173360828Y-120659578D01*
X173056295Y-120720153D01*
X172817346Y-120967909D01*
X153649119Y-120967909D01*
X153649413Y-120631675D01*
X153287084Y-119754771D01*
X152616758Y-119083274D01*
X151740487Y-118719415D01*
X150791675Y-118718587D01*
X149914771Y-119080916D01*
X149243274Y-119751242D01*
X148879415Y-120627513D01*
X148878587Y-121576325D01*
X126978588Y-121576325D01*
X126979413Y-120631675D01*
X126617084Y-119754771D01*
X125946758Y-119083274D01*
X125070487Y-118719415D01*
X124121675Y-118718587D01*
X123244771Y-119080916D01*
X122573274Y-119751242D01*
X122209415Y-120627513D01*
X122208587Y-121576325D01*
X113919000Y-121576325D01*
X113919000Y-112558606D01*
X114844606Y-111633000D01*
X147844000Y-111633000D01*
X147893410Y-111622994D01*
X147933803Y-111595803D01*
X148933803Y-110595803D01*
X148961666Y-110553789D01*
X148971000Y-110506000D01*
X148971000Y-107188000D01*
X155863050Y-107188000D01*
X156002731Y-107890224D01*
X156400509Y-108485541D01*
X156995826Y-108883319D01*
X157698050Y-109023000D01*
X157769950Y-109023000D01*
X158472174Y-108883319D01*
X159067491Y-108485541D01*
X159465269Y-107890224D01*
X159604950Y-107188000D01*
X159465269Y-106485776D01*
X159067491Y-105890459D01*
X158472174Y-105492681D01*
X157769950Y-105353000D01*
X157698050Y-105353000D01*
X156995826Y-105492681D01*
X156400509Y-105890459D01*
X156002731Y-106485776D01*
X155863050Y-107188000D01*
X148971000Y-107188000D01*
X148971000Y-93422091D01*
X172817346Y-93422091D01*
X173056295Y-93669847D01*
X174003172Y-93730422D01*
X174307705Y-93669847D01*
X174546654Y-93422091D01*
X173682000Y-92557437D01*
X172817346Y-93422091D01*
X148971000Y-93422091D01*
X148971000Y-91641172D01*
X171271578Y-91641172D01*
X171332153Y-91945705D01*
X171579909Y-92184654D01*
X172444563Y-91320000D01*
X174919437Y-91320000D01*
X175784091Y-92184654D01*
X176031847Y-91945705D01*
X176092422Y-90998828D01*
X176031847Y-90694295D01*
X175784091Y-90455346D01*
X174919437Y-91320000D01*
X172444563Y-91320000D01*
X171579909Y-90455346D01*
X171332153Y-90694295D01*
X171271578Y-91641172D01*
X148971000Y-91641172D01*
X148971000Y-91424000D01*
X148960994Y-91374590D01*
X148933803Y-91334197D01*
X147933803Y-90334197D01*
X147891789Y-90306334D01*
X147844000Y-90297000D01*
X146431000Y-90297000D01*
X146431000Y-89217909D01*
X172817346Y-89217909D01*
X173682000Y-90082563D01*
X174546654Y-89217909D01*
X174307705Y-88970153D01*
X173360828Y-88909578D01*
X173056295Y-88970153D01*
X172817346Y-89217909D01*
X146431000Y-89217909D01*
X146431000Y-89014236D01*
X147688236Y-87757000D01*
X150241000Y-87757000D01*
X150581206Y-87689329D01*
X150869618Y-87496618D01*
X156203618Y-82162618D01*
X156327465Y-81977268D01*
X156396329Y-81874206D01*
X156464000Y-81534000D01*
X156464000Y-78656189D01*
X156509838Y-78545799D01*
X156510162Y-78173833D01*
X156368117Y-77830057D01*
X156105327Y-77566808D01*
X155761799Y-77424162D01*
X155389833Y-77423838D01*
X155046057Y-77565883D01*
X154782808Y-77828673D01*
X154640162Y-78172201D01*
X154639838Y-78544167D01*
X154686000Y-78655888D01*
X154686000Y-81165764D01*
X149872764Y-85979000D01*
X147320000Y-85979000D01*
X146979794Y-86046671D01*
X146722969Y-86218276D01*
X146691382Y-86239382D01*
X144913382Y-88017382D01*
X144720671Y-88305794D01*
X144653000Y-88646000D01*
X144653000Y-90297000D01*
X134620000Y-90297000D01*
X134620000Y-87483976D01*
X138794353Y-83442718D01*
X138798523Y-83436690D01*
X138804618Y-83432618D01*
X138897048Y-83294288D01*
X138991711Y-83157465D01*
X138993257Y-83150300D01*
X138997329Y-83144206D01*
X139029787Y-82981028D01*
X139064883Y-82818400D01*
X139063570Y-82811190D01*
X139065000Y-82804000D01*
X139065000Y-75989189D01*
X139110838Y-75878799D01*
X139111162Y-75506833D01*
X138969117Y-75163057D01*
X138706327Y-74899808D01*
X138362799Y-74757162D01*
X137990833Y-74756838D01*
X137667629Y-74890383D01*
X137346799Y-74757162D01*
X136974833Y-74756838D01*
X136631057Y-74898883D01*
X136367808Y-75161673D01*
X136225162Y-75505201D01*
X136224838Y-75877167D01*
X136271000Y-75988888D01*
X136271000Y-81927764D01*
X128613526Y-89585238D01*
X128503057Y-89630883D01*
X128239808Y-89893673D01*
X128097162Y-90237201D01*
X128097110Y-90297000D01*
X105902000Y-90297000D01*
X105852590Y-90307006D01*
X105812197Y-90334197D01*
X104812197Y-91334197D01*
X104784334Y-91376211D01*
X104775000Y-91424000D01*
X92404000Y-91424000D01*
X92404000Y-76504750D01*
X109649000Y-76504750D01*
X109649000Y-76872310D01*
X109745673Y-77105699D01*
X109924302Y-77284327D01*
X110157691Y-77381000D01*
X110625250Y-77381000D01*
X110784000Y-77222250D01*
X110784000Y-76346000D01*
X111784000Y-76346000D01*
X111784000Y-77222250D01*
X111942750Y-77381000D01*
X112410309Y-77381000D01*
X112643698Y-77284327D01*
X112822327Y-77105699D01*
X112919000Y-76872310D01*
X112919000Y-76504750D01*
X112760250Y-76346000D01*
X111784000Y-76346000D01*
X110784000Y-76346000D01*
X109807750Y-76346000D01*
X109649000Y-76504750D01*
X92404000Y-76504750D01*
X92404000Y-75019690D01*
X109649000Y-75019690D01*
X109649000Y-75387250D01*
X109807750Y-75546000D01*
X110784000Y-75546000D01*
X110784000Y-74669750D01*
X111784000Y-74669750D01*
X111784000Y-75546000D01*
X112760250Y-75546000D01*
X112919000Y-75387250D01*
X112919000Y-75019690D01*
X112822327Y-74786301D01*
X112643698Y-74607673D01*
X112410309Y-74511000D01*
X111942750Y-74511000D01*
X111784000Y-74669750D01*
X110784000Y-74669750D01*
X110625250Y-74511000D01*
X110157691Y-74511000D01*
X109924302Y-74607673D01*
X109745673Y-74786301D01*
X109649000Y-75019690D01*
X92404000Y-75019690D01*
X92404000Y-66187125D01*
X102382587Y-66187125D01*
X102744916Y-67064029D01*
X103415242Y-67735526D01*
X104291513Y-68099385D01*
X105240325Y-68100213D01*
X106117229Y-67737884D01*
X106788726Y-67067558D01*
X107152585Y-66191287D01*
X107153413Y-65242475D01*
X106791084Y-64365571D01*
X106120758Y-63694074D01*
X105244487Y-63330215D01*
X104295675Y-63329387D01*
X103418771Y-63691716D01*
X102747274Y-64362042D01*
X102383415Y-65238313D01*
X102382587Y-66187125D01*
X92404000Y-66187125D01*
X92404000Y-58605167D01*
X113110838Y-58605167D01*
X113252883Y-58948943D01*
X113515673Y-59212192D01*
X113859201Y-59354838D01*
X114231167Y-59355162D01*
X114342888Y-59309000D01*
X117295898Y-59309000D01*
X117332838Y-59505317D01*
X117471910Y-59721441D01*
X117684110Y-59866431D01*
X117936000Y-59917440D01*
X119936000Y-59917440D01*
X120171317Y-59873162D01*
X120387441Y-59734090D01*
X120532431Y-59521890D01*
X120583440Y-59270000D01*
X120583440Y-57570000D01*
X120539162Y-57334683D01*
X120400090Y-57118559D01*
X120187890Y-56973569D01*
X119936000Y-56922560D01*
X117936000Y-56922560D01*
X117700683Y-56966838D01*
X117484559Y-57105910D01*
X117339569Y-57318110D01*
X117296458Y-57531000D01*
X114343189Y-57531000D01*
X114232799Y-57485162D01*
X113860833Y-57484838D01*
X113517057Y-57626883D01*
X113253808Y-57889673D01*
X113111162Y-58233201D01*
X113110838Y-58605167D01*
X92404000Y-58605167D01*
X92404000Y-54607482D01*
X92938336Y-54607482D01*
X93520950Y-56017515D01*
X94598811Y-57097259D01*
X96007825Y-57682333D01*
X97533482Y-57683664D01*
X98943515Y-57101050D01*
X100023259Y-56023189D01*
X100316539Y-55316891D01*
X111403346Y-55316891D01*
X111642295Y-55564647D01*
X112589172Y-55625222D01*
X112893705Y-55564647D01*
X113132654Y-55316891D01*
X112272513Y-54456750D01*
X118353000Y-54456750D01*
X118353000Y-54874310D01*
X118449673Y-55107699D01*
X118628302Y-55286327D01*
X118861691Y-55383000D01*
X119279250Y-55383000D01*
X119438000Y-55224250D01*
X119438000Y-54298000D01*
X118511750Y-54298000D01*
X118353000Y-54456750D01*
X112272513Y-54456750D01*
X112268000Y-54452237D01*
X111403346Y-55316891D01*
X100316539Y-55316891D01*
X100608333Y-54614175D01*
X100609273Y-53535972D01*
X109857578Y-53535972D01*
X109918153Y-53840505D01*
X110165909Y-54079454D01*
X111030563Y-53214800D01*
X113505437Y-53214800D01*
X114370091Y-54079454D01*
X114617847Y-53840505D01*
X114678422Y-52893628D01*
X114664113Y-52821690D01*
X118353000Y-52821690D01*
X118353000Y-53239250D01*
X118511750Y-53398000D01*
X119438000Y-53398000D01*
X119438000Y-52471750D01*
X119279250Y-52313000D01*
X118861691Y-52313000D01*
X118628302Y-52409673D01*
X118449673Y-52588301D01*
X118353000Y-52821690D01*
X114664113Y-52821690D01*
X114617847Y-52589095D01*
X114370091Y-52350146D01*
X113505437Y-53214800D01*
X111030563Y-53214800D01*
X110165909Y-52350146D01*
X109918153Y-52589095D01*
X109857578Y-53535972D01*
X100609273Y-53535972D01*
X100609664Y-53088518D01*
X100027050Y-51678485D01*
X99462261Y-51112709D01*
X111403346Y-51112709D01*
X112268000Y-51977363D01*
X113132654Y-51112709D01*
X112893705Y-50864953D01*
X111946828Y-50804378D01*
X111642295Y-50864953D01*
X111403346Y-51112709D01*
X99462261Y-51112709D01*
X98949189Y-50598741D01*
X97540175Y-50013667D01*
X96014518Y-50012336D01*
X94604485Y-50594950D01*
X93524741Y-51672811D01*
X92939667Y-53081825D01*
X92938336Y-54607482D01*
X92404000Y-54607482D01*
X92404000Y-53917931D01*
X92749498Y-52180995D01*
X93693779Y-50767779D01*
X95106997Y-49823498D01*
X96843931Y-49478000D01*
X128003562Y-49478000D01*
X126608000Y-50873562D01*
G36*
X115639382Y-72015382D02*
X115510507Y-72208257D01*
X114784000Y-72934764D01*
X114784000Y-72212425D01*
X114838192Y-72158327D01*
X114944861Y-71901440D01*
X115809908Y-71901440D01*
X115639382Y-72015382D01*
X115639382Y-72015382D01*
G37*
X115639382Y-72015382D02*
X115510507Y-72208257D01*
X114784000Y-72934764D01*
X114784000Y-72212425D01*
X114838192Y-72158327D01*
X114944861Y-71901440D01*
X115809908Y-71901440D01*
X115639382Y-72015382D01*
G36*
X117094000Y-69469000D02*
X117729000Y-69469000D01*
X117729000Y-69754000D01*
X116793807Y-69754000D01*
X116787162Y-69718683D01*
X116713380Y-69604022D01*
X116780431Y-69505890D01*
X116790939Y-69454000D01*
X117018590Y-69454000D01*
X117094000Y-69469000D01*
X117094000Y-69469000D01*
G37*
X117094000Y-69469000D02*
X117729000Y-69469000D01*
X117729000Y-69754000D01*
X116793807Y-69754000D01*
X116787162Y-69718683D01*
X116713380Y-69604022D01*
X116780431Y-69505890D01*
X116790939Y-69454000D01*
X117018590Y-69454000D01*
X117094000Y-69469000D01*
G36*
X135578000Y-53398000D02*
X136028000Y-53398000D01*
X136028000Y-54298000D01*
X135578000Y-54298000D01*
X135578000Y-55224250D01*
X135736750Y-55383000D01*
X136028000Y-55383000D01*
X136028000Y-57036505D01*
X135935890Y-56973569D01*
X135684000Y-56922560D01*
X135545264Y-56922560D01*
X135505329Y-56721794D01*
X135312618Y-56433382D01*
X134662999Y-55783763D01*
X134662999Y-55239251D01*
X134678000Y-55224250D01*
X134678000Y-54298000D01*
X134662999Y-54298000D01*
X134662999Y-53398000D01*
X134678000Y-53398000D01*
X134678000Y-52948000D01*
X135578000Y-52948000D01*
X135578000Y-53398000D01*
X135578000Y-53398000D01*
G37*
X135578000Y-53398000D02*
X136028000Y-53398000D01*
X136028000Y-54298000D01*
X135578000Y-54298000D01*
X135578000Y-55224250D01*
X135736750Y-55383000D01*
X136028000Y-55383000D01*
X136028000Y-57036505D01*
X135935890Y-56973569D01*
X135684000Y-56922560D01*
X135545264Y-56922560D01*
X135505329Y-56721794D01*
X135312618Y-56433382D01*
X134662999Y-55783763D01*
X134662999Y-55239251D01*
X134678000Y-55224250D01*
X134678000Y-54298000D01*
X134662999Y-54298000D01*
X134662999Y-53398000D01*
X134678000Y-53398000D01*
X134678000Y-52948000D01*
X135578000Y-52948000D01*
X135578000Y-53398000D01*
G36*
X133200673Y-91597192D02*
X133544201Y-91739838D01*
X133916167Y-91740162D01*
X134259943Y-91598117D01*
X134291114Y-91567000D01*
X146775394Y-91567000D01*
X147701000Y-92492606D01*
X147701000Y-109437664D01*
X146774772Y-110370628D01*
X113775054Y-110609757D01*
X113725717Y-110620121D01*
X113685847Y-110647277D01*
X112685873Y-111654523D01*
X112658162Y-111696637D01*
X112649000Y-111744000D01*
X112649000Y-120523873D01*
X111978066Y-121194807D01*
X112004422Y-120782828D01*
X111943847Y-120478295D01*
X111696091Y-120239346D01*
X110831437Y-121104000D01*
X111450155Y-121722718D01*
X110871873Y-122301000D01*
X108316127Y-122301000D01*
X107737845Y-121722718D01*
X108356563Y-121104000D01*
X107491909Y-120239346D01*
X107244153Y-120478295D01*
X107199014Y-121183887D01*
X106064501Y-120049374D01*
X106073086Y-119001909D01*
X108729346Y-119001909D01*
X109594000Y-119866563D01*
X110458654Y-119001909D01*
X110219705Y-118754153D01*
X109272828Y-118693578D01*
X108968295Y-118754153D01*
X108729346Y-119001909D01*
X106073086Y-119001909D01*
X106290371Y-92493306D01*
X107224301Y-91567000D01*
X133170534Y-91567000D01*
X133200673Y-91597192D01*
X133200673Y-91597192D01*
G37*
X133200673Y-91597192D02*
X133544201Y-91739838D01*
X133916167Y-91740162D01*
X134259943Y-91598117D01*
X134291114Y-91567000D01*
X146775394Y-91567000D01*
X147701000Y-92492606D01*
X147701000Y-109437664D01*
X146774772Y-110370628D01*
X113775054Y-110609757D01*
X113725717Y-110620121D01*
X113685847Y-110647277D01*
X112685873Y-111654523D01*
X112658162Y-111696637D01*
X112649000Y-111744000D01*
X112649000Y-120523873D01*
X111978066Y-121194807D01*
X112004422Y-120782828D01*
X111943847Y-120478295D01*
X111696091Y-120239346D01*
X110831437Y-121104000D01*
X111450155Y-121722718D01*
X110871873Y-122301000D01*
X108316127Y-122301000D01*
X107737845Y-121722718D01*
X108356563Y-121104000D01*
X107491909Y-120239346D01*
X107244153Y-120478295D01*
X107199014Y-121183887D01*
X106064501Y-120049374D01*
X106073086Y-119001909D01*
X108729346Y-119001909D01*
X109594000Y-119866563D01*
X110458654Y-119001909D01*
X110219705Y-118754153D01*
X109272828Y-118693578D01*
X108968295Y-118754153D01*
X108729346Y-119001909D01*
X106073086Y-119001909D01*
X106290371Y-92493306D01*
X107224301Y-91567000D01*
X133170534Y-91567000D01*
X133200673Y-91597192D01*
M02*
