M48
;DRILL file {KiCad 4.0.7} date 01/22/18 20:22:32
;FORMAT={-:-/ absolute / inch / decimal}
FMAT,2
INCH,TZ
T1C0.012
T2C0.015
T3C0.020
T4C0.035
T5C0.039
T6C0.040
T7C0.083
T8C0.100
T9C0.108
T10C0.126
%
G90
G05
M72
T1
X2.115Y-5.
X2.14Y-4.95
X3.21Y-4.9
X3.235Y-4.93
X3.315Y-5.
X3.34Y-4.965
T2
X1.325Y-2.15
X1.425Y-1.9
X1.475Y-5.45
X1.5Y-3.225
X1.55Y-5.45
X1.625Y-5.45
X1.7Y-1.925
X1.7Y-2.05
X1.7Y-5.225
X1.775Y-4.85
X1.85Y-5.45
X1.925Y-3.35
X1.925Y-5.45
X2.025Y-4.9
X2.125Y-2.
X2.125Y-5.45
X2.15Y-4.7
X2.175Y-5.45
X2.225Y-4.2
X2.275Y-2.7
X2.3Y-5.275
X2.35Y-3.125
X2.375Y-3.325
X2.4Y-1.9
X2.4Y-2.725
X2.45Y-5.45
X2.525Y-5.45
X2.55Y-1.9
X2.55Y-3.35
X2.55Y-3.925
X2.55Y-3.975
X2.6Y-3.4
X2.6Y-5.225
X2.625Y-2.6
X2.625Y-2.7
X2.625Y-2.875
X2.625Y-4.925
X2.65Y-2.425
X2.65Y-2.475
X2.65Y-3.3
X2.65Y-4.275
X2.675Y-5.45
X2.715Y-5.65
X2.75Y-5.45
X2.775Y-3.95
X2.79Y-2.47
X2.825Y-2.
X2.825Y-2.275
X2.825Y-2.7
X2.825Y-5.45
X2.85Y-3.575
X2.85Y-4.2
X2.875Y-2.7
X2.9Y-5.275
X2.925Y-2.7
X2.95Y-3.95
X2.95Y-4.65
X3.Y-2.425
X3.03Y-4.78
X3.05Y-5.45
X3.125Y-5.45
X3.15Y-3.925
X3.15Y-3.975
X3.15Y-4.9
X3.175Y-2.
X3.175Y-2.725
X3.2Y-2.425
X3.2Y-4.125
X3.2Y-4.375
X3.2Y-4.785
X3.29Y-4.75
X3.325Y-3.2
X3.325Y-5.45
X3.35Y-2.575
X3.375Y-3.25
X3.375Y-5.45
X3.475Y-3.2
X3.475Y-4.8
X3.5Y-5.225
X3.525Y-2.625
X3.525Y-2.675
X3.525Y-4.1
X3.55Y-4.65
X3.6Y-2.2
X3.65Y-5.45
X3.7Y-2.525
X3.725Y-5.45
X3.75Y-4.65
X3.9Y-5.525
X3.95Y-2.
X4.Y-3.25
X4.05Y-2.525
X4.075Y-3.1
X4.075Y-3.25
X4.1Y-4.55
X4.15Y-3.1
X4.15Y-3.25
X4.2Y-4.55
X4.325Y-2.325
X4.4Y-2.325
X4.425Y-3.25
X4.45Y-2.975
X4.475Y-2.625
X4.475Y-3.2
X4.525Y-2.475
X4.575Y-2.625
X4.6Y-2.25
X4.675Y-2.625
X4.75Y-2.4
X4.925Y-5.1
X4.975Y-3.3
X4.975Y-3.35
X4.975Y-4.825
X5.025Y-2.55
X5.05Y-4.05
X5.1Y-2.4
X5.14Y-2.66
X5.14Y-2.7
X5.14Y-2.74
X5.14Y-2.78
X5.14Y-2.82
X5.18Y-2.66
X5.18Y-2.7
X5.18Y-2.74
X5.18Y-2.78
X5.18Y-2.82
X5.22Y-2.66
X5.22Y-2.7
X5.22Y-2.74
X5.22Y-2.78
X5.22Y-2.82
X5.26Y-2.66
X5.26Y-2.7
X5.26Y-2.74
X5.26Y-2.78
X5.26Y-2.82
X5.3Y-2.66
X5.3Y-2.7
X5.3Y-2.74
X5.3Y-2.78
X5.3Y-2.82
X5.475Y-4.325
T3
X0.8055Y-1.95
X0.8055Y-5.55
X0.8332Y-1.8832
X0.8332Y-2.0168
X0.8332Y-5.4832
X0.8332Y-5.6168
X0.9Y-1.8555
X0.9Y-2.0445
X0.9Y-5.4555
X0.9Y-5.6445
X0.9668Y-1.8832
X0.9668Y-2.0168
X0.9668Y-5.4832
X0.9668Y-5.6168
X0.9945Y-1.95
X0.9945Y-5.55
X5.4055Y-1.95
X5.4055Y-5.55
X5.4332Y-1.8832
X5.4332Y-2.0168
X5.4332Y-5.4832
X5.4332Y-5.6168
X5.5Y-1.8555
X5.5Y-2.0445
X5.5Y-5.4555
X5.5Y-5.6445
X5.5668Y-1.8832
X5.5668Y-2.0168
X5.5668Y-5.4832
X5.5668Y-5.6168
X5.5945Y-1.95
X5.5945Y-5.55
T4
X4.1039Y-4.15
X4.1039Y-4.4
X4.2961Y-4.15
X4.2961Y-4.4
X5.25Y-3.8
X5.25Y-4.05
X5.35Y-3.8
X5.35Y-4.05
X5.5Y-3.8
X5.5Y-4.05
X5.6Y-3.8
X5.6Y-4.05
T5
X1.55Y-2.5
X1.55Y-2.7
X1.65Y-2.5
X1.65Y-2.7
X1.666Y-2.9379
X1.666Y-3.0379
X1.75Y-2.5
X1.75Y-2.7
X1.766Y-2.9379
X1.766Y-3.0379
X1.85Y-2.5
X1.85Y-2.7
X1.866Y-2.9379
X1.866Y-3.0379
X1.95Y-2.7
X1.966Y-2.9379
X1.966Y-3.0379
X2.066Y-2.9379
X2.066Y-3.0379
X2.166Y-2.9379
X2.166Y-3.0379
X2.266Y-2.9379
X2.266Y-3.0379
X2.366Y-2.9379
X2.366Y-3.0379
X2.466Y-2.9379
X2.466Y-3.0379
X2.566Y-2.9379
X2.566Y-3.0379
X2.666Y-2.9379
X2.666Y-3.0379
X2.766Y-2.9379
X2.766Y-3.0379
X2.866Y-2.9379
X2.866Y-3.0379
X2.966Y-2.9379
X2.966Y-3.0379
X3.066Y-2.9379
X3.066Y-3.0379
X3.166Y-2.9379
X3.166Y-3.0379
X3.266Y-2.9379
X3.266Y-3.0379
X3.366Y-2.9379
X3.366Y-3.0379
X3.466Y-2.9379
X3.466Y-3.0379
X3.566Y-2.9379
X3.566Y-3.0379
X4.9Y-4.175
X4.9Y-4.275
X4.9Y-4.375
T6
X1.25Y-1.9
X1.25Y-2.
X1.25Y-2.1
X1.25Y-2.2
X1.25Y-2.3
X1.25Y-2.4
X1.25Y-2.5
X1.6Y-1.9
X1.6Y-2.
X1.6Y-2.1
X1.6Y-2.2
X1.6Y-2.3
X1.95Y-1.9
X1.95Y-2.
X1.95Y-2.1
X1.95Y-2.2
X2.3Y-1.9
X2.3Y-2.
X2.3Y-2.1
X2.3Y-2.2
X2.3Y-2.3
X2.3Y-2.4
X2.65Y-1.9
X2.65Y-2.
X2.65Y-2.1
X3.Y-1.9
X3.Y-2.
X3.Y-2.1
X3.35Y-1.9
X3.35Y-2.
X3.35Y-2.1
X3.7Y-1.9
X3.7Y-2.
X3.7Y-2.1
X3.7Y-2.2
X3.7Y-2.3
X4.05Y-1.9
X4.05Y-2.
X4.05Y-2.1
X4.05Y-2.2
X4.05Y-2.3
X4.15Y-5.4
X4.15Y-5.5
X4.15Y-5.6
X4.4Y-1.9
X4.4Y-2.
X4.4Y-2.1
X4.5Y-5.4
X4.5Y-5.5
X4.5Y-5.6
X4.75Y-1.9
X4.75Y-2.
X4.75Y-2.1
X4.85Y-5.4
X4.85Y-5.5
X4.85Y-5.6
X5.1Y-1.9
X5.1Y-2.
X5.1Y-2.1
X5.25Y-3.45
X5.25Y-4.5
X5.25Y-4.85
X5.25Y-5.2
X5.35Y-3.45
X5.35Y-4.5
X5.35Y-4.85
X5.35Y-5.2
X5.45Y-3.45
X5.45Y-4.5
X5.45Y-4.85
X5.45Y-5.2
X5.55Y-3.45
X5.55Y-4.5
X5.55Y-4.85
X5.55Y-5.2
T7
X5.0248Y-2.7374
X5.5169Y-2.4421
X5.5169Y-3.0327
T8
X4.7625Y-3.775
X4.7625Y-4.775
T9
X1.4752Y-2.9878
X1.4752Y-4.9169
X3.7587Y-2.9878
X3.7587Y-4.9169
T10
X0.9Y-1.95
X0.9Y-5.55
X5.5Y-1.95
X5.5Y-5.55
T0
M30
