G04 #@! TF.FileFunction,Legend,Bot*
%FSLAX46Y46*%
G04 Gerber Fmt 4.6, Leading zero omitted, Abs format (unit mm)*
G04 Created by KiCad (PCBNEW 4.0.7) date 01/22/18 20:22:30*
%MOMM*%
%LPD*%
G01*
G04 APERTURE LIST*
%ADD10C,0.100000*%
%ADD11C,0.120000*%
%ADD12C,0.150000*%
G04 APERTURE END LIST*
D10*
D11*
X110875000Y-58055000D02*
X110875000Y-60055000D01*
X108835000Y-60055000D02*
X108835000Y-58055000D01*
X119765000Y-58055000D02*
X119765000Y-60055000D01*
X117725000Y-60055000D02*
X117725000Y-58055000D01*
X128655000Y-58055000D02*
X128655000Y-60055000D01*
X126615000Y-60055000D02*
X126615000Y-58055000D01*
X115205000Y-72005000D02*
X117205000Y-72005000D01*
X117205000Y-74045000D02*
X115205000Y-74045000D01*
X110760000Y-131695000D02*
X112760000Y-131695000D01*
X112760000Y-133735000D02*
X110760000Y-133735000D01*
X110760000Y-121535000D02*
X112760000Y-121535000D01*
X112760000Y-123575000D02*
X110760000Y-123575000D01*
X139335000Y-100765000D02*
X141335000Y-100765000D01*
X141335000Y-98625000D02*
X139335000Y-98625000D01*
X139335000Y-93780000D02*
X141335000Y-93780000D01*
X141335000Y-91640000D02*
X139335000Y-91640000D01*
X133715000Y-98625000D02*
X131715000Y-98625000D01*
X131715000Y-100765000D02*
X133715000Y-100765000D01*
X114735000Y-60055000D02*
X114735000Y-58055000D01*
X112595000Y-58055000D02*
X112595000Y-60055000D01*
X123625000Y-60055000D02*
X123625000Y-58055000D01*
X121485000Y-58055000D02*
X121485000Y-60055000D01*
X132515000Y-60055000D02*
X132515000Y-58055000D01*
X130375000Y-58055000D02*
X130375000Y-60055000D01*
X102505000Y-129975000D02*
X104505000Y-129975000D01*
X104505000Y-127835000D02*
X102505000Y-127835000D01*
X102505000Y-127435000D02*
X104505000Y-127435000D01*
X104505000Y-125295000D02*
X102505000Y-125295000D01*
X102505000Y-119815000D02*
X104505000Y-119815000D01*
X104505000Y-117675000D02*
X102505000Y-117675000D01*
D12*
X45725000Y-130005000D02*
X45750000Y-130005000D01*
X45725000Y-134155000D02*
X45830000Y-134155000D01*
X55875000Y-134155000D02*
X55770000Y-134155000D01*
X55875000Y-130005000D02*
X55770000Y-130005000D01*
X45725000Y-130005000D02*
X45725000Y-134155000D01*
X55875000Y-130005000D02*
X55875000Y-134155000D01*
X45750000Y-130005000D02*
X45750000Y-128630000D01*
X76205000Y-130005000D02*
X76230000Y-130005000D01*
X76205000Y-134155000D02*
X76310000Y-134155000D01*
X86355000Y-134155000D02*
X86250000Y-134155000D01*
X86355000Y-130005000D02*
X86250000Y-130005000D01*
X76205000Y-130005000D02*
X76205000Y-134155000D01*
X86355000Y-130005000D02*
X86355000Y-134155000D01*
X76230000Y-130005000D02*
X76230000Y-128630000D01*
X60965000Y-123020000D02*
X60990000Y-123020000D01*
X60965000Y-127170000D02*
X61070000Y-127170000D01*
X71115000Y-127170000D02*
X71010000Y-127170000D01*
X71115000Y-123020000D02*
X71010000Y-123020000D01*
X60965000Y-123020000D02*
X60965000Y-127170000D01*
X71115000Y-123020000D02*
X71115000Y-127170000D01*
X60990000Y-123020000D02*
X60990000Y-121645000D01*
D11*
X133715000Y-91640000D02*
X131715000Y-91640000D01*
X131715000Y-93780000D02*
X133715000Y-93780000D01*
D12*
X111755000Y-65235000D02*
X111780000Y-65235000D01*
X111755000Y-69385000D02*
X111870000Y-69385000D01*
X120655000Y-69385000D02*
X120540000Y-69385000D01*
X120655000Y-65235000D02*
X120540000Y-65235000D01*
X111755000Y-65235000D02*
X111755000Y-69385000D01*
X120655000Y-65235000D02*
X120655000Y-69385000D01*
X111780000Y-65235000D02*
X111780000Y-63860000D01*
X109685000Y-130210000D02*
X109685000Y-130160000D01*
X113835000Y-130210000D02*
X113835000Y-130065000D01*
X113835000Y-125060000D02*
X113835000Y-125205000D01*
X109685000Y-125060000D02*
X109685000Y-125205000D01*
X109685000Y-130210000D02*
X113835000Y-130210000D01*
X109685000Y-125060000D02*
X113835000Y-125060000D01*
X109685000Y-130160000D02*
X108285000Y-130160000D01*
X109685000Y-120050000D02*
X109685000Y-120000000D01*
X113835000Y-120050000D02*
X113835000Y-119905000D01*
X113835000Y-114900000D02*
X113835000Y-115045000D01*
X109685000Y-114900000D02*
X109685000Y-115045000D01*
X109685000Y-120050000D02*
X113835000Y-120050000D01*
X109685000Y-114900000D02*
X113835000Y-114900000D01*
X109685000Y-120000000D02*
X108285000Y-120000000D01*
D11*
X117110000Y-104390000D02*
X119110000Y-104390000D01*
X119110000Y-106430000D02*
X117110000Y-106430000D01*
X117110000Y-108200000D02*
X119110000Y-108200000D01*
X119110000Y-110240000D02*
X117110000Y-110240000D01*
X123555000Y-113865000D02*
X121555000Y-113865000D01*
X121555000Y-116005000D02*
X123555000Y-116005000D01*
X127835000Y-115840000D02*
X127835000Y-117840000D01*
X129975000Y-117840000D02*
X129975000Y-115840000D01*
D12*
X110021666Y-55602143D02*
X110069285Y-55649762D01*
X110212142Y-55697381D01*
X110307380Y-55697381D01*
X110450238Y-55649762D01*
X110545476Y-55554524D01*
X110593095Y-55459286D01*
X110640714Y-55268810D01*
X110640714Y-55125952D01*
X110593095Y-54935476D01*
X110545476Y-54840238D01*
X110450238Y-54745000D01*
X110307380Y-54697381D01*
X110212142Y-54697381D01*
X110069285Y-54745000D01*
X110021666Y-54792619D01*
X109069285Y-55697381D02*
X109640714Y-55697381D01*
X109355000Y-55697381D02*
X109355000Y-54697381D01*
X109450238Y-54840238D01*
X109545476Y-54935476D01*
X109640714Y-54983095D01*
X118911666Y-55602143D02*
X118959285Y-55649762D01*
X119102142Y-55697381D01*
X119197380Y-55697381D01*
X119340238Y-55649762D01*
X119435476Y-55554524D01*
X119483095Y-55459286D01*
X119530714Y-55268810D01*
X119530714Y-55125952D01*
X119483095Y-54935476D01*
X119435476Y-54840238D01*
X119340238Y-54745000D01*
X119197380Y-54697381D01*
X119102142Y-54697381D01*
X118959285Y-54745000D01*
X118911666Y-54792619D01*
X118530714Y-54792619D02*
X118483095Y-54745000D01*
X118387857Y-54697381D01*
X118149761Y-54697381D01*
X118054523Y-54745000D01*
X118006904Y-54792619D01*
X117959285Y-54887857D01*
X117959285Y-54983095D01*
X118006904Y-55125952D01*
X118578333Y-55697381D01*
X117959285Y-55697381D01*
X127801666Y-55602143D02*
X127849285Y-55649762D01*
X127992142Y-55697381D01*
X128087380Y-55697381D01*
X128230238Y-55649762D01*
X128325476Y-55554524D01*
X128373095Y-55459286D01*
X128420714Y-55268810D01*
X128420714Y-55125952D01*
X128373095Y-54935476D01*
X128325476Y-54840238D01*
X128230238Y-54745000D01*
X128087380Y-54697381D01*
X127992142Y-54697381D01*
X127849285Y-54745000D01*
X127801666Y-54792619D01*
X127468333Y-54697381D02*
X126849285Y-54697381D01*
X127182619Y-55078333D01*
X127039761Y-55078333D01*
X126944523Y-55125952D01*
X126896904Y-55173571D01*
X126849285Y-55268810D01*
X126849285Y-55506905D01*
X126896904Y-55602143D01*
X126944523Y-55649762D01*
X127039761Y-55697381D01*
X127325476Y-55697381D01*
X127420714Y-55649762D01*
X127468333Y-55602143D01*
X116371666Y-75287143D02*
X116419285Y-75334762D01*
X116562142Y-75382381D01*
X116657380Y-75382381D01*
X116800238Y-75334762D01*
X116895476Y-75239524D01*
X116943095Y-75144286D01*
X116990714Y-74953810D01*
X116990714Y-74810952D01*
X116943095Y-74620476D01*
X116895476Y-74525238D01*
X116800238Y-74430000D01*
X116657380Y-74382381D01*
X116562142Y-74382381D01*
X116419285Y-74430000D01*
X116371666Y-74477619D01*
X115800238Y-74810952D02*
X115895476Y-74763333D01*
X115943095Y-74715714D01*
X115990714Y-74620476D01*
X115990714Y-74572857D01*
X115943095Y-74477619D01*
X115895476Y-74430000D01*
X115800238Y-74382381D01*
X115609761Y-74382381D01*
X115514523Y-74430000D01*
X115466904Y-74477619D01*
X115419285Y-74572857D01*
X115419285Y-74620476D01*
X115466904Y-74715714D01*
X115514523Y-74763333D01*
X115609761Y-74810952D01*
X115800238Y-74810952D01*
X115895476Y-74858571D01*
X115943095Y-74906190D01*
X115990714Y-75001429D01*
X115990714Y-75191905D01*
X115943095Y-75287143D01*
X115895476Y-75334762D01*
X115800238Y-75382381D01*
X115609761Y-75382381D01*
X115514523Y-75334762D01*
X115466904Y-75287143D01*
X115419285Y-75191905D01*
X115419285Y-75001429D01*
X115466904Y-74906190D01*
X115514523Y-74858571D01*
X115609761Y-74810952D01*
X108307143Y-132072143D02*
X108354762Y-132024524D01*
X108402381Y-131881667D01*
X108402381Y-131786429D01*
X108354762Y-131643571D01*
X108259524Y-131548333D01*
X108164286Y-131500714D01*
X107973810Y-131453095D01*
X107830952Y-131453095D01*
X107640476Y-131500714D01*
X107545238Y-131548333D01*
X107450000Y-131643571D01*
X107402381Y-131786429D01*
X107402381Y-131881667D01*
X107450000Y-132024524D01*
X107497619Y-132072143D01*
X108402381Y-133024524D02*
X108402381Y-132453095D01*
X108402381Y-132738809D02*
X107402381Y-132738809D01*
X107545238Y-132643571D01*
X107640476Y-132548333D01*
X107688095Y-132453095D01*
X107402381Y-133881667D02*
X107402381Y-133691190D01*
X107450000Y-133595952D01*
X107497619Y-133548333D01*
X107640476Y-133453095D01*
X107830952Y-133405476D01*
X108211905Y-133405476D01*
X108307143Y-133453095D01*
X108354762Y-133500714D01*
X108402381Y-133595952D01*
X108402381Y-133786429D01*
X108354762Y-133881667D01*
X108307143Y-133929286D01*
X108211905Y-133976905D01*
X107973810Y-133976905D01*
X107878571Y-133929286D01*
X107830952Y-133881667D01*
X107783333Y-133786429D01*
X107783333Y-133595952D01*
X107830952Y-133500714D01*
X107878571Y-133453095D01*
X107973810Y-133405476D01*
X108307143Y-121912143D02*
X108354762Y-121864524D01*
X108402381Y-121721667D01*
X108402381Y-121626429D01*
X108354762Y-121483571D01*
X108259524Y-121388333D01*
X108164286Y-121340714D01*
X107973810Y-121293095D01*
X107830952Y-121293095D01*
X107640476Y-121340714D01*
X107545238Y-121388333D01*
X107450000Y-121483571D01*
X107402381Y-121626429D01*
X107402381Y-121721667D01*
X107450000Y-121864524D01*
X107497619Y-121912143D01*
X108402381Y-122864524D02*
X108402381Y-122293095D01*
X108402381Y-122578809D02*
X107402381Y-122578809D01*
X107545238Y-122483571D01*
X107640476Y-122388333D01*
X107688095Y-122293095D01*
X107402381Y-123197857D02*
X107402381Y-123864524D01*
X108402381Y-123435952D01*
X140501666Y-102052381D02*
X140835000Y-101576190D01*
X141073095Y-102052381D02*
X141073095Y-101052381D01*
X140692142Y-101052381D01*
X140596904Y-101100000D01*
X140549285Y-101147619D01*
X140501666Y-101242857D01*
X140501666Y-101385714D01*
X140549285Y-101480952D01*
X140596904Y-101528571D01*
X140692142Y-101576190D01*
X141073095Y-101576190D01*
X139549285Y-102052381D02*
X140120714Y-102052381D01*
X139835000Y-102052381D02*
X139835000Y-101052381D01*
X139930238Y-101195238D01*
X140025476Y-101290476D01*
X140120714Y-101338095D01*
X140501666Y-91312381D02*
X140835000Y-90836190D01*
X141073095Y-91312381D02*
X141073095Y-90312381D01*
X140692142Y-90312381D01*
X140596904Y-90360000D01*
X140549285Y-90407619D01*
X140501666Y-90502857D01*
X140501666Y-90645714D01*
X140549285Y-90740952D01*
X140596904Y-90788571D01*
X140692142Y-90836190D01*
X141073095Y-90836190D01*
X140120714Y-90407619D02*
X140073095Y-90360000D01*
X139977857Y-90312381D01*
X139739761Y-90312381D01*
X139644523Y-90360000D01*
X139596904Y-90407619D01*
X139549285Y-90502857D01*
X139549285Y-90598095D01*
X139596904Y-90740952D01*
X140168333Y-91312381D01*
X139549285Y-91312381D01*
X132881666Y-101997381D02*
X133215000Y-101521190D01*
X133453095Y-101997381D02*
X133453095Y-100997381D01*
X133072142Y-100997381D01*
X132976904Y-101045000D01*
X132929285Y-101092619D01*
X132881666Y-101187857D01*
X132881666Y-101330714D01*
X132929285Y-101425952D01*
X132976904Y-101473571D01*
X133072142Y-101521190D01*
X133453095Y-101521190D01*
X132548333Y-100997381D02*
X131929285Y-100997381D01*
X132262619Y-101378333D01*
X132119761Y-101378333D01*
X132024523Y-101425952D01*
X131976904Y-101473571D01*
X131929285Y-101568810D01*
X131929285Y-101806905D01*
X131976904Y-101902143D01*
X132024523Y-101949762D01*
X132119761Y-101997381D01*
X132405476Y-101997381D01*
X132500714Y-101949762D01*
X132548333Y-101902143D01*
X113831666Y-55697381D02*
X114165000Y-55221190D01*
X114403095Y-55697381D02*
X114403095Y-54697381D01*
X114022142Y-54697381D01*
X113926904Y-54745000D01*
X113879285Y-54792619D01*
X113831666Y-54887857D01*
X113831666Y-55030714D01*
X113879285Y-55125952D01*
X113926904Y-55173571D01*
X114022142Y-55221190D01*
X114403095Y-55221190D01*
X112974523Y-55030714D02*
X112974523Y-55697381D01*
X113212619Y-54649762D02*
X113450714Y-55364048D01*
X112831666Y-55364048D01*
X122721666Y-55697381D02*
X123055000Y-55221190D01*
X123293095Y-55697381D02*
X123293095Y-54697381D01*
X122912142Y-54697381D01*
X122816904Y-54745000D01*
X122769285Y-54792619D01*
X122721666Y-54887857D01*
X122721666Y-55030714D01*
X122769285Y-55125952D01*
X122816904Y-55173571D01*
X122912142Y-55221190D01*
X123293095Y-55221190D01*
X121816904Y-54697381D02*
X122293095Y-54697381D01*
X122340714Y-55173571D01*
X122293095Y-55125952D01*
X122197857Y-55078333D01*
X121959761Y-55078333D01*
X121864523Y-55125952D01*
X121816904Y-55173571D01*
X121769285Y-55268810D01*
X121769285Y-55506905D01*
X121816904Y-55602143D01*
X121864523Y-55649762D01*
X121959761Y-55697381D01*
X122197857Y-55697381D01*
X122293095Y-55649762D01*
X122340714Y-55602143D01*
X131611666Y-55697381D02*
X131945000Y-55221190D01*
X132183095Y-55697381D02*
X132183095Y-54697381D01*
X131802142Y-54697381D01*
X131706904Y-54745000D01*
X131659285Y-54792619D01*
X131611666Y-54887857D01*
X131611666Y-55030714D01*
X131659285Y-55125952D01*
X131706904Y-55173571D01*
X131802142Y-55221190D01*
X132183095Y-55221190D01*
X130754523Y-54697381D02*
X130945000Y-54697381D01*
X131040238Y-54745000D01*
X131087857Y-54792619D01*
X131183095Y-54935476D01*
X131230714Y-55125952D01*
X131230714Y-55506905D01*
X131183095Y-55602143D01*
X131135476Y-55649762D01*
X131040238Y-55697381D01*
X130849761Y-55697381D01*
X130754523Y-55649762D01*
X130706904Y-55602143D01*
X130659285Y-55506905D01*
X130659285Y-55268810D01*
X130706904Y-55173571D01*
X130754523Y-55125952D01*
X130849761Y-55078333D01*
X131040238Y-55078333D01*
X131135476Y-55125952D01*
X131183095Y-55173571D01*
X131230714Y-55268810D01*
X100147381Y-128897143D02*
X99671190Y-128563809D01*
X100147381Y-128325714D02*
X99147381Y-128325714D01*
X99147381Y-128706667D01*
X99195000Y-128801905D01*
X99242619Y-128849524D01*
X99337857Y-128897143D01*
X99480714Y-128897143D01*
X99575952Y-128849524D01*
X99623571Y-128801905D01*
X99671190Y-128706667D01*
X99671190Y-128325714D01*
X99147381Y-129230476D02*
X99147381Y-129849524D01*
X99528333Y-129516190D01*
X99528333Y-129659048D01*
X99575952Y-129754286D01*
X99623571Y-129801905D01*
X99718810Y-129849524D01*
X99956905Y-129849524D01*
X100052143Y-129801905D01*
X100099762Y-129754286D01*
X100147381Y-129659048D01*
X100147381Y-129373333D01*
X100099762Y-129278095D01*
X100052143Y-129230476D01*
X99147381Y-130182857D02*
X99147381Y-130849524D01*
X100147381Y-130420952D01*
X100147381Y-125087143D02*
X99671190Y-124753809D01*
X100147381Y-124515714D02*
X99147381Y-124515714D01*
X99147381Y-124896667D01*
X99195000Y-124991905D01*
X99242619Y-125039524D01*
X99337857Y-125087143D01*
X99480714Y-125087143D01*
X99575952Y-125039524D01*
X99623571Y-124991905D01*
X99671190Y-124896667D01*
X99671190Y-124515714D01*
X99147381Y-125420476D02*
X99147381Y-126039524D01*
X99528333Y-125706190D01*
X99528333Y-125849048D01*
X99575952Y-125944286D01*
X99623571Y-125991905D01*
X99718810Y-126039524D01*
X99956905Y-126039524D01*
X100052143Y-125991905D01*
X100099762Y-125944286D01*
X100147381Y-125849048D01*
X100147381Y-125563333D01*
X100099762Y-125468095D01*
X100052143Y-125420476D01*
X99575952Y-126610952D02*
X99528333Y-126515714D01*
X99480714Y-126468095D01*
X99385476Y-126420476D01*
X99337857Y-126420476D01*
X99242619Y-126468095D01*
X99195000Y-126515714D01*
X99147381Y-126610952D01*
X99147381Y-126801429D01*
X99195000Y-126896667D01*
X99242619Y-126944286D01*
X99337857Y-126991905D01*
X99385476Y-126991905D01*
X99480714Y-126944286D01*
X99528333Y-126896667D01*
X99575952Y-126801429D01*
X99575952Y-126610952D01*
X99623571Y-126515714D01*
X99671190Y-126468095D01*
X99766429Y-126420476D01*
X99956905Y-126420476D01*
X100052143Y-126468095D01*
X100099762Y-126515714D01*
X100147381Y-126610952D01*
X100147381Y-126801429D01*
X100099762Y-126896667D01*
X100052143Y-126944286D01*
X99956905Y-126991905D01*
X99766429Y-126991905D01*
X99671190Y-126944286D01*
X99623571Y-126896667D01*
X99575952Y-126801429D01*
X100147381Y-118102143D02*
X99671190Y-117768809D01*
X100147381Y-117530714D02*
X99147381Y-117530714D01*
X99147381Y-117911667D01*
X99195000Y-118006905D01*
X99242619Y-118054524D01*
X99337857Y-118102143D01*
X99480714Y-118102143D01*
X99575952Y-118054524D01*
X99623571Y-118006905D01*
X99671190Y-117911667D01*
X99671190Y-117530714D01*
X99147381Y-118435476D02*
X99147381Y-119054524D01*
X99528333Y-118721190D01*
X99528333Y-118864048D01*
X99575952Y-118959286D01*
X99623571Y-119006905D01*
X99718810Y-119054524D01*
X99956905Y-119054524D01*
X100052143Y-119006905D01*
X100099762Y-118959286D01*
X100147381Y-118864048D01*
X100147381Y-118578333D01*
X100099762Y-118483095D01*
X100052143Y-118435476D01*
X100147381Y-119530714D02*
X100147381Y-119721190D01*
X100099762Y-119816429D01*
X100052143Y-119864048D01*
X99909286Y-119959286D01*
X99718810Y-120006905D01*
X99337857Y-120006905D01*
X99242619Y-119959286D01*
X99195000Y-119911667D01*
X99147381Y-119816429D01*
X99147381Y-119625952D01*
X99195000Y-119530714D01*
X99242619Y-119483095D01*
X99337857Y-119435476D01*
X99575952Y-119435476D01*
X99671190Y-119483095D01*
X99718810Y-119530714D01*
X99766429Y-119625952D01*
X99766429Y-119816429D01*
X99718810Y-119911667D01*
X99671190Y-119959286D01*
X99575952Y-120006905D01*
X45252381Y-131413334D02*
X44776190Y-131080000D01*
X45252381Y-130841905D02*
X44252381Y-130841905D01*
X44252381Y-131222858D01*
X44300000Y-131318096D01*
X44347619Y-131365715D01*
X44442857Y-131413334D01*
X44585714Y-131413334D01*
X44680952Y-131365715D01*
X44728571Y-131318096D01*
X44776190Y-131222858D01*
X44776190Y-130841905D01*
X45252381Y-131841905D02*
X44252381Y-131841905D01*
X44252381Y-132222858D01*
X44300000Y-132318096D01*
X44347619Y-132365715D01*
X44442857Y-132413334D01*
X44585714Y-132413334D01*
X44680952Y-132365715D01*
X44728571Y-132318096D01*
X44776190Y-132222858D01*
X44776190Y-131841905D01*
X45252381Y-133365715D02*
X45252381Y-132794286D01*
X45252381Y-133080000D02*
X44252381Y-133080000D01*
X44395238Y-132984762D01*
X44490476Y-132889524D01*
X44538095Y-132794286D01*
X75732381Y-131413334D02*
X75256190Y-131080000D01*
X75732381Y-130841905D02*
X74732381Y-130841905D01*
X74732381Y-131222858D01*
X74780000Y-131318096D01*
X74827619Y-131365715D01*
X74922857Y-131413334D01*
X75065714Y-131413334D01*
X75160952Y-131365715D01*
X75208571Y-131318096D01*
X75256190Y-131222858D01*
X75256190Y-130841905D01*
X75732381Y-131841905D02*
X74732381Y-131841905D01*
X74732381Y-132222858D01*
X74780000Y-132318096D01*
X74827619Y-132365715D01*
X74922857Y-132413334D01*
X75065714Y-132413334D01*
X75160952Y-132365715D01*
X75208571Y-132318096D01*
X75256190Y-132222858D01*
X75256190Y-131841905D01*
X74827619Y-132794286D02*
X74780000Y-132841905D01*
X74732381Y-132937143D01*
X74732381Y-133175239D01*
X74780000Y-133270477D01*
X74827619Y-133318096D01*
X74922857Y-133365715D01*
X75018095Y-133365715D01*
X75160952Y-133318096D01*
X75732381Y-132746667D01*
X75732381Y-133365715D01*
X60492381Y-124428334D02*
X60016190Y-124095000D01*
X60492381Y-123856905D02*
X59492381Y-123856905D01*
X59492381Y-124237858D01*
X59540000Y-124333096D01*
X59587619Y-124380715D01*
X59682857Y-124428334D01*
X59825714Y-124428334D01*
X59920952Y-124380715D01*
X59968571Y-124333096D01*
X60016190Y-124237858D01*
X60016190Y-123856905D01*
X60492381Y-124856905D02*
X59492381Y-124856905D01*
X59492381Y-125237858D01*
X59540000Y-125333096D01*
X59587619Y-125380715D01*
X59682857Y-125428334D01*
X59825714Y-125428334D01*
X59920952Y-125380715D01*
X59968571Y-125333096D01*
X60016190Y-125237858D01*
X60016190Y-124856905D01*
X59492381Y-125761667D02*
X59492381Y-126380715D01*
X59873333Y-126047381D01*
X59873333Y-126190239D01*
X59920952Y-126285477D01*
X59968571Y-126333096D01*
X60063810Y-126380715D01*
X60301905Y-126380715D01*
X60397143Y-126333096D01*
X60444762Y-126285477D01*
X60492381Y-126190239D01*
X60492381Y-125904524D01*
X60444762Y-125809286D01*
X60397143Y-125761667D01*
X133357857Y-95012381D02*
X133691191Y-94536190D01*
X133929286Y-95012381D02*
X133929286Y-94012381D01*
X133548333Y-94012381D01*
X133453095Y-94060000D01*
X133405476Y-94107619D01*
X133357857Y-94202857D01*
X133357857Y-94345714D01*
X133405476Y-94440952D01*
X133453095Y-94488571D01*
X133548333Y-94536190D01*
X133929286Y-94536190D01*
X132405476Y-95012381D02*
X132976905Y-95012381D01*
X132691191Y-95012381D02*
X132691191Y-94012381D01*
X132786429Y-94155238D01*
X132881667Y-94250476D01*
X132976905Y-94298095D01*
X132072143Y-94012381D02*
X131453095Y-94012381D01*
X131786429Y-94393333D01*
X131643571Y-94393333D01*
X131548333Y-94440952D01*
X131500714Y-94488571D01*
X131453095Y-94583810D01*
X131453095Y-94821905D01*
X131500714Y-94917143D01*
X131548333Y-94964762D01*
X131643571Y-95012381D01*
X131929286Y-95012381D01*
X132024524Y-94964762D01*
X132072143Y-94917143D01*
X110282381Y-66548095D02*
X111091905Y-66548095D01*
X111187143Y-66595714D01*
X111234762Y-66643333D01*
X111282381Y-66738571D01*
X111282381Y-66929048D01*
X111234762Y-67024286D01*
X111187143Y-67071905D01*
X111091905Y-67119524D01*
X110282381Y-67119524D01*
X111282381Y-68119524D02*
X111282381Y-67548095D01*
X111282381Y-67833809D02*
X110282381Y-67833809D01*
X110425238Y-67738571D01*
X110520476Y-67643333D01*
X110568095Y-67548095D01*
X115657381Y-126873095D02*
X116466905Y-126873095D01*
X116562143Y-126920714D01*
X116609762Y-126968333D01*
X116657381Y-127063571D01*
X116657381Y-127254048D01*
X116609762Y-127349286D01*
X116562143Y-127396905D01*
X116466905Y-127444524D01*
X115657381Y-127444524D01*
X115657381Y-128396905D02*
X115657381Y-127920714D01*
X116133571Y-127873095D01*
X116085952Y-127920714D01*
X116038333Y-128015952D01*
X116038333Y-128254048D01*
X116085952Y-128349286D01*
X116133571Y-128396905D01*
X116228810Y-128444524D01*
X116466905Y-128444524D01*
X116562143Y-128396905D01*
X116609762Y-128349286D01*
X116657381Y-128254048D01*
X116657381Y-128015952D01*
X116609762Y-127920714D01*
X116562143Y-127873095D01*
X115657381Y-116713095D02*
X116466905Y-116713095D01*
X116562143Y-116760714D01*
X116609762Y-116808333D01*
X116657381Y-116903571D01*
X116657381Y-117094048D01*
X116609762Y-117189286D01*
X116562143Y-117236905D01*
X116466905Y-117284524D01*
X115657381Y-117284524D01*
X115657381Y-118189286D02*
X115657381Y-117998809D01*
X115705000Y-117903571D01*
X115752619Y-117855952D01*
X115895476Y-117760714D01*
X116085952Y-117713095D01*
X116466905Y-117713095D01*
X116562143Y-117760714D01*
X116609762Y-117808333D01*
X116657381Y-117903571D01*
X116657381Y-118094048D01*
X116609762Y-118189286D01*
X116562143Y-118236905D01*
X116466905Y-118284524D01*
X116228810Y-118284524D01*
X116133571Y-118236905D01*
X116085952Y-118189286D01*
X116038333Y-118094048D01*
X116038333Y-117903571D01*
X116085952Y-117808333D01*
X116133571Y-117760714D01*
X116228810Y-117713095D01*
X118752857Y-107672143D02*
X118800476Y-107719762D01*
X118943333Y-107767381D01*
X119038571Y-107767381D01*
X119181429Y-107719762D01*
X119276667Y-107624524D01*
X119324286Y-107529286D01*
X119371905Y-107338810D01*
X119371905Y-107195952D01*
X119324286Y-107005476D01*
X119276667Y-106910238D01*
X119181429Y-106815000D01*
X119038571Y-106767381D01*
X118943333Y-106767381D01*
X118800476Y-106815000D01*
X118752857Y-106862619D01*
X117800476Y-107767381D02*
X118371905Y-107767381D01*
X118086191Y-107767381D02*
X118086191Y-106767381D01*
X118181429Y-106910238D01*
X118276667Y-107005476D01*
X118371905Y-107053095D01*
X117229048Y-107195952D02*
X117324286Y-107148333D01*
X117371905Y-107100714D01*
X117419524Y-107005476D01*
X117419524Y-106957857D01*
X117371905Y-106862619D01*
X117324286Y-106815000D01*
X117229048Y-106767381D01*
X117038571Y-106767381D01*
X116943333Y-106815000D01*
X116895714Y-106862619D01*
X116848095Y-106957857D01*
X116848095Y-107005476D01*
X116895714Y-107100714D01*
X116943333Y-107148333D01*
X117038571Y-107195952D01*
X117229048Y-107195952D01*
X117324286Y-107243571D01*
X117371905Y-107291190D01*
X117419524Y-107386429D01*
X117419524Y-107576905D01*
X117371905Y-107672143D01*
X117324286Y-107719762D01*
X117229048Y-107767381D01*
X117038571Y-107767381D01*
X116943333Y-107719762D01*
X116895714Y-107672143D01*
X116848095Y-107576905D01*
X116848095Y-107386429D01*
X116895714Y-107291190D01*
X116943333Y-107243571D01*
X117038571Y-107195952D01*
X118752857Y-111482143D02*
X118800476Y-111529762D01*
X118943333Y-111577381D01*
X119038571Y-111577381D01*
X119181429Y-111529762D01*
X119276667Y-111434524D01*
X119324286Y-111339286D01*
X119371905Y-111148810D01*
X119371905Y-111005952D01*
X119324286Y-110815476D01*
X119276667Y-110720238D01*
X119181429Y-110625000D01*
X119038571Y-110577381D01*
X118943333Y-110577381D01*
X118800476Y-110625000D01*
X118752857Y-110672619D01*
X117800476Y-111577381D02*
X118371905Y-111577381D01*
X118086191Y-111577381D02*
X118086191Y-110577381D01*
X118181429Y-110720238D01*
X118276667Y-110815476D01*
X118371905Y-110863095D01*
X117324286Y-111577381D02*
X117133810Y-111577381D01*
X117038571Y-111529762D01*
X116990952Y-111482143D01*
X116895714Y-111339286D01*
X116848095Y-111148810D01*
X116848095Y-110767857D01*
X116895714Y-110672619D01*
X116943333Y-110625000D01*
X117038571Y-110577381D01*
X117229048Y-110577381D01*
X117324286Y-110625000D01*
X117371905Y-110672619D01*
X117419524Y-110767857D01*
X117419524Y-111005952D01*
X117371905Y-111101190D01*
X117324286Y-111148810D01*
X117229048Y-111196429D01*
X117038571Y-111196429D01*
X116943333Y-111148810D01*
X116895714Y-111101190D01*
X116848095Y-111005952D01*
X119197381Y-114292143D02*
X118721190Y-113958809D01*
X119197381Y-113720714D02*
X118197381Y-113720714D01*
X118197381Y-114101667D01*
X118245000Y-114196905D01*
X118292619Y-114244524D01*
X118387857Y-114292143D01*
X118530714Y-114292143D01*
X118625952Y-114244524D01*
X118673571Y-114196905D01*
X118721190Y-114101667D01*
X118721190Y-113720714D01*
X118530714Y-115149286D02*
X119197381Y-115149286D01*
X118149762Y-114911190D02*
X118864048Y-114673095D01*
X118864048Y-115292143D01*
X118197381Y-115863571D02*
X118197381Y-115958810D01*
X118245000Y-116054048D01*
X118292619Y-116101667D01*
X118387857Y-116149286D01*
X118578333Y-116196905D01*
X118816429Y-116196905D01*
X119006905Y-116149286D01*
X119102143Y-116101667D01*
X119149762Y-116054048D01*
X119197381Y-115958810D01*
X119197381Y-115863571D01*
X119149762Y-115768333D01*
X119102143Y-115720714D01*
X119006905Y-115673095D01*
X118816429Y-115625476D01*
X118578333Y-115625476D01*
X118387857Y-115673095D01*
X118292619Y-115720714D01*
X118245000Y-115768333D01*
X118197381Y-115863571D01*
X129547857Y-121102381D02*
X129881191Y-120626190D01*
X130119286Y-121102381D02*
X130119286Y-120102381D01*
X129738333Y-120102381D01*
X129643095Y-120150000D01*
X129595476Y-120197619D01*
X129547857Y-120292857D01*
X129547857Y-120435714D01*
X129595476Y-120530952D01*
X129643095Y-120578571D01*
X129738333Y-120626190D01*
X130119286Y-120626190D01*
X128690714Y-120435714D02*
X128690714Y-121102381D01*
X128928810Y-120054762D02*
X129166905Y-120769048D01*
X128547857Y-120769048D01*
X127643095Y-121102381D02*
X128214524Y-121102381D01*
X127928810Y-121102381D02*
X127928810Y-120102381D01*
X128024048Y-120245238D01*
X128119286Y-120340476D01*
X128214524Y-120388095D01*
M02*
