G04 #@! TF.FileFunction,Soldermask,Top*
%FSLAX46Y46*%
G04 Gerber Fmt 4.6, Leading zero omitted, Abs format (unit mm)*
G04 Created by KiCad (PCBNEW 4.0.7) date 01/22/18 20:22:31*
%MOMM*%
%LPD*%
G01*
G04 APERTURE LIST*
%ADD10C,0.100000*%
%ADD11R,2.100000X2.100000*%
%ADD12O,2.100000X2.100000*%
%ADD13C,6.400000*%
%ADD14R,2.400000X2.000000*%
%ADD15R,2.000000X2.400000*%
%ADD16R,2.200000X2.200000*%
%ADD17C,2.200000*%
%ADD18C,2.051000*%
%ADD19R,2.100000X2.400000*%
%ADD20R,0.800000X1.500000*%
%ADD21R,1.000000X1.900000*%
%ADD22C,3.900000*%
%ADD23O,2.200000X2.200000*%
%ADD24R,2.100000X3.100000*%
%ADD25R,1.700000X3.100000*%
%ADD26C,4.464000*%
%ADD27C,6.800000*%
%ADD28C,1.200000*%
%ADD29R,1.900000X1.000000*%
G04 APERTURE END LIST*
D10*
D11*
X90577380Y-77161480D03*
D12*
X90577380Y-74621480D03*
X88037380Y-77161480D03*
X88037380Y-74621480D03*
X85497380Y-77161480D03*
X85497380Y-74621480D03*
X82957380Y-77161480D03*
X82957380Y-74621480D03*
X80417380Y-77161480D03*
X80417380Y-74621480D03*
X77877380Y-77161480D03*
X77877380Y-74621480D03*
X75337380Y-77161480D03*
X75337380Y-74621480D03*
X72797380Y-77161480D03*
X72797380Y-74621480D03*
X70257380Y-77161480D03*
X70257380Y-74621480D03*
X67717380Y-77161480D03*
X67717380Y-74621480D03*
X65177380Y-77161480D03*
X65177380Y-74621480D03*
X62637380Y-77161480D03*
X62637380Y-74621480D03*
X60097380Y-77161480D03*
X60097380Y-74621480D03*
X57557380Y-77161480D03*
X57557380Y-74621480D03*
X55017380Y-77161480D03*
X55017380Y-74621480D03*
X52477380Y-77161480D03*
X52477380Y-74621480D03*
X49937380Y-77161480D03*
X49937380Y-74621480D03*
X47397380Y-77161480D03*
X47397380Y-74621480D03*
X44857380Y-77161480D03*
X44857380Y-74621480D03*
X42317380Y-77161480D03*
X42317380Y-74621480D03*
D13*
X37470000Y-75890000D03*
X37470000Y-124890000D03*
X95470000Y-75890000D03*
X95470000Y-124890000D03*
D14*
X93440000Y-111760000D03*
X89440000Y-111760000D03*
X93440000Y-106680000D03*
X89440000Y-106680000D03*
X93440000Y-101600000D03*
X89440000Y-101600000D03*
X93440000Y-96520000D03*
X89440000Y-96520000D03*
D15*
X77470000Y-69310000D03*
X77470000Y-65310000D03*
X57785000Y-123730000D03*
X57785000Y-127730000D03*
X88265000Y-123730000D03*
X88265000Y-127730000D03*
D14*
X83280000Y-106680000D03*
X79280000Y-106680000D03*
X67405000Y-106680000D03*
X63405000Y-106680000D03*
D15*
X78105000Y-57690000D03*
X78105000Y-61690000D03*
X86995000Y-57690000D03*
X86995000Y-61690000D03*
D16*
X139700000Y-102870000D03*
D17*
X142240000Y-102870000D03*
D16*
X139700000Y-96520000D03*
D17*
X142240000Y-96520000D03*
D16*
X133350000Y-102870000D03*
D17*
X135890000Y-102870000D03*
D18*
X133350000Y-87630000D03*
X135890000Y-87630000D03*
X138430000Y-87630000D03*
X140970000Y-87630000D03*
X85090000Y-53340000D03*
X85090000Y-50800000D03*
X85090000Y-48260000D03*
X93980000Y-58420000D03*
X93980000Y-55880000D03*
X93980000Y-53340000D03*
X93980000Y-50800000D03*
X93980000Y-48260000D03*
X102870000Y-58420000D03*
X102870000Y-55880000D03*
X102870000Y-53340000D03*
X102870000Y-50800000D03*
X102870000Y-48260000D03*
X49530000Y-55880000D03*
X49530000Y-53340000D03*
X49530000Y-50800000D03*
X49530000Y-48260000D03*
X67310000Y-53340000D03*
X67310000Y-50800000D03*
X67310000Y-48260000D03*
X76200000Y-53340000D03*
X76200000Y-50800000D03*
X76200000Y-48260000D03*
X111760000Y-53340000D03*
X111760000Y-50800000D03*
X111760000Y-48260000D03*
X120650000Y-53340000D03*
X120650000Y-50800000D03*
X120650000Y-48260000D03*
X129540000Y-53340000D03*
X129540000Y-50800000D03*
X129540000Y-48260000D03*
X133350000Y-114300000D03*
X135890000Y-114300000D03*
X138430000Y-114300000D03*
X140970000Y-114300000D03*
X133350000Y-123190000D03*
X135890000Y-123190000D03*
X138430000Y-123190000D03*
X140970000Y-123190000D03*
X133350000Y-132080000D03*
X135890000Y-132080000D03*
X138430000Y-132080000D03*
X140970000Y-132080000D03*
X105410000Y-142240000D03*
X105410000Y-139700000D03*
X105410000Y-137160000D03*
X114300000Y-142240000D03*
X114300000Y-139700000D03*
X114300000Y-137160000D03*
X123190000Y-142240000D03*
X123190000Y-139700000D03*
X123190000Y-137160000D03*
X40640000Y-58420000D03*
X40640000Y-55880000D03*
X40640000Y-53340000D03*
X40640000Y-50800000D03*
X40640000Y-48260000D03*
X31750000Y-63500000D03*
X31750000Y-60960000D03*
X31750000Y-58420000D03*
X31750000Y-55880000D03*
X31750000Y-53340000D03*
X31750000Y-50800000D03*
X31750000Y-48260000D03*
X58420000Y-58420000D03*
X58420000Y-55880000D03*
X58420000Y-53340000D03*
X58420000Y-50800000D03*
X58420000Y-60960000D03*
X58420000Y-48260000D03*
D19*
X65405000Y-61690000D03*
X65405000Y-57690000D03*
X74295000Y-61690000D03*
X74295000Y-57690000D03*
X69215000Y-57690000D03*
X69215000Y-61690000D03*
X83185000Y-61690000D03*
X83185000Y-57690000D03*
X97790000Y-111220000D03*
X97790000Y-107220000D03*
X97790000Y-101060000D03*
X97790000Y-97060000D03*
X59055000Y-106775000D03*
X59055000Y-102775000D03*
X74930000Y-106775000D03*
X74930000Y-102775000D03*
D11*
X39370000Y-63500000D03*
D12*
X41910000Y-63500000D03*
X44450000Y-63500000D03*
X46990000Y-63500000D03*
D11*
X39370000Y-68580000D03*
D12*
X41910000Y-68580000D03*
X44450000Y-68580000D03*
X46990000Y-68580000D03*
X49530000Y-68580000D03*
D20*
X55025000Y-122880000D03*
X54375000Y-122880000D03*
X53725000Y-122880000D03*
X53075000Y-122880000D03*
X52425000Y-122880000D03*
X51775000Y-122880000D03*
X51125000Y-122880000D03*
X50475000Y-122880000D03*
X49825000Y-122880000D03*
X49175000Y-122880000D03*
X48525000Y-122880000D03*
X47875000Y-122880000D03*
X47225000Y-122880000D03*
X46575000Y-122880000D03*
X46575000Y-128580000D03*
X47225000Y-128580000D03*
X47875000Y-128580000D03*
X48525000Y-128580000D03*
X49175000Y-128580000D03*
X49825000Y-128580000D03*
X50475000Y-128580000D03*
X51125000Y-128580000D03*
X51775000Y-128580000D03*
X52425000Y-128580000D03*
X53075000Y-128580000D03*
X53725000Y-128580000D03*
X54375000Y-128580000D03*
X55025000Y-128580000D03*
X85505000Y-122880000D03*
X84855000Y-122880000D03*
X84205000Y-122880000D03*
X83555000Y-122880000D03*
X82905000Y-122880000D03*
X82255000Y-122880000D03*
X81605000Y-122880000D03*
X80955000Y-122880000D03*
X80305000Y-122880000D03*
X79655000Y-122880000D03*
X79005000Y-122880000D03*
X78355000Y-122880000D03*
X77705000Y-122880000D03*
X77055000Y-122880000D03*
X77055000Y-128580000D03*
X77705000Y-128580000D03*
X78355000Y-128580000D03*
X79005000Y-128580000D03*
X79655000Y-128580000D03*
X80305000Y-128580000D03*
X80955000Y-128580000D03*
X81605000Y-128580000D03*
X82255000Y-128580000D03*
X82905000Y-128580000D03*
X83555000Y-128580000D03*
X84205000Y-128580000D03*
X84855000Y-128580000D03*
X85505000Y-128580000D03*
D16*
X133350000Y-96520000D03*
D17*
X135890000Y-96520000D03*
D21*
X65405000Y-70010000D03*
X66675000Y-70010000D03*
X67945000Y-70010000D03*
X69215000Y-70010000D03*
X70485000Y-70010000D03*
X71755000Y-70010000D03*
X73025000Y-70010000D03*
X74295000Y-70010000D03*
X74295000Y-64610000D03*
X73025000Y-64610000D03*
X71755000Y-64610000D03*
X70485000Y-64610000D03*
X69215000Y-64610000D03*
X67945000Y-64610000D03*
X66675000Y-64610000D03*
X65405000Y-64610000D03*
D22*
X140130000Y-77030000D03*
X127630000Y-69530000D03*
X140130000Y-62030000D03*
D16*
X124460000Y-111125000D03*
D23*
X124460000Y-108585000D03*
X124460000Y-106045000D03*
D24*
X41345000Y-135680000D03*
D25*
X39370000Y-135680000D03*
D24*
X37395000Y-135680000D03*
D25*
X39370000Y-141180000D03*
D24*
X37395000Y-141180000D03*
X41345000Y-141180000D03*
X56585000Y-135680000D03*
D25*
X54610000Y-135680000D03*
D24*
X52635000Y-135680000D03*
D25*
X54610000Y-141180000D03*
D24*
X52635000Y-141180000D03*
X56585000Y-141180000D03*
X71825000Y-135680000D03*
D25*
X69850000Y-135680000D03*
D24*
X67875000Y-135680000D03*
D25*
X69850000Y-141180000D03*
D24*
X67875000Y-141180000D03*
X71825000Y-141180000D03*
X87065000Y-135680000D03*
D25*
X85090000Y-135680000D03*
D24*
X83115000Y-135680000D03*
D25*
X85090000Y-141180000D03*
D24*
X83115000Y-141180000D03*
X87065000Y-141180000D03*
X48965000Y-135680000D03*
D25*
X46990000Y-135680000D03*
D24*
X45015000Y-135680000D03*
D25*
X46990000Y-141180000D03*
D24*
X45015000Y-141180000D03*
X48965000Y-141180000D03*
X64205000Y-135680000D03*
D25*
X62230000Y-135680000D03*
D24*
X60255000Y-135680000D03*
D25*
X62230000Y-141180000D03*
D24*
X60255000Y-141180000D03*
X64205000Y-141180000D03*
X79445000Y-135680000D03*
D25*
X77470000Y-135680000D03*
D24*
X75495000Y-135680000D03*
D25*
X77470000Y-141180000D03*
D24*
X75495000Y-141180000D03*
X79445000Y-141180000D03*
X94685000Y-135680000D03*
D25*
X92710000Y-135680000D03*
D24*
X90735000Y-135680000D03*
D25*
X92710000Y-141180000D03*
D24*
X90735000Y-141180000D03*
X94685000Y-141180000D03*
D26*
X120967500Y-95885000D03*
X120967500Y-121285000D03*
D27*
X139700000Y-140970000D03*
D28*
X142100000Y-140970000D03*
X141397056Y-142667056D03*
X139700000Y-143370000D03*
X138002944Y-142667056D03*
X137300000Y-140970000D03*
X138002944Y-139272944D03*
X139700000Y-138570000D03*
X141397056Y-139272944D03*
D27*
X139700000Y-49530000D03*
D28*
X142100000Y-49530000D03*
X141397056Y-51227056D03*
X139700000Y-51930000D03*
X138002944Y-51227056D03*
X137300000Y-49530000D03*
X138002944Y-47832944D03*
X139700000Y-47130000D03*
X141397056Y-47832944D03*
D27*
X22860000Y-49530000D03*
D28*
X25260000Y-49530000D03*
X24557056Y-51227056D03*
X22860000Y-51930000D03*
X21162944Y-51227056D03*
X20460000Y-49530000D03*
X21162944Y-47832944D03*
X22860000Y-47130000D03*
X24557056Y-47832944D03*
D27*
X22860000Y-140970000D03*
D28*
X25260000Y-140970000D03*
X24557056Y-142667056D03*
X22860000Y-143370000D03*
X21162944Y-142667056D03*
X20460000Y-140970000D03*
X21162944Y-139272944D03*
X22860000Y-138570000D03*
X24557056Y-139272944D03*
D17*
X104240000Y-111760000D03*
X109120000Y-111760000D03*
X104240000Y-105410000D03*
X109120000Y-105410000D03*
D29*
X68105000Y-103505000D03*
X68105000Y-102235000D03*
X68105000Y-100965000D03*
X68105000Y-99695000D03*
X68105000Y-98425000D03*
X68105000Y-97155000D03*
X68105000Y-95885000D03*
X62705000Y-95885000D03*
X62705000Y-97155000D03*
X62705000Y-98425000D03*
X62705000Y-99695000D03*
X62705000Y-100965000D03*
X62705000Y-102235000D03*
X62705000Y-103505000D03*
X83980000Y-103505000D03*
X83980000Y-102235000D03*
X83980000Y-100965000D03*
X83980000Y-99695000D03*
X83980000Y-98425000D03*
X83980000Y-97155000D03*
X83980000Y-95885000D03*
X78580000Y-95885000D03*
X78580000Y-97155000D03*
X78580000Y-98425000D03*
X78580000Y-99695000D03*
X78580000Y-100965000D03*
X78580000Y-102235000D03*
X78580000Y-103505000D03*
M02*
