G75*
%MOIN*%
%OFA0B0*%
%FSLAX25Y25*%
%IPPOS*%
%LPD*%
%AMOC8*
5,1,8,0,0,1.08239X$1,22.5*
%
%ADD10R,0.04331X0.03937*%
%ADD11R,0.03937X0.04331*%
%ADD12C,0.09154*%
%ADD13C,0.07677*%
%ADD14C,0.07200*%
%ADD15C,0.10500*%
%ADD16C,0.05906*%
%ADD17C,0.05256*%
%ADD18C,0.05600*%
%ADD19C,0.07400*%
%ADD20OC8,0.06300*%
%ADD21C,0.01600*%
%ADD22C,0.01200*%
%ADD23C,0.05000*%
%ADD24C,0.07000*%
%ADD25R,0.03762X0.03762*%
%ADD26C,0.02400*%
D10*
X0146000Y0197654D03*
X0146000Y0204346D03*
X0146000Y0213154D03*
X0146000Y0219846D03*
X0146000Y0227154D03*
X0146000Y0233846D03*
X0146000Y0242154D03*
X0146000Y0248846D03*
X0129346Y0245500D03*
X0122654Y0245500D03*
D11*
X0114346Y0245500D03*
X0107654Y0245500D03*
X0107654Y0230500D03*
X0114346Y0230500D03*
X0122654Y0230500D03*
X0129346Y0230500D03*
X0192654Y0235500D03*
X0199346Y0235500D03*
X0197654Y0190500D03*
X0204346Y0190500D03*
X0277654Y0135500D03*
X0284346Y0135500D03*
X0287654Y0115500D03*
X0294346Y0115500D03*
X0294346Y0090500D03*
X0287654Y0090500D03*
X0254346Y0115500D03*
X0247654Y0115500D03*
D12*
X0041000Y0230500D03*
X0041000Y0250500D03*
D13*
X0156000Y0277232D03*
X0156000Y0302823D03*
X0201000Y0302823D03*
X0201000Y0277232D03*
X0246000Y0277232D03*
X0246000Y0302823D03*
X0291000Y0302823D03*
X0291000Y0277232D03*
X0331000Y0277232D03*
X0331000Y0302823D03*
X0371000Y0287823D03*
X0371000Y0262232D03*
X0366000Y0207823D03*
X0366000Y0182232D03*
X0321000Y0182232D03*
X0321000Y0207823D03*
X0281000Y0202232D03*
X0281000Y0227823D03*
X0231000Y0227823D03*
X0231000Y0202232D03*
X0321000Y0127823D03*
X0321000Y0102232D03*
X0366000Y0102232D03*
X0366000Y0127823D03*
X0361000Y0057823D03*
X0361000Y0032232D03*
X0316000Y0032232D03*
X0316000Y0057823D03*
X0276000Y0057823D03*
X0276000Y0032232D03*
X0236000Y0032232D03*
X0236000Y0057823D03*
D14*
X0226000Y0115500D03*
X0226000Y0130500D03*
X0226000Y0145500D03*
X0026000Y0130500D03*
X0026000Y0160500D03*
X0026000Y0100500D03*
D15*
X0226000Y0100500D03*
X0226000Y0160500D03*
D16*
X0256000Y0175500D03*
X0256000Y0195500D03*
X0256000Y0225500D03*
X0256000Y0245500D03*
X0269000Y0249500D03*
X0269000Y0269500D03*
X0224000Y0269500D03*
X0224000Y0249500D03*
X0206000Y0215500D03*
X0186000Y0215500D03*
X0291000Y0145500D03*
X0311000Y0145500D03*
X0344000Y0211000D03*
X0344000Y0231000D03*
X0256000Y0080500D03*
X0256000Y0060500D03*
X0216000Y0055500D03*
X0216000Y0075500D03*
X0191000Y0045500D03*
X0191000Y0035500D03*
X0191000Y0025500D03*
X0191000Y0015500D03*
X0041000Y0035500D03*
X0041000Y0045500D03*
X0041000Y0055500D03*
X0041000Y0065500D03*
X0116000Y0305500D03*
X0136000Y0305500D03*
D17*
X0121866Y0276947D02*
X0121866Y0271691D01*
X0115173Y0271691D02*
X0115173Y0276947D01*
X0108480Y0276947D02*
X0108480Y0271691D01*
X0101787Y0271691D02*
X0101787Y0276947D01*
X0101787Y0201947D02*
X0101787Y0196691D01*
X0108480Y0196691D02*
X0108480Y0201947D01*
X0115173Y0201947D02*
X0115173Y0196691D01*
X0121866Y0196691D02*
X0121866Y0201947D01*
D18*
X0095094Y0202119D02*
X0095094Y0196519D01*
X0095094Y0271519D02*
X0095094Y0277119D01*
D19*
X0096000Y0240500D03*
X0086000Y0240500D03*
X0171000Y0235500D03*
X0181000Y0235500D03*
X0176000Y0190500D03*
X0186000Y0190500D03*
X0256000Y0140500D03*
X0266000Y0140500D03*
X0266000Y0090500D03*
X0276000Y0090500D03*
D20*
X0276000Y0115500D03*
X0266000Y0115500D03*
D21*
X0171000Y0018288D02*
X0023212Y0018288D01*
X0024810Y0016690D02*
X0171000Y0016690D01*
X0171000Y0015091D02*
X0026409Y0015091D01*
X0028007Y0013493D02*
X0171000Y0013493D01*
X0171000Y0011894D02*
X0029606Y0011894D01*
X0031000Y0010500D02*
X0006000Y0035500D01*
X0006000Y0300500D01*
X0071000Y0300500D01*
X0086000Y0280500D01*
X0086000Y0240500D01*
X0086000Y0240500D01*
X0086000Y0246000D01*
X0085567Y0246000D01*
X0084712Y0245865D01*
X0083889Y0245597D01*
X0083117Y0245204D01*
X0082417Y0244695D01*
X0081805Y0244083D01*
X0081296Y0243383D01*
X0080903Y0242611D01*
X0080635Y0241788D01*
X0080500Y0240933D01*
X0080500Y0240500D01*
X0086000Y0240500D01*
X0086000Y0195500D01*
X0111000Y0170500D01*
X0186000Y0170500D01*
X0196000Y0160500D01*
X0196000Y0080500D01*
X0171000Y0055500D01*
X0171000Y0010500D01*
X0031000Y0010500D01*
X0021613Y0019887D02*
X0171000Y0019887D01*
X0171000Y0021485D02*
X0020015Y0021485D01*
X0018416Y0023084D02*
X0171000Y0023084D01*
X0171000Y0024682D02*
X0016818Y0024682D01*
X0015219Y0026281D02*
X0171000Y0026281D01*
X0171000Y0027879D02*
X0013621Y0027879D01*
X0012022Y0029478D02*
X0171000Y0029478D01*
X0171000Y0031076D02*
X0042765Y0031076D01*
X0042824Y0031095D02*
X0043491Y0031435D01*
X0044096Y0031875D01*
X0044625Y0032404D01*
X0045065Y0033009D01*
X0045405Y0033676D01*
X0045636Y0034387D01*
X0045753Y0035126D01*
X0045753Y0035316D01*
X0041184Y0035316D01*
X0041184Y0030747D01*
X0041374Y0030747D01*
X0042113Y0030864D01*
X0042824Y0031095D01*
X0041184Y0031076D02*
X0040816Y0031076D01*
X0040816Y0030747D02*
X0040816Y0035316D01*
X0041184Y0035316D01*
X0041184Y0035684D01*
X0045753Y0035684D01*
X0045753Y0035874D01*
X0045636Y0036613D01*
X0045405Y0037324D01*
X0045065Y0037991D01*
X0044625Y0038596D01*
X0044096Y0039125D01*
X0043491Y0039565D01*
X0042824Y0039905D01*
X0042113Y0040136D01*
X0041374Y0040253D01*
X0041184Y0040253D01*
X0041184Y0035684D01*
X0040816Y0035684D01*
X0040816Y0035316D01*
X0036247Y0035316D01*
X0036247Y0035126D01*
X0036364Y0034387D01*
X0036595Y0033676D01*
X0036935Y0033009D01*
X0037375Y0032404D01*
X0037904Y0031875D01*
X0038509Y0031435D01*
X0039176Y0031095D01*
X0039887Y0030864D01*
X0040626Y0030747D01*
X0040816Y0030747D01*
X0039235Y0031076D02*
X0010424Y0031076D01*
X0008825Y0032675D02*
X0037178Y0032675D01*
X0036401Y0034273D02*
X0007227Y0034273D01*
X0006000Y0035872D02*
X0036247Y0035872D01*
X0036247Y0035874D02*
X0036247Y0035684D01*
X0040816Y0035684D01*
X0040816Y0040253D01*
X0040626Y0040253D01*
X0039887Y0040136D01*
X0039176Y0039905D01*
X0038509Y0039565D01*
X0037904Y0039125D01*
X0037375Y0038596D01*
X0036935Y0037991D01*
X0036595Y0037324D01*
X0036364Y0036613D01*
X0036247Y0035874D01*
X0036670Y0037470D02*
X0006000Y0037470D01*
X0006000Y0039069D02*
X0037847Y0039069D01*
X0039176Y0041095D02*
X0039887Y0040864D01*
X0040626Y0040747D01*
X0040816Y0040747D01*
X0040816Y0045316D01*
X0041184Y0045316D01*
X0041184Y0040747D01*
X0041374Y0040747D01*
X0042113Y0040864D01*
X0042824Y0041095D01*
X0043491Y0041435D01*
X0044096Y0041875D01*
X0044625Y0042404D01*
X0045065Y0043009D01*
X0045405Y0043676D01*
X0045636Y0044387D01*
X0045753Y0045126D01*
X0045753Y0045316D01*
X0041184Y0045316D01*
X0041184Y0045684D01*
X0045753Y0045684D01*
X0045753Y0045874D01*
X0045636Y0046613D01*
X0045405Y0047324D01*
X0045065Y0047991D01*
X0044625Y0048596D01*
X0044096Y0049125D01*
X0043491Y0049565D01*
X0042824Y0049905D01*
X0042113Y0050136D01*
X0041374Y0050253D01*
X0041184Y0050253D01*
X0041184Y0045684D01*
X0040816Y0045684D01*
X0040816Y0045316D01*
X0036247Y0045316D01*
X0036247Y0045126D01*
X0036364Y0044387D01*
X0036595Y0043676D01*
X0036935Y0043009D01*
X0037375Y0042404D01*
X0037904Y0041875D01*
X0038509Y0041435D01*
X0039176Y0041095D01*
X0040816Y0042266D02*
X0041184Y0042266D01*
X0041184Y0043864D02*
X0040816Y0043864D01*
X0040816Y0045463D02*
X0006000Y0045463D01*
X0006000Y0047061D02*
X0036510Y0047061D01*
X0036595Y0047324D02*
X0036364Y0046613D01*
X0036247Y0045874D01*
X0036247Y0045684D01*
X0040816Y0045684D01*
X0040816Y0050253D01*
X0040626Y0050253D01*
X0039887Y0050136D01*
X0039176Y0049905D01*
X0038509Y0049565D01*
X0037904Y0049125D01*
X0037375Y0048596D01*
X0036935Y0047991D01*
X0036595Y0047324D01*
X0037438Y0048660D02*
X0006000Y0048660D01*
X0006000Y0050258D02*
X0171000Y0050258D01*
X0171000Y0048660D02*
X0044562Y0048660D01*
X0045490Y0047061D02*
X0171000Y0047061D01*
X0171000Y0045463D02*
X0041184Y0045463D01*
X0041184Y0047061D02*
X0040816Y0047061D01*
X0040816Y0048660D02*
X0041184Y0048660D01*
X0041985Y0050547D02*
X0040015Y0050547D01*
X0038194Y0051301D01*
X0036801Y0052694D01*
X0036047Y0054515D01*
X0036047Y0056485D01*
X0036801Y0058305D01*
X0038194Y0059699D01*
X0040015Y0060453D01*
X0041985Y0060453D01*
X0043805Y0059699D01*
X0045199Y0058305D01*
X0045953Y0056485D01*
X0045953Y0054515D01*
X0045199Y0052694D01*
X0043805Y0051301D01*
X0041985Y0050547D01*
X0044361Y0051857D02*
X0171000Y0051857D01*
X0171000Y0053455D02*
X0045514Y0053455D01*
X0045953Y0055054D02*
X0171000Y0055054D01*
X0172152Y0056652D02*
X0045883Y0056652D01*
X0045221Y0058251D02*
X0173751Y0058251D01*
X0175349Y0059849D02*
X0043442Y0059849D01*
X0043805Y0061301D02*
X0045199Y0062694D01*
X0045953Y0064515D01*
X0045953Y0066485D01*
X0045199Y0068305D01*
X0043805Y0069699D01*
X0041985Y0070453D01*
X0040015Y0070453D01*
X0038194Y0069699D01*
X0036801Y0068305D01*
X0036047Y0066485D01*
X0036047Y0064515D01*
X0036801Y0062694D01*
X0038194Y0061301D01*
X0040015Y0060547D01*
X0041985Y0060547D01*
X0043805Y0061301D01*
X0043952Y0061448D02*
X0176948Y0061448D01*
X0178546Y0063046D02*
X0045345Y0063046D01*
X0045953Y0064645D02*
X0180145Y0064645D01*
X0181743Y0066243D02*
X0045953Y0066243D01*
X0045391Y0067842D02*
X0183342Y0067842D01*
X0184940Y0069440D02*
X0044064Y0069440D01*
X0037936Y0069440D02*
X0006000Y0069440D01*
X0006000Y0067842D02*
X0036609Y0067842D01*
X0036047Y0066243D02*
X0006000Y0066243D01*
X0006000Y0064645D02*
X0036047Y0064645D01*
X0036655Y0063046D02*
X0006000Y0063046D01*
X0006000Y0061448D02*
X0038048Y0061448D01*
X0038558Y0059849D02*
X0006000Y0059849D01*
X0006000Y0058251D02*
X0036779Y0058251D01*
X0036117Y0056652D02*
X0006000Y0056652D01*
X0006000Y0055054D02*
X0036047Y0055054D01*
X0036486Y0053455D02*
X0006000Y0053455D01*
X0006000Y0051857D02*
X0037639Y0051857D01*
X0036534Y0043864D02*
X0006000Y0043864D01*
X0006000Y0042266D02*
X0037513Y0042266D01*
X0040816Y0039069D02*
X0041184Y0039069D01*
X0041184Y0037470D02*
X0040816Y0037470D01*
X0040816Y0035872D02*
X0041184Y0035872D01*
X0041184Y0034273D02*
X0040816Y0034273D01*
X0040816Y0032675D02*
X0041184Y0032675D01*
X0044822Y0032675D02*
X0171000Y0032675D01*
X0171000Y0034273D02*
X0045599Y0034273D01*
X0045753Y0035872D02*
X0171000Y0035872D01*
X0171000Y0037470D02*
X0045330Y0037470D01*
X0044153Y0039069D02*
X0171000Y0039069D01*
X0171000Y0040667D02*
X0006000Y0040667D01*
X0006000Y0071039D02*
X0186539Y0071039D01*
X0188137Y0072637D02*
X0006000Y0072637D01*
X0006000Y0074236D02*
X0189736Y0074236D01*
X0191334Y0075834D02*
X0006000Y0075834D01*
X0006000Y0077433D02*
X0192933Y0077433D01*
X0194532Y0079032D02*
X0006000Y0079032D01*
X0006000Y0080630D02*
X0196000Y0080630D01*
X0196000Y0082229D02*
X0006000Y0082229D01*
X0006000Y0083827D02*
X0196000Y0083827D01*
X0196000Y0085426D02*
X0006000Y0085426D01*
X0006000Y0087024D02*
X0196000Y0087024D01*
X0196000Y0088623D02*
X0006000Y0088623D01*
X0006000Y0090221D02*
X0196000Y0090221D01*
X0196000Y0091820D02*
X0006000Y0091820D01*
X0006000Y0093418D02*
X0196000Y0093418D01*
X0196000Y0095017D02*
X0027395Y0095017D01*
X0027114Y0094900D02*
X0029172Y0095753D01*
X0030747Y0097328D01*
X0031600Y0099386D01*
X0031600Y0101614D01*
X0030747Y0103672D01*
X0029172Y0105247D01*
X0027114Y0106100D01*
X0024886Y0106100D01*
X0022828Y0105247D01*
X0021253Y0103672D01*
X0020400Y0101614D01*
X0020400Y0099386D01*
X0021253Y0097328D01*
X0022828Y0095753D01*
X0024886Y0094900D01*
X0027114Y0094900D01*
X0024605Y0095017D02*
X0006000Y0095017D01*
X0006000Y0096615D02*
X0021965Y0096615D01*
X0020886Y0098214D02*
X0006000Y0098214D01*
X0006000Y0099812D02*
X0020400Y0099812D01*
X0020400Y0101411D02*
X0006000Y0101411D01*
X0006000Y0103009D02*
X0020978Y0103009D01*
X0022188Y0104608D02*
X0006000Y0104608D01*
X0006000Y0106206D02*
X0196000Y0106206D01*
X0196000Y0104608D02*
X0029812Y0104608D01*
X0031022Y0103009D02*
X0196000Y0103009D01*
X0196000Y0101411D02*
X0031600Y0101411D01*
X0031600Y0099812D02*
X0196000Y0099812D01*
X0196000Y0098214D02*
X0031114Y0098214D01*
X0030035Y0096615D02*
X0196000Y0096615D01*
X0196000Y0107805D02*
X0006000Y0107805D01*
X0006000Y0109403D02*
X0196000Y0109403D01*
X0196000Y0111002D02*
X0006000Y0111002D01*
X0006000Y0112600D02*
X0196000Y0112600D01*
X0196000Y0114199D02*
X0006000Y0114199D01*
X0006000Y0115797D02*
X0196000Y0115797D01*
X0196000Y0117396D02*
X0006000Y0117396D01*
X0006000Y0118994D02*
X0196000Y0118994D01*
X0196000Y0120593D02*
X0006000Y0120593D01*
X0006000Y0122191D02*
X0196000Y0122191D01*
X0196000Y0123790D02*
X0006000Y0123790D01*
X0006000Y0125388D02*
X0023707Y0125388D01*
X0022828Y0125753D02*
X0024886Y0124900D01*
X0027114Y0124900D01*
X0029172Y0125753D01*
X0030747Y0127328D01*
X0031600Y0129386D01*
X0031600Y0131614D01*
X0030747Y0133672D01*
X0029172Y0135247D01*
X0027114Y0136100D01*
X0024886Y0136100D01*
X0022828Y0135247D01*
X0021253Y0133672D01*
X0020400Y0131614D01*
X0020400Y0129386D01*
X0021253Y0127328D01*
X0022828Y0125753D01*
X0021594Y0126987D02*
X0006000Y0126987D01*
X0006000Y0128585D02*
X0020732Y0128585D01*
X0020400Y0130184D02*
X0006000Y0130184D01*
X0006000Y0131782D02*
X0020470Y0131782D01*
X0021132Y0133381D02*
X0006000Y0133381D01*
X0006000Y0134979D02*
X0022560Y0134979D01*
X0029440Y0134979D02*
X0196000Y0134979D01*
X0196000Y0133381D02*
X0030868Y0133381D01*
X0031530Y0131782D02*
X0196000Y0131782D01*
X0196000Y0130184D02*
X0031600Y0130184D01*
X0031268Y0128585D02*
X0196000Y0128585D01*
X0196000Y0126987D02*
X0030406Y0126987D01*
X0028293Y0125388D02*
X0196000Y0125388D01*
X0196000Y0136578D02*
X0006000Y0136578D01*
X0006000Y0138176D02*
X0196000Y0138176D01*
X0196000Y0139775D02*
X0006000Y0139775D01*
X0006000Y0141373D02*
X0196000Y0141373D01*
X0196000Y0142972D02*
X0006000Y0142972D01*
X0006000Y0144570D02*
X0196000Y0144570D01*
X0196000Y0146169D02*
X0006000Y0146169D01*
X0006000Y0147768D02*
X0196000Y0147768D01*
X0196000Y0149366D02*
X0006000Y0149366D01*
X0006000Y0150965D02*
X0196000Y0150965D01*
X0196000Y0152563D02*
X0006000Y0152563D01*
X0006000Y0154162D02*
X0196000Y0154162D01*
X0196000Y0155760D02*
X0028592Y0155760D01*
X0028830Y0155882D02*
X0029518Y0156381D01*
X0030119Y0156982D01*
X0030618Y0157670D01*
X0031004Y0158427D01*
X0031267Y0159235D01*
X0031400Y0160075D01*
X0031400Y0160100D01*
X0026400Y0160100D01*
X0026400Y0160900D01*
X0031400Y0160900D01*
X0031400Y0160925D01*
X0031267Y0161765D01*
X0031004Y0162573D01*
X0030618Y0163330D01*
X0030119Y0164018D01*
X0029518Y0164619D01*
X0028830Y0165118D01*
X0028073Y0165504D01*
X0027265Y0165767D01*
X0026425Y0165900D01*
X0026400Y0165900D01*
X0026400Y0160900D01*
X0025600Y0160900D01*
X0025600Y0165900D01*
X0025575Y0165900D01*
X0024735Y0165767D01*
X0023927Y0165504D01*
X0023170Y0165118D01*
X0022482Y0164619D01*
X0021881Y0164018D01*
X0021382Y0163330D01*
X0020996Y0162573D01*
X0020733Y0161765D01*
X0020600Y0160925D01*
X0020600Y0160900D01*
X0025600Y0160900D01*
X0025600Y0160100D01*
X0026400Y0160100D01*
X0026400Y0155100D01*
X0026425Y0155100D01*
X0027265Y0155233D01*
X0028073Y0155496D01*
X0028830Y0155882D01*
X0030392Y0157359D02*
X0196000Y0157359D01*
X0196000Y0158957D02*
X0031177Y0158957D01*
X0031140Y0162154D02*
X0194346Y0162154D01*
X0195944Y0160556D02*
X0026400Y0160556D01*
X0025600Y0160556D02*
X0006000Y0160556D01*
X0006000Y0162154D02*
X0020860Y0162154D01*
X0021688Y0163753D02*
X0006000Y0163753D01*
X0006000Y0165351D02*
X0023626Y0165351D01*
X0025600Y0165351D02*
X0026400Y0165351D01*
X0026400Y0163753D02*
X0025600Y0163753D01*
X0025600Y0162154D02*
X0026400Y0162154D01*
X0025600Y0160100D02*
X0020600Y0160100D01*
X0020600Y0160075D01*
X0020733Y0159235D01*
X0020996Y0158427D01*
X0021382Y0157670D01*
X0021881Y0156982D01*
X0022482Y0156381D01*
X0023170Y0155882D01*
X0023927Y0155496D01*
X0024735Y0155233D01*
X0025575Y0155100D01*
X0025600Y0155100D01*
X0025600Y0160100D01*
X0025600Y0158957D02*
X0026400Y0158957D01*
X0026400Y0157359D02*
X0025600Y0157359D01*
X0025600Y0155760D02*
X0026400Y0155760D01*
X0023408Y0155760D02*
X0006000Y0155760D01*
X0006000Y0157359D02*
X0021608Y0157359D01*
X0020823Y0158957D02*
X0006000Y0158957D01*
X0006000Y0166950D02*
X0189550Y0166950D01*
X0187952Y0168548D02*
X0006000Y0168548D01*
X0006000Y0170147D02*
X0186353Y0170147D01*
X0191149Y0165351D02*
X0028374Y0165351D01*
X0030312Y0163753D02*
X0192747Y0163753D01*
X0109755Y0171745D02*
X0006000Y0171745D01*
X0006000Y0173344D02*
X0108156Y0173344D01*
X0106558Y0174942D02*
X0006000Y0174942D01*
X0006000Y0176541D02*
X0104959Y0176541D01*
X0103361Y0178139D02*
X0006000Y0178139D01*
X0006000Y0179738D02*
X0101762Y0179738D01*
X0100164Y0181336D02*
X0006000Y0181336D01*
X0006000Y0182935D02*
X0098565Y0182935D01*
X0096967Y0184533D02*
X0006000Y0184533D01*
X0006000Y0186132D02*
X0095368Y0186132D01*
X0093770Y0187730D02*
X0006000Y0187730D01*
X0006000Y0189329D02*
X0092171Y0189329D01*
X0090573Y0190927D02*
X0006000Y0190927D01*
X0006000Y0192526D02*
X0039156Y0192526D01*
X0039192Y0192511D02*
X0042808Y0192511D01*
X0046150Y0193895D01*
X0048707Y0196453D01*
X0050091Y0199794D01*
X0050091Y0203411D01*
X0048707Y0206752D01*
X0046150Y0209310D01*
X0042808Y0210694D01*
X0039192Y0210694D01*
X0035850Y0209310D01*
X0033293Y0206752D01*
X0031909Y0203411D01*
X0031909Y0199794D01*
X0033293Y0196453D01*
X0035850Y0193895D01*
X0039192Y0192511D01*
X0042844Y0192526D02*
X0088974Y0192526D01*
X0087376Y0194124D02*
X0046379Y0194124D01*
X0047978Y0195723D02*
X0086000Y0195723D01*
X0086000Y0197321D02*
X0049067Y0197321D01*
X0049729Y0198920D02*
X0086000Y0198920D01*
X0086000Y0200518D02*
X0050091Y0200518D01*
X0050091Y0202117D02*
X0086000Y0202117D01*
X0086000Y0203715D02*
X0049965Y0203715D01*
X0049303Y0205314D02*
X0086000Y0205314D01*
X0086000Y0206912D02*
X0048547Y0206912D01*
X0046949Y0208511D02*
X0086000Y0208511D01*
X0086000Y0210109D02*
X0044219Y0210109D01*
X0037781Y0210109D02*
X0006000Y0210109D01*
X0006000Y0208511D02*
X0035051Y0208511D01*
X0033453Y0206912D02*
X0006000Y0206912D01*
X0006000Y0205314D02*
X0032697Y0205314D01*
X0032035Y0203715D02*
X0006000Y0203715D01*
X0006000Y0202117D02*
X0031909Y0202117D01*
X0031909Y0200518D02*
X0006000Y0200518D01*
X0006000Y0198920D02*
X0032271Y0198920D01*
X0032933Y0197321D02*
X0006000Y0197321D01*
X0006000Y0195723D02*
X0034022Y0195723D01*
X0035621Y0194124D02*
X0006000Y0194124D01*
X0006000Y0211708D02*
X0086000Y0211708D01*
X0086000Y0213306D02*
X0006000Y0213306D01*
X0006000Y0214905D02*
X0086000Y0214905D01*
X0086000Y0216503D02*
X0006000Y0216503D01*
X0006000Y0218102D02*
X0086000Y0218102D01*
X0086000Y0219701D02*
X0006000Y0219701D01*
X0006000Y0221299D02*
X0086000Y0221299D01*
X0086000Y0222898D02*
X0006000Y0222898D01*
X0006000Y0224496D02*
X0038309Y0224496D01*
X0037275Y0224924D02*
X0039692Y0223923D01*
X0042308Y0223923D01*
X0044725Y0224924D01*
X0046576Y0226775D01*
X0047577Y0229192D01*
X0047577Y0231808D01*
X0046576Y0234225D01*
X0044725Y0236076D01*
X0042308Y0237077D01*
X0039692Y0237077D01*
X0037275Y0236076D01*
X0035424Y0234225D01*
X0034423Y0231808D01*
X0034423Y0229192D01*
X0035424Y0226775D01*
X0037275Y0224924D01*
X0036104Y0226095D02*
X0006000Y0226095D01*
X0006000Y0227693D02*
X0035044Y0227693D01*
X0034423Y0229292D02*
X0006000Y0229292D01*
X0006000Y0230890D02*
X0034423Y0230890D01*
X0034705Y0232489D02*
X0006000Y0232489D01*
X0006000Y0234087D02*
X0035367Y0234087D01*
X0036885Y0235686D02*
X0006000Y0235686D01*
X0006000Y0237284D02*
X0081538Y0237284D01*
X0081296Y0237617D02*
X0081805Y0236917D01*
X0082417Y0236305D01*
X0083117Y0235796D01*
X0083889Y0235403D01*
X0084712Y0235135D01*
X0085567Y0235000D01*
X0086000Y0235000D01*
X0086000Y0240500D01*
X0086000Y0240500D01*
X0086000Y0240500D01*
X0080500Y0240500D01*
X0080500Y0240067D01*
X0080635Y0239212D01*
X0080903Y0238389D01*
X0081296Y0237617D01*
X0080742Y0238883D02*
X0006000Y0238883D01*
X0006000Y0240481D02*
X0080500Y0240481D01*
X0080730Y0242080D02*
X0006000Y0242080D01*
X0006000Y0243678D02*
X0081511Y0243678D01*
X0083260Y0245277D02*
X0044668Y0245277D01*
X0044550Y0245187D02*
X0045214Y0245695D01*
X0045805Y0246286D01*
X0046313Y0246950D01*
X0046731Y0247674D01*
X0047051Y0248446D01*
X0047268Y0249253D01*
X0047336Y0249774D01*
X0041726Y0249774D01*
X0041726Y0251226D01*
X0040274Y0251226D01*
X0040274Y0256836D01*
X0039753Y0256768D01*
X0038946Y0256551D01*
X0038174Y0256231D01*
X0037450Y0255813D01*
X0036786Y0255305D01*
X0036195Y0254714D01*
X0035687Y0254050D01*
X0035269Y0253326D01*
X0034949Y0252554D01*
X0034732Y0251747D01*
X0034664Y0251226D01*
X0040274Y0251226D01*
X0040274Y0249774D01*
X0034664Y0249774D01*
X0034732Y0249253D01*
X0034949Y0248446D01*
X0035269Y0247674D01*
X0035687Y0246950D01*
X0036195Y0246286D01*
X0036786Y0245695D01*
X0037450Y0245187D01*
X0038174Y0244769D01*
X0038946Y0244449D01*
X0039753Y0244232D01*
X0040274Y0244164D01*
X0040274Y0249774D01*
X0041726Y0249774D01*
X0041726Y0244164D01*
X0042247Y0244232D01*
X0043054Y0244449D01*
X0043826Y0244769D01*
X0044550Y0245187D01*
X0046256Y0246875D02*
X0086000Y0246875D01*
X0086000Y0245277D02*
X0086000Y0245277D01*
X0086000Y0243678D02*
X0086000Y0243678D01*
X0086000Y0242080D02*
X0086000Y0242080D01*
X0086000Y0240481D02*
X0086000Y0240481D01*
X0086000Y0238883D02*
X0086000Y0238883D01*
X0086000Y0237284D02*
X0086000Y0237284D01*
X0086000Y0235686D02*
X0086000Y0235686D01*
X0086000Y0234087D02*
X0046633Y0234087D01*
X0047295Y0232489D02*
X0086000Y0232489D01*
X0086000Y0230890D02*
X0047577Y0230890D01*
X0047577Y0229292D02*
X0086000Y0229292D01*
X0086000Y0227693D02*
X0046956Y0227693D01*
X0045896Y0226095D02*
X0086000Y0226095D01*
X0086000Y0224496D02*
X0043691Y0224496D01*
X0045115Y0235686D02*
X0083334Y0235686D01*
X0086000Y0248474D02*
X0047059Y0248474D01*
X0047336Y0251226D02*
X0041726Y0251226D01*
X0041726Y0256836D01*
X0042247Y0256768D01*
X0043054Y0256551D01*
X0043826Y0256231D01*
X0044550Y0255813D01*
X0045214Y0255305D01*
X0045805Y0254714D01*
X0046313Y0254050D01*
X0046731Y0253326D01*
X0047051Y0252554D01*
X0047268Y0251747D01*
X0047336Y0251226D01*
X0047278Y0251671D02*
X0086000Y0251671D01*
X0086000Y0253269D02*
X0046755Y0253269D01*
X0045650Y0254868D02*
X0086000Y0254868D01*
X0086000Y0256466D02*
X0043259Y0256466D01*
X0041726Y0256466D02*
X0040274Y0256466D01*
X0038741Y0256466D02*
X0006000Y0256466D01*
X0006000Y0254868D02*
X0036350Y0254868D01*
X0035245Y0253269D02*
X0006000Y0253269D01*
X0006000Y0251671D02*
X0034722Y0251671D01*
X0034941Y0248474D02*
X0006000Y0248474D01*
X0006000Y0250072D02*
X0040274Y0250072D01*
X0041726Y0250072D02*
X0086000Y0250072D01*
X0086000Y0258065D02*
X0006000Y0258065D01*
X0006000Y0259663D02*
X0086000Y0259663D01*
X0086000Y0261262D02*
X0006000Y0261262D01*
X0006000Y0262860D02*
X0086000Y0262860D01*
X0086000Y0264459D02*
X0006000Y0264459D01*
X0006000Y0266057D02*
X0086000Y0266057D01*
X0086000Y0267656D02*
X0006000Y0267656D01*
X0006000Y0269254D02*
X0086000Y0269254D01*
X0086000Y0270853D02*
X0044128Y0270853D01*
X0042808Y0270306D02*
X0046150Y0271690D01*
X0048707Y0274248D01*
X0050091Y0277589D01*
X0050091Y0281206D01*
X0048707Y0284547D01*
X0046150Y0287105D01*
X0042808Y0288489D01*
X0039192Y0288489D01*
X0035850Y0287105D01*
X0033293Y0284547D01*
X0031909Y0281206D01*
X0031909Y0277589D01*
X0033293Y0274248D01*
X0035850Y0271690D01*
X0039192Y0270306D01*
X0042808Y0270306D01*
X0046911Y0272451D02*
X0086000Y0272451D01*
X0086000Y0274050D02*
X0048509Y0274050D01*
X0049287Y0275648D02*
X0086000Y0275648D01*
X0086000Y0277247D02*
X0049950Y0277247D01*
X0050091Y0278845D02*
X0086000Y0278845D01*
X0086000Y0280444D02*
X0050091Y0280444D01*
X0049745Y0282042D02*
X0084843Y0282042D01*
X0083644Y0283641D02*
X0049083Y0283641D01*
X0048015Y0285239D02*
X0082445Y0285239D01*
X0081247Y0286838D02*
X0046417Y0286838D01*
X0042935Y0288437D02*
X0080048Y0288437D01*
X0078849Y0290035D02*
X0006000Y0290035D01*
X0006000Y0288437D02*
X0039065Y0288437D01*
X0035583Y0286838D02*
X0006000Y0286838D01*
X0006000Y0285239D02*
X0033985Y0285239D01*
X0032917Y0283641D02*
X0006000Y0283641D01*
X0006000Y0282042D02*
X0032255Y0282042D01*
X0031909Y0280444D02*
X0006000Y0280444D01*
X0006000Y0278845D02*
X0031909Y0278845D01*
X0032050Y0277247D02*
X0006000Y0277247D01*
X0006000Y0275648D02*
X0032713Y0275648D01*
X0033491Y0274050D02*
X0006000Y0274050D01*
X0006000Y0272451D02*
X0035089Y0272451D01*
X0037872Y0270853D02*
X0006000Y0270853D01*
X0006000Y0291634D02*
X0077650Y0291634D01*
X0076451Y0293232D02*
X0006000Y0293232D01*
X0006000Y0294831D02*
X0075252Y0294831D01*
X0074053Y0296429D02*
X0006000Y0296429D01*
X0006000Y0298028D02*
X0072854Y0298028D01*
X0071655Y0299626D02*
X0006000Y0299626D01*
X0040274Y0254868D02*
X0041726Y0254868D01*
X0041726Y0253269D02*
X0040274Y0253269D01*
X0040274Y0251671D02*
X0041726Y0251671D01*
X0041726Y0248474D02*
X0040274Y0248474D01*
X0040274Y0246875D02*
X0041726Y0246875D01*
X0041726Y0245277D02*
X0040274Y0245277D01*
X0037332Y0245277D02*
X0006000Y0245277D01*
X0006000Y0246875D02*
X0035744Y0246875D01*
X0045466Y0043864D02*
X0171000Y0043864D01*
X0171000Y0042266D02*
X0044487Y0042266D01*
D22*
X0181000Y0030500D02*
X0181000Y0010500D01*
X0291000Y0010500D01*
X0291000Y0063433D01*
X0290358Y0062791D01*
X0288501Y0062022D01*
X0286491Y0062022D01*
X0284634Y0062791D01*
X0283213Y0064213D01*
X0282679Y0065500D01*
X0252313Y0065500D01*
X0251780Y0064213D01*
X0250358Y0062791D01*
X0248501Y0062022D01*
X0246491Y0062022D01*
X0244634Y0062791D01*
X0243213Y0064213D01*
X0242679Y0065500D01*
X0211000Y0065500D01*
X0211000Y0030500D01*
X0181000Y0030500D01*
X0181000Y0029470D02*
X0188764Y0029470D01*
X0188614Y0029394D02*
X0188034Y0028973D01*
X0187527Y0028466D01*
X0187106Y0027886D01*
X0186781Y0027248D01*
X0186559Y0026566D01*
X0186451Y0025884D01*
X0190616Y0025884D01*
X0190616Y0025116D01*
X0191384Y0025116D01*
X0191384Y0020951D01*
X0192066Y0021059D01*
X0192748Y0021281D01*
X0193386Y0021606D01*
X0193966Y0022027D01*
X0194473Y0022534D01*
X0194894Y0023114D01*
X0195219Y0023752D01*
X0195441Y0024434D01*
X0195549Y0025116D01*
X0191384Y0025116D01*
X0191384Y0025884D01*
X0195549Y0025884D01*
X0195441Y0026566D01*
X0195219Y0027248D01*
X0194894Y0027886D01*
X0194473Y0028466D01*
X0193966Y0028973D01*
X0193386Y0029394D01*
X0192748Y0029719D01*
X0192066Y0029941D01*
X0191384Y0030049D01*
X0191384Y0025884D01*
X0190616Y0025884D01*
X0190616Y0030049D01*
X0189934Y0029941D01*
X0189252Y0029719D01*
X0188614Y0029394D01*
X0187386Y0028272D02*
X0181000Y0028272D01*
X0181000Y0027073D02*
X0186724Y0027073D01*
X0186451Y0025116D02*
X0186559Y0024434D01*
X0186781Y0023752D01*
X0187106Y0023114D01*
X0187527Y0022534D01*
X0188034Y0022027D01*
X0188614Y0021606D01*
X0189252Y0021281D01*
X0189934Y0021059D01*
X0190616Y0020951D01*
X0190616Y0025116D01*
X0186451Y0025116D01*
X0186521Y0024676D02*
X0181000Y0024676D01*
X0181000Y0023478D02*
X0186921Y0023478D01*
X0187782Y0022279D02*
X0181000Y0022279D01*
X0181000Y0021081D02*
X0189868Y0021081D01*
X0190616Y0021081D02*
X0191384Y0021081D01*
X0192132Y0021081D02*
X0291000Y0021081D01*
X0291000Y0022279D02*
X0194218Y0022279D01*
X0195079Y0023478D02*
X0291000Y0023478D01*
X0291000Y0024676D02*
X0195479Y0024676D01*
X0195276Y0027073D02*
X0233721Y0027073D01*
X0232806Y0027452D02*
X0234878Y0026594D01*
X0237122Y0026594D01*
X0239194Y0027452D01*
X0240780Y0029038D01*
X0241639Y0031111D01*
X0241639Y0033354D01*
X0240780Y0035426D01*
X0239194Y0037012D01*
X0237122Y0037871D01*
X0234878Y0037871D01*
X0232806Y0037012D01*
X0231220Y0035426D01*
X0230361Y0033354D01*
X0230361Y0031111D01*
X0231220Y0029038D01*
X0232806Y0027452D01*
X0231986Y0028272D02*
X0194614Y0028272D01*
X0193236Y0029470D02*
X0231041Y0029470D01*
X0230544Y0030669D02*
X0211000Y0030669D01*
X0211000Y0031867D02*
X0230361Y0031867D01*
X0230361Y0033066D02*
X0211000Y0033066D01*
X0211000Y0034264D02*
X0230739Y0034264D01*
X0231256Y0035463D02*
X0211000Y0035463D01*
X0211000Y0036661D02*
X0232455Y0036661D01*
X0234852Y0037860D02*
X0211000Y0037860D01*
X0211000Y0039058D02*
X0291000Y0039058D01*
X0291000Y0037860D02*
X0277148Y0037860D01*
X0277122Y0037871D02*
X0274878Y0037871D01*
X0272806Y0037012D01*
X0271220Y0035426D01*
X0270361Y0033354D01*
X0270361Y0031111D01*
X0271220Y0029038D01*
X0272806Y0027452D01*
X0274878Y0026594D01*
X0277122Y0026594D01*
X0279194Y0027452D01*
X0280780Y0029038D01*
X0281639Y0031111D01*
X0281639Y0033354D01*
X0280780Y0035426D01*
X0279194Y0037012D01*
X0277122Y0037871D01*
X0274852Y0037860D02*
X0237148Y0037860D01*
X0239545Y0036661D02*
X0272455Y0036661D01*
X0271256Y0035463D02*
X0240744Y0035463D01*
X0241261Y0034264D02*
X0270739Y0034264D01*
X0270361Y0033066D02*
X0241639Y0033066D01*
X0241639Y0031867D02*
X0270361Y0031867D01*
X0270544Y0030669D02*
X0241455Y0030669D01*
X0240959Y0029470D02*
X0271041Y0029470D01*
X0271986Y0028272D02*
X0240014Y0028272D01*
X0238279Y0027073D02*
X0273721Y0027073D01*
X0278279Y0027073D02*
X0291000Y0027073D01*
X0291000Y0025875D02*
X0191384Y0025875D01*
X0190616Y0025875D02*
X0181000Y0025875D01*
X0181000Y0019882D02*
X0189754Y0019882D01*
X0189934Y0019941D02*
X0189252Y0019719D01*
X0188614Y0019394D01*
X0188034Y0018973D01*
X0187527Y0018466D01*
X0187106Y0017886D01*
X0186781Y0017248D01*
X0186559Y0016566D01*
X0186451Y0015884D01*
X0190616Y0015884D01*
X0190616Y0015116D01*
X0191384Y0015116D01*
X0191384Y0010951D01*
X0192066Y0011059D01*
X0192748Y0011281D01*
X0193386Y0011606D01*
X0193966Y0012027D01*
X0194473Y0012534D01*
X0194894Y0013114D01*
X0195219Y0013752D01*
X0195441Y0014434D01*
X0195549Y0015116D01*
X0191384Y0015116D01*
X0191384Y0015884D01*
X0195549Y0015884D01*
X0195441Y0016566D01*
X0195219Y0017248D01*
X0194894Y0017886D01*
X0194473Y0018466D01*
X0193966Y0018973D01*
X0193386Y0019394D01*
X0192748Y0019719D01*
X0192066Y0019941D01*
X0191384Y0020049D01*
X0191384Y0015884D01*
X0190616Y0015884D01*
X0190616Y0020049D01*
X0189934Y0019941D01*
X0190616Y0019882D02*
X0191384Y0019882D01*
X0192246Y0019882D02*
X0291000Y0019882D01*
X0291000Y0018684D02*
X0194255Y0018684D01*
X0195098Y0017485D02*
X0291000Y0017485D01*
X0291000Y0016287D02*
X0195485Y0016287D01*
X0195544Y0015088D02*
X0291000Y0015088D01*
X0291000Y0013890D02*
X0195264Y0013890D01*
X0194587Y0012691D02*
X0291000Y0012691D01*
X0291000Y0011493D02*
X0193163Y0011493D01*
X0191384Y0011493D02*
X0190616Y0011493D01*
X0190616Y0010951D02*
X0190616Y0015116D01*
X0186451Y0015116D01*
X0186559Y0014434D01*
X0186781Y0013752D01*
X0187106Y0013114D01*
X0187527Y0012534D01*
X0188034Y0012027D01*
X0188614Y0011606D01*
X0189252Y0011281D01*
X0189934Y0011059D01*
X0190616Y0010951D01*
X0190616Y0012691D02*
X0191384Y0012691D01*
X0191384Y0013890D02*
X0190616Y0013890D01*
X0190616Y0015088D02*
X0191384Y0015088D01*
X0191384Y0016287D02*
X0190616Y0016287D01*
X0190616Y0017485D02*
X0191384Y0017485D01*
X0191384Y0018684D02*
X0190616Y0018684D01*
X0187745Y0018684D02*
X0181000Y0018684D01*
X0181000Y0017485D02*
X0186902Y0017485D01*
X0186515Y0016287D02*
X0181000Y0016287D01*
X0181000Y0015088D02*
X0186456Y0015088D01*
X0186736Y0013890D02*
X0181000Y0013890D01*
X0181000Y0012691D02*
X0187413Y0012691D01*
X0188837Y0011493D02*
X0181000Y0011493D01*
X0190616Y0022279D02*
X0191384Y0022279D01*
X0191384Y0023478D02*
X0190616Y0023478D01*
X0190616Y0024676D02*
X0191384Y0024676D01*
X0191384Y0027073D02*
X0190616Y0027073D01*
X0190616Y0028272D02*
X0191384Y0028272D01*
X0191384Y0029470D02*
X0190616Y0029470D01*
X0211000Y0040257D02*
X0291000Y0040257D01*
X0291000Y0041455D02*
X0211000Y0041455D01*
X0211000Y0042654D02*
X0291000Y0042654D01*
X0291000Y0043852D02*
X0211000Y0043852D01*
X0211000Y0045051D02*
X0291000Y0045051D01*
X0291000Y0046249D02*
X0211000Y0046249D01*
X0211000Y0047448D02*
X0291000Y0047448D01*
X0291000Y0048646D02*
X0211000Y0048646D01*
X0211000Y0049845D02*
X0291000Y0049845D01*
X0291000Y0051043D02*
X0216966Y0051043D01*
X0217066Y0051059D02*
X0217748Y0051281D01*
X0218386Y0051606D01*
X0218966Y0052027D01*
X0219473Y0052534D01*
X0219894Y0053114D01*
X0220219Y0053752D01*
X0220441Y0054434D01*
X0220549Y0055116D01*
X0216384Y0055116D01*
X0216384Y0050951D01*
X0217066Y0051059D01*
X0216384Y0051043D02*
X0215616Y0051043D01*
X0215616Y0050951D02*
X0215616Y0055116D01*
X0211451Y0055116D01*
X0211559Y0054434D01*
X0211781Y0053752D01*
X0212106Y0053114D01*
X0212527Y0052534D01*
X0213034Y0052027D01*
X0213614Y0051606D01*
X0214252Y0051281D01*
X0214934Y0051059D01*
X0215616Y0050951D01*
X0215034Y0051043D02*
X0211000Y0051043D01*
X0211000Y0052242D02*
X0212819Y0052242D01*
X0211940Y0053440D02*
X0211000Y0053440D01*
X0211000Y0054639D02*
X0211527Y0054639D01*
X0211451Y0055884D02*
X0215616Y0055884D01*
X0215616Y0055116D01*
X0216384Y0055116D01*
X0216384Y0055884D01*
X0215616Y0055884D01*
X0215616Y0060049D01*
X0214934Y0059941D01*
X0214252Y0059719D01*
X0213614Y0059394D01*
X0213034Y0058973D01*
X0212527Y0058466D01*
X0212106Y0057886D01*
X0211781Y0057248D01*
X0211559Y0056566D01*
X0211451Y0055884D01*
X0211000Y0055837D02*
X0215616Y0055837D01*
X0216384Y0055837D02*
X0230927Y0055837D01*
X0230960Y0055735D02*
X0231349Y0054972D01*
X0231852Y0054280D01*
X0232457Y0053675D01*
X0233150Y0053171D01*
X0233912Y0052783D01*
X0234726Y0052518D01*
X0235400Y0052411D01*
X0235400Y0057223D01*
X0230589Y0057223D01*
X0230695Y0056549D01*
X0230960Y0055735D01*
X0231591Y0054639D02*
X0220473Y0054639D01*
X0220549Y0055884D02*
X0216384Y0055884D01*
X0216384Y0060049D01*
X0217066Y0059941D01*
X0217748Y0059719D01*
X0218386Y0059394D01*
X0218966Y0058973D01*
X0219473Y0058466D01*
X0219894Y0057886D01*
X0220219Y0057248D01*
X0220441Y0056566D01*
X0220549Y0055884D01*
X0220288Y0057036D02*
X0230618Y0057036D01*
X0230589Y0058423D02*
X0235400Y0058423D01*
X0235400Y0063234D01*
X0234726Y0063127D01*
X0233912Y0062863D01*
X0233150Y0062474D01*
X0232457Y0061971D01*
X0231852Y0061366D01*
X0231349Y0060673D01*
X0230960Y0059911D01*
X0230695Y0059096D01*
X0230589Y0058423D01*
X0230805Y0059433D02*
X0218309Y0059433D01*
X0219641Y0058234D02*
X0235400Y0058234D01*
X0235400Y0058423D02*
X0235400Y0057223D01*
X0236600Y0057223D01*
X0236600Y0058423D01*
X0235400Y0058423D01*
X0235400Y0059433D02*
X0236600Y0059433D01*
X0236600Y0058423D02*
X0236600Y0063234D01*
X0237274Y0063127D01*
X0238088Y0062863D01*
X0238850Y0062474D01*
X0239543Y0061971D01*
X0240148Y0061366D01*
X0240651Y0060673D01*
X0241040Y0059911D01*
X0241305Y0059096D01*
X0241411Y0058423D01*
X0236600Y0058423D01*
X0236600Y0058234D02*
X0252045Y0058234D01*
X0252106Y0058114D02*
X0252527Y0057534D01*
X0253034Y0057027D01*
X0253614Y0056606D01*
X0254252Y0056281D01*
X0254934Y0056059D01*
X0255616Y0055951D01*
X0255616Y0060116D01*
X0251451Y0060116D01*
X0251559Y0059434D01*
X0251781Y0058752D01*
X0252106Y0058114D01*
X0253025Y0057036D02*
X0241382Y0057036D01*
X0241411Y0057223D02*
X0236600Y0057223D01*
X0236600Y0052411D01*
X0237274Y0052518D01*
X0238088Y0052783D01*
X0238850Y0053171D01*
X0239543Y0053675D01*
X0240148Y0054280D01*
X0240651Y0054972D01*
X0241040Y0055735D01*
X0241305Y0056549D01*
X0241411Y0057223D01*
X0241073Y0055837D02*
X0270927Y0055837D01*
X0270960Y0055735D02*
X0271349Y0054972D01*
X0271852Y0054280D01*
X0272457Y0053675D01*
X0273150Y0053171D01*
X0273912Y0052783D01*
X0274726Y0052518D01*
X0275400Y0052411D01*
X0275400Y0057223D01*
X0270589Y0057223D01*
X0270695Y0056549D01*
X0270960Y0055735D01*
X0271591Y0054639D02*
X0240409Y0054639D01*
X0239221Y0053440D02*
X0272779Y0053440D01*
X0275400Y0053440D02*
X0276600Y0053440D01*
X0276600Y0052411D02*
X0277274Y0052518D01*
X0278088Y0052783D01*
X0278850Y0053171D01*
X0279543Y0053675D01*
X0280148Y0054280D01*
X0280651Y0054972D01*
X0281040Y0055735D01*
X0281305Y0056549D01*
X0281411Y0057223D01*
X0276600Y0057223D01*
X0276600Y0058423D01*
X0275400Y0058423D01*
X0275400Y0063234D01*
X0274726Y0063127D01*
X0273912Y0062863D01*
X0273150Y0062474D01*
X0272457Y0061971D01*
X0271852Y0061366D01*
X0271349Y0060673D01*
X0270960Y0059911D01*
X0270695Y0059096D01*
X0270589Y0058423D01*
X0275400Y0058423D01*
X0275400Y0057223D01*
X0276600Y0057223D01*
X0276600Y0052411D01*
X0276600Y0054639D02*
X0275400Y0054639D01*
X0275400Y0055837D02*
X0276600Y0055837D01*
X0276600Y0057036D02*
X0275400Y0057036D01*
X0275400Y0058234D02*
X0259955Y0058234D01*
X0259894Y0058114D02*
X0260219Y0058752D01*
X0260441Y0059434D01*
X0260549Y0060116D01*
X0256384Y0060116D01*
X0256384Y0055951D01*
X0257066Y0056059D01*
X0257748Y0056281D01*
X0258386Y0056606D01*
X0258966Y0057027D01*
X0259473Y0057534D01*
X0259894Y0058114D01*
X0258975Y0057036D02*
X0270618Y0057036D01*
X0270805Y0059433D02*
X0260440Y0059433D01*
X0260549Y0060884D02*
X0260441Y0061566D01*
X0260219Y0062248D01*
X0259894Y0062886D01*
X0259473Y0063466D01*
X0258966Y0063973D01*
X0258386Y0064394D01*
X0257748Y0064719D01*
X0257066Y0064941D01*
X0256384Y0065049D01*
X0256384Y0060884D01*
X0255616Y0060884D01*
X0255616Y0060116D01*
X0256384Y0060116D01*
X0256384Y0060884D01*
X0260549Y0060884D01*
X0260355Y0061830D02*
X0272316Y0061830D01*
X0271327Y0060632D02*
X0256384Y0060632D01*
X0256000Y0060500D02*
X0266000Y0065500D01*
X0266000Y0090500D01*
X0276000Y0090500D02*
X0287654Y0090500D01*
X0294346Y0090500D02*
X0294346Y0102154D01*
X0294346Y0105500D02*
X0231000Y0105500D01*
X0226000Y0100500D01*
X0247654Y0115500D02*
X0240654Y0122500D01*
X0195000Y0122500D01*
X0226000Y0145500D02*
X0226000Y0160500D01*
X0246000Y0140500D01*
X0256000Y0140500D01*
X0266000Y0140500D02*
X0271000Y0135500D01*
X0277654Y0135500D01*
X0284346Y0135500D02*
X0294346Y0125500D01*
X0294346Y0115500D01*
X0294346Y0105500D01*
X0294346Y0090500D01*
X0301000Y0090594D02*
X0381000Y0090594D01*
X0381000Y0089396D02*
X0301000Y0089396D01*
X0301000Y0088197D02*
X0381000Y0088197D01*
X0381000Y0086999D02*
X0301000Y0086999D01*
X0301000Y0085800D02*
X0381000Y0085800D01*
X0381000Y0084602D02*
X0301000Y0084602D01*
X0301000Y0083403D02*
X0381000Y0083403D01*
X0381000Y0082205D02*
X0301000Y0082205D01*
X0301000Y0081006D02*
X0381000Y0081006D01*
X0381000Y0079808D02*
X0301000Y0079808D01*
X0301000Y0078609D02*
X0381000Y0078609D01*
X0381000Y0077411D02*
X0301000Y0077411D01*
X0301000Y0076212D02*
X0381000Y0076212D01*
X0381000Y0075014D02*
X0301000Y0075014D01*
X0301000Y0073815D02*
X0381000Y0073815D01*
X0381000Y0072617D02*
X0301000Y0072617D01*
X0301000Y0071418D02*
X0324778Y0071418D01*
X0324634Y0071358D02*
X0323213Y0069937D01*
X0322443Y0068080D01*
X0322443Y0066070D01*
X0323213Y0064213D01*
X0324634Y0062791D01*
X0326491Y0062022D01*
X0328501Y0062022D01*
X0330358Y0062791D01*
X0331780Y0064213D01*
X0332549Y0066070D01*
X0332549Y0068080D01*
X0331780Y0069937D01*
X0330358Y0071358D01*
X0328501Y0072128D01*
X0326491Y0072128D01*
X0324634Y0071358D01*
X0323495Y0070220D02*
X0301000Y0070220D01*
X0301000Y0069021D02*
X0322833Y0069021D01*
X0322443Y0067823D02*
X0301000Y0067823D01*
X0301000Y0066624D02*
X0322443Y0066624D01*
X0322710Y0065426D02*
X0301000Y0065426D01*
X0301000Y0064227D02*
X0323207Y0064227D01*
X0324397Y0063029D02*
X0317578Y0063029D01*
X0317274Y0063127D02*
X0316600Y0063234D01*
X0316600Y0058423D01*
X0315400Y0058423D01*
X0315400Y0063234D01*
X0314726Y0063127D01*
X0313912Y0062863D01*
X0313150Y0062474D01*
X0312457Y0061971D01*
X0311852Y0061366D01*
X0311349Y0060673D01*
X0310960Y0059911D01*
X0310695Y0059096D01*
X0310589Y0058423D01*
X0315400Y0058423D01*
X0315400Y0057223D01*
X0310589Y0057223D01*
X0310695Y0056549D01*
X0310960Y0055735D01*
X0311349Y0054972D01*
X0311852Y0054280D01*
X0312457Y0053675D01*
X0313150Y0053171D01*
X0313912Y0052783D01*
X0314726Y0052518D01*
X0315400Y0052411D01*
X0315400Y0057223D01*
X0316600Y0057223D01*
X0316600Y0058423D01*
X0321411Y0058423D01*
X0321305Y0059096D01*
X0321040Y0059911D01*
X0320651Y0060673D01*
X0320148Y0061366D01*
X0319543Y0061971D01*
X0318850Y0062474D01*
X0318088Y0062863D01*
X0317274Y0063127D01*
X0316600Y0063029D02*
X0315400Y0063029D01*
X0314422Y0063029D02*
X0301000Y0063029D01*
X0301000Y0061830D02*
X0312316Y0061830D01*
X0311327Y0060632D02*
X0301000Y0060632D01*
X0301000Y0059433D02*
X0310805Y0059433D01*
X0310618Y0057036D02*
X0301000Y0057036D01*
X0301000Y0058234D02*
X0315400Y0058234D01*
X0315400Y0057036D02*
X0316600Y0057036D01*
X0316600Y0057223D02*
X0316600Y0052411D01*
X0317274Y0052518D01*
X0318088Y0052783D01*
X0318850Y0053171D01*
X0319543Y0053675D01*
X0320148Y0054280D01*
X0320651Y0054972D01*
X0321040Y0055735D01*
X0321305Y0056549D01*
X0321411Y0057223D01*
X0316600Y0057223D01*
X0316600Y0058234D02*
X0360400Y0058234D01*
X0360400Y0058423D02*
X0360400Y0057223D01*
X0355589Y0057223D01*
X0355695Y0056549D01*
X0355960Y0055735D01*
X0356349Y0054972D01*
X0356852Y0054280D01*
X0357457Y0053675D01*
X0358150Y0053171D01*
X0358912Y0052783D01*
X0359726Y0052518D01*
X0360400Y0052411D01*
X0360400Y0057223D01*
X0361600Y0057223D01*
X0361600Y0058423D01*
X0360400Y0058423D01*
X0360400Y0063234D01*
X0359726Y0063127D01*
X0358912Y0062863D01*
X0358150Y0062474D01*
X0357457Y0061971D01*
X0356852Y0061366D01*
X0356349Y0060673D01*
X0355960Y0059911D01*
X0355695Y0059096D01*
X0355589Y0058423D01*
X0360400Y0058423D01*
X0360400Y0059433D02*
X0361600Y0059433D01*
X0361600Y0058423D02*
X0361600Y0063234D01*
X0362274Y0063127D01*
X0363088Y0062863D01*
X0363850Y0062474D01*
X0364543Y0061971D01*
X0365148Y0061366D01*
X0365651Y0060673D01*
X0366040Y0059911D01*
X0366305Y0059096D01*
X0366411Y0058423D01*
X0361600Y0058423D01*
X0361600Y0058234D02*
X0381000Y0058234D01*
X0381000Y0057036D02*
X0366382Y0057036D01*
X0366411Y0057223D02*
X0361600Y0057223D01*
X0361600Y0052411D01*
X0362274Y0052518D01*
X0363088Y0052783D01*
X0363850Y0053171D01*
X0364543Y0053675D01*
X0365148Y0054280D01*
X0365651Y0054972D01*
X0366040Y0055735D01*
X0366305Y0056549D01*
X0366411Y0057223D01*
X0366073Y0055837D02*
X0381000Y0055837D01*
X0381000Y0054639D02*
X0365409Y0054639D01*
X0364221Y0053440D02*
X0381000Y0053440D01*
X0381000Y0052242D02*
X0301000Y0052242D01*
X0301000Y0053440D02*
X0312779Y0053440D01*
X0311591Y0054639D02*
X0301000Y0054639D01*
X0301000Y0055837D02*
X0310927Y0055837D01*
X0315400Y0055837D02*
X0316600Y0055837D01*
X0316600Y0054639D02*
X0315400Y0054639D01*
X0315400Y0053440D02*
X0316600Y0053440D01*
X0319221Y0053440D02*
X0357779Y0053440D01*
X0356591Y0054639D02*
X0320409Y0054639D01*
X0321073Y0055837D02*
X0355927Y0055837D01*
X0355618Y0057036D02*
X0321382Y0057036D01*
X0321195Y0059433D02*
X0355805Y0059433D01*
X0356327Y0060632D02*
X0320673Y0060632D01*
X0319684Y0061830D02*
X0357316Y0061830D01*
X0359422Y0063029D02*
X0330595Y0063029D01*
X0331786Y0064227D02*
X0368207Y0064227D01*
X0368213Y0064213D02*
X0369634Y0062791D01*
X0371491Y0062022D01*
X0373501Y0062022D01*
X0375358Y0062791D01*
X0376780Y0064213D01*
X0377549Y0066070D01*
X0377549Y0068080D01*
X0376780Y0069937D01*
X0375358Y0071358D01*
X0373501Y0072128D01*
X0371491Y0072128D01*
X0369634Y0071358D01*
X0368213Y0069937D01*
X0367443Y0068080D01*
X0367443Y0066070D01*
X0368213Y0064213D01*
X0367710Y0065426D02*
X0332282Y0065426D01*
X0332549Y0066624D02*
X0367443Y0066624D01*
X0367443Y0067823D02*
X0332549Y0067823D01*
X0332159Y0069021D02*
X0367833Y0069021D01*
X0368495Y0070220D02*
X0331497Y0070220D01*
X0330214Y0071418D02*
X0369778Y0071418D01*
X0375214Y0071418D02*
X0381000Y0071418D01*
X0381000Y0070220D02*
X0376497Y0070220D01*
X0377159Y0069021D02*
X0381000Y0069021D01*
X0381000Y0067823D02*
X0377549Y0067823D01*
X0377549Y0066624D02*
X0381000Y0066624D01*
X0381000Y0065426D02*
X0377282Y0065426D01*
X0376786Y0064227D02*
X0381000Y0064227D01*
X0381000Y0063029D02*
X0375595Y0063029D01*
X0381000Y0061830D02*
X0364684Y0061830D01*
X0365673Y0060632D02*
X0381000Y0060632D01*
X0381000Y0059433D02*
X0366195Y0059433D01*
X0361600Y0060632D02*
X0360400Y0060632D01*
X0360400Y0061830D02*
X0361600Y0061830D01*
X0361600Y0063029D02*
X0360400Y0063029D01*
X0362578Y0063029D02*
X0369397Y0063029D01*
X0361600Y0057036D02*
X0360400Y0057036D01*
X0360400Y0055837D02*
X0361600Y0055837D01*
X0361600Y0054639D02*
X0360400Y0054639D01*
X0360400Y0053440D02*
X0361600Y0053440D01*
X0381000Y0051043D02*
X0301000Y0051043D01*
X0301000Y0049845D02*
X0381000Y0049845D01*
X0381000Y0048646D02*
X0301000Y0048646D01*
X0301000Y0047448D02*
X0381000Y0047448D01*
X0381000Y0046249D02*
X0301000Y0046249D01*
X0301000Y0045051D02*
X0381000Y0045051D01*
X0381000Y0043852D02*
X0301000Y0043852D01*
X0301000Y0042654D02*
X0381000Y0042654D01*
X0381000Y0041455D02*
X0301000Y0041455D01*
X0301000Y0040257D02*
X0381000Y0040257D01*
X0381000Y0039058D02*
X0301000Y0039058D01*
X0301000Y0037860D02*
X0314852Y0037860D01*
X0314878Y0037871D02*
X0312806Y0037012D01*
X0311220Y0035426D01*
X0310361Y0033354D01*
X0310361Y0031111D01*
X0311220Y0029038D01*
X0312806Y0027452D01*
X0314878Y0026594D01*
X0317122Y0026594D01*
X0319194Y0027452D01*
X0320780Y0029038D01*
X0321639Y0031111D01*
X0321639Y0033354D01*
X0320780Y0035426D01*
X0319194Y0037012D01*
X0317122Y0037871D01*
X0314878Y0037871D01*
X0317148Y0037860D02*
X0359852Y0037860D01*
X0359878Y0037871D02*
X0357806Y0037012D01*
X0356220Y0035426D01*
X0355361Y0033354D01*
X0355361Y0031111D01*
X0356220Y0029038D01*
X0357806Y0027452D01*
X0359878Y0026594D01*
X0362122Y0026594D01*
X0364194Y0027452D01*
X0365780Y0029038D01*
X0366639Y0031111D01*
X0366639Y0033354D01*
X0365780Y0035426D01*
X0364194Y0037012D01*
X0362122Y0037871D01*
X0359878Y0037871D01*
X0362148Y0037860D02*
X0381000Y0037860D01*
X0381000Y0036661D02*
X0364545Y0036661D01*
X0365744Y0035463D02*
X0381000Y0035463D01*
X0381000Y0034264D02*
X0366261Y0034264D01*
X0366639Y0033066D02*
X0381000Y0033066D01*
X0381000Y0031867D02*
X0366639Y0031867D01*
X0366455Y0030669D02*
X0381000Y0030669D01*
X0381000Y0029470D02*
X0365959Y0029470D01*
X0365014Y0028272D02*
X0381000Y0028272D01*
X0381000Y0027073D02*
X0363279Y0027073D01*
X0358721Y0027073D02*
X0318279Y0027073D01*
X0320014Y0028272D02*
X0356986Y0028272D01*
X0356041Y0029470D02*
X0320959Y0029470D01*
X0321455Y0030669D02*
X0355544Y0030669D01*
X0355361Y0031867D02*
X0321639Y0031867D01*
X0321639Y0033066D02*
X0355361Y0033066D01*
X0355739Y0034264D02*
X0321261Y0034264D01*
X0320744Y0035463D02*
X0356256Y0035463D01*
X0357455Y0036661D02*
X0319545Y0036661D01*
X0312455Y0036661D02*
X0301000Y0036661D01*
X0301000Y0035463D02*
X0311256Y0035463D01*
X0310739Y0034264D02*
X0301000Y0034264D01*
X0301000Y0033066D02*
X0310361Y0033066D01*
X0310361Y0031867D02*
X0301000Y0031867D01*
X0301000Y0030669D02*
X0310544Y0030669D01*
X0311041Y0029470D02*
X0301000Y0029470D01*
X0301000Y0028272D02*
X0311986Y0028272D01*
X0313721Y0027073D02*
X0301000Y0027073D01*
X0301000Y0025875D02*
X0381000Y0025875D01*
X0381000Y0024676D02*
X0301000Y0024676D01*
X0301000Y0023478D02*
X0381000Y0023478D01*
X0381000Y0023152D02*
X0380128Y0022791D01*
X0377838Y0020500D01*
X0301000Y0020500D01*
X0301000Y0152500D01*
X0211000Y0152500D01*
X0211000Y0170500D01*
X0301000Y0170500D01*
X0301000Y0225500D01*
X0381000Y0225500D01*
X0381000Y0220717D01*
X0380358Y0221358D01*
X0378501Y0222128D01*
X0376491Y0222128D01*
X0374634Y0221358D01*
X0373213Y0219937D01*
X0372443Y0218080D01*
X0372443Y0216070D01*
X0373213Y0214213D01*
X0374634Y0212791D01*
X0376491Y0212022D01*
X0378501Y0212022D01*
X0380358Y0212791D01*
X0381000Y0213433D01*
X0381000Y0140717D01*
X0380358Y0141358D01*
X0378501Y0142128D01*
X0376491Y0142128D01*
X0374634Y0141358D01*
X0373213Y0139937D01*
X0372443Y0138080D01*
X0372443Y0136070D01*
X0373213Y0134213D01*
X0374634Y0132791D01*
X0376491Y0132022D01*
X0378501Y0132022D01*
X0380358Y0132791D01*
X0381000Y0133433D01*
X0381000Y0023152D01*
X0379617Y0022279D02*
X0301000Y0022279D01*
X0301000Y0021081D02*
X0378418Y0021081D01*
X0316600Y0059433D02*
X0315400Y0059433D01*
X0315400Y0060632D02*
X0316600Y0060632D01*
X0316600Y0061830D02*
X0315400Y0061830D01*
X0291000Y0061830D02*
X0279684Y0061830D01*
X0279543Y0061971D02*
X0280148Y0061366D01*
X0280651Y0060673D01*
X0281040Y0059911D01*
X0281305Y0059096D01*
X0281411Y0058423D01*
X0276600Y0058423D01*
X0276600Y0063234D01*
X0277274Y0063127D01*
X0278088Y0062863D01*
X0278850Y0062474D01*
X0279543Y0061971D01*
X0280673Y0060632D02*
X0291000Y0060632D01*
X0291000Y0059433D02*
X0281195Y0059433D01*
X0281382Y0057036D02*
X0291000Y0057036D01*
X0291000Y0058234D02*
X0276600Y0058234D01*
X0276600Y0059433D02*
X0275400Y0059433D01*
X0275400Y0060632D02*
X0276600Y0060632D01*
X0276600Y0061830D02*
X0275400Y0061830D01*
X0275400Y0063029D02*
X0276600Y0063029D01*
X0277578Y0063029D02*
X0284397Y0063029D01*
X0283207Y0064227D02*
X0258616Y0064227D01*
X0259790Y0063029D02*
X0274422Y0063029D01*
X0282710Y0065426D02*
X0252282Y0065426D01*
X0251786Y0064227D02*
X0253384Y0064227D01*
X0253614Y0064394D02*
X0253034Y0063973D01*
X0252527Y0063466D01*
X0252106Y0062886D01*
X0251781Y0062248D01*
X0251559Y0061566D01*
X0251451Y0060884D01*
X0255616Y0060884D01*
X0255616Y0065049D01*
X0254934Y0064941D01*
X0254252Y0064719D01*
X0253614Y0064394D01*
X0252210Y0063029D02*
X0250595Y0063029D01*
X0251645Y0061830D02*
X0239684Y0061830D01*
X0240673Y0060632D02*
X0255616Y0060632D01*
X0255616Y0061830D02*
X0256384Y0061830D01*
X0256384Y0063029D02*
X0255616Y0063029D01*
X0255616Y0064227D02*
X0256384Y0064227D01*
X0256384Y0059433D02*
X0255616Y0059433D01*
X0255616Y0058234D02*
X0256384Y0058234D01*
X0256384Y0057036D02*
X0255616Y0057036D01*
X0251560Y0059433D02*
X0241195Y0059433D01*
X0236600Y0060632D02*
X0235400Y0060632D01*
X0235400Y0061830D02*
X0236600Y0061830D01*
X0236600Y0063029D02*
X0235400Y0063029D01*
X0234422Y0063029D02*
X0211000Y0063029D01*
X0211000Y0064227D02*
X0243207Y0064227D01*
X0242710Y0065426D02*
X0211000Y0065426D01*
X0211000Y0061830D02*
X0232316Y0061830D01*
X0231327Y0060632D02*
X0211000Y0060632D01*
X0211000Y0059433D02*
X0213691Y0059433D01*
X0212359Y0058234D02*
X0211000Y0058234D01*
X0211000Y0057036D02*
X0211712Y0057036D01*
X0215616Y0057036D02*
X0216384Y0057036D01*
X0216384Y0058234D02*
X0215616Y0058234D01*
X0215616Y0059433D02*
X0216384Y0059433D01*
X0216384Y0054639D02*
X0215616Y0054639D01*
X0215616Y0053440D02*
X0216384Y0053440D01*
X0216384Y0052242D02*
X0215616Y0052242D01*
X0219180Y0052242D02*
X0291000Y0052242D01*
X0291000Y0053440D02*
X0279221Y0053440D01*
X0280409Y0054639D02*
X0291000Y0054639D01*
X0291000Y0055837D02*
X0281073Y0055837D01*
X0290595Y0063029D02*
X0291000Y0063029D01*
X0291000Y0036661D02*
X0279545Y0036661D01*
X0280744Y0035463D02*
X0291000Y0035463D01*
X0291000Y0034264D02*
X0281261Y0034264D01*
X0281639Y0033066D02*
X0291000Y0033066D01*
X0291000Y0031867D02*
X0281639Y0031867D01*
X0281455Y0030669D02*
X0291000Y0030669D01*
X0291000Y0029470D02*
X0280959Y0029470D01*
X0280014Y0028272D02*
X0291000Y0028272D01*
X0244397Y0063029D02*
X0237578Y0063029D01*
X0236600Y0057036D02*
X0235400Y0057036D01*
X0235400Y0055837D02*
X0236600Y0055837D01*
X0236600Y0054639D02*
X0235400Y0054639D01*
X0235400Y0053440D02*
X0236600Y0053440D01*
X0232779Y0053440D02*
X0220060Y0053440D01*
X0254346Y0115500D02*
X0266000Y0115500D01*
X0276000Y0115500D01*
X0287654Y0115500D01*
X0301000Y0115763D02*
X0381000Y0115763D01*
X0381000Y0114565D02*
X0301000Y0114565D01*
X0301000Y0113366D02*
X0381000Y0113366D01*
X0381000Y0112168D02*
X0301000Y0112168D01*
X0301000Y0110969D02*
X0381000Y0110969D01*
X0381000Y0109770D02*
X0301000Y0109770D01*
X0301000Y0108572D02*
X0381000Y0108572D01*
X0381000Y0107373D02*
X0368322Y0107373D01*
X0369194Y0107012D02*
X0367122Y0107871D01*
X0364878Y0107871D01*
X0362806Y0107012D01*
X0361220Y0105426D01*
X0360361Y0103354D01*
X0360361Y0101111D01*
X0361220Y0099038D01*
X0362806Y0097452D01*
X0364878Y0096594D01*
X0367122Y0096594D01*
X0369194Y0097452D01*
X0370780Y0099038D01*
X0371639Y0101111D01*
X0371639Y0103354D01*
X0370780Y0105426D01*
X0369194Y0107012D01*
X0370031Y0106175D02*
X0381000Y0106175D01*
X0381000Y0104976D02*
X0370966Y0104976D01*
X0371463Y0103778D02*
X0381000Y0103778D01*
X0381000Y0102579D02*
X0371639Y0102579D01*
X0371639Y0101381D02*
X0381000Y0101381D01*
X0381000Y0100182D02*
X0371254Y0100182D01*
X0370726Y0098984D02*
X0381000Y0098984D01*
X0381000Y0097785D02*
X0369527Y0097785D01*
X0362473Y0097785D02*
X0324527Y0097785D01*
X0324194Y0097452D02*
X0325780Y0099038D01*
X0326639Y0101111D01*
X0326639Y0103354D01*
X0325780Y0105426D01*
X0324194Y0107012D01*
X0322122Y0107871D01*
X0319878Y0107871D01*
X0317806Y0107012D01*
X0316220Y0105426D01*
X0315361Y0103354D01*
X0315361Y0101111D01*
X0316220Y0099038D01*
X0317806Y0097452D01*
X0319878Y0096594D01*
X0322122Y0096594D01*
X0324194Y0097452D01*
X0325726Y0098984D02*
X0361274Y0098984D01*
X0360746Y0100182D02*
X0326254Y0100182D01*
X0326639Y0101381D02*
X0360361Y0101381D01*
X0360361Y0102579D02*
X0326639Y0102579D01*
X0326463Y0103778D02*
X0360537Y0103778D01*
X0361034Y0104976D02*
X0325966Y0104976D01*
X0325031Y0106175D02*
X0361969Y0106175D01*
X0363678Y0107373D02*
X0323322Y0107373D01*
X0318678Y0107373D02*
X0301000Y0107373D01*
X0301000Y0106175D02*
X0316969Y0106175D01*
X0316034Y0104976D02*
X0301000Y0104976D01*
X0301000Y0103778D02*
X0315537Y0103778D01*
X0315361Y0102579D02*
X0301000Y0102579D01*
X0301000Y0101381D02*
X0315361Y0101381D01*
X0315746Y0100182D02*
X0301000Y0100182D01*
X0301000Y0098984D02*
X0316274Y0098984D01*
X0317473Y0097785D02*
X0301000Y0097785D01*
X0301000Y0096587D02*
X0381000Y0096587D01*
X0381000Y0095388D02*
X0301000Y0095388D01*
X0301000Y0094190D02*
X0381000Y0094190D01*
X0381000Y0092991D02*
X0301000Y0092991D01*
X0301000Y0091793D02*
X0381000Y0091793D01*
X0381000Y0116962D02*
X0301000Y0116962D01*
X0301000Y0118160D02*
X0381000Y0118160D01*
X0381000Y0119359D02*
X0301000Y0119359D01*
X0301000Y0120557D02*
X0381000Y0120557D01*
X0381000Y0121756D02*
X0301000Y0121756D01*
X0301000Y0122954D02*
X0318576Y0122954D01*
X0318912Y0122783D02*
X0319726Y0122518D01*
X0320400Y0122411D01*
X0320400Y0127223D01*
X0315589Y0127223D01*
X0315695Y0126549D01*
X0315960Y0125735D01*
X0316349Y0124972D01*
X0316852Y0124280D01*
X0317457Y0123675D01*
X0318150Y0123171D01*
X0318912Y0122783D01*
X0320400Y0122954D02*
X0321600Y0122954D01*
X0321600Y0122411D02*
X0322274Y0122518D01*
X0323088Y0122783D01*
X0323850Y0123171D01*
X0324543Y0123675D01*
X0325148Y0124280D01*
X0325651Y0124972D01*
X0326040Y0125735D01*
X0326305Y0126549D01*
X0326411Y0127223D01*
X0321600Y0127223D01*
X0321600Y0128423D01*
X0320400Y0128423D01*
X0320400Y0133234D01*
X0319726Y0133127D01*
X0318912Y0132863D01*
X0318150Y0132474D01*
X0317457Y0131971D01*
X0316852Y0131366D01*
X0316349Y0130673D01*
X0315960Y0129911D01*
X0315695Y0129096D01*
X0315589Y0128423D01*
X0320400Y0128423D01*
X0320400Y0127223D01*
X0321600Y0127223D01*
X0321600Y0122411D01*
X0321600Y0124153D02*
X0320400Y0124153D01*
X0320400Y0125351D02*
X0321600Y0125351D01*
X0321600Y0126550D02*
X0320400Y0126550D01*
X0320400Y0127748D02*
X0301000Y0127748D01*
X0301000Y0126550D02*
X0315695Y0126550D01*
X0316156Y0125351D02*
X0301000Y0125351D01*
X0301000Y0124153D02*
X0316979Y0124153D01*
X0315672Y0128947D02*
X0301000Y0128947D01*
X0301000Y0130145D02*
X0316079Y0130145D01*
X0316836Y0131344D02*
X0301000Y0131344D01*
X0301000Y0132542D02*
X0318283Y0132542D01*
X0320400Y0132542D02*
X0321600Y0132542D01*
X0321600Y0133234D02*
X0322274Y0133127D01*
X0323088Y0132863D01*
X0323850Y0132474D01*
X0324543Y0131971D01*
X0325148Y0131366D01*
X0325651Y0130673D01*
X0326040Y0129911D01*
X0326305Y0129096D01*
X0326411Y0128423D01*
X0321600Y0128423D01*
X0321600Y0133234D01*
X0321600Y0131344D02*
X0320400Y0131344D01*
X0320400Y0130145D02*
X0321600Y0130145D01*
X0321600Y0128947D02*
X0320400Y0128947D01*
X0321600Y0127748D02*
X0365400Y0127748D01*
X0365400Y0127223D02*
X0360589Y0127223D01*
X0360695Y0126549D01*
X0360960Y0125735D01*
X0361349Y0124972D01*
X0361852Y0124280D01*
X0362457Y0123675D01*
X0363150Y0123171D01*
X0363912Y0122783D01*
X0364726Y0122518D01*
X0365400Y0122411D01*
X0365400Y0127223D01*
X0365400Y0128423D01*
X0365400Y0133234D01*
X0364726Y0133127D01*
X0363912Y0132863D01*
X0363150Y0132474D01*
X0362457Y0131971D01*
X0361852Y0131366D01*
X0361349Y0130673D01*
X0360960Y0129911D01*
X0360695Y0129096D01*
X0360589Y0128423D01*
X0365400Y0128423D01*
X0366600Y0128423D01*
X0366600Y0133234D01*
X0367274Y0133127D01*
X0368088Y0132863D01*
X0368850Y0132474D01*
X0369543Y0131971D01*
X0370148Y0131366D01*
X0370651Y0130673D01*
X0371040Y0129911D01*
X0371305Y0129096D01*
X0371411Y0128423D01*
X0366600Y0128423D01*
X0366600Y0127223D01*
X0371411Y0127223D01*
X0371305Y0126549D01*
X0371040Y0125735D01*
X0370651Y0124972D01*
X0370148Y0124280D01*
X0369543Y0123675D01*
X0368850Y0123171D01*
X0368088Y0122783D01*
X0367274Y0122518D01*
X0366600Y0122411D01*
X0366600Y0127223D01*
X0365400Y0127223D01*
X0365400Y0126550D02*
X0366600Y0126550D01*
X0366600Y0127748D02*
X0381000Y0127748D01*
X0381000Y0126550D02*
X0371305Y0126550D01*
X0370844Y0125351D02*
X0381000Y0125351D01*
X0381000Y0124153D02*
X0370021Y0124153D01*
X0368424Y0122954D02*
X0381000Y0122954D01*
X0381000Y0128947D02*
X0371328Y0128947D01*
X0370921Y0130145D02*
X0381000Y0130145D01*
X0381000Y0131344D02*
X0370164Y0131344D01*
X0368717Y0132542D02*
X0375235Y0132542D01*
X0373684Y0133741D02*
X0336308Y0133741D01*
X0336780Y0134213D02*
X0337549Y0136070D01*
X0337549Y0138080D01*
X0336780Y0139937D01*
X0335358Y0141358D01*
X0333501Y0142128D01*
X0331491Y0142128D01*
X0329634Y0141358D01*
X0328213Y0139937D01*
X0327443Y0138080D01*
X0327443Y0136070D01*
X0328213Y0134213D01*
X0329634Y0132791D01*
X0331491Y0132022D01*
X0333501Y0132022D01*
X0335358Y0132791D01*
X0336780Y0134213D01*
X0337081Y0134939D02*
X0372912Y0134939D01*
X0372443Y0136138D02*
X0337549Y0136138D01*
X0337549Y0137336D02*
X0372443Y0137336D01*
X0372632Y0138535D02*
X0337360Y0138535D01*
X0336864Y0139733D02*
X0373128Y0139733D01*
X0374207Y0140932D02*
X0335785Y0140932D01*
X0329207Y0140932D02*
X0301000Y0140932D01*
X0301000Y0142130D02*
X0307931Y0142130D01*
X0308034Y0142027D02*
X0308614Y0141606D01*
X0309252Y0141281D01*
X0309934Y0141059D01*
X0310616Y0140951D01*
X0310616Y0145116D01*
X0311384Y0145116D01*
X0311384Y0140951D01*
X0312066Y0141059D01*
X0312748Y0141281D01*
X0313386Y0141606D01*
X0313966Y0142027D01*
X0314473Y0142534D01*
X0314894Y0143114D01*
X0315219Y0143752D01*
X0315441Y0144434D01*
X0315549Y0145116D01*
X0311384Y0145116D01*
X0311384Y0145884D01*
X0315549Y0145884D01*
X0315441Y0146566D01*
X0315219Y0147248D01*
X0314894Y0147886D01*
X0314473Y0148466D01*
X0313966Y0148973D01*
X0313386Y0149394D01*
X0312748Y0149719D01*
X0312066Y0149941D01*
X0311384Y0150049D01*
X0311384Y0145884D01*
X0310616Y0145884D01*
X0310616Y0145116D01*
X0306451Y0145116D01*
X0306559Y0144434D01*
X0306781Y0143752D01*
X0307106Y0143114D01*
X0307527Y0142534D01*
X0308034Y0142027D01*
X0306997Y0143329D02*
X0301000Y0143329D01*
X0301000Y0144527D02*
X0306545Y0144527D01*
X0306451Y0145884D02*
X0310616Y0145884D01*
X0310616Y0150049D01*
X0309934Y0149941D01*
X0309252Y0149719D01*
X0308614Y0149394D01*
X0308034Y0148973D01*
X0307527Y0148466D01*
X0307106Y0147886D01*
X0306781Y0147248D01*
X0306559Y0146566D01*
X0306451Y0145884D01*
X0306676Y0146924D02*
X0301000Y0146924D01*
X0301000Y0145726D02*
X0310616Y0145726D01*
X0311384Y0145726D02*
X0381000Y0145726D01*
X0381000Y0146924D02*
X0315324Y0146924D01*
X0314722Y0148123D02*
X0381000Y0148123D01*
X0381000Y0149321D02*
X0313486Y0149321D01*
X0311384Y0149321D02*
X0310616Y0149321D01*
X0310616Y0148123D02*
X0311384Y0148123D01*
X0311384Y0146924D02*
X0310616Y0146924D01*
X0310616Y0144527D02*
X0311384Y0144527D01*
X0311384Y0143329D02*
X0310616Y0143329D01*
X0310616Y0142130D02*
X0311384Y0142130D01*
X0314069Y0142130D02*
X0381000Y0142130D01*
X0381000Y0140932D02*
X0380785Y0140932D01*
X0381000Y0143329D02*
X0315003Y0143329D01*
X0315455Y0144527D02*
X0381000Y0144527D01*
X0381000Y0150520D02*
X0301000Y0150520D01*
X0301000Y0151718D02*
X0381000Y0151718D01*
X0381000Y0152917D02*
X0211000Y0152917D01*
X0211000Y0154115D02*
X0223514Y0154115D01*
X0223793Y0154000D02*
X0222964Y0154343D01*
X0222186Y0154792D01*
X0221474Y0155339D01*
X0220839Y0155974D01*
X0220292Y0156686D01*
X0219843Y0157464D01*
X0219500Y0158293D01*
X0219267Y0159161D01*
X0219170Y0159900D01*
X0225400Y0159900D01*
X0226600Y0159900D01*
X0226600Y0161100D01*
X0232830Y0161100D01*
X0232733Y0161839D01*
X0232500Y0162707D01*
X0232157Y0163536D01*
X0231708Y0164314D01*
X0231161Y0165026D01*
X0230526Y0165661D01*
X0229814Y0166208D01*
X0229036Y0166657D01*
X0228207Y0167000D01*
X0227339Y0167233D01*
X0226600Y0167330D01*
X0226600Y0161100D01*
X0225400Y0161100D01*
X0225400Y0167330D01*
X0224661Y0167233D01*
X0223793Y0167000D01*
X0222964Y0166657D01*
X0222186Y0166208D01*
X0221474Y0165661D01*
X0220839Y0165026D01*
X0220292Y0164314D01*
X0219843Y0163536D01*
X0219500Y0162707D01*
X0219267Y0161839D01*
X0219170Y0161100D01*
X0225400Y0161100D01*
X0225400Y0159900D01*
X0225400Y0153670D01*
X0224661Y0153767D01*
X0223793Y0154000D01*
X0225400Y0154115D02*
X0226600Y0154115D01*
X0226600Y0153670D02*
X0227339Y0153767D01*
X0228207Y0154000D01*
X0229036Y0154343D01*
X0229814Y0154792D01*
X0230526Y0155339D01*
X0231161Y0155974D01*
X0231708Y0156686D01*
X0232157Y0157464D01*
X0232500Y0158293D01*
X0232733Y0159161D01*
X0232830Y0159900D01*
X0226600Y0159900D01*
X0226600Y0153670D01*
X0226600Y0155314D02*
X0225400Y0155314D01*
X0225400Y0156512D02*
X0226600Y0156512D01*
X0226600Y0157711D02*
X0225400Y0157711D01*
X0225400Y0158909D02*
X0226600Y0158909D01*
X0226600Y0160108D02*
X0381000Y0160108D01*
X0381000Y0161306D02*
X0232803Y0161306D01*
X0232554Y0162505D02*
X0381000Y0162505D01*
X0381000Y0163703D02*
X0232060Y0163703D01*
X0231256Y0164902D02*
X0381000Y0164902D01*
X0381000Y0166101D02*
X0229954Y0166101D01*
X0226836Y0167299D02*
X0381000Y0167299D01*
X0381000Y0168498D02*
X0211000Y0168498D01*
X0211000Y0169696D02*
X0381000Y0169696D01*
X0381000Y0170895D02*
X0301000Y0170895D01*
X0301000Y0172093D02*
X0381000Y0172093D01*
X0381000Y0173292D02*
X0301000Y0173292D01*
X0301000Y0174490D02*
X0381000Y0174490D01*
X0381000Y0175689D02*
X0301000Y0175689D01*
X0301000Y0176887D02*
X0319170Y0176887D01*
X0319878Y0176594D02*
X0322122Y0176594D01*
X0324194Y0177452D01*
X0325780Y0179038D01*
X0326639Y0181111D01*
X0326639Y0183354D01*
X0325780Y0185426D01*
X0324194Y0187012D01*
X0322122Y0187871D01*
X0319878Y0187871D01*
X0317806Y0187012D01*
X0316220Y0185426D01*
X0315361Y0183354D01*
X0315361Y0181111D01*
X0316220Y0179038D01*
X0317806Y0177452D01*
X0319878Y0176594D01*
X0322830Y0176887D02*
X0364170Y0176887D01*
X0364878Y0176594D02*
X0362806Y0177452D01*
X0361220Y0179038D01*
X0360361Y0181111D01*
X0360361Y0183354D01*
X0361220Y0185426D01*
X0362806Y0187012D01*
X0364878Y0187871D01*
X0367122Y0187871D01*
X0369194Y0187012D01*
X0370780Y0185426D01*
X0371639Y0183354D01*
X0371639Y0181111D01*
X0370780Y0179038D01*
X0369194Y0177452D01*
X0367122Y0176594D01*
X0364878Y0176594D01*
X0367830Y0176887D02*
X0381000Y0176887D01*
X0381000Y0178086D02*
X0369828Y0178086D01*
X0370882Y0179284D02*
X0381000Y0179284D01*
X0381000Y0180483D02*
X0371378Y0180483D01*
X0371639Y0181681D02*
X0381000Y0181681D01*
X0381000Y0182880D02*
X0371639Y0182880D01*
X0371339Y0184078D02*
X0381000Y0184078D01*
X0381000Y0185277D02*
X0370842Y0185277D01*
X0369731Y0186475D02*
X0381000Y0186475D01*
X0381000Y0187674D02*
X0367598Y0187674D01*
X0364402Y0187674D02*
X0322598Y0187674D01*
X0324731Y0186475D02*
X0362269Y0186475D01*
X0361158Y0185277D02*
X0325842Y0185277D01*
X0326339Y0184078D02*
X0360661Y0184078D01*
X0360361Y0182880D02*
X0326639Y0182880D01*
X0326639Y0181681D02*
X0360361Y0181681D01*
X0360622Y0180483D02*
X0326378Y0180483D01*
X0325882Y0179284D02*
X0361118Y0179284D01*
X0362172Y0178086D02*
X0324828Y0178086D01*
X0317172Y0178086D02*
X0301000Y0178086D01*
X0301000Y0179284D02*
X0316118Y0179284D01*
X0315622Y0180483D02*
X0301000Y0180483D01*
X0301000Y0181681D02*
X0315361Y0181681D01*
X0315361Y0182880D02*
X0301000Y0182880D01*
X0301000Y0184078D02*
X0315661Y0184078D01*
X0316158Y0185277D02*
X0301000Y0185277D01*
X0301000Y0186475D02*
X0317269Y0186475D01*
X0319402Y0187674D02*
X0301000Y0187674D01*
X0301000Y0188872D02*
X0381000Y0188872D01*
X0381000Y0190071D02*
X0301000Y0190071D01*
X0301000Y0191269D02*
X0381000Y0191269D01*
X0381000Y0192468D02*
X0301000Y0192468D01*
X0301000Y0193666D02*
X0381000Y0193666D01*
X0381000Y0194865D02*
X0301000Y0194865D01*
X0301000Y0196063D02*
X0381000Y0196063D01*
X0381000Y0197262D02*
X0301000Y0197262D01*
X0301000Y0198460D02*
X0381000Y0198460D01*
X0381000Y0199659D02*
X0301000Y0199659D01*
X0301000Y0200857D02*
X0381000Y0200857D01*
X0381000Y0202056D02*
X0301000Y0202056D01*
X0301000Y0203254D02*
X0318035Y0203254D01*
X0318150Y0203171D02*
X0318912Y0202783D01*
X0319726Y0202518D01*
X0320400Y0202411D01*
X0320400Y0207223D01*
X0315589Y0207223D01*
X0315695Y0206549D01*
X0315960Y0205735D01*
X0316349Y0204972D01*
X0316852Y0204280D01*
X0317457Y0203675D01*
X0318150Y0203171D01*
X0316726Y0204453D02*
X0301000Y0204453D01*
X0301000Y0205651D02*
X0316003Y0205651D01*
X0315648Y0206850D02*
X0301000Y0206850D01*
X0301000Y0208048D02*
X0320400Y0208048D01*
X0320400Y0208423D02*
X0320400Y0207223D01*
X0321600Y0207223D01*
X0321600Y0208423D01*
X0320400Y0208423D01*
X0320400Y0213234D01*
X0319726Y0213127D01*
X0318912Y0212863D01*
X0318150Y0212474D01*
X0317457Y0211971D01*
X0316852Y0211366D01*
X0316349Y0210673D01*
X0315960Y0209911D01*
X0315695Y0209096D01*
X0315589Y0208423D01*
X0320400Y0208423D01*
X0320400Y0209247D02*
X0321600Y0209247D01*
X0321600Y0208423D02*
X0321600Y0213234D01*
X0322274Y0213127D01*
X0323088Y0212863D01*
X0323850Y0212474D01*
X0324543Y0211971D01*
X0325148Y0211366D01*
X0325651Y0210673D01*
X0326040Y0209911D01*
X0326305Y0209096D01*
X0326411Y0208423D01*
X0321600Y0208423D01*
X0321600Y0208048D02*
X0340517Y0208048D01*
X0340527Y0208034D02*
X0341034Y0207527D01*
X0341614Y0207106D01*
X0342252Y0206781D01*
X0342934Y0206559D01*
X0343616Y0206451D01*
X0343616Y0210616D01*
X0339451Y0210616D01*
X0339559Y0209934D01*
X0339781Y0209252D01*
X0340106Y0208614D01*
X0340527Y0208034D01*
X0339784Y0209247D02*
X0326256Y0209247D01*
X0325768Y0210445D02*
X0339478Y0210445D01*
X0339451Y0211384D02*
X0343616Y0211384D01*
X0343616Y0210616D01*
X0344384Y0210616D01*
X0344384Y0206451D01*
X0345066Y0206559D01*
X0345748Y0206781D01*
X0346386Y0207106D01*
X0346966Y0207527D01*
X0347473Y0208034D01*
X0347894Y0208614D01*
X0348219Y0209252D01*
X0348441Y0209934D01*
X0348549Y0210616D01*
X0344384Y0210616D01*
X0344384Y0211384D01*
X0343616Y0211384D01*
X0343616Y0215549D01*
X0342934Y0215441D01*
X0342252Y0215219D01*
X0341614Y0214894D01*
X0341034Y0214473D01*
X0340527Y0213966D01*
X0340106Y0213386D01*
X0339781Y0212748D01*
X0339559Y0212066D01*
X0339451Y0211384D01*
X0339492Y0211644D02*
X0324870Y0211644D01*
X0323128Y0212842D02*
X0329583Y0212842D01*
X0329634Y0212791D02*
X0331491Y0212022D01*
X0333501Y0212022D01*
X0335358Y0212791D01*
X0336780Y0214213D01*
X0337549Y0216070D01*
X0337549Y0218080D01*
X0336780Y0219937D01*
X0335358Y0221358D01*
X0333501Y0222128D01*
X0331491Y0222128D01*
X0329634Y0221358D01*
X0328213Y0219937D01*
X0327443Y0218080D01*
X0327443Y0216070D01*
X0328213Y0214213D01*
X0329634Y0212791D01*
X0328384Y0214041D02*
X0301000Y0214041D01*
X0301000Y0215239D02*
X0327787Y0215239D01*
X0327443Y0216438D02*
X0301000Y0216438D01*
X0301000Y0217637D02*
X0327443Y0217637D01*
X0327756Y0218835D02*
X0301000Y0218835D01*
X0301000Y0220034D02*
X0328309Y0220034D01*
X0329508Y0221232D02*
X0301000Y0221232D01*
X0301000Y0222431D02*
X0381000Y0222431D01*
X0381000Y0223629D02*
X0301000Y0223629D01*
X0301000Y0224828D02*
X0381000Y0224828D01*
X0381000Y0221232D02*
X0380484Y0221232D01*
X0374508Y0221232D02*
X0335484Y0221232D01*
X0336683Y0220034D02*
X0373309Y0220034D01*
X0372756Y0218835D02*
X0337236Y0218835D01*
X0337549Y0217637D02*
X0372443Y0217637D01*
X0372443Y0216438D02*
X0337549Y0216438D01*
X0337205Y0215239D02*
X0342315Y0215239D01*
X0343616Y0215239D02*
X0344384Y0215239D01*
X0344384Y0215549D02*
X0344384Y0211384D01*
X0348549Y0211384D01*
X0348441Y0212066D01*
X0348219Y0212748D01*
X0347894Y0213386D01*
X0347473Y0213966D01*
X0346966Y0214473D01*
X0346386Y0214894D01*
X0345748Y0215219D01*
X0345066Y0215441D01*
X0344384Y0215549D01*
X0345685Y0215239D02*
X0372787Y0215239D01*
X0373384Y0214041D02*
X0347398Y0214041D01*
X0348171Y0212842D02*
X0363872Y0212842D01*
X0363912Y0212863D02*
X0363150Y0212474D01*
X0362457Y0211971D01*
X0361852Y0211366D01*
X0361349Y0210673D01*
X0360960Y0209911D01*
X0360695Y0209096D01*
X0360589Y0208423D01*
X0365400Y0208423D01*
X0365400Y0213234D01*
X0364726Y0213127D01*
X0363912Y0212863D01*
X0365400Y0212842D02*
X0366600Y0212842D01*
X0366600Y0213234D02*
X0367274Y0213127D01*
X0368088Y0212863D01*
X0368850Y0212474D01*
X0369543Y0211971D01*
X0370148Y0211366D01*
X0370651Y0210673D01*
X0371040Y0209911D01*
X0371305Y0209096D01*
X0371411Y0208423D01*
X0366600Y0208423D01*
X0365400Y0208423D01*
X0365400Y0207223D01*
X0360589Y0207223D01*
X0360695Y0206549D01*
X0360960Y0205735D01*
X0361349Y0204972D01*
X0361852Y0204280D01*
X0362457Y0203675D01*
X0363150Y0203171D01*
X0363912Y0202783D01*
X0364726Y0202518D01*
X0365400Y0202411D01*
X0365400Y0207223D01*
X0366600Y0207223D01*
X0366600Y0208423D01*
X0366600Y0213234D01*
X0368128Y0212842D02*
X0374583Y0212842D01*
X0370768Y0210445D02*
X0381000Y0210445D01*
X0381000Y0209247D02*
X0371256Y0209247D01*
X0371411Y0207223D02*
X0366600Y0207223D01*
X0366600Y0202411D01*
X0367274Y0202518D01*
X0368088Y0202783D01*
X0368850Y0203171D01*
X0369543Y0203675D01*
X0370148Y0204280D01*
X0370651Y0204972D01*
X0371040Y0205735D01*
X0371305Y0206549D01*
X0371411Y0207223D01*
X0371352Y0206850D02*
X0381000Y0206850D01*
X0381000Y0208048D02*
X0366600Y0208048D01*
X0366600Y0206850D02*
X0365400Y0206850D01*
X0365400Y0208048D02*
X0347483Y0208048D01*
X0348216Y0209247D02*
X0360744Y0209247D01*
X0361232Y0210445D02*
X0348522Y0210445D01*
X0348508Y0211644D02*
X0362130Y0211644D01*
X0365400Y0211644D02*
X0366600Y0211644D01*
X0366600Y0210445D02*
X0365400Y0210445D01*
X0365400Y0209247D02*
X0366600Y0209247D01*
X0366600Y0205651D02*
X0365400Y0205651D01*
X0365400Y0204453D02*
X0366600Y0204453D01*
X0366600Y0203254D02*
X0365400Y0203254D01*
X0363035Y0203254D02*
X0323965Y0203254D01*
X0323850Y0203171D02*
X0324543Y0203675D01*
X0325148Y0204280D01*
X0325651Y0204972D01*
X0326040Y0205735D01*
X0326305Y0206549D01*
X0326411Y0207223D01*
X0321600Y0207223D01*
X0321600Y0202411D01*
X0322274Y0202518D01*
X0323088Y0202783D01*
X0323850Y0203171D01*
X0325274Y0204453D02*
X0361726Y0204453D01*
X0361003Y0205651D02*
X0325997Y0205651D01*
X0326352Y0206850D02*
X0342117Y0206850D01*
X0343616Y0206850D02*
X0344384Y0206850D01*
X0344384Y0208048D02*
X0343616Y0208048D01*
X0343616Y0209247D02*
X0344384Y0209247D01*
X0344384Y0210445D02*
X0343616Y0210445D01*
X0343616Y0211644D02*
X0344384Y0211644D01*
X0344384Y0212842D02*
X0343616Y0212842D01*
X0343616Y0214041D02*
X0344384Y0214041D01*
X0340602Y0214041D02*
X0336608Y0214041D01*
X0335409Y0212842D02*
X0339829Y0212842D01*
X0345883Y0206850D02*
X0360648Y0206850D01*
X0368965Y0203254D02*
X0381000Y0203254D01*
X0381000Y0204453D02*
X0370274Y0204453D01*
X0370997Y0205651D02*
X0381000Y0205651D01*
X0381000Y0211644D02*
X0369870Y0211644D01*
X0380409Y0212842D02*
X0381000Y0212842D01*
X0321600Y0212842D02*
X0320400Y0212842D01*
X0320400Y0211644D02*
X0321600Y0211644D01*
X0321600Y0210445D02*
X0320400Y0210445D01*
X0318872Y0212842D02*
X0301000Y0212842D01*
X0301000Y0211644D02*
X0317130Y0211644D01*
X0316232Y0210445D02*
X0301000Y0210445D01*
X0301000Y0209247D02*
X0315744Y0209247D01*
X0320400Y0206850D02*
X0321600Y0206850D01*
X0321600Y0205651D02*
X0320400Y0205651D01*
X0320400Y0204453D02*
X0321600Y0204453D01*
X0321600Y0203254D02*
X0320400Y0203254D01*
X0291000Y0203254D02*
X0286639Y0203254D01*
X0286639Y0203354D02*
X0285780Y0205426D01*
X0284194Y0207012D01*
X0282122Y0207871D01*
X0279878Y0207871D01*
X0277806Y0207012D01*
X0276220Y0205426D01*
X0275361Y0203354D01*
X0275361Y0201111D01*
X0276220Y0199038D01*
X0277806Y0197452D01*
X0279878Y0196594D01*
X0282122Y0196594D01*
X0284194Y0197452D01*
X0285780Y0199038D01*
X0286639Y0201111D01*
X0286639Y0203354D01*
X0286183Y0204453D02*
X0291000Y0204453D01*
X0291000Y0205651D02*
X0285555Y0205651D01*
X0284357Y0206850D02*
X0291000Y0206850D01*
X0291000Y0208048D02*
X0216000Y0208048D01*
X0201000Y0208048D01*
X0201000Y0206850D02*
X0216000Y0206850D01*
X0227643Y0206850D01*
X0227806Y0207012D02*
X0226220Y0205426D01*
X0225361Y0203354D01*
X0225361Y0201111D01*
X0226198Y0199092D01*
X0220006Y0192900D01*
X0216000Y0192900D01*
X0216000Y0240500D01*
X0238776Y0240500D01*
X0238213Y0239937D01*
X0237443Y0238080D01*
X0237443Y0236070D01*
X0238213Y0234213D01*
X0239634Y0232791D01*
X0241491Y0232022D01*
X0243501Y0232022D01*
X0245358Y0232791D01*
X0246780Y0234213D01*
X0247549Y0236070D01*
X0247549Y0238080D01*
X0246780Y0239937D01*
X0246217Y0240500D01*
X0288776Y0240500D01*
X0288213Y0239937D01*
X0287443Y0238080D01*
X0287443Y0236070D01*
X0288213Y0234213D01*
X0289634Y0232791D01*
X0291000Y0232225D01*
X0291000Y0180500D01*
X0216000Y0180500D01*
X0216000Y0188100D01*
X0221477Y0188100D01*
X0222359Y0188465D01*
X0230488Y0196594D01*
X0232122Y0196594D01*
X0234194Y0197452D01*
X0235780Y0199038D01*
X0236639Y0201111D01*
X0236639Y0203354D01*
X0235780Y0205426D01*
X0234194Y0207012D01*
X0232122Y0207871D01*
X0229878Y0207871D01*
X0227806Y0207012D01*
X0226445Y0205651D02*
X0216000Y0205651D01*
X0201000Y0205651D01*
X0201000Y0204453D02*
X0216000Y0204453D01*
X0225817Y0204453D01*
X0225361Y0203254D02*
X0216000Y0203254D01*
X0201000Y0203254D01*
X0201000Y0202056D02*
X0216000Y0202056D01*
X0225361Y0202056D01*
X0225466Y0200857D02*
X0216000Y0200857D01*
X0201000Y0200857D01*
X0201000Y0200500D02*
X0201000Y0230500D01*
X0216000Y0230500D01*
X0216000Y0200500D01*
X0201000Y0200500D01*
X0201000Y0209247D02*
X0216000Y0209247D01*
X0291000Y0209247D01*
X0291000Y0210445D02*
X0216000Y0210445D01*
X0201000Y0210445D01*
X0201000Y0211644D02*
X0203562Y0211644D01*
X0203614Y0211606D02*
X0204252Y0211281D01*
X0204934Y0211059D01*
X0205616Y0210951D01*
X0205616Y0215116D01*
X0206384Y0215116D01*
X0206384Y0210951D01*
X0207066Y0211059D01*
X0207748Y0211281D01*
X0208386Y0211606D01*
X0208966Y0212027D01*
X0209473Y0212534D01*
X0209894Y0213114D01*
X0210219Y0213752D01*
X0210441Y0214434D01*
X0210549Y0215116D01*
X0206384Y0215116D01*
X0206384Y0215884D01*
X0210549Y0215884D01*
X0210441Y0216566D01*
X0210219Y0217248D01*
X0209894Y0217886D01*
X0209473Y0218466D01*
X0208966Y0218973D01*
X0208386Y0219394D01*
X0207748Y0219719D01*
X0207066Y0219941D01*
X0206384Y0220049D01*
X0206384Y0215884D01*
X0205616Y0215884D01*
X0205616Y0215116D01*
X0201451Y0215116D01*
X0201559Y0214434D01*
X0201781Y0213752D01*
X0202106Y0213114D01*
X0202527Y0212534D01*
X0203034Y0212027D01*
X0203614Y0211606D01*
X0202303Y0212842D02*
X0201000Y0212842D01*
X0201000Y0214041D02*
X0201687Y0214041D01*
X0201000Y0215239D02*
X0205616Y0215239D01*
X0205616Y0215884D02*
X0201451Y0215884D01*
X0201559Y0216566D01*
X0201781Y0217248D01*
X0202106Y0217886D01*
X0202527Y0218466D01*
X0203034Y0218973D01*
X0203614Y0219394D01*
X0204252Y0219719D01*
X0204934Y0219941D01*
X0205616Y0220049D01*
X0205616Y0215884D01*
X0205616Y0216438D02*
X0206384Y0216438D01*
X0206384Y0217637D02*
X0205616Y0217637D01*
X0205616Y0218835D02*
X0206384Y0218835D01*
X0206384Y0220034D02*
X0205616Y0220034D01*
X0205520Y0220034D02*
X0201000Y0220034D01*
X0201000Y0221232D02*
X0216000Y0221232D01*
X0254402Y0221232D01*
X0254252Y0221281D02*
X0254934Y0221059D01*
X0255616Y0220951D01*
X0255616Y0225116D01*
X0251451Y0225116D01*
X0251559Y0224434D01*
X0251781Y0223752D01*
X0252106Y0223114D01*
X0252527Y0222534D01*
X0253034Y0222027D01*
X0253614Y0221606D01*
X0254252Y0221281D01*
X0255616Y0221232D02*
X0256384Y0221232D01*
X0256384Y0220951D02*
X0257066Y0221059D01*
X0257748Y0221281D01*
X0258386Y0221606D01*
X0258966Y0222027D01*
X0259473Y0222534D01*
X0259894Y0223114D01*
X0260219Y0223752D01*
X0260441Y0224434D01*
X0260549Y0225116D01*
X0256384Y0225116D01*
X0256384Y0220951D01*
X0257598Y0221232D02*
X0291000Y0221232D01*
X0291000Y0220034D02*
X0216000Y0220034D01*
X0206480Y0220034D01*
X0209104Y0218835D02*
X0216000Y0218835D01*
X0291000Y0218835D01*
X0291000Y0217637D02*
X0216000Y0217637D01*
X0210021Y0217637D01*
X0210461Y0216438D02*
X0216000Y0216438D01*
X0291000Y0216438D01*
X0291000Y0215239D02*
X0216000Y0215239D01*
X0206384Y0215239D01*
X0206384Y0214041D02*
X0205616Y0214041D01*
X0205616Y0212842D02*
X0206384Y0212842D01*
X0206384Y0211644D02*
X0205616Y0211644D01*
X0208438Y0211644D02*
X0216000Y0211644D01*
X0291000Y0211644D01*
X0291000Y0212842D02*
X0216000Y0212842D01*
X0209697Y0212842D01*
X0210313Y0214041D02*
X0216000Y0214041D01*
X0291000Y0214041D01*
X0291000Y0222431D02*
X0281720Y0222431D01*
X0281600Y0222431D02*
X0280400Y0222431D01*
X0280400Y0222411D02*
X0280400Y0227223D01*
X0275589Y0227223D01*
X0275695Y0226549D01*
X0275960Y0225735D01*
X0276349Y0224972D01*
X0276852Y0224280D01*
X0277457Y0223675D01*
X0278150Y0223171D01*
X0278912Y0222783D01*
X0279726Y0222518D01*
X0280400Y0222411D01*
X0280280Y0222431D02*
X0259369Y0222431D01*
X0260156Y0223629D02*
X0277520Y0223629D01*
X0276454Y0224828D02*
X0260503Y0224828D01*
X0260549Y0225884D02*
X0260441Y0226566D01*
X0260219Y0227248D01*
X0259894Y0227886D01*
X0259473Y0228466D01*
X0258966Y0228973D01*
X0258386Y0229394D01*
X0257748Y0229719D01*
X0257066Y0229941D01*
X0256384Y0230049D01*
X0256384Y0225884D01*
X0255616Y0225884D01*
X0255616Y0225116D01*
X0256384Y0225116D01*
X0256384Y0225884D01*
X0260549Y0225884D01*
X0260526Y0226026D02*
X0275865Y0226026D01*
X0275589Y0228423D02*
X0280400Y0228423D01*
X0281600Y0228423D01*
X0280400Y0228423D01*
X0280400Y0233234D01*
X0279726Y0233127D01*
X0278912Y0232863D01*
X0278150Y0232474D01*
X0277457Y0231971D01*
X0276852Y0231366D01*
X0276349Y0230673D01*
X0275960Y0229911D01*
X0275695Y0229096D01*
X0275589Y0228423D01*
X0259504Y0228423D01*
X0260227Y0227225D02*
X0280400Y0227225D01*
X0280400Y0227223D02*
X0280400Y0228423D01*
X0280400Y0229622D02*
X0281600Y0229622D01*
X0281600Y0230820D02*
X0280400Y0230820D01*
X0280400Y0232019D02*
X0281600Y0232019D01*
X0281600Y0233217D02*
X0280400Y0233217D01*
X0280293Y0233217D02*
X0245784Y0233217D01*
X0246864Y0234416D02*
X0288128Y0234416D01*
X0287632Y0235614D02*
X0247360Y0235614D01*
X0247549Y0236813D02*
X0287443Y0236813D01*
X0287443Y0238011D02*
X0247549Y0238011D01*
X0247081Y0239210D02*
X0287911Y0239210D01*
X0288684Y0240408D02*
X0246308Y0240408D01*
X0238684Y0240408D02*
X0216000Y0240408D01*
X0216000Y0239210D02*
X0237911Y0239210D01*
X0237443Y0238011D02*
X0216000Y0238011D01*
X0216000Y0236813D02*
X0237443Y0236813D01*
X0237632Y0235614D02*
X0216000Y0235614D01*
X0216000Y0234416D02*
X0238128Y0234416D01*
X0239208Y0233217D02*
X0231707Y0233217D01*
X0231600Y0233217D02*
X0230400Y0233217D01*
X0230400Y0233234D02*
X0229726Y0233127D01*
X0228912Y0232863D01*
X0228150Y0232474D01*
X0227457Y0231971D01*
X0226852Y0231366D01*
X0226349Y0230673D01*
X0225960Y0229911D01*
X0225695Y0229096D01*
X0225589Y0228423D01*
X0216000Y0228423D01*
X0201000Y0228423D01*
X0201000Y0227225D02*
X0216000Y0227225D01*
X0230400Y0227225D01*
X0230400Y0227223D02*
X0225589Y0227223D01*
X0225695Y0226549D01*
X0225960Y0225735D01*
X0226349Y0224972D01*
X0226852Y0224280D01*
X0227457Y0223675D01*
X0228150Y0223171D01*
X0228912Y0222783D01*
X0229726Y0222518D01*
X0230400Y0222411D01*
X0230400Y0227223D01*
X0230400Y0228423D01*
X0231600Y0228423D01*
X0230400Y0228423D01*
X0230400Y0233234D01*
X0230293Y0233217D02*
X0216000Y0233217D01*
X0216000Y0232019D02*
X0227522Y0232019D01*
X0226455Y0230820D02*
X0216000Y0230820D01*
X0216000Y0229622D02*
X0201000Y0229622D01*
X0201000Y0226026D02*
X0216000Y0226026D01*
X0225865Y0226026D01*
X0226454Y0224828D02*
X0216000Y0224828D01*
X0201000Y0224828D01*
X0201000Y0223629D02*
X0216000Y0223629D01*
X0227520Y0223629D01*
X0230400Y0223629D02*
X0231600Y0223629D01*
X0231600Y0222431D02*
X0230400Y0222431D01*
X0230280Y0222431D02*
X0216000Y0222431D01*
X0201000Y0222431D01*
X0201000Y0218835D02*
X0202896Y0218835D01*
X0201979Y0217637D02*
X0201000Y0217637D01*
X0201000Y0216438D02*
X0201539Y0216438D01*
X0201000Y0215500D02*
X0176000Y0190500D01*
X0186000Y0190500D02*
X0197654Y0190500D01*
X0204346Y0190500D02*
X0221000Y0190500D01*
X0231000Y0200500D01*
X0231000Y0202232D01*
X0236037Y0199659D02*
X0254134Y0199659D01*
X0254252Y0199719D02*
X0253614Y0199394D01*
X0253034Y0198973D01*
X0252527Y0198466D01*
X0252106Y0197886D01*
X0251781Y0197248D01*
X0251559Y0196566D01*
X0251451Y0195884D01*
X0255616Y0195884D01*
X0255616Y0195116D01*
X0251451Y0195116D01*
X0251559Y0194434D01*
X0251781Y0193752D01*
X0252106Y0193114D01*
X0252527Y0192534D01*
X0253034Y0192027D01*
X0253614Y0191606D01*
X0254252Y0191281D01*
X0254934Y0191059D01*
X0255616Y0190951D01*
X0255616Y0195116D01*
X0256384Y0195116D01*
X0256384Y0190951D01*
X0257066Y0191059D01*
X0257748Y0191281D01*
X0258386Y0191606D01*
X0258966Y0192027D01*
X0259473Y0192534D01*
X0259894Y0193114D01*
X0260219Y0193752D01*
X0260441Y0194434D01*
X0260549Y0195116D01*
X0256384Y0195116D01*
X0256384Y0195884D01*
X0255616Y0195884D01*
X0255616Y0200049D01*
X0254934Y0199941D01*
X0254252Y0199719D01*
X0255616Y0199659D02*
X0256384Y0199659D01*
X0256384Y0200049D02*
X0256384Y0195884D01*
X0260549Y0195884D01*
X0260441Y0196566D01*
X0260219Y0197248D01*
X0259894Y0197886D01*
X0259473Y0198466D01*
X0258966Y0198973D01*
X0258386Y0199394D01*
X0257748Y0199719D01*
X0257066Y0199941D01*
X0256384Y0200049D01*
X0257866Y0199659D02*
X0275963Y0199659D01*
X0275466Y0200857D02*
X0236534Y0200857D01*
X0236639Y0202056D02*
X0275361Y0202056D01*
X0275361Y0203254D02*
X0236639Y0203254D01*
X0236183Y0204453D02*
X0275817Y0204453D01*
X0276445Y0205651D02*
X0235555Y0205651D01*
X0234357Y0206850D02*
X0277643Y0206850D01*
X0286639Y0202056D02*
X0291000Y0202056D01*
X0291000Y0200857D02*
X0286534Y0200857D01*
X0286037Y0199659D02*
X0291000Y0199659D01*
X0291000Y0198460D02*
X0285202Y0198460D01*
X0283735Y0197262D02*
X0291000Y0197262D01*
X0291000Y0196063D02*
X0260520Y0196063D01*
X0260509Y0194865D02*
X0291000Y0194865D01*
X0291000Y0193666D02*
X0260175Y0193666D01*
X0259406Y0192468D02*
X0291000Y0192468D01*
X0291000Y0191269D02*
X0257712Y0191269D01*
X0256384Y0191269D02*
X0255616Y0191269D01*
X0255616Y0192468D02*
X0256384Y0192468D01*
X0256384Y0193666D02*
X0255616Y0193666D01*
X0255616Y0194865D02*
X0256384Y0194865D01*
X0256384Y0196063D02*
X0255616Y0196063D01*
X0255616Y0197262D02*
X0256384Y0197262D01*
X0256384Y0198460D02*
X0255616Y0198460D01*
X0252523Y0198460D02*
X0235202Y0198460D01*
X0233735Y0197262D02*
X0251788Y0197262D01*
X0251480Y0196063D02*
X0229957Y0196063D01*
X0228759Y0194865D02*
X0251491Y0194865D01*
X0251825Y0193666D02*
X0227560Y0193666D01*
X0226362Y0192468D02*
X0252594Y0192468D01*
X0254288Y0191269D02*
X0225163Y0191269D01*
X0223965Y0190071D02*
X0291000Y0190071D01*
X0291000Y0188872D02*
X0222766Y0188872D01*
X0216000Y0187674D02*
X0291000Y0187674D01*
X0291000Y0186475D02*
X0216000Y0186475D01*
X0216000Y0185277D02*
X0291000Y0185277D01*
X0291000Y0184078D02*
X0216000Y0184078D01*
X0216000Y0182880D02*
X0291000Y0182880D01*
X0291000Y0181681D02*
X0216000Y0181681D01*
X0216000Y0193666D02*
X0220772Y0193666D01*
X0221971Y0194865D02*
X0216000Y0194865D01*
X0216000Y0196063D02*
X0223169Y0196063D01*
X0224368Y0197262D02*
X0216000Y0197262D01*
X0216000Y0198460D02*
X0225566Y0198460D01*
X0225963Y0199659D02*
X0216000Y0199659D01*
X0231600Y0222411D02*
X0232274Y0222518D01*
X0233088Y0222783D01*
X0233850Y0223171D01*
X0234543Y0223675D01*
X0235148Y0224280D01*
X0235651Y0224972D01*
X0236040Y0225735D01*
X0236305Y0226549D01*
X0236411Y0227223D01*
X0231600Y0227223D01*
X0231600Y0228423D01*
X0231600Y0233234D01*
X0232274Y0233127D01*
X0233088Y0232863D01*
X0233850Y0232474D01*
X0234543Y0231971D01*
X0235148Y0231366D01*
X0235651Y0230673D01*
X0236040Y0229911D01*
X0236305Y0229096D01*
X0236411Y0228423D01*
X0252496Y0228423D01*
X0252527Y0228466D02*
X0252106Y0227886D01*
X0251781Y0227248D01*
X0251559Y0226566D01*
X0251451Y0225884D01*
X0255616Y0225884D01*
X0255616Y0230049D01*
X0254934Y0229941D01*
X0254252Y0229719D01*
X0253614Y0229394D01*
X0253034Y0228973D01*
X0252527Y0228466D01*
X0251773Y0227225D02*
X0231600Y0227225D01*
X0231600Y0227223D02*
X0231600Y0222411D01*
X0231720Y0222431D02*
X0252631Y0222431D01*
X0251844Y0223629D02*
X0234480Y0223629D01*
X0235546Y0224828D02*
X0251497Y0224828D01*
X0251474Y0226026D02*
X0236135Y0226026D01*
X0236411Y0228423D02*
X0231600Y0228423D01*
X0231600Y0229622D02*
X0230400Y0229622D01*
X0230400Y0230820D02*
X0231600Y0230820D01*
X0231600Y0232019D02*
X0230400Y0232019D01*
X0230400Y0228423D02*
X0225589Y0228423D01*
X0225866Y0229622D02*
X0216000Y0229622D01*
X0230400Y0227223D02*
X0231600Y0227223D01*
X0231600Y0226026D02*
X0230400Y0226026D01*
X0230400Y0224828D02*
X0231600Y0224828D01*
X0236134Y0229622D02*
X0254061Y0229622D01*
X0255616Y0229622D02*
X0256384Y0229622D01*
X0256384Y0228423D02*
X0255616Y0228423D01*
X0255616Y0227225D02*
X0256384Y0227225D01*
X0256384Y0226026D02*
X0255616Y0226026D01*
X0255616Y0224828D02*
X0256384Y0224828D01*
X0256384Y0223629D02*
X0255616Y0223629D01*
X0255616Y0222431D02*
X0256384Y0222431D01*
X0257939Y0229622D02*
X0275866Y0229622D01*
X0276455Y0230820D02*
X0235545Y0230820D01*
X0234478Y0232019D02*
X0277522Y0232019D01*
X0281600Y0233234D02*
X0281600Y0228423D01*
X0286411Y0228423D01*
X0291000Y0228423D01*
X0291000Y0227225D02*
X0281600Y0227225D01*
X0281600Y0227223D02*
X0281600Y0228423D01*
X0281600Y0227223D02*
X0286411Y0227223D01*
X0286305Y0226549D01*
X0286040Y0225735D01*
X0285651Y0224972D01*
X0285148Y0224280D01*
X0284543Y0223675D01*
X0283850Y0223171D01*
X0283088Y0222783D01*
X0282274Y0222518D01*
X0281600Y0222411D01*
X0281600Y0227223D01*
X0280400Y0227223D01*
X0280400Y0226026D02*
X0281600Y0226026D01*
X0281600Y0224828D02*
X0280400Y0224828D01*
X0280400Y0223629D02*
X0281600Y0223629D01*
X0284480Y0223629D02*
X0291000Y0223629D01*
X0291000Y0224828D02*
X0285546Y0224828D01*
X0286135Y0226026D02*
X0291000Y0226026D01*
X0291000Y0229622D02*
X0286134Y0229622D01*
X0286040Y0229911D02*
X0285651Y0230673D01*
X0285148Y0231366D01*
X0284543Y0231971D01*
X0283850Y0232474D01*
X0283088Y0232863D01*
X0282274Y0233127D01*
X0281600Y0233234D01*
X0281707Y0233217D02*
X0289208Y0233217D01*
X0291000Y0232019D02*
X0284478Y0232019D01*
X0285545Y0230820D02*
X0291000Y0230820D01*
X0286305Y0229096D02*
X0286040Y0229911D01*
X0286305Y0229096D02*
X0286411Y0228423D01*
X0276798Y0198460D02*
X0259477Y0198460D01*
X0260212Y0197262D02*
X0278265Y0197262D01*
X0232665Y0158909D02*
X0381000Y0158909D01*
X0381000Y0157711D02*
X0232259Y0157711D01*
X0231574Y0156512D02*
X0381000Y0156512D01*
X0381000Y0155314D02*
X0230494Y0155314D01*
X0228486Y0154115D02*
X0381000Y0154115D01*
X0381000Y0132542D02*
X0379757Y0132542D01*
X0366600Y0132542D02*
X0365400Y0132542D01*
X0365400Y0131344D02*
X0366600Y0131344D01*
X0366600Y0130145D02*
X0365400Y0130145D01*
X0365400Y0128947D02*
X0366600Y0128947D01*
X0366600Y0125351D02*
X0365400Y0125351D01*
X0365400Y0124153D02*
X0366600Y0124153D01*
X0366600Y0122954D02*
X0365400Y0122954D01*
X0363576Y0122954D02*
X0323424Y0122954D01*
X0325021Y0124153D02*
X0361979Y0124153D01*
X0361156Y0125351D02*
X0325844Y0125351D01*
X0326305Y0126550D02*
X0360695Y0126550D01*
X0360672Y0128947D02*
X0326328Y0128947D01*
X0325921Y0130145D02*
X0361079Y0130145D01*
X0361836Y0131344D02*
X0325164Y0131344D01*
X0323717Y0132542D02*
X0330235Y0132542D01*
X0328684Y0133741D02*
X0301000Y0133741D01*
X0301000Y0134939D02*
X0327912Y0134939D01*
X0327443Y0136138D02*
X0301000Y0136138D01*
X0301000Y0137336D02*
X0327443Y0137336D01*
X0327632Y0138535D02*
X0301000Y0138535D01*
X0301000Y0139733D02*
X0328128Y0139733D01*
X0334757Y0132542D02*
X0363283Y0132542D01*
X0308514Y0149321D02*
X0301000Y0149321D01*
X0301000Y0148123D02*
X0307278Y0148123D01*
X0226600Y0161306D02*
X0225400Y0161306D01*
X0225400Y0160108D02*
X0211000Y0160108D01*
X0211000Y0161306D02*
X0219197Y0161306D01*
X0219446Y0162505D02*
X0211000Y0162505D01*
X0211000Y0163703D02*
X0219940Y0163703D01*
X0220744Y0164902D02*
X0211000Y0164902D01*
X0211000Y0166101D02*
X0222046Y0166101D01*
X0225164Y0167299D02*
X0211000Y0167299D01*
X0211000Y0158909D02*
X0219335Y0158909D01*
X0219741Y0157711D02*
X0211000Y0157711D01*
X0211000Y0156512D02*
X0220426Y0156512D01*
X0221506Y0155314D02*
X0211000Y0155314D01*
X0225400Y0162505D02*
X0226600Y0162505D01*
X0226600Y0163703D02*
X0225400Y0163703D01*
X0225400Y0164902D02*
X0226600Y0164902D01*
X0226600Y0166101D02*
X0225400Y0166101D01*
X0225400Y0167299D02*
X0226600Y0167299D01*
X0193000Y0227000D02*
X0146846Y0227000D01*
X0146000Y0227154D01*
X0133654Y0227154D01*
X0108500Y0202000D01*
X0108500Y0199339D01*
X0108480Y0199319D01*
X0096000Y0200224D02*
X0096000Y0210500D01*
X0111000Y0225500D01*
X0112000Y0225500D01*
X0114000Y0227500D01*
X0114000Y0230154D01*
X0114346Y0230500D01*
X0112000Y0225500D02*
X0126000Y0225500D01*
X0129346Y0228846D01*
X0129346Y0230500D01*
X0129346Y0245500D01*
X0131000Y0245500D01*
X0111000Y0265500D01*
X0101000Y0265500D01*
X0096000Y0270500D01*
X0096000Y0278413D01*
X0095094Y0274319D01*
X0086000Y0280500D02*
X0086000Y0240500D01*
X0086000Y0230500D01*
X0107654Y0230500D01*
X0096000Y0240500D02*
X0101000Y0245500D01*
X0107654Y0245500D01*
X0114346Y0245500D02*
X0114346Y0252154D01*
X0111000Y0255500D01*
X0114346Y0245500D02*
X0122654Y0245500D01*
X0122654Y0230500D01*
X0137154Y0248846D02*
X0122000Y0264000D01*
X0122000Y0274185D01*
X0121866Y0274319D01*
X0137154Y0248846D02*
X0146000Y0248846D01*
X0146000Y0242154D02*
X0146000Y0233846D01*
X0146000Y0227154D02*
X0146000Y0219846D01*
X0146000Y0213154D02*
X0146000Y0204346D01*
X0146000Y0197654D02*
X0123531Y0197654D01*
X0121866Y0199319D01*
X0096000Y0200224D02*
X0095094Y0199319D01*
X0166000Y0240500D02*
X0166000Y0260500D01*
X0166000Y0240500D02*
X0171000Y0235500D01*
X0181000Y0235500D02*
X0192654Y0235500D01*
X0199346Y0235500D02*
X0199346Y0234346D01*
X0193000Y0227000D01*
D23*
X0115173Y0199319D02*
X0115000Y0199146D01*
X0115000Y0189500D01*
X0101787Y0199319D02*
X0101787Y0176287D01*
X0101000Y0175500D01*
X0101787Y0274319D02*
X0101787Y0279713D01*
X0096000Y0285500D01*
X0115173Y0282673D02*
X0115173Y0274319D01*
X0115173Y0282673D02*
X0116000Y0283500D01*
D24*
X0116000Y0305500D01*
X0096000Y0285500D02*
X0081000Y0285500D01*
X0181000Y0215500D02*
X0186000Y0215500D01*
X0181000Y0215500D02*
X0151000Y0185500D01*
X0119000Y0185500D01*
X0115000Y0189500D01*
D25*
X0111000Y0255500D03*
D26*
X0131000Y0260500D02*
X0130500Y0315000D01*
X0162616Y0315065D01*
X0161843Y0313199D01*
X0161843Y0310950D01*
X0162704Y0308873D01*
X0164294Y0307283D01*
X0166372Y0306422D01*
X0168620Y0306422D01*
X0170698Y0307283D01*
X0172288Y0308873D01*
X0173149Y0310950D01*
X0173149Y0313199D01*
X0172368Y0315085D01*
X0207654Y0315157D01*
X0206843Y0313199D01*
X0206843Y0310950D01*
X0207704Y0308873D01*
X0209294Y0307283D01*
X0211372Y0306422D01*
X0213620Y0306422D01*
X0215698Y0307283D01*
X0217288Y0308873D01*
X0218149Y0310950D01*
X0218149Y0313199D01*
X0217330Y0315177D01*
X0252692Y0315249D01*
X0251843Y0313199D01*
X0251843Y0310950D01*
X0252704Y0308873D01*
X0254294Y0307283D01*
X0256372Y0306422D01*
X0258620Y0306422D01*
X0260698Y0307283D01*
X0262288Y0308873D01*
X0263149Y0310950D01*
X0263149Y0313199D01*
X0262292Y0315268D01*
X0297768Y0315341D01*
X0297704Y0315277D01*
X0296843Y0313199D01*
X0296843Y0310950D01*
X0297704Y0308873D01*
X0299294Y0307283D01*
X0301372Y0306422D01*
X0303620Y0306422D01*
X0305698Y0307283D01*
X0307288Y0308873D01*
X0308149Y0310950D01*
X0308149Y0313199D01*
X0307288Y0315277D01*
X0307205Y0315360D01*
X0337849Y0315422D01*
X0337704Y0315277D01*
X0336843Y0313199D01*
X0336843Y0310950D01*
X0337704Y0308873D01*
X0339294Y0307283D01*
X0341372Y0306422D01*
X0343620Y0306422D01*
X0345698Y0307283D01*
X0347288Y0308873D01*
X0348149Y0310950D01*
X0348149Y0313199D01*
X0347288Y0315277D01*
X0347124Y0315441D01*
X0376000Y0315500D01*
X0376000Y0312813D01*
X0375800Y0312330D01*
X0375800Y0308670D01*
X0376000Y0308187D01*
X0376000Y0291214D01*
X0375606Y0291757D01*
X0374934Y0292429D01*
X0374165Y0292987D01*
X0373318Y0293419D01*
X0372414Y0293713D01*
X0371475Y0293861D01*
X0371080Y0293861D01*
X0371080Y0287902D01*
X0370920Y0287902D01*
X0370920Y0287743D01*
X0364961Y0287743D01*
X0364961Y0287348D01*
X0365110Y0286409D01*
X0365404Y0285505D01*
X0365835Y0284658D01*
X0366394Y0283889D01*
X0367066Y0283217D01*
X0367835Y0282658D01*
X0368682Y0282227D01*
X0369586Y0281933D01*
X0370525Y0281784D01*
X0370920Y0281784D01*
X0370920Y0287743D01*
X0371080Y0287743D01*
X0371080Y0281784D01*
X0371475Y0281784D01*
X0372414Y0281933D01*
X0373318Y0282227D01*
X0374165Y0282658D01*
X0374934Y0283217D01*
X0375606Y0283889D01*
X0376000Y0284431D01*
X0376000Y0266055D01*
X0374534Y0267521D01*
X0372241Y0268471D01*
X0369759Y0268471D01*
X0367466Y0267521D01*
X0365711Y0265766D01*
X0364761Y0263473D01*
X0364761Y0260991D01*
X0364965Y0260500D01*
X0131000Y0260500D01*
X0130985Y0262141D02*
X0364761Y0262141D01*
X0365203Y0264539D02*
X0270407Y0264539D01*
X0270207Y0264474D02*
X0270978Y0264725D01*
X0271701Y0265093D01*
X0272357Y0265570D01*
X0272930Y0266143D01*
X0273407Y0266799D01*
X0273775Y0267522D01*
X0274026Y0268293D01*
X0274153Y0269094D01*
X0274153Y0269500D01*
X0274153Y0269906D01*
X0274026Y0270707D01*
X0273775Y0271478D01*
X0273407Y0272201D01*
X0272930Y0272857D01*
X0272357Y0273430D01*
X0271701Y0273907D01*
X0270978Y0274275D01*
X0270207Y0274526D01*
X0269406Y0274653D01*
X0269000Y0274653D01*
X0268594Y0274653D01*
X0267793Y0274526D01*
X0267022Y0274275D01*
X0266299Y0273907D01*
X0265643Y0273430D01*
X0265070Y0272857D01*
X0264593Y0272201D01*
X0264225Y0271478D01*
X0263974Y0270707D01*
X0263847Y0269906D01*
X0263847Y0269500D01*
X0269000Y0269500D01*
X0269000Y0269500D01*
X0269000Y0274653D01*
X0269000Y0269500D01*
X0274153Y0269500D01*
X0269000Y0269500D01*
X0269000Y0269500D01*
X0269000Y0269500D01*
X0269000Y0264347D01*
X0269406Y0264347D01*
X0270207Y0264474D01*
X0269000Y0264539D02*
X0269000Y0264539D01*
X0269000Y0264347D02*
X0269000Y0269500D01*
X0269000Y0269500D01*
X0263847Y0269500D01*
X0263847Y0269094D01*
X0263974Y0268293D01*
X0264225Y0267522D01*
X0264593Y0266799D01*
X0265070Y0266143D01*
X0265643Y0265570D01*
X0266299Y0265093D01*
X0267022Y0264725D01*
X0267793Y0264474D01*
X0268594Y0264347D01*
X0269000Y0264347D01*
X0267593Y0264539D02*
X0225407Y0264539D01*
X0225207Y0264474D02*
X0225978Y0264725D01*
X0226701Y0265093D01*
X0227357Y0265570D01*
X0227930Y0266143D01*
X0228407Y0266799D01*
X0228775Y0267522D01*
X0229026Y0268293D01*
X0229153Y0269094D01*
X0229153Y0269500D01*
X0229153Y0269906D01*
X0229026Y0270707D01*
X0228775Y0271478D01*
X0228407Y0272201D01*
X0227930Y0272857D01*
X0227357Y0273430D01*
X0226701Y0273907D01*
X0225978Y0274275D01*
X0225207Y0274526D01*
X0224406Y0274653D01*
X0224000Y0274653D01*
X0223594Y0274653D01*
X0222793Y0274526D01*
X0222022Y0274275D01*
X0221299Y0273907D01*
X0220643Y0273430D01*
X0220070Y0272857D01*
X0219593Y0272201D01*
X0219225Y0271478D01*
X0218974Y0270707D01*
X0218847Y0269906D01*
X0218847Y0269500D01*
X0224000Y0269500D01*
X0224000Y0269500D01*
X0224000Y0274653D01*
X0224000Y0269500D01*
X0229153Y0269500D01*
X0224000Y0269500D01*
X0224000Y0269500D01*
X0224000Y0269500D01*
X0224000Y0264347D01*
X0224406Y0264347D01*
X0225207Y0264474D01*
X0224000Y0264539D02*
X0224000Y0264539D01*
X0224000Y0264347D02*
X0224000Y0269500D01*
X0224000Y0269500D01*
X0218847Y0269500D01*
X0218847Y0269094D01*
X0218974Y0268293D01*
X0219225Y0267522D01*
X0219593Y0266799D01*
X0220070Y0266143D01*
X0220643Y0265570D01*
X0221299Y0265093D01*
X0222022Y0264725D01*
X0222793Y0264474D01*
X0223594Y0264347D01*
X0224000Y0264347D01*
X0222593Y0264539D02*
X0130963Y0264539D01*
X0130941Y0266938D02*
X0219522Y0266938D01*
X0218847Y0269336D02*
X0130919Y0269336D01*
X0130897Y0271735D02*
X0152970Y0271735D01*
X0152466Y0271943D02*
X0154759Y0270994D01*
X0157241Y0270994D01*
X0159534Y0271943D01*
X0161289Y0273698D01*
X0162239Y0275991D01*
X0162239Y0278473D01*
X0161289Y0280766D01*
X0159534Y0282521D01*
X0157241Y0283471D01*
X0154759Y0283471D01*
X0152466Y0282521D01*
X0150711Y0280766D01*
X0149761Y0278473D01*
X0149761Y0275991D01*
X0150711Y0273698D01*
X0152466Y0271943D01*
X0150531Y0274133D02*
X0130875Y0274133D01*
X0130853Y0276532D02*
X0149761Y0276532D01*
X0149951Y0278930D02*
X0130831Y0278930D01*
X0130809Y0281329D02*
X0151274Y0281329D01*
X0160726Y0281329D02*
X0196274Y0281329D01*
X0195711Y0280766D02*
X0194761Y0278473D01*
X0194761Y0275991D01*
X0195711Y0273698D01*
X0197466Y0271943D01*
X0199759Y0270994D01*
X0202241Y0270994D01*
X0204534Y0271943D01*
X0206289Y0273698D01*
X0207239Y0275991D01*
X0207239Y0278473D01*
X0206289Y0280766D01*
X0204534Y0282521D01*
X0202241Y0283471D01*
X0199759Y0283471D01*
X0197466Y0282521D01*
X0195711Y0280766D01*
X0194951Y0278930D02*
X0162049Y0278930D01*
X0162239Y0276532D02*
X0194761Y0276532D01*
X0195531Y0274133D02*
X0161469Y0274133D01*
X0159030Y0271735D02*
X0197970Y0271735D01*
X0204030Y0271735D02*
X0219356Y0271735D01*
X0221743Y0274133D02*
X0206469Y0274133D01*
X0207239Y0276532D02*
X0239761Y0276532D01*
X0239761Y0275991D02*
X0240711Y0273698D01*
X0242466Y0271943D01*
X0244759Y0270994D01*
X0247241Y0270994D01*
X0249534Y0271943D01*
X0251289Y0273698D01*
X0252239Y0275991D01*
X0252239Y0278473D01*
X0251289Y0280766D01*
X0249534Y0282521D01*
X0247241Y0283471D01*
X0244759Y0283471D01*
X0242466Y0282521D01*
X0240711Y0280766D01*
X0239761Y0278473D01*
X0239761Y0275991D01*
X0240531Y0274133D02*
X0226257Y0274133D01*
X0224000Y0274133D02*
X0224000Y0274133D01*
X0224000Y0271735D02*
X0224000Y0271735D01*
X0224000Y0269336D02*
X0224000Y0269336D01*
X0224000Y0266938D02*
X0224000Y0266938D01*
X0228478Y0266938D02*
X0264522Y0266938D01*
X0263847Y0269336D02*
X0229153Y0269336D01*
X0228644Y0271735D02*
X0242970Y0271735D01*
X0249030Y0271735D02*
X0264356Y0271735D01*
X0266743Y0274133D02*
X0251469Y0274133D01*
X0252239Y0276532D02*
X0284761Y0276532D01*
X0284761Y0275991D02*
X0285711Y0273698D01*
X0287466Y0271943D01*
X0289759Y0270994D01*
X0292241Y0270994D01*
X0294534Y0271943D01*
X0296289Y0273698D01*
X0297239Y0275991D01*
X0297239Y0278473D01*
X0296289Y0280766D01*
X0294534Y0282521D01*
X0292241Y0283471D01*
X0289759Y0283471D01*
X0287466Y0282521D01*
X0285711Y0280766D01*
X0284761Y0278473D01*
X0284761Y0275991D01*
X0285531Y0274133D02*
X0271257Y0274133D01*
X0269000Y0274133D02*
X0269000Y0274133D01*
X0269000Y0271735D02*
X0269000Y0271735D01*
X0269000Y0269336D02*
X0269000Y0269336D01*
X0269000Y0266938D02*
X0269000Y0266938D01*
X0273478Y0266938D02*
X0366883Y0266938D01*
X0375117Y0266938D02*
X0376000Y0266938D01*
X0376000Y0269336D02*
X0274153Y0269336D01*
X0273644Y0271735D02*
X0287970Y0271735D01*
X0294030Y0271735D02*
X0327970Y0271735D01*
X0327466Y0271943D02*
X0329759Y0270994D01*
X0332241Y0270994D01*
X0334534Y0271943D01*
X0336289Y0273698D01*
X0337239Y0275991D01*
X0337239Y0278473D01*
X0336289Y0280766D01*
X0334534Y0282521D01*
X0332241Y0283471D01*
X0329759Y0283471D01*
X0327466Y0282521D01*
X0325711Y0280766D01*
X0324761Y0278473D01*
X0324761Y0275991D01*
X0325711Y0273698D01*
X0327466Y0271943D01*
X0325531Y0274133D02*
X0296469Y0274133D01*
X0297239Y0276532D02*
X0324761Y0276532D01*
X0324951Y0278930D02*
X0297049Y0278930D01*
X0295726Y0281329D02*
X0326274Y0281329D01*
X0335726Y0281329D02*
X0376000Y0281329D01*
X0376000Y0283727D02*
X0375444Y0283727D01*
X0371080Y0283727D02*
X0370920Y0283727D01*
X0370920Y0286126D02*
X0371080Y0286126D01*
X0370920Y0287902D02*
X0364961Y0287902D01*
X0364961Y0288298D01*
X0365110Y0289237D01*
X0365404Y0290141D01*
X0365835Y0290988D01*
X0366394Y0291757D01*
X0367066Y0292429D01*
X0367835Y0292987D01*
X0368682Y0293419D01*
X0369586Y0293713D01*
X0370525Y0293861D01*
X0370920Y0293861D01*
X0370920Y0287902D01*
X0370920Y0288524D02*
X0371080Y0288524D01*
X0371080Y0290923D02*
X0370920Y0290923D01*
X0370920Y0293321D02*
X0371080Y0293321D01*
X0373510Y0293321D02*
X0376000Y0293321D01*
X0376000Y0295720D02*
X0130677Y0295720D01*
X0130655Y0298118D02*
X0152202Y0298118D01*
X0152066Y0298217D02*
X0152835Y0297658D01*
X0153682Y0297227D01*
X0154586Y0296933D01*
X0155525Y0296784D01*
X0155920Y0296784D01*
X0155920Y0302743D01*
X0149961Y0302743D01*
X0149961Y0302348D01*
X0150110Y0301409D01*
X0150404Y0300505D01*
X0150835Y0299658D01*
X0151394Y0298889D01*
X0152066Y0298217D01*
X0150400Y0300517D02*
X0137338Y0300517D01*
X0137207Y0300474D02*
X0137978Y0300725D01*
X0138701Y0301093D01*
X0139357Y0301570D01*
X0139930Y0302143D01*
X0140407Y0302799D01*
X0140775Y0303522D01*
X0141026Y0304293D01*
X0141153Y0305094D01*
X0141153Y0305500D01*
X0141153Y0305906D01*
X0141026Y0306707D01*
X0140775Y0307478D01*
X0140407Y0308201D01*
X0139930Y0308857D01*
X0139357Y0309430D01*
X0138701Y0309907D01*
X0137978Y0310275D01*
X0137207Y0310526D01*
X0136406Y0310653D01*
X0136000Y0310653D01*
X0135594Y0310653D01*
X0134793Y0310526D01*
X0134022Y0310275D01*
X0133299Y0309907D01*
X0132643Y0309430D01*
X0132070Y0308857D01*
X0131593Y0308201D01*
X0131225Y0307478D01*
X0130974Y0306707D01*
X0130847Y0305906D01*
X0130847Y0305500D01*
X0130847Y0305094D01*
X0130974Y0304293D01*
X0131225Y0303522D01*
X0131593Y0302799D01*
X0132070Y0302143D01*
X0132643Y0301570D01*
X0133299Y0301093D01*
X0134022Y0300725D01*
X0134793Y0300474D01*
X0135594Y0300347D01*
X0136000Y0300347D01*
X0136000Y0305500D01*
X0141153Y0305500D01*
X0136000Y0305500D01*
X0136000Y0305500D01*
X0136000Y0305500D01*
X0136000Y0310653D01*
X0136000Y0305500D01*
X0136000Y0300347D01*
X0136406Y0300347D01*
X0137207Y0300474D01*
X0136000Y0300517D02*
X0136000Y0300517D01*
X0134662Y0300517D02*
X0130633Y0300517D01*
X0130611Y0302915D02*
X0131534Y0302915D01*
X0130847Y0305314D02*
X0130589Y0305314D01*
X0130847Y0305500D02*
X0136000Y0305500D01*
X0136000Y0305500D01*
X0136000Y0305500D01*
X0130847Y0305500D01*
X0130567Y0307712D02*
X0131344Y0307712D01*
X0130545Y0310111D02*
X0133700Y0310111D01*
X0136000Y0310111D02*
X0136000Y0310111D01*
X0138300Y0310111D02*
X0162191Y0310111D01*
X0161843Y0312509D02*
X0130523Y0312509D01*
X0130501Y0314908D02*
X0162551Y0314908D01*
X0163864Y0307712D02*
X0159544Y0307712D01*
X0159165Y0307987D02*
X0158318Y0308419D01*
X0157414Y0308713D01*
X0156475Y0308861D01*
X0156080Y0308861D01*
X0156080Y0302902D01*
X0162039Y0302902D01*
X0162039Y0303298D01*
X0161890Y0304237D01*
X0161596Y0305141D01*
X0161165Y0305988D01*
X0160606Y0306757D01*
X0159934Y0307429D01*
X0159165Y0307987D01*
X0156080Y0307712D02*
X0155920Y0307712D01*
X0155920Y0308861D02*
X0155525Y0308861D01*
X0154586Y0308713D01*
X0153682Y0308419D01*
X0152835Y0307987D01*
X0152066Y0307429D01*
X0151394Y0306757D01*
X0150835Y0305988D01*
X0150404Y0305141D01*
X0150110Y0304237D01*
X0149961Y0303298D01*
X0149961Y0302902D01*
X0155920Y0302902D01*
X0155920Y0302743D01*
X0156080Y0302743D01*
X0156080Y0302902D01*
X0155920Y0302902D01*
X0155920Y0308861D01*
X0155920Y0305314D02*
X0156080Y0305314D01*
X0156080Y0302915D02*
X0155920Y0302915D01*
X0156080Y0302743D02*
X0156080Y0296784D01*
X0156475Y0296784D01*
X0157414Y0296933D01*
X0158318Y0297227D01*
X0159165Y0297658D01*
X0159934Y0298217D01*
X0160606Y0298889D01*
X0161165Y0299658D01*
X0161596Y0300505D01*
X0161890Y0301409D01*
X0162039Y0302348D01*
X0162039Y0302743D01*
X0156080Y0302743D01*
X0156080Y0300517D02*
X0155920Y0300517D01*
X0155920Y0298118D02*
X0156080Y0298118D01*
X0159798Y0298118D02*
X0197202Y0298118D01*
X0197066Y0298217D02*
X0197835Y0297658D01*
X0198682Y0297227D01*
X0199586Y0296933D01*
X0200525Y0296784D01*
X0200920Y0296784D01*
X0200920Y0302743D01*
X0194961Y0302743D01*
X0194961Y0302348D01*
X0195110Y0301409D01*
X0195404Y0300505D01*
X0195835Y0299658D01*
X0196394Y0298889D01*
X0197066Y0298217D01*
X0195400Y0300517D02*
X0161600Y0300517D01*
X0162039Y0302915D02*
X0194961Y0302915D01*
X0194961Y0302902D02*
X0200920Y0302902D01*
X0200920Y0302743D01*
X0201080Y0302743D01*
X0201080Y0302902D01*
X0207039Y0302902D01*
X0207039Y0303298D01*
X0206890Y0304237D01*
X0206596Y0305141D01*
X0206165Y0305988D01*
X0205606Y0306757D01*
X0204934Y0307429D01*
X0204165Y0307987D01*
X0203318Y0308419D01*
X0202414Y0308713D01*
X0201475Y0308861D01*
X0201080Y0308861D01*
X0201080Y0302902D01*
X0200920Y0302902D01*
X0200920Y0308861D01*
X0200525Y0308861D01*
X0199586Y0308713D01*
X0198682Y0308419D01*
X0197835Y0307987D01*
X0197066Y0307429D01*
X0196394Y0306757D01*
X0195835Y0305988D01*
X0195404Y0305141D01*
X0195110Y0304237D01*
X0194961Y0303298D01*
X0194961Y0302902D01*
X0195492Y0305314D02*
X0161508Y0305314D01*
X0152456Y0307712D02*
X0140656Y0307712D01*
X0141153Y0305314D02*
X0150492Y0305314D01*
X0149961Y0302915D02*
X0140466Y0302915D01*
X0136000Y0302915D02*
X0136000Y0302915D01*
X0136000Y0305314D02*
X0136000Y0305314D01*
X0136000Y0307712D02*
X0136000Y0307712D01*
X0130699Y0293321D02*
X0368490Y0293321D01*
X0365802Y0290923D02*
X0130721Y0290923D01*
X0130743Y0288524D02*
X0364997Y0288524D01*
X0365202Y0286126D02*
X0130765Y0286126D01*
X0130787Y0283727D02*
X0366556Y0283727D01*
X0376000Y0278930D02*
X0337049Y0278930D01*
X0337239Y0276532D02*
X0376000Y0276532D01*
X0376000Y0274133D02*
X0336469Y0274133D01*
X0334030Y0271735D02*
X0376000Y0271735D01*
X0376000Y0298118D02*
X0334798Y0298118D01*
X0334934Y0298217D02*
X0335606Y0298889D01*
X0336165Y0299658D01*
X0336596Y0300505D01*
X0336890Y0301409D01*
X0337039Y0302348D01*
X0337039Y0302743D01*
X0331080Y0302743D01*
X0331080Y0302902D01*
X0337039Y0302902D01*
X0337039Y0303298D01*
X0336890Y0304237D01*
X0336596Y0305141D01*
X0336165Y0305988D01*
X0335606Y0306757D01*
X0334934Y0307429D01*
X0334165Y0307987D01*
X0333318Y0308419D01*
X0332414Y0308713D01*
X0331475Y0308861D01*
X0331080Y0308861D01*
X0331080Y0302902D01*
X0330920Y0302902D01*
X0330920Y0302743D01*
X0324961Y0302743D01*
X0324961Y0302348D01*
X0325110Y0301409D01*
X0325404Y0300505D01*
X0325835Y0299658D01*
X0326394Y0298889D01*
X0327066Y0298217D01*
X0327835Y0297658D01*
X0328682Y0297227D01*
X0329586Y0296933D01*
X0330525Y0296784D01*
X0330920Y0296784D01*
X0330920Y0302743D01*
X0331080Y0302743D01*
X0331080Y0296784D01*
X0331475Y0296784D01*
X0332414Y0296933D01*
X0333318Y0297227D01*
X0334165Y0297658D01*
X0334934Y0298217D01*
X0336600Y0300517D02*
X0376000Y0300517D01*
X0376000Y0302915D02*
X0337039Y0302915D01*
X0336508Y0305314D02*
X0376000Y0305314D01*
X0376000Y0307712D02*
X0346128Y0307712D01*
X0347801Y0310111D02*
X0375800Y0310111D01*
X0375874Y0312509D02*
X0348149Y0312509D01*
X0347441Y0314908D02*
X0376000Y0314908D01*
X0338864Y0307712D02*
X0334544Y0307712D01*
X0331080Y0307712D02*
X0330920Y0307712D01*
X0330920Y0308861D02*
X0330525Y0308861D01*
X0329586Y0308713D01*
X0328682Y0308419D01*
X0327835Y0307987D01*
X0327066Y0307429D01*
X0326394Y0306757D01*
X0325835Y0305988D01*
X0325404Y0305141D01*
X0325110Y0304237D01*
X0324961Y0303298D01*
X0324961Y0302902D01*
X0330920Y0302902D01*
X0330920Y0308861D01*
X0330920Y0305314D02*
X0331080Y0305314D01*
X0331080Y0302915D02*
X0330920Y0302915D01*
X0330920Y0300517D02*
X0331080Y0300517D01*
X0331080Y0298118D02*
X0330920Y0298118D01*
X0327202Y0298118D02*
X0294798Y0298118D01*
X0294934Y0298217D02*
X0295606Y0298889D01*
X0296165Y0299658D01*
X0296596Y0300505D01*
X0296890Y0301409D01*
X0297039Y0302348D01*
X0297039Y0302743D01*
X0291080Y0302743D01*
X0291080Y0302902D01*
X0297039Y0302902D01*
X0297039Y0303298D01*
X0296890Y0304237D01*
X0296596Y0305141D01*
X0296165Y0305988D01*
X0295606Y0306757D01*
X0294934Y0307429D01*
X0294165Y0307987D01*
X0293318Y0308419D01*
X0292414Y0308713D01*
X0291475Y0308861D01*
X0291080Y0308861D01*
X0291080Y0302902D01*
X0290920Y0302902D01*
X0290920Y0302743D01*
X0284961Y0302743D01*
X0284961Y0302348D01*
X0285110Y0301409D01*
X0285404Y0300505D01*
X0285835Y0299658D01*
X0286394Y0298889D01*
X0287066Y0298217D01*
X0287835Y0297658D01*
X0288682Y0297227D01*
X0289586Y0296933D01*
X0290525Y0296784D01*
X0290920Y0296784D01*
X0290920Y0302743D01*
X0291080Y0302743D01*
X0291080Y0296784D01*
X0291475Y0296784D01*
X0292414Y0296933D01*
X0293318Y0297227D01*
X0294165Y0297658D01*
X0294934Y0298217D01*
X0296600Y0300517D02*
X0325400Y0300517D01*
X0324961Y0302915D02*
X0297039Y0302915D01*
X0296508Y0305314D02*
X0325492Y0305314D01*
X0327456Y0307712D02*
X0306128Y0307712D01*
X0307801Y0310111D02*
X0337191Y0310111D01*
X0336843Y0312509D02*
X0308149Y0312509D01*
X0307441Y0314908D02*
X0337551Y0314908D01*
X0298864Y0307712D02*
X0294544Y0307712D01*
X0291080Y0307712D02*
X0290920Y0307712D01*
X0290920Y0308861D02*
X0290525Y0308861D01*
X0289586Y0308713D01*
X0288682Y0308419D01*
X0287835Y0307987D01*
X0287066Y0307429D01*
X0286394Y0306757D01*
X0285835Y0305988D01*
X0285404Y0305141D01*
X0285110Y0304237D01*
X0284961Y0303298D01*
X0284961Y0302902D01*
X0290920Y0302902D01*
X0290920Y0308861D01*
X0290920Y0305314D02*
X0291080Y0305314D01*
X0291080Y0302915D02*
X0290920Y0302915D01*
X0290920Y0300517D02*
X0291080Y0300517D01*
X0291080Y0298118D02*
X0290920Y0298118D01*
X0287202Y0298118D02*
X0249798Y0298118D01*
X0249934Y0298217D02*
X0250606Y0298889D01*
X0251165Y0299658D01*
X0251596Y0300505D01*
X0251890Y0301409D01*
X0252039Y0302348D01*
X0252039Y0302743D01*
X0246080Y0302743D01*
X0246080Y0302902D01*
X0252039Y0302902D01*
X0252039Y0303298D01*
X0251890Y0304237D01*
X0251596Y0305141D01*
X0251165Y0305988D01*
X0250606Y0306757D01*
X0249934Y0307429D01*
X0249165Y0307987D01*
X0248318Y0308419D01*
X0247414Y0308713D01*
X0246475Y0308861D01*
X0246080Y0308861D01*
X0246080Y0302902D01*
X0245920Y0302902D01*
X0245920Y0302743D01*
X0239961Y0302743D01*
X0239961Y0302348D01*
X0240110Y0301409D01*
X0240404Y0300505D01*
X0240835Y0299658D01*
X0241394Y0298889D01*
X0242066Y0298217D01*
X0242835Y0297658D01*
X0243682Y0297227D01*
X0244586Y0296933D01*
X0245525Y0296784D01*
X0245920Y0296784D01*
X0245920Y0302743D01*
X0246080Y0302743D01*
X0246080Y0296784D01*
X0246475Y0296784D01*
X0247414Y0296933D01*
X0248318Y0297227D01*
X0249165Y0297658D01*
X0249934Y0298217D01*
X0251600Y0300517D02*
X0285400Y0300517D01*
X0284961Y0302915D02*
X0252039Y0302915D01*
X0251508Y0305314D02*
X0285492Y0305314D01*
X0287456Y0307712D02*
X0261128Y0307712D01*
X0262801Y0310111D02*
X0297191Y0310111D01*
X0296843Y0312509D02*
X0263149Y0312509D01*
X0262441Y0314908D02*
X0297551Y0314908D01*
X0286274Y0281329D02*
X0250726Y0281329D01*
X0252049Y0278930D02*
X0284951Y0278930D01*
X0253864Y0307712D02*
X0249544Y0307712D01*
X0246080Y0307712D02*
X0245920Y0307712D01*
X0245920Y0308861D02*
X0245525Y0308861D01*
X0244586Y0308713D01*
X0243682Y0308419D01*
X0242835Y0307987D01*
X0242066Y0307429D01*
X0241394Y0306757D01*
X0240835Y0305988D01*
X0240404Y0305141D01*
X0240110Y0304237D01*
X0239961Y0303298D01*
X0239961Y0302902D01*
X0245920Y0302902D01*
X0245920Y0308861D01*
X0245920Y0305314D02*
X0246080Y0305314D01*
X0246080Y0302915D02*
X0245920Y0302915D01*
X0245920Y0300517D02*
X0246080Y0300517D01*
X0246080Y0298118D02*
X0245920Y0298118D01*
X0242202Y0298118D02*
X0204798Y0298118D01*
X0204934Y0298217D02*
X0205606Y0298889D01*
X0206165Y0299658D01*
X0206596Y0300505D01*
X0206890Y0301409D01*
X0207039Y0302348D01*
X0207039Y0302743D01*
X0201080Y0302743D01*
X0201080Y0296784D01*
X0201475Y0296784D01*
X0202414Y0296933D01*
X0203318Y0297227D01*
X0204165Y0297658D01*
X0204934Y0298217D01*
X0206600Y0300517D02*
X0240400Y0300517D01*
X0239961Y0302915D02*
X0207039Y0302915D01*
X0206508Y0305314D02*
X0240492Y0305314D01*
X0242456Y0307712D02*
X0216128Y0307712D01*
X0217801Y0310111D02*
X0252191Y0310111D01*
X0251843Y0312509D02*
X0218149Y0312509D01*
X0217441Y0314908D02*
X0252551Y0314908D01*
X0241274Y0281329D02*
X0205726Y0281329D01*
X0207049Y0278930D02*
X0239951Y0278930D01*
X0208864Y0307712D02*
X0204544Y0307712D01*
X0201080Y0307712D02*
X0200920Y0307712D01*
X0200920Y0305314D02*
X0201080Y0305314D01*
X0201080Y0302915D02*
X0200920Y0302915D01*
X0200920Y0300517D02*
X0201080Y0300517D01*
X0201080Y0298118D02*
X0200920Y0298118D01*
X0197456Y0307712D02*
X0171128Y0307712D01*
X0172801Y0310111D02*
X0207191Y0310111D01*
X0206843Y0312509D02*
X0173149Y0312509D01*
X0172441Y0314908D02*
X0207551Y0314908D01*
M02*
