G75*
%MOIN*%
%OFA0B0*%
%FSLAX25Y25*%
%IPPOS*%
%LPD*%
%AMOC8*
5,1,8,0,0,1.08239X$1,22.5*
%
%ADD10C,0.09154*%
%ADD11C,0.07677*%
%ADD12C,0.07200*%
%ADD13C,0.10500*%
%ADD14C,0.05906*%
%ADD15C,0.05256*%
%ADD16C,0.05600*%
%ADD17C,0.07400*%
%ADD18OC8,0.06300*%
%ADD19C,0.01600*%
%ADD20R,0.03762X0.03762*%
D10*
X0041000Y0230500D03*
X0041000Y0250500D03*
D11*
X0156000Y0277232D03*
X0156000Y0302823D03*
X0201000Y0302823D03*
X0201000Y0277232D03*
X0246000Y0277232D03*
X0246000Y0302823D03*
X0291000Y0302823D03*
X0291000Y0277232D03*
X0331000Y0277232D03*
X0331000Y0302823D03*
X0371000Y0287823D03*
X0371000Y0262232D03*
X0366000Y0207823D03*
X0366000Y0182232D03*
X0321000Y0182232D03*
X0321000Y0207823D03*
X0281000Y0202232D03*
X0281000Y0227823D03*
X0231000Y0227823D03*
X0231000Y0202232D03*
X0321000Y0127823D03*
X0321000Y0102232D03*
X0366000Y0102232D03*
X0366000Y0127823D03*
X0361000Y0057823D03*
X0361000Y0032232D03*
X0316000Y0032232D03*
X0316000Y0057823D03*
X0276000Y0057823D03*
X0276000Y0032232D03*
X0236000Y0032232D03*
X0236000Y0057823D03*
D12*
X0226000Y0115500D03*
X0226000Y0130500D03*
X0226000Y0145500D03*
X0026000Y0130500D03*
X0026000Y0160500D03*
X0026000Y0100500D03*
D13*
X0226000Y0100500D03*
X0226000Y0160500D03*
D14*
X0256000Y0175500D03*
X0256000Y0195500D03*
X0256000Y0225500D03*
X0256000Y0245500D03*
X0269000Y0249500D03*
X0269000Y0269500D03*
X0224000Y0269500D03*
X0224000Y0249500D03*
X0206000Y0215500D03*
X0186000Y0215500D03*
X0291000Y0145500D03*
X0311000Y0145500D03*
X0344000Y0211000D03*
X0344000Y0231000D03*
X0256000Y0080500D03*
X0256000Y0060500D03*
X0216000Y0055500D03*
X0216000Y0075500D03*
X0191000Y0045500D03*
X0191000Y0035500D03*
X0191000Y0025500D03*
X0191000Y0015500D03*
X0041000Y0035500D03*
X0041000Y0045500D03*
X0041000Y0055500D03*
X0041000Y0065500D03*
X0116000Y0305500D03*
X0136000Y0305500D03*
D15*
X0121866Y0276947D02*
X0121866Y0271691D01*
X0115173Y0271691D02*
X0115173Y0276947D01*
X0108480Y0276947D02*
X0108480Y0271691D01*
X0101787Y0271691D02*
X0101787Y0276947D01*
X0101787Y0201947D02*
X0101787Y0196691D01*
X0108480Y0196691D02*
X0108480Y0201947D01*
X0115173Y0201947D02*
X0115173Y0196691D01*
X0121866Y0196691D02*
X0121866Y0201947D01*
D16*
X0095094Y0202119D02*
X0095094Y0196519D01*
X0095094Y0271519D02*
X0095094Y0277119D01*
D17*
X0096000Y0240500D03*
X0086000Y0240500D03*
X0171000Y0235500D03*
X0181000Y0235500D03*
X0176000Y0190500D03*
X0186000Y0190500D03*
X0256000Y0140500D03*
X0266000Y0140500D03*
X0266000Y0090500D03*
X0276000Y0090500D03*
D18*
X0276000Y0115500D03*
X0266000Y0115500D03*
D19*
X0018460Y0010515D02*
X0018445Y0010500D01*
X0377555Y0010500D01*
X0377540Y0010515D01*
X0376200Y0013750D01*
X0376200Y0017250D01*
X0377540Y0020485D01*
X0380015Y0022960D01*
X0383250Y0024300D01*
X0386750Y0024300D01*
X0389985Y0022960D01*
X0391000Y0021945D01*
X0391000Y0304055D01*
X0389985Y0303040D01*
X0386750Y0301700D01*
X0385056Y0301700D01*
X0385472Y0301528D01*
X0386949Y0300050D01*
X0387749Y0298120D01*
X0387749Y0296030D01*
X0386949Y0294099D01*
X0385472Y0292622D01*
X0383541Y0291822D01*
X0381451Y0291822D01*
X0379521Y0292622D01*
X0378043Y0294099D01*
X0377243Y0296030D01*
X0377243Y0298120D01*
X0378043Y0300050D01*
X0379521Y0301528D01*
X0381451Y0302328D01*
X0381735Y0302328D01*
X0380015Y0303040D01*
X0377540Y0305515D01*
X0376200Y0308750D01*
X0376200Y0312250D01*
X0377540Y0315485D01*
X0377555Y0315500D01*
X0346499Y0315500D01*
X0346949Y0315050D01*
X0347749Y0313120D01*
X0347749Y0311030D01*
X0346949Y0309099D01*
X0345472Y0307622D01*
X0343541Y0306822D01*
X0341451Y0306822D01*
X0339521Y0307622D01*
X0338043Y0309099D01*
X0337243Y0311030D01*
X0337243Y0313120D01*
X0338043Y0315050D01*
X0338493Y0315500D01*
X0306499Y0315500D01*
X0306949Y0315050D01*
X0307749Y0313120D01*
X0307749Y0311030D01*
X0306949Y0309099D01*
X0305472Y0307622D01*
X0303541Y0306822D01*
X0301451Y0306822D01*
X0299521Y0307622D01*
X0298043Y0309099D01*
X0297243Y0311030D01*
X0297243Y0313120D01*
X0298043Y0315050D01*
X0298493Y0315500D01*
X0261499Y0315500D01*
X0261949Y0315050D01*
X0262749Y0313120D01*
X0262749Y0311030D01*
X0261949Y0309099D01*
X0260472Y0307622D01*
X0258541Y0306822D01*
X0256451Y0306822D01*
X0254521Y0307622D01*
X0253043Y0309099D01*
X0252243Y0311030D01*
X0252243Y0313120D01*
X0253043Y0315050D01*
X0253493Y0315500D01*
X0216499Y0315500D01*
X0216949Y0315050D01*
X0217749Y0313120D01*
X0217749Y0311030D01*
X0216949Y0309099D01*
X0215472Y0307622D01*
X0213541Y0306822D01*
X0211451Y0306822D01*
X0209521Y0307622D01*
X0208043Y0309099D01*
X0207243Y0311030D01*
X0207243Y0313120D01*
X0208043Y0315050D01*
X0208493Y0315500D01*
X0171499Y0315500D01*
X0171949Y0315050D01*
X0172749Y0313120D01*
X0172749Y0311030D01*
X0171949Y0309099D01*
X0170472Y0307622D01*
X0168541Y0306822D01*
X0166451Y0306822D01*
X0164521Y0307622D01*
X0163043Y0309099D01*
X0162243Y0311030D01*
X0162243Y0313120D01*
X0163043Y0315050D01*
X0163493Y0315500D01*
X0018445Y0315500D01*
X0018460Y0315485D01*
X0019800Y0312250D01*
X0019800Y0308750D01*
X0018460Y0305515D01*
X0015985Y0303040D01*
X0012750Y0301700D01*
X0009250Y0301700D01*
X0006015Y0303040D01*
X0006000Y0303055D01*
X0006000Y0022945D01*
X0006015Y0022960D01*
X0009250Y0024300D01*
X0012750Y0024300D01*
X0015985Y0022960D01*
X0018460Y0020485D01*
X0019800Y0017250D01*
X0019800Y0013750D01*
X0018460Y0010515D01*
X0019031Y0011894D02*
X0187602Y0011894D01*
X0188194Y0011301D02*
X0190015Y0010547D01*
X0191985Y0010547D01*
X0193805Y0011301D01*
X0195199Y0012694D01*
X0195953Y0014515D01*
X0195953Y0016485D01*
X0195199Y0018305D01*
X0193805Y0019699D01*
X0191985Y0020453D01*
X0190015Y0020453D01*
X0188194Y0019699D01*
X0186801Y0018305D01*
X0186047Y0016485D01*
X0186047Y0014515D01*
X0186801Y0012694D01*
X0188194Y0011301D01*
X0186471Y0013493D02*
X0019694Y0013493D01*
X0019800Y0015091D02*
X0186047Y0015091D01*
X0186132Y0016690D02*
X0019800Y0016690D01*
X0019370Y0018288D02*
X0186794Y0018288D01*
X0188648Y0019887D02*
X0018708Y0019887D01*
X0017460Y0021485D02*
X0188011Y0021485D01*
X0188194Y0021301D02*
X0190015Y0020547D01*
X0191985Y0020547D01*
X0193805Y0021301D01*
X0195199Y0022694D01*
X0195953Y0024515D01*
X0195953Y0026485D01*
X0195199Y0028305D01*
X0193805Y0029699D01*
X0191985Y0030453D01*
X0190015Y0030453D01*
X0188194Y0029699D01*
X0186801Y0028305D01*
X0186047Y0026485D01*
X0186047Y0024515D01*
X0186801Y0022694D01*
X0188194Y0021301D01*
X0186640Y0023084D02*
X0015687Y0023084D01*
X0006313Y0023084D02*
X0006000Y0023084D01*
X0006000Y0024682D02*
X0186047Y0024682D01*
X0186047Y0026281D02*
X0006000Y0026281D01*
X0006000Y0027879D02*
X0186625Y0027879D01*
X0187973Y0029478D02*
X0006000Y0029478D01*
X0006000Y0031076D02*
X0038738Y0031076D01*
X0038194Y0031301D02*
X0040015Y0030547D01*
X0041985Y0030547D01*
X0043805Y0031301D01*
X0045199Y0032694D01*
X0045953Y0034515D01*
X0045953Y0036485D01*
X0045199Y0038305D01*
X0043805Y0039699D01*
X0041985Y0040453D01*
X0040015Y0040453D01*
X0038194Y0039699D01*
X0036801Y0038305D01*
X0036047Y0036485D01*
X0036047Y0034515D01*
X0036801Y0032694D01*
X0038194Y0031301D01*
X0036821Y0032675D02*
X0006000Y0032675D01*
X0006000Y0034273D02*
X0036147Y0034273D01*
X0036047Y0035872D02*
X0006000Y0035872D01*
X0006000Y0037470D02*
X0036455Y0037470D01*
X0037564Y0039069D02*
X0006000Y0039069D01*
X0006000Y0040667D02*
X0039725Y0040667D01*
X0040015Y0040547D02*
X0041985Y0040547D01*
X0043805Y0041301D01*
X0045199Y0042694D01*
X0045953Y0044515D01*
X0045953Y0046485D01*
X0045199Y0048305D01*
X0043805Y0049699D01*
X0041985Y0050453D01*
X0040015Y0050453D01*
X0038194Y0049699D01*
X0036801Y0048305D01*
X0036047Y0046485D01*
X0036047Y0044515D01*
X0036801Y0042694D01*
X0038194Y0041301D01*
X0040015Y0040547D01*
X0042275Y0040667D02*
X0391000Y0040667D01*
X0391000Y0039069D02*
X0194153Y0039069D01*
X0194096Y0039125D02*
X0194625Y0038596D01*
X0195065Y0037991D01*
X0195405Y0037324D01*
X0195636Y0036613D01*
X0195753Y0035874D01*
X0195753Y0035684D01*
X0191184Y0035684D01*
X0191184Y0035316D01*
X0191184Y0030747D01*
X0191374Y0030747D01*
X0192113Y0030864D01*
X0192824Y0031095D01*
X0193491Y0031435D01*
X0194096Y0031875D01*
X0194625Y0032404D01*
X0195065Y0033009D01*
X0195405Y0033676D01*
X0195636Y0034387D01*
X0195753Y0035126D01*
X0195753Y0035316D01*
X0191184Y0035316D01*
X0190816Y0035316D01*
X0190816Y0030747D01*
X0190626Y0030747D01*
X0189887Y0030864D01*
X0189176Y0031095D01*
X0188509Y0031435D01*
X0187904Y0031875D01*
X0187375Y0032404D01*
X0186935Y0033009D01*
X0186595Y0033676D01*
X0186364Y0034387D01*
X0186247Y0035126D01*
X0186247Y0035316D01*
X0190816Y0035316D01*
X0190816Y0035684D01*
X0186247Y0035684D01*
X0186247Y0035874D01*
X0186364Y0036613D01*
X0186595Y0037324D01*
X0186935Y0037991D01*
X0187375Y0038596D01*
X0187904Y0039125D01*
X0188509Y0039565D01*
X0189176Y0039905D01*
X0189887Y0040136D01*
X0190626Y0040253D01*
X0190816Y0040253D01*
X0190816Y0035684D01*
X0191184Y0035684D01*
X0191184Y0040253D01*
X0191374Y0040253D01*
X0192113Y0040136D01*
X0192824Y0039905D01*
X0193491Y0039565D01*
X0194096Y0039125D01*
X0195330Y0037470D02*
X0233874Y0037470D01*
X0233836Y0037458D02*
X0233045Y0037055D01*
X0232327Y0036533D01*
X0231699Y0035906D01*
X0231177Y0035188D01*
X0230775Y0034397D01*
X0230500Y0033553D01*
X0230367Y0032712D01*
X0235520Y0032712D01*
X0235520Y0031753D01*
X0230367Y0031753D01*
X0230500Y0030912D01*
X0230775Y0030068D01*
X0231177Y0029277D01*
X0231699Y0028559D01*
X0232327Y0027931D01*
X0233045Y0027410D01*
X0233836Y0027007D01*
X0234680Y0026733D01*
X0235520Y0026599D01*
X0235520Y0031753D01*
X0236480Y0031753D01*
X0236480Y0032712D01*
X0241633Y0032712D01*
X0241500Y0033553D01*
X0241225Y0034397D01*
X0240823Y0035188D01*
X0240301Y0035906D01*
X0239673Y0036533D01*
X0238955Y0037055D01*
X0238164Y0037458D01*
X0237320Y0037732D01*
X0236480Y0037865D01*
X0236480Y0032712D01*
X0235520Y0032712D01*
X0235520Y0037865D01*
X0234680Y0037732D01*
X0233836Y0037458D01*
X0235520Y0037470D02*
X0236480Y0037470D01*
X0236480Y0035872D02*
X0235520Y0035872D01*
X0235520Y0034273D02*
X0236480Y0034273D01*
X0236480Y0032675D02*
X0275520Y0032675D01*
X0275520Y0032712D02*
X0275520Y0031753D01*
X0270367Y0031753D01*
X0270500Y0030912D01*
X0270775Y0030068D01*
X0271177Y0029277D01*
X0271699Y0028559D01*
X0272327Y0027931D01*
X0273045Y0027410D01*
X0273836Y0027007D01*
X0274680Y0026733D01*
X0275520Y0026599D01*
X0275520Y0031753D01*
X0276480Y0031753D01*
X0276480Y0032712D01*
X0281633Y0032712D01*
X0281500Y0033553D01*
X0281225Y0034397D01*
X0280823Y0035188D01*
X0280301Y0035906D01*
X0279673Y0036533D01*
X0278955Y0037055D01*
X0278164Y0037458D01*
X0277320Y0037732D01*
X0276480Y0037865D01*
X0276480Y0032712D01*
X0275520Y0032712D01*
X0270367Y0032712D01*
X0270500Y0033553D01*
X0270775Y0034397D01*
X0271177Y0035188D01*
X0271699Y0035906D01*
X0272327Y0036533D01*
X0273045Y0037055D01*
X0273836Y0037458D01*
X0274680Y0037732D01*
X0275520Y0037865D01*
X0275520Y0032712D01*
X0276480Y0032675D02*
X0315520Y0032675D01*
X0315520Y0032712D02*
X0315520Y0031753D01*
X0310367Y0031753D01*
X0310500Y0030912D01*
X0310775Y0030068D01*
X0311177Y0029277D01*
X0311699Y0028559D01*
X0312327Y0027931D01*
X0313045Y0027410D01*
X0313836Y0027007D01*
X0314680Y0026733D01*
X0315520Y0026599D01*
X0315520Y0031753D01*
X0316480Y0031753D01*
X0316480Y0032712D01*
X0321633Y0032712D01*
X0321500Y0033553D01*
X0321225Y0034397D01*
X0320823Y0035188D01*
X0320301Y0035906D01*
X0319673Y0036533D01*
X0318955Y0037055D01*
X0318164Y0037458D01*
X0317320Y0037732D01*
X0316480Y0037865D01*
X0316480Y0032712D01*
X0315520Y0032712D01*
X0310367Y0032712D01*
X0310500Y0033553D01*
X0310775Y0034397D01*
X0311177Y0035188D01*
X0311699Y0035906D01*
X0312327Y0036533D01*
X0313045Y0037055D01*
X0313836Y0037458D01*
X0314680Y0037732D01*
X0315520Y0037865D01*
X0315520Y0032712D01*
X0316480Y0032675D02*
X0360520Y0032675D01*
X0360520Y0032712D02*
X0360520Y0031753D01*
X0355367Y0031753D01*
X0355500Y0030912D01*
X0355775Y0030068D01*
X0356177Y0029277D01*
X0356699Y0028559D01*
X0357327Y0027931D01*
X0358045Y0027410D01*
X0358836Y0027007D01*
X0359680Y0026733D01*
X0360520Y0026599D01*
X0360520Y0031753D01*
X0361480Y0031753D01*
X0361480Y0032712D01*
X0366633Y0032712D01*
X0366500Y0033553D01*
X0366225Y0034397D01*
X0365823Y0035188D01*
X0365301Y0035906D01*
X0364673Y0036533D01*
X0363955Y0037055D01*
X0363164Y0037458D01*
X0362320Y0037732D01*
X0361480Y0037865D01*
X0361480Y0032712D01*
X0360520Y0032712D01*
X0355367Y0032712D01*
X0355500Y0033553D01*
X0355775Y0034397D01*
X0356177Y0035188D01*
X0356699Y0035906D01*
X0357327Y0036533D01*
X0358045Y0037055D01*
X0358836Y0037458D01*
X0359680Y0037732D01*
X0360520Y0037865D01*
X0360520Y0032712D01*
X0361480Y0032675D02*
X0391000Y0032675D01*
X0391000Y0034273D02*
X0366266Y0034273D01*
X0365325Y0035872D02*
X0391000Y0035872D01*
X0391000Y0037470D02*
X0363126Y0037470D01*
X0361480Y0037470D02*
X0360520Y0037470D01*
X0360520Y0035872D02*
X0361480Y0035872D01*
X0361480Y0034273D02*
X0360520Y0034273D01*
X0361480Y0031753D02*
X0366633Y0031753D01*
X0366500Y0030912D01*
X0366225Y0030068D01*
X0365823Y0029277D01*
X0365301Y0028559D01*
X0364673Y0027931D01*
X0363955Y0027410D01*
X0363164Y0027007D01*
X0362320Y0026733D01*
X0361480Y0026599D01*
X0361480Y0031753D01*
X0361480Y0031076D02*
X0360520Y0031076D01*
X0360520Y0029478D02*
X0361480Y0029478D01*
X0361480Y0027879D02*
X0360520Y0027879D01*
X0357399Y0027879D02*
X0319601Y0027879D01*
X0319673Y0027931D02*
X0320301Y0028559D01*
X0320823Y0029277D01*
X0321225Y0030068D01*
X0321500Y0030912D01*
X0321633Y0031753D01*
X0316480Y0031753D01*
X0316480Y0026599D01*
X0317320Y0026733D01*
X0318164Y0027007D01*
X0318955Y0027410D01*
X0319673Y0027931D01*
X0320925Y0029478D02*
X0356075Y0029478D01*
X0355474Y0031076D02*
X0321526Y0031076D01*
X0321266Y0034273D02*
X0355734Y0034273D01*
X0356675Y0035872D02*
X0320325Y0035872D01*
X0318126Y0037470D02*
X0358874Y0037470D01*
X0366526Y0031076D02*
X0391000Y0031076D01*
X0391000Y0029478D02*
X0365925Y0029478D01*
X0364601Y0027879D02*
X0391000Y0027879D01*
X0391000Y0026281D02*
X0195953Y0026281D01*
X0195953Y0024682D02*
X0391000Y0024682D01*
X0391000Y0023084D02*
X0389687Y0023084D01*
X0380313Y0023084D02*
X0195360Y0023084D01*
X0193989Y0021485D02*
X0378540Y0021485D01*
X0377292Y0019887D02*
X0193352Y0019887D01*
X0195206Y0018288D02*
X0376630Y0018288D01*
X0376200Y0016690D02*
X0195868Y0016690D01*
X0195953Y0015091D02*
X0376200Y0015091D01*
X0376306Y0013493D02*
X0195529Y0013493D01*
X0194398Y0011894D02*
X0376969Y0011894D01*
X0391000Y0042266D02*
X0194487Y0042266D01*
X0194625Y0042404D02*
X0194096Y0041875D01*
X0193491Y0041435D01*
X0192824Y0041095D01*
X0192113Y0040864D01*
X0191374Y0040747D01*
X0191184Y0040747D01*
X0191184Y0045316D01*
X0190816Y0045316D01*
X0190816Y0040747D01*
X0190626Y0040747D01*
X0189887Y0040864D01*
X0189176Y0041095D01*
X0188509Y0041435D01*
X0187904Y0041875D01*
X0187375Y0042404D01*
X0186935Y0043009D01*
X0186595Y0043676D01*
X0186364Y0044387D01*
X0186247Y0045126D01*
X0186247Y0045316D01*
X0190816Y0045316D01*
X0190816Y0045684D01*
X0186247Y0045684D01*
X0186247Y0045874D01*
X0186364Y0046613D01*
X0186595Y0047324D01*
X0186935Y0047991D01*
X0187375Y0048596D01*
X0187904Y0049125D01*
X0188509Y0049565D01*
X0189176Y0049905D01*
X0189887Y0050136D01*
X0190626Y0050253D01*
X0190816Y0050253D01*
X0190816Y0045684D01*
X0191184Y0045684D01*
X0195753Y0045684D01*
X0195753Y0045874D01*
X0195636Y0046613D01*
X0195405Y0047324D01*
X0195065Y0047991D01*
X0194625Y0048596D01*
X0194096Y0049125D01*
X0193491Y0049565D01*
X0192824Y0049905D01*
X0192113Y0050136D01*
X0191374Y0050253D01*
X0191184Y0050253D01*
X0191184Y0045684D01*
X0191184Y0045316D01*
X0195753Y0045316D01*
X0195753Y0045126D01*
X0195636Y0044387D01*
X0195405Y0043676D01*
X0195065Y0043009D01*
X0194625Y0042404D01*
X0195466Y0043864D02*
X0391000Y0043864D01*
X0391000Y0045463D02*
X0191184Y0045463D01*
X0190816Y0045463D02*
X0045953Y0045463D01*
X0045714Y0047061D02*
X0186510Y0047061D01*
X0187438Y0048660D02*
X0044844Y0048660D01*
X0042455Y0050258D02*
X0391000Y0050258D01*
X0391000Y0048660D02*
X0194562Y0048660D01*
X0195490Y0047061D02*
X0391000Y0047061D01*
X0391000Y0051857D02*
X0219361Y0051857D01*
X0218805Y0051301D02*
X0220199Y0052694D01*
X0220953Y0054515D01*
X0220953Y0056485D01*
X0220199Y0058305D01*
X0218805Y0059699D01*
X0216985Y0060453D01*
X0215015Y0060453D01*
X0213194Y0059699D01*
X0211801Y0058305D01*
X0211047Y0056485D01*
X0211047Y0054515D01*
X0211801Y0052694D01*
X0213194Y0051301D01*
X0215015Y0050547D01*
X0216985Y0050547D01*
X0218805Y0051301D01*
X0220514Y0053455D02*
X0232110Y0053455D01*
X0232693Y0052873D02*
X0234839Y0051984D01*
X0237161Y0051984D01*
X0239307Y0052873D01*
X0240950Y0054516D01*
X0241839Y0056661D01*
X0241839Y0058984D01*
X0240950Y0061130D01*
X0239307Y0062773D01*
X0237161Y0063661D01*
X0234839Y0063661D01*
X0232693Y0062773D01*
X0231050Y0061130D01*
X0230161Y0058984D01*
X0230161Y0056661D01*
X0231050Y0054516D01*
X0232693Y0052873D01*
X0230827Y0055054D02*
X0220953Y0055054D01*
X0220883Y0056652D02*
X0230165Y0056652D01*
X0230161Y0058251D02*
X0220221Y0058251D01*
X0218442Y0059849D02*
X0230520Y0059849D01*
X0231368Y0061448D02*
X0043509Y0061448D01*
X0043491Y0061435D02*
X0044096Y0061875D01*
X0044625Y0062404D01*
X0045065Y0063009D01*
X0045405Y0063676D01*
X0045636Y0064387D01*
X0045753Y0065126D01*
X0045753Y0065316D01*
X0041184Y0065316D01*
X0041184Y0060747D01*
X0041374Y0060747D01*
X0042113Y0060864D01*
X0042824Y0061095D01*
X0043491Y0061435D01*
X0042824Y0059905D02*
X0042113Y0060136D01*
X0041374Y0060253D01*
X0041184Y0060253D01*
X0041184Y0055684D01*
X0045753Y0055684D01*
X0045753Y0055874D01*
X0045636Y0056613D01*
X0045405Y0057324D01*
X0045065Y0057991D01*
X0044625Y0058596D01*
X0044096Y0059125D01*
X0043491Y0059565D01*
X0042824Y0059905D01*
X0042933Y0059849D02*
X0213558Y0059849D01*
X0211779Y0058251D02*
X0044876Y0058251D01*
X0045623Y0056652D02*
X0211117Y0056652D01*
X0211047Y0055054D02*
X0045741Y0055054D01*
X0045753Y0055126D02*
X0045753Y0055316D01*
X0041184Y0055316D01*
X0041184Y0050747D01*
X0041374Y0050747D01*
X0042113Y0050864D01*
X0042824Y0051095D01*
X0043491Y0051435D01*
X0044096Y0051875D01*
X0044625Y0052404D01*
X0045065Y0053009D01*
X0045405Y0053676D01*
X0045636Y0054387D01*
X0045753Y0055126D01*
X0045292Y0053455D02*
X0211486Y0053455D01*
X0212639Y0051857D02*
X0044071Y0051857D01*
X0041184Y0051857D02*
X0040816Y0051857D01*
X0040816Y0050747D02*
X0040816Y0055316D01*
X0041184Y0055316D01*
X0041184Y0055684D01*
X0040816Y0055684D01*
X0040816Y0055316D01*
X0036247Y0055316D01*
X0036247Y0055126D01*
X0036364Y0054387D01*
X0036595Y0053676D01*
X0036935Y0053009D01*
X0037375Y0052404D01*
X0037904Y0051875D01*
X0038509Y0051435D01*
X0039176Y0051095D01*
X0039887Y0050864D01*
X0040626Y0050747D01*
X0040816Y0050747D01*
X0039545Y0050258D02*
X0006000Y0050258D01*
X0006000Y0048660D02*
X0037156Y0048660D01*
X0036286Y0047061D02*
X0006000Y0047061D01*
X0006000Y0045463D02*
X0036047Y0045463D01*
X0036317Y0043864D02*
X0006000Y0043864D01*
X0006000Y0042266D02*
X0037230Y0042266D01*
X0044770Y0042266D02*
X0187513Y0042266D01*
X0186534Y0043864D02*
X0045683Y0043864D01*
X0044435Y0039069D02*
X0187847Y0039069D01*
X0186670Y0037470D02*
X0045545Y0037470D01*
X0045953Y0035872D02*
X0186247Y0035872D01*
X0186401Y0034273D02*
X0045853Y0034273D01*
X0045179Y0032675D02*
X0187178Y0032675D01*
X0189235Y0031076D02*
X0043262Y0031076D01*
X0037929Y0051857D02*
X0006000Y0051857D01*
X0006000Y0053455D02*
X0036708Y0053455D01*
X0036259Y0055054D02*
X0006000Y0055054D01*
X0006000Y0056652D02*
X0036377Y0056652D01*
X0036364Y0056613D02*
X0036247Y0055874D01*
X0036247Y0055684D01*
X0040816Y0055684D01*
X0040816Y0060253D01*
X0040626Y0060253D01*
X0039887Y0060136D01*
X0039176Y0059905D01*
X0038509Y0059565D01*
X0037904Y0059125D01*
X0037375Y0058596D01*
X0036935Y0057991D01*
X0036595Y0057324D01*
X0036364Y0056613D01*
X0037124Y0058251D02*
X0006000Y0058251D01*
X0006000Y0059849D02*
X0039067Y0059849D01*
X0039176Y0061095D02*
X0039887Y0060864D01*
X0040626Y0060747D01*
X0040816Y0060747D01*
X0040816Y0065316D01*
X0041184Y0065316D01*
X0041184Y0065684D01*
X0045753Y0065684D01*
X0045753Y0065874D01*
X0045636Y0066613D01*
X0045405Y0067324D01*
X0045065Y0067991D01*
X0044625Y0068596D01*
X0044096Y0069125D01*
X0043491Y0069565D01*
X0042824Y0069905D01*
X0042113Y0070136D01*
X0041374Y0070253D01*
X0041184Y0070253D01*
X0041184Y0065684D01*
X0040816Y0065684D01*
X0040816Y0065316D01*
X0036247Y0065316D01*
X0036247Y0065126D01*
X0036364Y0064387D01*
X0036595Y0063676D01*
X0036935Y0063009D01*
X0037375Y0062404D01*
X0037904Y0061875D01*
X0038509Y0061435D01*
X0039176Y0061095D01*
X0038491Y0061448D02*
X0006000Y0061448D01*
X0006000Y0063046D02*
X0036916Y0063046D01*
X0036323Y0064645D02*
X0006000Y0064645D01*
X0006000Y0066243D02*
X0036306Y0066243D01*
X0036247Y0065874D02*
X0036247Y0065684D01*
X0040816Y0065684D01*
X0040816Y0070253D01*
X0040626Y0070253D01*
X0039887Y0070136D01*
X0039176Y0069905D01*
X0038509Y0069565D01*
X0037904Y0069125D01*
X0037375Y0068596D01*
X0036935Y0067991D01*
X0036595Y0067324D01*
X0036364Y0066613D01*
X0036247Y0065874D01*
X0036859Y0067842D02*
X0006000Y0067842D01*
X0006000Y0069440D02*
X0038338Y0069440D01*
X0040816Y0069440D02*
X0041184Y0069440D01*
X0041184Y0067842D02*
X0040816Y0067842D01*
X0040816Y0066243D02*
X0041184Y0066243D01*
X0041184Y0064645D02*
X0040816Y0064645D01*
X0040816Y0063046D02*
X0041184Y0063046D01*
X0041184Y0061448D02*
X0040816Y0061448D01*
X0040816Y0059849D02*
X0041184Y0059849D01*
X0041184Y0058251D02*
X0040816Y0058251D01*
X0040816Y0056652D02*
X0041184Y0056652D01*
X0041184Y0055054D02*
X0040816Y0055054D01*
X0040816Y0053455D02*
X0041184Y0053455D01*
X0045084Y0063046D02*
X0233354Y0063046D01*
X0238646Y0063046D02*
X0244096Y0063046D01*
X0244521Y0062622D02*
X0243043Y0064099D01*
X0242243Y0066030D01*
X0242243Y0068120D01*
X0243043Y0070050D01*
X0244521Y0071528D01*
X0246451Y0072328D01*
X0248541Y0072328D01*
X0250472Y0071528D01*
X0251949Y0070050D01*
X0252749Y0068120D01*
X0252749Y0066030D01*
X0251949Y0064099D01*
X0250472Y0062622D01*
X0248541Y0061822D01*
X0246451Y0061822D01*
X0244521Y0062622D01*
X0242817Y0064645D02*
X0045677Y0064645D01*
X0045694Y0066243D02*
X0242243Y0066243D01*
X0242243Y0067842D02*
X0045141Y0067842D01*
X0043662Y0069440D02*
X0242790Y0069440D01*
X0244032Y0071039D02*
X0217651Y0071039D01*
X0217824Y0071095D02*
X0218491Y0071435D01*
X0219096Y0071875D01*
X0219625Y0072404D01*
X0220065Y0073009D01*
X0220405Y0073676D01*
X0220636Y0074387D01*
X0220753Y0075126D01*
X0220753Y0075316D01*
X0216184Y0075316D01*
X0216184Y0070747D01*
X0216374Y0070747D01*
X0217113Y0070864D01*
X0217824Y0071095D01*
X0216184Y0071039D02*
X0215816Y0071039D01*
X0215816Y0070747D02*
X0215816Y0075316D01*
X0211247Y0075316D01*
X0211247Y0075126D01*
X0211364Y0074387D01*
X0211595Y0073676D01*
X0211935Y0073009D01*
X0212375Y0072404D01*
X0212904Y0071875D01*
X0213509Y0071435D01*
X0214176Y0071095D01*
X0214887Y0070864D01*
X0215626Y0070747D01*
X0215816Y0070747D01*
X0214349Y0071039D02*
X0006000Y0071039D01*
X0006000Y0072637D02*
X0212205Y0072637D01*
X0211413Y0074236D02*
X0006000Y0074236D01*
X0006000Y0075834D02*
X0211247Y0075834D01*
X0211247Y0075874D02*
X0211247Y0075684D01*
X0215816Y0075684D01*
X0215816Y0075316D01*
X0216184Y0075316D01*
X0216184Y0075684D01*
X0215816Y0075684D01*
X0215816Y0080253D01*
X0215626Y0080253D01*
X0214887Y0080136D01*
X0214176Y0079905D01*
X0213509Y0079565D01*
X0212904Y0079125D01*
X0212375Y0078596D01*
X0211935Y0077991D01*
X0211595Y0077324D01*
X0211364Y0076613D01*
X0211247Y0075874D01*
X0211651Y0077433D02*
X0006000Y0077433D01*
X0006000Y0079032D02*
X0212810Y0079032D01*
X0215816Y0079032D02*
X0216184Y0079032D01*
X0216184Y0080253D02*
X0216184Y0075684D01*
X0220753Y0075684D01*
X0220753Y0075874D01*
X0220636Y0076613D01*
X0220405Y0077324D01*
X0220065Y0077991D01*
X0219625Y0078596D01*
X0219096Y0079125D01*
X0218491Y0079565D01*
X0217824Y0079905D01*
X0217113Y0080136D01*
X0216374Y0080253D01*
X0216184Y0080253D01*
X0216184Y0077433D02*
X0215816Y0077433D01*
X0215816Y0075834D02*
X0216184Y0075834D01*
X0216184Y0074236D02*
X0215816Y0074236D01*
X0215816Y0072637D02*
X0216184Y0072637D01*
X0219795Y0072637D02*
X0391000Y0072637D01*
X0391000Y0071039D02*
X0375960Y0071039D01*
X0375472Y0071528D02*
X0373541Y0072328D01*
X0371451Y0072328D01*
X0369521Y0071528D01*
X0368043Y0070050D01*
X0367243Y0068120D01*
X0367243Y0066030D01*
X0368043Y0064099D01*
X0369521Y0062622D01*
X0371451Y0061822D01*
X0373541Y0061822D01*
X0375472Y0062622D01*
X0376949Y0064099D01*
X0377749Y0066030D01*
X0377749Y0068120D01*
X0376949Y0070050D01*
X0375472Y0071528D01*
X0377202Y0069440D02*
X0391000Y0069440D01*
X0391000Y0067842D02*
X0377749Y0067842D01*
X0377749Y0066243D02*
X0391000Y0066243D01*
X0391000Y0064645D02*
X0377175Y0064645D01*
X0375896Y0063046D02*
X0391000Y0063046D01*
X0391000Y0061448D02*
X0365632Y0061448D01*
X0365950Y0061130D02*
X0364307Y0062773D01*
X0362161Y0063661D01*
X0359839Y0063661D01*
X0357693Y0062773D01*
X0356050Y0061130D01*
X0355161Y0058984D01*
X0355161Y0056661D01*
X0356050Y0054516D01*
X0357693Y0052873D01*
X0359839Y0051984D01*
X0362161Y0051984D01*
X0364307Y0052873D01*
X0365950Y0054516D01*
X0366839Y0056661D01*
X0366839Y0058984D01*
X0365950Y0061130D01*
X0366480Y0059849D02*
X0391000Y0059849D01*
X0391000Y0058251D02*
X0366839Y0058251D01*
X0366835Y0056652D02*
X0391000Y0056652D01*
X0391000Y0055054D02*
X0366173Y0055054D01*
X0364890Y0053455D02*
X0391000Y0053455D01*
X0369096Y0063046D02*
X0363646Y0063046D01*
X0367817Y0064645D02*
X0332175Y0064645D01*
X0331949Y0064099D02*
X0332749Y0066030D01*
X0332749Y0068120D01*
X0331949Y0070050D01*
X0330472Y0071528D01*
X0328541Y0072328D01*
X0326451Y0072328D01*
X0324521Y0071528D01*
X0323043Y0070050D01*
X0322243Y0068120D01*
X0322243Y0066030D01*
X0323043Y0064099D01*
X0324521Y0062622D01*
X0326451Y0061822D01*
X0328541Y0061822D01*
X0330472Y0062622D01*
X0331949Y0064099D01*
X0330896Y0063046D02*
X0358354Y0063046D01*
X0356368Y0061448D02*
X0320632Y0061448D01*
X0320950Y0061130D02*
X0319307Y0062773D01*
X0317161Y0063661D01*
X0314839Y0063661D01*
X0312693Y0062773D01*
X0311050Y0061130D01*
X0310161Y0058984D01*
X0310161Y0056661D01*
X0311050Y0054516D01*
X0312693Y0052873D01*
X0314839Y0051984D01*
X0317161Y0051984D01*
X0319307Y0052873D01*
X0320950Y0054516D01*
X0321839Y0056661D01*
X0321839Y0058984D01*
X0320950Y0061130D01*
X0321480Y0059849D02*
X0355520Y0059849D01*
X0355161Y0058251D02*
X0321839Y0058251D01*
X0321835Y0056652D02*
X0355165Y0056652D01*
X0355827Y0055054D02*
X0321173Y0055054D01*
X0319890Y0053455D02*
X0357110Y0053455D01*
X0367243Y0066243D02*
X0332749Y0066243D01*
X0332749Y0067842D02*
X0367243Y0067842D01*
X0367790Y0069440D02*
X0332202Y0069440D01*
X0330960Y0071039D02*
X0369032Y0071039D01*
X0391000Y0074236D02*
X0220587Y0074236D01*
X0220753Y0075834D02*
X0255075Y0075834D01*
X0254887Y0075864D02*
X0255626Y0075747D01*
X0255816Y0075747D01*
X0255816Y0080316D01*
X0251247Y0080316D01*
X0251247Y0080126D01*
X0251364Y0079387D01*
X0251595Y0078676D01*
X0251935Y0078009D01*
X0252375Y0077404D01*
X0252904Y0076875D01*
X0253509Y0076435D01*
X0254176Y0076095D01*
X0254887Y0075864D01*
X0255816Y0075834D02*
X0256184Y0075834D01*
X0256184Y0075747D02*
X0256374Y0075747D01*
X0257113Y0075864D01*
X0257824Y0076095D01*
X0258491Y0076435D01*
X0259096Y0076875D01*
X0259625Y0077404D01*
X0260065Y0078009D01*
X0260405Y0078676D01*
X0260636Y0079387D01*
X0260753Y0080126D01*
X0260753Y0080316D01*
X0256184Y0080316D01*
X0256184Y0075747D01*
X0256925Y0075834D02*
X0391000Y0075834D01*
X0391000Y0077433D02*
X0259646Y0077433D01*
X0260520Y0079032D02*
X0391000Y0079032D01*
X0391000Y0080630D02*
X0256184Y0080630D01*
X0256184Y0080684D02*
X0260753Y0080684D01*
X0260753Y0080874D01*
X0260636Y0081613D01*
X0260405Y0082324D01*
X0260065Y0082991D01*
X0259625Y0083596D01*
X0259096Y0084125D01*
X0258491Y0084565D01*
X0257824Y0084905D01*
X0257113Y0085136D01*
X0256374Y0085253D01*
X0256184Y0085253D01*
X0256184Y0080684D01*
X0255816Y0080684D01*
X0255816Y0080316D01*
X0256184Y0080316D01*
X0256184Y0080684D01*
X0255816Y0080684D02*
X0255816Y0085253D01*
X0255626Y0085253D01*
X0254887Y0085136D01*
X0254176Y0084905D01*
X0253509Y0084565D01*
X0252904Y0084125D01*
X0252375Y0083596D01*
X0251935Y0082991D01*
X0251595Y0082324D01*
X0251364Y0081613D01*
X0251247Y0080874D01*
X0251247Y0080684D01*
X0255816Y0080684D01*
X0255816Y0080630D02*
X0006000Y0080630D01*
X0006000Y0082229D02*
X0251564Y0082229D01*
X0252606Y0083827D02*
X0006000Y0083827D01*
X0006000Y0085426D02*
X0263356Y0085426D01*
X0262771Y0085668D02*
X0264866Y0084800D01*
X0267134Y0084800D01*
X0269229Y0085668D01*
X0270832Y0087271D01*
X0271000Y0087676D01*
X0271168Y0087271D01*
X0272771Y0085668D01*
X0274866Y0084800D01*
X0277134Y0084800D01*
X0279229Y0085668D01*
X0280832Y0087271D01*
X0281700Y0089366D01*
X0281700Y0091634D01*
X0280832Y0093729D01*
X0279229Y0095332D01*
X0277134Y0096200D01*
X0274866Y0096200D01*
X0272771Y0095332D01*
X0271168Y0093729D01*
X0271000Y0093324D01*
X0270832Y0093729D01*
X0269229Y0095332D01*
X0267134Y0096200D01*
X0264866Y0096200D01*
X0262771Y0095332D01*
X0261168Y0093729D01*
X0260300Y0091634D01*
X0260300Y0089366D01*
X0261168Y0087271D01*
X0262771Y0085668D01*
X0261415Y0087024D02*
X0006000Y0087024D01*
X0006000Y0088623D02*
X0260608Y0088623D01*
X0260300Y0090221D02*
X0006000Y0090221D01*
X0006000Y0091820D02*
X0260377Y0091820D01*
X0261039Y0093418D02*
X0006000Y0093418D01*
X0006000Y0095017D02*
X0221565Y0095017D01*
X0221342Y0095188D02*
X0222075Y0094626D01*
X0222875Y0094163D01*
X0223729Y0093810D01*
X0224622Y0093571D01*
X0225200Y0093494D01*
X0225200Y0099700D01*
X0226800Y0099700D01*
X0226800Y0101300D01*
X0233005Y0101300D01*
X0232929Y0101878D01*
X0232690Y0102771D01*
X0232337Y0103625D01*
X0231874Y0104425D01*
X0231312Y0105158D01*
X0230658Y0105812D01*
X0229925Y0106374D01*
X0229125Y0106837D01*
X0228271Y0107190D01*
X0227378Y0107429D01*
X0226800Y0107505D01*
X0226800Y0101300D01*
X0225200Y0101300D01*
X0225200Y0107505D01*
X0224622Y0107429D01*
X0223729Y0107190D01*
X0222875Y0106837D01*
X0222075Y0106374D01*
X0221342Y0105812D01*
X0220688Y0105158D01*
X0220126Y0104425D01*
X0219663Y0103625D01*
X0219310Y0102771D01*
X0219071Y0101878D01*
X0218994Y0101300D01*
X0225200Y0101300D01*
X0225200Y0099700D01*
X0218994Y0099700D01*
X0219071Y0099122D01*
X0219310Y0098229D01*
X0219663Y0097375D01*
X0220126Y0096575D01*
X0220688Y0095842D01*
X0221342Y0095188D01*
X0220102Y0096615D02*
X0029752Y0096615D01*
X0029518Y0096381D02*
X0030119Y0096982D01*
X0030618Y0097670D01*
X0031004Y0098427D01*
X0031267Y0099235D01*
X0031400Y0100075D01*
X0031400Y0100100D01*
X0026400Y0100100D01*
X0026400Y0100900D01*
X0031400Y0100900D01*
X0031400Y0100925D01*
X0031267Y0101765D01*
X0031004Y0102573D01*
X0030618Y0103330D01*
X0030119Y0104018D01*
X0029518Y0104619D01*
X0028830Y0105118D01*
X0028073Y0105504D01*
X0027265Y0105767D01*
X0026425Y0105900D01*
X0026400Y0105900D01*
X0026400Y0100900D01*
X0025600Y0100900D01*
X0025600Y0105900D01*
X0025575Y0105900D01*
X0024735Y0105767D01*
X0023927Y0105504D01*
X0023170Y0105118D01*
X0022482Y0104619D01*
X0021881Y0104018D01*
X0021382Y0103330D01*
X0020996Y0102573D01*
X0020733Y0101765D01*
X0020600Y0100925D01*
X0020600Y0100900D01*
X0025600Y0100900D01*
X0025600Y0100100D01*
X0026400Y0100100D01*
X0026400Y0095100D01*
X0026425Y0095100D01*
X0027265Y0095233D01*
X0028073Y0095496D01*
X0028830Y0095882D01*
X0029518Y0096381D01*
X0030896Y0098214D02*
X0219316Y0098214D01*
X0219009Y0101411D02*
X0031323Y0101411D01*
X0031358Y0099812D02*
X0225200Y0099812D01*
X0225200Y0098214D02*
X0226800Y0098214D01*
X0226800Y0099700D02*
X0226800Y0093494D01*
X0227378Y0093571D01*
X0228271Y0093810D01*
X0229125Y0094163D01*
X0229925Y0094626D01*
X0230658Y0095188D01*
X0231312Y0095842D01*
X0231874Y0096575D01*
X0232337Y0097375D01*
X0232690Y0098229D01*
X0232929Y0099122D01*
X0233005Y0099700D01*
X0226800Y0099700D01*
X0226800Y0099812D02*
X0315905Y0099812D01*
X0315775Y0100068D02*
X0316177Y0099277D01*
X0316699Y0098559D01*
X0317327Y0097931D01*
X0318045Y0097410D01*
X0318836Y0097007D01*
X0319680Y0096733D01*
X0320520Y0096599D01*
X0320520Y0101753D01*
X0315367Y0101753D01*
X0315500Y0100912D01*
X0315775Y0100068D01*
X0315421Y0101411D02*
X0232991Y0101411D01*
X0232592Y0103009D02*
X0315414Y0103009D01*
X0315367Y0102712D02*
X0320520Y0102712D01*
X0320520Y0101753D01*
X0321480Y0101753D01*
X0321480Y0102712D01*
X0326633Y0102712D01*
X0326500Y0103553D01*
X0326225Y0104397D01*
X0325823Y0105188D01*
X0325301Y0105906D01*
X0324673Y0106533D01*
X0323955Y0107055D01*
X0323164Y0107458D01*
X0322320Y0107732D01*
X0321480Y0107865D01*
X0321480Y0102712D01*
X0320520Y0102712D01*
X0320520Y0107865D01*
X0319680Y0107732D01*
X0318836Y0107458D01*
X0318045Y0107055D01*
X0317327Y0106533D01*
X0316699Y0105906D01*
X0316177Y0105188D01*
X0315775Y0104397D01*
X0315500Y0103553D01*
X0315367Y0102712D01*
X0315882Y0104608D02*
X0231734Y0104608D01*
X0230144Y0106206D02*
X0317000Y0106206D01*
X0320520Y0106206D02*
X0321480Y0106206D01*
X0321480Y0104608D02*
X0320520Y0104608D01*
X0320520Y0103009D02*
X0321480Y0103009D01*
X0321480Y0101753D02*
X0326633Y0101753D01*
X0326500Y0100912D01*
X0326225Y0100068D01*
X0325823Y0099277D01*
X0325301Y0098559D01*
X0324673Y0097931D01*
X0323955Y0097410D01*
X0323164Y0097007D01*
X0322320Y0096733D01*
X0321480Y0096599D01*
X0321480Y0101753D01*
X0321480Y0101411D02*
X0320520Y0101411D01*
X0320520Y0099812D02*
X0321480Y0099812D01*
X0321480Y0098214D02*
X0320520Y0098214D01*
X0320520Y0096615D02*
X0321480Y0096615D01*
X0321579Y0096615D02*
X0365421Y0096615D01*
X0365520Y0096615D02*
X0366480Y0096615D01*
X0366480Y0096599D02*
X0367320Y0096733D01*
X0368164Y0097007D01*
X0368955Y0097410D01*
X0369673Y0097931D01*
X0370301Y0098559D01*
X0370823Y0099277D01*
X0371225Y0100068D01*
X0371500Y0100912D01*
X0371633Y0101753D01*
X0366480Y0101753D01*
X0366480Y0102712D01*
X0371633Y0102712D01*
X0371500Y0103553D01*
X0371225Y0104397D01*
X0370823Y0105188D01*
X0370301Y0105906D01*
X0369673Y0106533D01*
X0368955Y0107055D01*
X0368164Y0107458D01*
X0367320Y0107732D01*
X0366480Y0107865D01*
X0366480Y0102712D01*
X0365520Y0102712D01*
X0365520Y0101753D01*
X0360367Y0101753D01*
X0360500Y0100912D01*
X0360775Y0100068D01*
X0361177Y0099277D01*
X0361699Y0098559D01*
X0362327Y0097931D01*
X0363045Y0097410D01*
X0363836Y0097007D01*
X0364680Y0096733D01*
X0365520Y0096599D01*
X0365520Y0101753D01*
X0366480Y0101753D01*
X0366480Y0096599D01*
X0366579Y0096615D02*
X0391000Y0096615D01*
X0391000Y0095017D02*
X0279544Y0095017D01*
X0280961Y0093418D02*
X0391000Y0093418D01*
X0391000Y0091820D02*
X0281623Y0091820D01*
X0281700Y0090221D02*
X0391000Y0090221D01*
X0391000Y0088623D02*
X0281392Y0088623D01*
X0280585Y0087024D02*
X0391000Y0087024D01*
X0391000Y0085426D02*
X0278644Y0085426D01*
X0273356Y0085426D02*
X0268644Y0085426D01*
X0270585Y0087024D02*
X0271415Y0087024D01*
X0271039Y0093418D02*
X0270961Y0093418D01*
X0269544Y0095017D02*
X0272456Y0095017D01*
X0262456Y0095017D02*
X0230435Y0095017D01*
X0231898Y0096615D02*
X0320421Y0096615D01*
X0317044Y0098214D02*
X0232684Y0098214D01*
X0226800Y0096615D02*
X0225200Y0096615D01*
X0225200Y0095017D02*
X0226800Y0095017D01*
X0226800Y0101411D02*
X0225200Y0101411D01*
X0225200Y0103009D02*
X0226800Y0103009D01*
X0226800Y0104608D02*
X0225200Y0104608D01*
X0225200Y0106206D02*
X0226800Y0106206D01*
X0226425Y0110100D02*
X0227265Y0110233D01*
X0228073Y0110496D01*
X0228830Y0110882D01*
X0229518Y0111381D01*
X0230119Y0111982D01*
X0230618Y0112670D01*
X0231004Y0113427D01*
X0231267Y0114235D01*
X0231400Y0115075D01*
X0231400Y0115100D01*
X0226400Y0115100D01*
X0226400Y0115900D01*
X0231400Y0115900D01*
X0231400Y0115925D01*
X0231267Y0116765D01*
X0231004Y0117573D01*
X0230618Y0118330D01*
X0230119Y0119018D01*
X0229518Y0119619D01*
X0228830Y0120118D01*
X0228073Y0120504D01*
X0227265Y0120767D01*
X0226425Y0120900D01*
X0226400Y0120900D01*
X0226400Y0115900D01*
X0225600Y0115900D01*
X0225600Y0120900D01*
X0225575Y0120900D01*
X0224735Y0120767D01*
X0223927Y0120504D01*
X0223170Y0120118D01*
X0222482Y0119619D01*
X0221881Y0119018D01*
X0221382Y0118330D01*
X0220996Y0117573D01*
X0220733Y0116765D01*
X0220600Y0115925D01*
X0220600Y0115900D01*
X0225600Y0115900D01*
X0225600Y0115100D01*
X0226400Y0115100D01*
X0226400Y0110100D01*
X0226425Y0110100D01*
X0225600Y0110100D02*
X0225600Y0115100D01*
X0220600Y0115100D01*
X0220600Y0115075D01*
X0220733Y0114235D01*
X0220996Y0113427D01*
X0221382Y0112670D01*
X0221881Y0111982D01*
X0222482Y0111381D01*
X0223170Y0110882D01*
X0223927Y0110496D01*
X0224735Y0110233D01*
X0225575Y0110100D01*
X0225600Y0110100D01*
X0225600Y0111002D02*
X0226400Y0111002D01*
X0226400Y0112600D02*
X0225600Y0112600D01*
X0225600Y0114199D02*
X0226400Y0114199D01*
X0226400Y0115797D02*
X0260850Y0115797D01*
X0260850Y0114199D02*
X0231255Y0114199D01*
X0230568Y0112600D02*
X0261617Y0112600D01*
X0260850Y0113367D02*
X0263867Y0110350D01*
X0268133Y0110350D01*
X0271000Y0113217D01*
X0273867Y0110350D01*
X0278133Y0110350D01*
X0281150Y0113367D01*
X0281150Y0117633D01*
X0278133Y0120650D01*
X0273867Y0120650D01*
X0271000Y0117783D01*
X0268133Y0120650D01*
X0263867Y0120650D01*
X0260850Y0117633D01*
X0260850Y0113367D01*
X0263215Y0111002D02*
X0228996Y0111002D01*
X0225600Y0115797D02*
X0006000Y0115797D01*
X0006000Y0114199D02*
X0220745Y0114199D01*
X0221432Y0112600D02*
X0006000Y0112600D01*
X0006000Y0111002D02*
X0223004Y0111002D01*
X0221856Y0106206D02*
X0006000Y0106206D01*
X0006000Y0104608D02*
X0022471Y0104608D01*
X0021218Y0103009D02*
X0006000Y0103009D01*
X0006000Y0101411D02*
X0020677Y0101411D01*
X0020600Y0100100D02*
X0020600Y0100075D01*
X0020733Y0099235D01*
X0020996Y0098427D01*
X0021382Y0097670D01*
X0021881Y0096982D01*
X0022482Y0096381D01*
X0023170Y0095882D01*
X0023927Y0095496D01*
X0024735Y0095233D01*
X0025575Y0095100D01*
X0025600Y0095100D01*
X0025600Y0100100D01*
X0020600Y0100100D01*
X0020642Y0099812D02*
X0006000Y0099812D01*
X0006000Y0098214D02*
X0021104Y0098214D01*
X0022248Y0096615D02*
X0006000Y0096615D01*
X0006000Y0107805D02*
X0320139Y0107805D01*
X0320520Y0107805D02*
X0321480Y0107805D01*
X0321861Y0107805D02*
X0365139Y0107805D01*
X0365520Y0107805D02*
X0366480Y0107805D01*
X0366861Y0107805D02*
X0391000Y0107805D01*
X0391000Y0109403D02*
X0006000Y0109403D01*
X0006000Y0117396D02*
X0220938Y0117396D01*
X0221864Y0118994D02*
X0006000Y0118994D01*
X0006000Y0120593D02*
X0224199Y0120593D01*
X0225600Y0120593D02*
X0226400Y0120593D01*
X0227801Y0120593D02*
X0263810Y0120593D01*
X0262211Y0118994D02*
X0230136Y0118994D01*
X0231062Y0117396D02*
X0260850Y0117396D01*
X0268190Y0120593D02*
X0273810Y0120593D01*
X0272211Y0118994D02*
X0269789Y0118994D01*
X0270383Y0112600D02*
X0271617Y0112600D01*
X0273215Y0111002D02*
X0268785Y0111002D01*
X0278785Y0111002D02*
X0391000Y0111002D01*
X0391000Y0112600D02*
X0280383Y0112600D01*
X0281150Y0114199D02*
X0391000Y0114199D01*
X0391000Y0115797D02*
X0281150Y0115797D01*
X0281150Y0117396D02*
X0391000Y0117396D01*
X0391000Y0118994D02*
X0279789Y0118994D01*
X0278190Y0120593D02*
X0391000Y0120593D01*
X0391000Y0122191D02*
X0367661Y0122191D01*
X0367161Y0121984D02*
X0369307Y0122873D01*
X0370950Y0124516D01*
X0371839Y0126661D01*
X0371839Y0128984D01*
X0370950Y0131130D01*
X0369307Y0132773D01*
X0367161Y0133661D01*
X0364839Y0133661D01*
X0362693Y0132773D01*
X0361050Y0131130D01*
X0360161Y0128984D01*
X0360161Y0126661D01*
X0361050Y0124516D01*
X0362693Y0122873D01*
X0364839Y0121984D01*
X0367161Y0121984D01*
X0364339Y0122191D02*
X0322661Y0122191D01*
X0322161Y0121984D02*
X0324307Y0122873D01*
X0325950Y0124516D01*
X0326839Y0126661D01*
X0326839Y0128984D01*
X0325950Y0131130D01*
X0324307Y0132773D01*
X0322161Y0133661D01*
X0319839Y0133661D01*
X0317693Y0132773D01*
X0316050Y0131130D01*
X0315161Y0128984D01*
X0315161Y0126661D01*
X0316050Y0124516D01*
X0317693Y0122873D01*
X0319839Y0121984D01*
X0322161Y0121984D01*
X0319339Y0122191D02*
X0006000Y0122191D01*
X0006000Y0123790D02*
X0316776Y0123790D01*
X0315689Y0125388D02*
X0228293Y0125388D01*
X0229172Y0125753D02*
X0230747Y0127328D01*
X0231600Y0129386D01*
X0231600Y0131614D01*
X0230747Y0133672D01*
X0229172Y0135247D01*
X0227114Y0136100D01*
X0224886Y0136100D01*
X0222828Y0135247D01*
X0221253Y0133672D01*
X0220400Y0131614D01*
X0220400Y0129386D01*
X0221253Y0127328D01*
X0222828Y0125753D01*
X0224886Y0124900D01*
X0227114Y0124900D01*
X0229172Y0125753D01*
X0230406Y0126987D02*
X0315161Y0126987D01*
X0315161Y0128585D02*
X0231268Y0128585D01*
X0231600Y0130184D02*
X0315658Y0130184D01*
X0316703Y0131782D02*
X0231530Y0131782D01*
X0230868Y0133381D02*
X0319161Y0133381D01*
X0322839Y0133381D02*
X0328761Y0133381D01*
X0328043Y0134099D02*
X0329521Y0132622D01*
X0331451Y0131822D01*
X0333541Y0131822D01*
X0335472Y0132622D01*
X0336949Y0134099D01*
X0337749Y0136030D01*
X0337749Y0138120D01*
X0336949Y0140050D01*
X0335472Y0141528D01*
X0333541Y0142328D01*
X0331451Y0142328D01*
X0329521Y0141528D01*
X0328043Y0140050D01*
X0327243Y0138120D01*
X0327243Y0136030D01*
X0328043Y0134099D01*
X0327678Y0134979D02*
X0267567Y0134979D01*
X0267134Y0134800D02*
X0269229Y0135668D01*
X0270832Y0137271D01*
X0271700Y0139366D01*
X0271700Y0141634D01*
X0270832Y0143729D01*
X0269229Y0145332D01*
X0267134Y0146200D01*
X0264866Y0146200D01*
X0262771Y0145332D01*
X0261168Y0143729D01*
X0261000Y0143324D01*
X0260832Y0143729D01*
X0259229Y0145332D01*
X0257134Y0146200D01*
X0254866Y0146200D01*
X0252771Y0145332D01*
X0251168Y0143729D01*
X0250300Y0141634D01*
X0250300Y0139366D01*
X0251168Y0137271D01*
X0252771Y0135668D01*
X0254866Y0134800D01*
X0257134Y0134800D01*
X0259229Y0135668D01*
X0260832Y0137271D01*
X0261000Y0137676D01*
X0261168Y0137271D01*
X0262771Y0135668D01*
X0264866Y0134800D01*
X0267134Y0134800D01*
X0264433Y0134979D02*
X0257567Y0134979D01*
X0260139Y0136578D02*
X0261861Y0136578D01*
X0254433Y0134979D02*
X0229440Y0134979D01*
X0227114Y0139900D02*
X0229172Y0140753D01*
X0230747Y0142328D01*
X0231600Y0144386D01*
X0231600Y0146614D01*
X0230747Y0148672D01*
X0229172Y0150247D01*
X0227114Y0151100D01*
X0224886Y0151100D01*
X0222828Y0150247D01*
X0221253Y0148672D01*
X0220400Y0146614D01*
X0220400Y0144386D01*
X0221253Y0142328D01*
X0222828Y0140753D01*
X0224886Y0139900D01*
X0227114Y0139900D01*
X0229793Y0141373D02*
X0250300Y0141373D01*
X0250300Y0139775D02*
X0006000Y0139775D01*
X0006000Y0141373D02*
X0222207Y0141373D01*
X0220986Y0142972D02*
X0006000Y0142972D01*
X0006000Y0144570D02*
X0220400Y0144570D01*
X0220400Y0146169D02*
X0006000Y0146169D01*
X0006000Y0147768D02*
X0220878Y0147768D01*
X0221946Y0149366D02*
X0006000Y0149366D01*
X0006000Y0150965D02*
X0224559Y0150965D01*
X0224558Y0153250D02*
X0221893Y0154354D01*
X0219854Y0156393D01*
X0218750Y0159058D01*
X0218750Y0161942D01*
X0219854Y0164607D01*
X0221893Y0166646D01*
X0224558Y0167750D01*
X0227442Y0167750D01*
X0230107Y0166646D01*
X0232146Y0164607D01*
X0233250Y0161942D01*
X0233250Y0159058D01*
X0232146Y0156393D01*
X0230107Y0154354D01*
X0227442Y0153250D01*
X0224558Y0153250D01*
X0222357Y0154162D02*
X0006000Y0154162D01*
X0006000Y0155760D02*
X0022820Y0155760D01*
X0022828Y0155753D02*
X0024886Y0154900D01*
X0027114Y0154900D01*
X0029172Y0155753D01*
X0030747Y0157328D01*
X0031600Y0159386D01*
X0031600Y0161614D01*
X0030747Y0163672D01*
X0029172Y0165247D01*
X0027114Y0166100D01*
X0024886Y0166100D01*
X0022828Y0165247D01*
X0021253Y0163672D01*
X0020400Y0161614D01*
X0020400Y0159386D01*
X0021253Y0157328D01*
X0022828Y0155753D01*
X0021240Y0157359D02*
X0006000Y0157359D01*
X0006000Y0158957D02*
X0020578Y0158957D01*
X0020400Y0160556D02*
X0006000Y0160556D01*
X0006000Y0162154D02*
X0020624Y0162154D01*
X0021333Y0163753D02*
X0006000Y0163753D01*
X0006000Y0165351D02*
X0023078Y0165351D01*
X0028922Y0165351D02*
X0220598Y0165351D01*
X0219500Y0163753D02*
X0030667Y0163753D01*
X0031376Y0162154D02*
X0218838Y0162154D01*
X0218750Y0160556D02*
X0031600Y0160556D01*
X0031422Y0158957D02*
X0218792Y0158957D01*
X0219454Y0157359D02*
X0030760Y0157359D01*
X0029180Y0155760D02*
X0220487Y0155760D01*
X0227441Y0150965D02*
X0391000Y0150965D01*
X0391000Y0152563D02*
X0006000Y0152563D01*
X0006000Y0138176D02*
X0250793Y0138176D01*
X0251861Y0136578D02*
X0006000Y0136578D01*
X0006000Y0134979D02*
X0022560Y0134979D01*
X0022828Y0135247D02*
X0021253Y0133672D01*
X0020400Y0131614D01*
X0020400Y0129386D01*
X0021253Y0127328D01*
X0022828Y0125753D01*
X0024886Y0124900D01*
X0027114Y0124900D01*
X0029172Y0125753D01*
X0030747Y0127328D01*
X0031600Y0129386D01*
X0031600Y0131614D01*
X0030747Y0133672D01*
X0029172Y0135247D01*
X0027114Y0136100D01*
X0024886Y0136100D01*
X0022828Y0135247D01*
X0021132Y0133381D02*
X0006000Y0133381D01*
X0006000Y0131782D02*
X0020470Y0131782D01*
X0020400Y0130184D02*
X0006000Y0130184D01*
X0006000Y0128585D02*
X0020732Y0128585D01*
X0021594Y0126987D02*
X0006000Y0126987D01*
X0006000Y0125388D02*
X0023707Y0125388D01*
X0028293Y0125388D02*
X0223707Y0125388D01*
X0221594Y0126987D02*
X0030406Y0126987D01*
X0031268Y0128585D02*
X0220732Y0128585D01*
X0220400Y0130184D02*
X0031600Y0130184D01*
X0031530Y0131782D02*
X0220470Y0131782D01*
X0221132Y0133381D02*
X0030868Y0133381D01*
X0029440Y0134979D02*
X0222560Y0134979D01*
X0231014Y0142972D02*
X0250854Y0142972D01*
X0252009Y0144570D02*
X0231600Y0144570D01*
X0231600Y0146169D02*
X0254791Y0146169D01*
X0257209Y0146169D02*
X0264791Y0146169D01*
X0267209Y0146169D02*
X0286294Y0146169D01*
X0286247Y0145874D02*
X0286247Y0145684D01*
X0290816Y0145684D01*
X0290816Y0145316D01*
X0291184Y0145316D01*
X0291184Y0140747D01*
X0291374Y0140747D01*
X0292113Y0140864D01*
X0292824Y0141095D01*
X0293491Y0141435D01*
X0294096Y0141875D01*
X0294625Y0142404D01*
X0295065Y0143009D01*
X0295405Y0143676D01*
X0295636Y0144387D01*
X0295753Y0145126D01*
X0295753Y0145316D01*
X0291184Y0145316D01*
X0291184Y0145684D01*
X0295753Y0145684D01*
X0295753Y0145874D01*
X0295636Y0146613D01*
X0295405Y0147324D01*
X0295065Y0147991D01*
X0294625Y0148596D01*
X0294096Y0149125D01*
X0293491Y0149565D01*
X0292824Y0149905D01*
X0292113Y0150136D01*
X0291374Y0150253D01*
X0291184Y0150253D01*
X0291184Y0145684D01*
X0290816Y0145684D01*
X0290816Y0150253D01*
X0290626Y0150253D01*
X0289887Y0150136D01*
X0289176Y0149905D01*
X0288509Y0149565D01*
X0287904Y0149125D01*
X0287375Y0148596D01*
X0286935Y0147991D01*
X0286595Y0147324D01*
X0286364Y0146613D01*
X0286247Y0145874D01*
X0286247Y0145316D02*
X0286247Y0145126D01*
X0286364Y0144387D01*
X0286595Y0143676D01*
X0286935Y0143009D01*
X0287375Y0142404D01*
X0287904Y0141875D01*
X0288509Y0141435D01*
X0289176Y0141095D01*
X0289887Y0140864D01*
X0290626Y0140747D01*
X0290816Y0140747D01*
X0290816Y0145316D01*
X0286247Y0145316D01*
X0286335Y0144570D02*
X0269991Y0144570D01*
X0271146Y0142972D02*
X0286962Y0142972D01*
X0288630Y0141373D02*
X0271700Y0141373D01*
X0271700Y0139775D02*
X0327929Y0139775D01*
X0327267Y0138176D02*
X0271207Y0138176D01*
X0270139Y0136578D02*
X0327243Y0136578D01*
X0325297Y0131782D02*
X0361703Y0131782D01*
X0360658Y0130184D02*
X0326342Y0130184D01*
X0326839Y0128585D02*
X0360161Y0128585D01*
X0360161Y0126987D02*
X0326839Y0126987D01*
X0326311Y0125388D02*
X0360689Y0125388D01*
X0361776Y0123790D02*
X0325224Y0123790D01*
X0336231Y0133381D02*
X0364161Y0133381D01*
X0367839Y0133381D02*
X0373761Y0133381D01*
X0373043Y0134099D02*
X0374521Y0132622D01*
X0376451Y0131822D01*
X0378541Y0131822D01*
X0380472Y0132622D01*
X0381949Y0134099D01*
X0382749Y0136030D01*
X0382749Y0138120D01*
X0381949Y0140050D01*
X0380472Y0141528D01*
X0378541Y0142328D01*
X0376451Y0142328D01*
X0374521Y0141528D01*
X0373043Y0140050D01*
X0372243Y0138120D01*
X0372243Y0136030D01*
X0373043Y0134099D01*
X0372678Y0134979D02*
X0337314Y0134979D01*
X0337749Y0136578D02*
X0372243Y0136578D01*
X0372267Y0138176D02*
X0337725Y0138176D01*
X0337063Y0139775D02*
X0372929Y0139775D01*
X0374366Y0141373D02*
X0335626Y0141373D01*
X0329366Y0141373D02*
X0313878Y0141373D01*
X0313805Y0141301D02*
X0315199Y0142694D01*
X0315953Y0144515D01*
X0315953Y0146485D01*
X0315199Y0148305D01*
X0313805Y0149699D01*
X0311985Y0150453D01*
X0310015Y0150453D01*
X0308194Y0149699D01*
X0306801Y0148305D01*
X0306047Y0146485D01*
X0306047Y0144515D01*
X0306801Y0142694D01*
X0308194Y0141301D01*
X0310015Y0140547D01*
X0311985Y0140547D01*
X0313805Y0141301D01*
X0315314Y0142972D02*
X0391000Y0142972D01*
X0391000Y0144570D02*
X0315953Y0144570D01*
X0315953Y0146169D02*
X0391000Y0146169D01*
X0391000Y0147768D02*
X0315422Y0147768D01*
X0314138Y0149366D02*
X0391000Y0149366D01*
X0391000Y0154162D02*
X0229643Y0154162D01*
X0231513Y0155760D02*
X0391000Y0155760D01*
X0391000Y0157359D02*
X0232546Y0157359D01*
X0233208Y0158957D02*
X0391000Y0158957D01*
X0391000Y0160556D02*
X0233250Y0160556D01*
X0233162Y0162154D02*
X0391000Y0162154D01*
X0391000Y0163753D02*
X0232500Y0163753D01*
X0231402Y0165351D02*
X0391000Y0165351D01*
X0391000Y0166950D02*
X0229374Y0166950D01*
X0222626Y0166950D02*
X0006000Y0166950D01*
X0006000Y0168548D02*
X0391000Y0168548D01*
X0391000Y0170147D02*
X0006000Y0170147D01*
X0006000Y0171745D02*
X0253082Y0171745D01*
X0252904Y0171875D02*
X0253509Y0171435D01*
X0254176Y0171095D01*
X0254887Y0170864D01*
X0255626Y0170747D01*
X0255816Y0170747D01*
X0255816Y0175316D01*
X0251247Y0175316D01*
X0251247Y0175126D01*
X0251364Y0174387D01*
X0251595Y0173676D01*
X0251935Y0173009D01*
X0252375Y0172404D01*
X0252904Y0171875D01*
X0251765Y0173344D02*
X0006000Y0173344D01*
X0006000Y0174942D02*
X0251276Y0174942D01*
X0251247Y0175684D02*
X0255816Y0175684D01*
X0255816Y0175316D01*
X0256184Y0175316D01*
X0256184Y0170747D01*
X0256374Y0170747D01*
X0257113Y0170864D01*
X0257824Y0171095D01*
X0258491Y0171435D01*
X0259096Y0171875D01*
X0259625Y0172404D01*
X0260065Y0173009D01*
X0260405Y0173676D01*
X0260636Y0174387D01*
X0260753Y0175126D01*
X0260753Y0175316D01*
X0256184Y0175316D01*
X0256184Y0175684D01*
X0255816Y0175684D01*
X0255816Y0180253D01*
X0255626Y0180253D01*
X0254887Y0180136D01*
X0254176Y0179905D01*
X0253509Y0179565D01*
X0252904Y0179125D01*
X0252375Y0178596D01*
X0251935Y0177991D01*
X0251595Y0177324D01*
X0251364Y0176613D01*
X0251247Y0175874D01*
X0251247Y0175684D01*
X0251353Y0176541D02*
X0006000Y0176541D01*
X0006000Y0178139D02*
X0252043Y0178139D01*
X0253848Y0179738D02*
X0006000Y0179738D01*
X0006000Y0181336D02*
X0315433Y0181336D01*
X0315367Y0181753D02*
X0315500Y0180912D01*
X0315775Y0180068D01*
X0316177Y0179277D01*
X0316699Y0178559D01*
X0317327Y0177931D01*
X0318045Y0177410D01*
X0318836Y0177007D01*
X0319680Y0176733D01*
X0320520Y0176599D01*
X0320520Y0181753D01*
X0315367Y0181753D01*
X0315367Y0182712D02*
X0320520Y0182712D01*
X0320520Y0181753D01*
X0321480Y0181753D01*
X0321480Y0182712D01*
X0326633Y0182712D01*
X0326500Y0183553D01*
X0326225Y0184397D01*
X0325823Y0185188D01*
X0325301Y0185906D01*
X0324673Y0186533D01*
X0323955Y0187055D01*
X0323164Y0187458D01*
X0322320Y0187732D01*
X0321480Y0187865D01*
X0321480Y0182712D01*
X0320520Y0182712D01*
X0320520Y0187865D01*
X0319680Y0187732D01*
X0318836Y0187458D01*
X0318045Y0187055D01*
X0317327Y0186533D01*
X0316699Y0185906D01*
X0316177Y0185188D01*
X0315775Y0184397D01*
X0315500Y0183553D01*
X0315367Y0182712D01*
X0315402Y0182935D02*
X0006000Y0182935D01*
X0006000Y0184533D02*
X0315844Y0184533D01*
X0316925Y0186132D02*
X0189693Y0186132D01*
X0189229Y0185668D02*
X0190832Y0187271D01*
X0191700Y0189366D01*
X0191700Y0191634D01*
X0190832Y0193729D01*
X0189229Y0195332D01*
X0187134Y0196200D01*
X0184866Y0196200D01*
X0182771Y0195332D01*
X0181168Y0193729D01*
X0181000Y0193324D01*
X0180832Y0193729D01*
X0179229Y0195332D01*
X0177134Y0196200D01*
X0174866Y0196200D01*
X0172771Y0195332D01*
X0171168Y0193729D01*
X0170300Y0191634D01*
X0170300Y0189366D01*
X0171168Y0187271D01*
X0172771Y0185668D01*
X0174866Y0184800D01*
X0177134Y0184800D01*
X0179229Y0185668D01*
X0180832Y0187271D01*
X0181000Y0187676D01*
X0181168Y0187271D01*
X0182771Y0185668D01*
X0184866Y0184800D01*
X0187134Y0184800D01*
X0189229Y0185668D01*
X0191022Y0187730D02*
X0319674Y0187730D01*
X0320520Y0187730D02*
X0321480Y0187730D01*
X0322326Y0187730D02*
X0364674Y0187730D01*
X0364680Y0187732D02*
X0363836Y0187458D01*
X0363045Y0187055D01*
X0362327Y0186533D01*
X0361699Y0185906D01*
X0361177Y0185188D01*
X0360775Y0184397D01*
X0360500Y0183553D01*
X0360367Y0182712D01*
X0365520Y0182712D01*
X0365520Y0181753D01*
X0360367Y0181753D01*
X0360500Y0180912D01*
X0360775Y0180068D01*
X0361177Y0179277D01*
X0361699Y0178559D01*
X0362327Y0177931D01*
X0363045Y0177410D01*
X0363836Y0177007D01*
X0364680Y0176733D01*
X0365520Y0176599D01*
X0365520Y0181753D01*
X0366480Y0181753D01*
X0366480Y0182712D01*
X0371633Y0182712D01*
X0371500Y0183553D01*
X0371225Y0184397D01*
X0370823Y0185188D01*
X0370301Y0185906D01*
X0369673Y0186533D01*
X0368955Y0187055D01*
X0368164Y0187458D01*
X0367320Y0187732D01*
X0366480Y0187865D01*
X0366480Y0182712D01*
X0365520Y0182712D01*
X0365520Y0187865D01*
X0364680Y0187732D01*
X0365520Y0187730D02*
X0366480Y0187730D01*
X0367326Y0187730D02*
X0391000Y0187730D01*
X0391000Y0186132D02*
X0370075Y0186132D01*
X0371156Y0184533D02*
X0391000Y0184533D01*
X0391000Y0182935D02*
X0371598Y0182935D01*
X0371633Y0181753D02*
X0366480Y0181753D01*
X0366480Y0176599D01*
X0367320Y0176733D01*
X0368164Y0177007D01*
X0368955Y0177410D01*
X0369673Y0177931D01*
X0370301Y0178559D01*
X0370823Y0179277D01*
X0371225Y0180068D01*
X0371500Y0180912D01*
X0371633Y0181753D01*
X0371567Y0181336D02*
X0391000Y0181336D01*
X0391000Y0179738D02*
X0371057Y0179738D01*
X0369881Y0178139D02*
X0391000Y0178139D01*
X0391000Y0176541D02*
X0260647Y0176541D01*
X0260636Y0176613D02*
X0260405Y0177324D01*
X0260065Y0177991D01*
X0259625Y0178596D01*
X0259096Y0179125D01*
X0258491Y0179565D01*
X0257824Y0179905D01*
X0257113Y0180136D01*
X0256374Y0180253D01*
X0256184Y0180253D01*
X0256184Y0175684D01*
X0260753Y0175684D01*
X0260753Y0175874D01*
X0260636Y0176613D01*
X0259957Y0178139D02*
X0317119Y0178139D01*
X0315943Y0179738D02*
X0258152Y0179738D01*
X0256184Y0179738D02*
X0255816Y0179738D01*
X0255816Y0178139D02*
X0256184Y0178139D01*
X0256184Y0176541D02*
X0255816Y0176541D01*
X0255816Y0174942D02*
X0256184Y0174942D01*
X0256184Y0173344D02*
X0255816Y0173344D01*
X0255816Y0171745D02*
X0256184Y0171745D01*
X0258918Y0171745D02*
X0391000Y0171745D01*
X0391000Y0173344D02*
X0260235Y0173344D01*
X0260724Y0174942D02*
X0391000Y0174942D01*
X0391000Y0189329D02*
X0191684Y0189329D01*
X0191700Y0190927D02*
X0254097Y0190927D01*
X0253194Y0191301D02*
X0255015Y0190547D01*
X0256985Y0190547D01*
X0258805Y0191301D01*
X0260199Y0192694D01*
X0260953Y0194515D01*
X0260953Y0196485D01*
X0260199Y0198305D01*
X0258805Y0199699D01*
X0256985Y0200453D01*
X0255015Y0200453D01*
X0253194Y0199699D01*
X0251801Y0198305D01*
X0251047Y0196485D01*
X0251047Y0194515D01*
X0251801Y0192694D01*
X0253194Y0191301D01*
X0251970Y0192526D02*
X0191331Y0192526D01*
X0190437Y0194124D02*
X0251209Y0194124D01*
X0251047Y0195723D02*
X0188286Y0195723D01*
X0183714Y0195723D02*
X0178286Y0195723D01*
X0180437Y0194124D02*
X0181563Y0194124D01*
X0173714Y0195723D02*
X0126474Y0195723D01*
X0126494Y0195770D02*
X0126494Y0202867D01*
X0125790Y0204568D01*
X0124488Y0205870D01*
X0122787Y0206575D01*
X0120946Y0206575D01*
X0119245Y0205870D01*
X0118520Y0205145D01*
X0117795Y0205870D01*
X0116094Y0206575D01*
X0114253Y0206575D01*
X0112552Y0205870D01*
X0111685Y0205004D01*
X0111365Y0205324D01*
X0110801Y0205734D01*
X0110180Y0206050D01*
X0109517Y0206266D01*
X0108829Y0206375D01*
X0108556Y0206375D01*
X0108556Y0199395D01*
X0108404Y0199395D01*
X0108404Y0206375D01*
X0108132Y0206375D01*
X0107443Y0206266D01*
X0106781Y0206050D01*
X0106160Y0205734D01*
X0105596Y0205324D01*
X0105275Y0205004D01*
X0104409Y0205870D01*
X0102708Y0206575D01*
X0100867Y0206575D01*
X0099166Y0205870D01*
X0098649Y0205353D01*
X0097813Y0206188D01*
X0096049Y0206919D01*
X0094140Y0206919D01*
X0092376Y0206188D01*
X0091025Y0204838D01*
X0090294Y0203074D01*
X0090294Y0195564D01*
X0091025Y0193800D01*
X0092376Y0192450D01*
X0094140Y0191719D01*
X0096049Y0191719D01*
X0097813Y0192450D01*
X0098649Y0193285D01*
X0099166Y0192768D01*
X0100867Y0192063D01*
X0102708Y0192063D01*
X0104409Y0192768D01*
X0105275Y0193634D01*
X0105596Y0193313D01*
X0106160Y0192904D01*
X0106781Y0192587D01*
X0107443Y0192372D01*
X0108132Y0192263D01*
X0108404Y0192263D01*
X0108404Y0199243D01*
X0108556Y0199243D01*
X0108556Y0192263D01*
X0108829Y0192263D01*
X0109517Y0192372D01*
X0110180Y0192587D01*
X0110801Y0192904D01*
X0111365Y0193313D01*
X0111685Y0193634D01*
X0112552Y0192768D01*
X0114253Y0192063D01*
X0116094Y0192063D01*
X0117795Y0192768D01*
X0118520Y0193492D01*
X0119245Y0192768D01*
X0120946Y0192063D01*
X0122787Y0192063D01*
X0124488Y0192768D01*
X0125790Y0194069D01*
X0126494Y0195770D01*
X0126494Y0197321D02*
X0228218Y0197321D01*
X0228045Y0197410D02*
X0228836Y0197007D01*
X0229680Y0196733D01*
X0230520Y0196599D01*
X0230520Y0201753D01*
X0225367Y0201753D01*
X0225500Y0200912D01*
X0225775Y0200068D01*
X0226177Y0199277D01*
X0226699Y0198559D01*
X0227327Y0197931D01*
X0228045Y0197410D01*
X0226437Y0198920D02*
X0126494Y0198920D01*
X0126494Y0200518D02*
X0225628Y0200518D01*
X0225367Y0202712D02*
X0230520Y0202712D01*
X0230520Y0201753D01*
X0231480Y0201753D01*
X0231480Y0202712D01*
X0236633Y0202712D01*
X0236500Y0203553D01*
X0236225Y0204397D01*
X0235823Y0205188D01*
X0235301Y0205906D01*
X0234673Y0206533D01*
X0233955Y0207055D01*
X0233164Y0207458D01*
X0232320Y0207732D01*
X0231480Y0207865D01*
X0231480Y0202712D01*
X0230520Y0202712D01*
X0230520Y0207865D01*
X0229680Y0207732D01*
X0228836Y0207458D01*
X0228045Y0207055D01*
X0227327Y0206533D01*
X0226699Y0205906D01*
X0226177Y0205188D01*
X0225775Y0204397D01*
X0225500Y0203553D01*
X0225367Y0202712D01*
X0225553Y0203715D02*
X0126143Y0203715D01*
X0126494Y0202117D02*
X0230520Y0202117D01*
X0231480Y0202117D02*
X0280520Y0202117D01*
X0280520Y0201753D02*
X0280520Y0202712D01*
X0275367Y0202712D01*
X0275500Y0203553D01*
X0275775Y0204397D01*
X0276177Y0205188D01*
X0276699Y0205906D01*
X0277327Y0206533D01*
X0278045Y0207055D01*
X0278836Y0207458D01*
X0279680Y0207732D01*
X0280520Y0207865D01*
X0280520Y0202712D01*
X0281480Y0202712D01*
X0286633Y0202712D01*
X0286500Y0203553D01*
X0286225Y0204397D01*
X0285823Y0205188D01*
X0285301Y0205906D01*
X0284673Y0206533D01*
X0283955Y0207055D01*
X0283164Y0207458D01*
X0282320Y0207732D01*
X0281480Y0207865D01*
X0281480Y0202712D01*
X0281480Y0201753D01*
X0286633Y0201753D01*
X0286500Y0200912D01*
X0286225Y0200068D01*
X0285823Y0199277D01*
X0285301Y0198559D01*
X0284673Y0197931D01*
X0283955Y0197410D01*
X0283164Y0197007D01*
X0282320Y0196733D01*
X0281480Y0196599D01*
X0281480Y0201753D01*
X0280520Y0201753D01*
X0275367Y0201753D01*
X0275500Y0200912D01*
X0275775Y0200068D01*
X0276177Y0199277D01*
X0276699Y0198559D01*
X0277327Y0197931D01*
X0278045Y0197410D01*
X0278836Y0197007D01*
X0279680Y0196733D01*
X0280520Y0196599D01*
X0280520Y0201753D01*
X0281480Y0202117D02*
X0319518Y0202117D01*
X0319839Y0201984D02*
X0322161Y0201984D01*
X0324307Y0202873D01*
X0325950Y0204516D01*
X0326839Y0206661D01*
X0326839Y0208984D01*
X0325950Y0211130D01*
X0324307Y0212773D01*
X0322161Y0213661D01*
X0319839Y0213661D01*
X0317693Y0212773D01*
X0316050Y0211130D01*
X0315161Y0208984D01*
X0315161Y0206661D01*
X0316050Y0204516D01*
X0317693Y0202873D01*
X0319839Y0201984D01*
X0322482Y0202117D02*
X0364518Y0202117D01*
X0364839Y0201984D02*
X0362693Y0202873D01*
X0361050Y0204516D01*
X0360161Y0206661D01*
X0360161Y0208984D01*
X0361050Y0211130D01*
X0362693Y0212773D01*
X0364839Y0213661D01*
X0367161Y0213661D01*
X0369307Y0212773D01*
X0370950Y0211130D01*
X0371839Y0208984D01*
X0371839Y0206661D01*
X0370950Y0204516D01*
X0369307Y0202873D01*
X0367161Y0201984D01*
X0364839Y0201984D01*
X0367482Y0202117D02*
X0391000Y0202117D01*
X0391000Y0203715D02*
X0370150Y0203715D01*
X0371280Y0205314D02*
X0391000Y0205314D01*
X0391000Y0206912D02*
X0371839Y0206912D01*
X0371839Y0208511D02*
X0391000Y0208511D01*
X0391000Y0210109D02*
X0371372Y0210109D01*
X0370372Y0211708D02*
X0391000Y0211708D01*
X0391000Y0213306D02*
X0381156Y0213306D01*
X0380472Y0212622D02*
X0381949Y0214099D01*
X0382749Y0216030D01*
X0382749Y0218120D01*
X0381949Y0220050D01*
X0380472Y0221528D01*
X0378541Y0222328D01*
X0376451Y0222328D01*
X0374521Y0221528D01*
X0373043Y0220050D01*
X0372243Y0218120D01*
X0372243Y0216030D01*
X0373043Y0214099D01*
X0374521Y0212622D01*
X0376451Y0211822D01*
X0378541Y0211822D01*
X0380472Y0212622D01*
X0382283Y0214905D02*
X0391000Y0214905D01*
X0391000Y0216503D02*
X0382749Y0216503D01*
X0382749Y0218102D02*
X0391000Y0218102D01*
X0391000Y0219701D02*
X0382094Y0219701D01*
X0380700Y0221299D02*
X0391000Y0221299D01*
X0391000Y0222898D02*
X0284332Y0222898D01*
X0284307Y0222873D02*
X0285950Y0224516D01*
X0286839Y0226661D01*
X0286839Y0228984D01*
X0285950Y0231130D01*
X0284307Y0232773D01*
X0282161Y0233661D01*
X0279839Y0233661D01*
X0277693Y0232773D01*
X0276050Y0231130D01*
X0275161Y0228984D01*
X0275161Y0226661D01*
X0276050Y0224516D01*
X0277693Y0222873D01*
X0279839Y0221984D01*
X0282161Y0221984D01*
X0284307Y0222873D01*
X0285930Y0224496D02*
X0391000Y0224496D01*
X0391000Y0226095D02*
X0286604Y0226095D01*
X0286839Y0227693D02*
X0340586Y0227693D01*
X0340375Y0227904D02*
X0340904Y0227375D01*
X0341509Y0226935D01*
X0342176Y0226595D01*
X0342887Y0226364D01*
X0343626Y0226247D01*
X0343816Y0226247D01*
X0343816Y0230816D01*
X0339247Y0230816D01*
X0339247Y0230626D01*
X0339364Y0229887D01*
X0339595Y0229176D01*
X0339935Y0228509D01*
X0340375Y0227904D01*
X0339558Y0229292D02*
X0286711Y0229292D01*
X0286049Y0230890D02*
X0343816Y0230890D01*
X0343816Y0230816D02*
X0343816Y0231184D01*
X0339247Y0231184D01*
X0339247Y0231374D01*
X0339364Y0232113D01*
X0339595Y0232824D01*
X0339935Y0233491D01*
X0340375Y0234096D01*
X0340904Y0234625D01*
X0341509Y0235065D01*
X0342176Y0235405D01*
X0342887Y0235636D01*
X0343626Y0235753D01*
X0343816Y0235753D01*
X0343816Y0231184D01*
X0344184Y0231184D01*
X0344184Y0235753D01*
X0344374Y0235753D01*
X0345113Y0235636D01*
X0345824Y0235405D01*
X0346491Y0235065D01*
X0347096Y0234625D01*
X0347625Y0234096D01*
X0348065Y0233491D01*
X0348405Y0232824D01*
X0348636Y0232113D01*
X0348753Y0231374D01*
X0348753Y0231184D01*
X0344184Y0231184D01*
X0344184Y0230816D01*
X0344184Y0226247D01*
X0344374Y0226247D01*
X0345113Y0226364D01*
X0345824Y0226595D01*
X0346491Y0226935D01*
X0347096Y0227375D01*
X0347625Y0227904D01*
X0348065Y0228509D01*
X0348405Y0229176D01*
X0348636Y0229887D01*
X0348753Y0230626D01*
X0348753Y0230816D01*
X0344184Y0230816D01*
X0343816Y0230816D01*
X0344184Y0230890D02*
X0391000Y0230890D01*
X0391000Y0229292D02*
X0348442Y0229292D01*
X0347414Y0227693D02*
X0391000Y0227693D01*
X0391000Y0232489D02*
X0348514Y0232489D01*
X0347632Y0234087D02*
X0391000Y0234087D01*
X0391000Y0235686D02*
X0344798Y0235686D01*
X0344184Y0235686D02*
X0343816Y0235686D01*
X0343202Y0235686D02*
X0297606Y0235686D01*
X0297749Y0236030D02*
X0296949Y0234099D01*
X0295472Y0232622D01*
X0293541Y0231822D01*
X0291451Y0231822D01*
X0289521Y0232622D01*
X0288043Y0234099D01*
X0287243Y0236030D01*
X0287243Y0238120D01*
X0288043Y0240050D01*
X0289521Y0241528D01*
X0291451Y0242328D01*
X0293541Y0242328D01*
X0295472Y0241528D01*
X0296949Y0240050D01*
X0297749Y0238120D01*
X0297749Y0236030D01*
X0297749Y0237284D02*
X0391000Y0237284D01*
X0391000Y0238883D02*
X0297433Y0238883D01*
X0296518Y0240481D02*
X0391000Y0240481D01*
X0391000Y0242080D02*
X0294139Y0242080D01*
X0290853Y0242080D02*
X0259301Y0242080D01*
X0259096Y0241875D02*
X0259625Y0242404D01*
X0260065Y0243009D01*
X0260405Y0243676D01*
X0260636Y0244387D01*
X0260753Y0245126D01*
X0260753Y0245316D01*
X0256184Y0245316D01*
X0256184Y0240747D01*
X0256374Y0240747D01*
X0257113Y0240864D01*
X0257824Y0241095D01*
X0258491Y0241435D01*
X0259096Y0241875D01*
X0260405Y0243678D02*
X0391000Y0243678D01*
X0391000Y0245277D02*
X0271180Y0245277D01*
X0271491Y0245435D02*
X0272096Y0245875D01*
X0272625Y0246404D01*
X0273065Y0247009D01*
X0273405Y0247676D01*
X0273636Y0248387D01*
X0273753Y0249126D01*
X0273753Y0249316D01*
X0269184Y0249316D01*
X0269184Y0244747D01*
X0269374Y0244747D01*
X0270113Y0244864D01*
X0270824Y0245095D01*
X0271491Y0245435D01*
X0272968Y0246875D02*
X0391000Y0246875D01*
X0391000Y0248474D02*
X0273649Y0248474D01*
X0273753Y0249684D02*
X0273753Y0249874D01*
X0273636Y0250613D01*
X0273405Y0251324D01*
X0273065Y0251991D01*
X0272625Y0252596D01*
X0272096Y0253125D01*
X0271491Y0253565D01*
X0270824Y0253905D01*
X0270113Y0254136D01*
X0269374Y0254253D01*
X0269184Y0254253D01*
X0269184Y0249684D01*
X0268816Y0249684D01*
X0268816Y0249316D01*
X0264247Y0249316D01*
X0264247Y0249126D01*
X0264364Y0248387D01*
X0264595Y0247676D01*
X0264935Y0247009D01*
X0265375Y0246404D01*
X0265904Y0245875D01*
X0266509Y0245435D01*
X0267176Y0245095D01*
X0267887Y0244864D01*
X0268626Y0244747D01*
X0268816Y0244747D01*
X0268816Y0249316D01*
X0269184Y0249316D01*
X0269184Y0249684D01*
X0273753Y0249684D01*
X0273721Y0250072D02*
X0391000Y0250072D01*
X0391000Y0251671D02*
X0273228Y0251671D01*
X0271898Y0253269D02*
X0391000Y0253269D01*
X0391000Y0254868D02*
X0045933Y0254868D01*
X0046576Y0254225D02*
X0044725Y0256076D01*
X0042308Y0257077D01*
X0039692Y0257077D01*
X0037275Y0256076D01*
X0035424Y0254225D01*
X0034423Y0251808D01*
X0034423Y0249192D01*
X0035424Y0246775D01*
X0037275Y0244924D01*
X0039692Y0243923D01*
X0042308Y0243923D01*
X0044725Y0244924D01*
X0046576Y0246775D01*
X0047577Y0249192D01*
X0047577Y0251808D01*
X0046576Y0254225D01*
X0046972Y0253269D02*
X0221102Y0253269D01*
X0220904Y0253125D02*
X0220375Y0252596D01*
X0219935Y0251991D01*
X0219595Y0251324D01*
X0219364Y0250613D01*
X0219247Y0249874D01*
X0219247Y0249684D01*
X0223816Y0249684D01*
X0223816Y0249316D01*
X0219247Y0249316D01*
X0219247Y0249126D01*
X0219364Y0248387D01*
X0219595Y0247676D01*
X0219935Y0247009D01*
X0220375Y0246404D01*
X0220904Y0245875D01*
X0221509Y0245435D01*
X0222176Y0245095D01*
X0222887Y0244864D01*
X0223626Y0244747D01*
X0223816Y0244747D01*
X0223816Y0249316D01*
X0224184Y0249316D01*
X0224184Y0244747D01*
X0224374Y0244747D01*
X0225113Y0244864D01*
X0225824Y0245095D01*
X0226491Y0245435D01*
X0227096Y0245875D01*
X0227625Y0246404D01*
X0228065Y0247009D01*
X0228405Y0247676D01*
X0228636Y0248387D01*
X0228753Y0249126D01*
X0228753Y0249316D01*
X0224184Y0249316D01*
X0224184Y0249684D01*
X0223816Y0249684D01*
X0223816Y0254253D01*
X0223626Y0254253D01*
X0222887Y0254136D01*
X0222176Y0253905D01*
X0221509Y0253565D01*
X0220904Y0253125D01*
X0219772Y0251671D02*
X0047577Y0251671D01*
X0047577Y0250072D02*
X0219279Y0250072D01*
X0219351Y0248474D02*
X0047279Y0248474D01*
X0046617Y0246875D02*
X0220032Y0246875D01*
X0221820Y0245277D02*
X0099284Y0245277D01*
X0099229Y0245332D02*
X0097134Y0246200D01*
X0094866Y0246200D01*
X0092771Y0245332D01*
X0091168Y0243729D01*
X0091000Y0243324D01*
X0090832Y0243729D01*
X0089229Y0245332D01*
X0087134Y0246200D01*
X0084866Y0246200D01*
X0082771Y0245332D01*
X0081168Y0243729D01*
X0080300Y0241634D01*
X0080300Y0239366D01*
X0081168Y0237271D01*
X0082771Y0235668D01*
X0084866Y0234800D01*
X0087134Y0234800D01*
X0089229Y0235668D01*
X0090832Y0237271D01*
X0091000Y0237676D01*
X0091168Y0237271D01*
X0092771Y0235668D01*
X0094866Y0234800D01*
X0097134Y0234800D01*
X0099229Y0235668D01*
X0100832Y0237271D01*
X0101700Y0239366D01*
X0101700Y0241634D01*
X0100832Y0243729D01*
X0099229Y0245332D01*
X0100853Y0243678D02*
X0251595Y0243678D01*
X0251595Y0243676D02*
X0251935Y0243009D01*
X0252375Y0242404D01*
X0252904Y0241875D01*
X0253509Y0241435D01*
X0254176Y0241095D01*
X0254887Y0240864D01*
X0255626Y0240747D01*
X0255816Y0240747D01*
X0255816Y0245316D01*
X0251247Y0245316D01*
X0251247Y0245126D01*
X0251364Y0244387D01*
X0251595Y0243676D01*
X0251247Y0245277D02*
X0226180Y0245277D01*
X0224184Y0245277D02*
X0223816Y0245277D01*
X0223816Y0246875D02*
X0224184Y0246875D01*
X0224184Y0248474D02*
X0223816Y0248474D01*
X0224184Y0249684D02*
X0228753Y0249684D01*
X0228753Y0249874D01*
X0228636Y0250613D01*
X0228405Y0251324D01*
X0228065Y0251991D01*
X0227625Y0252596D01*
X0227096Y0253125D01*
X0226491Y0253565D01*
X0225824Y0253905D01*
X0225113Y0254136D01*
X0224374Y0254253D01*
X0224184Y0254253D01*
X0224184Y0249684D01*
X0224184Y0250072D02*
X0223816Y0250072D01*
X0223816Y0251671D02*
X0224184Y0251671D01*
X0224184Y0253269D02*
X0223816Y0253269D01*
X0226898Y0253269D02*
X0266102Y0253269D01*
X0265904Y0253125D02*
X0265375Y0252596D01*
X0264935Y0251991D01*
X0264595Y0251324D01*
X0264364Y0250613D01*
X0264247Y0249874D01*
X0264247Y0249684D01*
X0268816Y0249684D01*
X0268816Y0254253D01*
X0268626Y0254253D01*
X0267887Y0254136D01*
X0267176Y0253905D01*
X0266509Y0253565D01*
X0265904Y0253125D01*
X0264772Y0251671D02*
X0228228Y0251671D01*
X0228721Y0250072D02*
X0254692Y0250072D01*
X0254887Y0250136D02*
X0254176Y0249905D01*
X0253509Y0249565D01*
X0252904Y0249125D01*
X0252375Y0248596D01*
X0251935Y0247991D01*
X0251595Y0247324D01*
X0251364Y0246613D01*
X0251247Y0245874D01*
X0251247Y0245684D01*
X0255816Y0245684D01*
X0255816Y0245316D01*
X0256184Y0245316D01*
X0256184Y0245684D01*
X0255816Y0245684D01*
X0255816Y0250253D01*
X0255626Y0250253D01*
X0254887Y0250136D01*
X0255816Y0250072D02*
X0256184Y0250072D01*
X0256184Y0250253D02*
X0256184Y0245684D01*
X0260753Y0245684D01*
X0260753Y0245874D01*
X0260636Y0246613D01*
X0260405Y0247324D01*
X0260065Y0247991D01*
X0259625Y0248596D01*
X0259096Y0249125D01*
X0258491Y0249565D01*
X0257824Y0249905D01*
X0257113Y0250136D01*
X0256374Y0250253D01*
X0256184Y0250253D01*
X0257308Y0250072D02*
X0264279Y0250072D01*
X0264351Y0248474D02*
X0259714Y0248474D01*
X0260551Y0246875D02*
X0265032Y0246875D01*
X0266820Y0245277D02*
X0260753Y0245277D01*
X0256184Y0245277D02*
X0255816Y0245277D01*
X0255816Y0246875D02*
X0256184Y0246875D01*
X0256184Y0248474D02*
X0255816Y0248474D01*
X0252286Y0248474D02*
X0228649Y0248474D01*
X0227968Y0246875D02*
X0251449Y0246875D01*
X0252699Y0242080D02*
X0244139Y0242080D01*
X0243541Y0242328D02*
X0241451Y0242328D01*
X0239521Y0241528D01*
X0238043Y0240050D01*
X0237243Y0238120D01*
X0237243Y0236030D01*
X0238043Y0234099D01*
X0239521Y0232622D01*
X0241451Y0231822D01*
X0243541Y0231822D01*
X0245472Y0232622D01*
X0246949Y0234099D01*
X0247749Y0236030D01*
X0247749Y0238120D01*
X0246949Y0240050D01*
X0245472Y0241528D01*
X0243541Y0242328D01*
X0240853Y0242080D02*
X0101515Y0242080D01*
X0101700Y0240481D02*
X0168131Y0240481D01*
X0167771Y0240332D02*
X0166168Y0238729D01*
X0165300Y0236634D01*
X0165300Y0234366D01*
X0166168Y0232271D01*
X0167771Y0230668D01*
X0169866Y0229800D01*
X0172134Y0229800D01*
X0174229Y0230668D01*
X0175832Y0232271D01*
X0176000Y0232676D01*
X0176168Y0232271D01*
X0177771Y0230668D01*
X0179866Y0229800D01*
X0182134Y0229800D01*
X0184229Y0230668D01*
X0185832Y0232271D01*
X0186700Y0234366D01*
X0186700Y0236634D01*
X0185832Y0238729D01*
X0184229Y0240332D01*
X0182134Y0241200D01*
X0179866Y0241200D01*
X0177771Y0240332D01*
X0176168Y0238729D01*
X0176000Y0238324D01*
X0175832Y0238729D01*
X0174229Y0240332D01*
X0172134Y0241200D01*
X0169866Y0241200D01*
X0167771Y0240332D01*
X0166322Y0238883D02*
X0101500Y0238883D01*
X0100838Y0237284D02*
X0165569Y0237284D01*
X0165300Y0235686D02*
X0099247Y0235686D01*
X0092753Y0235686D02*
X0089247Y0235686D01*
X0090838Y0237284D02*
X0091162Y0237284D01*
X0091147Y0243678D02*
X0090853Y0243678D01*
X0089284Y0245277D02*
X0092716Y0245277D01*
X0082716Y0245277D02*
X0045078Y0245277D01*
X0036922Y0245277D02*
X0006000Y0245277D01*
X0006000Y0246875D02*
X0035383Y0246875D01*
X0034721Y0248474D02*
X0006000Y0248474D01*
X0006000Y0250072D02*
X0034423Y0250072D01*
X0034423Y0251671D02*
X0006000Y0251671D01*
X0006000Y0253269D02*
X0035028Y0253269D01*
X0036067Y0254868D02*
X0006000Y0254868D01*
X0006000Y0256466D02*
X0038218Y0256466D01*
X0043782Y0256466D02*
X0391000Y0256466D01*
X0391000Y0258065D02*
X0374807Y0258065D01*
X0374673Y0257931D02*
X0375301Y0258559D01*
X0375823Y0259277D01*
X0376225Y0260068D01*
X0376500Y0260912D01*
X0376633Y0261753D01*
X0371480Y0261753D01*
X0371480Y0262712D01*
X0376633Y0262712D01*
X0376500Y0263553D01*
X0376225Y0264397D01*
X0375823Y0265188D01*
X0375301Y0265906D01*
X0374673Y0266533D01*
X0373955Y0267055D01*
X0373164Y0267458D01*
X0372320Y0267732D01*
X0371480Y0267865D01*
X0371480Y0262712D01*
X0370520Y0262712D01*
X0370520Y0261753D01*
X0365367Y0261753D01*
X0365500Y0260912D01*
X0365775Y0260068D01*
X0366177Y0259277D01*
X0366699Y0258559D01*
X0367327Y0257931D01*
X0368045Y0257410D01*
X0368836Y0257007D01*
X0369680Y0256733D01*
X0370520Y0256599D01*
X0370520Y0261753D01*
X0371480Y0261753D01*
X0371480Y0256599D01*
X0372320Y0256733D01*
X0373164Y0257007D01*
X0373955Y0257410D01*
X0374673Y0257931D01*
X0376019Y0259663D02*
X0391000Y0259663D01*
X0391000Y0261262D02*
X0376555Y0261262D01*
X0376609Y0262860D02*
X0391000Y0262860D01*
X0391000Y0264459D02*
X0376194Y0264459D01*
X0375149Y0266057D02*
X0391000Y0266057D01*
X0391000Y0267656D02*
X0372555Y0267656D01*
X0371480Y0267656D02*
X0370520Y0267656D01*
X0370520Y0267865D02*
X0369680Y0267732D01*
X0368836Y0267458D01*
X0368045Y0267055D01*
X0367327Y0266533D01*
X0366699Y0265906D01*
X0366177Y0265188D01*
X0365775Y0264397D01*
X0365500Y0263553D01*
X0365367Y0262712D01*
X0370520Y0262712D01*
X0370520Y0267865D01*
X0369445Y0267656D02*
X0273597Y0267656D01*
X0273953Y0268515D02*
X0273199Y0266694D01*
X0271805Y0265301D01*
X0269985Y0264547D01*
X0268015Y0264547D01*
X0266194Y0265301D01*
X0264801Y0266694D01*
X0264047Y0268515D01*
X0264047Y0270485D01*
X0264801Y0272305D01*
X0266194Y0273699D01*
X0268015Y0274453D01*
X0269985Y0274453D01*
X0271805Y0273699D01*
X0273199Y0272305D01*
X0273953Y0270485D01*
X0273953Y0268515D01*
X0273953Y0269254D02*
X0391000Y0269254D01*
X0391000Y0270853D02*
X0273800Y0270853D01*
X0273053Y0272451D02*
X0287987Y0272451D01*
X0288045Y0272410D02*
X0288836Y0272007D01*
X0289680Y0271733D01*
X0290520Y0271599D01*
X0290520Y0276753D01*
X0285367Y0276753D01*
X0285500Y0275912D01*
X0285775Y0275068D01*
X0286177Y0274277D01*
X0286699Y0273559D01*
X0287327Y0272931D01*
X0288045Y0272410D01*
X0286342Y0274050D02*
X0270958Y0274050D01*
X0267042Y0274050D02*
X0250658Y0274050D01*
X0250823Y0274277D02*
X0251225Y0275068D01*
X0251500Y0275912D01*
X0251633Y0276753D01*
X0246480Y0276753D01*
X0246480Y0277712D01*
X0251633Y0277712D01*
X0251500Y0278553D01*
X0251225Y0279397D01*
X0250823Y0280188D01*
X0250301Y0280906D01*
X0249673Y0281533D01*
X0248955Y0282055D01*
X0248164Y0282458D01*
X0247320Y0282732D01*
X0246480Y0282865D01*
X0246480Y0277712D01*
X0245520Y0277712D01*
X0245520Y0276753D01*
X0240367Y0276753D01*
X0240500Y0275912D01*
X0240775Y0275068D01*
X0241177Y0274277D01*
X0241699Y0273559D01*
X0242327Y0272931D01*
X0243045Y0272410D01*
X0243836Y0272007D01*
X0244680Y0271733D01*
X0245520Y0271599D01*
X0245520Y0276753D01*
X0246480Y0276753D01*
X0246480Y0271599D01*
X0247320Y0271733D01*
X0248164Y0272007D01*
X0248955Y0272410D01*
X0249673Y0272931D01*
X0250301Y0273559D01*
X0250823Y0274277D01*
X0251414Y0275648D02*
X0285586Y0275648D01*
X0285367Y0277712D02*
X0290520Y0277712D01*
X0290520Y0276753D01*
X0291480Y0276753D01*
X0291480Y0277712D01*
X0296633Y0277712D01*
X0296500Y0278553D01*
X0296225Y0279397D01*
X0295823Y0280188D01*
X0295301Y0280906D01*
X0294673Y0281533D01*
X0293955Y0282055D01*
X0293164Y0282458D01*
X0292320Y0282732D01*
X0291480Y0282865D01*
X0291480Y0277712D01*
X0290520Y0277712D01*
X0290520Y0282865D01*
X0289680Y0282732D01*
X0288836Y0282458D01*
X0288045Y0282055D01*
X0287327Y0281533D01*
X0286699Y0280906D01*
X0286177Y0280188D01*
X0285775Y0279397D01*
X0285500Y0278553D01*
X0285367Y0277712D01*
X0285595Y0278845D02*
X0251405Y0278845D01*
X0250636Y0280444D02*
X0286364Y0280444D01*
X0288028Y0282042D02*
X0248972Y0282042D01*
X0246480Y0282042D02*
X0245520Y0282042D01*
X0245520Y0282865D02*
X0244680Y0282732D01*
X0243836Y0282458D01*
X0243045Y0282055D01*
X0242327Y0281533D01*
X0241699Y0280906D01*
X0241177Y0280188D01*
X0240775Y0279397D01*
X0240500Y0278553D01*
X0240367Y0277712D01*
X0245520Y0277712D01*
X0245520Y0282865D01*
X0245520Y0280444D02*
X0246480Y0280444D01*
X0246480Y0278845D02*
X0245520Y0278845D01*
X0245520Y0277247D02*
X0201480Y0277247D01*
X0201480Y0277712D02*
X0206633Y0277712D01*
X0206500Y0278553D01*
X0206225Y0279397D01*
X0205823Y0280188D01*
X0205301Y0280906D01*
X0204673Y0281533D01*
X0203955Y0282055D01*
X0203164Y0282458D01*
X0202320Y0282732D01*
X0201480Y0282865D01*
X0201480Y0277712D01*
X0201480Y0276753D01*
X0206633Y0276753D01*
X0206500Y0275912D01*
X0206225Y0275068D01*
X0205823Y0274277D01*
X0205301Y0273559D01*
X0204673Y0272931D01*
X0203955Y0272410D01*
X0203164Y0272007D01*
X0202320Y0271733D01*
X0201480Y0271599D01*
X0201480Y0276753D01*
X0200520Y0276753D01*
X0195367Y0276753D01*
X0195500Y0275912D01*
X0195775Y0275068D01*
X0196177Y0274277D01*
X0196699Y0273559D01*
X0197327Y0272931D01*
X0198045Y0272410D01*
X0198836Y0272007D01*
X0199680Y0271733D01*
X0200520Y0271599D01*
X0200520Y0276753D01*
X0200520Y0277712D01*
X0195367Y0277712D01*
X0195500Y0278553D01*
X0195775Y0279397D01*
X0196177Y0280188D01*
X0196699Y0280906D01*
X0197327Y0281533D01*
X0198045Y0282055D01*
X0198836Y0282458D01*
X0199680Y0282732D01*
X0200520Y0282865D01*
X0200520Y0277712D01*
X0201480Y0277712D01*
X0200520Y0277247D02*
X0156480Y0277247D01*
X0156480Y0277712D02*
X0161633Y0277712D01*
X0161500Y0278553D01*
X0161225Y0279397D01*
X0160823Y0280188D01*
X0160301Y0280906D01*
X0159673Y0281533D01*
X0158955Y0282055D01*
X0158164Y0282458D01*
X0157320Y0282732D01*
X0156480Y0282865D01*
X0156480Y0277712D01*
X0156480Y0276753D01*
X0161633Y0276753D01*
X0161500Y0275912D01*
X0161225Y0275068D01*
X0160823Y0274277D01*
X0160301Y0273559D01*
X0159673Y0272931D01*
X0158955Y0272410D01*
X0158164Y0272007D01*
X0157320Y0271733D01*
X0156480Y0271599D01*
X0156480Y0276753D01*
X0155520Y0276753D01*
X0150367Y0276753D01*
X0150500Y0275912D01*
X0150775Y0275068D01*
X0151177Y0274277D01*
X0151699Y0273559D01*
X0152327Y0272931D01*
X0153045Y0272410D01*
X0153836Y0272007D01*
X0154680Y0271733D01*
X0155520Y0271599D01*
X0155520Y0276753D01*
X0155520Y0277712D01*
X0150367Y0277712D01*
X0150500Y0278553D01*
X0150775Y0279397D01*
X0151177Y0280188D01*
X0151699Y0280906D01*
X0152327Y0281533D01*
X0153045Y0282055D01*
X0153836Y0282458D01*
X0154680Y0282732D01*
X0155520Y0282865D01*
X0155520Y0277712D01*
X0156480Y0277712D01*
X0155520Y0277247D02*
X0126494Y0277247D01*
X0126494Y0277867D02*
X0125790Y0279568D01*
X0124488Y0280870D01*
X0122787Y0281575D01*
X0120946Y0281575D01*
X0119245Y0280870D01*
X0118520Y0280145D01*
X0117795Y0280870D01*
X0116094Y0281575D01*
X0114253Y0281575D01*
X0112552Y0280870D01*
X0111685Y0280004D01*
X0111365Y0280324D01*
X0110801Y0280734D01*
X0110180Y0281050D01*
X0109517Y0281266D01*
X0108829Y0281375D01*
X0108556Y0281375D01*
X0108556Y0274395D01*
X0108404Y0274395D01*
X0108404Y0281375D01*
X0108132Y0281375D01*
X0107443Y0281266D01*
X0106781Y0281050D01*
X0106160Y0280734D01*
X0105596Y0280324D01*
X0105275Y0280004D01*
X0104409Y0280870D01*
X0102708Y0281575D01*
X0100867Y0281575D01*
X0099166Y0280870D01*
X0098649Y0280353D01*
X0097813Y0281188D01*
X0096049Y0281919D01*
X0094140Y0281919D01*
X0092376Y0281188D01*
X0091025Y0279838D01*
X0090294Y0278074D01*
X0090294Y0270564D01*
X0091025Y0268800D01*
X0092376Y0267450D01*
X0094140Y0266719D01*
X0096049Y0266719D01*
X0097813Y0267450D01*
X0098649Y0268285D01*
X0099166Y0267768D01*
X0100867Y0267063D01*
X0102708Y0267063D01*
X0104409Y0267768D01*
X0105275Y0268634D01*
X0105596Y0268313D01*
X0106160Y0267904D01*
X0106781Y0267587D01*
X0107443Y0267372D01*
X0108132Y0267263D01*
X0108404Y0267263D01*
X0108404Y0274243D01*
X0108556Y0274243D01*
X0108556Y0267263D01*
X0108829Y0267263D01*
X0109517Y0267372D01*
X0110180Y0267587D01*
X0110801Y0267904D01*
X0111365Y0268313D01*
X0111685Y0268634D01*
X0112552Y0267768D01*
X0114253Y0267063D01*
X0116094Y0267063D01*
X0117795Y0267768D01*
X0118520Y0268492D01*
X0119245Y0267768D01*
X0120946Y0267063D01*
X0122787Y0267063D01*
X0124488Y0267768D01*
X0125790Y0269069D01*
X0126494Y0270770D01*
X0126494Y0277867D01*
X0126089Y0278845D02*
X0150595Y0278845D01*
X0151364Y0280444D02*
X0124914Y0280444D01*
X0126494Y0275648D02*
X0150586Y0275648D01*
X0151342Y0274050D02*
X0126494Y0274050D01*
X0126494Y0272451D02*
X0152987Y0272451D01*
X0155520Y0272451D02*
X0156480Y0272451D01*
X0156480Y0274050D02*
X0155520Y0274050D01*
X0155520Y0275648D02*
X0156480Y0275648D01*
X0156480Y0278845D02*
X0155520Y0278845D01*
X0155520Y0280444D02*
X0156480Y0280444D01*
X0156480Y0282042D02*
X0155520Y0282042D01*
X0153028Y0282042D02*
X0049745Y0282042D01*
X0050091Y0281206D02*
X0048707Y0284547D01*
X0046150Y0287105D01*
X0042808Y0288489D01*
X0039192Y0288489D01*
X0035850Y0287105D01*
X0033293Y0284547D01*
X0031909Y0281206D01*
X0031909Y0277589D01*
X0033293Y0274248D01*
X0035850Y0271690D01*
X0039192Y0270306D01*
X0042808Y0270306D01*
X0046150Y0271690D01*
X0048707Y0274248D01*
X0050091Y0277589D01*
X0050091Y0281206D01*
X0050091Y0280444D02*
X0091631Y0280444D01*
X0090614Y0278845D02*
X0050091Y0278845D01*
X0049950Y0277247D02*
X0090294Y0277247D01*
X0090294Y0275648D02*
X0049287Y0275648D01*
X0048509Y0274050D02*
X0090294Y0274050D01*
X0090294Y0272451D02*
X0046911Y0272451D01*
X0044128Y0270853D02*
X0090294Y0270853D01*
X0090837Y0269254D02*
X0006000Y0269254D01*
X0006000Y0267656D02*
X0092169Y0267656D01*
X0098020Y0267656D02*
X0099436Y0267656D01*
X0104139Y0267656D02*
X0106646Y0267656D01*
X0108404Y0267656D02*
X0108556Y0267656D01*
X0108556Y0269254D02*
X0108404Y0269254D01*
X0108404Y0270853D02*
X0108556Y0270853D01*
X0108556Y0272451D02*
X0108404Y0272451D01*
X0108404Y0274050D02*
X0108556Y0274050D01*
X0108556Y0275648D02*
X0108404Y0275648D01*
X0108404Y0277247D02*
X0108556Y0277247D01*
X0108556Y0278845D02*
X0108404Y0278845D01*
X0108404Y0280444D02*
X0108556Y0280444D01*
X0111200Y0280444D02*
X0112125Y0280444D01*
X0118221Y0280444D02*
X0118818Y0280444D01*
X0126494Y0270853D02*
X0219200Y0270853D01*
X0219047Y0270485D02*
X0219047Y0268515D01*
X0219801Y0266694D01*
X0221194Y0265301D01*
X0223015Y0264547D01*
X0224985Y0264547D01*
X0226805Y0265301D01*
X0228199Y0266694D01*
X0228953Y0268515D01*
X0228953Y0270485D01*
X0228199Y0272305D01*
X0226805Y0273699D01*
X0224985Y0274453D01*
X0223015Y0274453D01*
X0221194Y0273699D01*
X0219801Y0272305D01*
X0219047Y0270485D01*
X0219047Y0269254D02*
X0125866Y0269254D01*
X0124218Y0267656D02*
X0219403Y0267656D01*
X0220438Y0266057D02*
X0006000Y0266057D01*
X0006000Y0264459D02*
X0365806Y0264459D01*
X0365391Y0262860D02*
X0006000Y0262860D01*
X0006000Y0261262D02*
X0365445Y0261262D01*
X0365981Y0259663D02*
X0006000Y0259663D01*
X0006000Y0258065D02*
X0367193Y0258065D01*
X0370520Y0258065D02*
X0371480Y0258065D01*
X0371480Y0259663D02*
X0370520Y0259663D01*
X0370520Y0261262D02*
X0371480Y0261262D01*
X0371480Y0262860D02*
X0370520Y0262860D01*
X0370520Y0264459D02*
X0371480Y0264459D01*
X0371480Y0266057D02*
X0370520Y0266057D01*
X0366851Y0266057D02*
X0272562Y0266057D01*
X0265438Y0266057D02*
X0227562Y0266057D01*
X0228597Y0267656D02*
X0264403Y0267656D01*
X0264047Y0269254D02*
X0228953Y0269254D01*
X0228800Y0270853D02*
X0264200Y0270853D01*
X0264947Y0272451D02*
X0249013Y0272451D01*
X0246480Y0272451D02*
X0245520Y0272451D01*
X0245520Y0274050D02*
X0246480Y0274050D01*
X0246480Y0275648D02*
X0245520Y0275648D01*
X0246480Y0277247D02*
X0290520Y0277247D01*
X0291480Y0277247D02*
X0330520Y0277247D01*
X0330520Y0277712D02*
X0330520Y0276753D01*
X0325367Y0276753D01*
X0325500Y0275912D01*
X0325775Y0275068D01*
X0326177Y0274277D01*
X0326699Y0273559D01*
X0327327Y0272931D01*
X0328045Y0272410D01*
X0328836Y0272007D01*
X0329680Y0271733D01*
X0330520Y0271599D01*
X0330520Y0276753D01*
X0331480Y0276753D01*
X0331480Y0277712D01*
X0336633Y0277712D01*
X0336500Y0278553D01*
X0336225Y0279397D01*
X0335823Y0280188D01*
X0335301Y0280906D01*
X0334673Y0281533D01*
X0333955Y0282055D01*
X0333164Y0282458D01*
X0332320Y0282732D01*
X0331480Y0282865D01*
X0331480Y0277712D01*
X0330520Y0277712D01*
X0325367Y0277712D01*
X0325500Y0278553D01*
X0325775Y0279397D01*
X0326177Y0280188D01*
X0326699Y0280906D01*
X0327327Y0281533D01*
X0328045Y0282055D01*
X0328836Y0282458D01*
X0329680Y0282732D01*
X0330520Y0282865D01*
X0330520Y0277712D01*
X0331480Y0277247D02*
X0391000Y0277247D01*
X0391000Y0278845D02*
X0336405Y0278845D01*
X0335636Y0280444D02*
X0391000Y0280444D01*
X0391000Y0282042D02*
X0372302Y0282042D01*
X0372161Y0281984D02*
X0374307Y0282873D01*
X0375950Y0284516D01*
X0376839Y0286661D01*
X0376839Y0288984D01*
X0375950Y0291130D01*
X0374307Y0292773D01*
X0372161Y0293661D01*
X0369839Y0293661D01*
X0367693Y0292773D01*
X0366050Y0291130D01*
X0365161Y0288984D01*
X0365161Y0286661D01*
X0366050Y0284516D01*
X0367693Y0282873D01*
X0369839Y0281984D01*
X0372161Y0281984D01*
X0369698Y0282042D02*
X0333972Y0282042D01*
X0331480Y0282042D02*
X0330520Y0282042D01*
X0330520Y0280444D02*
X0331480Y0280444D01*
X0331480Y0278845D02*
X0330520Y0278845D01*
X0331480Y0276753D02*
X0336633Y0276753D01*
X0336500Y0275912D01*
X0336225Y0275068D01*
X0335823Y0274277D01*
X0335301Y0273559D01*
X0334673Y0272931D01*
X0333955Y0272410D01*
X0333164Y0272007D01*
X0332320Y0271733D01*
X0331480Y0271599D01*
X0331480Y0276753D01*
X0331480Y0275648D02*
X0330520Y0275648D01*
X0330520Y0274050D02*
X0331480Y0274050D01*
X0331480Y0272451D02*
X0330520Y0272451D01*
X0327987Y0272451D02*
X0294013Y0272451D01*
X0293955Y0272410D02*
X0294673Y0272931D01*
X0295301Y0273559D01*
X0295823Y0274277D01*
X0296225Y0275068D01*
X0296500Y0275912D01*
X0296633Y0276753D01*
X0291480Y0276753D01*
X0291480Y0271599D01*
X0292320Y0271733D01*
X0293164Y0272007D01*
X0293955Y0272410D01*
X0295658Y0274050D02*
X0326342Y0274050D01*
X0325586Y0275648D02*
X0296414Y0275648D01*
X0296405Y0278845D02*
X0325595Y0278845D01*
X0326364Y0280444D02*
X0295636Y0280444D01*
X0293972Y0282042D02*
X0328028Y0282042D01*
X0336414Y0275648D02*
X0391000Y0275648D01*
X0391000Y0274050D02*
X0335658Y0274050D01*
X0334013Y0272451D02*
X0391000Y0272451D01*
X0391000Y0283641D02*
X0375075Y0283641D01*
X0376250Y0285239D02*
X0391000Y0285239D01*
X0391000Y0286838D02*
X0376839Y0286838D01*
X0376839Y0288437D02*
X0391000Y0288437D01*
X0391000Y0290035D02*
X0376403Y0290035D01*
X0375446Y0291634D02*
X0391000Y0291634D01*
X0391000Y0293232D02*
X0386082Y0293232D01*
X0387252Y0294831D02*
X0391000Y0294831D01*
X0391000Y0296429D02*
X0387749Y0296429D01*
X0387749Y0298028D02*
X0391000Y0298028D01*
X0391000Y0299626D02*
X0387125Y0299626D01*
X0385775Y0301225D02*
X0391000Y0301225D01*
X0391000Y0302823D02*
X0389462Y0302823D01*
X0380538Y0302823D02*
X0336839Y0302823D01*
X0336839Y0303984D02*
X0336839Y0301661D01*
X0335950Y0299516D01*
X0334307Y0297873D01*
X0332161Y0296984D01*
X0329839Y0296984D01*
X0327693Y0297873D01*
X0326050Y0299516D01*
X0325161Y0301661D01*
X0325161Y0303984D01*
X0326050Y0306130D01*
X0327693Y0307773D01*
X0329839Y0308661D01*
X0332161Y0308661D01*
X0334307Y0307773D01*
X0335950Y0306130D01*
X0336839Y0303984D01*
X0336657Y0304422D02*
X0378633Y0304422D01*
X0377331Y0306020D02*
X0335995Y0306020D01*
X0334461Y0307619D02*
X0339528Y0307619D01*
X0337994Y0309217D02*
X0306998Y0309217D01*
X0307660Y0310816D02*
X0337332Y0310816D01*
X0337243Y0312414D02*
X0307749Y0312414D01*
X0307379Y0314013D02*
X0337613Y0314013D01*
X0347379Y0314013D02*
X0376930Y0314013D01*
X0376268Y0312414D02*
X0347749Y0312414D01*
X0347660Y0310816D02*
X0376200Y0310816D01*
X0376200Y0309217D02*
X0346998Y0309217D01*
X0345464Y0307619D02*
X0376668Y0307619D01*
X0379217Y0301225D02*
X0336658Y0301225D01*
X0335995Y0299626D02*
X0377867Y0299626D01*
X0377243Y0298028D02*
X0334462Y0298028D01*
X0327538Y0298028D02*
X0294462Y0298028D01*
X0294307Y0297873D02*
X0295950Y0299516D01*
X0296839Y0301661D01*
X0296839Y0303984D01*
X0295950Y0306130D01*
X0294307Y0307773D01*
X0292161Y0308661D01*
X0289839Y0308661D01*
X0287693Y0307773D01*
X0286050Y0306130D01*
X0285161Y0303984D01*
X0285161Y0301661D01*
X0286050Y0299516D01*
X0287693Y0297873D01*
X0289839Y0296984D01*
X0292161Y0296984D01*
X0294307Y0297873D01*
X0295995Y0299626D02*
X0326004Y0299626D01*
X0325342Y0301225D02*
X0296658Y0301225D01*
X0296839Y0302823D02*
X0325161Y0302823D01*
X0325343Y0304422D02*
X0296657Y0304422D01*
X0295995Y0306020D02*
X0326005Y0306020D01*
X0327539Y0307619D02*
X0305464Y0307619D01*
X0299528Y0307619D02*
X0294461Y0307619D01*
X0297994Y0309217D02*
X0261998Y0309217D01*
X0262660Y0310816D02*
X0297332Y0310816D01*
X0297243Y0312414D02*
X0262749Y0312414D01*
X0262379Y0314013D02*
X0297613Y0314013D01*
X0287539Y0307619D02*
X0260464Y0307619D01*
X0254528Y0307619D02*
X0249461Y0307619D01*
X0249307Y0307773D02*
X0247161Y0308661D01*
X0244839Y0308661D01*
X0242693Y0307773D01*
X0241050Y0306130D01*
X0240161Y0303984D01*
X0240161Y0301661D01*
X0241050Y0299516D01*
X0242693Y0297873D01*
X0244839Y0296984D01*
X0247161Y0296984D01*
X0249307Y0297873D01*
X0250950Y0299516D01*
X0251839Y0301661D01*
X0251839Y0303984D01*
X0250950Y0306130D01*
X0249307Y0307773D01*
X0250995Y0306020D02*
X0286005Y0306020D01*
X0285343Y0304422D02*
X0251657Y0304422D01*
X0251839Y0302823D02*
X0285161Y0302823D01*
X0285342Y0301225D02*
X0251658Y0301225D01*
X0250995Y0299626D02*
X0286004Y0299626D01*
X0287538Y0298028D02*
X0249462Y0298028D01*
X0242538Y0298028D02*
X0204462Y0298028D01*
X0204307Y0297873D02*
X0205950Y0299516D01*
X0206839Y0301661D01*
X0206839Y0303984D01*
X0205950Y0306130D01*
X0204307Y0307773D01*
X0202161Y0308661D01*
X0199839Y0308661D01*
X0197693Y0307773D01*
X0196050Y0306130D01*
X0195161Y0303984D01*
X0195161Y0301661D01*
X0196050Y0299516D01*
X0197693Y0297873D01*
X0199839Y0296984D01*
X0202161Y0296984D01*
X0204307Y0297873D01*
X0205995Y0299626D02*
X0241004Y0299626D01*
X0240342Y0301225D02*
X0206658Y0301225D01*
X0206839Y0302823D02*
X0240161Y0302823D01*
X0240343Y0304422D02*
X0206657Y0304422D01*
X0205995Y0306020D02*
X0241005Y0306020D01*
X0242539Y0307619D02*
X0215464Y0307619D01*
X0216998Y0309217D02*
X0252994Y0309217D01*
X0252332Y0310816D02*
X0217660Y0310816D01*
X0217749Y0312414D02*
X0252243Y0312414D01*
X0252613Y0314013D02*
X0217379Y0314013D01*
X0207613Y0314013D02*
X0172379Y0314013D01*
X0172749Y0312414D02*
X0207243Y0312414D01*
X0207332Y0310816D02*
X0172660Y0310816D01*
X0171998Y0309217D02*
X0207994Y0309217D01*
X0209528Y0307619D02*
X0204461Y0307619D01*
X0197539Y0307619D02*
X0170464Y0307619D01*
X0164528Y0307619D02*
X0159461Y0307619D01*
X0159307Y0307773D02*
X0157161Y0308661D01*
X0154839Y0308661D01*
X0152693Y0307773D01*
X0151050Y0306130D01*
X0150161Y0303984D01*
X0150161Y0301661D01*
X0151050Y0299516D01*
X0152693Y0297873D01*
X0154839Y0296984D01*
X0157161Y0296984D01*
X0159307Y0297873D01*
X0160950Y0299516D01*
X0161839Y0301661D01*
X0161839Y0303984D01*
X0160950Y0306130D01*
X0159307Y0307773D01*
X0160995Y0306020D02*
X0196005Y0306020D01*
X0195343Y0304422D02*
X0161657Y0304422D01*
X0161839Y0302823D02*
X0195161Y0302823D01*
X0195342Y0301225D02*
X0161658Y0301225D01*
X0160995Y0299626D02*
X0196004Y0299626D01*
X0197538Y0298028D02*
X0159462Y0298028D01*
X0152538Y0298028D02*
X0006000Y0298028D01*
X0006000Y0299626D02*
X0151004Y0299626D01*
X0150342Y0301225D02*
X0138620Y0301225D01*
X0138805Y0301301D02*
X0140199Y0302694D01*
X0140953Y0304515D01*
X0140953Y0306485D01*
X0140199Y0308305D01*
X0138805Y0309699D01*
X0136985Y0310453D01*
X0135015Y0310453D01*
X0133194Y0309699D01*
X0131801Y0308305D01*
X0131047Y0306485D01*
X0131047Y0304515D01*
X0131801Y0302694D01*
X0133194Y0301301D01*
X0135015Y0300547D01*
X0136985Y0300547D01*
X0138805Y0301301D01*
X0140252Y0302823D02*
X0150161Y0302823D01*
X0150343Y0304422D02*
X0140914Y0304422D01*
X0140953Y0306020D02*
X0151005Y0306020D01*
X0152539Y0307619D02*
X0140483Y0307619D01*
X0139287Y0309217D02*
X0162994Y0309217D01*
X0162332Y0310816D02*
X0019800Y0310816D01*
X0019800Y0309217D02*
X0112713Y0309217D01*
X0113194Y0309699D02*
X0111801Y0308305D01*
X0111047Y0306485D01*
X0111047Y0304515D01*
X0111801Y0302694D01*
X0113194Y0301301D01*
X0115015Y0300547D01*
X0116985Y0300547D01*
X0118805Y0301301D01*
X0120199Y0302694D01*
X0120953Y0304515D01*
X0120953Y0306485D01*
X0120199Y0308305D01*
X0118805Y0309699D01*
X0116985Y0310453D01*
X0115015Y0310453D01*
X0113194Y0309699D01*
X0111517Y0307619D02*
X0019332Y0307619D01*
X0018669Y0306020D02*
X0111047Y0306020D01*
X0111086Y0304422D02*
X0017367Y0304422D01*
X0015462Y0302823D02*
X0111748Y0302823D01*
X0113380Y0301225D02*
X0006000Y0301225D01*
X0006000Y0302823D02*
X0006538Y0302823D01*
X0006000Y0296429D02*
X0377243Y0296429D01*
X0377740Y0294831D02*
X0006000Y0294831D01*
X0006000Y0293232D02*
X0368802Y0293232D01*
X0366554Y0291634D02*
X0006000Y0291634D01*
X0006000Y0290035D02*
X0365597Y0290035D01*
X0365161Y0288437D02*
X0042935Y0288437D01*
X0046417Y0286838D02*
X0365161Y0286838D01*
X0365750Y0285239D02*
X0048015Y0285239D01*
X0049083Y0283641D02*
X0366925Y0283641D01*
X0373198Y0293232D02*
X0378910Y0293232D01*
X0344184Y0234087D02*
X0343816Y0234087D01*
X0343816Y0232489D02*
X0344184Y0232489D01*
X0344184Y0229292D02*
X0343816Y0229292D01*
X0343816Y0227693D02*
X0344184Y0227693D01*
X0339486Y0232489D02*
X0295150Y0232489D01*
X0296937Y0234087D02*
X0340368Y0234087D01*
X0335472Y0221528D02*
X0333541Y0222328D01*
X0331451Y0222328D01*
X0329521Y0221528D01*
X0328043Y0220050D01*
X0327243Y0218120D01*
X0327243Y0216030D01*
X0328043Y0214099D01*
X0329521Y0212622D01*
X0331451Y0211822D01*
X0333541Y0211822D01*
X0335472Y0212622D01*
X0336949Y0214099D01*
X0337749Y0216030D01*
X0337749Y0218120D01*
X0336949Y0220050D01*
X0335472Y0221528D01*
X0335700Y0221299D02*
X0374292Y0221299D01*
X0372898Y0219701D02*
X0337094Y0219701D01*
X0337749Y0218102D02*
X0372243Y0218102D01*
X0372243Y0216503D02*
X0337749Y0216503D01*
X0337283Y0214905D02*
X0340901Y0214905D01*
X0341194Y0215199D02*
X0339801Y0213805D01*
X0339047Y0211985D01*
X0339047Y0210015D01*
X0339801Y0208194D01*
X0341194Y0206801D01*
X0343015Y0206047D01*
X0344985Y0206047D01*
X0346805Y0206801D01*
X0348199Y0208194D01*
X0348953Y0210015D01*
X0348953Y0211985D01*
X0348199Y0213805D01*
X0346805Y0215199D01*
X0344985Y0215953D01*
X0343015Y0215953D01*
X0341194Y0215199D01*
X0339595Y0213306D02*
X0336156Y0213306D01*
X0339047Y0211708D02*
X0325372Y0211708D01*
X0326372Y0210109D02*
X0339047Y0210109D01*
X0339670Y0208511D02*
X0326839Y0208511D01*
X0326839Y0206912D02*
X0341083Y0206912D01*
X0346917Y0206912D02*
X0360161Y0206912D01*
X0360161Y0208511D02*
X0348330Y0208511D01*
X0348953Y0210109D02*
X0360628Y0210109D01*
X0361628Y0211708D02*
X0348953Y0211708D01*
X0348405Y0213306D02*
X0363982Y0213306D01*
X0368018Y0213306D02*
X0373836Y0213306D01*
X0372709Y0214905D02*
X0347099Y0214905D01*
X0360720Y0205314D02*
X0326280Y0205314D01*
X0325150Y0203715D02*
X0361850Y0203715D01*
X0361925Y0186132D02*
X0325075Y0186132D01*
X0326156Y0184533D02*
X0360844Y0184533D01*
X0360402Y0182935D02*
X0326598Y0182935D01*
X0326633Y0181753D02*
X0321480Y0181753D01*
X0321480Y0176599D01*
X0322320Y0176733D01*
X0323164Y0177007D01*
X0323955Y0177410D01*
X0324673Y0177931D01*
X0325301Y0178559D01*
X0325823Y0179277D01*
X0326225Y0180068D01*
X0326500Y0180912D01*
X0326633Y0181753D01*
X0326567Y0181336D02*
X0360433Y0181336D01*
X0360943Y0179738D02*
X0326057Y0179738D01*
X0324881Y0178139D02*
X0362119Y0178139D01*
X0365520Y0178139D02*
X0366480Y0178139D01*
X0366480Y0179738D02*
X0365520Y0179738D01*
X0365520Y0181336D02*
X0366480Y0181336D01*
X0366480Y0182935D02*
X0365520Y0182935D01*
X0365520Y0184533D02*
X0366480Y0184533D01*
X0366480Y0186132D02*
X0365520Y0186132D01*
X0391000Y0190927D02*
X0257903Y0190927D01*
X0260030Y0192526D02*
X0391000Y0192526D01*
X0391000Y0194124D02*
X0260791Y0194124D01*
X0260953Y0195723D02*
X0391000Y0195723D01*
X0391000Y0197321D02*
X0283782Y0197321D01*
X0281480Y0197321D02*
X0280520Y0197321D01*
X0280520Y0198920D02*
X0281480Y0198920D01*
X0281480Y0200518D02*
X0280520Y0200518D01*
X0280520Y0203715D02*
X0281480Y0203715D01*
X0281480Y0205314D02*
X0280520Y0205314D01*
X0280520Y0206912D02*
X0281480Y0206912D01*
X0284151Y0206912D02*
X0315161Y0206912D01*
X0315161Y0208511D02*
X0046949Y0208511D01*
X0046150Y0209310D02*
X0042808Y0210694D01*
X0039192Y0210694D01*
X0035850Y0209310D01*
X0033293Y0206752D01*
X0031909Y0203411D01*
X0031909Y0199794D01*
X0033293Y0196453D01*
X0035850Y0193895D01*
X0039192Y0192511D01*
X0042808Y0192511D01*
X0046150Y0193895D01*
X0048707Y0196453D01*
X0050091Y0199794D01*
X0050091Y0203411D01*
X0048707Y0206752D01*
X0046150Y0209310D01*
X0044219Y0210109D02*
X0315628Y0210109D01*
X0316628Y0211708D02*
X0209212Y0211708D01*
X0208805Y0211301D02*
X0210199Y0212694D01*
X0210953Y0214515D01*
X0210953Y0216485D01*
X0210199Y0218305D01*
X0208805Y0219699D01*
X0206985Y0220453D01*
X0205015Y0220453D01*
X0203194Y0219699D01*
X0201801Y0218305D01*
X0201047Y0216485D01*
X0201047Y0214515D01*
X0201801Y0212694D01*
X0203194Y0211301D01*
X0205015Y0210547D01*
X0206985Y0210547D01*
X0208805Y0211301D01*
X0210452Y0213306D02*
X0318982Y0213306D01*
X0323018Y0213306D02*
X0328836Y0213306D01*
X0327709Y0214905D02*
X0210953Y0214905D01*
X0210945Y0216503D02*
X0327243Y0216503D01*
X0327243Y0218102D02*
X0210283Y0218102D01*
X0208801Y0219701D02*
X0327898Y0219701D01*
X0329292Y0221299D02*
X0258800Y0221299D01*
X0258805Y0221301D02*
X0260199Y0222694D01*
X0260953Y0224515D01*
X0260953Y0226485D01*
X0260199Y0228305D01*
X0258805Y0229699D01*
X0256985Y0230453D01*
X0255015Y0230453D01*
X0253194Y0229699D01*
X0251801Y0228305D01*
X0251047Y0226485D01*
X0251047Y0224515D01*
X0251801Y0222694D01*
X0253194Y0221301D01*
X0255015Y0220547D01*
X0256985Y0220547D01*
X0258805Y0221301D01*
X0260283Y0222898D02*
X0277668Y0222898D01*
X0276070Y0224496D02*
X0260945Y0224496D01*
X0260953Y0226095D02*
X0275396Y0226095D01*
X0275161Y0227693D02*
X0260452Y0227693D01*
X0259213Y0229292D02*
X0275289Y0229292D01*
X0275951Y0230890D02*
X0236049Y0230890D01*
X0235950Y0231130D02*
X0234307Y0232773D01*
X0232161Y0233661D01*
X0229839Y0233661D01*
X0227693Y0232773D01*
X0226050Y0231130D01*
X0225161Y0228984D01*
X0225161Y0226661D01*
X0226050Y0224516D01*
X0227693Y0222873D01*
X0229839Y0221984D01*
X0232161Y0221984D01*
X0234307Y0222873D01*
X0235950Y0224516D01*
X0236839Y0226661D01*
X0236839Y0228984D01*
X0235950Y0231130D01*
X0234591Y0232489D02*
X0239842Y0232489D01*
X0238055Y0234087D02*
X0186584Y0234087D01*
X0186700Y0235686D02*
X0237386Y0235686D01*
X0237243Y0237284D02*
X0186431Y0237284D01*
X0185678Y0238883D02*
X0237559Y0238883D01*
X0238474Y0240481D02*
X0183869Y0240481D01*
X0178131Y0240481D02*
X0173869Y0240481D01*
X0175678Y0238883D02*
X0176322Y0238883D01*
X0176078Y0232489D02*
X0175922Y0232489D01*
X0174451Y0230890D02*
X0177549Y0230890D01*
X0184451Y0230890D02*
X0225951Y0230890D01*
X0225289Y0229292D02*
X0047273Y0229292D01*
X0047268Y0229253D02*
X0047336Y0229774D01*
X0041726Y0229774D01*
X0041726Y0231226D01*
X0040274Y0231226D01*
X0040274Y0236836D01*
X0039753Y0236768D01*
X0038946Y0236551D01*
X0038174Y0236231D01*
X0037450Y0235813D01*
X0036786Y0235305D01*
X0036195Y0234714D01*
X0035687Y0234050D01*
X0035269Y0233326D01*
X0034949Y0232554D01*
X0034732Y0231747D01*
X0034664Y0231226D01*
X0040274Y0231226D01*
X0040274Y0229774D01*
X0034664Y0229774D01*
X0034732Y0229253D01*
X0034949Y0228446D01*
X0035269Y0227674D01*
X0035687Y0226950D01*
X0036195Y0226286D01*
X0036786Y0225695D01*
X0037450Y0225187D01*
X0038174Y0224769D01*
X0038946Y0224449D01*
X0039753Y0224232D01*
X0040274Y0224164D01*
X0040274Y0229774D01*
X0041726Y0229774D01*
X0041726Y0224164D01*
X0042247Y0224232D01*
X0043054Y0224449D01*
X0043826Y0224769D01*
X0044550Y0225187D01*
X0045214Y0225695D01*
X0045805Y0226286D01*
X0046313Y0226950D01*
X0046731Y0227674D01*
X0047051Y0228446D01*
X0047268Y0229253D01*
X0046739Y0227693D02*
X0225161Y0227693D01*
X0225396Y0226095D02*
X0045613Y0226095D01*
X0043168Y0224496D02*
X0226070Y0224496D01*
X0227668Y0222898D02*
X0006000Y0222898D01*
X0006000Y0224496D02*
X0038831Y0224496D01*
X0040274Y0224496D02*
X0041726Y0224496D01*
X0041726Y0226095D02*
X0040274Y0226095D01*
X0040274Y0227693D02*
X0041726Y0227693D01*
X0041726Y0229292D02*
X0040274Y0229292D01*
X0040274Y0230890D02*
X0006000Y0230890D01*
X0006000Y0229292D02*
X0034727Y0229292D01*
X0035260Y0227693D02*
X0006000Y0227693D01*
X0006000Y0226095D02*
X0036387Y0226095D01*
X0034931Y0232489D02*
X0006000Y0232489D01*
X0006000Y0234087D02*
X0035715Y0234087D01*
X0037283Y0235686D02*
X0006000Y0235686D01*
X0006000Y0237284D02*
X0081162Y0237284D01*
X0080500Y0238883D02*
X0006000Y0238883D01*
X0006000Y0240481D02*
X0080300Y0240481D01*
X0080485Y0242080D02*
X0006000Y0242080D01*
X0006000Y0243678D02*
X0081147Y0243678D01*
X0082753Y0235686D02*
X0044717Y0235686D01*
X0044550Y0235813D02*
X0043826Y0236231D01*
X0043054Y0236551D01*
X0042247Y0236768D01*
X0041726Y0236836D01*
X0041726Y0231226D01*
X0047336Y0231226D01*
X0047268Y0231747D01*
X0047051Y0232554D01*
X0046731Y0233326D01*
X0046313Y0234050D01*
X0045805Y0234714D01*
X0045214Y0235305D01*
X0044550Y0235813D01*
X0046285Y0234087D02*
X0165416Y0234087D01*
X0166078Y0232489D02*
X0047069Y0232489D01*
X0041726Y0232489D02*
X0040274Y0232489D01*
X0040274Y0234087D02*
X0041726Y0234087D01*
X0041726Y0235686D02*
X0040274Y0235686D01*
X0041726Y0230890D02*
X0167549Y0230890D01*
X0181801Y0218305D02*
X0181047Y0216485D01*
X0181047Y0214515D01*
X0181801Y0212694D01*
X0183194Y0211301D01*
X0185015Y0210547D01*
X0186985Y0210547D01*
X0188805Y0211301D01*
X0190199Y0212694D01*
X0190953Y0214515D01*
X0190953Y0216485D01*
X0190199Y0218305D01*
X0188805Y0219699D01*
X0186985Y0220453D01*
X0185015Y0220453D01*
X0183194Y0219699D01*
X0181801Y0218305D01*
X0181717Y0218102D02*
X0006000Y0218102D01*
X0006000Y0216503D02*
X0181055Y0216503D01*
X0181047Y0214905D02*
X0006000Y0214905D01*
X0006000Y0213306D02*
X0181548Y0213306D01*
X0182788Y0211708D02*
X0006000Y0211708D01*
X0006000Y0210109D02*
X0037781Y0210109D01*
X0035051Y0208511D02*
X0006000Y0208511D01*
X0006000Y0206912D02*
X0033453Y0206912D01*
X0032697Y0205314D02*
X0006000Y0205314D01*
X0006000Y0203715D02*
X0032035Y0203715D01*
X0031909Y0202117D02*
X0006000Y0202117D01*
X0006000Y0200518D02*
X0031909Y0200518D01*
X0032271Y0198920D02*
X0006000Y0198920D01*
X0006000Y0197321D02*
X0032933Y0197321D01*
X0034022Y0195723D02*
X0006000Y0195723D01*
X0006000Y0194124D02*
X0035621Y0194124D01*
X0039156Y0192526D02*
X0006000Y0192526D01*
X0006000Y0190927D02*
X0170300Y0190927D01*
X0170315Y0189329D02*
X0006000Y0189329D01*
X0006000Y0187730D02*
X0170978Y0187730D01*
X0172307Y0186132D02*
X0006000Y0186132D01*
X0042844Y0192526D02*
X0092299Y0192526D01*
X0090891Y0194124D02*
X0046379Y0194124D01*
X0047978Y0195723D02*
X0090294Y0195723D01*
X0090294Y0197321D02*
X0049067Y0197321D01*
X0049729Y0198920D02*
X0090294Y0198920D01*
X0090294Y0200518D02*
X0050091Y0200518D01*
X0050091Y0202117D02*
X0090294Y0202117D01*
X0090560Y0203715D02*
X0049965Y0203715D01*
X0049303Y0205314D02*
X0091501Y0205314D01*
X0094124Y0206912D02*
X0048547Y0206912D01*
X0006000Y0219701D02*
X0183199Y0219701D01*
X0188801Y0219701D02*
X0203199Y0219701D01*
X0201717Y0218102D02*
X0190283Y0218102D01*
X0190945Y0216503D02*
X0201055Y0216503D01*
X0201047Y0214905D02*
X0190953Y0214905D01*
X0190452Y0213306D02*
X0201548Y0213306D01*
X0202788Y0211708D02*
X0189212Y0211708D01*
X0185922Y0232489D02*
X0227409Y0232489D01*
X0236711Y0229292D02*
X0252787Y0229292D01*
X0251548Y0227693D02*
X0236839Y0227693D01*
X0236604Y0226095D02*
X0251047Y0226095D01*
X0251055Y0224496D02*
X0235930Y0224496D01*
X0234332Y0222898D02*
X0251717Y0222898D01*
X0253200Y0221299D02*
X0006000Y0221299D01*
X0006000Y0270853D02*
X0037872Y0270853D01*
X0035089Y0272451D02*
X0006000Y0272451D01*
X0006000Y0274050D02*
X0033491Y0274050D01*
X0032713Y0275648D02*
X0006000Y0275648D01*
X0006000Y0277247D02*
X0032050Y0277247D01*
X0031909Y0278845D02*
X0006000Y0278845D01*
X0006000Y0280444D02*
X0031909Y0280444D01*
X0032255Y0282042D02*
X0006000Y0282042D01*
X0006000Y0283641D02*
X0032917Y0283641D01*
X0033985Y0285239D02*
X0006000Y0285239D01*
X0006000Y0286838D02*
X0035583Y0286838D01*
X0039065Y0288437D02*
X0006000Y0288437D01*
X0019732Y0312414D02*
X0162243Y0312414D01*
X0162613Y0314013D02*
X0019070Y0314013D01*
X0098558Y0280444D02*
X0098740Y0280444D01*
X0104835Y0280444D02*
X0105760Y0280444D01*
X0110314Y0267656D02*
X0112821Y0267656D01*
X0117525Y0267656D02*
X0119514Y0267656D01*
X0118620Y0301225D02*
X0133380Y0301225D01*
X0131748Y0302823D02*
X0120252Y0302823D01*
X0120914Y0304422D02*
X0131086Y0304422D01*
X0131047Y0306020D02*
X0120953Y0306020D01*
X0120483Y0307619D02*
X0131517Y0307619D01*
X0132713Y0309217D02*
X0119287Y0309217D01*
X0158972Y0282042D02*
X0198028Y0282042D01*
X0196364Y0280444D02*
X0160636Y0280444D01*
X0161405Y0278845D02*
X0195595Y0278845D01*
X0195586Y0275648D02*
X0161414Y0275648D01*
X0160658Y0274050D02*
X0196342Y0274050D01*
X0197987Y0272451D02*
X0159013Y0272451D01*
X0200520Y0272451D02*
X0201480Y0272451D01*
X0201480Y0274050D02*
X0200520Y0274050D01*
X0200520Y0275648D02*
X0201480Y0275648D01*
X0201480Y0278845D02*
X0200520Y0278845D01*
X0200520Y0280444D02*
X0201480Y0280444D01*
X0201480Y0282042D02*
X0200520Y0282042D01*
X0203972Y0282042D02*
X0243028Y0282042D01*
X0241364Y0280444D02*
X0205636Y0280444D01*
X0206405Y0278845D02*
X0240595Y0278845D01*
X0240586Y0275648D02*
X0206414Y0275648D01*
X0205658Y0274050D02*
X0222042Y0274050D01*
X0219947Y0272451D02*
X0204013Y0272451D01*
X0225958Y0274050D02*
X0241342Y0274050D01*
X0242987Y0272451D02*
X0228053Y0272451D01*
X0255816Y0243678D02*
X0256184Y0243678D01*
X0256184Y0242080D02*
X0255816Y0242080D01*
X0247433Y0238883D02*
X0287559Y0238883D01*
X0287243Y0237284D02*
X0247749Y0237284D01*
X0247606Y0235686D02*
X0287386Y0235686D01*
X0288055Y0234087D02*
X0246937Y0234087D01*
X0245150Y0232489D02*
X0277409Y0232489D01*
X0284591Y0232489D02*
X0289842Y0232489D01*
X0288474Y0240481D02*
X0246518Y0240481D01*
X0268816Y0245277D02*
X0269184Y0245277D01*
X0269184Y0246875D02*
X0268816Y0246875D01*
X0268816Y0248474D02*
X0269184Y0248474D01*
X0269184Y0250072D02*
X0268816Y0250072D01*
X0268816Y0251671D02*
X0269184Y0251671D01*
X0269184Y0253269D02*
X0268816Y0253269D01*
X0290520Y0272451D02*
X0291480Y0272451D01*
X0291480Y0274050D02*
X0290520Y0274050D01*
X0290520Y0275648D02*
X0291480Y0275648D01*
X0291480Y0278845D02*
X0290520Y0278845D01*
X0290520Y0280444D02*
X0291480Y0280444D01*
X0291480Y0282042D02*
X0290520Y0282042D01*
X0277849Y0206912D02*
X0234151Y0206912D01*
X0235731Y0205314D02*
X0276269Y0205314D01*
X0275553Y0203715D02*
X0236447Y0203715D01*
X0236633Y0201753D02*
X0231480Y0201753D01*
X0231480Y0196599D01*
X0232320Y0196733D01*
X0233164Y0197007D01*
X0233955Y0197410D01*
X0234673Y0197931D01*
X0235301Y0198559D01*
X0235823Y0199277D01*
X0236225Y0200068D01*
X0236500Y0200912D01*
X0236633Y0201753D01*
X0236372Y0200518D02*
X0275628Y0200518D01*
X0276437Y0198920D02*
X0259584Y0198920D01*
X0260606Y0197321D02*
X0278218Y0197321D01*
X0285563Y0198920D02*
X0391000Y0198920D01*
X0391000Y0200518D02*
X0286372Y0200518D01*
X0286447Y0203715D02*
X0316850Y0203715D01*
X0315720Y0205314D02*
X0285731Y0205314D01*
X0252416Y0198920D02*
X0235563Y0198920D01*
X0233782Y0197321D02*
X0251394Y0197321D01*
X0231480Y0197321D02*
X0230520Y0197321D01*
X0230520Y0198920D02*
X0231480Y0198920D01*
X0231480Y0200518D02*
X0230520Y0200518D01*
X0230520Y0203715D02*
X0231480Y0203715D01*
X0231480Y0205314D02*
X0230520Y0205314D01*
X0230520Y0206912D02*
X0231480Y0206912D01*
X0227849Y0206912D02*
X0096065Y0206912D01*
X0104965Y0205314D02*
X0105585Y0205314D01*
X0108404Y0205314D02*
X0108556Y0205314D01*
X0108556Y0203715D02*
X0108404Y0203715D01*
X0108404Y0202117D02*
X0108556Y0202117D01*
X0108556Y0200518D02*
X0108404Y0200518D01*
X0108404Y0198920D02*
X0108556Y0198920D01*
X0108556Y0197321D02*
X0108404Y0197321D01*
X0108404Y0195723D02*
X0108556Y0195723D01*
X0108556Y0194124D02*
X0108404Y0194124D01*
X0108404Y0192526D02*
X0108556Y0192526D01*
X0109991Y0192526D02*
X0113135Y0192526D01*
X0117211Y0192526D02*
X0119828Y0192526D01*
X0123904Y0192526D02*
X0170669Y0192526D01*
X0171563Y0194124D02*
X0125812Y0194124D01*
X0125044Y0205314D02*
X0226269Y0205314D01*
X0182307Y0186132D02*
X0179693Y0186132D01*
X0230054Y0149366D02*
X0288235Y0149366D01*
X0286821Y0147768D02*
X0231122Y0147768D01*
X0259991Y0144570D02*
X0262009Y0144570D01*
X0290816Y0144570D02*
X0291184Y0144570D01*
X0291184Y0142972D02*
X0290816Y0142972D01*
X0290816Y0141373D02*
X0291184Y0141373D01*
X0293370Y0141373D02*
X0308122Y0141373D01*
X0306686Y0142972D02*
X0295038Y0142972D01*
X0295665Y0144570D02*
X0306047Y0144570D01*
X0306047Y0146169D02*
X0295706Y0146169D01*
X0295179Y0147768D02*
X0306578Y0147768D01*
X0307862Y0149366D02*
X0293765Y0149366D01*
X0291184Y0149366D02*
X0290816Y0149366D01*
X0290816Y0147768D02*
X0291184Y0147768D01*
X0291184Y0146169D02*
X0290816Y0146169D01*
X0320520Y0178139D02*
X0321480Y0178139D01*
X0321480Y0179738D02*
X0320520Y0179738D01*
X0320520Y0181336D02*
X0321480Y0181336D01*
X0321480Y0182935D02*
X0320520Y0182935D01*
X0320520Y0184533D02*
X0321480Y0184533D01*
X0321480Y0186132D02*
X0320520Y0186132D01*
X0380626Y0141373D02*
X0391000Y0141373D01*
X0391000Y0139775D02*
X0382063Y0139775D01*
X0382725Y0138176D02*
X0391000Y0138176D01*
X0391000Y0136578D02*
X0382749Y0136578D01*
X0382314Y0134979D02*
X0391000Y0134979D01*
X0391000Y0133381D02*
X0381231Y0133381D01*
X0391000Y0131782D02*
X0370297Y0131782D01*
X0371342Y0130184D02*
X0391000Y0130184D01*
X0391000Y0128585D02*
X0371839Y0128585D01*
X0371839Y0126987D02*
X0391000Y0126987D01*
X0391000Y0125388D02*
X0371311Y0125388D01*
X0370224Y0123790D02*
X0391000Y0123790D01*
X0391000Y0106206D02*
X0370000Y0106206D01*
X0371118Y0104608D02*
X0391000Y0104608D01*
X0391000Y0103009D02*
X0371586Y0103009D01*
X0371579Y0101411D02*
X0391000Y0101411D01*
X0391000Y0099812D02*
X0371095Y0099812D01*
X0369956Y0098214D02*
X0391000Y0098214D01*
X0391000Y0083827D02*
X0259394Y0083827D01*
X0260436Y0082229D02*
X0391000Y0082229D01*
X0366480Y0098214D02*
X0365520Y0098214D01*
X0365520Y0099812D02*
X0366480Y0099812D01*
X0366480Y0101411D02*
X0365520Y0101411D01*
X0365520Y0102712D02*
X0360367Y0102712D01*
X0360500Y0103553D01*
X0360775Y0104397D01*
X0361177Y0105188D01*
X0361699Y0105906D01*
X0362327Y0106533D01*
X0363045Y0107055D01*
X0363836Y0107458D01*
X0364680Y0107732D01*
X0365520Y0107865D01*
X0365520Y0102712D01*
X0365520Y0103009D02*
X0366480Y0103009D01*
X0366480Y0104608D02*
X0365520Y0104608D01*
X0365520Y0106206D02*
X0366480Y0106206D01*
X0362000Y0106206D02*
X0325000Y0106206D01*
X0326118Y0104608D02*
X0360882Y0104608D01*
X0360414Y0103009D02*
X0326586Y0103009D01*
X0326579Y0101411D02*
X0360421Y0101411D01*
X0360905Y0099812D02*
X0326095Y0099812D01*
X0324956Y0098214D02*
X0362044Y0098214D01*
X0324032Y0071039D02*
X0290960Y0071039D01*
X0290472Y0071528D02*
X0288541Y0072328D01*
X0286451Y0072328D01*
X0284521Y0071528D01*
X0283043Y0070050D01*
X0282243Y0068120D01*
X0282243Y0066030D01*
X0283043Y0064099D01*
X0284521Y0062622D01*
X0286451Y0061822D01*
X0288541Y0061822D01*
X0290472Y0062622D01*
X0291949Y0064099D01*
X0292749Y0066030D01*
X0292749Y0068120D01*
X0291949Y0070050D01*
X0290472Y0071528D01*
X0292202Y0069440D02*
X0322790Y0069440D01*
X0322243Y0067842D02*
X0292749Y0067842D01*
X0292749Y0066243D02*
X0322243Y0066243D01*
X0322817Y0064645D02*
X0292175Y0064645D01*
X0290896Y0063046D02*
X0313354Y0063046D01*
X0311368Y0061448D02*
X0280632Y0061448D01*
X0280950Y0061130D02*
X0279307Y0062773D01*
X0277161Y0063661D01*
X0274839Y0063661D01*
X0272693Y0062773D01*
X0271050Y0061130D01*
X0270161Y0058984D01*
X0270161Y0056661D01*
X0271050Y0054516D01*
X0272693Y0052873D01*
X0274839Y0051984D01*
X0277161Y0051984D01*
X0279307Y0052873D01*
X0280950Y0054516D01*
X0281839Y0056661D01*
X0281839Y0058984D01*
X0280950Y0061130D01*
X0281480Y0059849D02*
X0310520Y0059849D01*
X0310161Y0058251D02*
X0281839Y0058251D01*
X0281835Y0056652D02*
X0310165Y0056652D01*
X0310827Y0055054D02*
X0281173Y0055054D01*
X0279890Y0053455D02*
X0312110Y0053455D01*
X0318646Y0063046D02*
X0324096Y0063046D01*
X0316480Y0037470D02*
X0315520Y0037470D01*
X0315520Y0035872D02*
X0316480Y0035872D01*
X0316480Y0034273D02*
X0315520Y0034273D01*
X0315520Y0031076D02*
X0316480Y0031076D01*
X0316480Y0029478D02*
X0315520Y0029478D01*
X0315520Y0027879D02*
X0316480Y0027879D01*
X0312399Y0027879D02*
X0279601Y0027879D01*
X0279673Y0027931D02*
X0280301Y0028559D01*
X0280823Y0029277D01*
X0281225Y0030068D01*
X0281500Y0030912D01*
X0281633Y0031753D01*
X0276480Y0031753D01*
X0276480Y0026599D01*
X0277320Y0026733D01*
X0278164Y0027007D01*
X0278955Y0027410D01*
X0279673Y0027931D01*
X0280925Y0029478D02*
X0311075Y0029478D01*
X0310474Y0031076D02*
X0281526Y0031076D01*
X0281266Y0034273D02*
X0310734Y0034273D01*
X0311675Y0035872D02*
X0280325Y0035872D01*
X0278126Y0037470D02*
X0313874Y0037470D01*
X0284096Y0063046D02*
X0278646Y0063046D01*
X0282817Y0064645D02*
X0258859Y0064645D01*
X0258805Y0064699D02*
X0256985Y0065453D01*
X0255015Y0065453D01*
X0253194Y0064699D01*
X0251801Y0063305D01*
X0251047Y0061485D01*
X0251047Y0059515D01*
X0251801Y0057694D01*
X0253194Y0056301D01*
X0255015Y0055547D01*
X0256985Y0055547D01*
X0258805Y0056301D01*
X0260199Y0057694D01*
X0260953Y0059515D01*
X0260953Y0061485D01*
X0260199Y0063305D01*
X0258805Y0064699D01*
X0260306Y0063046D02*
X0273354Y0063046D01*
X0271368Y0061448D02*
X0260953Y0061448D01*
X0260953Y0059849D02*
X0270520Y0059849D01*
X0270161Y0058251D02*
X0260429Y0058251D01*
X0259157Y0056652D02*
X0270165Y0056652D01*
X0270827Y0055054D02*
X0241173Y0055054D01*
X0241835Y0056652D02*
X0252843Y0056652D01*
X0251571Y0058251D02*
X0241839Y0058251D01*
X0241480Y0059849D02*
X0251047Y0059849D01*
X0251047Y0061448D02*
X0240632Y0061448D01*
X0239890Y0053455D02*
X0272110Y0053455D01*
X0282243Y0066243D02*
X0252749Y0066243D01*
X0252749Y0067842D02*
X0282243Y0067842D01*
X0282790Y0069440D02*
X0252202Y0069440D01*
X0250960Y0071039D02*
X0284032Y0071039D01*
X0256184Y0077433D02*
X0255816Y0077433D01*
X0255816Y0079032D02*
X0256184Y0079032D01*
X0256184Y0082229D02*
X0255816Y0082229D01*
X0255816Y0083827D02*
X0256184Y0083827D01*
X0251480Y0079032D02*
X0219190Y0079032D01*
X0220349Y0077433D02*
X0252354Y0077433D01*
X0252175Y0064645D02*
X0253141Y0064645D01*
X0251694Y0063046D02*
X0250896Y0063046D01*
X0238126Y0037470D02*
X0273874Y0037470D01*
X0275520Y0037470D02*
X0276480Y0037470D01*
X0276480Y0035872D02*
X0275520Y0035872D01*
X0275520Y0034273D02*
X0276480Y0034273D01*
X0276480Y0031076D02*
X0275520Y0031076D01*
X0275520Y0029478D02*
X0276480Y0029478D01*
X0276480Y0027879D02*
X0275520Y0027879D01*
X0272399Y0027879D02*
X0239601Y0027879D01*
X0239673Y0027931D02*
X0240301Y0028559D01*
X0240823Y0029277D01*
X0241225Y0030068D01*
X0241500Y0030912D01*
X0241633Y0031753D01*
X0236480Y0031753D01*
X0236480Y0026599D01*
X0237320Y0026733D01*
X0238164Y0027007D01*
X0238955Y0027410D01*
X0239673Y0027931D01*
X0240925Y0029478D02*
X0271075Y0029478D01*
X0270474Y0031076D02*
X0241526Y0031076D01*
X0241266Y0034273D02*
X0270734Y0034273D01*
X0271675Y0035872D02*
X0240325Y0035872D01*
X0235520Y0032675D02*
X0194822Y0032675D01*
X0195599Y0034273D02*
X0230734Y0034273D01*
X0231675Y0035872D02*
X0195753Y0035872D01*
X0191184Y0035872D02*
X0190816Y0035872D01*
X0190816Y0037470D02*
X0191184Y0037470D01*
X0191184Y0039069D02*
X0190816Y0039069D01*
X0190816Y0042266D02*
X0191184Y0042266D01*
X0191184Y0043864D02*
X0190816Y0043864D01*
X0190816Y0047061D02*
X0191184Y0047061D01*
X0191184Y0048660D02*
X0190816Y0048660D01*
X0190816Y0034273D02*
X0191184Y0034273D01*
X0191184Y0032675D02*
X0190816Y0032675D01*
X0190816Y0031076D02*
X0191184Y0031076D01*
X0192765Y0031076D02*
X0230474Y0031076D01*
X0231075Y0029478D02*
X0194027Y0029478D01*
X0195375Y0027879D02*
X0232399Y0027879D01*
X0235520Y0027879D02*
X0236480Y0027879D01*
X0236480Y0029478D02*
X0235520Y0029478D01*
X0235520Y0031076D02*
X0236480Y0031076D01*
X0219408Y0103009D02*
X0030782Y0103009D01*
X0029529Y0104608D02*
X0220266Y0104608D01*
X0225600Y0117396D02*
X0226400Y0117396D01*
X0226400Y0118994D02*
X0225600Y0118994D01*
X0118688Y0205314D02*
X0118351Y0205314D01*
X0111995Y0205314D02*
X0111375Y0205314D01*
X0106970Y0192526D02*
X0103825Y0192526D01*
X0099749Y0192526D02*
X0097890Y0192526D01*
X0026400Y0104608D02*
X0025600Y0104608D01*
X0025600Y0103009D02*
X0026400Y0103009D01*
X0026400Y0101411D02*
X0025600Y0101411D01*
X0025600Y0099812D02*
X0026400Y0099812D01*
X0026400Y0098214D02*
X0025600Y0098214D01*
X0025600Y0096615D02*
X0026400Y0096615D01*
D20*
X0111000Y0255500D03*
M02*
