%
M48
M72
T01C0.0236
T02C0.0320
T03C0.0350
T04C0.0394
T05C0.0480
T06C0.0512
T07C0.0591
T08C0.0610
T09C0.0700
T10C0.1300
T11C0.1358
%
T01
X11100Y25550
T02
X9600Y24050
X8600Y24050
X17100Y23550
X18100Y23550
X17600Y19050
X18600Y19050
X25600Y14050
X26600Y14050
X26600Y11550
X27600Y11550
X27600Y9050
X26600Y9050
T03
X12187Y19932
X11517Y19932
X10848Y19932
X10179Y19932
X9509Y19932
X9509Y27432
X10179Y27432
X10848Y27432
X11517Y27432
X12187Y27432
T04
X11600Y30550
X13600Y30550
X22400Y26950
X22400Y24950
X25600Y24550
X26900Y24950
X26900Y26950
X25600Y22550
X25600Y19550
X25600Y17550
X29100Y14550
X31100Y14550
X34400Y21100
X34400Y23100
X20600Y21550
X18600Y21550
X25600Y8050
X25600Y6050
X21600Y5550
X21600Y7550
X19100Y4550
X19100Y3550
X19100Y2550
X19100Y1550
X4100Y3550
X4100Y4550
X4100Y5550
X4100Y6550
T05
X2600Y10050
X2600Y13050
X2600Y16050
X22600Y14550
X22600Y13050
X22600Y11550
T06
X23600Y5782
X23600Y3223
X27600Y3223
X27600Y5782
X31600Y5782
X31600Y3223
X36100Y3223
X36100Y5782
X36600Y10223
X36600Y12782
X32100Y12782
X32100Y10223
X32100Y18223
X32100Y20782
X28100Y20223
X28100Y22782
X23100Y22782
X23100Y20223
X24600Y27723
X24600Y30282
X20100Y30282
X20100Y27723
X15600Y27723
X15600Y30282
X29100Y30282
X29100Y27723
X33100Y27723
X33100Y30282
X37100Y28782
X37100Y26223
X36600Y20782
X36600Y18223
T07
X37750Y21707
X33250Y21707
X29250Y23707
X24250Y23707
X25750Y31207
X30250Y31207
X34250Y31207
X38250Y29707
X21250Y31207
X16750Y31207
X33250Y13707
X37750Y13707
X37250Y6707
X32750Y6707
X28750Y6707
X24750Y6707
T08
X4100Y23050
X4100Y25050
T09
X22600Y16050
X22600Y10050
T10
X1100Y1550
X38500Y1550
X38500Y31050
X1100Y31050
T11
X4100Y27940
X4100Y20160
M30
