G04 EAGLE Gerber X2 export*
%TF.Part,Single*%
%TF.FileFunction,Other,Solder side*%
%TF.FilePolarity,Positive*%
%TF.GenerationSoftware,Autodesk,EAGLE,9.1.0*%
%TF.CreationDate,2018-07-07T03:42:43Z*%
G75*
%MOMM*%
%FSLAX34Y34*%
%LPD*%
%AMOC8*
5,1,8,0,0,1.08239X$1,22.5*%
G01*
%ADD10R,1.600000X1.800000*%
%ADD11C,1.320800*%
%ADD12R,1.600000X1.803000*%
%ADD13C,1.524000*%
%ADD14C,1.508000*%
%ADD15R,1.803000X1.600000*%
%ADD16R,1.800000X1.600000*%
%ADD17C,0.508000*%
%ADD18C,0.254000*%
%ADD19C,0.756400*%
%ADD20C,0.304800*%

G36*
X293157Y11939D02*
X293157Y11939D01*
X293251Y11954D01*
X293346Y11963D01*
X293372Y11974D01*
X293399Y11979D01*
X293484Y12023D01*
X293571Y12061D01*
X293592Y12080D01*
X293617Y12094D01*
X293682Y12163D01*
X293753Y12227D01*
X293767Y12251D01*
X293786Y12272D01*
X293826Y12359D01*
X293873Y12442D01*
X293878Y12469D01*
X293890Y12495D01*
X293900Y12590D01*
X293918Y12683D01*
X293914Y12711D01*
X293917Y12739D01*
X293897Y12833D01*
X293883Y12927D01*
X293869Y12959D01*
X293865Y12980D01*
X293848Y13008D01*
X293816Y13081D01*
X292647Y15105D01*
X290829Y21889D01*
X290829Y28911D01*
X292647Y35695D01*
X296158Y41776D01*
X301124Y46742D01*
X305181Y49084D01*
X305233Y49127D01*
X305291Y49162D01*
X305328Y49204D01*
X305371Y49240D01*
X305407Y49297D01*
X305451Y49348D01*
X305472Y49401D01*
X305502Y49448D01*
X305518Y49514D01*
X305543Y49577D01*
X305552Y49655D01*
X305559Y49687D01*
X305557Y49708D01*
X305561Y49743D01*
X305561Y109634D01*
X305558Y109654D01*
X305560Y109673D01*
X305538Y109775D01*
X305522Y109877D01*
X305512Y109894D01*
X305508Y109914D01*
X305455Y110003D01*
X305406Y110094D01*
X305392Y110108D01*
X305382Y110125D01*
X305303Y110192D01*
X305228Y110264D01*
X305210Y110272D01*
X305195Y110285D01*
X305099Y110324D01*
X305005Y110367D01*
X304985Y110369D01*
X304967Y110377D01*
X304800Y110395D01*
X302997Y110395D01*
X299665Y111775D01*
X297115Y114325D01*
X295735Y117657D01*
X295735Y136343D01*
X297115Y139675D01*
X299665Y142225D01*
X302997Y143605D01*
X304800Y143605D01*
X304820Y143608D01*
X304839Y143606D01*
X304941Y143628D01*
X305043Y143644D01*
X305060Y143654D01*
X305080Y143658D01*
X305169Y143711D01*
X305260Y143760D01*
X305274Y143774D01*
X305291Y143784D01*
X305358Y143863D01*
X305430Y143938D01*
X305438Y143956D01*
X305451Y143971D01*
X305490Y144067D01*
X305533Y144161D01*
X305535Y144181D01*
X305543Y144199D01*
X305561Y144366D01*
X305561Y185834D01*
X305558Y185854D01*
X305560Y185873D01*
X305538Y185975D01*
X305522Y186077D01*
X305512Y186094D01*
X305508Y186114D01*
X305455Y186203D01*
X305406Y186294D01*
X305392Y186308D01*
X305382Y186325D01*
X305303Y186392D01*
X305228Y186464D01*
X305210Y186472D01*
X305195Y186485D01*
X305099Y186524D01*
X305005Y186567D01*
X304985Y186569D01*
X304967Y186577D01*
X304800Y186595D01*
X302997Y186595D01*
X299665Y187975D01*
X297115Y190525D01*
X295735Y193857D01*
X295735Y212543D01*
X297115Y215875D01*
X299665Y218425D01*
X302997Y219805D01*
X304800Y219805D01*
X304820Y219808D01*
X304839Y219806D01*
X304941Y219828D01*
X305043Y219844D01*
X305060Y219854D01*
X305080Y219858D01*
X305169Y219911D01*
X305260Y219960D01*
X305274Y219974D01*
X305291Y219984D01*
X305358Y220063D01*
X305430Y220138D01*
X305438Y220156D01*
X305451Y220171D01*
X305490Y220267D01*
X305533Y220361D01*
X305535Y220381D01*
X305543Y220399D01*
X305561Y220566D01*
X305561Y262034D01*
X305558Y262054D01*
X305560Y262073D01*
X305538Y262175D01*
X305522Y262277D01*
X305512Y262294D01*
X305508Y262314D01*
X305455Y262403D01*
X305406Y262494D01*
X305392Y262508D01*
X305382Y262525D01*
X305303Y262592D01*
X305228Y262664D01*
X305210Y262672D01*
X305195Y262685D01*
X305099Y262724D01*
X305005Y262767D01*
X304985Y262769D01*
X304967Y262777D01*
X304800Y262795D01*
X302997Y262795D01*
X299665Y264175D01*
X297115Y266725D01*
X295735Y270057D01*
X295735Y288743D01*
X297115Y292075D01*
X299665Y294625D01*
X302997Y296005D01*
X304800Y296005D01*
X304820Y296008D01*
X304839Y296006D01*
X304941Y296028D01*
X305043Y296044D01*
X305060Y296054D01*
X305080Y296058D01*
X305169Y296111D01*
X305260Y296160D01*
X305274Y296174D01*
X305291Y296184D01*
X305358Y296263D01*
X305430Y296338D01*
X305438Y296356D01*
X305451Y296371D01*
X305490Y296467D01*
X305533Y296561D01*
X305535Y296581D01*
X305543Y296599D01*
X305561Y296766D01*
X305561Y318557D01*
X305550Y318623D01*
X305549Y318691D01*
X305531Y318744D01*
X305522Y318799D01*
X305490Y318859D01*
X305467Y318923D01*
X305433Y318967D01*
X305406Y319017D01*
X305358Y319063D01*
X305316Y319117D01*
X305252Y319163D01*
X305228Y319186D01*
X305209Y319195D01*
X305181Y319216D01*
X301124Y321558D01*
X296158Y326524D01*
X292647Y332605D01*
X290829Y339389D01*
X290829Y342900D01*
X290826Y342920D01*
X290828Y342939D01*
X290806Y343041D01*
X290790Y343143D01*
X290780Y343160D01*
X290776Y343180D01*
X290723Y343269D01*
X290674Y343360D01*
X290660Y343374D01*
X290650Y343391D01*
X290571Y343458D01*
X290496Y343530D01*
X290478Y343538D01*
X290463Y343551D01*
X290367Y343590D01*
X290273Y343633D01*
X290253Y343635D01*
X290235Y343643D01*
X290068Y343661D01*
X52832Y343661D01*
X52812Y343658D01*
X52793Y343660D01*
X52691Y343638D01*
X52589Y343622D01*
X52572Y343612D01*
X52552Y343608D01*
X52463Y343555D01*
X52372Y343506D01*
X52358Y343492D01*
X52341Y343482D01*
X52274Y343403D01*
X52202Y343328D01*
X52194Y343310D01*
X52181Y343295D01*
X52142Y343199D01*
X52099Y343105D01*
X52097Y343085D01*
X52089Y343067D01*
X52071Y342900D01*
X52071Y339389D01*
X50253Y332605D01*
X46742Y326524D01*
X41776Y321558D01*
X35695Y318047D01*
X28911Y316229D01*
X21889Y316229D01*
X15105Y318047D01*
X13081Y319216D01*
X12992Y319250D01*
X12905Y319290D01*
X12877Y319293D01*
X12851Y319303D01*
X12755Y319306D01*
X12661Y319317D01*
X12633Y319311D01*
X12605Y319312D01*
X12513Y319285D01*
X12420Y319265D01*
X12396Y319250D01*
X12369Y319242D01*
X12291Y319187D01*
X12209Y319138D01*
X12191Y319117D01*
X12168Y319101D01*
X12111Y319024D01*
X12049Y318951D01*
X12039Y318925D01*
X12022Y318903D01*
X11993Y318812D01*
X11957Y318723D01*
X11953Y318688D01*
X11947Y318668D01*
X11947Y318635D01*
X11939Y318557D01*
X11939Y49743D01*
X11954Y49649D01*
X11963Y49554D01*
X11974Y49528D01*
X11979Y49501D01*
X12023Y49416D01*
X12061Y49329D01*
X12080Y49308D01*
X12094Y49283D01*
X12163Y49218D01*
X12227Y49147D01*
X12251Y49133D01*
X12272Y49114D01*
X12359Y49074D01*
X12442Y49027D01*
X12469Y49022D01*
X12495Y49010D01*
X12590Y49000D01*
X12683Y48982D01*
X12711Y48986D01*
X12739Y48983D01*
X12833Y49003D01*
X12927Y49017D01*
X12959Y49031D01*
X12980Y49035D01*
X13008Y49052D01*
X13081Y49084D01*
X15105Y50253D01*
X21889Y52071D01*
X28911Y52071D01*
X35695Y50253D01*
X41776Y46742D01*
X46742Y41776D01*
X50253Y35695D01*
X52071Y28911D01*
X52071Y21889D01*
X50253Y15105D01*
X49084Y13081D01*
X49050Y12992D01*
X49010Y12905D01*
X49007Y12877D01*
X48997Y12851D01*
X48994Y12755D01*
X48983Y12661D01*
X48989Y12633D01*
X48988Y12605D01*
X49015Y12513D01*
X49035Y12420D01*
X49050Y12396D01*
X49058Y12369D01*
X49113Y12291D01*
X49162Y12209D01*
X49183Y12191D01*
X49199Y12168D01*
X49276Y12111D01*
X49348Y12049D01*
X49375Y12039D01*
X49397Y12022D01*
X49488Y11993D01*
X49577Y11957D01*
X49612Y11953D01*
X49632Y11947D01*
X49665Y11947D01*
X49743Y11939D01*
X293157Y11939D01*
G37*
%LPC*%
G36*
X150597Y21495D02*
X150597Y21495D01*
X147265Y22875D01*
X144715Y25425D01*
X143335Y28757D01*
X143335Y47443D01*
X144715Y50775D01*
X145820Y51880D01*
X145862Y51938D01*
X145911Y51990D01*
X145933Y52037D01*
X145964Y52079D01*
X145985Y52148D01*
X146015Y52213D01*
X146021Y52265D01*
X146036Y52315D01*
X146034Y52386D01*
X146042Y52457D01*
X146031Y52508D01*
X146030Y52560D01*
X146005Y52628D01*
X145990Y52698D01*
X145963Y52743D01*
X145945Y52791D01*
X145900Y52847D01*
X145864Y52909D01*
X145824Y52943D01*
X145792Y52983D01*
X145731Y53022D01*
X145677Y53069D01*
X145629Y53088D01*
X145585Y53116D01*
X145515Y53134D01*
X145449Y53161D01*
X145377Y53169D01*
X145346Y53177D01*
X145323Y53175D01*
X145282Y53179D01*
X144548Y53179D01*
X132290Y65437D01*
X132216Y65490D01*
X132147Y65550D01*
X132117Y65562D01*
X132091Y65581D01*
X132004Y65608D01*
X131919Y65642D01*
X131878Y65646D01*
X131856Y65653D01*
X131823Y65652D01*
X131752Y65660D01*
X116848Y65660D01*
X115955Y66553D01*
X115955Y85847D01*
X116848Y86740D01*
X121924Y86740D01*
X121944Y86743D01*
X121963Y86741D01*
X122065Y86763D01*
X122167Y86779D01*
X122184Y86789D01*
X122204Y86793D01*
X122293Y86846D01*
X122384Y86895D01*
X122398Y86909D01*
X122415Y86919D01*
X122482Y86998D01*
X122554Y87073D01*
X122562Y87091D01*
X122575Y87106D01*
X122614Y87202D01*
X122657Y87296D01*
X122659Y87316D01*
X122667Y87334D01*
X122685Y87501D01*
X122685Y102999D01*
X122682Y103019D01*
X122684Y103038D01*
X122662Y103140D01*
X122646Y103242D01*
X122636Y103259D01*
X122632Y103279D01*
X122579Y103368D01*
X122530Y103459D01*
X122516Y103473D01*
X122506Y103490D01*
X122427Y103557D01*
X122352Y103629D01*
X122334Y103637D01*
X122319Y103650D01*
X122223Y103689D01*
X122129Y103732D01*
X122109Y103734D01*
X122091Y103742D01*
X121924Y103760D01*
X116848Y103760D01*
X115955Y104653D01*
X115955Y123947D01*
X116848Y124840D01*
X134112Y124840D01*
X135005Y123947D01*
X135005Y104653D01*
X134112Y103760D01*
X129036Y103760D01*
X129016Y103757D01*
X128997Y103759D01*
X128895Y103737D01*
X128793Y103721D01*
X128776Y103711D01*
X128756Y103707D01*
X128667Y103654D01*
X128576Y103605D01*
X128562Y103591D01*
X128545Y103581D01*
X128478Y103502D01*
X128406Y103427D01*
X128398Y103409D01*
X128385Y103394D01*
X128346Y103298D01*
X128303Y103204D01*
X128301Y103184D01*
X128293Y103166D01*
X128275Y102999D01*
X128275Y87501D01*
X128278Y87481D01*
X128276Y87462D01*
X128298Y87360D01*
X128314Y87258D01*
X128324Y87241D01*
X128328Y87221D01*
X128381Y87132D01*
X128430Y87041D01*
X128444Y87027D01*
X128454Y87010D01*
X128533Y86943D01*
X128608Y86871D01*
X128626Y86863D01*
X128641Y86850D01*
X128737Y86811D01*
X128831Y86768D01*
X128851Y86766D01*
X128869Y86758D01*
X129036Y86740D01*
X134112Y86740D01*
X135005Y85847D01*
X135005Y70943D01*
X135019Y70853D01*
X135027Y70762D01*
X135039Y70732D01*
X135044Y70700D01*
X135087Y70620D01*
X135123Y70536D01*
X135149Y70504D01*
X135160Y70483D01*
X135183Y70461D01*
X135228Y70405D01*
X146641Y58992D01*
X146715Y58939D01*
X146784Y58879D01*
X146814Y58867D01*
X146840Y58848D01*
X146927Y58821D01*
X147012Y58787D01*
X147053Y58783D01*
X147075Y58776D01*
X147108Y58777D01*
X147179Y58769D01*
X161084Y58769D01*
X169058Y50794D01*
X169074Y50783D01*
X169087Y50767D01*
X169174Y50711D01*
X169258Y50651D01*
X169277Y50645D01*
X169294Y50634D01*
X169394Y50609D01*
X169493Y50578D01*
X169513Y50579D01*
X169532Y50574D01*
X169635Y50582D01*
X169739Y50585D01*
X169758Y50592D01*
X169777Y50593D01*
X169872Y50633D01*
X169970Y50669D01*
X169986Y50682D01*
X170004Y50689D01*
X170135Y50794D01*
X172665Y53325D01*
X175997Y54705D01*
X179603Y54705D01*
X182935Y53325D01*
X185485Y50775D01*
X186865Y47443D01*
X186865Y28757D01*
X185485Y25425D01*
X182935Y22875D01*
X179603Y21495D01*
X175997Y21495D01*
X172665Y22875D01*
X170115Y25425D01*
X168735Y28757D01*
X168735Y42897D01*
X168721Y42987D01*
X168713Y43078D01*
X168701Y43108D01*
X168696Y43140D01*
X168653Y43220D01*
X168617Y43304D01*
X168591Y43336D01*
X168580Y43357D01*
X168557Y43379D01*
X168512Y43435D01*
X162021Y49926D01*
X161942Y49983D01*
X161867Y50045D01*
X161843Y50055D01*
X161822Y50070D01*
X161729Y50098D01*
X161638Y50133D01*
X161612Y50134D01*
X161587Y50142D01*
X161489Y50140D01*
X161392Y50144D01*
X161367Y50136D01*
X161341Y50136D01*
X161249Y50102D01*
X161156Y50075D01*
X161134Y50060D01*
X161110Y50051D01*
X161034Y49990D01*
X160954Y49935D01*
X160938Y49914D01*
X160918Y49898D01*
X160865Y49816D01*
X160807Y49738D01*
X160799Y49713D01*
X160785Y49691D01*
X160761Y49596D01*
X160731Y49504D01*
X160731Y49478D01*
X160725Y49452D01*
X160732Y49355D01*
X160733Y49258D01*
X160742Y49226D01*
X160744Y49207D01*
X160757Y49177D01*
X160780Y49097D01*
X161465Y47443D01*
X161465Y28757D01*
X160085Y25425D01*
X157535Y22875D01*
X154203Y21495D01*
X150597Y21495D01*
G37*
%LPD*%
%LPC*%
G36*
X28168Y78375D02*
X28168Y78375D01*
X27275Y79268D01*
X27275Y98532D01*
X28168Y99425D01*
X33274Y99425D01*
X33294Y99428D01*
X33313Y99426D01*
X33415Y99448D01*
X33517Y99464D01*
X33534Y99474D01*
X33554Y99478D01*
X33643Y99531D01*
X33734Y99580D01*
X33748Y99594D01*
X33765Y99604D01*
X33832Y99683D01*
X33904Y99758D01*
X33912Y99776D01*
X33925Y99791D01*
X33964Y99887D01*
X34007Y99981D01*
X34009Y100001D01*
X34017Y100019D01*
X34035Y100186D01*
X34035Y107947D01*
X34016Y108061D01*
X33999Y108178D01*
X33997Y108183D01*
X33996Y108189D01*
X33941Y108292D01*
X33888Y108397D01*
X33883Y108401D01*
X33880Y108407D01*
X33796Y108487D01*
X33712Y108569D01*
X33706Y108573D01*
X33702Y108576D01*
X33685Y108584D01*
X33565Y108650D01*
X33495Y108679D01*
X31209Y110965D01*
X29971Y113953D01*
X29971Y117187D01*
X31209Y120175D01*
X33495Y122461D01*
X36483Y123699D01*
X39717Y123699D01*
X42705Y122461D01*
X44991Y120175D01*
X45020Y120105D01*
X45081Y120006D01*
X45142Y119905D01*
X45146Y119901D01*
X45150Y119896D01*
X45240Y119821D01*
X45329Y119745D01*
X45334Y119743D01*
X45339Y119739D01*
X45448Y119697D01*
X45557Y119653D01*
X45564Y119652D01*
X45569Y119651D01*
X45587Y119650D01*
X45723Y119635D01*
X51591Y119635D01*
X51681Y119649D01*
X51772Y119657D01*
X51802Y119669D01*
X51834Y119674D01*
X51914Y119717D01*
X51998Y119753D01*
X52031Y119779D01*
X52051Y119790D01*
X52073Y119813D01*
X52129Y119858D01*
X52737Y120466D01*
X52791Y120540D01*
X52850Y120609D01*
X52862Y120639D01*
X52881Y120665D01*
X52908Y120752D01*
X52942Y120837D01*
X52946Y120878D01*
X52953Y120900D01*
X52952Y120933D01*
X52960Y121004D01*
X52960Y134112D01*
X53853Y135005D01*
X68757Y135005D01*
X68847Y135019D01*
X68938Y135027D01*
X68968Y135039D01*
X69000Y135044D01*
X69080Y135087D01*
X69164Y135123D01*
X69196Y135149D01*
X69217Y135160D01*
X69239Y135183D01*
X69295Y135228D01*
X78262Y144195D01*
X78315Y144269D01*
X78375Y144338D01*
X78387Y144368D01*
X78406Y144394D01*
X78433Y144481D01*
X78467Y144566D01*
X78471Y144607D01*
X78478Y144629D01*
X78477Y144662D01*
X78485Y144733D01*
X78485Y149915D01*
X78471Y150005D01*
X78463Y150096D01*
X78451Y150125D01*
X78446Y150157D01*
X78403Y150238D01*
X78367Y150322D01*
X78341Y150354D01*
X78330Y150375D01*
X78307Y150397D01*
X78262Y150453D01*
X75973Y152742D01*
X75973Y157138D01*
X79082Y160247D01*
X83478Y160247D01*
X86587Y157138D01*
X86587Y152742D01*
X84298Y150453D01*
X84245Y150379D01*
X84185Y150309D01*
X84173Y150279D01*
X84154Y150253D01*
X84127Y150166D01*
X84093Y150081D01*
X84089Y150040D01*
X84082Y150018D01*
X84083Y149986D01*
X84075Y149915D01*
X84075Y142102D01*
X74263Y132290D01*
X74209Y132216D01*
X74150Y132147D01*
X74138Y132117D01*
X74119Y132091D01*
X74092Y132004D01*
X74058Y131919D01*
X74054Y131878D01*
X74047Y131856D01*
X74048Y131823D01*
X74040Y131752D01*
X74040Y116848D01*
X73147Y115955D01*
X60039Y115955D01*
X59949Y115941D01*
X59858Y115933D01*
X59828Y115921D01*
X59796Y115916D01*
X59716Y115873D01*
X59632Y115837D01*
X59600Y115811D01*
X59579Y115800D01*
X59557Y115777D01*
X59501Y115732D01*
X55274Y111505D01*
X45723Y111505D01*
X45608Y111486D01*
X45492Y111469D01*
X45487Y111467D01*
X45481Y111466D01*
X45378Y111411D01*
X45273Y111358D01*
X45269Y111353D01*
X45263Y111350D01*
X45183Y111266D01*
X45101Y111182D01*
X45097Y111176D01*
X45094Y111172D01*
X45086Y111155D01*
X45020Y111035D01*
X44991Y110965D01*
X42705Y108679D01*
X42635Y108650D01*
X42536Y108589D01*
X42435Y108528D01*
X42431Y108524D01*
X42426Y108520D01*
X42351Y108430D01*
X42275Y108341D01*
X42273Y108336D01*
X42269Y108331D01*
X42227Y108222D01*
X42183Y108113D01*
X42182Y108106D01*
X42181Y108101D01*
X42180Y108083D01*
X42165Y107947D01*
X42165Y100186D01*
X42168Y100166D01*
X42166Y100147D01*
X42188Y100045D01*
X42204Y99943D01*
X42214Y99926D01*
X42218Y99906D01*
X42271Y99817D01*
X42320Y99726D01*
X42334Y99712D01*
X42344Y99695D01*
X42423Y99628D01*
X42498Y99556D01*
X42516Y99548D01*
X42531Y99535D01*
X42627Y99496D01*
X42721Y99453D01*
X42741Y99451D01*
X42759Y99443D01*
X42926Y99425D01*
X45432Y99425D01*
X46325Y98532D01*
X46325Y79268D01*
X45432Y78375D01*
X28168Y78375D01*
G37*
%LPD*%
%LPC*%
G36*
X53853Y144395D02*
X53853Y144395D01*
X52960Y145288D01*
X52960Y158396D01*
X52946Y158486D01*
X52938Y158577D01*
X52926Y158607D01*
X52921Y158639D01*
X52878Y158719D01*
X52842Y158803D01*
X52816Y158836D01*
X52805Y158856D01*
X52782Y158878D01*
X52737Y158934D01*
X52129Y159542D01*
X52055Y159596D01*
X51986Y159655D01*
X51956Y159667D01*
X51930Y159686D01*
X51842Y159713D01*
X51758Y159747D01*
X51717Y159751D01*
X51694Y159758D01*
X51662Y159757D01*
X51591Y159765D01*
X45723Y159765D01*
X45608Y159746D01*
X45492Y159729D01*
X45487Y159727D01*
X45481Y159726D01*
X45378Y159671D01*
X45273Y159618D01*
X45269Y159613D01*
X45263Y159610D01*
X45183Y159526D01*
X45101Y159442D01*
X45097Y159436D01*
X45094Y159432D01*
X45086Y159415D01*
X45020Y159295D01*
X44991Y159225D01*
X42705Y156939D01*
X39717Y155701D01*
X36483Y155701D01*
X33495Y156939D01*
X31209Y159225D01*
X29971Y162213D01*
X29971Y165447D01*
X31209Y168435D01*
X32512Y169738D01*
X32561Y169806D01*
X32604Y169851D01*
X32609Y169864D01*
X32625Y169881D01*
X32637Y169912D01*
X32656Y169938D01*
X32679Y170013D01*
X32707Y170074D01*
X32709Y170090D01*
X32717Y170110D01*
X32721Y170151D01*
X32728Y170173D01*
X32727Y170205D01*
X32735Y170276D01*
X32735Y179214D01*
X32732Y179234D01*
X32734Y179253D01*
X32712Y179355D01*
X32696Y179457D01*
X32686Y179474D01*
X32682Y179494D01*
X32629Y179583D01*
X32580Y179674D01*
X32566Y179688D01*
X32556Y179705D01*
X32477Y179772D01*
X32402Y179844D01*
X32384Y179852D01*
X32369Y179865D01*
X32273Y179904D01*
X32179Y179947D01*
X32159Y179949D01*
X32141Y179957D01*
X31974Y179975D01*
X28168Y179975D01*
X27275Y180868D01*
X27275Y200132D01*
X28168Y201025D01*
X45432Y201025D01*
X46325Y200132D01*
X46325Y180868D01*
X45432Y179975D01*
X41626Y179975D01*
X41606Y179972D01*
X41587Y179974D01*
X41485Y179952D01*
X41383Y179936D01*
X41366Y179926D01*
X41346Y179922D01*
X41257Y179869D01*
X41166Y179820D01*
X41152Y179806D01*
X41135Y179796D01*
X41068Y179717D01*
X40996Y179642D01*
X40988Y179624D01*
X40975Y179609D01*
X40936Y179513D01*
X40893Y179419D01*
X40891Y179399D01*
X40883Y179381D01*
X40865Y179214D01*
X40865Y171992D01*
X40884Y171876D01*
X40901Y171761D01*
X40903Y171755D01*
X40904Y171749D01*
X40959Y171646D01*
X41012Y171542D01*
X41017Y171537D01*
X41020Y171532D01*
X41104Y171452D01*
X41188Y171369D01*
X41194Y171366D01*
X41198Y171362D01*
X41215Y171355D01*
X41335Y171289D01*
X42705Y170721D01*
X44991Y168435D01*
X45020Y168365D01*
X45082Y168265D01*
X45142Y168165D01*
X45146Y168161D01*
X45150Y168156D01*
X45240Y168081D01*
X45329Y168005D01*
X45334Y168003D01*
X45339Y167999D01*
X45448Y167957D01*
X45557Y167913D01*
X45564Y167912D01*
X45569Y167911D01*
X45587Y167910D01*
X45723Y167895D01*
X55274Y167895D01*
X59501Y163668D01*
X59575Y163615D01*
X59644Y163555D01*
X59674Y163543D01*
X59700Y163524D01*
X59787Y163497D01*
X59872Y163463D01*
X59913Y163459D01*
X59935Y163452D01*
X59968Y163453D01*
X60039Y163445D01*
X65024Y163445D01*
X65044Y163448D01*
X65063Y163446D01*
X65165Y163468D01*
X65267Y163484D01*
X65284Y163494D01*
X65304Y163498D01*
X65393Y163551D01*
X65484Y163600D01*
X65498Y163614D01*
X65515Y163624D01*
X65582Y163703D01*
X65654Y163778D01*
X65662Y163796D01*
X65675Y163811D01*
X65714Y163907D01*
X65757Y164001D01*
X65759Y164021D01*
X65767Y164039D01*
X65785Y164206D01*
X65785Y165155D01*
X65771Y165245D01*
X65763Y165336D01*
X65751Y165365D01*
X65746Y165397D01*
X65703Y165478D01*
X65667Y165562D01*
X65641Y165594D01*
X65630Y165615D01*
X65607Y165637D01*
X65562Y165693D01*
X63273Y167982D01*
X63273Y172378D01*
X66382Y175487D01*
X70778Y175487D01*
X73887Y172378D01*
X73887Y167982D01*
X71598Y165693D01*
X71545Y165619D01*
X71485Y165549D01*
X71473Y165519D01*
X71454Y165493D01*
X71427Y165406D01*
X71393Y165321D01*
X71389Y165280D01*
X71382Y165258D01*
X71383Y165226D01*
X71375Y165155D01*
X71375Y164206D01*
X71378Y164186D01*
X71376Y164167D01*
X71398Y164065D01*
X71414Y163963D01*
X71424Y163946D01*
X71428Y163926D01*
X71481Y163837D01*
X71530Y163746D01*
X71544Y163732D01*
X71554Y163715D01*
X71633Y163648D01*
X71708Y163576D01*
X71726Y163568D01*
X71741Y163555D01*
X71837Y163516D01*
X71931Y163473D01*
X71951Y163471D01*
X71969Y163463D01*
X72136Y163445D01*
X73147Y163445D01*
X74040Y162552D01*
X74040Y145288D01*
X73147Y144395D01*
X53853Y144395D01*
G37*
%LPD*%
%LPC*%
G36*
X145288Y103760D02*
X145288Y103760D01*
X144395Y104653D01*
X144395Y123947D01*
X145288Y124840D01*
X162552Y124840D01*
X163445Y123947D01*
X163445Y118110D01*
X163448Y118090D01*
X163446Y118071D01*
X163468Y117969D01*
X163484Y117867D01*
X163494Y117850D01*
X163498Y117830D01*
X163551Y117741D01*
X163600Y117650D01*
X163614Y117636D01*
X163624Y117619D01*
X163703Y117552D01*
X163778Y117480D01*
X163796Y117472D01*
X163811Y117459D01*
X163907Y117420D01*
X164001Y117377D01*
X164021Y117375D01*
X164039Y117367D01*
X164206Y117349D01*
X176222Y117349D01*
X176312Y117363D01*
X176403Y117371D01*
X176433Y117383D01*
X176465Y117388D01*
X176545Y117431D01*
X176629Y117467D01*
X176661Y117493D01*
X176682Y117504D01*
X176704Y117527D01*
X176760Y117572D01*
X199072Y139884D01*
X199125Y139958D01*
X199185Y140027D01*
X199197Y140057D01*
X199216Y140084D01*
X199243Y140171D01*
X199277Y140255D01*
X199281Y140296D01*
X199288Y140319D01*
X199287Y140351D01*
X199295Y140422D01*
X199295Y141503D01*
X200675Y144835D01*
X203225Y147385D01*
X206557Y148765D01*
X225243Y148765D01*
X228575Y147385D01*
X231125Y144835D01*
X232505Y141503D01*
X232505Y137897D01*
X231125Y134565D01*
X228575Y132015D01*
X225243Y130635D01*
X206557Y130635D01*
X203225Y132015D01*
X202064Y133176D01*
X202048Y133188D01*
X202036Y133203D01*
X201948Y133259D01*
X201865Y133320D01*
X201846Y133326D01*
X201829Y133336D01*
X201728Y133362D01*
X201630Y133392D01*
X201610Y133392D01*
X201590Y133396D01*
X201487Y133388D01*
X201384Y133386D01*
X201365Y133379D01*
X201345Y133377D01*
X201250Y133337D01*
X201153Y133301D01*
X201137Y133289D01*
X201119Y133281D01*
X200988Y133176D01*
X179063Y111251D01*
X164206Y111251D01*
X164186Y111248D01*
X164167Y111250D01*
X164065Y111228D01*
X163963Y111212D01*
X163946Y111202D01*
X163926Y111198D01*
X163837Y111145D01*
X163746Y111096D01*
X163732Y111082D01*
X163715Y111072D01*
X163648Y110993D01*
X163576Y110918D01*
X163568Y110900D01*
X163555Y110885D01*
X163516Y110789D01*
X163473Y110695D01*
X163471Y110675D01*
X163463Y110657D01*
X163445Y110490D01*
X163445Y104653D01*
X162552Y103760D01*
X145288Y103760D01*
G37*
%LPD*%
%LPC*%
G36*
X145288Y65660D02*
X145288Y65660D01*
X144395Y66553D01*
X144395Y85847D01*
X145288Y86740D01*
X160192Y86740D01*
X160282Y86754D01*
X160373Y86762D01*
X160403Y86774D01*
X160435Y86779D01*
X160515Y86822D01*
X160599Y86858D01*
X160631Y86884D01*
X160652Y86895D01*
X160674Y86918D01*
X160730Y86963D01*
X190862Y117095D01*
X199197Y117095D01*
X199312Y117114D01*
X199428Y117131D01*
X199434Y117133D01*
X199440Y117134D01*
X199543Y117189D01*
X199648Y117242D01*
X199652Y117247D01*
X199657Y117250D01*
X199737Y117334D01*
X199820Y117418D01*
X199823Y117424D01*
X199827Y117428D01*
X199835Y117445D01*
X199901Y117565D01*
X200675Y119435D01*
X203225Y121985D01*
X206557Y123365D01*
X225243Y123365D01*
X228575Y121985D01*
X231125Y119435D01*
X232505Y116103D01*
X232505Y112497D01*
X231125Y109165D01*
X228575Y106615D01*
X225243Y105235D01*
X206557Y105235D01*
X203225Y106615D01*
X200675Y109165D01*
X199901Y111035D01*
X199839Y111135D01*
X199779Y111235D01*
X199774Y111239D01*
X199771Y111244D01*
X199681Y111319D01*
X199592Y111395D01*
X199586Y111397D01*
X199582Y111401D01*
X199473Y111443D01*
X199364Y111487D01*
X199357Y111488D01*
X199352Y111489D01*
X199334Y111490D01*
X199197Y111505D01*
X193493Y111505D01*
X193403Y111491D01*
X193312Y111483D01*
X193282Y111471D01*
X193250Y111466D01*
X193170Y111423D01*
X193086Y111387D01*
X193054Y111361D01*
X193033Y111350D01*
X193011Y111327D01*
X192955Y111282D01*
X163668Y81995D01*
X163615Y81921D01*
X163555Y81852D01*
X163543Y81822D01*
X163524Y81796D01*
X163497Y81709D01*
X163463Y81624D01*
X163459Y81583D01*
X163452Y81561D01*
X163453Y81528D01*
X163445Y81457D01*
X163445Y66553D01*
X162552Y65660D01*
X145288Y65660D01*
G37*
%LPD*%
%LPC*%
G36*
X155468Y156875D02*
X155468Y156875D01*
X154575Y157768D01*
X154575Y175032D01*
X155468Y175925D01*
X168561Y175925D01*
X168651Y175939D01*
X168742Y175947D01*
X168772Y175959D01*
X168804Y175964D01*
X168884Y176007D01*
X168968Y176043D01*
X169000Y176069D01*
X169021Y176080D01*
X169043Y176103D01*
X169099Y176148D01*
X173512Y180561D01*
X173565Y180635D01*
X173625Y180704D01*
X173637Y180734D01*
X173656Y180760D01*
X173683Y180847D01*
X173717Y180932D01*
X173721Y180973D01*
X173728Y180996D01*
X173727Y181028D01*
X173735Y181099D01*
X173735Y185963D01*
X173721Y186053D01*
X173713Y186144D01*
X173701Y186173D01*
X173696Y186205D01*
X173653Y186286D01*
X173617Y186370D01*
X173591Y186402D01*
X173580Y186423D01*
X173557Y186445D01*
X173512Y186501D01*
X172493Y187520D01*
X172493Y191916D01*
X175602Y195025D01*
X179998Y195025D01*
X183107Y191916D01*
X183107Y187520D01*
X182088Y186501D01*
X182035Y186427D01*
X181975Y186357D01*
X181963Y186327D01*
X181944Y186301D01*
X181917Y186214D01*
X181883Y186129D01*
X181879Y186088D01*
X181872Y186066D01*
X181873Y186034D01*
X181865Y185963D01*
X181865Y177416D01*
X175848Y171399D01*
X175795Y171325D01*
X175735Y171256D01*
X175723Y171226D01*
X175704Y171200D01*
X175677Y171113D01*
X175643Y171028D01*
X175639Y170987D01*
X175632Y170964D01*
X175633Y170932D01*
X175625Y170861D01*
X175625Y157768D01*
X174732Y156875D01*
X155468Y156875D01*
G37*
%LPD*%
%LPC*%
G36*
X168361Y282955D02*
X168361Y282955D01*
X165000Y284347D01*
X162427Y286920D01*
X161035Y290281D01*
X161035Y293919D01*
X162427Y297280D01*
X165000Y299853D01*
X168361Y301245D01*
X187239Y301245D01*
X190600Y299853D01*
X193173Y297280D01*
X194565Y293919D01*
X194565Y290281D01*
X193173Y286920D01*
X190600Y284347D01*
X187239Y282955D01*
X168361Y282955D01*
G37*
%LPD*%
%LPC*%
G36*
X168361Y232155D02*
X168361Y232155D01*
X165000Y233547D01*
X162427Y236120D01*
X161035Y239481D01*
X161035Y243119D01*
X162427Y246480D01*
X165000Y249053D01*
X168361Y250445D01*
X187239Y250445D01*
X190600Y249053D01*
X193173Y246480D01*
X194565Y243119D01*
X194565Y239481D01*
X193173Y236120D01*
X190600Y233547D01*
X187239Y232155D01*
X168361Y232155D01*
G37*
%LPD*%
%LPC*%
G36*
X206557Y156035D02*
X206557Y156035D01*
X203225Y157415D01*
X200675Y159965D01*
X199295Y163297D01*
X199295Y166903D01*
X200675Y170235D01*
X203225Y172785D01*
X206557Y174165D01*
X225243Y174165D01*
X228575Y172785D01*
X231125Y170235D01*
X232505Y166903D01*
X232505Y163297D01*
X231125Y159965D01*
X228575Y157415D01*
X225243Y156035D01*
X206557Y156035D01*
G37*
%LPD*%
%LPC*%
G36*
X125197Y21495D02*
X125197Y21495D01*
X121865Y22875D01*
X119315Y25425D01*
X117935Y28757D01*
X117935Y47443D01*
X119315Y50775D01*
X121865Y53325D01*
X125197Y54705D01*
X128803Y54705D01*
X132135Y53325D01*
X134685Y50775D01*
X136065Y47443D01*
X136065Y28757D01*
X134685Y25425D01*
X132135Y22875D01*
X128803Y21495D01*
X125197Y21495D01*
G37*
%LPD*%
%LPC*%
G36*
X272517Y21495D02*
X272517Y21495D01*
X269185Y22875D01*
X266635Y25425D01*
X265255Y28757D01*
X265255Y47443D01*
X266635Y50775D01*
X269185Y53325D01*
X272517Y54705D01*
X276123Y54705D01*
X279455Y53325D01*
X282005Y50775D01*
X283385Y47443D01*
X283385Y28757D01*
X282005Y25425D01*
X279455Y22875D01*
X276123Y21495D01*
X272517Y21495D01*
G37*
%LPD*%
%LPC*%
G36*
X99797Y21495D02*
X99797Y21495D01*
X96465Y22875D01*
X93915Y25425D01*
X92535Y28757D01*
X92535Y47443D01*
X93915Y50775D01*
X96465Y53325D01*
X99797Y54705D01*
X103403Y54705D01*
X106735Y53325D01*
X109285Y50775D01*
X110665Y47443D01*
X110665Y28757D01*
X109285Y25425D01*
X106735Y22875D01*
X103403Y21495D01*
X99797Y21495D01*
G37*
%LPD*%
%LPC*%
G36*
X74397Y21495D02*
X74397Y21495D01*
X71065Y22875D01*
X68515Y25425D01*
X67135Y28757D01*
X67135Y47443D01*
X68515Y50775D01*
X71065Y53325D01*
X74397Y54705D01*
X78003Y54705D01*
X81335Y53325D01*
X83885Y50775D01*
X85265Y47443D01*
X85265Y28757D01*
X83885Y25425D01*
X81335Y22875D01*
X78003Y21495D01*
X74397Y21495D01*
G37*
%LPD*%
%LPC*%
G36*
X179323Y268223D02*
X179323Y268223D01*
X179323Y276861D01*
X186220Y276861D01*
X187799Y276611D01*
X189320Y276116D01*
X190745Y275390D01*
X192039Y274450D01*
X193170Y273319D01*
X194110Y272025D01*
X194836Y270600D01*
X195331Y269079D01*
X195466Y268223D01*
X179323Y268223D01*
G37*
%LPD*%
%LPC*%
G36*
X160134Y268223D02*
X160134Y268223D01*
X160269Y269079D01*
X160764Y270600D01*
X161490Y272025D01*
X162430Y273319D01*
X163561Y274450D01*
X164855Y275390D01*
X166280Y276116D01*
X167801Y276611D01*
X169380Y276861D01*
X176277Y276861D01*
X176277Y268223D01*
X160134Y268223D01*
G37*
%LPD*%
%LPC*%
G36*
X179323Y256539D02*
X179323Y256539D01*
X179323Y265177D01*
X195466Y265177D01*
X195331Y264321D01*
X194836Y262800D01*
X194110Y261375D01*
X193170Y260081D01*
X192039Y258950D01*
X190745Y258010D01*
X189320Y257284D01*
X187799Y256789D01*
X186220Y256539D01*
X179323Y256539D01*
G37*
%LPD*%
%LPC*%
G36*
X169380Y256539D02*
X169380Y256539D01*
X167801Y256789D01*
X166280Y257284D01*
X164855Y258010D01*
X163561Y258950D01*
X162430Y260081D01*
X161490Y261375D01*
X160764Y262800D01*
X160269Y264321D01*
X160134Y265177D01*
X176277Y265177D01*
X176277Y256539D01*
X169380Y256539D01*
G37*
%LPD*%
%LPC*%
G36*
X217423Y192023D02*
X217423Y192023D01*
X217423Y200581D01*
X224233Y200581D01*
X225801Y200333D01*
X227310Y199842D01*
X228723Y199122D01*
X230007Y198189D01*
X231129Y197067D01*
X232062Y195783D01*
X232782Y194370D01*
X233273Y192861D01*
X233405Y192023D01*
X217423Y192023D01*
G37*
%LPD*%
%LPC*%
G36*
X280923Y280923D02*
X280923Y280923D01*
X280923Y296905D01*
X281761Y296773D01*
X283270Y296282D01*
X284683Y295562D01*
X285967Y294629D01*
X287089Y293507D01*
X288022Y292223D01*
X288742Y290810D01*
X289233Y289301D01*
X289481Y287733D01*
X289481Y280923D01*
X280923Y280923D01*
G37*
%LPD*%
%LPC*%
G36*
X204723Y39623D02*
X204723Y39623D01*
X204723Y55605D01*
X205561Y55473D01*
X207070Y54982D01*
X208483Y54262D01*
X209767Y53329D01*
X210889Y52207D01*
X211822Y50923D01*
X212542Y49510D01*
X213033Y48001D01*
X213281Y46433D01*
X213281Y39623D01*
X204723Y39623D01*
G37*
%LPD*%
%LPC*%
G36*
X280923Y204723D02*
X280923Y204723D01*
X280923Y220705D01*
X281761Y220573D01*
X283270Y220082D01*
X284683Y219362D01*
X285967Y218429D01*
X287089Y217307D01*
X288022Y216023D01*
X288742Y214610D01*
X289233Y213101D01*
X289481Y211533D01*
X289481Y204723D01*
X280923Y204723D01*
G37*
%LPD*%
%LPC*%
G36*
X280923Y128523D02*
X280923Y128523D01*
X280923Y144505D01*
X281761Y144373D01*
X283270Y143882D01*
X284683Y143162D01*
X285967Y142229D01*
X287089Y141107D01*
X288022Y139823D01*
X288742Y138410D01*
X289233Y136901D01*
X289481Y135333D01*
X289481Y128523D01*
X280923Y128523D01*
G37*
%LPD*%
%LPC*%
G36*
X250443Y39623D02*
X250443Y39623D01*
X250443Y55605D01*
X251281Y55473D01*
X252790Y54982D01*
X254203Y54262D01*
X255487Y53329D01*
X256609Y52207D01*
X257542Y50923D01*
X258262Y49510D01*
X258753Y48001D01*
X259001Y46433D01*
X259001Y39623D01*
X250443Y39623D01*
G37*
%LPD*%
%LPC*%
G36*
X280923Y277877D02*
X280923Y277877D01*
X289481Y277877D01*
X289481Y271067D01*
X289233Y269499D01*
X288742Y267990D01*
X288022Y266577D01*
X287089Y265293D01*
X285967Y264171D01*
X284683Y263238D01*
X283270Y262518D01*
X281761Y262027D01*
X280923Y261895D01*
X280923Y277877D01*
G37*
%LPD*%
%LPC*%
G36*
X280923Y125477D02*
X280923Y125477D01*
X289481Y125477D01*
X289481Y118667D01*
X289233Y117099D01*
X288742Y115590D01*
X288022Y114177D01*
X287089Y112893D01*
X285967Y111771D01*
X284683Y110838D01*
X283270Y110118D01*
X281761Y109627D01*
X280923Y109495D01*
X280923Y125477D01*
G37*
%LPD*%
%LPC*%
G36*
X280923Y201677D02*
X280923Y201677D01*
X289481Y201677D01*
X289481Y194867D01*
X289233Y193299D01*
X288742Y191790D01*
X288022Y190377D01*
X287089Y189093D01*
X285967Y187971D01*
X284683Y187038D01*
X283270Y186318D01*
X281761Y185827D01*
X280923Y185695D01*
X280923Y201677D01*
G37*
%LPD*%
%LPC*%
G36*
X198395Y192023D02*
X198395Y192023D01*
X198527Y192861D01*
X199018Y194370D01*
X199738Y195783D01*
X200671Y197067D01*
X201793Y198189D01*
X203077Y199122D01*
X204490Y199842D01*
X205999Y200333D01*
X207567Y200581D01*
X214377Y200581D01*
X214377Y192023D01*
X198395Y192023D01*
G37*
%LPD*%
%LPC*%
G36*
X250443Y36577D02*
X250443Y36577D01*
X259001Y36577D01*
X259001Y29767D01*
X258753Y28199D01*
X258262Y26690D01*
X257542Y25277D01*
X256609Y23993D01*
X255487Y22871D01*
X254203Y21938D01*
X252790Y21218D01*
X251281Y20727D01*
X250443Y20595D01*
X250443Y36577D01*
G37*
%LPD*%
%LPC*%
G36*
X204723Y36577D02*
X204723Y36577D01*
X213281Y36577D01*
X213281Y29767D01*
X213033Y28199D01*
X212542Y26690D01*
X211822Y25277D01*
X210889Y23993D01*
X209767Y22871D01*
X208483Y21938D01*
X207070Y21218D01*
X205561Y20727D01*
X204723Y20595D01*
X204723Y36577D01*
G37*
%LPD*%
%LPC*%
G36*
X269319Y280923D02*
X269319Y280923D01*
X269319Y287733D01*
X269567Y289301D01*
X270058Y290810D01*
X270778Y292223D01*
X271711Y293507D01*
X272833Y294629D01*
X274117Y295562D01*
X275530Y296282D01*
X277039Y296773D01*
X277877Y296905D01*
X277877Y280923D01*
X269319Y280923D01*
G37*
%LPD*%
%LPC*%
G36*
X269319Y204723D02*
X269319Y204723D01*
X269319Y211533D01*
X269567Y213101D01*
X270058Y214610D01*
X270778Y216023D01*
X271711Y217307D01*
X272833Y218429D01*
X274117Y219362D01*
X275530Y220082D01*
X277039Y220573D01*
X277877Y220705D01*
X277877Y204723D01*
X269319Y204723D01*
G37*
%LPD*%
%LPC*%
G36*
X269319Y128523D02*
X269319Y128523D01*
X269319Y135333D01*
X269567Y136901D01*
X270058Y138410D01*
X270778Y139823D01*
X271711Y141107D01*
X272833Y142229D01*
X274117Y143162D01*
X275530Y143882D01*
X277039Y144373D01*
X277877Y144505D01*
X277877Y128523D01*
X269319Y128523D01*
G37*
%LPD*%
%LPC*%
G36*
X238839Y39623D02*
X238839Y39623D01*
X238839Y46433D01*
X239087Y48001D01*
X239578Y49510D01*
X240298Y50923D01*
X241231Y52207D01*
X242353Y53329D01*
X243637Y54262D01*
X245050Y54982D01*
X246559Y55473D01*
X247397Y55605D01*
X247397Y39623D01*
X238839Y39623D01*
G37*
%LPD*%
%LPC*%
G36*
X217423Y180419D02*
X217423Y180419D01*
X217423Y188977D01*
X233405Y188977D01*
X233273Y188139D01*
X232782Y186630D01*
X232062Y185217D01*
X231129Y183933D01*
X230007Y182811D01*
X228723Y181878D01*
X227310Y181158D01*
X225801Y180667D01*
X224233Y180419D01*
X217423Y180419D01*
G37*
%LPD*%
%LPC*%
G36*
X193119Y39623D02*
X193119Y39623D01*
X193119Y46433D01*
X193367Y48001D01*
X193858Y49510D01*
X194578Y50923D01*
X195511Y52207D01*
X196633Y53329D01*
X197917Y54262D01*
X199330Y54982D01*
X200839Y55473D01*
X201677Y55605D01*
X201677Y39623D01*
X193119Y39623D01*
G37*
%LPD*%
%LPC*%
G36*
X207567Y180419D02*
X207567Y180419D01*
X205999Y180667D01*
X204490Y181158D01*
X203077Y181878D01*
X201793Y182811D01*
X200671Y183933D01*
X199738Y185217D01*
X199018Y186630D01*
X198527Y188139D01*
X198395Y188977D01*
X214377Y188977D01*
X214377Y180419D01*
X207567Y180419D01*
G37*
%LPD*%
%LPC*%
G36*
X200839Y20727D02*
X200839Y20727D01*
X199330Y21218D01*
X197917Y21938D01*
X196633Y22871D01*
X195511Y23993D01*
X194578Y25277D01*
X193858Y26690D01*
X193367Y28199D01*
X193119Y29767D01*
X193119Y36577D01*
X201677Y36577D01*
X201677Y20595D01*
X200839Y20727D01*
G37*
%LPD*%
%LPC*%
G36*
X277039Y109627D02*
X277039Y109627D01*
X275530Y110118D01*
X274117Y110838D01*
X272833Y111771D01*
X271711Y112893D01*
X270778Y114177D01*
X270058Y115590D01*
X269567Y117099D01*
X269319Y118667D01*
X269319Y125477D01*
X277877Y125477D01*
X277877Y109495D01*
X277039Y109627D01*
G37*
%LPD*%
%LPC*%
G36*
X277039Y262027D02*
X277039Y262027D01*
X275530Y262518D01*
X274117Y263238D01*
X272833Y264171D01*
X271711Y265293D01*
X270778Y266577D01*
X270058Y267990D01*
X269567Y269499D01*
X269319Y271067D01*
X269319Y277877D01*
X277877Y277877D01*
X277877Y261895D01*
X277039Y262027D01*
G37*
%LPD*%
%LPC*%
G36*
X246559Y20727D02*
X246559Y20727D01*
X245050Y21218D01*
X243637Y21938D01*
X242353Y22871D01*
X241231Y23993D01*
X240298Y25277D01*
X239578Y26690D01*
X239087Y28199D01*
X238839Y29767D01*
X238839Y36577D01*
X247397Y36577D01*
X247397Y20595D01*
X246559Y20727D01*
G37*
%LPD*%
%LPC*%
G36*
X277039Y185827D02*
X277039Y185827D01*
X275530Y186318D01*
X274117Y187038D01*
X272833Y187971D01*
X271711Y189093D01*
X270778Y190377D01*
X270058Y191790D01*
X269567Y193299D01*
X269319Y194867D01*
X269319Y201677D01*
X277877Y201677D01*
X277877Y185695D01*
X277039Y185827D01*
G37*
%LPD*%
%LPC*%
G36*
X66323Y192023D02*
X66323Y192023D01*
X66323Y202041D01*
X73134Y202041D01*
X73781Y201868D01*
X74360Y201533D01*
X74833Y201060D01*
X75168Y200481D01*
X75341Y199834D01*
X75341Y192023D01*
X66323Y192023D01*
G37*
%LPD*%
%LPC*%
G36*
X66323Y90423D02*
X66323Y90423D01*
X66323Y100441D01*
X73134Y100441D01*
X73781Y100268D01*
X74360Y99933D01*
X74833Y99460D01*
X75168Y98881D01*
X75341Y98234D01*
X75341Y90423D01*
X66323Y90423D01*
G37*
%LPD*%
%LPC*%
G36*
X166623Y139923D02*
X166623Y139923D01*
X166623Y148941D01*
X174434Y148941D01*
X175081Y148768D01*
X175660Y148433D01*
X176133Y147960D01*
X176468Y147381D01*
X176641Y146734D01*
X176641Y139923D01*
X166623Y139923D01*
G37*
%LPD*%
%LPC*%
G36*
X166623Y136877D02*
X166623Y136877D01*
X176641Y136877D01*
X176641Y130066D01*
X176468Y129419D01*
X176133Y128840D01*
X175660Y128367D01*
X175081Y128032D01*
X174434Y127859D01*
X166623Y127859D01*
X166623Y136877D01*
G37*
%LPD*%
%LPC*%
G36*
X153559Y139923D02*
X153559Y139923D01*
X153559Y146734D01*
X153732Y147381D01*
X154067Y147960D01*
X154540Y148433D01*
X155119Y148768D01*
X155766Y148941D01*
X163577Y148941D01*
X163577Y139923D01*
X153559Y139923D01*
G37*
%LPD*%
%LPC*%
G36*
X54259Y192023D02*
X54259Y192023D01*
X54259Y199834D01*
X54432Y200481D01*
X54767Y201060D01*
X55240Y201533D01*
X55819Y201868D01*
X56466Y202041D01*
X63277Y202041D01*
X63277Y192023D01*
X54259Y192023D01*
G37*
%LPD*%
%LPC*%
G36*
X54259Y90423D02*
X54259Y90423D01*
X54259Y98234D01*
X54432Y98881D01*
X54767Y99460D01*
X55240Y99933D01*
X55819Y100268D01*
X56466Y100441D01*
X63277Y100441D01*
X63277Y90423D01*
X54259Y90423D01*
G37*
%LPD*%
%LPC*%
G36*
X66323Y77359D02*
X66323Y77359D01*
X66323Y87377D01*
X75341Y87377D01*
X75341Y79566D01*
X75168Y78919D01*
X74833Y78340D01*
X74360Y77867D01*
X73781Y77532D01*
X73134Y77359D01*
X66323Y77359D01*
G37*
%LPD*%
%LPC*%
G36*
X66323Y178959D02*
X66323Y178959D01*
X66323Y188977D01*
X75341Y188977D01*
X75341Y181166D01*
X75168Y180519D01*
X74833Y179940D01*
X74360Y179467D01*
X73781Y179132D01*
X73134Y178959D01*
X66323Y178959D01*
G37*
%LPD*%
%LPC*%
G36*
X56466Y77359D02*
X56466Y77359D01*
X55819Y77532D01*
X55240Y77867D01*
X54767Y78340D01*
X54432Y78919D01*
X54259Y79566D01*
X54259Y87377D01*
X63277Y87377D01*
X63277Y77359D01*
X56466Y77359D01*
G37*
%LPD*%
%LPC*%
G36*
X56466Y178959D02*
X56466Y178959D01*
X55819Y179132D01*
X55240Y179467D01*
X54767Y179940D01*
X54432Y180519D01*
X54259Y181166D01*
X54259Y188977D01*
X63277Y188977D01*
X63277Y178959D01*
X56466Y178959D01*
G37*
%LPD*%
%LPC*%
G36*
X155766Y127859D02*
X155766Y127859D01*
X155119Y128032D01*
X154540Y128367D01*
X154067Y128840D01*
X153732Y129419D01*
X153559Y130066D01*
X153559Y136877D01*
X163577Y136877D01*
X163577Y127859D01*
X155766Y127859D01*
G37*
%LPD*%
%LPC*%
G36*
X279399Y203199D02*
X279399Y203199D01*
X279399Y203201D01*
X279401Y203201D01*
X279401Y203199D01*
X279399Y203199D01*
G37*
%LPD*%
%LPC*%
G36*
X177799Y266699D02*
X177799Y266699D01*
X177799Y266701D01*
X177801Y266701D01*
X177801Y266699D01*
X177799Y266699D01*
G37*
%LPD*%
%LPC*%
G36*
X279399Y279399D02*
X279399Y279399D01*
X279399Y279401D01*
X279401Y279401D01*
X279401Y279399D01*
X279399Y279399D01*
G37*
%LPD*%
%LPC*%
G36*
X215899Y190499D02*
X215899Y190499D01*
X215899Y190501D01*
X215901Y190501D01*
X215901Y190499D01*
X215899Y190499D01*
G37*
%LPD*%
%LPC*%
G36*
X248919Y38099D02*
X248919Y38099D01*
X248919Y38101D01*
X248921Y38101D01*
X248921Y38099D01*
X248919Y38099D01*
G37*
%LPD*%
%LPC*%
G36*
X203199Y38099D02*
X203199Y38099D01*
X203199Y38101D01*
X203201Y38101D01*
X203201Y38099D01*
X203199Y38099D01*
G37*
%LPD*%
%LPC*%
G36*
X279399Y126999D02*
X279399Y126999D01*
X279399Y127001D01*
X279401Y127001D01*
X279401Y126999D01*
X279399Y126999D01*
G37*
%LPD*%
%LPC*%
G36*
X64799Y190499D02*
X64799Y190499D01*
X64799Y190501D01*
X64801Y190501D01*
X64801Y190499D01*
X64799Y190499D01*
G37*
%LPD*%
%LPC*%
G36*
X165099Y138399D02*
X165099Y138399D01*
X165099Y138401D01*
X165101Y138401D01*
X165101Y138399D01*
X165099Y138399D01*
G37*
%LPD*%
%LPC*%
G36*
X64799Y88899D02*
X64799Y88899D01*
X64799Y88901D01*
X64801Y88901D01*
X64801Y88899D01*
X64799Y88899D01*
G37*
%LPD*%
D10*
X64800Y190500D03*
X36800Y190500D03*
X64800Y88900D03*
X36800Y88900D03*
D11*
X38100Y115570D03*
X38100Y163830D03*
D12*
X125480Y114300D03*
X153920Y114300D03*
X125480Y76200D03*
X153920Y76200D03*
D13*
X170180Y241300D02*
X185420Y241300D01*
X185420Y266700D02*
X170180Y266700D01*
X170180Y292100D02*
X185420Y292100D01*
D14*
X203200Y45640D02*
X203200Y30560D01*
X177800Y30560D02*
X177800Y45640D01*
X152400Y45640D02*
X152400Y30560D01*
X127000Y30560D02*
X127000Y45640D01*
X101600Y45640D02*
X101600Y30560D01*
X76200Y30560D02*
X76200Y45640D01*
X279400Y195660D02*
X279400Y210740D01*
X304800Y210740D02*
X304800Y195660D01*
X223440Y190500D02*
X208360Y190500D01*
X208360Y165100D02*
X223440Y165100D01*
X223440Y139700D02*
X208360Y139700D01*
X208360Y114300D02*
X223440Y114300D01*
X279400Y271860D02*
X279400Y286940D01*
X304800Y286940D02*
X304800Y271860D01*
D15*
X63500Y153920D03*
X63500Y125480D03*
D14*
X279400Y119460D02*
X279400Y134540D01*
X304800Y134540D02*
X304800Y119460D01*
X248920Y45640D02*
X248920Y30560D01*
X274320Y30560D02*
X274320Y45640D01*
D16*
X165100Y166400D03*
X165100Y138400D03*
D17*
X53590Y163830D02*
X38100Y163830D01*
X53590Y163830D02*
X63500Y153920D01*
X36800Y165130D02*
X36800Y190500D01*
X36800Y165130D02*
X38100Y163830D01*
D18*
X63500Y153920D02*
X68580Y159000D01*
X68580Y170180D01*
D19*
X68580Y170180D03*
D17*
X53590Y115570D02*
X38100Y115570D01*
X53590Y115570D02*
X63500Y125480D01*
X38100Y115570D02*
X38100Y90200D01*
X36800Y88900D01*
D18*
X63500Y125480D02*
X81280Y143260D01*
X81280Y154940D01*
D19*
X81280Y154940D03*
D20*
X153920Y114300D02*
X177800Y114300D01*
X203200Y139700D01*
X215900Y139700D01*
D18*
X192020Y114300D02*
X153920Y76200D01*
X192020Y114300D02*
X215900Y114300D01*
X125480Y114300D02*
X125480Y76200D01*
X145706Y55974D01*
X159926Y55974D01*
X177800Y38100D01*
D17*
X165100Y166400D02*
X177800Y179100D01*
X177800Y189718D01*
D19*
X177800Y189718D03*
M02*
