G04 EAGLE Gerber X2 export*
%TF.Part,Single*%
%TF.FileFunction,Other,Solder stop mask SOL*%
%TF.FilePolarity,Positive*%
%TF.GenerationSoftware,Autodesk,EAGLE,9.1.0*%
%TF.CreationDate,2018-07-07T03:42:43Z*%
G75*
%MOMM*%
%FSLAX34Y34*%
%LPD*%
%AMOC8*
5,1,8,0,0,1.08239X$1,22.5*%
G01*
%ADD10C,3.505200*%
%ADD11R,1.803200X2.003200*%
%ADD12C,1.524000*%
%ADD13R,1.803200X2.006200*%
%ADD14C,1.727200*%
%ADD15C,1.711200*%
%ADD16R,2.006200X1.803200*%
%ADD17R,2.003200X1.803200*%
%ADD18C,0.959600*%


D10*
X25400Y342900D03*
X317500Y342900D03*
X25400Y25400D03*
X317500Y25400D03*
D11*
X64800Y190500D03*
X36800Y190500D03*
X64800Y88900D03*
X36800Y88900D03*
D12*
X38100Y115570D03*
X38100Y163830D03*
D13*
X125480Y114300D03*
X153920Y114300D03*
X125480Y76200D03*
X153920Y76200D03*
D14*
X170180Y241300D02*
X185420Y241300D01*
X185420Y266700D02*
X170180Y266700D01*
X170180Y292100D02*
X185420Y292100D01*
D15*
X203200Y45640D02*
X203200Y30560D01*
X177800Y30560D02*
X177800Y45640D01*
X152400Y45640D02*
X152400Y30560D01*
X127000Y30560D02*
X127000Y45640D01*
X101600Y45640D02*
X101600Y30560D01*
X76200Y30560D02*
X76200Y45640D01*
X279400Y195660D02*
X279400Y210740D01*
X304800Y210740D02*
X304800Y195660D01*
X223440Y190500D02*
X208360Y190500D01*
X208360Y165100D02*
X223440Y165100D01*
X223440Y139700D02*
X208360Y139700D01*
X208360Y114300D02*
X223440Y114300D01*
X279400Y271860D02*
X279400Y286940D01*
X304800Y286940D02*
X304800Y271860D01*
D16*
X63500Y153920D03*
X63500Y125480D03*
D15*
X279400Y119460D02*
X279400Y134540D01*
X304800Y134540D02*
X304800Y119460D01*
X248920Y45640D02*
X248920Y30560D01*
X274320Y30560D02*
X274320Y45640D01*
D17*
X165100Y166400D03*
X165100Y138400D03*
D18*
X68580Y170180D03*
X81280Y154940D03*
X177800Y189718D03*
M02*
