M48
;GenerationSoftware,Autodesk,EAGLE,9.1.0*%
;CreationDate,2018-07-07T03:42:54Z*%
FMAT,2
ICI,OFF
METRIC,TZ,000.000
T5C0.350
T4C0.813
T3C1.000
T2C1.016
T1C3.302
%
G90
M71
T1
X2540Y34290
X31750Y34290
X2540Y2540
X31750Y2540
T2
X17780Y24130
X17780Y26670
X17780Y29210
T3
X20320Y3810
X17780Y3810
X15240Y3810
X12700Y3810
X10160Y3810
X7620Y3810
X27940Y20320
X30480Y20320
X21590Y19050
X21590Y16510
X21590Y13970
X21590Y11430
X27940Y27940
X30480Y27940
X27940Y12700
X30480Y12700
X24892Y3810
X27432Y3810
T4
X3810Y11557
X3810Y16383
T5
X6858Y17018
X8128Y15494
X17780Y18972
M30