G04 EAGLE Gerber X2 export*
%TF.Part,Single*%
%TF.FileFunction,Other,Component side*%
%TF.FilePolarity,Positive*%
%TF.GenerationSoftware,Autodesk,EAGLE,9.1.0*%
%TF.CreationDate,2018-07-07T03:42:43Z*%
G75*
%MOMM*%
%FSLAX34Y34*%
%LPD*%
%AMOC8*
5,1,8,0,0,1.08239X$1,22.5*%
G01*
%ADD10C,1.320800*%
%ADD11R,2.200000X0.600000*%
%ADD12C,1.524000*%
%ADD13C,1.508000*%
%ADD14C,0.508000*%
%ADD15C,0.756400*%
%ADD16C,0.254000*%
%ADD17C,0.812800*%
%ADD18C,2.540000*%
%ADD19C,2.540000*%


D10*
X38100Y115570D03*
X38100Y163830D03*
D11*
X101000Y177800D03*
X153000Y177800D03*
X101000Y190500D03*
X101000Y165100D03*
X101000Y152400D03*
X153000Y190500D03*
X153000Y165100D03*
X153000Y152400D03*
X101000Y127000D03*
X153000Y127000D03*
X101000Y139700D03*
X101000Y114300D03*
X153000Y139700D03*
X153000Y114300D03*
D12*
X170180Y241300D02*
X185420Y241300D01*
X185420Y266700D02*
X170180Y266700D01*
X170180Y292100D02*
X185420Y292100D01*
D13*
X203200Y45640D02*
X203200Y30560D01*
X177800Y30560D02*
X177800Y45640D01*
X152400Y45640D02*
X152400Y30560D01*
X127000Y30560D02*
X127000Y45640D01*
X101600Y45640D02*
X101600Y30560D01*
X76200Y30560D02*
X76200Y45640D01*
X279400Y195660D02*
X279400Y210740D01*
X304800Y210740D02*
X304800Y195660D01*
X223440Y190500D02*
X208360Y190500D01*
X208360Y165100D02*
X223440Y165100D01*
X223440Y139700D02*
X208360Y139700D01*
X208360Y114300D02*
X223440Y114300D01*
X279400Y271860D02*
X279400Y286940D01*
X304800Y286940D02*
X304800Y271860D01*
X279400Y134540D02*
X279400Y119460D01*
X304800Y119460D02*
X304800Y134540D01*
X248920Y45640D02*
X248920Y30560D01*
X274320Y30560D02*
X274320Y45640D01*
D14*
X114300Y165100D02*
X101000Y165100D01*
X137160Y187960D02*
X137160Y190500D01*
X137160Y194407D01*
X137160Y187960D02*
X114300Y165100D01*
X137160Y190500D02*
X137936Y191276D01*
X137936Y195183D01*
X189295Y190500D02*
X215900Y190500D01*
X189295Y190500D02*
X181167Y198628D01*
X141381Y198628D02*
X137936Y195183D01*
X141381Y198628D02*
X181167Y198628D01*
D15*
X68580Y170180D03*
D16*
X88900Y190500D01*
X101000Y190500D01*
D15*
X81280Y154940D03*
D16*
X81280Y170180D01*
X88900Y177800D01*
X101000Y177800D01*
X190500Y165100D02*
X215900Y139700D01*
X190500Y165100D02*
X153000Y165100D01*
X177800Y152400D02*
X215900Y114300D01*
X177800Y152400D02*
X153000Y152400D01*
D15*
X177800Y189718D03*
D14*
X177800Y190500D02*
X153000Y190500D01*
D17*
X177800Y190500D02*
X177800Y189718D01*
D14*
X202418Y165100D02*
X215900Y165100D01*
X202418Y165100D02*
X177800Y189718D01*
X215900Y165100D02*
X215900Y163651D01*
X235044Y144507D01*
X235044Y95344D01*
X177800Y38100D01*
D18*
X275496Y308704D03*
D19*
X288415Y308704D01*
X301164Y295955D01*
X301164Y283036D01*
X304800Y279400D01*
X275496Y308704D02*
X194404Y308704D01*
X177800Y292100D01*
X304800Y203200D02*
X304800Y127000D01*
X304800Y203200D02*
X301164Y206836D01*
X301164Y219755D01*
X275715Y245204D01*
X304800Y68580D02*
X274320Y38100D01*
X304800Y68580D02*
X304800Y127000D01*
X194468Y244856D02*
X194816Y245204D01*
X194468Y244856D02*
X181356Y244856D01*
X177800Y241300D01*
X194816Y245204D02*
X275715Y245204D01*
D16*
X76200Y139700D02*
X76200Y38100D01*
X76200Y139700D02*
X88900Y152400D01*
X101000Y152400D01*
X101000Y139700D02*
X101600Y139100D01*
X101600Y90001D02*
X101600Y38100D01*
X101600Y90001D02*
X83142Y105919D01*
X88900Y139700D02*
X101000Y139700D01*
X88900Y139700D02*
X83142Y133942D01*
X83142Y105919D01*
X127000Y70349D02*
X127000Y38100D01*
X127000Y70349D02*
X87206Y110143D01*
X87206Y125306D01*
X88900Y127000D01*
X101000Y127000D01*
X152400Y62900D02*
X152400Y38100D01*
X152400Y62900D02*
X101000Y114300D01*
M02*
