G04 EAGLE Gerber X2 export*
%TF.Part,Single*%
%TF.FileFunction,Other,Silk screen CMP*%
%TF.FilePolarity,Positive*%
%TF.GenerationSoftware,Autodesk,EAGLE,9.1.0*%
%TF.CreationDate,2018-07-07T03:42:43Z*%
G75*
%MOMM*%
%FSLAX34Y34*%
%LPD*%
%AMOC8*
5,1,8,0,0,1.08239X$1,22.5*%
G01*
%ADD10C,0.000000*%
%ADD11C,0.101600*%
%ADD12C,0.406400*%
%ADD13C,0.152400*%
%ADD14C,0.127000*%
%ADD15C,0.254000*%


D10*
X8890Y342900D02*
X8895Y343305D01*
X8910Y343710D01*
X8935Y344115D01*
X8970Y344518D01*
X9014Y344921D01*
X9069Y345323D01*
X9133Y345723D01*
X9207Y346121D01*
X9291Y346517D01*
X9385Y346912D01*
X9488Y347303D01*
X9601Y347693D01*
X9723Y348079D01*
X9855Y348462D01*
X9996Y348842D01*
X10147Y349218D01*
X10306Y349591D01*
X10475Y349959D01*
X10653Y350323D01*
X10839Y350683D01*
X11035Y351038D01*
X11239Y351388D01*
X11451Y351733D01*
X11672Y352072D01*
X11902Y352407D01*
X12139Y352735D01*
X12384Y353057D01*
X12638Y353374D01*
X12898Y353684D01*
X13167Y353987D01*
X13443Y354284D01*
X13726Y354574D01*
X14016Y354857D01*
X14313Y355133D01*
X14616Y355402D01*
X14926Y355662D01*
X15243Y355916D01*
X15565Y356161D01*
X15893Y356398D01*
X16228Y356628D01*
X16567Y356849D01*
X16912Y357061D01*
X17262Y357265D01*
X17617Y357461D01*
X17977Y357647D01*
X18341Y357825D01*
X18709Y357994D01*
X19082Y358153D01*
X19458Y358304D01*
X19838Y358445D01*
X20221Y358577D01*
X20607Y358699D01*
X20997Y358812D01*
X21388Y358915D01*
X21783Y359009D01*
X22179Y359093D01*
X22577Y359167D01*
X22977Y359231D01*
X23379Y359286D01*
X23782Y359330D01*
X24185Y359365D01*
X24590Y359390D01*
X24995Y359405D01*
X25400Y359410D01*
X25805Y359405D01*
X26210Y359390D01*
X26615Y359365D01*
X27018Y359330D01*
X27421Y359286D01*
X27823Y359231D01*
X28223Y359167D01*
X28621Y359093D01*
X29017Y359009D01*
X29412Y358915D01*
X29803Y358812D01*
X30193Y358699D01*
X30579Y358577D01*
X30962Y358445D01*
X31342Y358304D01*
X31718Y358153D01*
X32091Y357994D01*
X32459Y357825D01*
X32823Y357647D01*
X33183Y357461D01*
X33538Y357265D01*
X33888Y357061D01*
X34233Y356849D01*
X34572Y356628D01*
X34907Y356398D01*
X35235Y356161D01*
X35557Y355916D01*
X35874Y355662D01*
X36184Y355402D01*
X36487Y355133D01*
X36784Y354857D01*
X37074Y354574D01*
X37357Y354284D01*
X37633Y353987D01*
X37902Y353684D01*
X38162Y353374D01*
X38416Y353057D01*
X38661Y352735D01*
X38898Y352407D01*
X39128Y352072D01*
X39349Y351733D01*
X39561Y351388D01*
X39765Y351038D01*
X39961Y350683D01*
X40147Y350323D01*
X40325Y349959D01*
X40494Y349591D01*
X40653Y349218D01*
X40804Y348842D01*
X40945Y348462D01*
X41077Y348079D01*
X41199Y347693D01*
X41312Y347303D01*
X41415Y346912D01*
X41509Y346517D01*
X41593Y346121D01*
X41667Y345723D01*
X41731Y345323D01*
X41786Y344921D01*
X41830Y344518D01*
X41865Y344115D01*
X41890Y343710D01*
X41905Y343305D01*
X41910Y342900D01*
X41905Y342495D01*
X41890Y342090D01*
X41865Y341685D01*
X41830Y341282D01*
X41786Y340879D01*
X41731Y340477D01*
X41667Y340077D01*
X41593Y339679D01*
X41509Y339283D01*
X41415Y338888D01*
X41312Y338497D01*
X41199Y338107D01*
X41077Y337721D01*
X40945Y337338D01*
X40804Y336958D01*
X40653Y336582D01*
X40494Y336209D01*
X40325Y335841D01*
X40147Y335477D01*
X39961Y335117D01*
X39765Y334762D01*
X39561Y334412D01*
X39349Y334067D01*
X39128Y333728D01*
X38898Y333393D01*
X38661Y333065D01*
X38416Y332743D01*
X38162Y332426D01*
X37902Y332116D01*
X37633Y331813D01*
X37357Y331516D01*
X37074Y331226D01*
X36784Y330943D01*
X36487Y330667D01*
X36184Y330398D01*
X35874Y330138D01*
X35557Y329884D01*
X35235Y329639D01*
X34907Y329402D01*
X34572Y329172D01*
X34233Y328951D01*
X33888Y328739D01*
X33538Y328535D01*
X33183Y328339D01*
X32823Y328153D01*
X32459Y327975D01*
X32091Y327806D01*
X31718Y327647D01*
X31342Y327496D01*
X30962Y327355D01*
X30579Y327223D01*
X30193Y327101D01*
X29803Y326988D01*
X29412Y326885D01*
X29017Y326791D01*
X28621Y326707D01*
X28223Y326633D01*
X27823Y326569D01*
X27421Y326514D01*
X27018Y326470D01*
X26615Y326435D01*
X26210Y326410D01*
X25805Y326395D01*
X25400Y326390D01*
X24995Y326395D01*
X24590Y326410D01*
X24185Y326435D01*
X23782Y326470D01*
X23379Y326514D01*
X22977Y326569D01*
X22577Y326633D01*
X22179Y326707D01*
X21783Y326791D01*
X21388Y326885D01*
X20997Y326988D01*
X20607Y327101D01*
X20221Y327223D01*
X19838Y327355D01*
X19458Y327496D01*
X19082Y327647D01*
X18709Y327806D01*
X18341Y327975D01*
X17977Y328153D01*
X17617Y328339D01*
X17262Y328535D01*
X16912Y328739D01*
X16567Y328951D01*
X16228Y329172D01*
X15893Y329402D01*
X15565Y329639D01*
X15243Y329884D01*
X14926Y330138D01*
X14616Y330398D01*
X14313Y330667D01*
X14016Y330943D01*
X13726Y331226D01*
X13443Y331516D01*
X13167Y331813D01*
X12898Y332116D01*
X12638Y332426D01*
X12384Y332743D01*
X12139Y333065D01*
X11902Y333393D01*
X11672Y333728D01*
X11451Y334067D01*
X11239Y334412D01*
X11035Y334762D01*
X10839Y335117D01*
X10653Y335477D01*
X10475Y335841D01*
X10306Y336209D01*
X10147Y336582D01*
X9996Y336958D01*
X9855Y337338D01*
X9723Y337721D01*
X9601Y338107D01*
X9488Y338497D01*
X9385Y338888D01*
X9291Y339283D01*
X9207Y339679D01*
X9133Y340077D01*
X9069Y340477D01*
X9014Y340879D01*
X8970Y341282D01*
X8935Y341685D01*
X8910Y342090D01*
X8895Y342495D01*
X8890Y342900D01*
X300990Y342900D02*
X300995Y343305D01*
X301010Y343710D01*
X301035Y344115D01*
X301070Y344518D01*
X301114Y344921D01*
X301169Y345323D01*
X301233Y345723D01*
X301307Y346121D01*
X301391Y346517D01*
X301485Y346912D01*
X301588Y347303D01*
X301701Y347693D01*
X301823Y348079D01*
X301955Y348462D01*
X302096Y348842D01*
X302247Y349218D01*
X302406Y349591D01*
X302575Y349959D01*
X302753Y350323D01*
X302939Y350683D01*
X303135Y351038D01*
X303339Y351388D01*
X303551Y351733D01*
X303772Y352072D01*
X304002Y352407D01*
X304239Y352735D01*
X304484Y353057D01*
X304738Y353374D01*
X304998Y353684D01*
X305267Y353987D01*
X305543Y354284D01*
X305826Y354574D01*
X306116Y354857D01*
X306413Y355133D01*
X306716Y355402D01*
X307026Y355662D01*
X307343Y355916D01*
X307665Y356161D01*
X307993Y356398D01*
X308328Y356628D01*
X308667Y356849D01*
X309012Y357061D01*
X309362Y357265D01*
X309717Y357461D01*
X310077Y357647D01*
X310441Y357825D01*
X310809Y357994D01*
X311182Y358153D01*
X311558Y358304D01*
X311938Y358445D01*
X312321Y358577D01*
X312707Y358699D01*
X313097Y358812D01*
X313488Y358915D01*
X313883Y359009D01*
X314279Y359093D01*
X314677Y359167D01*
X315077Y359231D01*
X315479Y359286D01*
X315882Y359330D01*
X316285Y359365D01*
X316690Y359390D01*
X317095Y359405D01*
X317500Y359410D01*
X317905Y359405D01*
X318310Y359390D01*
X318715Y359365D01*
X319118Y359330D01*
X319521Y359286D01*
X319923Y359231D01*
X320323Y359167D01*
X320721Y359093D01*
X321117Y359009D01*
X321512Y358915D01*
X321903Y358812D01*
X322293Y358699D01*
X322679Y358577D01*
X323062Y358445D01*
X323442Y358304D01*
X323818Y358153D01*
X324191Y357994D01*
X324559Y357825D01*
X324923Y357647D01*
X325283Y357461D01*
X325638Y357265D01*
X325988Y357061D01*
X326333Y356849D01*
X326672Y356628D01*
X327007Y356398D01*
X327335Y356161D01*
X327657Y355916D01*
X327974Y355662D01*
X328284Y355402D01*
X328587Y355133D01*
X328884Y354857D01*
X329174Y354574D01*
X329457Y354284D01*
X329733Y353987D01*
X330002Y353684D01*
X330262Y353374D01*
X330516Y353057D01*
X330761Y352735D01*
X330998Y352407D01*
X331228Y352072D01*
X331449Y351733D01*
X331661Y351388D01*
X331865Y351038D01*
X332061Y350683D01*
X332247Y350323D01*
X332425Y349959D01*
X332594Y349591D01*
X332753Y349218D01*
X332904Y348842D01*
X333045Y348462D01*
X333177Y348079D01*
X333299Y347693D01*
X333412Y347303D01*
X333515Y346912D01*
X333609Y346517D01*
X333693Y346121D01*
X333767Y345723D01*
X333831Y345323D01*
X333886Y344921D01*
X333930Y344518D01*
X333965Y344115D01*
X333990Y343710D01*
X334005Y343305D01*
X334010Y342900D01*
X334005Y342495D01*
X333990Y342090D01*
X333965Y341685D01*
X333930Y341282D01*
X333886Y340879D01*
X333831Y340477D01*
X333767Y340077D01*
X333693Y339679D01*
X333609Y339283D01*
X333515Y338888D01*
X333412Y338497D01*
X333299Y338107D01*
X333177Y337721D01*
X333045Y337338D01*
X332904Y336958D01*
X332753Y336582D01*
X332594Y336209D01*
X332425Y335841D01*
X332247Y335477D01*
X332061Y335117D01*
X331865Y334762D01*
X331661Y334412D01*
X331449Y334067D01*
X331228Y333728D01*
X330998Y333393D01*
X330761Y333065D01*
X330516Y332743D01*
X330262Y332426D01*
X330002Y332116D01*
X329733Y331813D01*
X329457Y331516D01*
X329174Y331226D01*
X328884Y330943D01*
X328587Y330667D01*
X328284Y330398D01*
X327974Y330138D01*
X327657Y329884D01*
X327335Y329639D01*
X327007Y329402D01*
X326672Y329172D01*
X326333Y328951D01*
X325988Y328739D01*
X325638Y328535D01*
X325283Y328339D01*
X324923Y328153D01*
X324559Y327975D01*
X324191Y327806D01*
X323818Y327647D01*
X323442Y327496D01*
X323062Y327355D01*
X322679Y327223D01*
X322293Y327101D01*
X321903Y326988D01*
X321512Y326885D01*
X321117Y326791D01*
X320721Y326707D01*
X320323Y326633D01*
X319923Y326569D01*
X319521Y326514D01*
X319118Y326470D01*
X318715Y326435D01*
X318310Y326410D01*
X317905Y326395D01*
X317500Y326390D01*
X317095Y326395D01*
X316690Y326410D01*
X316285Y326435D01*
X315882Y326470D01*
X315479Y326514D01*
X315077Y326569D01*
X314677Y326633D01*
X314279Y326707D01*
X313883Y326791D01*
X313488Y326885D01*
X313097Y326988D01*
X312707Y327101D01*
X312321Y327223D01*
X311938Y327355D01*
X311558Y327496D01*
X311182Y327647D01*
X310809Y327806D01*
X310441Y327975D01*
X310077Y328153D01*
X309717Y328339D01*
X309362Y328535D01*
X309012Y328739D01*
X308667Y328951D01*
X308328Y329172D01*
X307993Y329402D01*
X307665Y329639D01*
X307343Y329884D01*
X307026Y330138D01*
X306716Y330398D01*
X306413Y330667D01*
X306116Y330943D01*
X305826Y331226D01*
X305543Y331516D01*
X305267Y331813D01*
X304998Y332116D01*
X304738Y332426D01*
X304484Y332743D01*
X304239Y333065D01*
X304002Y333393D01*
X303772Y333728D01*
X303551Y334067D01*
X303339Y334412D01*
X303135Y334762D01*
X302939Y335117D01*
X302753Y335477D01*
X302575Y335841D01*
X302406Y336209D01*
X302247Y336582D01*
X302096Y336958D01*
X301955Y337338D01*
X301823Y337721D01*
X301701Y338107D01*
X301588Y338497D01*
X301485Y338888D01*
X301391Y339283D01*
X301307Y339679D01*
X301233Y340077D01*
X301169Y340477D01*
X301114Y340879D01*
X301070Y341282D01*
X301035Y341685D01*
X301010Y342090D01*
X300995Y342495D01*
X300990Y342900D01*
X8890Y25400D02*
X8895Y25805D01*
X8910Y26210D01*
X8935Y26615D01*
X8970Y27018D01*
X9014Y27421D01*
X9069Y27823D01*
X9133Y28223D01*
X9207Y28621D01*
X9291Y29017D01*
X9385Y29412D01*
X9488Y29803D01*
X9601Y30193D01*
X9723Y30579D01*
X9855Y30962D01*
X9996Y31342D01*
X10147Y31718D01*
X10306Y32091D01*
X10475Y32459D01*
X10653Y32823D01*
X10839Y33183D01*
X11035Y33538D01*
X11239Y33888D01*
X11451Y34233D01*
X11672Y34572D01*
X11902Y34907D01*
X12139Y35235D01*
X12384Y35557D01*
X12638Y35874D01*
X12898Y36184D01*
X13167Y36487D01*
X13443Y36784D01*
X13726Y37074D01*
X14016Y37357D01*
X14313Y37633D01*
X14616Y37902D01*
X14926Y38162D01*
X15243Y38416D01*
X15565Y38661D01*
X15893Y38898D01*
X16228Y39128D01*
X16567Y39349D01*
X16912Y39561D01*
X17262Y39765D01*
X17617Y39961D01*
X17977Y40147D01*
X18341Y40325D01*
X18709Y40494D01*
X19082Y40653D01*
X19458Y40804D01*
X19838Y40945D01*
X20221Y41077D01*
X20607Y41199D01*
X20997Y41312D01*
X21388Y41415D01*
X21783Y41509D01*
X22179Y41593D01*
X22577Y41667D01*
X22977Y41731D01*
X23379Y41786D01*
X23782Y41830D01*
X24185Y41865D01*
X24590Y41890D01*
X24995Y41905D01*
X25400Y41910D01*
X25805Y41905D01*
X26210Y41890D01*
X26615Y41865D01*
X27018Y41830D01*
X27421Y41786D01*
X27823Y41731D01*
X28223Y41667D01*
X28621Y41593D01*
X29017Y41509D01*
X29412Y41415D01*
X29803Y41312D01*
X30193Y41199D01*
X30579Y41077D01*
X30962Y40945D01*
X31342Y40804D01*
X31718Y40653D01*
X32091Y40494D01*
X32459Y40325D01*
X32823Y40147D01*
X33183Y39961D01*
X33538Y39765D01*
X33888Y39561D01*
X34233Y39349D01*
X34572Y39128D01*
X34907Y38898D01*
X35235Y38661D01*
X35557Y38416D01*
X35874Y38162D01*
X36184Y37902D01*
X36487Y37633D01*
X36784Y37357D01*
X37074Y37074D01*
X37357Y36784D01*
X37633Y36487D01*
X37902Y36184D01*
X38162Y35874D01*
X38416Y35557D01*
X38661Y35235D01*
X38898Y34907D01*
X39128Y34572D01*
X39349Y34233D01*
X39561Y33888D01*
X39765Y33538D01*
X39961Y33183D01*
X40147Y32823D01*
X40325Y32459D01*
X40494Y32091D01*
X40653Y31718D01*
X40804Y31342D01*
X40945Y30962D01*
X41077Y30579D01*
X41199Y30193D01*
X41312Y29803D01*
X41415Y29412D01*
X41509Y29017D01*
X41593Y28621D01*
X41667Y28223D01*
X41731Y27823D01*
X41786Y27421D01*
X41830Y27018D01*
X41865Y26615D01*
X41890Y26210D01*
X41905Y25805D01*
X41910Y25400D01*
X41905Y24995D01*
X41890Y24590D01*
X41865Y24185D01*
X41830Y23782D01*
X41786Y23379D01*
X41731Y22977D01*
X41667Y22577D01*
X41593Y22179D01*
X41509Y21783D01*
X41415Y21388D01*
X41312Y20997D01*
X41199Y20607D01*
X41077Y20221D01*
X40945Y19838D01*
X40804Y19458D01*
X40653Y19082D01*
X40494Y18709D01*
X40325Y18341D01*
X40147Y17977D01*
X39961Y17617D01*
X39765Y17262D01*
X39561Y16912D01*
X39349Y16567D01*
X39128Y16228D01*
X38898Y15893D01*
X38661Y15565D01*
X38416Y15243D01*
X38162Y14926D01*
X37902Y14616D01*
X37633Y14313D01*
X37357Y14016D01*
X37074Y13726D01*
X36784Y13443D01*
X36487Y13167D01*
X36184Y12898D01*
X35874Y12638D01*
X35557Y12384D01*
X35235Y12139D01*
X34907Y11902D01*
X34572Y11672D01*
X34233Y11451D01*
X33888Y11239D01*
X33538Y11035D01*
X33183Y10839D01*
X32823Y10653D01*
X32459Y10475D01*
X32091Y10306D01*
X31718Y10147D01*
X31342Y9996D01*
X30962Y9855D01*
X30579Y9723D01*
X30193Y9601D01*
X29803Y9488D01*
X29412Y9385D01*
X29017Y9291D01*
X28621Y9207D01*
X28223Y9133D01*
X27823Y9069D01*
X27421Y9014D01*
X27018Y8970D01*
X26615Y8935D01*
X26210Y8910D01*
X25805Y8895D01*
X25400Y8890D01*
X24995Y8895D01*
X24590Y8910D01*
X24185Y8935D01*
X23782Y8970D01*
X23379Y9014D01*
X22977Y9069D01*
X22577Y9133D01*
X22179Y9207D01*
X21783Y9291D01*
X21388Y9385D01*
X20997Y9488D01*
X20607Y9601D01*
X20221Y9723D01*
X19838Y9855D01*
X19458Y9996D01*
X19082Y10147D01*
X18709Y10306D01*
X18341Y10475D01*
X17977Y10653D01*
X17617Y10839D01*
X17262Y11035D01*
X16912Y11239D01*
X16567Y11451D01*
X16228Y11672D01*
X15893Y11902D01*
X15565Y12139D01*
X15243Y12384D01*
X14926Y12638D01*
X14616Y12898D01*
X14313Y13167D01*
X14016Y13443D01*
X13726Y13726D01*
X13443Y14016D01*
X13167Y14313D01*
X12898Y14616D01*
X12638Y14926D01*
X12384Y15243D01*
X12139Y15565D01*
X11902Y15893D01*
X11672Y16228D01*
X11451Y16567D01*
X11239Y16912D01*
X11035Y17262D01*
X10839Y17617D01*
X10653Y17977D01*
X10475Y18341D01*
X10306Y18709D01*
X10147Y19082D01*
X9996Y19458D01*
X9855Y19838D01*
X9723Y20221D01*
X9601Y20607D01*
X9488Y20997D01*
X9385Y21388D01*
X9291Y21783D01*
X9207Y22179D01*
X9133Y22577D01*
X9069Y22977D01*
X9014Y23379D01*
X8970Y23782D01*
X8935Y24185D01*
X8910Y24590D01*
X8895Y24995D01*
X8890Y25400D01*
X300990Y25400D02*
X300995Y25805D01*
X301010Y26210D01*
X301035Y26615D01*
X301070Y27018D01*
X301114Y27421D01*
X301169Y27823D01*
X301233Y28223D01*
X301307Y28621D01*
X301391Y29017D01*
X301485Y29412D01*
X301588Y29803D01*
X301701Y30193D01*
X301823Y30579D01*
X301955Y30962D01*
X302096Y31342D01*
X302247Y31718D01*
X302406Y32091D01*
X302575Y32459D01*
X302753Y32823D01*
X302939Y33183D01*
X303135Y33538D01*
X303339Y33888D01*
X303551Y34233D01*
X303772Y34572D01*
X304002Y34907D01*
X304239Y35235D01*
X304484Y35557D01*
X304738Y35874D01*
X304998Y36184D01*
X305267Y36487D01*
X305543Y36784D01*
X305826Y37074D01*
X306116Y37357D01*
X306413Y37633D01*
X306716Y37902D01*
X307026Y38162D01*
X307343Y38416D01*
X307665Y38661D01*
X307993Y38898D01*
X308328Y39128D01*
X308667Y39349D01*
X309012Y39561D01*
X309362Y39765D01*
X309717Y39961D01*
X310077Y40147D01*
X310441Y40325D01*
X310809Y40494D01*
X311182Y40653D01*
X311558Y40804D01*
X311938Y40945D01*
X312321Y41077D01*
X312707Y41199D01*
X313097Y41312D01*
X313488Y41415D01*
X313883Y41509D01*
X314279Y41593D01*
X314677Y41667D01*
X315077Y41731D01*
X315479Y41786D01*
X315882Y41830D01*
X316285Y41865D01*
X316690Y41890D01*
X317095Y41905D01*
X317500Y41910D01*
X317905Y41905D01*
X318310Y41890D01*
X318715Y41865D01*
X319118Y41830D01*
X319521Y41786D01*
X319923Y41731D01*
X320323Y41667D01*
X320721Y41593D01*
X321117Y41509D01*
X321512Y41415D01*
X321903Y41312D01*
X322293Y41199D01*
X322679Y41077D01*
X323062Y40945D01*
X323442Y40804D01*
X323818Y40653D01*
X324191Y40494D01*
X324559Y40325D01*
X324923Y40147D01*
X325283Y39961D01*
X325638Y39765D01*
X325988Y39561D01*
X326333Y39349D01*
X326672Y39128D01*
X327007Y38898D01*
X327335Y38661D01*
X327657Y38416D01*
X327974Y38162D01*
X328284Y37902D01*
X328587Y37633D01*
X328884Y37357D01*
X329174Y37074D01*
X329457Y36784D01*
X329733Y36487D01*
X330002Y36184D01*
X330262Y35874D01*
X330516Y35557D01*
X330761Y35235D01*
X330998Y34907D01*
X331228Y34572D01*
X331449Y34233D01*
X331661Y33888D01*
X331865Y33538D01*
X332061Y33183D01*
X332247Y32823D01*
X332425Y32459D01*
X332594Y32091D01*
X332753Y31718D01*
X332904Y31342D01*
X333045Y30962D01*
X333177Y30579D01*
X333299Y30193D01*
X333412Y29803D01*
X333515Y29412D01*
X333609Y29017D01*
X333693Y28621D01*
X333767Y28223D01*
X333831Y27823D01*
X333886Y27421D01*
X333930Y27018D01*
X333965Y26615D01*
X333990Y26210D01*
X334005Y25805D01*
X334010Y25400D01*
X334005Y24995D01*
X333990Y24590D01*
X333965Y24185D01*
X333930Y23782D01*
X333886Y23379D01*
X333831Y22977D01*
X333767Y22577D01*
X333693Y22179D01*
X333609Y21783D01*
X333515Y21388D01*
X333412Y20997D01*
X333299Y20607D01*
X333177Y20221D01*
X333045Y19838D01*
X332904Y19458D01*
X332753Y19082D01*
X332594Y18709D01*
X332425Y18341D01*
X332247Y17977D01*
X332061Y17617D01*
X331865Y17262D01*
X331661Y16912D01*
X331449Y16567D01*
X331228Y16228D01*
X330998Y15893D01*
X330761Y15565D01*
X330516Y15243D01*
X330262Y14926D01*
X330002Y14616D01*
X329733Y14313D01*
X329457Y14016D01*
X329174Y13726D01*
X328884Y13443D01*
X328587Y13167D01*
X328284Y12898D01*
X327974Y12638D01*
X327657Y12384D01*
X327335Y12139D01*
X327007Y11902D01*
X326672Y11672D01*
X326333Y11451D01*
X325988Y11239D01*
X325638Y11035D01*
X325283Y10839D01*
X324923Y10653D01*
X324559Y10475D01*
X324191Y10306D01*
X323818Y10147D01*
X323442Y9996D01*
X323062Y9855D01*
X322679Y9723D01*
X322293Y9601D01*
X321903Y9488D01*
X321512Y9385D01*
X321117Y9291D01*
X320721Y9207D01*
X320323Y9133D01*
X319923Y9069D01*
X319521Y9014D01*
X319118Y8970D01*
X318715Y8935D01*
X318310Y8910D01*
X317905Y8895D01*
X317500Y8890D01*
X317095Y8895D01*
X316690Y8910D01*
X316285Y8935D01*
X315882Y8970D01*
X315479Y9014D01*
X315077Y9069D01*
X314677Y9133D01*
X314279Y9207D01*
X313883Y9291D01*
X313488Y9385D01*
X313097Y9488D01*
X312707Y9601D01*
X312321Y9723D01*
X311938Y9855D01*
X311558Y9996D01*
X311182Y10147D01*
X310809Y10306D01*
X310441Y10475D01*
X310077Y10653D01*
X309717Y10839D01*
X309362Y11035D01*
X309012Y11239D01*
X308667Y11451D01*
X308328Y11672D01*
X307993Y11902D01*
X307665Y12139D01*
X307343Y12384D01*
X307026Y12638D01*
X306716Y12898D01*
X306413Y13167D01*
X306116Y13443D01*
X305826Y13726D01*
X305543Y14016D01*
X305267Y14313D01*
X304998Y14616D01*
X304738Y14926D01*
X304484Y15243D01*
X304239Y15565D01*
X304002Y15893D01*
X303772Y16228D01*
X303551Y16567D01*
X303339Y16912D01*
X303135Y17262D01*
X302939Y17617D01*
X302753Y17977D01*
X302575Y18341D01*
X302406Y18709D01*
X302247Y19082D01*
X302096Y19458D01*
X301955Y19838D01*
X301823Y20221D01*
X301701Y20607D01*
X301588Y20997D01*
X301485Y21388D01*
X301391Y21783D01*
X301307Y22179D01*
X301233Y22577D01*
X301169Y22977D01*
X301114Y23379D01*
X301070Y23782D01*
X301035Y24185D01*
X301010Y24590D01*
X300995Y24995D01*
X300990Y25400D01*
D11*
X75692Y75523D02*
X75690Y75622D01*
X75684Y75722D01*
X75675Y75821D01*
X75662Y75919D01*
X75645Y76017D01*
X75624Y76115D01*
X75599Y76211D01*
X75571Y76306D01*
X75539Y76400D01*
X75504Y76493D01*
X75465Y76585D01*
X75422Y76675D01*
X75377Y76763D01*
X75327Y76850D01*
X75275Y76934D01*
X75219Y77017D01*
X75161Y77097D01*
X75099Y77175D01*
X75034Y77250D01*
X74966Y77323D01*
X74896Y77393D01*
X74823Y77461D01*
X74748Y77526D01*
X74670Y77588D01*
X74590Y77646D01*
X74507Y77702D01*
X74423Y77754D01*
X74336Y77804D01*
X74248Y77849D01*
X74158Y77892D01*
X74066Y77931D01*
X73973Y77966D01*
X73879Y77998D01*
X73784Y78026D01*
X73688Y78051D01*
X73590Y78072D01*
X73492Y78089D01*
X73394Y78102D01*
X73295Y78111D01*
X73195Y78117D01*
X73096Y78119D01*
X75692Y75523D02*
X75690Y75379D01*
X75684Y75234D01*
X75675Y75090D01*
X75662Y74947D01*
X75645Y74803D01*
X75624Y74660D01*
X75599Y74518D01*
X75571Y74377D01*
X75539Y74236D01*
X75503Y74096D01*
X75464Y73957D01*
X75421Y73819D01*
X75374Y73683D01*
X75324Y73547D01*
X75270Y73413D01*
X75213Y73281D01*
X75152Y73150D01*
X75088Y73021D01*
X75020Y72893D01*
X74950Y72767D01*
X74875Y72643D01*
X74798Y72522D01*
X74717Y72402D01*
X74634Y72284D01*
X74547Y72169D01*
X74457Y72056D01*
X74364Y71945D01*
X74269Y71837D01*
X74170Y71731D01*
X74069Y71628D01*
X66604Y71953D02*
X66505Y71955D01*
X66405Y71961D01*
X66306Y71970D01*
X66208Y71983D01*
X66110Y72000D01*
X66012Y72021D01*
X65916Y72046D01*
X65821Y72074D01*
X65727Y72106D01*
X65634Y72141D01*
X65542Y72180D01*
X65452Y72223D01*
X65364Y72268D01*
X65277Y72318D01*
X65193Y72370D01*
X65110Y72426D01*
X65030Y72484D01*
X64952Y72546D01*
X64877Y72611D01*
X64804Y72679D01*
X64734Y72749D01*
X64666Y72822D01*
X64601Y72897D01*
X64539Y72975D01*
X64481Y73055D01*
X64425Y73138D01*
X64373Y73222D01*
X64323Y73309D01*
X64278Y73397D01*
X64235Y73487D01*
X64196Y73579D01*
X64161Y73672D01*
X64129Y73766D01*
X64101Y73861D01*
X64076Y73957D01*
X64055Y74055D01*
X64038Y74153D01*
X64025Y74251D01*
X64016Y74350D01*
X64010Y74450D01*
X64008Y74549D01*
X64010Y74685D01*
X64016Y74821D01*
X64025Y74957D01*
X64038Y75093D01*
X64056Y75228D01*
X64076Y75362D01*
X64101Y75496D01*
X64129Y75630D01*
X64162Y75762D01*
X64197Y75893D01*
X64237Y76024D01*
X64280Y76153D01*
X64326Y76281D01*
X64377Y76407D01*
X64430Y76533D01*
X64488Y76656D01*
X64548Y76778D01*
X64612Y76898D01*
X64680Y77017D01*
X64750Y77133D01*
X64824Y77247D01*
X64901Y77360D01*
X64982Y77470D01*
X68876Y73251D02*
X68823Y73165D01*
X68766Y73081D01*
X68707Y72999D01*
X68644Y72919D01*
X68578Y72842D01*
X68510Y72767D01*
X68438Y72695D01*
X68364Y72626D01*
X68287Y72560D01*
X68208Y72497D01*
X68126Y72437D01*
X68042Y72380D01*
X67956Y72326D01*
X67868Y72276D01*
X67778Y72229D01*
X67687Y72185D01*
X67593Y72146D01*
X67499Y72109D01*
X67403Y72077D01*
X67305Y72048D01*
X67207Y72023D01*
X67108Y72002D01*
X67008Y71984D01*
X66908Y71971D01*
X66807Y71961D01*
X66705Y71955D01*
X66604Y71953D01*
X70824Y76821D02*
X70877Y76907D01*
X70934Y76991D01*
X70993Y77073D01*
X71056Y77153D01*
X71122Y77230D01*
X71190Y77305D01*
X71262Y77377D01*
X71336Y77446D01*
X71413Y77512D01*
X71492Y77575D01*
X71574Y77635D01*
X71658Y77692D01*
X71744Y77746D01*
X71832Y77796D01*
X71922Y77843D01*
X72013Y77887D01*
X72107Y77926D01*
X72201Y77963D01*
X72297Y77995D01*
X72395Y78024D01*
X72493Y78049D01*
X72592Y78070D01*
X72692Y78088D01*
X72792Y78101D01*
X72893Y78111D01*
X72995Y78117D01*
X73096Y78119D01*
X70824Y76821D02*
X68876Y73251D01*
X75692Y86191D02*
X75690Y86290D01*
X75684Y86390D01*
X75675Y86489D01*
X75662Y86587D01*
X75645Y86685D01*
X75624Y86783D01*
X75599Y86879D01*
X75571Y86974D01*
X75539Y87068D01*
X75504Y87161D01*
X75465Y87253D01*
X75422Y87343D01*
X75377Y87431D01*
X75327Y87518D01*
X75275Y87602D01*
X75219Y87685D01*
X75161Y87765D01*
X75099Y87843D01*
X75034Y87918D01*
X74966Y87991D01*
X74896Y88061D01*
X74823Y88129D01*
X74748Y88194D01*
X74670Y88256D01*
X74590Y88314D01*
X74507Y88370D01*
X74423Y88422D01*
X74336Y88472D01*
X74248Y88517D01*
X74158Y88560D01*
X74066Y88599D01*
X73973Y88634D01*
X73879Y88666D01*
X73784Y88694D01*
X73688Y88719D01*
X73590Y88740D01*
X73492Y88757D01*
X73394Y88770D01*
X73295Y88779D01*
X73195Y88785D01*
X73096Y88787D01*
X75692Y86191D02*
X75690Y86047D01*
X75684Y85902D01*
X75675Y85758D01*
X75662Y85615D01*
X75645Y85471D01*
X75624Y85328D01*
X75599Y85186D01*
X75571Y85045D01*
X75539Y84904D01*
X75503Y84764D01*
X75464Y84625D01*
X75421Y84487D01*
X75374Y84351D01*
X75324Y84215D01*
X75270Y84081D01*
X75213Y83949D01*
X75152Y83818D01*
X75088Y83689D01*
X75020Y83561D01*
X74950Y83435D01*
X74875Y83311D01*
X74798Y83190D01*
X74717Y83070D01*
X74634Y82952D01*
X74547Y82837D01*
X74457Y82724D01*
X74364Y82613D01*
X74269Y82505D01*
X74170Y82399D01*
X74069Y82296D01*
X66604Y82621D02*
X66505Y82623D01*
X66405Y82629D01*
X66306Y82638D01*
X66208Y82651D01*
X66110Y82668D01*
X66012Y82689D01*
X65916Y82714D01*
X65821Y82742D01*
X65727Y82774D01*
X65634Y82809D01*
X65542Y82848D01*
X65452Y82891D01*
X65364Y82936D01*
X65277Y82986D01*
X65193Y83038D01*
X65110Y83094D01*
X65030Y83152D01*
X64952Y83214D01*
X64877Y83279D01*
X64804Y83347D01*
X64734Y83417D01*
X64666Y83490D01*
X64601Y83565D01*
X64539Y83643D01*
X64481Y83723D01*
X64425Y83806D01*
X64373Y83890D01*
X64323Y83977D01*
X64278Y84065D01*
X64235Y84155D01*
X64196Y84247D01*
X64161Y84340D01*
X64129Y84434D01*
X64101Y84529D01*
X64076Y84625D01*
X64055Y84723D01*
X64038Y84821D01*
X64025Y84919D01*
X64016Y85018D01*
X64010Y85118D01*
X64008Y85217D01*
X64010Y85353D01*
X64016Y85489D01*
X64025Y85625D01*
X64038Y85761D01*
X64056Y85896D01*
X64076Y86030D01*
X64101Y86164D01*
X64129Y86298D01*
X64162Y86430D01*
X64197Y86561D01*
X64237Y86692D01*
X64280Y86821D01*
X64326Y86949D01*
X64377Y87075D01*
X64430Y87201D01*
X64488Y87324D01*
X64548Y87446D01*
X64612Y87566D01*
X64680Y87685D01*
X64750Y87801D01*
X64824Y87915D01*
X64901Y88028D01*
X64982Y88138D01*
X68876Y83918D02*
X68823Y83832D01*
X68766Y83748D01*
X68707Y83666D01*
X68644Y83586D01*
X68578Y83509D01*
X68510Y83434D01*
X68438Y83362D01*
X68364Y83293D01*
X68287Y83227D01*
X68208Y83164D01*
X68126Y83104D01*
X68042Y83047D01*
X67956Y82993D01*
X67868Y82943D01*
X67778Y82896D01*
X67687Y82852D01*
X67593Y82813D01*
X67499Y82776D01*
X67403Y82744D01*
X67305Y82715D01*
X67207Y82690D01*
X67108Y82669D01*
X67008Y82651D01*
X66908Y82638D01*
X66807Y82628D01*
X66705Y82622D01*
X66604Y82620D01*
X70824Y87489D02*
X70877Y87575D01*
X70934Y87659D01*
X70993Y87741D01*
X71056Y87821D01*
X71122Y87898D01*
X71190Y87973D01*
X71262Y88045D01*
X71336Y88114D01*
X71413Y88180D01*
X71492Y88243D01*
X71574Y88303D01*
X71658Y88360D01*
X71744Y88414D01*
X71832Y88464D01*
X71922Y88511D01*
X72013Y88555D01*
X72107Y88594D01*
X72201Y88631D01*
X72297Y88663D01*
X72395Y88692D01*
X72493Y88717D01*
X72592Y88738D01*
X72692Y88756D01*
X72792Y88769D01*
X72893Y88779D01*
X72995Y88785D01*
X73096Y88787D01*
X70824Y87489D02*
X68876Y83919D01*
X98496Y78119D02*
X98595Y78117D01*
X98695Y78111D01*
X98794Y78102D01*
X98892Y78089D01*
X98990Y78072D01*
X99088Y78051D01*
X99184Y78026D01*
X99279Y77998D01*
X99373Y77966D01*
X99466Y77931D01*
X99558Y77892D01*
X99648Y77849D01*
X99736Y77804D01*
X99823Y77754D01*
X99907Y77702D01*
X99990Y77646D01*
X100070Y77588D01*
X100148Y77526D01*
X100223Y77461D01*
X100296Y77393D01*
X100366Y77323D01*
X100434Y77250D01*
X100499Y77175D01*
X100561Y77097D01*
X100619Y77017D01*
X100675Y76934D01*
X100727Y76850D01*
X100777Y76763D01*
X100822Y76675D01*
X100865Y76585D01*
X100904Y76493D01*
X100939Y76400D01*
X100971Y76306D01*
X100999Y76211D01*
X101024Y76115D01*
X101045Y76017D01*
X101062Y75919D01*
X101075Y75821D01*
X101084Y75722D01*
X101090Y75622D01*
X101092Y75523D01*
X101090Y75379D01*
X101084Y75234D01*
X101075Y75090D01*
X101062Y74947D01*
X101045Y74803D01*
X101024Y74660D01*
X100999Y74518D01*
X100971Y74377D01*
X100939Y74236D01*
X100903Y74096D01*
X100864Y73957D01*
X100821Y73819D01*
X100774Y73683D01*
X100724Y73547D01*
X100670Y73413D01*
X100613Y73281D01*
X100552Y73150D01*
X100488Y73021D01*
X100420Y72893D01*
X100350Y72767D01*
X100275Y72643D01*
X100198Y72522D01*
X100117Y72402D01*
X100034Y72284D01*
X99947Y72169D01*
X99857Y72056D01*
X99764Y71945D01*
X99669Y71837D01*
X99570Y71731D01*
X99469Y71628D01*
X92004Y71953D02*
X91905Y71955D01*
X91805Y71961D01*
X91706Y71970D01*
X91608Y71983D01*
X91510Y72000D01*
X91412Y72021D01*
X91316Y72046D01*
X91221Y72074D01*
X91127Y72106D01*
X91034Y72141D01*
X90942Y72180D01*
X90852Y72223D01*
X90764Y72268D01*
X90677Y72318D01*
X90593Y72370D01*
X90510Y72426D01*
X90430Y72484D01*
X90352Y72546D01*
X90277Y72611D01*
X90204Y72679D01*
X90134Y72749D01*
X90066Y72822D01*
X90001Y72897D01*
X89939Y72975D01*
X89881Y73055D01*
X89825Y73138D01*
X89773Y73222D01*
X89723Y73309D01*
X89678Y73397D01*
X89635Y73487D01*
X89596Y73579D01*
X89561Y73672D01*
X89529Y73766D01*
X89501Y73861D01*
X89476Y73957D01*
X89455Y74055D01*
X89438Y74153D01*
X89425Y74251D01*
X89416Y74350D01*
X89410Y74450D01*
X89408Y74549D01*
X89410Y74685D01*
X89416Y74821D01*
X89425Y74957D01*
X89438Y75093D01*
X89456Y75228D01*
X89476Y75362D01*
X89501Y75496D01*
X89529Y75630D01*
X89562Y75762D01*
X89597Y75893D01*
X89637Y76024D01*
X89680Y76153D01*
X89726Y76281D01*
X89777Y76407D01*
X89830Y76533D01*
X89888Y76656D01*
X89948Y76778D01*
X90012Y76898D01*
X90080Y77017D01*
X90150Y77133D01*
X90224Y77247D01*
X90301Y77360D01*
X90382Y77470D01*
X94276Y73251D02*
X94223Y73165D01*
X94166Y73081D01*
X94107Y72999D01*
X94044Y72919D01*
X93978Y72842D01*
X93910Y72767D01*
X93838Y72695D01*
X93764Y72626D01*
X93687Y72560D01*
X93608Y72497D01*
X93526Y72437D01*
X93442Y72380D01*
X93356Y72326D01*
X93268Y72276D01*
X93178Y72229D01*
X93087Y72185D01*
X92993Y72146D01*
X92899Y72109D01*
X92803Y72077D01*
X92705Y72048D01*
X92607Y72023D01*
X92508Y72002D01*
X92408Y71984D01*
X92308Y71971D01*
X92207Y71961D01*
X92105Y71955D01*
X92004Y71953D01*
X96224Y76821D02*
X96277Y76907D01*
X96334Y76991D01*
X96393Y77073D01*
X96456Y77153D01*
X96522Y77230D01*
X96590Y77305D01*
X96662Y77377D01*
X96736Y77446D01*
X96813Y77512D01*
X96892Y77575D01*
X96974Y77635D01*
X97058Y77692D01*
X97144Y77746D01*
X97232Y77796D01*
X97322Y77843D01*
X97413Y77887D01*
X97507Y77926D01*
X97601Y77963D01*
X97697Y77995D01*
X97795Y78024D01*
X97893Y78049D01*
X97992Y78070D01*
X98092Y78088D01*
X98192Y78101D01*
X98293Y78111D01*
X98395Y78117D01*
X98496Y78119D01*
X96224Y76821D02*
X94276Y73251D01*
X101092Y85240D02*
X101092Y87837D01*
X101092Y85240D02*
X101090Y85141D01*
X101084Y85041D01*
X101075Y84942D01*
X101062Y84844D01*
X101045Y84746D01*
X101024Y84648D01*
X100999Y84552D01*
X100971Y84457D01*
X100939Y84363D01*
X100904Y84270D01*
X100865Y84178D01*
X100822Y84088D01*
X100777Y84000D01*
X100727Y83913D01*
X100675Y83829D01*
X100619Y83746D01*
X100561Y83666D01*
X100499Y83588D01*
X100434Y83513D01*
X100366Y83440D01*
X100296Y83370D01*
X100223Y83302D01*
X100148Y83237D01*
X100070Y83175D01*
X99990Y83117D01*
X99907Y83061D01*
X99823Y83009D01*
X99736Y82959D01*
X99648Y82914D01*
X99558Y82871D01*
X99466Y82832D01*
X99373Y82797D01*
X99279Y82765D01*
X99184Y82737D01*
X99088Y82712D01*
X98990Y82691D01*
X98892Y82674D01*
X98794Y82661D01*
X98695Y82652D01*
X98595Y82646D01*
X98496Y82644D01*
X92004Y82644D01*
X92004Y82643D02*
X91905Y82645D01*
X91805Y82651D01*
X91706Y82660D01*
X91608Y82673D01*
X91510Y82691D01*
X91412Y82711D01*
X91316Y82736D01*
X91220Y82764D01*
X91126Y82796D01*
X91033Y82831D01*
X90942Y82870D01*
X90852Y82913D01*
X90763Y82958D01*
X90677Y83008D01*
X90592Y83060D01*
X90510Y83116D01*
X90430Y83175D01*
X90352Y83236D01*
X90276Y83301D01*
X90203Y83369D01*
X90133Y83439D01*
X90065Y83512D01*
X90000Y83588D01*
X89939Y83666D01*
X89880Y83746D01*
X89824Y83828D01*
X89772Y83913D01*
X89723Y83999D01*
X89677Y84088D01*
X89634Y84178D01*
X89595Y84269D01*
X89560Y84362D01*
X89528Y84456D01*
X89500Y84552D01*
X89475Y84648D01*
X89455Y84746D01*
X89437Y84844D01*
X89424Y84942D01*
X89415Y85041D01*
X89409Y85140D01*
X89407Y85240D01*
X89408Y85240D02*
X89408Y87837D01*
X89408Y92752D02*
X101092Y92752D01*
X96548Y92752D02*
X89408Y99243D01*
X93952Y95349D02*
X101092Y99243D01*
X117348Y71628D02*
X129032Y71628D01*
X123839Y75523D02*
X117348Y71628D01*
X123839Y75523D02*
X117348Y79417D01*
X129032Y79417D01*
X129032Y85810D02*
X117348Y85810D01*
X129032Y84511D02*
X129032Y87108D01*
X117348Y87108D02*
X117348Y84511D01*
X142748Y71628D02*
X154432Y71628D01*
X149239Y75523D02*
X142748Y71628D01*
X149239Y75523D02*
X142748Y79417D01*
X154432Y79417D01*
X151186Y84850D02*
X145994Y84850D01*
X145881Y84852D01*
X145768Y84858D01*
X145655Y84868D01*
X145542Y84882D01*
X145430Y84899D01*
X145319Y84921D01*
X145209Y84946D01*
X145099Y84976D01*
X144991Y85009D01*
X144884Y85046D01*
X144778Y85086D01*
X144674Y85131D01*
X144571Y85179D01*
X144470Y85230D01*
X144371Y85285D01*
X144274Y85343D01*
X144179Y85405D01*
X144086Y85470D01*
X143996Y85538D01*
X143908Y85609D01*
X143822Y85684D01*
X143739Y85761D01*
X143659Y85841D01*
X143582Y85924D01*
X143507Y86010D01*
X143436Y86098D01*
X143368Y86188D01*
X143303Y86281D01*
X143241Y86376D01*
X143183Y86473D01*
X143128Y86572D01*
X143077Y86673D01*
X143029Y86776D01*
X142984Y86880D01*
X142944Y86986D01*
X142907Y87093D01*
X142874Y87201D01*
X142844Y87311D01*
X142819Y87421D01*
X142797Y87532D01*
X142780Y87644D01*
X142766Y87757D01*
X142756Y87870D01*
X142750Y87983D01*
X142748Y88096D01*
X142750Y88209D01*
X142756Y88322D01*
X142766Y88435D01*
X142780Y88548D01*
X142797Y88660D01*
X142819Y88771D01*
X142844Y88881D01*
X142874Y88991D01*
X142907Y89099D01*
X142944Y89206D01*
X142984Y89312D01*
X143029Y89416D01*
X143077Y89519D01*
X143128Y89620D01*
X143183Y89719D01*
X143241Y89816D01*
X143303Y89911D01*
X143368Y90004D01*
X143436Y90094D01*
X143507Y90182D01*
X143582Y90268D01*
X143659Y90351D01*
X143739Y90431D01*
X143822Y90508D01*
X143908Y90583D01*
X143996Y90654D01*
X144086Y90722D01*
X144179Y90787D01*
X144274Y90849D01*
X144371Y90907D01*
X144470Y90962D01*
X144571Y91013D01*
X144674Y91061D01*
X144778Y91106D01*
X144884Y91146D01*
X144991Y91183D01*
X145099Y91216D01*
X145209Y91246D01*
X145319Y91271D01*
X145430Y91293D01*
X145542Y91310D01*
X145655Y91324D01*
X145768Y91334D01*
X145881Y91340D01*
X145994Y91342D01*
X145994Y91341D02*
X151186Y91341D01*
X151186Y91342D02*
X151299Y91340D01*
X151412Y91334D01*
X151525Y91324D01*
X151638Y91310D01*
X151750Y91293D01*
X151861Y91271D01*
X151971Y91246D01*
X152081Y91216D01*
X152189Y91183D01*
X152296Y91146D01*
X152402Y91106D01*
X152506Y91061D01*
X152609Y91013D01*
X152710Y90962D01*
X152809Y90907D01*
X152906Y90849D01*
X153001Y90787D01*
X153094Y90722D01*
X153184Y90654D01*
X153272Y90583D01*
X153358Y90508D01*
X153441Y90431D01*
X153521Y90351D01*
X153598Y90268D01*
X153673Y90182D01*
X153744Y90094D01*
X153812Y90004D01*
X153877Y89911D01*
X153939Y89816D01*
X153997Y89719D01*
X154052Y89620D01*
X154103Y89519D01*
X154151Y89416D01*
X154196Y89312D01*
X154236Y89206D01*
X154273Y89099D01*
X154306Y88991D01*
X154336Y88881D01*
X154361Y88771D01*
X154383Y88660D01*
X154400Y88548D01*
X154414Y88435D01*
X154424Y88322D01*
X154430Y88209D01*
X154432Y88096D01*
X154430Y87983D01*
X154424Y87870D01*
X154414Y87757D01*
X154400Y87644D01*
X154383Y87532D01*
X154361Y87421D01*
X154336Y87311D01*
X154306Y87201D01*
X154273Y87093D01*
X154236Y86986D01*
X154196Y86880D01*
X154151Y86776D01*
X154103Y86673D01*
X154052Y86572D01*
X153997Y86473D01*
X153939Y86376D01*
X153877Y86281D01*
X153812Y86188D01*
X153744Y86098D01*
X153673Y86010D01*
X153598Y85924D01*
X153521Y85841D01*
X153441Y85761D01*
X153358Y85684D01*
X153272Y85609D01*
X153184Y85538D01*
X153094Y85470D01*
X153001Y85405D01*
X152906Y85343D01*
X152809Y85285D01*
X152710Y85230D01*
X152609Y85179D01*
X152506Y85131D01*
X152402Y85086D01*
X152296Y85046D01*
X152189Y85009D01*
X152081Y84976D01*
X151971Y84946D01*
X151861Y84921D01*
X151750Y84899D01*
X151638Y84882D01*
X151525Y84868D01*
X151412Y84858D01*
X151299Y84852D01*
X151186Y84850D01*
X179832Y74874D02*
X179832Y71628D01*
X179832Y74874D02*
X179830Y74987D01*
X179824Y75100D01*
X179814Y75213D01*
X179800Y75326D01*
X179783Y75438D01*
X179761Y75549D01*
X179736Y75659D01*
X179706Y75769D01*
X179673Y75877D01*
X179636Y75984D01*
X179596Y76090D01*
X179551Y76194D01*
X179503Y76297D01*
X179452Y76398D01*
X179397Y76497D01*
X179339Y76594D01*
X179277Y76689D01*
X179212Y76782D01*
X179144Y76872D01*
X179073Y76960D01*
X178998Y77046D01*
X178921Y77129D01*
X178841Y77209D01*
X178758Y77286D01*
X178672Y77361D01*
X178584Y77432D01*
X178494Y77500D01*
X178401Y77565D01*
X178306Y77627D01*
X178209Y77685D01*
X178110Y77740D01*
X178009Y77791D01*
X177906Y77839D01*
X177802Y77884D01*
X177696Y77924D01*
X177589Y77961D01*
X177481Y77994D01*
X177371Y78024D01*
X177261Y78049D01*
X177150Y78071D01*
X177038Y78088D01*
X176925Y78102D01*
X176812Y78112D01*
X176699Y78118D01*
X176586Y78120D01*
X176473Y78118D01*
X176360Y78112D01*
X176247Y78102D01*
X176134Y78088D01*
X176022Y78071D01*
X175911Y78049D01*
X175801Y78024D01*
X175691Y77994D01*
X175583Y77961D01*
X175476Y77924D01*
X175370Y77884D01*
X175266Y77839D01*
X175163Y77791D01*
X175062Y77740D01*
X174963Y77685D01*
X174866Y77627D01*
X174771Y77565D01*
X174678Y77500D01*
X174588Y77432D01*
X174500Y77361D01*
X174414Y77286D01*
X174331Y77209D01*
X174251Y77129D01*
X174174Y77046D01*
X174099Y76960D01*
X174028Y76872D01*
X173960Y76782D01*
X173895Y76689D01*
X173833Y76594D01*
X173775Y76497D01*
X173720Y76398D01*
X173669Y76297D01*
X173621Y76194D01*
X173576Y76090D01*
X173536Y75984D01*
X173499Y75877D01*
X173466Y75769D01*
X173436Y75659D01*
X173411Y75549D01*
X173389Y75438D01*
X173372Y75326D01*
X173358Y75213D01*
X173348Y75100D01*
X173342Y74987D01*
X173340Y74874D01*
X168148Y75523D02*
X168148Y71628D01*
X168148Y75523D02*
X168150Y75624D01*
X168156Y75724D01*
X168166Y75824D01*
X168179Y75924D01*
X168197Y76023D01*
X168218Y76122D01*
X168243Y76219D01*
X168272Y76316D01*
X168305Y76411D01*
X168341Y76505D01*
X168381Y76597D01*
X168424Y76688D01*
X168471Y76777D01*
X168521Y76864D01*
X168575Y76950D01*
X168632Y77033D01*
X168692Y77113D01*
X168755Y77192D01*
X168822Y77268D01*
X168891Y77341D01*
X168963Y77411D01*
X169037Y77479D01*
X169114Y77544D01*
X169194Y77605D01*
X169276Y77664D01*
X169360Y77719D01*
X169446Y77771D01*
X169534Y77820D01*
X169624Y77865D01*
X169716Y77907D01*
X169809Y77945D01*
X169904Y77979D01*
X169999Y78010D01*
X170096Y78037D01*
X170194Y78060D01*
X170293Y78080D01*
X170393Y78095D01*
X170493Y78107D01*
X170593Y78115D01*
X170694Y78119D01*
X170794Y78119D01*
X170895Y78115D01*
X170995Y78107D01*
X171095Y78095D01*
X171195Y78080D01*
X171294Y78060D01*
X171392Y78037D01*
X171489Y78010D01*
X171584Y77979D01*
X171679Y77945D01*
X171772Y77907D01*
X171864Y77865D01*
X171954Y77820D01*
X172042Y77771D01*
X172128Y77719D01*
X172212Y77664D01*
X172294Y77605D01*
X172374Y77544D01*
X172451Y77479D01*
X172525Y77411D01*
X172597Y77341D01*
X172666Y77268D01*
X172733Y77192D01*
X172796Y77113D01*
X172856Y77033D01*
X172913Y76950D01*
X172967Y76864D01*
X173017Y76777D01*
X173064Y76688D01*
X173107Y76597D01*
X173147Y76505D01*
X173183Y76411D01*
X173216Y76316D01*
X173245Y76219D01*
X173270Y76122D01*
X173291Y76023D01*
X173309Y75924D01*
X173322Y75824D01*
X173332Y75724D01*
X173338Y75624D01*
X173340Y75523D01*
X173341Y75523D02*
X173341Y72926D01*
X168148Y82409D02*
X179832Y86304D01*
X168148Y90198D01*
X195171Y72602D02*
X195378Y72503D01*
X195589Y72410D01*
X195801Y72322D01*
X196015Y72239D01*
X196231Y72161D01*
X196449Y72088D01*
X196669Y72020D01*
X196890Y71958D01*
X197113Y71901D01*
X197337Y71849D01*
X197562Y71803D01*
X197788Y71762D01*
X198015Y71727D01*
X198243Y71697D01*
X198472Y71672D01*
X198701Y71653D01*
X198930Y71639D01*
X199160Y71631D01*
X199390Y71628D01*
X195171Y72602D02*
X195081Y72635D01*
X194992Y72671D01*
X194904Y72711D01*
X194819Y72755D01*
X194735Y72802D01*
X194653Y72852D01*
X194573Y72906D01*
X194496Y72962D01*
X194420Y73022D01*
X194347Y73085D01*
X194277Y73150D01*
X194209Y73219D01*
X194145Y73290D01*
X194083Y73363D01*
X194024Y73439D01*
X193968Y73517D01*
X193915Y73598D01*
X193866Y73680D01*
X193820Y73764D01*
X193777Y73851D01*
X193738Y73938D01*
X193702Y74028D01*
X193670Y74118D01*
X193642Y74210D01*
X193617Y74303D01*
X193596Y74397D01*
X193579Y74491D01*
X193565Y74586D01*
X193556Y74682D01*
X193550Y74778D01*
X193548Y74874D01*
X193550Y74970D01*
X193556Y75066D01*
X193565Y75162D01*
X193579Y75257D01*
X193596Y75351D01*
X193617Y75445D01*
X193642Y75538D01*
X193670Y75630D01*
X193702Y75720D01*
X193738Y75810D01*
X193777Y75898D01*
X193820Y75984D01*
X193866Y76068D01*
X193915Y76150D01*
X193968Y76231D01*
X194024Y76309D01*
X194083Y76385D01*
X194145Y76458D01*
X194209Y76529D01*
X194277Y76598D01*
X194347Y76663D01*
X194420Y76726D01*
X194496Y76786D01*
X194573Y76842D01*
X194653Y76896D01*
X194735Y76946D01*
X194819Y76993D01*
X194904Y77037D01*
X194992Y77077D01*
X195081Y77113D01*
X195171Y77146D01*
X195171Y77145D02*
X195378Y77244D01*
X195589Y77337D01*
X195801Y77425D01*
X196015Y77508D01*
X196231Y77586D01*
X196449Y77659D01*
X196669Y77727D01*
X196890Y77789D01*
X197113Y77846D01*
X197337Y77898D01*
X197562Y77944D01*
X197788Y77985D01*
X198015Y78020D01*
X198243Y78050D01*
X198472Y78075D01*
X198701Y78094D01*
X198930Y78108D01*
X199160Y78116D01*
X199390Y78119D01*
X199390Y71628D02*
X199620Y71631D01*
X199850Y71639D01*
X200079Y71653D01*
X200308Y71672D01*
X200537Y71697D01*
X200765Y71727D01*
X200992Y71762D01*
X201218Y71803D01*
X201443Y71849D01*
X201667Y71901D01*
X201890Y71958D01*
X202111Y72020D01*
X202331Y72088D01*
X202549Y72161D01*
X202765Y72239D01*
X202979Y72322D01*
X203191Y72410D01*
X203402Y72503D01*
X203609Y72602D01*
X203699Y72635D01*
X203788Y72671D01*
X203876Y72712D01*
X203961Y72755D01*
X204045Y72802D01*
X204127Y72852D01*
X204207Y72906D01*
X204284Y72962D01*
X204360Y73022D01*
X204433Y73085D01*
X204503Y73150D01*
X204571Y73219D01*
X204635Y73290D01*
X204697Y73363D01*
X204756Y73439D01*
X204812Y73517D01*
X204865Y73598D01*
X204914Y73680D01*
X204960Y73764D01*
X205003Y73851D01*
X205042Y73938D01*
X205078Y74028D01*
X205110Y74118D01*
X205138Y74210D01*
X205163Y74303D01*
X205184Y74397D01*
X205201Y74491D01*
X205215Y74586D01*
X205224Y74682D01*
X205230Y74778D01*
X205232Y74874D01*
X203609Y77145D02*
X203402Y77244D01*
X203191Y77337D01*
X202979Y77425D01*
X202765Y77508D01*
X202549Y77586D01*
X202331Y77659D01*
X202111Y77727D01*
X201890Y77789D01*
X201667Y77846D01*
X201443Y77898D01*
X201218Y77944D01*
X200992Y77985D01*
X200765Y78020D01*
X200537Y78050D01*
X200308Y78075D01*
X200079Y78094D01*
X199850Y78108D01*
X199620Y78116D01*
X199390Y78119D01*
X203609Y77146D02*
X203699Y77113D01*
X203788Y77077D01*
X203876Y77037D01*
X203961Y76993D01*
X204045Y76946D01*
X204127Y76896D01*
X204207Y76842D01*
X204284Y76786D01*
X204360Y76726D01*
X204433Y76663D01*
X204503Y76598D01*
X204571Y76529D01*
X204635Y76458D01*
X204697Y76385D01*
X204756Y76309D01*
X204812Y76231D01*
X204865Y76150D01*
X204914Y76068D01*
X204960Y75984D01*
X205003Y75897D01*
X205042Y75810D01*
X205078Y75720D01*
X205110Y75630D01*
X205138Y75538D01*
X205163Y75445D01*
X205184Y75351D01*
X205201Y75257D01*
X205215Y75162D01*
X205224Y75066D01*
X205230Y74970D01*
X205232Y74874D01*
X202636Y72277D02*
X196144Y77470D01*
X193548Y82409D02*
X205232Y86304D01*
X193548Y90198D01*
X241808Y80010D02*
X241811Y80240D01*
X241819Y80470D01*
X241833Y80699D01*
X241852Y80928D01*
X241877Y81157D01*
X241907Y81384D01*
X241942Y81612D01*
X241983Y81838D01*
X242029Y82063D01*
X242081Y82287D01*
X242138Y82509D01*
X242200Y82731D01*
X242268Y82950D01*
X242341Y83168D01*
X242419Y83385D01*
X242502Y83599D01*
X242590Y83811D01*
X242683Y84021D01*
X242782Y84229D01*
X242815Y84319D01*
X242851Y84408D01*
X242891Y84496D01*
X242935Y84581D01*
X242982Y84665D01*
X243032Y84747D01*
X243086Y84827D01*
X243142Y84904D01*
X243202Y84980D01*
X243265Y85053D01*
X243330Y85123D01*
X243399Y85191D01*
X243470Y85255D01*
X243543Y85317D01*
X243619Y85376D01*
X243697Y85432D01*
X243778Y85485D01*
X243860Y85534D01*
X243944Y85580D01*
X244031Y85623D01*
X244118Y85662D01*
X244208Y85698D01*
X244298Y85730D01*
X244390Y85758D01*
X244483Y85783D01*
X244577Y85804D01*
X244671Y85821D01*
X244766Y85835D01*
X244862Y85844D01*
X244958Y85850D01*
X245054Y85852D01*
X245150Y85850D01*
X245246Y85844D01*
X245342Y85835D01*
X245437Y85821D01*
X245531Y85804D01*
X245625Y85783D01*
X245718Y85758D01*
X245810Y85730D01*
X245900Y85698D01*
X245990Y85662D01*
X246077Y85623D01*
X246164Y85580D01*
X246248Y85534D01*
X246330Y85485D01*
X246411Y85432D01*
X246489Y85376D01*
X246565Y85317D01*
X246638Y85255D01*
X246709Y85191D01*
X246778Y85123D01*
X246843Y85053D01*
X246906Y84980D01*
X246966Y84904D01*
X247022Y84827D01*
X247076Y84747D01*
X247126Y84665D01*
X247173Y84581D01*
X247217Y84496D01*
X247257Y84408D01*
X247293Y84319D01*
X247326Y84229D01*
X247425Y84022D01*
X247518Y83812D01*
X247606Y83599D01*
X247689Y83385D01*
X247767Y83169D01*
X247840Y82951D01*
X247908Y82731D01*
X247970Y82510D01*
X248027Y82287D01*
X248079Y82063D01*
X248125Y81838D01*
X248166Y81612D01*
X248201Y81385D01*
X248231Y81157D01*
X248256Y80928D01*
X248275Y80699D01*
X248289Y80470D01*
X248297Y80240D01*
X248300Y80010D01*
X241808Y80010D02*
X241811Y79780D01*
X241819Y79550D01*
X241833Y79321D01*
X241852Y79092D01*
X241877Y78863D01*
X241907Y78635D01*
X241942Y78408D01*
X241983Y78182D01*
X242029Y77957D01*
X242081Y77733D01*
X242138Y77510D01*
X242200Y77289D01*
X242268Y77069D01*
X242341Y76851D01*
X242419Y76635D01*
X242502Y76421D01*
X242590Y76209D01*
X242683Y75998D01*
X242782Y75791D01*
X242815Y75701D01*
X242851Y75612D01*
X242892Y75524D01*
X242935Y75439D01*
X242982Y75355D01*
X243032Y75273D01*
X243086Y75193D01*
X243142Y75116D01*
X243202Y75040D01*
X243265Y74967D01*
X243330Y74897D01*
X243399Y74829D01*
X243470Y74765D01*
X243543Y74703D01*
X243619Y74644D01*
X243697Y74588D01*
X243778Y74535D01*
X243860Y74486D01*
X243944Y74440D01*
X244031Y74397D01*
X244118Y74358D01*
X244208Y74322D01*
X244298Y74290D01*
X244390Y74262D01*
X244483Y74237D01*
X244577Y74216D01*
X244671Y74199D01*
X244766Y74185D01*
X244862Y74176D01*
X244958Y74170D01*
X245054Y74168D01*
X247325Y75791D02*
X247424Y75998D01*
X247517Y76209D01*
X247605Y76421D01*
X247688Y76635D01*
X247766Y76851D01*
X247839Y77069D01*
X247907Y77289D01*
X247969Y77510D01*
X248026Y77733D01*
X248078Y77957D01*
X248124Y78182D01*
X248165Y78408D01*
X248200Y78635D01*
X248230Y78863D01*
X248255Y79092D01*
X248274Y79321D01*
X248288Y79550D01*
X248296Y79780D01*
X248299Y80010D01*
X247326Y75791D02*
X247293Y75701D01*
X247257Y75612D01*
X247217Y75524D01*
X247173Y75439D01*
X247126Y75355D01*
X247076Y75273D01*
X247022Y75193D01*
X246966Y75116D01*
X246906Y75040D01*
X246843Y74967D01*
X246778Y74897D01*
X246709Y74829D01*
X246638Y74765D01*
X246565Y74703D01*
X246489Y74644D01*
X246411Y74588D01*
X246330Y74535D01*
X246248Y74486D01*
X246164Y74440D01*
X246077Y74397D01*
X245990Y74358D01*
X245900Y74322D01*
X245810Y74290D01*
X245718Y74262D01*
X245625Y74237D01*
X245531Y74216D01*
X245437Y74199D01*
X245342Y74185D01*
X245246Y74176D01*
X245150Y74170D01*
X245054Y74168D01*
X242457Y76764D02*
X247650Y83256D01*
X252589Y85852D02*
X256484Y74168D01*
X260378Y85852D01*
X254508Y196850D02*
X254511Y197080D01*
X254519Y197310D01*
X254533Y197539D01*
X254552Y197768D01*
X254577Y197997D01*
X254607Y198224D01*
X254642Y198452D01*
X254683Y198678D01*
X254729Y198903D01*
X254781Y199127D01*
X254838Y199349D01*
X254900Y199571D01*
X254968Y199790D01*
X255041Y200008D01*
X255119Y200225D01*
X255202Y200439D01*
X255290Y200651D01*
X255383Y200861D01*
X255482Y201069D01*
X255515Y201159D01*
X255551Y201248D01*
X255591Y201336D01*
X255635Y201421D01*
X255682Y201505D01*
X255732Y201587D01*
X255786Y201667D01*
X255842Y201744D01*
X255902Y201820D01*
X255965Y201893D01*
X256030Y201963D01*
X256099Y202031D01*
X256170Y202095D01*
X256243Y202157D01*
X256319Y202216D01*
X256397Y202272D01*
X256478Y202325D01*
X256560Y202374D01*
X256644Y202420D01*
X256731Y202463D01*
X256818Y202502D01*
X256908Y202538D01*
X256998Y202570D01*
X257090Y202598D01*
X257183Y202623D01*
X257277Y202644D01*
X257371Y202661D01*
X257466Y202675D01*
X257562Y202684D01*
X257658Y202690D01*
X257754Y202692D01*
X257850Y202690D01*
X257946Y202684D01*
X258042Y202675D01*
X258137Y202661D01*
X258231Y202644D01*
X258325Y202623D01*
X258418Y202598D01*
X258510Y202570D01*
X258600Y202538D01*
X258690Y202502D01*
X258777Y202463D01*
X258864Y202420D01*
X258948Y202374D01*
X259030Y202325D01*
X259111Y202272D01*
X259189Y202216D01*
X259265Y202157D01*
X259338Y202095D01*
X259409Y202031D01*
X259478Y201963D01*
X259543Y201893D01*
X259606Y201820D01*
X259666Y201744D01*
X259722Y201667D01*
X259776Y201587D01*
X259826Y201505D01*
X259873Y201421D01*
X259917Y201336D01*
X259957Y201248D01*
X259993Y201159D01*
X260026Y201069D01*
X260125Y200862D01*
X260218Y200652D01*
X260306Y200439D01*
X260389Y200225D01*
X260467Y200009D01*
X260540Y199791D01*
X260608Y199571D01*
X260670Y199350D01*
X260727Y199127D01*
X260779Y198903D01*
X260825Y198678D01*
X260866Y198452D01*
X260901Y198225D01*
X260931Y197997D01*
X260956Y197768D01*
X260975Y197539D01*
X260989Y197310D01*
X260997Y197080D01*
X261000Y196850D01*
X254508Y196850D02*
X254511Y196620D01*
X254519Y196390D01*
X254533Y196161D01*
X254552Y195932D01*
X254577Y195703D01*
X254607Y195475D01*
X254642Y195248D01*
X254683Y195022D01*
X254729Y194797D01*
X254781Y194573D01*
X254838Y194350D01*
X254900Y194129D01*
X254968Y193909D01*
X255041Y193691D01*
X255119Y193475D01*
X255202Y193261D01*
X255290Y193049D01*
X255383Y192838D01*
X255482Y192631D01*
X255515Y192541D01*
X255551Y192452D01*
X255592Y192364D01*
X255635Y192279D01*
X255682Y192195D01*
X255732Y192113D01*
X255786Y192033D01*
X255842Y191956D01*
X255902Y191880D01*
X255965Y191807D01*
X256030Y191737D01*
X256099Y191669D01*
X256170Y191605D01*
X256243Y191543D01*
X256319Y191484D01*
X256397Y191428D01*
X256478Y191375D01*
X256560Y191326D01*
X256644Y191280D01*
X256731Y191237D01*
X256818Y191198D01*
X256908Y191162D01*
X256998Y191130D01*
X257090Y191102D01*
X257183Y191077D01*
X257277Y191056D01*
X257371Y191039D01*
X257466Y191025D01*
X257562Y191016D01*
X257658Y191010D01*
X257754Y191008D01*
X260025Y192631D02*
X260124Y192838D01*
X260217Y193049D01*
X260305Y193261D01*
X260388Y193475D01*
X260466Y193691D01*
X260539Y193909D01*
X260607Y194129D01*
X260669Y194350D01*
X260726Y194573D01*
X260778Y194797D01*
X260824Y195022D01*
X260865Y195248D01*
X260900Y195475D01*
X260930Y195703D01*
X260955Y195932D01*
X260974Y196161D01*
X260988Y196390D01*
X260996Y196620D01*
X260999Y196850D01*
X260026Y192631D02*
X259993Y192541D01*
X259957Y192452D01*
X259917Y192364D01*
X259873Y192279D01*
X259826Y192195D01*
X259776Y192113D01*
X259722Y192033D01*
X259666Y191956D01*
X259606Y191880D01*
X259543Y191807D01*
X259478Y191737D01*
X259409Y191669D01*
X259338Y191605D01*
X259265Y191543D01*
X259189Y191484D01*
X259111Y191428D01*
X259030Y191375D01*
X258948Y191326D01*
X258864Y191280D01*
X258777Y191237D01*
X258690Y191198D01*
X258600Y191162D01*
X258510Y191130D01*
X258418Y191102D01*
X258325Y191077D01*
X258231Y191056D01*
X258137Y191039D01*
X258042Y191025D01*
X257946Y191016D01*
X257850Y191010D01*
X257754Y191008D01*
X255157Y193604D02*
X260350Y200096D01*
X257754Y165608D02*
X254508Y165608D01*
X257754Y165608D02*
X257867Y165610D01*
X257980Y165616D01*
X258093Y165626D01*
X258206Y165640D01*
X258318Y165657D01*
X258429Y165679D01*
X258539Y165704D01*
X258649Y165734D01*
X258757Y165767D01*
X258864Y165804D01*
X258970Y165844D01*
X259074Y165889D01*
X259177Y165937D01*
X259278Y165988D01*
X259377Y166043D01*
X259474Y166101D01*
X259569Y166163D01*
X259662Y166228D01*
X259752Y166296D01*
X259840Y166367D01*
X259926Y166442D01*
X260009Y166519D01*
X260089Y166599D01*
X260166Y166682D01*
X260241Y166768D01*
X260312Y166856D01*
X260380Y166946D01*
X260445Y167039D01*
X260507Y167134D01*
X260565Y167231D01*
X260620Y167330D01*
X260671Y167431D01*
X260719Y167534D01*
X260764Y167638D01*
X260804Y167744D01*
X260841Y167851D01*
X260874Y167959D01*
X260904Y168069D01*
X260929Y168179D01*
X260951Y168290D01*
X260968Y168402D01*
X260982Y168515D01*
X260992Y168628D01*
X260998Y168741D01*
X261000Y168854D01*
X260998Y168967D01*
X260992Y169080D01*
X260982Y169193D01*
X260968Y169306D01*
X260951Y169418D01*
X260929Y169529D01*
X260904Y169639D01*
X260874Y169749D01*
X260841Y169857D01*
X260804Y169964D01*
X260764Y170070D01*
X260719Y170174D01*
X260671Y170277D01*
X260620Y170378D01*
X260565Y170477D01*
X260507Y170574D01*
X260445Y170669D01*
X260380Y170762D01*
X260312Y170852D01*
X260241Y170940D01*
X260166Y171026D01*
X260089Y171109D01*
X260009Y171189D01*
X259926Y171266D01*
X259840Y171341D01*
X259752Y171412D01*
X259662Y171480D01*
X259569Y171545D01*
X259474Y171607D01*
X259377Y171665D01*
X259278Y171720D01*
X259177Y171771D01*
X259074Y171819D01*
X258970Y171864D01*
X258864Y171904D01*
X258757Y171941D01*
X258649Y171974D01*
X258539Y172004D01*
X258429Y172029D01*
X258318Y172051D01*
X258206Y172068D01*
X258093Y172082D01*
X257980Y172092D01*
X257867Y172098D01*
X257754Y172100D01*
X258403Y177292D02*
X254508Y177292D01*
X258403Y177292D02*
X258504Y177290D01*
X258604Y177284D01*
X258704Y177274D01*
X258804Y177261D01*
X258903Y177243D01*
X259002Y177222D01*
X259099Y177197D01*
X259196Y177168D01*
X259291Y177135D01*
X259385Y177099D01*
X259477Y177059D01*
X259568Y177016D01*
X259657Y176969D01*
X259744Y176919D01*
X259830Y176865D01*
X259913Y176808D01*
X259993Y176748D01*
X260072Y176685D01*
X260148Y176618D01*
X260221Y176549D01*
X260291Y176477D01*
X260359Y176403D01*
X260424Y176326D01*
X260485Y176246D01*
X260544Y176164D01*
X260599Y176080D01*
X260651Y175994D01*
X260700Y175906D01*
X260745Y175816D01*
X260787Y175724D01*
X260825Y175631D01*
X260859Y175536D01*
X260890Y175441D01*
X260917Y175344D01*
X260940Y175246D01*
X260960Y175147D01*
X260975Y175047D01*
X260987Y174947D01*
X260995Y174847D01*
X260999Y174746D01*
X260999Y174646D01*
X260995Y174545D01*
X260987Y174445D01*
X260975Y174345D01*
X260960Y174245D01*
X260940Y174146D01*
X260917Y174048D01*
X260890Y173951D01*
X260859Y173856D01*
X260825Y173761D01*
X260787Y173668D01*
X260745Y173576D01*
X260700Y173486D01*
X260651Y173398D01*
X260599Y173312D01*
X260544Y173228D01*
X260485Y173146D01*
X260424Y173066D01*
X260359Y172989D01*
X260291Y172915D01*
X260221Y172843D01*
X260148Y172774D01*
X260072Y172707D01*
X259993Y172644D01*
X259913Y172584D01*
X259830Y172527D01*
X259744Y172473D01*
X259657Y172423D01*
X259568Y172376D01*
X259477Y172333D01*
X259385Y172293D01*
X259291Y172257D01*
X259196Y172224D01*
X259099Y172195D01*
X259002Y172170D01*
X258903Y172149D01*
X258804Y172131D01*
X258704Y172118D01*
X258604Y172108D01*
X258504Y172102D01*
X258403Y172100D01*
X258403Y172099D02*
X255806Y172099D01*
X258403Y151892D02*
X254508Y140208D01*
X262297Y140208D02*
X258403Y151892D01*
X261324Y143129D02*
X255482Y143129D01*
X254508Y121299D02*
X257754Y121299D01*
X257754Y121300D02*
X257867Y121298D01*
X257980Y121292D01*
X258093Y121282D01*
X258206Y121268D01*
X258318Y121251D01*
X258429Y121229D01*
X258539Y121204D01*
X258649Y121174D01*
X258757Y121141D01*
X258864Y121104D01*
X258970Y121064D01*
X259074Y121019D01*
X259177Y120971D01*
X259278Y120920D01*
X259377Y120865D01*
X259474Y120807D01*
X259569Y120745D01*
X259662Y120680D01*
X259752Y120612D01*
X259840Y120541D01*
X259926Y120466D01*
X260009Y120389D01*
X260089Y120309D01*
X260166Y120226D01*
X260241Y120140D01*
X260312Y120052D01*
X260380Y119962D01*
X260445Y119869D01*
X260507Y119774D01*
X260565Y119677D01*
X260620Y119578D01*
X260671Y119477D01*
X260719Y119374D01*
X260764Y119270D01*
X260804Y119164D01*
X260841Y119057D01*
X260874Y118949D01*
X260904Y118839D01*
X260929Y118729D01*
X260951Y118618D01*
X260968Y118506D01*
X260982Y118393D01*
X260992Y118280D01*
X260998Y118167D01*
X261000Y118054D01*
X260998Y117941D01*
X260992Y117828D01*
X260982Y117715D01*
X260968Y117602D01*
X260951Y117490D01*
X260929Y117379D01*
X260904Y117269D01*
X260874Y117159D01*
X260841Y117051D01*
X260804Y116944D01*
X260764Y116838D01*
X260719Y116734D01*
X260671Y116631D01*
X260620Y116530D01*
X260565Y116431D01*
X260507Y116334D01*
X260445Y116239D01*
X260380Y116146D01*
X260312Y116056D01*
X260241Y115968D01*
X260166Y115882D01*
X260089Y115799D01*
X260009Y115719D01*
X259926Y115642D01*
X259840Y115567D01*
X259752Y115496D01*
X259662Y115428D01*
X259569Y115363D01*
X259474Y115301D01*
X259377Y115243D01*
X259278Y115188D01*
X259177Y115137D01*
X259074Y115089D01*
X258970Y115044D01*
X258864Y115004D01*
X258757Y114967D01*
X258649Y114934D01*
X258539Y114904D01*
X258429Y114879D01*
X258318Y114857D01*
X258206Y114840D01*
X258093Y114826D01*
X257980Y114816D01*
X257867Y114810D01*
X257754Y114808D01*
X254508Y114808D01*
X254508Y126492D01*
X257754Y126492D01*
X257855Y126490D01*
X257955Y126484D01*
X258055Y126474D01*
X258155Y126461D01*
X258254Y126443D01*
X258353Y126422D01*
X258450Y126397D01*
X258547Y126368D01*
X258642Y126335D01*
X258736Y126299D01*
X258828Y126259D01*
X258919Y126216D01*
X259008Y126169D01*
X259095Y126119D01*
X259181Y126065D01*
X259264Y126008D01*
X259344Y125948D01*
X259423Y125885D01*
X259499Y125818D01*
X259572Y125749D01*
X259642Y125677D01*
X259710Y125603D01*
X259775Y125526D01*
X259836Y125446D01*
X259895Y125364D01*
X259950Y125280D01*
X260002Y125194D01*
X260051Y125106D01*
X260096Y125016D01*
X260138Y124924D01*
X260176Y124831D01*
X260210Y124736D01*
X260241Y124641D01*
X260268Y124544D01*
X260291Y124446D01*
X260311Y124347D01*
X260326Y124247D01*
X260338Y124147D01*
X260346Y124047D01*
X260350Y123946D01*
X260350Y123846D01*
X260346Y123745D01*
X260338Y123645D01*
X260326Y123545D01*
X260311Y123445D01*
X260291Y123346D01*
X260268Y123248D01*
X260241Y123151D01*
X260210Y123056D01*
X260176Y122961D01*
X260138Y122868D01*
X260096Y122776D01*
X260051Y122686D01*
X260002Y122598D01*
X259950Y122512D01*
X259895Y122428D01*
X259836Y122346D01*
X259775Y122266D01*
X259710Y122189D01*
X259642Y122115D01*
X259572Y122043D01*
X259499Y121974D01*
X259423Y121907D01*
X259344Y121844D01*
X259264Y121784D01*
X259181Y121727D01*
X259095Y121673D01*
X259008Y121623D01*
X258919Y121576D01*
X258828Y121533D01*
X258736Y121493D01*
X258642Y121457D01*
X258547Y121424D01*
X258450Y121395D01*
X258353Y121370D01*
X258254Y121349D01*
X258155Y121331D01*
X258055Y121318D01*
X257955Y121308D01*
X257855Y121302D01*
X257754Y121300D01*
X205063Y236728D02*
X201168Y236728D01*
X205063Y236728D02*
X205162Y236730D01*
X205262Y236736D01*
X205361Y236745D01*
X205459Y236758D01*
X205557Y236775D01*
X205655Y236796D01*
X205751Y236821D01*
X205846Y236849D01*
X205940Y236881D01*
X206033Y236916D01*
X206125Y236955D01*
X206215Y236998D01*
X206303Y237043D01*
X206390Y237093D01*
X206474Y237145D01*
X206557Y237201D01*
X206637Y237259D01*
X206715Y237321D01*
X206790Y237386D01*
X206863Y237454D01*
X206933Y237524D01*
X207001Y237597D01*
X207066Y237672D01*
X207128Y237750D01*
X207186Y237830D01*
X207242Y237913D01*
X207294Y237997D01*
X207344Y238084D01*
X207389Y238172D01*
X207432Y238262D01*
X207471Y238354D01*
X207506Y238447D01*
X207538Y238541D01*
X207566Y238636D01*
X207591Y238732D01*
X207612Y238830D01*
X207629Y238928D01*
X207642Y239026D01*
X207651Y239125D01*
X207657Y239225D01*
X207659Y239324D01*
X207659Y240623D01*
X207657Y240722D01*
X207651Y240822D01*
X207642Y240921D01*
X207629Y241019D01*
X207612Y241117D01*
X207591Y241215D01*
X207566Y241311D01*
X207538Y241406D01*
X207506Y241500D01*
X207471Y241593D01*
X207432Y241685D01*
X207389Y241775D01*
X207344Y241863D01*
X207294Y241950D01*
X207242Y242034D01*
X207186Y242117D01*
X207128Y242197D01*
X207066Y242275D01*
X207001Y242350D01*
X206933Y242423D01*
X206863Y242493D01*
X206790Y242561D01*
X206715Y242626D01*
X206637Y242688D01*
X206557Y242746D01*
X206474Y242802D01*
X206390Y242854D01*
X206303Y242904D01*
X206215Y242949D01*
X206125Y242992D01*
X206033Y243031D01*
X205940Y243066D01*
X205846Y243098D01*
X205751Y243126D01*
X205655Y243151D01*
X205557Y243172D01*
X205459Y243189D01*
X205361Y243202D01*
X205262Y243211D01*
X205162Y243217D01*
X205063Y243219D01*
X201168Y243219D01*
X201168Y248412D01*
X207659Y248412D01*
X211949Y248412D02*
X215844Y236728D01*
X219738Y248412D01*
X201168Y267970D02*
X201171Y268200D01*
X201179Y268430D01*
X201193Y268659D01*
X201212Y268888D01*
X201237Y269117D01*
X201267Y269344D01*
X201302Y269572D01*
X201343Y269798D01*
X201389Y270023D01*
X201441Y270247D01*
X201498Y270469D01*
X201560Y270691D01*
X201628Y270910D01*
X201701Y271128D01*
X201779Y271345D01*
X201862Y271559D01*
X201950Y271771D01*
X202043Y271981D01*
X202142Y272189D01*
X202175Y272279D01*
X202211Y272368D01*
X202251Y272456D01*
X202295Y272541D01*
X202342Y272625D01*
X202392Y272707D01*
X202446Y272787D01*
X202502Y272864D01*
X202562Y272940D01*
X202625Y273013D01*
X202690Y273083D01*
X202759Y273151D01*
X202830Y273215D01*
X202903Y273277D01*
X202979Y273336D01*
X203057Y273392D01*
X203138Y273445D01*
X203220Y273494D01*
X203304Y273540D01*
X203391Y273583D01*
X203478Y273622D01*
X203568Y273658D01*
X203658Y273690D01*
X203750Y273718D01*
X203843Y273743D01*
X203937Y273764D01*
X204031Y273781D01*
X204126Y273795D01*
X204222Y273804D01*
X204318Y273810D01*
X204414Y273812D01*
X204510Y273810D01*
X204606Y273804D01*
X204702Y273795D01*
X204797Y273781D01*
X204891Y273764D01*
X204985Y273743D01*
X205078Y273718D01*
X205170Y273690D01*
X205260Y273658D01*
X205350Y273622D01*
X205437Y273583D01*
X205524Y273540D01*
X205608Y273494D01*
X205690Y273445D01*
X205771Y273392D01*
X205849Y273336D01*
X205925Y273277D01*
X205998Y273215D01*
X206069Y273151D01*
X206138Y273083D01*
X206203Y273013D01*
X206266Y272940D01*
X206326Y272864D01*
X206382Y272787D01*
X206436Y272707D01*
X206486Y272625D01*
X206533Y272541D01*
X206577Y272456D01*
X206617Y272368D01*
X206653Y272279D01*
X206686Y272189D01*
X206785Y271982D01*
X206878Y271772D01*
X206966Y271559D01*
X207049Y271345D01*
X207127Y271129D01*
X207200Y270911D01*
X207268Y270691D01*
X207330Y270470D01*
X207387Y270247D01*
X207439Y270023D01*
X207485Y269798D01*
X207526Y269572D01*
X207561Y269345D01*
X207591Y269117D01*
X207616Y268888D01*
X207635Y268659D01*
X207649Y268430D01*
X207657Y268200D01*
X207660Y267970D01*
X201168Y267970D02*
X201171Y267740D01*
X201179Y267510D01*
X201193Y267281D01*
X201212Y267052D01*
X201237Y266823D01*
X201267Y266595D01*
X201302Y266368D01*
X201343Y266142D01*
X201389Y265917D01*
X201441Y265693D01*
X201498Y265470D01*
X201560Y265249D01*
X201628Y265029D01*
X201701Y264811D01*
X201779Y264595D01*
X201862Y264381D01*
X201950Y264169D01*
X202043Y263958D01*
X202142Y263751D01*
X202175Y263661D01*
X202211Y263572D01*
X202252Y263484D01*
X202295Y263399D01*
X202342Y263315D01*
X202392Y263233D01*
X202446Y263153D01*
X202502Y263076D01*
X202562Y263000D01*
X202625Y262927D01*
X202690Y262857D01*
X202759Y262789D01*
X202830Y262725D01*
X202903Y262663D01*
X202979Y262604D01*
X203057Y262548D01*
X203138Y262495D01*
X203220Y262446D01*
X203304Y262400D01*
X203391Y262357D01*
X203478Y262318D01*
X203568Y262282D01*
X203658Y262250D01*
X203750Y262222D01*
X203843Y262197D01*
X203937Y262176D01*
X204031Y262159D01*
X204126Y262145D01*
X204222Y262136D01*
X204318Y262130D01*
X204414Y262128D01*
X206685Y263751D02*
X206784Y263958D01*
X206877Y264169D01*
X206965Y264381D01*
X207048Y264595D01*
X207126Y264811D01*
X207199Y265029D01*
X207267Y265249D01*
X207329Y265470D01*
X207386Y265693D01*
X207438Y265917D01*
X207484Y266142D01*
X207525Y266368D01*
X207560Y266595D01*
X207590Y266823D01*
X207615Y267052D01*
X207634Y267281D01*
X207648Y267510D01*
X207656Y267740D01*
X207659Y267970D01*
X206686Y263751D02*
X206653Y263661D01*
X206617Y263572D01*
X206577Y263484D01*
X206533Y263399D01*
X206486Y263315D01*
X206436Y263233D01*
X206382Y263153D01*
X206326Y263076D01*
X206266Y263000D01*
X206203Y262927D01*
X206138Y262857D01*
X206069Y262789D01*
X205998Y262725D01*
X205925Y262663D01*
X205849Y262604D01*
X205771Y262548D01*
X205690Y262495D01*
X205608Y262446D01*
X205524Y262400D01*
X205437Y262357D01*
X205350Y262318D01*
X205260Y262282D01*
X205170Y262250D01*
X205078Y262222D01*
X204985Y262197D01*
X204891Y262176D01*
X204797Y262159D01*
X204702Y262145D01*
X204606Y262136D01*
X204510Y262130D01*
X204414Y262128D01*
X201817Y264724D02*
X207010Y271216D01*
X211949Y273812D02*
X215844Y262128D01*
X219738Y273812D01*
X205063Y287528D02*
X201168Y299212D01*
X208957Y299212D02*
X205063Y287528D01*
X213797Y294019D02*
X217043Y294019D01*
X217043Y294020D02*
X217156Y294018D01*
X217269Y294012D01*
X217382Y294002D01*
X217495Y293988D01*
X217607Y293971D01*
X217718Y293949D01*
X217828Y293924D01*
X217938Y293894D01*
X218046Y293861D01*
X218153Y293824D01*
X218259Y293784D01*
X218363Y293739D01*
X218466Y293691D01*
X218567Y293640D01*
X218666Y293585D01*
X218763Y293527D01*
X218858Y293465D01*
X218951Y293400D01*
X219041Y293332D01*
X219129Y293261D01*
X219215Y293186D01*
X219298Y293109D01*
X219378Y293029D01*
X219455Y292946D01*
X219530Y292860D01*
X219601Y292772D01*
X219669Y292682D01*
X219734Y292589D01*
X219796Y292494D01*
X219854Y292397D01*
X219909Y292298D01*
X219960Y292197D01*
X220008Y292094D01*
X220053Y291990D01*
X220093Y291884D01*
X220130Y291777D01*
X220163Y291669D01*
X220193Y291559D01*
X220218Y291449D01*
X220240Y291338D01*
X220257Y291226D01*
X220271Y291113D01*
X220281Y291000D01*
X220287Y290887D01*
X220289Y290774D01*
X220287Y290661D01*
X220281Y290548D01*
X220271Y290435D01*
X220257Y290322D01*
X220240Y290210D01*
X220218Y290099D01*
X220193Y289989D01*
X220163Y289879D01*
X220130Y289771D01*
X220093Y289664D01*
X220053Y289558D01*
X220008Y289454D01*
X219960Y289351D01*
X219909Y289250D01*
X219854Y289151D01*
X219796Y289054D01*
X219734Y288959D01*
X219669Y288866D01*
X219601Y288776D01*
X219530Y288688D01*
X219455Y288602D01*
X219378Y288519D01*
X219298Y288439D01*
X219215Y288362D01*
X219129Y288287D01*
X219041Y288216D01*
X218951Y288148D01*
X218858Y288083D01*
X218763Y288021D01*
X218666Y287963D01*
X218567Y287908D01*
X218466Y287857D01*
X218363Y287809D01*
X218259Y287764D01*
X218153Y287724D01*
X218046Y287687D01*
X217938Y287654D01*
X217828Y287624D01*
X217718Y287599D01*
X217607Y287577D01*
X217495Y287560D01*
X217382Y287546D01*
X217269Y287536D01*
X217156Y287530D01*
X217043Y287528D01*
X213797Y287528D01*
X213797Y299212D01*
X217043Y299212D01*
X217144Y299210D01*
X217244Y299204D01*
X217344Y299194D01*
X217444Y299181D01*
X217543Y299163D01*
X217642Y299142D01*
X217739Y299117D01*
X217836Y299088D01*
X217931Y299055D01*
X218025Y299019D01*
X218117Y298979D01*
X218208Y298936D01*
X218297Y298889D01*
X218384Y298839D01*
X218470Y298785D01*
X218553Y298728D01*
X218633Y298668D01*
X218712Y298605D01*
X218788Y298538D01*
X218861Y298469D01*
X218931Y298397D01*
X218999Y298323D01*
X219064Y298246D01*
X219125Y298166D01*
X219184Y298084D01*
X219239Y298000D01*
X219291Y297914D01*
X219340Y297826D01*
X219385Y297736D01*
X219427Y297644D01*
X219465Y297551D01*
X219499Y297456D01*
X219530Y297361D01*
X219557Y297264D01*
X219580Y297166D01*
X219600Y297067D01*
X219615Y296967D01*
X219627Y296867D01*
X219635Y296767D01*
X219639Y296666D01*
X219639Y296566D01*
X219635Y296465D01*
X219627Y296365D01*
X219615Y296265D01*
X219600Y296165D01*
X219580Y296066D01*
X219557Y295968D01*
X219530Y295871D01*
X219499Y295776D01*
X219465Y295681D01*
X219427Y295588D01*
X219385Y295496D01*
X219340Y295406D01*
X219291Y295318D01*
X219239Y295232D01*
X219184Y295148D01*
X219125Y295066D01*
X219064Y294986D01*
X218999Y294909D01*
X218931Y294835D01*
X218861Y294763D01*
X218788Y294694D01*
X218712Y294627D01*
X218633Y294564D01*
X218553Y294504D01*
X218470Y294447D01*
X218384Y294393D01*
X218297Y294343D01*
X218208Y294296D01*
X218117Y294253D01*
X218025Y294213D01*
X217931Y294177D01*
X217836Y294144D01*
X217739Y294115D01*
X217642Y294090D01*
X217543Y294069D01*
X217444Y294051D01*
X217344Y294038D01*
X217244Y294028D01*
X217144Y294022D01*
X217043Y294020D01*
X224028Y287528D02*
X227923Y299212D01*
X231817Y287528D01*
X230844Y290449D02*
X225002Y290449D01*
X238591Y287528D02*
X238591Y299212D01*
X241836Y299212D02*
X235345Y299212D01*
X248497Y299212D02*
X248497Y287528D01*
X245251Y299212D02*
X251742Y299212D01*
X320548Y117348D02*
X324443Y117348D01*
X324542Y117350D01*
X324642Y117356D01*
X324741Y117365D01*
X324839Y117378D01*
X324937Y117395D01*
X325035Y117416D01*
X325131Y117441D01*
X325226Y117469D01*
X325320Y117501D01*
X325413Y117536D01*
X325505Y117575D01*
X325595Y117618D01*
X325683Y117663D01*
X325770Y117713D01*
X325854Y117765D01*
X325937Y117821D01*
X326017Y117879D01*
X326095Y117941D01*
X326170Y118006D01*
X326243Y118074D01*
X326313Y118144D01*
X326381Y118217D01*
X326446Y118292D01*
X326508Y118370D01*
X326566Y118450D01*
X326622Y118533D01*
X326674Y118617D01*
X326724Y118704D01*
X326769Y118792D01*
X326812Y118882D01*
X326851Y118974D01*
X326886Y119067D01*
X326918Y119161D01*
X326946Y119256D01*
X326971Y119352D01*
X326992Y119450D01*
X327009Y119548D01*
X327022Y119646D01*
X327031Y119745D01*
X327037Y119845D01*
X327039Y119944D01*
X327039Y121243D01*
X327037Y121342D01*
X327031Y121442D01*
X327022Y121541D01*
X327009Y121639D01*
X326992Y121737D01*
X326971Y121835D01*
X326946Y121931D01*
X326918Y122026D01*
X326886Y122120D01*
X326851Y122213D01*
X326812Y122305D01*
X326769Y122395D01*
X326724Y122483D01*
X326674Y122570D01*
X326622Y122654D01*
X326566Y122737D01*
X326508Y122817D01*
X326446Y122895D01*
X326381Y122970D01*
X326313Y123043D01*
X326243Y123113D01*
X326170Y123181D01*
X326095Y123246D01*
X326017Y123308D01*
X325937Y123366D01*
X325854Y123422D01*
X325770Y123474D01*
X325683Y123524D01*
X325595Y123569D01*
X325505Y123612D01*
X325413Y123651D01*
X325320Y123686D01*
X325226Y123718D01*
X325131Y123746D01*
X325035Y123771D01*
X324937Y123792D01*
X324839Y123809D01*
X324741Y123822D01*
X324642Y123831D01*
X324542Y123837D01*
X324443Y123839D01*
X320548Y123839D01*
X320548Y129032D01*
X327039Y129032D01*
X331329Y129032D02*
X335224Y117348D01*
X339118Y129032D01*
X324443Y193548D02*
X320548Y193548D01*
X324443Y193548D02*
X324542Y193550D01*
X324642Y193556D01*
X324741Y193565D01*
X324839Y193578D01*
X324937Y193595D01*
X325035Y193616D01*
X325131Y193641D01*
X325226Y193669D01*
X325320Y193701D01*
X325413Y193736D01*
X325505Y193775D01*
X325595Y193818D01*
X325683Y193863D01*
X325770Y193913D01*
X325854Y193965D01*
X325937Y194021D01*
X326017Y194079D01*
X326095Y194141D01*
X326170Y194206D01*
X326243Y194274D01*
X326313Y194344D01*
X326381Y194417D01*
X326446Y194492D01*
X326508Y194570D01*
X326566Y194650D01*
X326622Y194733D01*
X326674Y194817D01*
X326724Y194904D01*
X326769Y194992D01*
X326812Y195082D01*
X326851Y195174D01*
X326886Y195267D01*
X326918Y195361D01*
X326946Y195456D01*
X326971Y195552D01*
X326992Y195650D01*
X327009Y195748D01*
X327022Y195846D01*
X327031Y195945D01*
X327037Y196045D01*
X327039Y196144D01*
X327039Y197443D01*
X327037Y197542D01*
X327031Y197642D01*
X327022Y197741D01*
X327009Y197839D01*
X326992Y197937D01*
X326971Y198035D01*
X326946Y198131D01*
X326918Y198226D01*
X326886Y198320D01*
X326851Y198413D01*
X326812Y198505D01*
X326769Y198595D01*
X326724Y198683D01*
X326674Y198770D01*
X326622Y198854D01*
X326566Y198937D01*
X326508Y199017D01*
X326446Y199095D01*
X326381Y199170D01*
X326313Y199243D01*
X326243Y199313D01*
X326170Y199381D01*
X326095Y199446D01*
X326017Y199508D01*
X325937Y199566D01*
X325854Y199622D01*
X325770Y199674D01*
X325683Y199724D01*
X325595Y199769D01*
X325505Y199812D01*
X325413Y199851D01*
X325320Y199886D01*
X325226Y199918D01*
X325131Y199946D01*
X325035Y199971D01*
X324937Y199992D01*
X324839Y200009D01*
X324741Y200022D01*
X324642Y200031D01*
X324542Y200037D01*
X324443Y200039D01*
X320548Y200039D01*
X320548Y205232D01*
X327039Y205232D01*
X331329Y205232D02*
X335224Y193548D01*
X339118Y205232D01*
X273643Y74168D02*
X269748Y74168D01*
X273643Y74168D02*
X273742Y74170D01*
X273842Y74176D01*
X273941Y74185D01*
X274039Y74198D01*
X274137Y74215D01*
X274235Y74236D01*
X274331Y74261D01*
X274426Y74289D01*
X274520Y74321D01*
X274613Y74356D01*
X274705Y74395D01*
X274795Y74438D01*
X274883Y74483D01*
X274970Y74533D01*
X275054Y74585D01*
X275137Y74641D01*
X275217Y74699D01*
X275295Y74761D01*
X275370Y74826D01*
X275443Y74894D01*
X275513Y74964D01*
X275581Y75037D01*
X275646Y75112D01*
X275708Y75190D01*
X275766Y75270D01*
X275822Y75353D01*
X275874Y75437D01*
X275924Y75524D01*
X275969Y75612D01*
X276012Y75702D01*
X276051Y75794D01*
X276086Y75887D01*
X276118Y75981D01*
X276146Y76076D01*
X276171Y76172D01*
X276192Y76270D01*
X276209Y76368D01*
X276222Y76466D01*
X276231Y76565D01*
X276237Y76665D01*
X276239Y76764D01*
X276239Y78063D01*
X276237Y78162D01*
X276231Y78262D01*
X276222Y78361D01*
X276209Y78459D01*
X276192Y78557D01*
X276171Y78655D01*
X276146Y78751D01*
X276118Y78846D01*
X276086Y78940D01*
X276051Y79033D01*
X276012Y79125D01*
X275969Y79215D01*
X275924Y79303D01*
X275874Y79390D01*
X275822Y79474D01*
X275766Y79557D01*
X275708Y79637D01*
X275646Y79715D01*
X275581Y79790D01*
X275513Y79863D01*
X275443Y79933D01*
X275370Y80001D01*
X275295Y80066D01*
X275217Y80128D01*
X275137Y80186D01*
X275054Y80242D01*
X274970Y80294D01*
X274883Y80344D01*
X274795Y80389D01*
X274705Y80432D01*
X274613Y80471D01*
X274520Y80506D01*
X274426Y80538D01*
X274331Y80566D01*
X274235Y80591D01*
X274137Y80612D01*
X274039Y80629D01*
X273941Y80642D01*
X273842Y80651D01*
X273742Y80657D01*
X273643Y80659D01*
X269748Y80659D01*
X269748Y85852D01*
X276239Y85852D01*
X280529Y85852D02*
X284424Y74168D01*
X288318Y85852D01*
X51308Y343408D02*
X51308Y356616D01*
X51308Y350746D02*
X58646Y350746D01*
X58646Y356616D02*
X58646Y343408D01*
X64843Y345609D02*
X64843Y352213D01*
X64844Y345609D02*
X64846Y345518D01*
X64852Y345427D01*
X64861Y345337D01*
X64874Y345247D01*
X64891Y345157D01*
X64911Y345069D01*
X64936Y344981D01*
X64963Y344894D01*
X64995Y344809D01*
X65029Y344725D01*
X65068Y344642D01*
X65109Y344561D01*
X65154Y344482D01*
X65202Y344405D01*
X65254Y344330D01*
X65308Y344257D01*
X65365Y344186D01*
X65426Y344118D01*
X65489Y344053D01*
X65554Y343990D01*
X65622Y343929D01*
X65693Y343872D01*
X65766Y343818D01*
X65841Y343766D01*
X65918Y343718D01*
X65997Y343673D01*
X66078Y343632D01*
X66161Y343593D01*
X66245Y343559D01*
X66330Y343527D01*
X66417Y343500D01*
X66505Y343475D01*
X66593Y343455D01*
X66683Y343438D01*
X66773Y343425D01*
X66863Y343416D01*
X66954Y343410D01*
X67045Y343408D01*
X70714Y343408D01*
X70714Y352213D01*
X77465Y348544D02*
X81134Y347077D01*
X77465Y348544D02*
X77386Y348578D01*
X77308Y348616D01*
X77231Y348657D01*
X77157Y348701D01*
X77085Y348749D01*
X77015Y348800D01*
X76948Y348854D01*
X76883Y348911D01*
X76820Y348972D01*
X76761Y349034D01*
X76704Y349100D01*
X76651Y349168D01*
X76600Y349238D01*
X76553Y349311D01*
X76509Y349386D01*
X76469Y349462D01*
X76432Y349541D01*
X76399Y349620D01*
X76369Y349702D01*
X76343Y349784D01*
X76321Y349868D01*
X76303Y349953D01*
X76289Y350038D01*
X76278Y350124D01*
X76272Y350210D01*
X76269Y350297D01*
X76270Y350384D01*
X76276Y350470D01*
X76285Y350556D01*
X76298Y350642D01*
X76315Y350727D01*
X76336Y350811D01*
X76360Y350894D01*
X76389Y350975D01*
X76421Y351056D01*
X76456Y351135D01*
X76496Y351212D01*
X76538Y351287D01*
X76585Y351360D01*
X76634Y351432D01*
X76686Y351500D01*
X76742Y351567D01*
X76801Y351630D01*
X76862Y351691D01*
X76926Y351750D01*
X76993Y351805D01*
X77062Y351857D01*
X77134Y351906D01*
X77207Y351951D01*
X77283Y351993D01*
X77360Y352032D01*
X77439Y352067D01*
X77520Y352099D01*
X77602Y352127D01*
X77685Y352151D01*
X77769Y352171D01*
X77854Y352187D01*
X77940Y352200D01*
X78026Y352208D01*
X78113Y352213D01*
X78199Y352214D01*
X78199Y352213D02*
X78399Y352208D01*
X78599Y352198D01*
X78799Y352183D01*
X78999Y352163D01*
X79198Y352139D01*
X79396Y352109D01*
X79593Y352075D01*
X79790Y352037D01*
X79985Y351993D01*
X80180Y351945D01*
X80373Y351892D01*
X80565Y351835D01*
X80756Y351773D01*
X80945Y351706D01*
X81132Y351635D01*
X81317Y351559D01*
X81501Y351479D01*
X81135Y347077D02*
X81214Y347043D01*
X81292Y347005D01*
X81369Y346964D01*
X81443Y346920D01*
X81515Y346872D01*
X81585Y346821D01*
X81652Y346767D01*
X81717Y346710D01*
X81780Y346649D01*
X81839Y346587D01*
X81896Y346521D01*
X81949Y346453D01*
X82000Y346383D01*
X82047Y346310D01*
X82091Y346235D01*
X82131Y346159D01*
X82168Y346080D01*
X82201Y346001D01*
X82231Y345919D01*
X82257Y345837D01*
X82279Y345753D01*
X82297Y345668D01*
X82311Y345583D01*
X82322Y345497D01*
X82328Y345411D01*
X82331Y345324D01*
X82330Y345237D01*
X82324Y345151D01*
X82315Y345065D01*
X82302Y344979D01*
X82285Y344894D01*
X82264Y344810D01*
X82240Y344727D01*
X82211Y344646D01*
X82179Y344565D01*
X82144Y344486D01*
X82104Y344409D01*
X82062Y344334D01*
X82015Y344261D01*
X81966Y344189D01*
X81914Y344121D01*
X81858Y344054D01*
X81799Y343991D01*
X81738Y343930D01*
X81674Y343871D01*
X81607Y343816D01*
X81538Y343764D01*
X81466Y343715D01*
X81393Y343670D01*
X81317Y343628D01*
X81240Y343589D01*
X81161Y343554D01*
X81080Y343522D01*
X80998Y343494D01*
X80915Y343470D01*
X80831Y343450D01*
X80746Y343434D01*
X80660Y343421D01*
X80574Y343413D01*
X80487Y343408D01*
X80401Y343407D01*
X80400Y343408D02*
X80106Y343416D01*
X79812Y343431D01*
X79518Y343452D01*
X79225Y343481D01*
X78933Y343516D01*
X78642Y343559D01*
X78352Y343608D01*
X78063Y343664D01*
X77775Y343727D01*
X77489Y343796D01*
X77205Y343873D01*
X76923Y343956D01*
X76643Y344046D01*
X76364Y344142D01*
X88030Y343408D02*
X88030Y356616D01*
X93900Y352213D02*
X88030Y347811D01*
X90598Y349645D02*
X93900Y343408D01*
X98127Y339005D02*
X99595Y339005D01*
X103998Y352213D01*
X98127Y352213D02*
X101063Y343408D01*
X116247Y343408D02*
X116247Y356616D01*
X119916Y356616D01*
X120036Y356614D01*
X120156Y356608D01*
X120276Y356598D01*
X120395Y356585D01*
X120514Y356567D01*
X120632Y356546D01*
X120749Y356520D01*
X120866Y356491D01*
X120981Y356458D01*
X121095Y356421D01*
X121208Y356381D01*
X121320Y356337D01*
X121430Y356289D01*
X121539Y356238D01*
X121646Y356183D01*
X121750Y356124D01*
X121853Y356063D01*
X121954Y355998D01*
X122053Y355929D01*
X122150Y355858D01*
X122244Y355783D01*
X122335Y355706D01*
X122424Y355625D01*
X122510Y355541D01*
X122594Y355455D01*
X122675Y355366D01*
X122752Y355275D01*
X122827Y355181D01*
X122898Y355084D01*
X122967Y354985D01*
X123032Y354884D01*
X123093Y354782D01*
X123152Y354677D01*
X123207Y354570D01*
X123258Y354461D01*
X123306Y354351D01*
X123350Y354239D01*
X123390Y354126D01*
X123427Y354012D01*
X123460Y353897D01*
X123489Y353780D01*
X123515Y353663D01*
X123536Y353545D01*
X123554Y353426D01*
X123567Y353307D01*
X123577Y353187D01*
X123583Y353067D01*
X123585Y352947D01*
X123583Y352827D01*
X123577Y352707D01*
X123567Y352587D01*
X123554Y352468D01*
X123536Y352349D01*
X123515Y352231D01*
X123489Y352114D01*
X123460Y351997D01*
X123427Y351882D01*
X123390Y351768D01*
X123350Y351655D01*
X123306Y351543D01*
X123258Y351433D01*
X123207Y351324D01*
X123152Y351217D01*
X123093Y351113D01*
X123032Y351010D01*
X122967Y350909D01*
X122898Y350810D01*
X122827Y350713D01*
X122752Y350619D01*
X122675Y350528D01*
X122594Y350439D01*
X122510Y350353D01*
X122424Y350269D01*
X122335Y350188D01*
X122244Y350111D01*
X122150Y350036D01*
X122053Y349965D01*
X121954Y349896D01*
X121853Y349831D01*
X121751Y349770D01*
X121646Y349711D01*
X121539Y349656D01*
X121430Y349605D01*
X121320Y349557D01*
X121208Y349513D01*
X121095Y349473D01*
X120981Y349436D01*
X120866Y349403D01*
X120749Y349374D01*
X120632Y349348D01*
X120514Y349327D01*
X120395Y349309D01*
X120276Y349296D01*
X120156Y349286D01*
X120036Y349280D01*
X119916Y349278D01*
X116247Y349278D01*
X120650Y349278D02*
X123585Y343408D01*
X128851Y346343D02*
X128851Y349278D01*
X128853Y349385D01*
X128859Y349492D01*
X128869Y349599D01*
X128882Y349705D01*
X128900Y349811D01*
X128921Y349916D01*
X128946Y350020D01*
X128975Y350124D01*
X129008Y350226D01*
X129045Y350326D01*
X129085Y350426D01*
X129129Y350524D01*
X129176Y350620D01*
X129227Y350714D01*
X129281Y350807D01*
X129338Y350897D01*
X129399Y350986D01*
X129463Y351072D01*
X129530Y351155D01*
X129600Y351237D01*
X129673Y351315D01*
X129749Y351391D01*
X129827Y351464D01*
X129909Y351534D01*
X129992Y351601D01*
X130078Y351665D01*
X130167Y351726D01*
X130257Y351783D01*
X130350Y351837D01*
X130444Y351888D01*
X130540Y351935D01*
X130638Y351979D01*
X130738Y352019D01*
X130838Y352056D01*
X130940Y352089D01*
X131044Y352118D01*
X131148Y352143D01*
X131253Y352164D01*
X131359Y352182D01*
X131465Y352195D01*
X131572Y352205D01*
X131679Y352211D01*
X131786Y352213D01*
X131893Y352211D01*
X132000Y352205D01*
X132107Y352195D01*
X132213Y352182D01*
X132319Y352164D01*
X132424Y352143D01*
X132528Y352118D01*
X132632Y352089D01*
X132734Y352056D01*
X132834Y352019D01*
X132934Y351979D01*
X133032Y351935D01*
X133128Y351888D01*
X133222Y351837D01*
X133315Y351783D01*
X133405Y351726D01*
X133494Y351665D01*
X133580Y351601D01*
X133663Y351534D01*
X133745Y351464D01*
X133823Y351391D01*
X133899Y351315D01*
X133972Y351237D01*
X134042Y351155D01*
X134109Y351072D01*
X134173Y350986D01*
X134234Y350897D01*
X134291Y350807D01*
X134345Y350714D01*
X134396Y350620D01*
X134443Y350524D01*
X134487Y350426D01*
X134527Y350326D01*
X134564Y350226D01*
X134597Y350124D01*
X134626Y350020D01*
X134651Y349916D01*
X134672Y349811D01*
X134690Y349705D01*
X134703Y349599D01*
X134713Y349492D01*
X134719Y349385D01*
X134721Y349278D01*
X134722Y349278D02*
X134722Y346343D01*
X134721Y346343D02*
X134719Y346236D01*
X134713Y346129D01*
X134703Y346022D01*
X134690Y345916D01*
X134672Y345810D01*
X134651Y345705D01*
X134626Y345601D01*
X134597Y345497D01*
X134564Y345395D01*
X134527Y345295D01*
X134487Y345195D01*
X134443Y345097D01*
X134396Y345001D01*
X134345Y344907D01*
X134291Y344814D01*
X134234Y344724D01*
X134173Y344635D01*
X134109Y344549D01*
X134042Y344466D01*
X133972Y344384D01*
X133899Y344306D01*
X133823Y344230D01*
X133745Y344157D01*
X133663Y344087D01*
X133580Y344020D01*
X133494Y343956D01*
X133405Y343895D01*
X133315Y343838D01*
X133222Y343784D01*
X133128Y343733D01*
X133032Y343686D01*
X132934Y343642D01*
X132834Y343602D01*
X132734Y343565D01*
X132632Y343532D01*
X132528Y343503D01*
X132424Y343478D01*
X132319Y343457D01*
X132213Y343439D01*
X132107Y343426D01*
X132000Y343416D01*
X131893Y343410D01*
X131786Y343408D01*
X131679Y343410D01*
X131572Y343416D01*
X131465Y343426D01*
X131359Y343439D01*
X131253Y343457D01*
X131148Y343478D01*
X131044Y343503D01*
X130940Y343532D01*
X130838Y343565D01*
X130738Y343602D01*
X130638Y343642D01*
X130540Y343686D01*
X130444Y343733D01*
X130350Y343784D01*
X130257Y343838D01*
X130167Y343895D01*
X130078Y343956D01*
X129992Y344020D01*
X129909Y344087D01*
X129827Y344157D01*
X129749Y344230D01*
X129673Y344306D01*
X129600Y344384D01*
X129530Y344466D01*
X129463Y344549D01*
X129399Y344635D01*
X129338Y344724D01*
X129281Y344814D01*
X129227Y344907D01*
X129176Y345001D01*
X129129Y345097D01*
X129085Y345195D01*
X129045Y345295D01*
X129008Y345395D01*
X128975Y345497D01*
X128946Y345601D01*
X128921Y345705D01*
X128900Y345810D01*
X128882Y345916D01*
X128869Y346022D01*
X128859Y346129D01*
X128853Y346236D01*
X128851Y346343D01*
X140435Y343408D02*
X140435Y356616D01*
X140435Y343408D02*
X144104Y343408D01*
X144197Y343410D01*
X144291Y343416D01*
X144384Y343426D01*
X144476Y343440D01*
X144568Y343457D01*
X144659Y343479D01*
X144748Y343504D01*
X144837Y343534D01*
X144925Y343567D01*
X145011Y343603D01*
X145095Y343644D01*
X145177Y343687D01*
X145258Y343735D01*
X145336Y343785D01*
X145413Y343839D01*
X145487Y343897D01*
X145558Y343957D01*
X145627Y344020D01*
X145693Y344086D01*
X145756Y344155D01*
X145816Y344226D01*
X145874Y344300D01*
X145928Y344376D01*
X145978Y344455D01*
X146025Y344536D01*
X146069Y344618D01*
X146110Y344702D01*
X146146Y344788D01*
X146179Y344876D01*
X146209Y344964D01*
X146234Y345054D01*
X146256Y345145D01*
X146273Y345237D01*
X146287Y345329D01*
X146297Y345422D01*
X146303Y345516D01*
X146305Y345609D01*
X146305Y350012D01*
X146303Y350103D01*
X146297Y350194D01*
X146288Y350284D01*
X146275Y350374D01*
X146258Y350464D01*
X146238Y350552D01*
X146213Y350640D01*
X146186Y350727D01*
X146154Y350812D01*
X146120Y350896D01*
X146081Y350979D01*
X146040Y351060D01*
X145995Y351139D01*
X145947Y351216D01*
X145895Y351291D01*
X145841Y351364D01*
X145784Y351435D01*
X145723Y351503D01*
X145660Y351568D01*
X145595Y351631D01*
X145527Y351692D01*
X145456Y351749D01*
X145383Y351803D01*
X145308Y351855D01*
X145231Y351903D01*
X145152Y351948D01*
X145071Y351989D01*
X144988Y352028D01*
X144904Y352062D01*
X144819Y352094D01*
X144732Y352121D01*
X144644Y352146D01*
X144556Y352166D01*
X144466Y352183D01*
X144376Y352196D01*
X144286Y352205D01*
X144195Y352211D01*
X144104Y352213D01*
X140435Y352213D01*
X151467Y349278D02*
X151467Y346343D01*
X151468Y349278D02*
X151470Y349385D01*
X151476Y349492D01*
X151486Y349599D01*
X151499Y349705D01*
X151517Y349811D01*
X151538Y349916D01*
X151563Y350020D01*
X151592Y350124D01*
X151625Y350226D01*
X151662Y350326D01*
X151702Y350426D01*
X151746Y350524D01*
X151793Y350620D01*
X151844Y350714D01*
X151898Y350807D01*
X151955Y350897D01*
X152016Y350986D01*
X152080Y351072D01*
X152147Y351155D01*
X152217Y351237D01*
X152290Y351315D01*
X152366Y351391D01*
X152444Y351464D01*
X152526Y351534D01*
X152609Y351601D01*
X152695Y351665D01*
X152784Y351726D01*
X152874Y351783D01*
X152967Y351837D01*
X153061Y351888D01*
X153157Y351935D01*
X153255Y351979D01*
X153355Y352019D01*
X153455Y352056D01*
X153557Y352089D01*
X153661Y352118D01*
X153765Y352143D01*
X153870Y352164D01*
X153976Y352182D01*
X154082Y352195D01*
X154189Y352205D01*
X154296Y352211D01*
X154403Y352213D01*
X154510Y352211D01*
X154617Y352205D01*
X154724Y352195D01*
X154830Y352182D01*
X154936Y352164D01*
X155041Y352143D01*
X155145Y352118D01*
X155249Y352089D01*
X155351Y352056D01*
X155451Y352019D01*
X155551Y351979D01*
X155649Y351935D01*
X155745Y351888D01*
X155839Y351837D01*
X155932Y351783D01*
X156022Y351726D01*
X156111Y351665D01*
X156197Y351601D01*
X156280Y351534D01*
X156362Y351464D01*
X156440Y351391D01*
X156516Y351315D01*
X156589Y351237D01*
X156659Y351155D01*
X156726Y351072D01*
X156790Y350986D01*
X156851Y350897D01*
X156908Y350807D01*
X156962Y350714D01*
X157013Y350620D01*
X157060Y350524D01*
X157104Y350426D01*
X157144Y350326D01*
X157181Y350226D01*
X157214Y350124D01*
X157243Y350020D01*
X157268Y349916D01*
X157289Y349811D01*
X157307Y349705D01*
X157320Y349599D01*
X157330Y349492D01*
X157336Y349385D01*
X157338Y349278D01*
X157338Y346343D01*
X157336Y346236D01*
X157330Y346129D01*
X157320Y346022D01*
X157307Y345916D01*
X157289Y345810D01*
X157268Y345705D01*
X157243Y345601D01*
X157214Y345497D01*
X157181Y345395D01*
X157144Y345295D01*
X157104Y345195D01*
X157060Y345097D01*
X157013Y345001D01*
X156962Y344907D01*
X156908Y344814D01*
X156851Y344724D01*
X156790Y344635D01*
X156726Y344549D01*
X156659Y344466D01*
X156589Y344384D01*
X156516Y344306D01*
X156440Y344230D01*
X156362Y344157D01*
X156280Y344087D01*
X156197Y344020D01*
X156111Y343956D01*
X156022Y343895D01*
X155932Y343838D01*
X155839Y343784D01*
X155745Y343733D01*
X155649Y343686D01*
X155551Y343642D01*
X155451Y343602D01*
X155351Y343565D01*
X155249Y343532D01*
X155145Y343503D01*
X155041Y343478D01*
X154936Y343457D01*
X154830Y343439D01*
X154724Y343426D01*
X154617Y343416D01*
X154510Y343410D01*
X154403Y343408D01*
X154296Y343410D01*
X154189Y343416D01*
X154082Y343426D01*
X153976Y343439D01*
X153870Y343457D01*
X153765Y343478D01*
X153661Y343503D01*
X153557Y343532D01*
X153455Y343565D01*
X153355Y343602D01*
X153255Y343642D01*
X153157Y343686D01*
X153061Y343733D01*
X152967Y343784D01*
X152874Y343838D01*
X152784Y343895D01*
X152695Y343956D01*
X152609Y344020D01*
X152526Y344087D01*
X152444Y344157D01*
X152366Y344230D01*
X152290Y344306D01*
X152217Y344384D01*
X152147Y344466D01*
X152080Y344549D01*
X152016Y344635D01*
X151955Y344724D01*
X151898Y344814D01*
X151844Y344907D01*
X151793Y345001D01*
X151746Y345097D01*
X151702Y345195D01*
X151662Y345295D01*
X151625Y345395D01*
X151592Y345497D01*
X151563Y345601D01*
X151538Y345705D01*
X151517Y345810D01*
X151499Y345916D01*
X151486Y346022D01*
X151476Y346129D01*
X151470Y346236D01*
X151468Y346343D01*
X161491Y352213D02*
X165894Y352213D01*
X162959Y356616D02*
X162959Y345609D01*
X162961Y345518D01*
X162967Y345427D01*
X162976Y345337D01*
X162989Y345247D01*
X163006Y345157D01*
X163026Y345069D01*
X163051Y344981D01*
X163078Y344894D01*
X163110Y344809D01*
X163144Y344725D01*
X163183Y344642D01*
X163224Y344561D01*
X163269Y344482D01*
X163317Y344405D01*
X163369Y344330D01*
X163423Y344257D01*
X163480Y344186D01*
X163541Y344118D01*
X163604Y344053D01*
X163669Y343990D01*
X163738Y343929D01*
X163808Y343872D01*
X163881Y343818D01*
X163956Y343766D01*
X164033Y343718D01*
X164112Y343673D01*
X164193Y343632D01*
X164276Y343593D01*
X164360Y343559D01*
X164445Y343527D01*
X164532Y343499D01*
X164620Y343475D01*
X164708Y343455D01*
X164798Y343438D01*
X164888Y343425D01*
X164978Y343416D01*
X165069Y343410D01*
X165160Y343408D01*
X165894Y343408D01*
X170618Y343408D02*
X170618Y352213D01*
X170251Y355882D02*
X170251Y356616D01*
X170985Y356616D01*
X170985Y355882D01*
X170251Y355882D01*
X178006Y343408D02*
X180941Y343408D01*
X178006Y343408D02*
X177915Y343410D01*
X177824Y343416D01*
X177734Y343425D01*
X177644Y343438D01*
X177554Y343455D01*
X177466Y343475D01*
X177378Y343500D01*
X177291Y343527D01*
X177206Y343559D01*
X177122Y343593D01*
X177039Y343632D01*
X176958Y343673D01*
X176879Y343718D01*
X176802Y343766D01*
X176727Y343818D01*
X176654Y343872D01*
X176583Y343929D01*
X176515Y343990D01*
X176450Y344053D01*
X176387Y344118D01*
X176326Y344186D01*
X176269Y344257D01*
X176215Y344330D01*
X176163Y344405D01*
X176115Y344482D01*
X176070Y344561D01*
X176029Y344642D01*
X175990Y344725D01*
X175956Y344809D01*
X175924Y344894D01*
X175897Y344981D01*
X175872Y345069D01*
X175852Y345157D01*
X175835Y345247D01*
X175822Y345337D01*
X175813Y345427D01*
X175807Y345518D01*
X175805Y345609D01*
X175805Y350012D01*
X175807Y350103D01*
X175813Y350194D01*
X175822Y350284D01*
X175835Y350374D01*
X175852Y350464D01*
X175872Y350552D01*
X175897Y350640D01*
X175924Y350727D01*
X175956Y350812D01*
X175990Y350896D01*
X176029Y350979D01*
X176070Y351060D01*
X176115Y351139D01*
X176163Y351216D01*
X176215Y351291D01*
X176269Y351364D01*
X176326Y351435D01*
X176387Y351503D01*
X176450Y351568D01*
X176515Y351631D01*
X176583Y351692D01*
X176654Y351749D01*
X176727Y351803D01*
X176802Y351855D01*
X176879Y351903D01*
X176958Y351948D01*
X177039Y351989D01*
X177122Y352028D01*
X177206Y352062D01*
X177291Y352094D01*
X177378Y352121D01*
X177466Y352146D01*
X177554Y352166D01*
X177644Y352183D01*
X177734Y352196D01*
X177824Y352205D01*
X177915Y352211D01*
X178006Y352213D01*
X180941Y352213D01*
X186706Y348544D02*
X190375Y347077D01*
X186705Y348544D02*
X186626Y348578D01*
X186548Y348616D01*
X186471Y348657D01*
X186397Y348701D01*
X186325Y348749D01*
X186255Y348800D01*
X186188Y348854D01*
X186123Y348911D01*
X186060Y348972D01*
X186001Y349034D01*
X185944Y349100D01*
X185891Y349168D01*
X185840Y349238D01*
X185793Y349311D01*
X185749Y349386D01*
X185709Y349462D01*
X185672Y349541D01*
X185639Y349620D01*
X185609Y349702D01*
X185583Y349784D01*
X185561Y349868D01*
X185543Y349953D01*
X185529Y350038D01*
X185518Y350124D01*
X185512Y350210D01*
X185509Y350297D01*
X185510Y350384D01*
X185516Y350470D01*
X185525Y350556D01*
X185538Y350642D01*
X185555Y350727D01*
X185576Y350811D01*
X185600Y350894D01*
X185629Y350975D01*
X185661Y351056D01*
X185696Y351135D01*
X185736Y351212D01*
X185778Y351287D01*
X185825Y351360D01*
X185874Y351432D01*
X185926Y351500D01*
X185982Y351567D01*
X186041Y351630D01*
X186102Y351691D01*
X186166Y351750D01*
X186233Y351805D01*
X186302Y351857D01*
X186374Y351906D01*
X186447Y351951D01*
X186523Y351993D01*
X186600Y352032D01*
X186679Y352067D01*
X186760Y352099D01*
X186842Y352127D01*
X186925Y352151D01*
X187009Y352171D01*
X187094Y352187D01*
X187180Y352200D01*
X187266Y352208D01*
X187353Y352213D01*
X187439Y352214D01*
X187439Y352213D02*
X187639Y352208D01*
X187839Y352198D01*
X188039Y352183D01*
X188239Y352163D01*
X188438Y352139D01*
X188636Y352109D01*
X188833Y352075D01*
X189030Y352037D01*
X189225Y351993D01*
X189420Y351945D01*
X189613Y351892D01*
X189805Y351835D01*
X189996Y351773D01*
X190185Y351706D01*
X190372Y351635D01*
X190557Y351559D01*
X190741Y351479D01*
X190375Y347077D02*
X190454Y347043D01*
X190532Y347005D01*
X190609Y346964D01*
X190683Y346920D01*
X190755Y346872D01*
X190825Y346821D01*
X190892Y346767D01*
X190957Y346710D01*
X191020Y346649D01*
X191079Y346587D01*
X191136Y346521D01*
X191189Y346453D01*
X191240Y346383D01*
X191287Y346310D01*
X191331Y346235D01*
X191371Y346159D01*
X191408Y346080D01*
X191441Y346001D01*
X191471Y345919D01*
X191497Y345837D01*
X191519Y345753D01*
X191537Y345668D01*
X191551Y345583D01*
X191562Y345497D01*
X191568Y345411D01*
X191571Y345324D01*
X191570Y345237D01*
X191564Y345151D01*
X191555Y345065D01*
X191542Y344979D01*
X191525Y344894D01*
X191504Y344810D01*
X191480Y344727D01*
X191451Y344646D01*
X191419Y344565D01*
X191384Y344486D01*
X191344Y344409D01*
X191302Y344334D01*
X191255Y344261D01*
X191206Y344189D01*
X191154Y344121D01*
X191098Y344054D01*
X191039Y343991D01*
X190978Y343930D01*
X190914Y343871D01*
X190847Y343816D01*
X190778Y343764D01*
X190706Y343715D01*
X190633Y343670D01*
X190557Y343628D01*
X190480Y343589D01*
X190401Y343554D01*
X190320Y343522D01*
X190238Y343494D01*
X190155Y343470D01*
X190071Y343450D01*
X189986Y343434D01*
X189900Y343421D01*
X189814Y343413D01*
X189727Y343408D01*
X189641Y343407D01*
X189641Y343408D02*
X189347Y343416D01*
X189053Y343431D01*
X188759Y343452D01*
X188466Y343481D01*
X188174Y343516D01*
X187883Y343559D01*
X187593Y343608D01*
X187304Y343664D01*
X187016Y343727D01*
X186730Y343796D01*
X186446Y343873D01*
X186164Y343956D01*
X185884Y344046D01*
X185605Y344142D01*
X206462Y343408D02*
X206462Y356616D01*
X202793Y356616D02*
X210131Y356616D01*
X216823Y343408D02*
X220492Y343408D01*
X216823Y343408D02*
X216732Y343410D01*
X216641Y343416D01*
X216551Y343425D01*
X216461Y343438D01*
X216371Y343455D01*
X216283Y343475D01*
X216195Y343500D01*
X216108Y343527D01*
X216023Y343559D01*
X215939Y343593D01*
X215856Y343632D01*
X215775Y343673D01*
X215696Y343718D01*
X215619Y343766D01*
X215544Y343818D01*
X215471Y343872D01*
X215400Y343929D01*
X215332Y343990D01*
X215267Y344053D01*
X215204Y344118D01*
X215143Y344186D01*
X215086Y344257D01*
X215032Y344330D01*
X214980Y344405D01*
X214932Y344482D01*
X214887Y344561D01*
X214846Y344642D01*
X214807Y344725D01*
X214773Y344809D01*
X214741Y344894D01*
X214714Y344981D01*
X214689Y345069D01*
X214669Y345157D01*
X214652Y345247D01*
X214639Y345337D01*
X214630Y345427D01*
X214624Y345518D01*
X214622Y345609D01*
X214622Y349278D01*
X214624Y349385D01*
X214630Y349492D01*
X214640Y349599D01*
X214653Y349705D01*
X214671Y349811D01*
X214692Y349916D01*
X214717Y350020D01*
X214746Y350124D01*
X214779Y350226D01*
X214816Y350326D01*
X214856Y350426D01*
X214900Y350524D01*
X214947Y350620D01*
X214998Y350714D01*
X215052Y350807D01*
X215109Y350897D01*
X215170Y350986D01*
X215234Y351072D01*
X215301Y351155D01*
X215371Y351237D01*
X215444Y351315D01*
X215520Y351391D01*
X215598Y351464D01*
X215680Y351534D01*
X215763Y351601D01*
X215849Y351665D01*
X215938Y351726D01*
X216028Y351783D01*
X216121Y351837D01*
X216215Y351888D01*
X216311Y351935D01*
X216409Y351979D01*
X216509Y352019D01*
X216609Y352056D01*
X216711Y352089D01*
X216815Y352118D01*
X216919Y352143D01*
X217024Y352164D01*
X217130Y352182D01*
X217236Y352195D01*
X217343Y352205D01*
X217450Y352211D01*
X217557Y352213D01*
X217664Y352211D01*
X217771Y352205D01*
X217878Y352195D01*
X217984Y352182D01*
X218090Y352164D01*
X218195Y352143D01*
X218299Y352118D01*
X218403Y352089D01*
X218505Y352056D01*
X218605Y352019D01*
X218705Y351979D01*
X218803Y351935D01*
X218899Y351888D01*
X218993Y351837D01*
X219086Y351783D01*
X219176Y351726D01*
X219265Y351665D01*
X219351Y351601D01*
X219434Y351534D01*
X219516Y351464D01*
X219594Y351391D01*
X219670Y351315D01*
X219743Y351237D01*
X219813Y351155D01*
X219880Y351072D01*
X219944Y350986D01*
X220005Y350897D01*
X220062Y350807D01*
X220116Y350714D01*
X220167Y350620D01*
X220214Y350524D01*
X220258Y350426D01*
X220298Y350326D01*
X220335Y350226D01*
X220368Y350124D01*
X220397Y350020D01*
X220422Y349916D01*
X220443Y349811D01*
X220461Y349705D01*
X220474Y349599D01*
X220484Y349492D01*
X220490Y349385D01*
X220492Y349278D01*
X220492Y347811D01*
X214622Y347811D01*
X228222Y348544D02*
X231524Y348544D01*
X228222Y348544D02*
X228122Y348542D01*
X228023Y348536D01*
X227924Y348527D01*
X227825Y348513D01*
X227727Y348496D01*
X227630Y348475D01*
X227533Y348450D01*
X227438Y348421D01*
X227344Y348389D01*
X227251Y348353D01*
X227159Y348314D01*
X227069Y348271D01*
X226981Y348224D01*
X226895Y348175D01*
X226811Y348122D01*
X226729Y348065D01*
X226649Y348006D01*
X226571Y347943D01*
X226496Y347878D01*
X226424Y347809D01*
X226354Y347738D01*
X226287Y347665D01*
X226223Y347588D01*
X226162Y347510D01*
X226104Y347428D01*
X226050Y347345D01*
X225998Y347260D01*
X225950Y347173D01*
X225905Y347084D01*
X225864Y346993D01*
X225826Y346901D01*
X225792Y346807D01*
X225762Y346713D01*
X225735Y346617D01*
X225712Y346520D01*
X225693Y346422D01*
X225678Y346324D01*
X225666Y346225D01*
X225658Y346125D01*
X225654Y346026D01*
X225654Y345926D01*
X225658Y345827D01*
X225666Y345727D01*
X225678Y345628D01*
X225693Y345530D01*
X225712Y345432D01*
X225735Y345335D01*
X225762Y345239D01*
X225792Y345145D01*
X225826Y345051D01*
X225864Y344959D01*
X225905Y344868D01*
X225950Y344779D01*
X225998Y344692D01*
X226050Y344607D01*
X226104Y344524D01*
X226162Y344442D01*
X226223Y344364D01*
X226287Y344287D01*
X226354Y344214D01*
X226424Y344143D01*
X226496Y344074D01*
X226571Y344009D01*
X226649Y343946D01*
X226729Y343887D01*
X226811Y343830D01*
X226895Y343777D01*
X226981Y343728D01*
X227069Y343681D01*
X227159Y343638D01*
X227251Y343599D01*
X227344Y343563D01*
X227438Y343531D01*
X227533Y343502D01*
X227630Y343477D01*
X227727Y343456D01*
X227825Y343439D01*
X227924Y343425D01*
X228023Y343416D01*
X228122Y343410D01*
X228222Y343408D01*
X231524Y343408D01*
X231524Y350012D01*
X231522Y350103D01*
X231516Y350194D01*
X231507Y350284D01*
X231494Y350374D01*
X231477Y350464D01*
X231457Y350552D01*
X231432Y350640D01*
X231405Y350727D01*
X231373Y350812D01*
X231339Y350896D01*
X231300Y350979D01*
X231259Y351060D01*
X231214Y351139D01*
X231166Y351216D01*
X231114Y351291D01*
X231060Y351364D01*
X231003Y351435D01*
X230942Y351503D01*
X230879Y351568D01*
X230814Y351631D01*
X230746Y351692D01*
X230675Y351749D01*
X230602Y351803D01*
X230527Y351855D01*
X230450Y351903D01*
X230371Y351948D01*
X230290Y351989D01*
X230207Y352028D01*
X230123Y352062D01*
X230038Y352094D01*
X229951Y352121D01*
X229863Y352146D01*
X229775Y352166D01*
X229685Y352183D01*
X229595Y352196D01*
X229505Y352205D01*
X229414Y352211D01*
X229323Y352213D01*
X226388Y352213D01*
X237904Y352213D02*
X237904Y343408D01*
X237904Y352213D02*
X244508Y352213D01*
X244599Y352211D01*
X244690Y352205D01*
X244780Y352196D01*
X244870Y352183D01*
X244960Y352166D01*
X245048Y352146D01*
X245136Y352121D01*
X245223Y352094D01*
X245308Y352062D01*
X245392Y352028D01*
X245475Y351989D01*
X245556Y351948D01*
X245635Y351903D01*
X245712Y351855D01*
X245787Y351803D01*
X245860Y351749D01*
X245931Y351692D01*
X245999Y351631D01*
X246064Y351568D01*
X246127Y351503D01*
X246188Y351435D01*
X246245Y351364D01*
X246299Y351291D01*
X246351Y351216D01*
X246399Y351139D01*
X246444Y351060D01*
X246485Y350979D01*
X246524Y350896D01*
X246558Y350812D01*
X246590Y350727D01*
X246617Y350640D01*
X246642Y350552D01*
X246662Y350464D01*
X246679Y350374D01*
X246692Y350284D01*
X246701Y350194D01*
X246707Y350103D01*
X246709Y350012D01*
X246709Y343408D01*
X242307Y343408D02*
X242307Y352213D01*
X263583Y356616D02*
X263696Y356614D01*
X263808Y356608D01*
X263921Y356599D01*
X264033Y356585D01*
X264144Y356568D01*
X264255Y356547D01*
X264365Y356522D01*
X264474Y356494D01*
X264582Y356461D01*
X264689Y356425D01*
X264794Y356386D01*
X264899Y356343D01*
X265001Y356296D01*
X265102Y356246D01*
X265201Y356192D01*
X265299Y356135D01*
X265394Y356075D01*
X265487Y356012D01*
X265578Y355945D01*
X265667Y355875D01*
X265753Y355803D01*
X265837Y355727D01*
X265918Y355649D01*
X265996Y355568D01*
X266072Y355484D01*
X266144Y355398D01*
X266214Y355309D01*
X266281Y355218D01*
X266344Y355125D01*
X266404Y355030D01*
X266461Y354932D01*
X266515Y354833D01*
X266565Y354732D01*
X266612Y354630D01*
X266655Y354525D01*
X266694Y354420D01*
X266730Y354313D01*
X266763Y354205D01*
X266791Y354096D01*
X266816Y353986D01*
X266837Y353875D01*
X266854Y353764D01*
X266868Y353652D01*
X266877Y353539D01*
X266883Y353427D01*
X266885Y353314D01*
X263583Y356616D02*
X263456Y356614D01*
X263329Y356608D01*
X263202Y356599D01*
X263076Y356586D01*
X262950Y356569D01*
X262825Y356548D01*
X262700Y356523D01*
X262577Y356495D01*
X262454Y356463D01*
X262332Y356427D01*
X262211Y356388D01*
X262091Y356345D01*
X261973Y356299D01*
X261856Y356249D01*
X261741Y356195D01*
X261628Y356138D01*
X261516Y356078D01*
X261406Y356015D01*
X261298Y355948D01*
X261192Y355878D01*
X261088Y355805D01*
X260986Y355728D01*
X260887Y355649D01*
X260790Y355567D01*
X260696Y355482D01*
X260604Y355394D01*
X260515Y355304D01*
X260429Y355210D01*
X260345Y355115D01*
X260265Y355017D01*
X260187Y354916D01*
X260112Y354813D01*
X260041Y354708D01*
X259973Y354601D01*
X259908Y354492D01*
X259846Y354381D01*
X259787Y354268D01*
X259732Y354154D01*
X259681Y354038D01*
X259633Y353920D01*
X259588Y353801D01*
X259547Y353681D01*
X265784Y350746D02*
X265866Y350826D01*
X265945Y350909D01*
X266022Y350995D01*
X266096Y351083D01*
X266166Y351174D01*
X266234Y351266D01*
X266299Y351361D01*
X266361Y351458D01*
X266419Y351557D01*
X266475Y351658D01*
X266527Y351760D01*
X266575Y351864D01*
X266620Y351970D01*
X266662Y352077D01*
X266701Y352185D01*
X266735Y352295D01*
X266767Y352405D01*
X266794Y352517D01*
X266818Y352629D01*
X266839Y352742D01*
X266855Y352856D01*
X266868Y352970D01*
X266878Y353084D01*
X266883Y353199D01*
X266885Y353314D01*
X265784Y350746D02*
X259547Y343408D01*
X266885Y343408D01*
X272349Y350012D02*
X272352Y350272D01*
X272361Y350531D01*
X272377Y350791D01*
X272399Y351050D01*
X272426Y351308D01*
X272460Y351566D01*
X272501Y351822D01*
X272547Y352078D01*
X272599Y352333D01*
X272658Y352586D01*
X272722Y352838D01*
X272793Y353088D01*
X272869Y353336D01*
X272951Y353582D01*
X273039Y353827D01*
X273133Y354069D01*
X273233Y354309D01*
X273339Y354547D01*
X273450Y354781D01*
X273450Y354782D02*
X273485Y354877D01*
X273523Y354972D01*
X273565Y355065D01*
X273611Y355156D01*
X273660Y355246D01*
X273712Y355334D01*
X273767Y355419D01*
X273826Y355503D01*
X273888Y355584D01*
X273952Y355663D01*
X274020Y355739D01*
X274091Y355813D01*
X274164Y355884D01*
X274240Y355952D01*
X274318Y356018D01*
X274399Y356080D01*
X274482Y356140D01*
X274567Y356196D01*
X274654Y356249D01*
X274743Y356298D01*
X274834Y356344D01*
X274927Y356387D01*
X275021Y356426D01*
X275117Y356462D01*
X275214Y356494D01*
X275312Y356523D01*
X275411Y356547D01*
X275511Y356568D01*
X275611Y356585D01*
X275712Y356599D01*
X275814Y356608D01*
X275916Y356614D01*
X276018Y356616D01*
X276120Y356614D01*
X276222Y356608D01*
X276324Y356599D01*
X276425Y356585D01*
X276525Y356568D01*
X276625Y356547D01*
X276724Y356523D01*
X276822Y356494D01*
X276919Y356462D01*
X277015Y356426D01*
X277109Y356387D01*
X277202Y356344D01*
X277293Y356298D01*
X277382Y356249D01*
X277469Y356196D01*
X277554Y356140D01*
X277637Y356080D01*
X277718Y356018D01*
X277796Y355952D01*
X277872Y355884D01*
X277945Y355813D01*
X278016Y355739D01*
X278084Y355663D01*
X278148Y355584D01*
X278210Y355503D01*
X278269Y355419D01*
X278324Y355334D01*
X278376Y355246D01*
X278425Y355156D01*
X278471Y355065D01*
X278513Y354972D01*
X278551Y354877D01*
X278586Y354782D01*
X278585Y354781D02*
X278696Y354546D01*
X278802Y354309D01*
X278902Y354069D01*
X278996Y353827D01*
X279084Y353582D01*
X279166Y353336D01*
X279242Y353088D01*
X279313Y352837D01*
X279377Y352586D01*
X279436Y352333D01*
X279488Y352078D01*
X279534Y351822D01*
X279575Y351566D01*
X279609Y351308D01*
X279636Y351050D01*
X279658Y350791D01*
X279674Y350531D01*
X279683Y350272D01*
X279686Y350012D01*
X272349Y350012D02*
X272352Y349752D01*
X272361Y349493D01*
X272377Y349233D01*
X272399Y348974D01*
X272426Y348716D01*
X272460Y348458D01*
X272501Y348202D01*
X272547Y347946D01*
X272599Y347691D01*
X272658Y347438D01*
X272722Y347187D01*
X272793Y346936D01*
X272869Y346688D01*
X272951Y346442D01*
X273039Y346197D01*
X273133Y345955D01*
X273233Y345715D01*
X273339Y345478D01*
X273450Y345243D01*
X273450Y345242D02*
X273485Y345147D01*
X273523Y345052D01*
X273565Y344959D01*
X273611Y344868D01*
X273660Y344778D01*
X273712Y344690D01*
X273767Y344605D01*
X273826Y344521D01*
X273888Y344440D01*
X273952Y344361D01*
X274020Y344285D01*
X274091Y344211D01*
X274164Y344140D01*
X274240Y344072D01*
X274318Y344006D01*
X274399Y343944D01*
X274482Y343884D01*
X274567Y343828D01*
X274654Y343775D01*
X274743Y343726D01*
X274834Y343680D01*
X274927Y343637D01*
X275021Y343598D01*
X275117Y343562D01*
X275214Y343530D01*
X275312Y343501D01*
X275411Y343477D01*
X275511Y343456D01*
X275611Y343439D01*
X275712Y343425D01*
X275814Y343416D01*
X275916Y343410D01*
X276018Y343408D01*
X278586Y345242D02*
X278697Y345477D01*
X278803Y345715D01*
X278903Y345955D01*
X278997Y346197D01*
X279085Y346441D01*
X279167Y346688D01*
X279243Y346936D01*
X279314Y347186D01*
X279378Y347438D01*
X279437Y347691D01*
X279489Y347946D01*
X279535Y348201D01*
X279576Y348458D01*
X279610Y348716D01*
X279637Y348974D01*
X279659Y349233D01*
X279675Y349492D01*
X279684Y349752D01*
X279687Y350012D01*
X278586Y345242D02*
X278551Y345147D01*
X278513Y345052D01*
X278471Y344959D01*
X278425Y344868D01*
X278376Y344778D01*
X278324Y344690D01*
X278269Y344605D01*
X278210Y344521D01*
X278148Y344440D01*
X278084Y344361D01*
X278016Y344285D01*
X277945Y344211D01*
X277872Y344140D01*
X277796Y344072D01*
X277718Y344006D01*
X277637Y343944D01*
X277554Y343884D01*
X277469Y343828D01*
X277382Y343775D01*
X277293Y343726D01*
X277202Y343680D01*
X277109Y343637D01*
X277015Y343598D01*
X276919Y343562D01*
X276822Y343530D01*
X276724Y343501D01*
X276625Y343477D01*
X276525Y343456D01*
X276425Y343439D01*
X276324Y343425D01*
X276222Y343416D01*
X276120Y343410D01*
X276018Y343408D01*
X273082Y346343D02*
X278953Y353681D01*
X285150Y353681D02*
X288819Y356616D01*
X288819Y343408D01*
X285150Y343408D02*
X292488Y343408D01*
X297952Y347077D02*
X297954Y347197D01*
X297960Y347317D01*
X297970Y347437D01*
X297983Y347556D01*
X298001Y347675D01*
X298022Y347793D01*
X298048Y347910D01*
X298077Y348027D01*
X298110Y348142D01*
X298147Y348256D01*
X298187Y348369D01*
X298231Y348481D01*
X298279Y348591D01*
X298330Y348700D01*
X298385Y348807D01*
X298444Y348912D01*
X298505Y349014D01*
X298570Y349115D01*
X298639Y349214D01*
X298710Y349311D01*
X298785Y349405D01*
X298862Y349496D01*
X298943Y349585D01*
X299027Y349671D01*
X299113Y349755D01*
X299202Y349836D01*
X299293Y349913D01*
X299387Y349988D01*
X299484Y350059D01*
X299583Y350128D01*
X299684Y350193D01*
X299787Y350254D01*
X299891Y350313D01*
X299998Y350368D01*
X300107Y350419D01*
X300217Y350467D01*
X300329Y350511D01*
X300442Y350551D01*
X300556Y350588D01*
X300671Y350621D01*
X300788Y350650D01*
X300905Y350676D01*
X301023Y350697D01*
X301142Y350715D01*
X301261Y350728D01*
X301381Y350738D01*
X301501Y350744D01*
X301621Y350746D01*
X301741Y350744D01*
X301861Y350738D01*
X301981Y350728D01*
X302100Y350715D01*
X302219Y350697D01*
X302337Y350676D01*
X302454Y350650D01*
X302571Y350621D01*
X302686Y350588D01*
X302800Y350551D01*
X302913Y350511D01*
X303025Y350467D01*
X303135Y350419D01*
X303244Y350368D01*
X303351Y350313D01*
X303456Y350254D01*
X303558Y350193D01*
X303659Y350128D01*
X303758Y350059D01*
X303855Y349988D01*
X303949Y349913D01*
X304040Y349836D01*
X304129Y349755D01*
X304215Y349671D01*
X304299Y349585D01*
X304380Y349496D01*
X304457Y349405D01*
X304532Y349311D01*
X304603Y349214D01*
X304672Y349115D01*
X304737Y349014D01*
X304798Y348912D01*
X304857Y348807D01*
X304912Y348700D01*
X304963Y348591D01*
X305011Y348481D01*
X305055Y348369D01*
X305095Y348256D01*
X305132Y348142D01*
X305165Y348027D01*
X305194Y347910D01*
X305220Y347793D01*
X305241Y347675D01*
X305259Y347556D01*
X305272Y347437D01*
X305282Y347317D01*
X305288Y347197D01*
X305290Y347077D01*
X305288Y346957D01*
X305282Y346837D01*
X305272Y346717D01*
X305259Y346598D01*
X305241Y346479D01*
X305220Y346361D01*
X305194Y346244D01*
X305165Y346127D01*
X305132Y346012D01*
X305095Y345898D01*
X305055Y345785D01*
X305011Y345673D01*
X304963Y345563D01*
X304912Y345454D01*
X304857Y345347D01*
X304798Y345243D01*
X304737Y345140D01*
X304672Y345039D01*
X304603Y344940D01*
X304532Y344843D01*
X304457Y344749D01*
X304380Y344658D01*
X304299Y344569D01*
X304215Y344483D01*
X304129Y344399D01*
X304040Y344318D01*
X303949Y344241D01*
X303855Y344166D01*
X303758Y344095D01*
X303659Y344026D01*
X303558Y343961D01*
X303456Y343900D01*
X303351Y343841D01*
X303244Y343786D01*
X303135Y343735D01*
X303025Y343687D01*
X302913Y343643D01*
X302800Y343603D01*
X302686Y343566D01*
X302571Y343533D01*
X302454Y343504D01*
X302337Y343478D01*
X302219Y343457D01*
X302100Y343439D01*
X301981Y343426D01*
X301861Y343416D01*
X301741Y343410D01*
X301621Y343408D01*
X301501Y343410D01*
X301381Y343416D01*
X301261Y343426D01*
X301142Y343439D01*
X301023Y343457D01*
X300905Y343478D01*
X300788Y343504D01*
X300671Y343533D01*
X300556Y343566D01*
X300442Y343603D01*
X300329Y343643D01*
X300217Y343687D01*
X300107Y343735D01*
X299998Y343786D01*
X299891Y343841D01*
X299787Y343900D01*
X299684Y343961D01*
X299583Y344026D01*
X299484Y344095D01*
X299387Y344166D01*
X299293Y344241D01*
X299202Y344318D01*
X299113Y344399D01*
X299027Y344483D01*
X298943Y344569D01*
X298862Y344658D01*
X298785Y344749D01*
X298710Y344843D01*
X298639Y344940D01*
X298570Y345039D01*
X298505Y345140D01*
X298444Y345243D01*
X298385Y345347D01*
X298330Y345454D01*
X298279Y345563D01*
X298231Y345673D01*
X298187Y345785D01*
X298147Y345898D01*
X298110Y346012D01*
X298077Y346127D01*
X298048Y346244D01*
X298022Y346361D01*
X298001Y346479D01*
X297983Y346598D01*
X297970Y346717D01*
X297960Y346837D01*
X297954Y346957D01*
X297952Y347077D01*
X298686Y353681D02*
X298688Y353788D01*
X298694Y353895D01*
X298704Y354002D01*
X298717Y354108D01*
X298735Y354214D01*
X298756Y354319D01*
X298781Y354423D01*
X298810Y354527D01*
X298843Y354629D01*
X298880Y354729D01*
X298920Y354829D01*
X298964Y354927D01*
X299011Y355023D01*
X299062Y355117D01*
X299116Y355210D01*
X299173Y355300D01*
X299234Y355389D01*
X299298Y355475D01*
X299365Y355558D01*
X299435Y355640D01*
X299508Y355718D01*
X299584Y355794D01*
X299662Y355867D01*
X299744Y355937D01*
X299827Y356004D01*
X299913Y356068D01*
X300002Y356129D01*
X300092Y356186D01*
X300185Y356240D01*
X300279Y356291D01*
X300375Y356338D01*
X300473Y356382D01*
X300573Y356422D01*
X300673Y356459D01*
X300775Y356492D01*
X300879Y356521D01*
X300983Y356546D01*
X301088Y356567D01*
X301194Y356585D01*
X301300Y356598D01*
X301407Y356608D01*
X301514Y356614D01*
X301621Y356616D01*
X301728Y356614D01*
X301835Y356608D01*
X301942Y356598D01*
X302048Y356585D01*
X302154Y356567D01*
X302259Y356546D01*
X302363Y356521D01*
X302467Y356492D01*
X302569Y356459D01*
X302669Y356422D01*
X302769Y356382D01*
X302867Y356338D01*
X302963Y356291D01*
X303057Y356240D01*
X303150Y356186D01*
X303240Y356129D01*
X303329Y356068D01*
X303415Y356004D01*
X303498Y355937D01*
X303580Y355867D01*
X303658Y355794D01*
X303734Y355718D01*
X303807Y355640D01*
X303877Y355558D01*
X303944Y355475D01*
X304008Y355389D01*
X304069Y355300D01*
X304126Y355210D01*
X304180Y355117D01*
X304231Y355023D01*
X304278Y354927D01*
X304322Y354829D01*
X304362Y354729D01*
X304399Y354629D01*
X304432Y354527D01*
X304461Y354423D01*
X304486Y354319D01*
X304507Y354214D01*
X304525Y354108D01*
X304538Y354002D01*
X304548Y353895D01*
X304554Y353788D01*
X304556Y353681D01*
X304554Y353574D01*
X304548Y353467D01*
X304538Y353360D01*
X304525Y353254D01*
X304507Y353148D01*
X304486Y353043D01*
X304461Y352939D01*
X304432Y352835D01*
X304399Y352733D01*
X304362Y352633D01*
X304322Y352533D01*
X304278Y352435D01*
X304231Y352339D01*
X304180Y352245D01*
X304126Y352152D01*
X304069Y352062D01*
X304008Y351973D01*
X303944Y351887D01*
X303877Y351804D01*
X303807Y351722D01*
X303734Y351644D01*
X303658Y351568D01*
X303580Y351495D01*
X303498Y351425D01*
X303415Y351358D01*
X303329Y351294D01*
X303240Y351233D01*
X303150Y351176D01*
X303057Y351122D01*
X302963Y351071D01*
X302867Y351024D01*
X302769Y350980D01*
X302669Y350940D01*
X302569Y350903D01*
X302467Y350870D01*
X302363Y350841D01*
X302259Y350816D01*
X302154Y350795D01*
X302048Y350777D01*
X301942Y350764D01*
X301835Y350754D01*
X301728Y350748D01*
X301621Y350746D01*
X301514Y350748D01*
X301407Y350754D01*
X301300Y350764D01*
X301194Y350777D01*
X301088Y350795D01*
X300983Y350816D01*
X300879Y350841D01*
X300775Y350870D01*
X300673Y350903D01*
X300573Y350940D01*
X300473Y350980D01*
X300375Y351024D01*
X300279Y351071D01*
X300185Y351122D01*
X300092Y351176D01*
X300002Y351233D01*
X299913Y351294D01*
X299827Y351358D01*
X299744Y351425D01*
X299662Y351495D01*
X299584Y351568D01*
X299508Y351644D01*
X299435Y351722D01*
X299365Y351804D01*
X299298Y351887D01*
X299234Y351973D01*
X299173Y352062D01*
X299116Y352152D01*
X299062Y352245D01*
X299011Y352339D01*
X298964Y352435D01*
X298920Y352533D01*
X298880Y352633D01*
X298843Y352733D01*
X298810Y352835D01*
X298781Y352939D01*
X298756Y353043D01*
X298735Y353148D01*
X298717Y353254D01*
X298704Y353360D01*
X298694Y353467D01*
X298688Y353574D01*
X298686Y353681D01*
X51308Y335167D02*
X51308Y329297D01*
X51308Y335167D02*
X51310Y335287D01*
X51316Y335407D01*
X51326Y335527D01*
X51339Y335646D01*
X51357Y335765D01*
X51378Y335883D01*
X51404Y336000D01*
X51433Y336117D01*
X51466Y336232D01*
X51503Y336346D01*
X51543Y336459D01*
X51587Y336571D01*
X51635Y336681D01*
X51686Y336790D01*
X51741Y336897D01*
X51800Y337002D01*
X51861Y337104D01*
X51926Y337205D01*
X51995Y337304D01*
X52066Y337401D01*
X52141Y337495D01*
X52218Y337586D01*
X52299Y337675D01*
X52383Y337761D01*
X52469Y337845D01*
X52558Y337926D01*
X52649Y338003D01*
X52743Y338078D01*
X52840Y338149D01*
X52939Y338218D01*
X53040Y338283D01*
X53143Y338344D01*
X53247Y338403D01*
X53354Y338458D01*
X53463Y338509D01*
X53573Y338557D01*
X53685Y338601D01*
X53798Y338641D01*
X53912Y338678D01*
X54027Y338711D01*
X54144Y338740D01*
X54261Y338766D01*
X54379Y338787D01*
X54498Y338805D01*
X54617Y338818D01*
X54737Y338828D01*
X54857Y338834D01*
X54977Y338836D01*
X55097Y338834D01*
X55217Y338828D01*
X55337Y338818D01*
X55456Y338805D01*
X55575Y338787D01*
X55693Y338766D01*
X55810Y338740D01*
X55927Y338711D01*
X56042Y338678D01*
X56156Y338641D01*
X56269Y338601D01*
X56381Y338557D01*
X56491Y338509D01*
X56600Y338458D01*
X56707Y338403D01*
X56812Y338344D01*
X56914Y338283D01*
X57015Y338218D01*
X57114Y338149D01*
X57211Y338078D01*
X57305Y338003D01*
X57396Y337926D01*
X57485Y337845D01*
X57571Y337761D01*
X57655Y337675D01*
X57736Y337586D01*
X57813Y337495D01*
X57888Y337401D01*
X57959Y337304D01*
X58028Y337205D01*
X58093Y337104D01*
X58154Y337002D01*
X58213Y336897D01*
X58268Y336790D01*
X58319Y336681D01*
X58367Y336571D01*
X58411Y336459D01*
X58451Y336346D01*
X58488Y336232D01*
X58521Y336117D01*
X58550Y336000D01*
X58576Y335883D01*
X58597Y335765D01*
X58615Y335646D01*
X58628Y335527D01*
X58638Y335407D01*
X58644Y335287D01*
X58646Y335167D01*
X58646Y329297D01*
X58644Y329177D01*
X58638Y329057D01*
X58628Y328937D01*
X58615Y328818D01*
X58597Y328699D01*
X58576Y328581D01*
X58550Y328464D01*
X58521Y328347D01*
X58488Y328232D01*
X58451Y328118D01*
X58411Y328005D01*
X58367Y327893D01*
X58319Y327783D01*
X58268Y327674D01*
X58213Y327567D01*
X58154Y327463D01*
X58093Y327360D01*
X58028Y327259D01*
X57959Y327160D01*
X57888Y327063D01*
X57813Y326969D01*
X57736Y326878D01*
X57655Y326789D01*
X57571Y326703D01*
X57485Y326619D01*
X57396Y326538D01*
X57305Y326461D01*
X57211Y326386D01*
X57114Y326315D01*
X57015Y326246D01*
X56914Y326181D01*
X56812Y326120D01*
X56707Y326061D01*
X56600Y326006D01*
X56491Y325955D01*
X56381Y325907D01*
X56269Y325863D01*
X56156Y325823D01*
X56042Y325786D01*
X55927Y325753D01*
X55810Y325724D01*
X55693Y325698D01*
X55575Y325677D01*
X55456Y325659D01*
X55337Y325646D01*
X55217Y325636D01*
X55097Y325630D01*
X54977Y325628D01*
X54857Y325630D01*
X54737Y325636D01*
X54617Y325646D01*
X54498Y325659D01*
X54379Y325677D01*
X54261Y325698D01*
X54144Y325724D01*
X54027Y325753D01*
X53912Y325786D01*
X53798Y325823D01*
X53685Y325863D01*
X53573Y325907D01*
X53463Y325955D01*
X53354Y326006D01*
X53247Y326061D01*
X53143Y326120D01*
X53040Y326181D01*
X52939Y326246D01*
X52840Y326315D01*
X52743Y326386D01*
X52649Y326461D01*
X52558Y326538D01*
X52469Y326619D01*
X52383Y326703D01*
X52299Y326789D01*
X52218Y326878D01*
X52141Y326969D01*
X52066Y327063D01*
X51995Y327160D01*
X51926Y327259D01*
X51861Y327360D01*
X51800Y327463D01*
X51741Y327567D01*
X51686Y327674D01*
X51635Y327783D01*
X51587Y327893D01*
X51543Y328005D01*
X51503Y328118D01*
X51466Y328232D01*
X51433Y328347D01*
X51404Y328464D01*
X51378Y328581D01*
X51357Y328699D01*
X51339Y328818D01*
X51326Y328937D01*
X51316Y329057D01*
X51310Y329177D01*
X51308Y329297D01*
X57178Y328563D02*
X60113Y325628D01*
X64136Y327829D02*
X64136Y334433D01*
X64137Y327829D02*
X64139Y327738D01*
X64145Y327647D01*
X64154Y327557D01*
X64167Y327467D01*
X64184Y327377D01*
X64204Y327289D01*
X64229Y327201D01*
X64256Y327114D01*
X64288Y327029D01*
X64322Y326945D01*
X64361Y326862D01*
X64402Y326781D01*
X64447Y326702D01*
X64495Y326625D01*
X64547Y326550D01*
X64601Y326477D01*
X64658Y326406D01*
X64719Y326338D01*
X64782Y326273D01*
X64847Y326210D01*
X64915Y326149D01*
X64986Y326092D01*
X65059Y326038D01*
X65134Y325986D01*
X65211Y325938D01*
X65290Y325893D01*
X65371Y325852D01*
X65454Y325813D01*
X65538Y325779D01*
X65623Y325747D01*
X65710Y325720D01*
X65798Y325695D01*
X65886Y325675D01*
X65976Y325658D01*
X66066Y325645D01*
X66156Y325636D01*
X66247Y325630D01*
X66338Y325628D01*
X70006Y325628D01*
X70006Y334433D01*
X78163Y330764D02*
X81465Y330764D01*
X78163Y330764D02*
X78063Y330762D01*
X77964Y330756D01*
X77865Y330747D01*
X77766Y330733D01*
X77668Y330716D01*
X77571Y330695D01*
X77474Y330670D01*
X77379Y330641D01*
X77285Y330609D01*
X77192Y330573D01*
X77100Y330534D01*
X77010Y330491D01*
X76922Y330444D01*
X76836Y330395D01*
X76752Y330342D01*
X76670Y330285D01*
X76590Y330226D01*
X76512Y330163D01*
X76437Y330098D01*
X76365Y330029D01*
X76295Y329958D01*
X76228Y329885D01*
X76164Y329808D01*
X76103Y329730D01*
X76045Y329648D01*
X75991Y329565D01*
X75939Y329480D01*
X75891Y329393D01*
X75846Y329304D01*
X75805Y329213D01*
X75767Y329121D01*
X75733Y329027D01*
X75703Y328933D01*
X75676Y328837D01*
X75653Y328740D01*
X75634Y328642D01*
X75619Y328544D01*
X75607Y328445D01*
X75599Y328345D01*
X75595Y328246D01*
X75595Y328146D01*
X75599Y328047D01*
X75607Y327947D01*
X75619Y327848D01*
X75634Y327750D01*
X75653Y327652D01*
X75676Y327555D01*
X75703Y327459D01*
X75733Y327365D01*
X75767Y327271D01*
X75805Y327179D01*
X75846Y327088D01*
X75891Y326999D01*
X75939Y326912D01*
X75991Y326827D01*
X76045Y326744D01*
X76103Y326662D01*
X76164Y326584D01*
X76228Y326507D01*
X76295Y326434D01*
X76365Y326363D01*
X76437Y326294D01*
X76512Y326229D01*
X76590Y326166D01*
X76670Y326107D01*
X76752Y326050D01*
X76836Y325997D01*
X76922Y325948D01*
X77010Y325901D01*
X77100Y325858D01*
X77192Y325819D01*
X77285Y325783D01*
X77379Y325751D01*
X77474Y325722D01*
X77571Y325697D01*
X77668Y325676D01*
X77766Y325659D01*
X77865Y325645D01*
X77964Y325636D01*
X78063Y325630D01*
X78163Y325628D01*
X81465Y325628D01*
X81465Y332232D01*
X81463Y332323D01*
X81457Y332414D01*
X81448Y332504D01*
X81435Y332594D01*
X81418Y332684D01*
X81398Y332772D01*
X81373Y332860D01*
X81346Y332947D01*
X81314Y333032D01*
X81280Y333116D01*
X81241Y333199D01*
X81200Y333280D01*
X81155Y333359D01*
X81107Y333436D01*
X81055Y333511D01*
X81001Y333584D01*
X80944Y333655D01*
X80883Y333723D01*
X80820Y333788D01*
X80755Y333851D01*
X80687Y333912D01*
X80616Y333969D01*
X80543Y334023D01*
X80468Y334075D01*
X80391Y334123D01*
X80312Y334168D01*
X80231Y334209D01*
X80148Y334248D01*
X80064Y334282D01*
X79979Y334314D01*
X79892Y334341D01*
X79804Y334366D01*
X79716Y334386D01*
X79626Y334403D01*
X79536Y334416D01*
X79446Y334425D01*
X79355Y334431D01*
X79264Y334433D01*
X76329Y334433D01*
X92987Y338836D02*
X92987Y325628D01*
X89318Y325628D01*
X89227Y325630D01*
X89136Y325636D01*
X89046Y325645D01*
X88956Y325658D01*
X88866Y325675D01*
X88778Y325695D01*
X88690Y325720D01*
X88603Y325747D01*
X88518Y325779D01*
X88434Y325813D01*
X88351Y325852D01*
X88270Y325893D01*
X88191Y325938D01*
X88114Y325986D01*
X88039Y326038D01*
X87966Y326092D01*
X87895Y326149D01*
X87827Y326210D01*
X87762Y326273D01*
X87699Y326338D01*
X87638Y326406D01*
X87581Y326477D01*
X87527Y326550D01*
X87475Y326625D01*
X87427Y326702D01*
X87382Y326781D01*
X87341Y326862D01*
X87302Y326945D01*
X87268Y327029D01*
X87236Y327114D01*
X87209Y327201D01*
X87184Y327289D01*
X87164Y327377D01*
X87147Y327467D01*
X87134Y327557D01*
X87125Y327647D01*
X87119Y327738D01*
X87117Y327829D01*
X87117Y332232D01*
X87119Y332323D01*
X87125Y332414D01*
X87134Y332504D01*
X87147Y332594D01*
X87164Y332684D01*
X87184Y332772D01*
X87209Y332860D01*
X87236Y332947D01*
X87268Y333032D01*
X87302Y333116D01*
X87341Y333199D01*
X87382Y333280D01*
X87427Y333359D01*
X87475Y333436D01*
X87527Y333511D01*
X87581Y333584D01*
X87638Y333655D01*
X87699Y333723D01*
X87762Y333788D01*
X87827Y333851D01*
X87895Y333912D01*
X87966Y333969D01*
X88039Y334023D01*
X88114Y334075D01*
X88191Y334123D01*
X88270Y334168D01*
X88351Y334209D01*
X88434Y334248D01*
X88518Y334282D01*
X88603Y334314D01*
X88690Y334341D01*
X88778Y334366D01*
X88866Y334386D01*
X88956Y334403D01*
X89046Y334416D01*
X89136Y334425D01*
X89227Y334431D01*
X89318Y334433D01*
X92987Y334433D01*
X99198Y334433D02*
X99198Y325628D01*
X99198Y334433D02*
X103600Y334433D01*
X103600Y332966D01*
X110167Y330764D02*
X113469Y330764D01*
X110167Y330764D02*
X110067Y330762D01*
X109968Y330756D01*
X109869Y330747D01*
X109770Y330733D01*
X109672Y330716D01*
X109575Y330695D01*
X109478Y330670D01*
X109383Y330641D01*
X109289Y330609D01*
X109196Y330573D01*
X109104Y330534D01*
X109014Y330491D01*
X108926Y330444D01*
X108840Y330395D01*
X108756Y330342D01*
X108674Y330285D01*
X108594Y330226D01*
X108516Y330163D01*
X108441Y330098D01*
X108369Y330029D01*
X108299Y329958D01*
X108232Y329885D01*
X108168Y329808D01*
X108107Y329730D01*
X108049Y329648D01*
X107995Y329565D01*
X107943Y329480D01*
X107895Y329393D01*
X107850Y329304D01*
X107809Y329213D01*
X107771Y329121D01*
X107737Y329027D01*
X107707Y328933D01*
X107680Y328837D01*
X107657Y328740D01*
X107638Y328642D01*
X107623Y328544D01*
X107611Y328445D01*
X107603Y328345D01*
X107599Y328246D01*
X107599Y328146D01*
X107603Y328047D01*
X107611Y327947D01*
X107623Y327848D01*
X107638Y327750D01*
X107657Y327652D01*
X107680Y327555D01*
X107707Y327459D01*
X107737Y327365D01*
X107771Y327271D01*
X107809Y327179D01*
X107850Y327088D01*
X107895Y326999D01*
X107943Y326912D01*
X107995Y326827D01*
X108049Y326744D01*
X108107Y326662D01*
X108168Y326584D01*
X108232Y326507D01*
X108299Y326434D01*
X108369Y326363D01*
X108441Y326294D01*
X108516Y326229D01*
X108594Y326166D01*
X108674Y326107D01*
X108756Y326050D01*
X108840Y325997D01*
X108926Y325948D01*
X109014Y325901D01*
X109104Y325858D01*
X109196Y325819D01*
X109289Y325783D01*
X109383Y325751D01*
X109478Y325722D01*
X109575Y325697D01*
X109672Y325676D01*
X109770Y325659D01*
X109869Y325645D01*
X109968Y325636D01*
X110067Y325630D01*
X110167Y325628D01*
X113469Y325628D01*
X113469Y332232D01*
X113467Y332323D01*
X113461Y332414D01*
X113452Y332504D01*
X113439Y332594D01*
X113422Y332684D01*
X113402Y332772D01*
X113377Y332860D01*
X113350Y332947D01*
X113318Y333032D01*
X113284Y333116D01*
X113245Y333199D01*
X113204Y333280D01*
X113159Y333359D01*
X113111Y333436D01*
X113059Y333511D01*
X113005Y333584D01*
X112948Y333655D01*
X112887Y333723D01*
X112824Y333788D01*
X112759Y333851D01*
X112691Y333912D01*
X112620Y333969D01*
X112547Y334023D01*
X112472Y334075D01*
X112395Y334123D01*
X112316Y334168D01*
X112235Y334209D01*
X112152Y334248D01*
X112068Y334282D01*
X111983Y334314D01*
X111896Y334341D01*
X111808Y334366D01*
X111720Y334386D01*
X111630Y334403D01*
X111540Y334416D01*
X111450Y334425D01*
X111359Y334431D01*
X111268Y334433D01*
X108333Y334433D01*
X118112Y334433D02*
X122515Y334433D01*
X119580Y338836D02*
X119580Y327829D01*
X119582Y327738D01*
X119588Y327647D01*
X119597Y327557D01*
X119610Y327467D01*
X119627Y327377D01*
X119647Y327289D01*
X119672Y327201D01*
X119699Y327114D01*
X119731Y327029D01*
X119765Y326945D01*
X119804Y326862D01*
X119845Y326781D01*
X119890Y326702D01*
X119938Y326625D01*
X119990Y326550D01*
X120044Y326477D01*
X120101Y326406D01*
X120162Y326338D01*
X120225Y326273D01*
X120290Y326210D01*
X120359Y326149D01*
X120429Y326092D01*
X120502Y326038D01*
X120577Y325986D01*
X120654Y325938D01*
X120733Y325893D01*
X120814Y325852D01*
X120897Y325813D01*
X120981Y325779D01*
X121066Y325747D01*
X121153Y325719D01*
X121241Y325695D01*
X121329Y325675D01*
X121419Y325658D01*
X121509Y325645D01*
X121599Y325636D01*
X121690Y325630D01*
X121781Y325628D01*
X122515Y325628D01*
X127717Y327829D02*
X127717Y334433D01*
X127718Y327829D02*
X127720Y327738D01*
X127726Y327647D01*
X127735Y327557D01*
X127748Y327467D01*
X127765Y327377D01*
X127785Y327289D01*
X127810Y327201D01*
X127837Y327114D01*
X127869Y327029D01*
X127903Y326945D01*
X127942Y326862D01*
X127983Y326781D01*
X128028Y326702D01*
X128076Y326625D01*
X128128Y326550D01*
X128182Y326477D01*
X128239Y326406D01*
X128300Y326338D01*
X128363Y326273D01*
X128428Y326210D01*
X128496Y326149D01*
X128567Y326092D01*
X128640Y326038D01*
X128715Y325986D01*
X128792Y325938D01*
X128871Y325893D01*
X128952Y325852D01*
X129035Y325813D01*
X129119Y325779D01*
X129204Y325747D01*
X129291Y325720D01*
X129379Y325695D01*
X129467Y325675D01*
X129557Y325658D01*
X129647Y325645D01*
X129737Y325636D01*
X129828Y325630D01*
X129919Y325628D01*
X133588Y325628D01*
X133588Y334433D01*
X139736Y334433D02*
X139736Y325628D01*
X139736Y334433D02*
X144139Y334433D01*
X144139Y332966D01*
X150401Y325628D02*
X154070Y325628D01*
X150401Y325628D02*
X150310Y325630D01*
X150219Y325636D01*
X150129Y325645D01*
X150039Y325658D01*
X149949Y325675D01*
X149861Y325695D01*
X149773Y325720D01*
X149686Y325747D01*
X149601Y325779D01*
X149517Y325813D01*
X149434Y325852D01*
X149353Y325893D01*
X149274Y325938D01*
X149197Y325986D01*
X149122Y326038D01*
X149049Y326092D01*
X148978Y326149D01*
X148910Y326210D01*
X148845Y326273D01*
X148782Y326338D01*
X148721Y326406D01*
X148664Y326477D01*
X148610Y326550D01*
X148558Y326625D01*
X148510Y326702D01*
X148465Y326781D01*
X148424Y326862D01*
X148385Y326945D01*
X148351Y327029D01*
X148319Y327114D01*
X148292Y327201D01*
X148267Y327289D01*
X148247Y327377D01*
X148230Y327467D01*
X148217Y327557D01*
X148208Y327647D01*
X148202Y327738D01*
X148200Y327829D01*
X148200Y331498D01*
X148202Y331605D01*
X148208Y331712D01*
X148218Y331819D01*
X148231Y331925D01*
X148249Y332031D01*
X148270Y332136D01*
X148295Y332240D01*
X148324Y332344D01*
X148357Y332446D01*
X148394Y332546D01*
X148434Y332646D01*
X148478Y332744D01*
X148525Y332840D01*
X148576Y332934D01*
X148630Y333027D01*
X148687Y333117D01*
X148748Y333206D01*
X148812Y333292D01*
X148879Y333375D01*
X148949Y333457D01*
X149022Y333535D01*
X149098Y333611D01*
X149176Y333684D01*
X149258Y333754D01*
X149341Y333821D01*
X149427Y333885D01*
X149516Y333946D01*
X149606Y334003D01*
X149699Y334057D01*
X149793Y334108D01*
X149889Y334155D01*
X149987Y334199D01*
X150087Y334239D01*
X150187Y334276D01*
X150289Y334309D01*
X150393Y334338D01*
X150497Y334363D01*
X150602Y334384D01*
X150708Y334402D01*
X150814Y334415D01*
X150921Y334425D01*
X151028Y334431D01*
X151135Y334433D01*
X151242Y334431D01*
X151349Y334425D01*
X151456Y334415D01*
X151562Y334402D01*
X151668Y334384D01*
X151773Y334363D01*
X151877Y334338D01*
X151981Y334309D01*
X152083Y334276D01*
X152183Y334239D01*
X152283Y334199D01*
X152381Y334155D01*
X152477Y334108D01*
X152571Y334057D01*
X152664Y334003D01*
X152754Y333946D01*
X152843Y333885D01*
X152929Y333821D01*
X153012Y333754D01*
X153094Y333684D01*
X153172Y333611D01*
X153248Y333535D01*
X153321Y333457D01*
X153391Y333375D01*
X153458Y333292D01*
X153522Y333206D01*
X153583Y333117D01*
X153640Y333027D01*
X153694Y332934D01*
X153745Y332840D01*
X153792Y332744D01*
X153836Y332646D01*
X153876Y332546D01*
X153913Y332446D01*
X153946Y332344D01*
X153975Y332240D01*
X154000Y332136D01*
X154021Y332031D01*
X154039Y331925D01*
X154052Y331819D01*
X154062Y331712D01*
X154068Y331605D01*
X154070Y331498D01*
X154070Y330031D01*
X148200Y330031D01*
X166669Y325628D02*
X166669Y338836D01*
X170337Y338836D01*
X170457Y338834D01*
X170577Y338828D01*
X170697Y338818D01*
X170816Y338805D01*
X170935Y338787D01*
X171053Y338766D01*
X171170Y338740D01*
X171287Y338711D01*
X171402Y338678D01*
X171516Y338641D01*
X171629Y338601D01*
X171741Y338557D01*
X171851Y338509D01*
X171960Y338458D01*
X172067Y338403D01*
X172172Y338344D01*
X172274Y338283D01*
X172375Y338218D01*
X172474Y338149D01*
X172571Y338078D01*
X172665Y338003D01*
X172756Y337926D01*
X172845Y337845D01*
X172931Y337761D01*
X173015Y337675D01*
X173096Y337586D01*
X173173Y337495D01*
X173248Y337401D01*
X173319Y337304D01*
X173388Y337205D01*
X173453Y337104D01*
X173514Y337002D01*
X173573Y336897D01*
X173628Y336790D01*
X173679Y336681D01*
X173727Y336571D01*
X173771Y336459D01*
X173811Y336346D01*
X173848Y336232D01*
X173881Y336117D01*
X173910Y336000D01*
X173936Y335883D01*
X173957Y335765D01*
X173975Y335646D01*
X173988Y335527D01*
X173998Y335407D01*
X174004Y335287D01*
X174006Y335167D01*
X174006Y329297D01*
X174004Y329177D01*
X173998Y329057D01*
X173988Y328937D01*
X173975Y328818D01*
X173957Y328699D01*
X173936Y328581D01*
X173910Y328464D01*
X173881Y328347D01*
X173848Y328232D01*
X173811Y328118D01*
X173771Y328005D01*
X173727Y327893D01*
X173679Y327783D01*
X173628Y327674D01*
X173573Y327567D01*
X173514Y327463D01*
X173453Y327360D01*
X173388Y327259D01*
X173319Y327160D01*
X173248Y327063D01*
X173173Y326969D01*
X173096Y326878D01*
X173015Y326789D01*
X172931Y326703D01*
X172845Y326619D01*
X172756Y326538D01*
X172665Y326461D01*
X172571Y326386D01*
X172474Y326315D01*
X172375Y326246D01*
X172274Y326181D01*
X172172Y326120D01*
X172067Y326061D01*
X171960Y326006D01*
X171851Y325955D01*
X171741Y325907D01*
X171629Y325863D01*
X171516Y325823D01*
X171402Y325786D01*
X171287Y325753D01*
X171170Y325724D01*
X171053Y325698D01*
X170935Y325677D01*
X170816Y325659D01*
X170697Y325646D01*
X170577Y325636D01*
X170457Y325630D01*
X170337Y325628D01*
X166669Y325628D01*
X181979Y325628D02*
X185647Y325628D01*
X181979Y325628D02*
X181888Y325630D01*
X181797Y325636D01*
X181707Y325645D01*
X181617Y325658D01*
X181527Y325675D01*
X181439Y325695D01*
X181351Y325720D01*
X181264Y325747D01*
X181179Y325779D01*
X181095Y325813D01*
X181012Y325852D01*
X180931Y325893D01*
X180852Y325938D01*
X180775Y325986D01*
X180700Y326038D01*
X180627Y326092D01*
X180556Y326149D01*
X180488Y326210D01*
X180423Y326273D01*
X180360Y326338D01*
X180299Y326406D01*
X180242Y326477D01*
X180188Y326550D01*
X180136Y326625D01*
X180088Y326702D01*
X180043Y326781D01*
X180002Y326862D01*
X179963Y326945D01*
X179929Y327029D01*
X179897Y327114D01*
X179870Y327201D01*
X179845Y327289D01*
X179825Y327377D01*
X179808Y327467D01*
X179795Y327557D01*
X179786Y327647D01*
X179780Y327738D01*
X179778Y327829D01*
X179777Y327829D02*
X179777Y331498D01*
X179779Y331605D01*
X179785Y331712D01*
X179795Y331819D01*
X179808Y331925D01*
X179826Y332031D01*
X179847Y332136D01*
X179872Y332240D01*
X179901Y332344D01*
X179934Y332446D01*
X179971Y332546D01*
X180011Y332646D01*
X180055Y332744D01*
X180102Y332840D01*
X180153Y332934D01*
X180207Y333027D01*
X180264Y333117D01*
X180325Y333206D01*
X180389Y333292D01*
X180456Y333375D01*
X180526Y333457D01*
X180599Y333535D01*
X180675Y333611D01*
X180753Y333684D01*
X180835Y333754D01*
X180918Y333821D01*
X181004Y333885D01*
X181093Y333946D01*
X181183Y334003D01*
X181276Y334057D01*
X181370Y334108D01*
X181466Y334155D01*
X181564Y334199D01*
X181664Y334239D01*
X181764Y334276D01*
X181866Y334309D01*
X181970Y334338D01*
X182074Y334363D01*
X182179Y334384D01*
X182285Y334402D01*
X182391Y334415D01*
X182498Y334425D01*
X182605Y334431D01*
X182712Y334433D01*
X182819Y334431D01*
X182926Y334425D01*
X183033Y334415D01*
X183139Y334402D01*
X183245Y334384D01*
X183350Y334363D01*
X183454Y334338D01*
X183558Y334309D01*
X183660Y334276D01*
X183760Y334239D01*
X183860Y334199D01*
X183958Y334155D01*
X184054Y334108D01*
X184148Y334057D01*
X184241Y334003D01*
X184331Y333946D01*
X184420Y333885D01*
X184506Y333821D01*
X184589Y333754D01*
X184671Y333684D01*
X184749Y333611D01*
X184825Y333535D01*
X184898Y333457D01*
X184968Y333375D01*
X185035Y333292D01*
X185099Y333206D01*
X185160Y333117D01*
X185217Y333027D01*
X185271Y332934D01*
X185322Y332840D01*
X185369Y332744D01*
X185413Y332646D01*
X185453Y332546D01*
X185490Y332446D01*
X185523Y332344D01*
X185552Y332240D01*
X185577Y332136D01*
X185598Y332031D01*
X185616Y331925D01*
X185629Y331819D01*
X185639Y331712D01*
X185645Y331605D01*
X185647Y331498D01*
X185647Y330031D01*
X179777Y330031D01*
X193087Y325628D02*
X196022Y325628D01*
X193087Y325628D02*
X192996Y325630D01*
X192905Y325636D01*
X192815Y325645D01*
X192725Y325658D01*
X192635Y325675D01*
X192547Y325695D01*
X192459Y325720D01*
X192372Y325747D01*
X192287Y325779D01*
X192203Y325813D01*
X192120Y325852D01*
X192039Y325893D01*
X191960Y325938D01*
X191883Y325986D01*
X191808Y326038D01*
X191735Y326092D01*
X191664Y326149D01*
X191596Y326210D01*
X191531Y326273D01*
X191468Y326338D01*
X191407Y326406D01*
X191350Y326477D01*
X191296Y326550D01*
X191244Y326625D01*
X191196Y326702D01*
X191151Y326781D01*
X191110Y326862D01*
X191071Y326945D01*
X191037Y327029D01*
X191005Y327114D01*
X190978Y327201D01*
X190953Y327289D01*
X190933Y327377D01*
X190916Y327467D01*
X190903Y327557D01*
X190894Y327647D01*
X190888Y327738D01*
X190886Y327829D01*
X190886Y332232D01*
X190888Y332323D01*
X190894Y332414D01*
X190903Y332504D01*
X190916Y332594D01*
X190933Y332684D01*
X190953Y332772D01*
X190978Y332860D01*
X191005Y332947D01*
X191037Y333032D01*
X191071Y333116D01*
X191110Y333199D01*
X191151Y333280D01*
X191196Y333359D01*
X191244Y333436D01*
X191296Y333511D01*
X191350Y333584D01*
X191407Y333655D01*
X191468Y333723D01*
X191531Y333788D01*
X191596Y333851D01*
X191664Y333912D01*
X191735Y333969D01*
X191808Y334023D01*
X191883Y334075D01*
X191960Y334123D01*
X192039Y334168D01*
X192120Y334209D01*
X192203Y334248D01*
X192287Y334282D01*
X192372Y334314D01*
X192459Y334341D01*
X192547Y334366D01*
X192635Y334386D01*
X192725Y334403D01*
X192815Y334416D01*
X192905Y334425D01*
X192996Y334431D01*
X193087Y334433D01*
X196022Y334433D01*
X200686Y331498D02*
X200686Y328563D01*
X200687Y331498D02*
X200689Y331605D01*
X200695Y331712D01*
X200705Y331819D01*
X200718Y331925D01*
X200736Y332031D01*
X200757Y332136D01*
X200782Y332240D01*
X200811Y332344D01*
X200844Y332446D01*
X200881Y332546D01*
X200921Y332646D01*
X200965Y332744D01*
X201012Y332840D01*
X201063Y332934D01*
X201117Y333027D01*
X201174Y333117D01*
X201235Y333206D01*
X201299Y333292D01*
X201366Y333375D01*
X201436Y333457D01*
X201509Y333535D01*
X201585Y333611D01*
X201663Y333684D01*
X201745Y333754D01*
X201828Y333821D01*
X201914Y333885D01*
X202003Y333946D01*
X202093Y334003D01*
X202186Y334057D01*
X202280Y334108D01*
X202376Y334155D01*
X202474Y334199D01*
X202574Y334239D01*
X202674Y334276D01*
X202776Y334309D01*
X202880Y334338D01*
X202984Y334363D01*
X203089Y334384D01*
X203195Y334402D01*
X203301Y334415D01*
X203408Y334425D01*
X203515Y334431D01*
X203622Y334433D01*
X203729Y334431D01*
X203836Y334425D01*
X203943Y334415D01*
X204049Y334402D01*
X204155Y334384D01*
X204260Y334363D01*
X204364Y334338D01*
X204468Y334309D01*
X204570Y334276D01*
X204670Y334239D01*
X204770Y334199D01*
X204868Y334155D01*
X204964Y334108D01*
X205058Y334057D01*
X205151Y334003D01*
X205241Y333946D01*
X205330Y333885D01*
X205416Y333821D01*
X205499Y333754D01*
X205581Y333684D01*
X205659Y333611D01*
X205735Y333535D01*
X205808Y333457D01*
X205878Y333375D01*
X205945Y333292D01*
X206009Y333206D01*
X206070Y333117D01*
X206127Y333027D01*
X206181Y332934D01*
X206232Y332840D01*
X206279Y332744D01*
X206323Y332646D01*
X206363Y332546D01*
X206400Y332446D01*
X206433Y332344D01*
X206462Y332240D01*
X206487Y332136D01*
X206508Y332031D01*
X206526Y331925D01*
X206539Y331819D01*
X206549Y331712D01*
X206555Y331605D01*
X206557Y331498D01*
X206557Y328563D01*
X206555Y328456D01*
X206549Y328349D01*
X206539Y328242D01*
X206526Y328136D01*
X206508Y328030D01*
X206487Y327925D01*
X206462Y327821D01*
X206433Y327717D01*
X206400Y327615D01*
X206363Y327515D01*
X206323Y327415D01*
X206279Y327317D01*
X206232Y327221D01*
X206181Y327127D01*
X206127Y327034D01*
X206070Y326944D01*
X206009Y326855D01*
X205945Y326769D01*
X205878Y326686D01*
X205808Y326604D01*
X205735Y326526D01*
X205659Y326450D01*
X205581Y326377D01*
X205499Y326307D01*
X205416Y326240D01*
X205330Y326176D01*
X205241Y326115D01*
X205151Y326058D01*
X205058Y326004D01*
X204964Y325953D01*
X204868Y325906D01*
X204770Y325862D01*
X204670Y325822D01*
X204570Y325785D01*
X204468Y325752D01*
X204364Y325723D01*
X204260Y325698D01*
X204155Y325677D01*
X204049Y325659D01*
X203943Y325646D01*
X203836Y325636D01*
X203729Y325630D01*
X203622Y325628D01*
X203515Y325630D01*
X203408Y325636D01*
X203301Y325646D01*
X203195Y325659D01*
X203089Y325677D01*
X202984Y325698D01*
X202880Y325723D01*
X202776Y325752D01*
X202674Y325785D01*
X202574Y325822D01*
X202474Y325862D01*
X202376Y325906D01*
X202280Y325953D01*
X202186Y326004D01*
X202093Y326058D01*
X202003Y326115D01*
X201914Y326176D01*
X201828Y326240D01*
X201745Y326307D01*
X201663Y326377D01*
X201585Y326450D01*
X201509Y326526D01*
X201436Y326604D01*
X201366Y326686D01*
X201299Y326769D01*
X201235Y326855D01*
X201174Y326944D01*
X201117Y327034D01*
X201063Y327127D01*
X201012Y327221D01*
X200965Y327317D01*
X200921Y327415D01*
X200881Y327515D01*
X200844Y327615D01*
X200811Y327717D01*
X200782Y327821D01*
X200757Y327925D01*
X200736Y328030D01*
X200718Y328136D01*
X200705Y328242D01*
X200695Y328349D01*
X200689Y328456D01*
X200687Y328563D01*
X217589Y325628D02*
X217589Y338836D01*
X217589Y325628D02*
X213920Y325628D01*
X213829Y325630D01*
X213738Y325636D01*
X213648Y325645D01*
X213558Y325658D01*
X213468Y325675D01*
X213380Y325695D01*
X213292Y325720D01*
X213205Y325747D01*
X213120Y325779D01*
X213036Y325813D01*
X212953Y325852D01*
X212872Y325893D01*
X212793Y325938D01*
X212716Y325986D01*
X212641Y326038D01*
X212568Y326092D01*
X212497Y326149D01*
X212429Y326210D01*
X212364Y326273D01*
X212301Y326338D01*
X212240Y326406D01*
X212183Y326477D01*
X212129Y326550D01*
X212077Y326625D01*
X212029Y326702D01*
X211984Y326781D01*
X211943Y326862D01*
X211904Y326945D01*
X211870Y327029D01*
X211838Y327114D01*
X211811Y327201D01*
X211786Y327289D01*
X211766Y327377D01*
X211749Y327467D01*
X211736Y327557D01*
X211727Y327647D01*
X211721Y327738D01*
X211719Y327829D01*
X211719Y332232D01*
X211721Y332323D01*
X211727Y332414D01*
X211736Y332504D01*
X211749Y332594D01*
X211766Y332684D01*
X211786Y332772D01*
X211811Y332860D01*
X211838Y332947D01*
X211870Y333032D01*
X211904Y333116D01*
X211943Y333199D01*
X211984Y333280D01*
X212029Y333359D01*
X212077Y333436D01*
X212129Y333511D01*
X212183Y333584D01*
X212240Y333655D01*
X212301Y333723D01*
X212364Y333788D01*
X212429Y333851D01*
X212497Y333912D01*
X212568Y333969D01*
X212641Y334023D01*
X212716Y334075D01*
X212793Y334123D01*
X212872Y334168D01*
X212953Y334209D01*
X213036Y334248D01*
X213120Y334282D01*
X213205Y334314D01*
X213292Y334341D01*
X213380Y334366D01*
X213468Y334386D01*
X213558Y334403D01*
X213648Y334416D01*
X213738Y334425D01*
X213829Y334431D01*
X213920Y334433D01*
X217589Y334433D01*
X225504Y325628D02*
X229173Y325628D01*
X225504Y325628D02*
X225413Y325630D01*
X225322Y325636D01*
X225232Y325645D01*
X225142Y325658D01*
X225052Y325675D01*
X224964Y325695D01*
X224876Y325720D01*
X224789Y325747D01*
X224704Y325779D01*
X224620Y325813D01*
X224537Y325852D01*
X224456Y325893D01*
X224377Y325938D01*
X224300Y325986D01*
X224225Y326038D01*
X224152Y326092D01*
X224081Y326149D01*
X224013Y326210D01*
X223948Y326273D01*
X223885Y326338D01*
X223824Y326406D01*
X223767Y326477D01*
X223713Y326550D01*
X223661Y326625D01*
X223613Y326702D01*
X223568Y326781D01*
X223527Y326862D01*
X223488Y326945D01*
X223454Y327029D01*
X223422Y327114D01*
X223395Y327201D01*
X223370Y327289D01*
X223350Y327377D01*
X223333Y327467D01*
X223320Y327557D01*
X223311Y327647D01*
X223305Y327738D01*
X223303Y327829D01*
X223303Y331498D01*
X223305Y331605D01*
X223311Y331712D01*
X223321Y331819D01*
X223334Y331925D01*
X223352Y332031D01*
X223373Y332136D01*
X223398Y332240D01*
X223427Y332344D01*
X223460Y332446D01*
X223497Y332546D01*
X223537Y332646D01*
X223581Y332744D01*
X223628Y332840D01*
X223679Y332934D01*
X223733Y333027D01*
X223790Y333117D01*
X223851Y333206D01*
X223915Y333292D01*
X223982Y333375D01*
X224052Y333457D01*
X224125Y333535D01*
X224201Y333611D01*
X224279Y333684D01*
X224361Y333754D01*
X224444Y333821D01*
X224530Y333885D01*
X224619Y333946D01*
X224709Y334003D01*
X224802Y334057D01*
X224896Y334108D01*
X224992Y334155D01*
X225090Y334199D01*
X225190Y334239D01*
X225290Y334276D01*
X225392Y334309D01*
X225496Y334338D01*
X225600Y334363D01*
X225705Y334384D01*
X225811Y334402D01*
X225917Y334415D01*
X226024Y334425D01*
X226131Y334431D01*
X226238Y334433D01*
X226345Y334431D01*
X226452Y334425D01*
X226559Y334415D01*
X226665Y334402D01*
X226771Y334384D01*
X226876Y334363D01*
X226980Y334338D01*
X227084Y334309D01*
X227186Y334276D01*
X227286Y334239D01*
X227386Y334199D01*
X227484Y334155D01*
X227580Y334108D01*
X227674Y334057D01*
X227767Y334003D01*
X227857Y333946D01*
X227946Y333885D01*
X228032Y333821D01*
X228115Y333754D01*
X228197Y333684D01*
X228275Y333611D01*
X228351Y333535D01*
X228424Y333457D01*
X228494Y333375D01*
X228561Y333292D01*
X228625Y333206D01*
X228686Y333117D01*
X228743Y333027D01*
X228797Y332934D01*
X228848Y332840D01*
X228895Y332744D01*
X228939Y332646D01*
X228979Y332546D01*
X229016Y332446D01*
X229049Y332344D01*
X229078Y332240D01*
X229103Y332136D01*
X229124Y332031D01*
X229142Y331925D01*
X229155Y331819D01*
X229165Y331712D01*
X229171Y331605D01*
X229173Y331498D01*
X229173Y330031D01*
X223303Y330031D01*
X234894Y334433D02*
X234894Y325628D01*
X234894Y334433D02*
X239297Y334433D01*
X239297Y332966D01*
D12*
X59690Y170180D02*
X59690Y109220D01*
X16510Y109220D02*
X16510Y170180D01*
D13*
X54610Y170180D02*
X54610Y109220D01*
X21590Y109220D02*
X21590Y170180D01*
X30480Y142240D02*
X30480Y137160D01*
X30480Y142240D02*
X45720Y142240D01*
X45720Y137160D01*
X30480Y137160D01*
X30480Y146050D02*
X38100Y146050D01*
X45720Y146050D01*
X38100Y133350D02*
X30480Y133350D01*
X38100Y133350D02*
X45720Y133350D01*
X38100Y146050D02*
X38100Y152400D01*
X38100Y133350D02*
X38100Y127000D01*
D12*
X16510Y109220D02*
X16516Y108694D01*
X16536Y108169D01*
X16568Y107644D01*
X16612Y107120D01*
X16670Y106598D01*
X16740Y106076D01*
X16823Y105557D01*
X16918Y105040D01*
X17027Y104526D01*
X17147Y104014D01*
X17280Y103505D01*
X17425Y103000D01*
X17583Y102498D01*
X17753Y102001D01*
X17935Y101507D01*
X18128Y101019D01*
X18334Y100535D01*
X18551Y100056D01*
X18780Y99583D01*
X19021Y99115D01*
X19272Y98653D01*
X19535Y98198D01*
X19809Y97749D01*
X20094Y97307D01*
X20389Y96872D01*
X20695Y96445D01*
X21012Y96025D01*
X21338Y95613D01*
X21674Y95208D01*
X22020Y94813D01*
X22376Y94425D01*
X22741Y94047D01*
X23115Y93677D01*
X23498Y93317D01*
X23889Y92966D01*
X24289Y92625D01*
X24698Y92294D01*
X25114Y91972D01*
X25538Y91661D01*
X25969Y91360D01*
X26407Y91070D01*
X26853Y90791D01*
X27305Y90523D01*
X27764Y90265D01*
X28228Y90019D01*
X28699Y89784D01*
X29175Y89561D01*
X29656Y89350D01*
X30142Y89150D01*
X30633Y88962D01*
X31129Y88786D01*
X31629Y88623D01*
X32132Y88471D01*
X32639Y88332D01*
X33149Y88205D01*
X33663Y88091D01*
X34178Y87989D01*
X34697Y87900D01*
X35217Y87823D01*
X35739Y87760D01*
X36262Y87708D01*
X36786Y87670D01*
X37311Y87644D01*
X37837Y87632D01*
X38363Y87632D01*
X38889Y87644D01*
X39414Y87670D01*
X39938Y87708D01*
X40461Y87760D01*
X40983Y87823D01*
X41503Y87900D01*
X42022Y87989D01*
X42537Y88091D01*
X43051Y88205D01*
X43561Y88332D01*
X44068Y88471D01*
X44571Y88623D01*
X45071Y88786D01*
X45567Y88962D01*
X46058Y89150D01*
X46544Y89350D01*
X47025Y89561D01*
X47501Y89784D01*
X47972Y90019D01*
X48436Y90265D01*
X48895Y90523D01*
X49347Y90791D01*
X49793Y91070D01*
X50231Y91360D01*
X50662Y91661D01*
X51086Y91972D01*
X51502Y92294D01*
X51911Y92625D01*
X52311Y92966D01*
X52702Y93317D01*
X53085Y93677D01*
X53459Y94047D01*
X53824Y94425D01*
X54180Y94813D01*
X54526Y95208D01*
X54862Y95613D01*
X55188Y96025D01*
X55505Y96445D01*
X55811Y96872D01*
X56106Y97307D01*
X56391Y97749D01*
X56665Y98198D01*
X56928Y98653D01*
X57179Y99115D01*
X57420Y99583D01*
X57649Y100056D01*
X57866Y100535D01*
X58072Y101019D01*
X58265Y101507D01*
X58447Y102001D01*
X58617Y102498D01*
X58775Y103000D01*
X58920Y103505D01*
X59053Y104014D01*
X59173Y104526D01*
X59282Y105040D01*
X59377Y105557D01*
X59460Y106076D01*
X59530Y106598D01*
X59588Y107120D01*
X59632Y107644D01*
X59664Y108169D01*
X59684Y108694D01*
X59690Y109220D01*
X59690Y170180D02*
X59684Y170706D01*
X59664Y171231D01*
X59632Y171756D01*
X59588Y172280D01*
X59530Y172802D01*
X59460Y173324D01*
X59377Y173843D01*
X59282Y174360D01*
X59173Y174874D01*
X59053Y175386D01*
X58920Y175895D01*
X58775Y176400D01*
X58617Y176902D01*
X58447Y177399D01*
X58265Y177893D01*
X58072Y178381D01*
X57866Y178865D01*
X57649Y179344D01*
X57420Y179817D01*
X57179Y180285D01*
X56928Y180747D01*
X56665Y181202D01*
X56391Y181651D01*
X56106Y182093D01*
X55811Y182528D01*
X55505Y182955D01*
X55188Y183375D01*
X54862Y183787D01*
X54526Y184192D01*
X54180Y184587D01*
X53824Y184975D01*
X53459Y185353D01*
X53085Y185723D01*
X52702Y186083D01*
X52311Y186434D01*
X51911Y186775D01*
X51502Y187106D01*
X51086Y187428D01*
X50662Y187739D01*
X50231Y188040D01*
X49793Y188330D01*
X49347Y188609D01*
X48895Y188877D01*
X48436Y189135D01*
X47972Y189381D01*
X47501Y189616D01*
X47025Y189839D01*
X46544Y190050D01*
X46058Y190250D01*
X45567Y190438D01*
X45071Y190614D01*
X44571Y190777D01*
X44068Y190929D01*
X43561Y191068D01*
X43051Y191195D01*
X42537Y191309D01*
X42022Y191411D01*
X41503Y191500D01*
X40983Y191577D01*
X40461Y191640D01*
X39938Y191692D01*
X39414Y191730D01*
X38889Y191756D01*
X38363Y191768D01*
X37837Y191768D01*
X37311Y191756D01*
X36786Y191730D01*
X36262Y191692D01*
X35739Y191640D01*
X35217Y191577D01*
X34697Y191500D01*
X34178Y191411D01*
X33663Y191309D01*
X33149Y191195D01*
X32639Y191068D01*
X32132Y190929D01*
X31629Y190777D01*
X31129Y190614D01*
X30633Y190438D01*
X30142Y190250D01*
X29656Y190050D01*
X29175Y189839D01*
X28699Y189616D01*
X28228Y189381D01*
X27764Y189135D01*
X27305Y188877D01*
X26853Y188609D01*
X26407Y188330D01*
X25969Y188040D01*
X25538Y187739D01*
X25114Y187428D01*
X24698Y187106D01*
X24289Y186775D01*
X23889Y186434D01*
X23498Y186083D01*
X23115Y185723D01*
X22741Y185353D01*
X22376Y184975D01*
X22020Y184587D01*
X21674Y184192D01*
X21338Y183787D01*
X21012Y183375D01*
X20695Y182955D01*
X20389Y182528D01*
X20094Y182093D01*
X19809Y181651D01*
X19535Y181202D01*
X19272Y180747D01*
X19021Y180285D01*
X18780Y179817D01*
X18551Y179344D01*
X18334Y178865D01*
X18128Y178381D01*
X17935Y177893D01*
X17753Y177399D01*
X17583Y176902D01*
X17425Y176400D01*
X17280Y175895D01*
X17147Y175386D01*
X17027Y174874D01*
X16918Y174360D01*
X16823Y173843D01*
X16740Y173324D01*
X16670Y172802D01*
X16612Y172280D01*
X16568Y171756D01*
X16536Y171231D01*
X16516Y170706D01*
X16510Y170180D01*
D13*
X21590Y109220D02*
X21595Y108818D01*
X21610Y108416D01*
X21634Y108015D01*
X21668Y107614D01*
X21712Y107215D01*
X21766Y106816D01*
X21829Y106419D01*
X21902Y106024D01*
X21985Y105630D01*
X22077Y105239D01*
X22179Y104850D01*
X22290Y104463D01*
X22411Y104080D01*
X22540Y103699D01*
X22679Y103322D01*
X22828Y102948D01*
X22985Y102578D01*
X23151Y102212D01*
X23326Y101850D01*
X23510Y101493D01*
X23702Y101140D01*
X23903Y100792D01*
X24113Y100448D01*
X24331Y100110D01*
X24557Y99778D01*
X24791Y99451D01*
X25032Y99130D01*
X25282Y98814D01*
X25539Y98505D01*
X25804Y98203D01*
X26076Y97906D01*
X26355Y97617D01*
X26641Y97334D01*
X26934Y97059D01*
X27233Y96791D01*
X27539Y96530D01*
X27851Y96276D01*
X28169Y96030D01*
X28494Y95793D01*
X28823Y95563D01*
X29159Y95341D01*
X29499Y95127D01*
X29845Y94922D01*
X30196Y94725D01*
X30551Y94537D01*
X30911Y94357D01*
X31275Y94187D01*
X31643Y94025D01*
X32015Y93872D01*
X32390Y93729D01*
X32769Y93594D01*
X33151Y93469D01*
X33536Y93353D01*
X33924Y93247D01*
X34314Y93150D01*
X34707Y93062D01*
X35101Y92985D01*
X35497Y92916D01*
X35895Y92858D01*
X36294Y92809D01*
X36694Y92770D01*
X37095Y92741D01*
X37497Y92721D01*
X37899Y92711D01*
X38301Y92711D01*
X38703Y92721D01*
X39105Y92741D01*
X39506Y92770D01*
X39906Y92809D01*
X40305Y92858D01*
X40703Y92916D01*
X41099Y92985D01*
X41493Y93062D01*
X41886Y93150D01*
X42276Y93247D01*
X42664Y93353D01*
X43049Y93469D01*
X43431Y93594D01*
X43810Y93729D01*
X44185Y93872D01*
X44557Y94025D01*
X44925Y94187D01*
X45289Y94357D01*
X45649Y94537D01*
X46004Y94725D01*
X46355Y94922D01*
X46701Y95127D01*
X47041Y95341D01*
X47377Y95563D01*
X47706Y95793D01*
X48031Y96030D01*
X48349Y96276D01*
X48661Y96530D01*
X48967Y96791D01*
X49266Y97059D01*
X49559Y97334D01*
X49845Y97617D01*
X50124Y97906D01*
X50396Y98203D01*
X50661Y98505D01*
X50918Y98814D01*
X51168Y99130D01*
X51409Y99451D01*
X51643Y99778D01*
X51869Y100110D01*
X52087Y100448D01*
X52297Y100792D01*
X52498Y101140D01*
X52690Y101493D01*
X52874Y101850D01*
X53049Y102212D01*
X53215Y102578D01*
X53372Y102948D01*
X53521Y103322D01*
X53660Y103699D01*
X53789Y104080D01*
X53910Y104463D01*
X54021Y104850D01*
X54123Y105239D01*
X54215Y105630D01*
X54298Y106024D01*
X54371Y106419D01*
X54434Y106816D01*
X54488Y107215D01*
X54532Y107614D01*
X54566Y108015D01*
X54590Y108416D01*
X54605Y108818D01*
X54610Y109220D01*
X54610Y170180D02*
X54605Y170582D01*
X54590Y170984D01*
X54566Y171385D01*
X54532Y171786D01*
X54488Y172185D01*
X54434Y172584D01*
X54371Y172981D01*
X54298Y173376D01*
X54215Y173770D01*
X54123Y174161D01*
X54021Y174550D01*
X53910Y174937D01*
X53789Y175320D01*
X53660Y175701D01*
X53521Y176078D01*
X53372Y176452D01*
X53215Y176822D01*
X53049Y177188D01*
X52874Y177550D01*
X52690Y177907D01*
X52498Y178260D01*
X52297Y178608D01*
X52087Y178952D01*
X51869Y179290D01*
X51643Y179622D01*
X51409Y179949D01*
X51168Y180270D01*
X50918Y180586D01*
X50661Y180895D01*
X50396Y181197D01*
X50124Y181494D01*
X49845Y181783D01*
X49559Y182066D01*
X49266Y182341D01*
X48967Y182609D01*
X48661Y182870D01*
X48349Y183124D01*
X48031Y183370D01*
X47706Y183607D01*
X47377Y183837D01*
X47041Y184059D01*
X46701Y184273D01*
X46355Y184478D01*
X46004Y184675D01*
X45649Y184863D01*
X45289Y185043D01*
X44925Y185213D01*
X44557Y185375D01*
X44185Y185528D01*
X43810Y185671D01*
X43431Y185806D01*
X43049Y185931D01*
X42664Y186047D01*
X42276Y186153D01*
X41886Y186250D01*
X41493Y186338D01*
X41099Y186415D01*
X40703Y186484D01*
X40305Y186542D01*
X39906Y186591D01*
X39506Y186630D01*
X39105Y186659D01*
X38703Y186679D01*
X38301Y186689D01*
X37899Y186689D01*
X37497Y186679D01*
X37095Y186659D01*
X36694Y186630D01*
X36294Y186591D01*
X35895Y186542D01*
X35497Y186484D01*
X35101Y186415D01*
X34707Y186338D01*
X34314Y186250D01*
X33924Y186153D01*
X33536Y186047D01*
X33151Y185931D01*
X32769Y185806D01*
X32390Y185671D01*
X32015Y185528D01*
X31643Y185375D01*
X31275Y185213D01*
X30911Y185043D01*
X30551Y184863D01*
X30196Y184675D01*
X29845Y184478D01*
X29499Y184273D01*
X29159Y184059D01*
X28823Y183837D01*
X28494Y183607D01*
X28169Y183370D01*
X27851Y183124D01*
X27539Y182870D01*
X27233Y182609D01*
X26934Y182341D01*
X26641Y182066D01*
X26355Y181783D01*
X26076Y181494D01*
X25804Y181197D01*
X25539Y180895D01*
X25282Y180586D01*
X25032Y180270D01*
X24791Y179949D01*
X24557Y179622D01*
X24331Y179290D01*
X24113Y178952D01*
X23903Y178608D01*
X23702Y178260D01*
X23510Y177907D01*
X23326Y177550D01*
X23151Y177188D01*
X22985Y176822D01*
X22828Y176452D01*
X22679Y176078D01*
X22540Y175701D01*
X22411Y175320D01*
X22290Y174937D01*
X22179Y174550D01*
X22077Y174161D01*
X21985Y173770D01*
X21902Y173376D01*
X21829Y172981D01*
X21766Y172584D01*
X21712Y172185D01*
X21668Y171786D01*
X21634Y171385D01*
X21610Y170984D01*
X21595Y170582D01*
X21590Y170180D01*
X165100Y234950D02*
X165100Y247650D01*
X171450Y254000D01*
X184150Y254000D02*
X190500Y247650D01*
X171450Y254000D02*
X165100Y260350D01*
X165100Y273050D01*
X171450Y279400D01*
X184150Y279400D02*
X190500Y273050D01*
X190500Y266700D01*
X190500Y260350D01*
X184150Y254000D01*
X184150Y228600D02*
X171450Y228600D01*
X165100Y234950D01*
X184150Y228600D02*
X190500Y234950D01*
X190500Y247650D01*
X171450Y279400D02*
X165100Y285750D01*
X165100Y298450D01*
X171450Y304800D01*
X184150Y304800D02*
X190500Y298450D01*
X190500Y285750D01*
X184150Y279400D01*
X184150Y304800D02*
X171450Y304800D01*
D14*
X174625Y305435D02*
X172085Y308610D01*
X183515Y308610D01*
X183515Y305435D02*
X183515Y311785D01*
X190500Y318770D02*
X190500Y266700D01*
X190500Y318770D02*
X12700Y318770D01*
X12700Y214630D01*
X190500Y214630D01*
X190500Y266700D01*
D11*
X126421Y279908D02*
X126421Y291592D01*
X125123Y279908D02*
X127720Y279908D01*
X127720Y291592D02*
X125123Y291592D01*
X132701Y291592D02*
X132701Y279908D01*
X139192Y279908D02*
X132701Y291592D01*
X139192Y291592D02*
X139192Y279908D01*
X109841Y237546D02*
X109841Y232354D01*
X109841Y237546D02*
X109843Y237659D01*
X109849Y237772D01*
X109859Y237885D01*
X109873Y237998D01*
X109890Y238110D01*
X109912Y238221D01*
X109937Y238331D01*
X109967Y238441D01*
X110000Y238549D01*
X110037Y238656D01*
X110077Y238762D01*
X110122Y238866D01*
X110170Y238969D01*
X110221Y239070D01*
X110276Y239169D01*
X110334Y239266D01*
X110396Y239361D01*
X110461Y239454D01*
X110529Y239544D01*
X110600Y239632D01*
X110675Y239718D01*
X110752Y239801D01*
X110832Y239881D01*
X110915Y239958D01*
X111001Y240033D01*
X111089Y240104D01*
X111179Y240172D01*
X111272Y240237D01*
X111367Y240299D01*
X111464Y240357D01*
X111563Y240412D01*
X111664Y240463D01*
X111767Y240511D01*
X111871Y240556D01*
X111977Y240596D01*
X112084Y240633D01*
X112192Y240666D01*
X112302Y240696D01*
X112412Y240721D01*
X112523Y240743D01*
X112635Y240760D01*
X112748Y240774D01*
X112861Y240784D01*
X112974Y240790D01*
X113087Y240792D01*
X113200Y240790D01*
X113313Y240784D01*
X113426Y240774D01*
X113539Y240760D01*
X113651Y240743D01*
X113762Y240721D01*
X113872Y240696D01*
X113982Y240666D01*
X114090Y240633D01*
X114197Y240596D01*
X114303Y240556D01*
X114407Y240511D01*
X114510Y240463D01*
X114611Y240412D01*
X114710Y240357D01*
X114807Y240299D01*
X114902Y240237D01*
X114995Y240172D01*
X115085Y240104D01*
X115173Y240033D01*
X115259Y239958D01*
X115342Y239881D01*
X115422Y239801D01*
X115499Y239718D01*
X115574Y239632D01*
X115645Y239544D01*
X115713Y239454D01*
X115778Y239361D01*
X115840Y239266D01*
X115898Y239169D01*
X115953Y239070D01*
X116004Y238969D01*
X116052Y238866D01*
X116097Y238762D01*
X116137Y238656D01*
X116174Y238549D01*
X116207Y238441D01*
X116237Y238331D01*
X116262Y238221D01*
X116284Y238110D01*
X116301Y237998D01*
X116315Y237885D01*
X116325Y237772D01*
X116331Y237659D01*
X116333Y237546D01*
X116332Y237546D02*
X116332Y232354D01*
X116333Y232354D02*
X116331Y232241D01*
X116325Y232128D01*
X116315Y232015D01*
X116301Y231902D01*
X116284Y231790D01*
X116262Y231679D01*
X116237Y231569D01*
X116207Y231459D01*
X116174Y231351D01*
X116137Y231244D01*
X116097Y231138D01*
X116052Y231034D01*
X116004Y230931D01*
X115953Y230830D01*
X115898Y230731D01*
X115840Y230634D01*
X115778Y230539D01*
X115713Y230446D01*
X115645Y230356D01*
X115574Y230268D01*
X115499Y230182D01*
X115422Y230099D01*
X115342Y230019D01*
X115259Y229942D01*
X115173Y229867D01*
X115085Y229796D01*
X114995Y229728D01*
X114902Y229663D01*
X114807Y229601D01*
X114710Y229543D01*
X114611Y229488D01*
X114510Y229437D01*
X114407Y229389D01*
X114303Y229344D01*
X114197Y229304D01*
X114090Y229267D01*
X113982Y229234D01*
X113872Y229204D01*
X113762Y229179D01*
X113651Y229157D01*
X113539Y229140D01*
X113426Y229126D01*
X113313Y229116D01*
X113200Y229110D01*
X113087Y229108D01*
X112974Y229110D01*
X112861Y229116D01*
X112748Y229126D01*
X112635Y229140D01*
X112523Y229157D01*
X112412Y229179D01*
X112302Y229204D01*
X112192Y229234D01*
X112084Y229267D01*
X111977Y229304D01*
X111871Y229344D01*
X111767Y229389D01*
X111664Y229437D01*
X111563Y229488D01*
X111464Y229543D01*
X111367Y229601D01*
X111272Y229663D01*
X111179Y229728D01*
X111089Y229796D01*
X111001Y229867D01*
X110915Y229942D01*
X110832Y230019D01*
X110752Y230099D01*
X110675Y230182D01*
X110600Y230268D01*
X110529Y230356D01*
X110461Y230446D01*
X110396Y230539D01*
X110334Y230634D01*
X110276Y230731D01*
X110221Y230830D01*
X110170Y230931D01*
X110122Y231034D01*
X110077Y231138D01*
X110037Y231244D01*
X110000Y231351D01*
X109967Y231459D01*
X109937Y231569D01*
X109912Y231679D01*
X109890Y231790D01*
X109873Y231902D01*
X109859Y232015D01*
X109849Y232128D01*
X109843Y232241D01*
X109841Y232354D01*
X121652Y232354D02*
X121652Y240792D01*
X121651Y232354D02*
X121653Y232241D01*
X121659Y232128D01*
X121669Y232015D01*
X121683Y231902D01*
X121700Y231790D01*
X121722Y231679D01*
X121747Y231569D01*
X121777Y231459D01*
X121810Y231351D01*
X121847Y231244D01*
X121887Y231138D01*
X121932Y231034D01*
X121980Y230931D01*
X122031Y230830D01*
X122086Y230731D01*
X122144Y230634D01*
X122206Y230539D01*
X122271Y230446D01*
X122339Y230356D01*
X122410Y230268D01*
X122485Y230182D01*
X122562Y230099D01*
X122642Y230019D01*
X122725Y229942D01*
X122811Y229867D01*
X122899Y229796D01*
X122989Y229728D01*
X123082Y229663D01*
X123177Y229601D01*
X123274Y229543D01*
X123373Y229488D01*
X123474Y229437D01*
X123577Y229389D01*
X123681Y229344D01*
X123787Y229304D01*
X123894Y229267D01*
X124002Y229234D01*
X124112Y229204D01*
X124222Y229179D01*
X124333Y229157D01*
X124445Y229140D01*
X124558Y229126D01*
X124671Y229116D01*
X124784Y229110D01*
X124897Y229108D01*
X125010Y229110D01*
X125123Y229116D01*
X125236Y229126D01*
X125349Y229140D01*
X125461Y229157D01*
X125572Y229179D01*
X125682Y229204D01*
X125792Y229234D01*
X125900Y229267D01*
X126007Y229304D01*
X126113Y229344D01*
X126217Y229389D01*
X126320Y229437D01*
X126421Y229488D01*
X126520Y229543D01*
X126617Y229601D01*
X126712Y229663D01*
X126805Y229728D01*
X126895Y229796D01*
X126983Y229867D01*
X127069Y229942D01*
X127152Y230019D01*
X127232Y230099D01*
X127309Y230182D01*
X127384Y230268D01*
X127455Y230356D01*
X127523Y230446D01*
X127588Y230539D01*
X127650Y230634D01*
X127708Y230731D01*
X127763Y230830D01*
X127814Y230931D01*
X127862Y231034D01*
X127907Y231138D01*
X127947Y231244D01*
X127984Y231351D01*
X128017Y231459D01*
X128047Y231569D01*
X128072Y231679D01*
X128094Y231790D01*
X128111Y231902D01*
X128125Y232015D01*
X128135Y232128D01*
X128141Y232241D01*
X128143Y232354D01*
X128143Y240792D01*
X135946Y240792D02*
X135946Y229108D01*
X132701Y240792D02*
X139192Y240792D01*
X114808Y260999D02*
X112861Y260999D01*
X114808Y260999D02*
X114808Y254508D01*
X110913Y254508D01*
X110814Y254510D01*
X110714Y254516D01*
X110615Y254525D01*
X110517Y254538D01*
X110419Y254555D01*
X110321Y254576D01*
X110225Y254601D01*
X110130Y254629D01*
X110036Y254661D01*
X109943Y254696D01*
X109851Y254735D01*
X109761Y254778D01*
X109673Y254823D01*
X109586Y254873D01*
X109502Y254925D01*
X109419Y254981D01*
X109339Y255039D01*
X109261Y255101D01*
X109186Y255166D01*
X109113Y255234D01*
X109043Y255304D01*
X108975Y255377D01*
X108910Y255452D01*
X108848Y255530D01*
X108790Y255610D01*
X108734Y255693D01*
X108682Y255777D01*
X108632Y255864D01*
X108587Y255952D01*
X108544Y256042D01*
X108505Y256134D01*
X108470Y256227D01*
X108438Y256321D01*
X108410Y256416D01*
X108385Y256512D01*
X108364Y256610D01*
X108347Y256708D01*
X108334Y256806D01*
X108325Y256905D01*
X108319Y257005D01*
X108317Y257104D01*
X108317Y263596D01*
X108319Y263695D01*
X108325Y263795D01*
X108334Y263894D01*
X108347Y263992D01*
X108364Y264090D01*
X108385Y264188D01*
X108410Y264284D01*
X108438Y264379D01*
X108470Y264473D01*
X108505Y264566D01*
X108544Y264658D01*
X108587Y264748D01*
X108632Y264836D01*
X108682Y264923D01*
X108734Y265007D01*
X108790Y265090D01*
X108848Y265170D01*
X108910Y265248D01*
X108975Y265323D01*
X109043Y265396D01*
X109113Y265466D01*
X109186Y265534D01*
X109261Y265599D01*
X109339Y265661D01*
X109419Y265719D01*
X109502Y265775D01*
X109586Y265827D01*
X109673Y265877D01*
X109761Y265922D01*
X109851Y265965D01*
X109943Y266004D01*
X110035Y266039D01*
X110130Y266071D01*
X110225Y266099D01*
X110321Y266124D01*
X110419Y266145D01*
X110517Y266162D01*
X110615Y266175D01*
X110714Y266184D01*
X110814Y266190D01*
X110913Y266192D01*
X114808Y266192D01*
X120509Y266192D02*
X120509Y254508D01*
X127000Y254508D02*
X120509Y266192D01*
X127000Y266192D02*
X127000Y254508D01*
X132701Y254508D02*
X132701Y266192D01*
X135946Y266192D01*
X136059Y266190D01*
X136172Y266184D01*
X136285Y266174D01*
X136398Y266160D01*
X136510Y266143D01*
X136621Y266121D01*
X136731Y266096D01*
X136841Y266066D01*
X136949Y266033D01*
X137056Y265996D01*
X137162Y265956D01*
X137266Y265911D01*
X137369Y265863D01*
X137470Y265812D01*
X137569Y265757D01*
X137666Y265699D01*
X137761Y265637D01*
X137854Y265572D01*
X137944Y265504D01*
X138032Y265433D01*
X138118Y265358D01*
X138201Y265281D01*
X138281Y265201D01*
X138358Y265118D01*
X138433Y265032D01*
X138504Y264944D01*
X138572Y264854D01*
X138637Y264761D01*
X138699Y264666D01*
X138757Y264569D01*
X138812Y264470D01*
X138863Y264369D01*
X138911Y264266D01*
X138956Y264162D01*
X138996Y264056D01*
X139033Y263949D01*
X139066Y263841D01*
X139096Y263731D01*
X139121Y263621D01*
X139143Y263510D01*
X139160Y263398D01*
X139174Y263285D01*
X139184Y263172D01*
X139190Y263059D01*
X139192Y262946D01*
X139192Y257754D01*
X139190Y257641D01*
X139184Y257528D01*
X139174Y257415D01*
X139160Y257302D01*
X139143Y257190D01*
X139121Y257079D01*
X139096Y256969D01*
X139066Y256859D01*
X139033Y256751D01*
X138996Y256644D01*
X138956Y256538D01*
X138911Y256434D01*
X138863Y256331D01*
X138812Y256230D01*
X138757Y256131D01*
X138699Y256034D01*
X138637Y255939D01*
X138572Y255846D01*
X138504Y255756D01*
X138433Y255668D01*
X138358Y255582D01*
X138281Y255499D01*
X138201Y255419D01*
X138118Y255342D01*
X138032Y255267D01*
X137944Y255196D01*
X137854Y255128D01*
X137761Y255063D01*
X137666Y255001D01*
X137569Y254943D01*
X137470Y254888D01*
X137369Y254837D01*
X137266Y254789D01*
X137162Y254744D01*
X137056Y254704D01*
X136949Y254667D01*
X136841Y254634D01*
X136731Y254604D01*
X136621Y254579D01*
X136510Y254557D01*
X136398Y254540D01*
X136285Y254526D01*
X136172Y254516D01*
X136059Y254510D01*
X135946Y254508D01*
X132701Y254508D01*
D15*
X63500Y6350D02*
X215900Y6350D01*
X63500Y6350D02*
X63500Y25400D01*
X63500Y69850D01*
X215900Y69850D01*
X215900Y25400D01*
X215900Y6350D01*
X215900Y25400D02*
X63500Y25400D01*
X266700Y234950D02*
X317500Y234950D01*
X317500Y215900D01*
X317500Y171450D01*
X266700Y171450D01*
X266700Y215900D01*
X266700Y234950D01*
X266700Y215900D02*
X317500Y215900D01*
X247650Y203200D02*
X247650Y101600D01*
X228600Y101600D01*
X184150Y101600D01*
X184150Y203200D01*
X228600Y203200D01*
X247650Y203200D01*
X228600Y203200D02*
X228600Y101600D01*
X266700Y311150D02*
X317500Y311150D01*
X317500Y292100D01*
X317500Y247650D01*
X266700Y247650D01*
X266700Y292100D01*
X266700Y311150D01*
X266700Y292100D02*
X317500Y292100D01*
X317500Y158750D02*
X266700Y158750D01*
X317500Y158750D02*
X317500Y139700D01*
X317500Y95250D01*
X266700Y95250D01*
X266700Y139700D01*
X266700Y158750D01*
X266700Y139700D02*
X317500Y139700D01*
X287020Y69850D02*
X236220Y69850D01*
X287020Y69850D02*
X287020Y50800D01*
X287020Y6350D01*
X236220Y6350D01*
X236220Y50800D01*
X236220Y69850D01*
X236220Y50800D02*
X287020Y50800D01*
M02*
