G75*
%MOIN*%
%OFA0B0*%
%FSLAX25Y25*%
%IPPOS*%
%LPD*%
%AMOC8*
5,1,8,0,0,1.08239X$1,22.5*
%
%ADD10C,0.02000*%
D10*
X0464500Y0023500D02*
X0464502Y0023576D01*
X0464508Y0023652D01*
X0464517Y0023727D01*
X0464531Y0023802D01*
X0464548Y0023876D01*
X0464569Y0023949D01*
X0464593Y0024021D01*
X0464622Y0024092D01*
X0464653Y0024161D01*
X0464688Y0024228D01*
X0464727Y0024293D01*
X0464769Y0024357D01*
X0464814Y0024418D01*
X0464862Y0024477D01*
X0464913Y0024533D01*
X0464967Y0024587D01*
X0465023Y0024638D01*
X0465082Y0024686D01*
X0465143Y0024731D01*
X0465207Y0024773D01*
X0465272Y0024812D01*
X0465339Y0024847D01*
X0465408Y0024878D01*
X0465479Y0024907D01*
X0465551Y0024931D01*
X0465624Y0024952D01*
X0465698Y0024969D01*
X0465773Y0024983D01*
X0465848Y0024992D01*
X0465924Y0024998D01*
X0466000Y0025000D01*
X0466076Y0024998D01*
X0466152Y0024992D01*
X0466227Y0024983D01*
X0466302Y0024969D01*
X0466376Y0024952D01*
X0466449Y0024931D01*
X0466521Y0024907D01*
X0466592Y0024878D01*
X0466661Y0024847D01*
X0466728Y0024812D01*
X0466793Y0024773D01*
X0466857Y0024731D01*
X0466918Y0024686D01*
X0466977Y0024638D01*
X0467033Y0024587D01*
X0467087Y0024533D01*
X0467138Y0024477D01*
X0467186Y0024418D01*
X0467231Y0024357D01*
X0467273Y0024293D01*
X0467312Y0024228D01*
X0467347Y0024161D01*
X0467378Y0024092D01*
X0467407Y0024021D01*
X0467431Y0023949D01*
X0467452Y0023876D01*
X0467469Y0023802D01*
X0467483Y0023727D01*
X0467492Y0023652D01*
X0467498Y0023576D01*
X0467500Y0023500D01*
X0467498Y0023424D01*
X0467492Y0023348D01*
X0467483Y0023273D01*
X0467469Y0023198D01*
X0467452Y0023124D01*
X0467431Y0023051D01*
X0467407Y0022979D01*
X0467378Y0022908D01*
X0467347Y0022839D01*
X0467312Y0022772D01*
X0467273Y0022707D01*
X0467231Y0022643D01*
X0467186Y0022582D01*
X0467138Y0022523D01*
X0467087Y0022467D01*
X0467033Y0022413D01*
X0466977Y0022362D01*
X0466918Y0022314D01*
X0466857Y0022269D01*
X0466793Y0022227D01*
X0466728Y0022188D01*
X0466661Y0022153D01*
X0466592Y0022122D01*
X0466521Y0022093D01*
X0466449Y0022069D01*
X0466376Y0022048D01*
X0466302Y0022031D01*
X0466227Y0022017D01*
X0466152Y0022008D01*
X0466076Y0022002D01*
X0466000Y0022000D01*
X0465924Y0022002D01*
X0465848Y0022008D01*
X0465773Y0022017D01*
X0465698Y0022031D01*
X0465624Y0022048D01*
X0465551Y0022069D01*
X0465479Y0022093D01*
X0465408Y0022122D01*
X0465339Y0022153D01*
X0465272Y0022188D01*
X0465207Y0022227D01*
X0465143Y0022269D01*
X0465082Y0022314D01*
X0465023Y0022362D01*
X0464967Y0022413D01*
X0464913Y0022467D01*
X0464862Y0022523D01*
X0464814Y0022582D01*
X0464769Y0022643D01*
X0464727Y0022707D01*
X0464688Y0022772D01*
X0464653Y0022839D01*
X0464622Y0022908D01*
X0464593Y0022979D01*
X0464569Y0023051D01*
X0464548Y0023124D01*
X0464531Y0023198D01*
X0464517Y0023273D01*
X0464508Y0023348D01*
X0464502Y0023424D01*
X0464500Y0023500D01*
X0499500Y0023500D02*
X0499502Y0023576D01*
X0499508Y0023652D01*
X0499517Y0023727D01*
X0499531Y0023802D01*
X0499548Y0023876D01*
X0499569Y0023949D01*
X0499593Y0024021D01*
X0499622Y0024092D01*
X0499653Y0024161D01*
X0499688Y0024228D01*
X0499727Y0024293D01*
X0499769Y0024357D01*
X0499814Y0024418D01*
X0499862Y0024477D01*
X0499913Y0024533D01*
X0499967Y0024587D01*
X0500023Y0024638D01*
X0500082Y0024686D01*
X0500143Y0024731D01*
X0500207Y0024773D01*
X0500272Y0024812D01*
X0500339Y0024847D01*
X0500408Y0024878D01*
X0500479Y0024907D01*
X0500551Y0024931D01*
X0500624Y0024952D01*
X0500698Y0024969D01*
X0500773Y0024983D01*
X0500848Y0024992D01*
X0500924Y0024998D01*
X0501000Y0025000D01*
X0501076Y0024998D01*
X0501152Y0024992D01*
X0501227Y0024983D01*
X0501302Y0024969D01*
X0501376Y0024952D01*
X0501449Y0024931D01*
X0501521Y0024907D01*
X0501592Y0024878D01*
X0501661Y0024847D01*
X0501728Y0024812D01*
X0501793Y0024773D01*
X0501857Y0024731D01*
X0501918Y0024686D01*
X0501977Y0024638D01*
X0502033Y0024587D01*
X0502087Y0024533D01*
X0502138Y0024477D01*
X0502186Y0024418D01*
X0502231Y0024357D01*
X0502273Y0024293D01*
X0502312Y0024228D01*
X0502347Y0024161D01*
X0502378Y0024092D01*
X0502407Y0024021D01*
X0502431Y0023949D01*
X0502452Y0023876D01*
X0502469Y0023802D01*
X0502483Y0023727D01*
X0502492Y0023652D01*
X0502498Y0023576D01*
X0502500Y0023500D01*
X0502498Y0023424D01*
X0502492Y0023348D01*
X0502483Y0023273D01*
X0502469Y0023198D01*
X0502452Y0023124D01*
X0502431Y0023051D01*
X0502407Y0022979D01*
X0502378Y0022908D01*
X0502347Y0022839D01*
X0502312Y0022772D01*
X0502273Y0022707D01*
X0502231Y0022643D01*
X0502186Y0022582D01*
X0502138Y0022523D01*
X0502087Y0022467D01*
X0502033Y0022413D01*
X0501977Y0022362D01*
X0501918Y0022314D01*
X0501857Y0022269D01*
X0501793Y0022227D01*
X0501728Y0022188D01*
X0501661Y0022153D01*
X0501592Y0022122D01*
X0501521Y0022093D01*
X0501449Y0022069D01*
X0501376Y0022048D01*
X0501302Y0022031D01*
X0501227Y0022017D01*
X0501152Y0022008D01*
X0501076Y0022002D01*
X0501000Y0022000D01*
X0500924Y0022002D01*
X0500848Y0022008D01*
X0500773Y0022017D01*
X0500698Y0022031D01*
X0500624Y0022048D01*
X0500551Y0022069D01*
X0500479Y0022093D01*
X0500408Y0022122D01*
X0500339Y0022153D01*
X0500272Y0022188D01*
X0500207Y0022227D01*
X0500143Y0022269D01*
X0500082Y0022314D01*
X0500023Y0022362D01*
X0499967Y0022413D01*
X0499913Y0022467D01*
X0499862Y0022523D01*
X0499814Y0022582D01*
X0499769Y0022643D01*
X0499727Y0022707D01*
X0499688Y0022772D01*
X0499653Y0022839D01*
X0499622Y0022908D01*
X0499593Y0022979D01*
X0499569Y0023051D01*
X0499548Y0023124D01*
X0499531Y0023198D01*
X0499517Y0023273D01*
X0499508Y0023348D01*
X0499502Y0023424D01*
X0499500Y0023500D01*
M02*
