G75*
%MOIN*%
%OFA0B0*%
%FSLAX25Y25*%
%IPPOS*%
%LPD*%
%AMOC8*
5,1,8,0,0,1.08239X$1,22.5*
%
%ADD10C,0.00600*%
%ADD11R,0.09000X0.02500*%
%ADD12C,0.00500*%
%ADD13C,0.00800*%
%ADD14C,0.00700*%
%ADD15C,0.02000*%
%ADD16C,0.00300*%
%ADD17C,0.01000*%
D10*
X0151200Y0127500D02*
X0300800Y0127500D01*
X0300800Y0214500D01*
X0151200Y0214500D01*
X0151200Y0127500D01*
X0241200Y0109500D02*
X0241200Y0022500D01*
X0390800Y0022500D01*
X0390800Y0109500D01*
X0241200Y0109500D01*
X0334500Y0131000D02*
X0337500Y0131000D01*
X0336000Y0132500D02*
X0336000Y0129500D01*
X0341000Y0141500D02*
X0341000Y0142500D01*
X0336500Y0142500D01*
X0336500Y0145000D01*
X0345500Y0145000D01*
X0345500Y0142500D01*
X0341000Y0142500D01*
X0321000Y0146000D02*
X0321006Y0146491D01*
X0321024Y0146981D01*
X0321054Y0147471D01*
X0321096Y0147960D01*
X0321150Y0148448D01*
X0321216Y0148935D01*
X0321294Y0149419D01*
X0321384Y0149902D01*
X0321486Y0150382D01*
X0321599Y0150860D01*
X0321724Y0151334D01*
X0321861Y0151806D01*
X0322009Y0152274D01*
X0322169Y0152738D01*
X0322340Y0153198D01*
X0322522Y0153654D01*
X0322716Y0154105D01*
X0322920Y0154551D01*
X0323136Y0154992D01*
X0323362Y0155428D01*
X0323598Y0155858D01*
X0323845Y0156282D01*
X0324103Y0156700D01*
X0324371Y0157111D01*
X0324648Y0157516D01*
X0324936Y0157914D01*
X0325233Y0158305D01*
X0325540Y0158688D01*
X0325856Y0159063D01*
X0326181Y0159431D01*
X0326515Y0159791D01*
X0326858Y0160142D01*
X0327209Y0160485D01*
X0327569Y0160819D01*
X0327937Y0161144D01*
X0328312Y0161460D01*
X0328695Y0161767D01*
X0329086Y0162064D01*
X0329484Y0162352D01*
X0329889Y0162629D01*
X0330300Y0162897D01*
X0330718Y0163155D01*
X0331142Y0163402D01*
X0331572Y0163638D01*
X0332008Y0163864D01*
X0332449Y0164080D01*
X0332895Y0164284D01*
X0333346Y0164478D01*
X0333802Y0164660D01*
X0334262Y0164831D01*
X0334726Y0164991D01*
X0335194Y0165139D01*
X0335666Y0165276D01*
X0336140Y0165401D01*
X0336618Y0165514D01*
X0337098Y0165616D01*
X0337581Y0165706D01*
X0338065Y0165784D01*
X0338552Y0165850D01*
X0339040Y0165904D01*
X0339529Y0165946D01*
X0340019Y0165976D01*
X0340509Y0165994D01*
X0341000Y0166000D01*
X0341491Y0165994D01*
X0341981Y0165976D01*
X0342471Y0165946D01*
X0342960Y0165904D01*
X0343448Y0165850D01*
X0343935Y0165784D01*
X0344419Y0165706D01*
X0344902Y0165616D01*
X0345382Y0165514D01*
X0345860Y0165401D01*
X0346334Y0165276D01*
X0346806Y0165139D01*
X0347274Y0164991D01*
X0347738Y0164831D01*
X0348198Y0164660D01*
X0348654Y0164478D01*
X0349105Y0164284D01*
X0349551Y0164080D01*
X0349992Y0163864D01*
X0350428Y0163638D01*
X0350858Y0163402D01*
X0351282Y0163155D01*
X0351700Y0162897D01*
X0352111Y0162629D01*
X0352516Y0162352D01*
X0352914Y0162064D01*
X0353305Y0161767D01*
X0353688Y0161460D01*
X0354063Y0161144D01*
X0354431Y0160819D01*
X0354791Y0160485D01*
X0355142Y0160142D01*
X0355485Y0159791D01*
X0355819Y0159431D01*
X0356144Y0159063D01*
X0356460Y0158688D01*
X0356767Y0158305D01*
X0357064Y0157914D01*
X0357352Y0157516D01*
X0357629Y0157111D01*
X0357897Y0156700D01*
X0358155Y0156282D01*
X0358402Y0155858D01*
X0358638Y0155428D01*
X0358864Y0154992D01*
X0359080Y0154551D01*
X0359284Y0154105D01*
X0359478Y0153654D01*
X0359660Y0153198D01*
X0359831Y0152738D01*
X0359991Y0152274D01*
X0360139Y0151806D01*
X0360276Y0151334D01*
X0360401Y0150860D01*
X0360514Y0150382D01*
X0360616Y0149902D01*
X0360706Y0149419D01*
X0360784Y0148935D01*
X0360850Y0148448D01*
X0360904Y0147960D01*
X0360946Y0147471D01*
X0360976Y0146981D01*
X0360994Y0146491D01*
X0361000Y0146000D01*
X0360994Y0145509D01*
X0360976Y0145019D01*
X0360946Y0144529D01*
X0360904Y0144040D01*
X0360850Y0143552D01*
X0360784Y0143065D01*
X0360706Y0142581D01*
X0360616Y0142098D01*
X0360514Y0141618D01*
X0360401Y0141140D01*
X0360276Y0140666D01*
X0360139Y0140194D01*
X0359991Y0139726D01*
X0359831Y0139262D01*
X0359660Y0138802D01*
X0359478Y0138346D01*
X0359284Y0137895D01*
X0359080Y0137449D01*
X0358864Y0137008D01*
X0358638Y0136572D01*
X0358402Y0136142D01*
X0358155Y0135718D01*
X0357897Y0135300D01*
X0357629Y0134889D01*
X0357352Y0134484D01*
X0357064Y0134086D01*
X0356767Y0133695D01*
X0356460Y0133312D01*
X0356144Y0132937D01*
X0355819Y0132569D01*
X0355485Y0132209D01*
X0355142Y0131858D01*
X0354791Y0131515D01*
X0354431Y0131181D01*
X0354063Y0130856D01*
X0353688Y0130540D01*
X0353305Y0130233D01*
X0352914Y0129936D01*
X0352516Y0129648D01*
X0352111Y0129371D01*
X0351700Y0129103D01*
X0351282Y0128845D01*
X0350858Y0128598D01*
X0350428Y0128362D01*
X0349992Y0128136D01*
X0349551Y0127920D01*
X0349105Y0127716D01*
X0348654Y0127522D01*
X0348198Y0127340D01*
X0347738Y0127169D01*
X0347274Y0127009D01*
X0346806Y0126861D01*
X0346334Y0126724D01*
X0345860Y0126599D01*
X0345382Y0126486D01*
X0344902Y0126384D01*
X0344419Y0126294D01*
X0343935Y0126216D01*
X0343448Y0126150D01*
X0342960Y0126096D01*
X0342471Y0126054D01*
X0341981Y0126024D01*
X0341491Y0126006D01*
X0341000Y0126000D01*
X0340509Y0126006D01*
X0340019Y0126024D01*
X0339529Y0126054D01*
X0339040Y0126096D01*
X0338552Y0126150D01*
X0338065Y0126216D01*
X0337581Y0126294D01*
X0337098Y0126384D01*
X0336618Y0126486D01*
X0336140Y0126599D01*
X0335666Y0126724D01*
X0335194Y0126861D01*
X0334726Y0127009D01*
X0334262Y0127169D01*
X0333802Y0127340D01*
X0333346Y0127522D01*
X0332895Y0127716D01*
X0332449Y0127920D01*
X0332008Y0128136D01*
X0331572Y0128362D01*
X0331142Y0128598D01*
X0330718Y0128845D01*
X0330300Y0129103D01*
X0329889Y0129371D01*
X0329484Y0129648D01*
X0329086Y0129936D01*
X0328695Y0130233D01*
X0328312Y0130540D01*
X0327937Y0130856D01*
X0327569Y0131181D01*
X0327209Y0131515D01*
X0326858Y0131858D01*
X0326515Y0132209D01*
X0326181Y0132569D01*
X0325856Y0132937D01*
X0325540Y0133312D01*
X0325233Y0133695D01*
X0324936Y0134086D01*
X0324648Y0134484D01*
X0324371Y0134889D01*
X0324103Y0135300D01*
X0323845Y0135718D01*
X0323598Y0136142D01*
X0323362Y0136572D01*
X0323136Y0137008D01*
X0322920Y0137449D01*
X0322716Y0137895D01*
X0322522Y0138346D01*
X0322340Y0138802D01*
X0322169Y0139262D01*
X0322009Y0139726D01*
X0321861Y0140194D01*
X0321724Y0140666D01*
X0321599Y0141140D01*
X0321486Y0141618D01*
X0321384Y0142098D01*
X0321294Y0142581D01*
X0321216Y0143065D01*
X0321150Y0143552D01*
X0321096Y0144040D01*
X0321054Y0144529D01*
X0321024Y0145019D01*
X0321006Y0145509D01*
X0321000Y0146000D01*
X0341000Y0148500D02*
X0341000Y0150500D01*
X0370800Y0222500D02*
X0221200Y0222500D01*
X0221200Y0309500D01*
X0370800Y0309500D01*
X0370800Y0222500D01*
X0399500Y0241000D02*
X0402500Y0241000D01*
X0401000Y0242500D02*
X0401000Y0239500D01*
X0406000Y0251500D02*
X0406000Y0252500D01*
X0401500Y0252500D01*
X0401500Y0255000D01*
X0410500Y0255000D01*
X0410500Y0252500D01*
X0406000Y0252500D01*
X0386000Y0256000D02*
X0386006Y0256491D01*
X0386024Y0256981D01*
X0386054Y0257471D01*
X0386096Y0257960D01*
X0386150Y0258448D01*
X0386216Y0258935D01*
X0386294Y0259419D01*
X0386384Y0259902D01*
X0386486Y0260382D01*
X0386599Y0260860D01*
X0386724Y0261334D01*
X0386861Y0261806D01*
X0387009Y0262274D01*
X0387169Y0262738D01*
X0387340Y0263198D01*
X0387522Y0263654D01*
X0387716Y0264105D01*
X0387920Y0264551D01*
X0388136Y0264992D01*
X0388362Y0265428D01*
X0388598Y0265858D01*
X0388845Y0266282D01*
X0389103Y0266700D01*
X0389371Y0267111D01*
X0389648Y0267516D01*
X0389936Y0267914D01*
X0390233Y0268305D01*
X0390540Y0268688D01*
X0390856Y0269063D01*
X0391181Y0269431D01*
X0391515Y0269791D01*
X0391858Y0270142D01*
X0392209Y0270485D01*
X0392569Y0270819D01*
X0392937Y0271144D01*
X0393312Y0271460D01*
X0393695Y0271767D01*
X0394086Y0272064D01*
X0394484Y0272352D01*
X0394889Y0272629D01*
X0395300Y0272897D01*
X0395718Y0273155D01*
X0396142Y0273402D01*
X0396572Y0273638D01*
X0397008Y0273864D01*
X0397449Y0274080D01*
X0397895Y0274284D01*
X0398346Y0274478D01*
X0398802Y0274660D01*
X0399262Y0274831D01*
X0399726Y0274991D01*
X0400194Y0275139D01*
X0400666Y0275276D01*
X0401140Y0275401D01*
X0401618Y0275514D01*
X0402098Y0275616D01*
X0402581Y0275706D01*
X0403065Y0275784D01*
X0403552Y0275850D01*
X0404040Y0275904D01*
X0404529Y0275946D01*
X0405019Y0275976D01*
X0405509Y0275994D01*
X0406000Y0276000D01*
X0406491Y0275994D01*
X0406981Y0275976D01*
X0407471Y0275946D01*
X0407960Y0275904D01*
X0408448Y0275850D01*
X0408935Y0275784D01*
X0409419Y0275706D01*
X0409902Y0275616D01*
X0410382Y0275514D01*
X0410860Y0275401D01*
X0411334Y0275276D01*
X0411806Y0275139D01*
X0412274Y0274991D01*
X0412738Y0274831D01*
X0413198Y0274660D01*
X0413654Y0274478D01*
X0414105Y0274284D01*
X0414551Y0274080D01*
X0414992Y0273864D01*
X0415428Y0273638D01*
X0415858Y0273402D01*
X0416282Y0273155D01*
X0416700Y0272897D01*
X0417111Y0272629D01*
X0417516Y0272352D01*
X0417914Y0272064D01*
X0418305Y0271767D01*
X0418688Y0271460D01*
X0419063Y0271144D01*
X0419431Y0270819D01*
X0419791Y0270485D01*
X0420142Y0270142D01*
X0420485Y0269791D01*
X0420819Y0269431D01*
X0421144Y0269063D01*
X0421460Y0268688D01*
X0421767Y0268305D01*
X0422064Y0267914D01*
X0422352Y0267516D01*
X0422629Y0267111D01*
X0422897Y0266700D01*
X0423155Y0266282D01*
X0423402Y0265858D01*
X0423638Y0265428D01*
X0423864Y0264992D01*
X0424080Y0264551D01*
X0424284Y0264105D01*
X0424478Y0263654D01*
X0424660Y0263198D01*
X0424831Y0262738D01*
X0424991Y0262274D01*
X0425139Y0261806D01*
X0425276Y0261334D01*
X0425401Y0260860D01*
X0425514Y0260382D01*
X0425616Y0259902D01*
X0425706Y0259419D01*
X0425784Y0258935D01*
X0425850Y0258448D01*
X0425904Y0257960D01*
X0425946Y0257471D01*
X0425976Y0256981D01*
X0425994Y0256491D01*
X0426000Y0256000D01*
X0425994Y0255509D01*
X0425976Y0255019D01*
X0425946Y0254529D01*
X0425904Y0254040D01*
X0425850Y0253552D01*
X0425784Y0253065D01*
X0425706Y0252581D01*
X0425616Y0252098D01*
X0425514Y0251618D01*
X0425401Y0251140D01*
X0425276Y0250666D01*
X0425139Y0250194D01*
X0424991Y0249726D01*
X0424831Y0249262D01*
X0424660Y0248802D01*
X0424478Y0248346D01*
X0424284Y0247895D01*
X0424080Y0247449D01*
X0423864Y0247008D01*
X0423638Y0246572D01*
X0423402Y0246142D01*
X0423155Y0245718D01*
X0422897Y0245300D01*
X0422629Y0244889D01*
X0422352Y0244484D01*
X0422064Y0244086D01*
X0421767Y0243695D01*
X0421460Y0243312D01*
X0421144Y0242937D01*
X0420819Y0242569D01*
X0420485Y0242209D01*
X0420142Y0241858D01*
X0419791Y0241515D01*
X0419431Y0241181D01*
X0419063Y0240856D01*
X0418688Y0240540D01*
X0418305Y0240233D01*
X0417914Y0239936D01*
X0417516Y0239648D01*
X0417111Y0239371D01*
X0416700Y0239103D01*
X0416282Y0238845D01*
X0415858Y0238598D01*
X0415428Y0238362D01*
X0414992Y0238136D01*
X0414551Y0237920D01*
X0414105Y0237716D01*
X0413654Y0237522D01*
X0413198Y0237340D01*
X0412738Y0237169D01*
X0412274Y0237009D01*
X0411806Y0236861D01*
X0411334Y0236724D01*
X0410860Y0236599D01*
X0410382Y0236486D01*
X0409902Y0236384D01*
X0409419Y0236294D01*
X0408935Y0236216D01*
X0408448Y0236150D01*
X0407960Y0236096D01*
X0407471Y0236054D01*
X0406981Y0236024D01*
X0406491Y0236006D01*
X0406000Y0236000D01*
X0405509Y0236006D01*
X0405019Y0236024D01*
X0404529Y0236054D01*
X0404040Y0236096D01*
X0403552Y0236150D01*
X0403065Y0236216D01*
X0402581Y0236294D01*
X0402098Y0236384D01*
X0401618Y0236486D01*
X0401140Y0236599D01*
X0400666Y0236724D01*
X0400194Y0236861D01*
X0399726Y0237009D01*
X0399262Y0237169D01*
X0398802Y0237340D01*
X0398346Y0237522D01*
X0397895Y0237716D01*
X0397449Y0237920D01*
X0397008Y0238136D01*
X0396572Y0238362D01*
X0396142Y0238598D01*
X0395718Y0238845D01*
X0395300Y0239103D01*
X0394889Y0239371D01*
X0394484Y0239648D01*
X0394086Y0239936D01*
X0393695Y0240233D01*
X0393312Y0240540D01*
X0392937Y0240856D01*
X0392569Y0241181D01*
X0392209Y0241515D01*
X0391858Y0241858D01*
X0391515Y0242209D01*
X0391181Y0242569D01*
X0390856Y0242937D01*
X0390540Y0243312D01*
X0390233Y0243695D01*
X0389936Y0244086D01*
X0389648Y0244484D01*
X0389371Y0244889D01*
X0389103Y0245300D01*
X0388845Y0245718D01*
X0388598Y0246142D01*
X0388362Y0246572D01*
X0388136Y0247008D01*
X0387920Y0247449D01*
X0387716Y0247895D01*
X0387522Y0248346D01*
X0387340Y0248802D01*
X0387169Y0249262D01*
X0387009Y0249726D01*
X0386861Y0250194D01*
X0386724Y0250666D01*
X0386599Y0251140D01*
X0386486Y0251618D01*
X0386384Y0252098D01*
X0386294Y0252581D01*
X0386216Y0253065D01*
X0386150Y0253552D01*
X0386096Y0254040D01*
X0386054Y0254529D01*
X0386024Y0255019D01*
X0386006Y0255509D01*
X0386000Y0256000D01*
X0406000Y0258500D02*
X0406000Y0260500D01*
X0431000Y0045500D02*
X0431000Y0043500D01*
X0411000Y0041000D02*
X0411006Y0041491D01*
X0411024Y0041981D01*
X0411054Y0042471D01*
X0411096Y0042960D01*
X0411150Y0043448D01*
X0411216Y0043935D01*
X0411294Y0044419D01*
X0411384Y0044902D01*
X0411486Y0045382D01*
X0411599Y0045860D01*
X0411724Y0046334D01*
X0411861Y0046806D01*
X0412009Y0047274D01*
X0412169Y0047738D01*
X0412340Y0048198D01*
X0412522Y0048654D01*
X0412716Y0049105D01*
X0412920Y0049551D01*
X0413136Y0049992D01*
X0413362Y0050428D01*
X0413598Y0050858D01*
X0413845Y0051282D01*
X0414103Y0051700D01*
X0414371Y0052111D01*
X0414648Y0052516D01*
X0414936Y0052914D01*
X0415233Y0053305D01*
X0415540Y0053688D01*
X0415856Y0054063D01*
X0416181Y0054431D01*
X0416515Y0054791D01*
X0416858Y0055142D01*
X0417209Y0055485D01*
X0417569Y0055819D01*
X0417937Y0056144D01*
X0418312Y0056460D01*
X0418695Y0056767D01*
X0419086Y0057064D01*
X0419484Y0057352D01*
X0419889Y0057629D01*
X0420300Y0057897D01*
X0420718Y0058155D01*
X0421142Y0058402D01*
X0421572Y0058638D01*
X0422008Y0058864D01*
X0422449Y0059080D01*
X0422895Y0059284D01*
X0423346Y0059478D01*
X0423802Y0059660D01*
X0424262Y0059831D01*
X0424726Y0059991D01*
X0425194Y0060139D01*
X0425666Y0060276D01*
X0426140Y0060401D01*
X0426618Y0060514D01*
X0427098Y0060616D01*
X0427581Y0060706D01*
X0428065Y0060784D01*
X0428552Y0060850D01*
X0429040Y0060904D01*
X0429529Y0060946D01*
X0430019Y0060976D01*
X0430509Y0060994D01*
X0431000Y0061000D01*
X0431491Y0060994D01*
X0431981Y0060976D01*
X0432471Y0060946D01*
X0432960Y0060904D01*
X0433448Y0060850D01*
X0433935Y0060784D01*
X0434419Y0060706D01*
X0434902Y0060616D01*
X0435382Y0060514D01*
X0435860Y0060401D01*
X0436334Y0060276D01*
X0436806Y0060139D01*
X0437274Y0059991D01*
X0437738Y0059831D01*
X0438198Y0059660D01*
X0438654Y0059478D01*
X0439105Y0059284D01*
X0439551Y0059080D01*
X0439992Y0058864D01*
X0440428Y0058638D01*
X0440858Y0058402D01*
X0441282Y0058155D01*
X0441700Y0057897D01*
X0442111Y0057629D01*
X0442516Y0057352D01*
X0442914Y0057064D01*
X0443305Y0056767D01*
X0443688Y0056460D01*
X0444063Y0056144D01*
X0444431Y0055819D01*
X0444791Y0055485D01*
X0445142Y0055142D01*
X0445485Y0054791D01*
X0445819Y0054431D01*
X0446144Y0054063D01*
X0446460Y0053688D01*
X0446767Y0053305D01*
X0447064Y0052914D01*
X0447352Y0052516D01*
X0447629Y0052111D01*
X0447897Y0051700D01*
X0448155Y0051282D01*
X0448402Y0050858D01*
X0448638Y0050428D01*
X0448864Y0049992D01*
X0449080Y0049551D01*
X0449284Y0049105D01*
X0449478Y0048654D01*
X0449660Y0048198D01*
X0449831Y0047738D01*
X0449991Y0047274D01*
X0450139Y0046806D01*
X0450276Y0046334D01*
X0450401Y0045860D01*
X0450514Y0045382D01*
X0450616Y0044902D01*
X0450706Y0044419D01*
X0450784Y0043935D01*
X0450850Y0043448D01*
X0450904Y0042960D01*
X0450946Y0042471D01*
X0450976Y0041981D01*
X0450994Y0041491D01*
X0451000Y0041000D01*
X0450994Y0040509D01*
X0450976Y0040019D01*
X0450946Y0039529D01*
X0450904Y0039040D01*
X0450850Y0038552D01*
X0450784Y0038065D01*
X0450706Y0037581D01*
X0450616Y0037098D01*
X0450514Y0036618D01*
X0450401Y0036140D01*
X0450276Y0035666D01*
X0450139Y0035194D01*
X0449991Y0034726D01*
X0449831Y0034262D01*
X0449660Y0033802D01*
X0449478Y0033346D01*
X0449284Y0032895D01*
X0449080Y0032449D01*
X0448864Y0032008D01*
X0448638Y0031572D01*
X0448402Y0031142D01*
X0448155Y0030718D01*
X0447897Y0030300D01*
X0447629Y0029889D01*
X0447352Y0029484D01*
X0447064Y0029086D01*
X0446767Y0028695D01*
X0446460Y0028312D01*
X0446144Y0027937D01*
X0445819Y0027569D01*
X0445485Y0027209D01*
X0445142Y0026858D01*
X0444791Y0026515D01*
X0444431Y0026181D01*
X0444063Y0025856D01*
X0443688Y0025540D01*
X0443305Y0025233D01*
X0442914Y0024936D01*
X0442516Y0024648D01*
X0442111Y0024371D01*
X0441700Y0024103D01*
X0441282Y0023845D01*
X0440858Y0023598D01*
X0440428Y0023362D01*
X0439992Y0023136D01*
X0439551Y0022920D01*
X0439105Y0022716D01*
X0438654Y0022522D01*
X0438198Y0022340D01*
X0437738Y0022169D01*
X0437274Y0022009D01*
X0436806Y0021861D01*
X0436334Y0021724D01*
X0435860Y0021599D01*
X0435382Y0021486D01*
X0434902Y0021384D01*
X0434419Y0021294D01*
X0433935Y0021216D01*
X0433448Y0021150D01*
X0432960Y0021096D01*
X0432471Y0021054D01*
X0431981Y0021024D01*
X0431491Y0021006D01*
X0431000Y0021000D01*
X0430509Y0021006D01*
X0430019Y0021024D01*
X0429529Y0021054D01*
X0429040Y0021096D01*
X0428552Y0021150D01*
X0428065Y0021216D01*
X0427581Y0021294D01*
X0427098Y0021384D01*
X0426618Y0021486D01*
X0426140Y0021599D01*
X0425666Y0021724D01*
X0425194Y0021861D01*
X0424726Y0022009D01*
X0424262Y0022169D01*
X0423802Y0022340D01*
X0423346Y0022522D01*
X0422895Y0022716D01*
X0422449Y0022920D01*
X0422008Y0023136D01*
X0421572Y0023362D01*
X0421142Y0023598D01*
X0420718Y0023845D01*
X0420300Y0024103D01*
X0419889Y0024371D01*
X0419484Y0024648D01*
X0419086Y0024936D01*
X0418695Y0025233D01*
X0418312Y0025540D01*
X0417937Y0025856D01*
X0417569Y0026181D01*
X0417209Y0026515D01*
X0416858Y0026858D01*
X0416515Y0027209D01*
X0416181Y0027569D01*
X0415856Y0027937D01*
X0415540Y0028312D01*
X0415233Y0028695D01*
X0414936Y0029086D01*
X0414648Y0029484D01*
X0414371Y0029889D01*
X0414103Y0030300D01*
X0413845Y0030718D01*
X0413598Y0031142D01*
X0413362Y0031572D01*
X0413136Y0032008D01*
X0412920Y0032449D01*
X0412716Y0032895D01*
X0412522Y0033346D01*
X0412340Y0033802D01*
X0412169Y0034262D01*
X0412009Y0034726D01*
X0411861Y0035194D01*
X0411724Y0035666D01*
X0411599Y0036140D01*
X0411486Y0036618D01*
X0411384Y0037098D01*
X0411294Y0037581D01*
X0411216Y0038065D01*
X0411150Y0038552D01*
X0411096Y0039040D01*
X0411054Y0039529D01*
X0411024Y0040019D01*
X0411006Y0040509D01*
X0411000Y0041000D01*
X0426500Y0040000D02*
X0426500Y0037500D01*
X0431000Y0037500D01*
X0435500Y0037500D01*
X0435500Y0040000D01*
X0426500Y0040000D01*
X0431000Y0037500D02*
X0431000Y0036500D01*
X0426000Y0027500D02*
X0426000Y0024500D01*
X0424500Y0026000D02*
X0427500Y0026000D01*
X0459600Y0017700D02*
X0459600Y0044300D01*
X0482400Y0044300D01*
X0482400Y0017700D01*
X0459600Y0017700D01*
X0494600Y0017700D02*
X0494600Y0044300D01*
X0517400Y0044300D01*
X0517400Y0017700D01*
X0494600Y0017700D01*
D11*
X0431000Y0043250D03*
X0341000Y0148250D03*
X0406000Y0258250D03*
D12*
X0106390Y0051000D02*
X0106392Y0051135D01*
X0106398Y0051271D01*
X0106408Y0051406D01*
X0106422Y0051540D01*
X0106440Y0051674D01*
X0106461Y0051808D01*
X0106487Y0051941D01*
X0106517Y0052073D01*
X0106550Y0052204D01*
X0106587Y0052334D01*
X0106628Y0052463D01*
X0106673Y0052591D01*
X0106722Y0052717D01*
X0106774Y0052842D01*
X0106830Y0052965D01*
X0106889Y0053087D01*
X0106952Y0053207D01*
X0107019Y0053325D01*
X0107089Y0053440D01*
X0107162Y0053554D01*
X0107239Y0053666D01*
X0107319Y0053775D01*
X0107402Y0053882D01*
X0107488Y0053986D01*
X0107577Y0054088D01*
X0107669Y0054187D01*
X0107764Y0054284D01*
X0107862Y0054377D01*
X0107963Y0054468D01*
X0108066Y0054556D01*
X0108171Y0054640D01*
X0108279Y0054722D01*
X0108390Y0054800D01*
X0108502Y0054875D01*
X0108617Y0054946D01*
X0108734Y0055015D01*
X0108853Y0055080D01*
X0108974Y0055141D01*
X0109096Y0055199D01*
X0109220Y0055253D01*
X0109346Y0055303D01*
X0109473Y0055350D01*
X0109601Y0055393D01*
X0109731Y0055432D01*
X0109861Y0055467D01*
X0109993Y0055499D01*
X0110126Y0055526D01*
X0110259Y0055550D01*
X0110393Y0055570D01*
X0110527Y0055586D01*
X0110662Y0055598D01*
X0110797Y0055606D01*
X0110932Y0055610D01*
X0111068Y0055610D01*
X0111203Y0055606D01*
X0111338Y0055598D01*
X0111473Y0055586D01*
X0111607Y0055570D01*
X0111741Y0055550D01*
X0111874Y0055526D01*
X0112007Y0055499D01*
X0112139Y0055467D01*
X0112269Y0055432D01*
X0112399Y0055393D01*
X0112527Y0055350D01*
X0112654Y0055303D01*
X0112780Y0055253D01*
X0112904Y0055199D01*
X0113026Y0055141D01*
X0113147Y0055080D01*
X0113266Y0055015D01*
X0113383Y0054946D01*
X0113498Y0054875D01*
X0113610Y0054800D01*
X0113721Y0054722D01*
X0113829Y0054640D01*
X0113934Y0054556D01*
X0114037Y0054468D01*
X0114138Y0054377D01*
X0114236Y0054284D01*
X0114331Y0054187D01*
X0114423Y0054088D01*
X0114512Y0053986D01*
X0114598Y0053882D01*
X0114681Y0053775D01*
X0114761Y0053666D01*
X0114838Y0053554D01*
X0114911Y0053440D01*
X0114981Y0053325D01*
X0115048Y0053207D01*
X0115111Y0053087D01*
X0115170Y0052965D01*
X0115226Y0052842D01*
X0115278Y0052717D01*
X0115327Y0052591D01*
X0115372Y0052463D01*
X0115413Y0052334D01*
X0115450Y0052204D01*
X0115483Y0052073D01*
X0115513Y0051941D01*
X0115539Y0051808D01*
X0115560Y0051674D01*
X0115578Y0051540D01*
X0115592Y0051406D01*
X0115602Y0051271D01*
X0115608Y0051135D01*
X0115610Y0051000D01*
X0115608Y0050865D01*
X0115602Y0050729D01*
X0115592Y0050594D01*
X0115578Y0050460D01*
X0115560Y0050326D01*
X0115539Y0050192D01*
X0115513Y0050059D01*
X0115483Y0049927D01*
X0115450Y0049796D01*
X0115413Y0049666D01*
X0115372Y0049537D01*
X0115327Y0049409D01*
X0115278Y0049283D01*
X0115226Y0049158D01*
X0115170Y0049035D01*
X0115111Y0048913D01*
X0115048Y0048793D01*
X0114981Y0048675D01*
X0114911Y0048560D01*
X0114838Y0048446D01*
X0114761Y0048334D01*
X0114681Y0048225D01*
X0114598Y0048118D01*
X0114512Y0048014D01*
X0114423Y0047912D01*
X0114331Y0047813D01*
X0114236Y0047716D01*
X0114138Y0047623D01*
X0114037Y0047532D01*
X0113934Y0047444D01*
X0113829Y0047360D01*
X0113721Y0047278D01*
X0113610Y0047200D01*
X0113498Y0047125D01*
X0113383Y0047054D01*
X0113266Y0046985D01*
X0113147Y0046920D01*
X0113026Y0046859D01*
X0112904Y0046801D01*
X0112780Y0046747D01*
X0112654Y0046697D01*
X0112527Y0046650D01*
X0112399Y0046607D01*
X0112269Y0046568D01*
X0112139Y0046533D01*
X0112007Y0046501D01*
X0111874Y0046474D01*
X0111741Y0046450D01*
X0111607Y0046430D01*
X0111473Y0046414D01*
X0111338Y0046402D01*
X0111203Y0046394D01*
X0111068Y0046390D01*
X0110932Y0046390D01*
X0110797Y0046394D01*
X0110662Y0046402D01*
X0110527Y0046414D01*
X0110393Y0046430D01*
X0110259Y0046450D01*
X0110126Y0046474D01*
X0109993Y0046501D01*
X0109861Y0046533D01*
X0109731Y0046568D01*
X0109601Y0046607D01*
X0109473Y0046650D01*
X0109346Y0046697D01*
X0109220Y0046747D01*
X0109096Y0046801D01*
X0108974Y0046859D01*
X0108853Y0046920D01*
X0108734Y0046985D01*
X0108617Y0047054D01*
X0108502Y0047125D01*
X0108390Y0047200D01*
X0108279Y0047278D01*
X0108171Y0047360D01*
X0108066Y0047444D01*
X0107963Y0047532D01*
X0107862Y0047623D01*
X0107764Y0047716D01*
X0107669Y0047813D01*
X0107577Y0047912D01*
X0107488Y0048014D01*
X0107402Y0048118D01*
X0107319Y0048225D01*
X0107239Y0048334D01*
X0107162Y0048446D01*
X0107089Y0048560D01*
X0107019Y0048675D01*
X0106952Y0048793D01*
X0106889Y0048913D01*
X0106830Y0049035D01*
X0106774Y0049158D01*
X0106722Y0049283D01*
X0106673Y0049409D01*
X0106628Y0049537D01*
X0106587Y0049666D01*
X0106550Y0049796D01*
X0106517Y0049927D01*
X0106487Y0050059D01*
X0106461Y0050192D01*
X0106440Y0050326D01*
X0106422Y0050460D01*
X0106408Y0050594D01*
X0106398Y0050729D01*
X0106392Y0050865D01*
X0106390Y0051000D01*
X0161390Y0021000D02*
X0161392Y0021135D01*
X0161398Y0021271D01*
X0161408Y0021406D01*
X0161422Y0021540D01*
X0161440Y0021674D01*
X0161461Y0021808D01*
X0161487Y0021941D01*
X0161517Y0022073D01*
X0161550Y0022204D01*
X0161587Y0022334D01*
X0161628Y0022463D01*
X0161673Y0022591D01*
X0161722Y0022717D01*
X0161774Y0022842D01*
X0161830Y0022965D01*
X0161889Y0023087D01*
X0161952Y0023207D01*
X0162019Y0023325D01*
X0162089Y0023440D01*
X0162162Y0023554D01*
X0162239Y0023666D01*
X0162319Y0023775D01*
X0162402Y0023882D01*
X0162488Y0023986D01*
X0162577Y0024088D01*
X0162669Y0024187D01*
X0162764Y0024284D01*
X0162862Y0024377D01*
X0162963Y0024468D01*
X0163066Y0024556D01*
X0163171Y0024640D01*
X0163279Y0024722D01*
X0163390Y0024800D01*
X0163502Y0024875D01*
X0163617Y0024946D01*
X0163734Y0025015D01*
X0163853Y0025080D01*
X0163974Y0025141D01*
X0164096Y0025199D01*
X0164220Y0025253D01*
X0164346Y0025303D01*
X0164473Y0025350D01*
X0164601Y0025393D01*
X0164731Y0025432D01*
X0164861Y0025467D01*
X0164993Y0025499D01*
X0165126Y0025526D01*
X0165259Y0025550D01*
X0165393Y0025570D01*
X0165527Y0025586D01*
X0165662Y0025598D01*
X0165797Y0025606D01*
X0165932Y0025610D01*
X0166068Y0025610D01*
X0166203Y0025606D01*
X0166338Y0025598D01*
X0166473Y0025586D01*
X0166607Y0025570D01*
X0166741Y0025550D01*
X0166874Y0025526D01*
X0167007Y0025499D01*
X0167139Y0025467D01*
X0167269Y0025432D01*
X0167399Y0025393D01*
X0167527Y0025350D01*
X0167654Y0025303D01*
X0167780Y0025253D01*
X0167904Y0025199D01*
X0168026Y0025141D01*
X0168147Y0025080D01*
X0168266Y0025015D01*
X0168383Y0024946D01*
X0168498Y0024875D01*
X0168610Y0024800D01*
X0168721Y0024722D01*
X0168829Y0024640D01*
X0168934Y0024556D01*
X0169037Y0024468D01*
X0169138Y0024377D01*
X0169236Y0024284D01*
X0169331Y0024187D01*
X0169423Y0024088D01*
X0169512Y0023986D01*
X0169598Y0023882D01*
X0169681Y0023775D01*
X0169761Y0023666D01*
X0169838Y0023554D01*
X0169911Y0023440D01*
X0169981Y0023325D01*
X0170048Y0023207D01*
X0170111Y0023087D01*
X0170170Y0022965D01*
X0170226Y0022842D01*
X0170278Y0022717D01*
X0170327Y0022591D01*
X0170372Y0022463D01*
X0170413Y0022334D01*
X0170450Y0022204D01*
X0170483Y0022073D01*
X0170513Y0021941D01*
X0170539Y0021808D01*
X0170560Y0021674D01*
X0170578Y0021540D01*
X0170592Y0021406D01*
X0170602Y0021271D01*
X0170608Y0021135D01*
X0170610Y0021000D01*
X0170608Y0020865D01*
X0170602Y0020729D01*
X0170592Y0020594D01*
X0170578Y0020460D01*
X0170560Y0020326D01*
X0170539Y0020192D01*
X0170513Y0020059D01*
X0170483Y0019927D01*
X0170450Y0019796D01*
X0170413Y0019666D01*
X0170372Y0019537D01*
X0170327Y0019409D01*
X0170278Y0019283D01*
X0170226Y0019158D01*
X0170170Y0019035D01*
X0170111Y0018913D01*
X0170048Y0018793D01*
X0169981Y0018675D01*
X0169911Y0018560D01*
X0169838Y0018446D01*
X0169761Y0018334D01*
X0169681Y0018225D01*
X0169598Y0018118D01*
X0169512Y0018014D01*
X0169423Y0017912D01*
X0169331Y0017813D01*
X0169236Y0017716D01*
X0169138Y0017623D01*
X0169037Y0017532D01*
X0168934Y0017444D01*
X0168829Y0017360D01*
X0168721Y0017278D01*
X0168610Y0017200D01*
X0168498Y0017125D01*
X0168383Y0017054D01*
X0168266Y0016985D01*
X0168147Y0016920D01*
X0168026Y0016859D01*
X0167904Y0016801D01*
X0167780Y0016747D01*
X0167654Y0016697D01*
X0167527Y0016650D01*
X0167399Y0016607D01*
X0167269Y0016568D01*
X0167139Y0016533D01*
X0167007Y0016501D01*
X0166874Y0016474D01*
X0166741Y0016450D01*
X0166607Y0016430D01*
X0166473Y0016414D01*
X0166338Y0016402D01*
X0166203Y0016394D01*
X0166068Y0016390D01*
X0165932Y0016390D01*
X0165797Y0016394D01*
X0165662Y0016402D01*
X0165527Y0016414D01*
X0165393Y0016430D01*
X0165259Y0016450D01*
X0165126Y0016474D01*
X0164993Y0016501D01*
X0164861Y0016533D01*
X0164731Y0016568D01*
X0164601Y0016607D01*
X0164473Y0016650D01*
X0164346Y0016697D01*
X0164220Y0016747D01*
X0164096Y0016801D01*
X0163974Y0016859D01*
X0163853Y0016920D01*
X0163734Y0016985D01*
X0163617Y0017054D01*
X0163502Y0017125D01*
X0163390Y0017200D01*
X0163279Y0017278D01*
X0163171Y0017360D01*
X0163066Y0017444D01*
X0162963Y0017532D01*
X0162862Y0017623D01*
X0162764Y0017716D01*
X0162669Y0017813D01*
X0162577Y0017912D01*
X0162488Y0018014D01*
X0162402Y0018118D01*
X0162319Y0018225D01*
X0162239Y0018334D01*
X0162162Y0018446D01*
X0162089Y0018560D01*
X0162019Y0018675D01*
X0161952Y0018793D01*
X0161889Y0018913D01*
X0161830Y0019035D01*
X0161774Y0019158D01*
X0161722Y0019283D01*
X0161673Y0019409D01*
X0161628Y0019537D01*
X0161587Y0019666D01*
X0161550Y0019796D01*
X0161517Y0019927D01*
X0161487Y0020059D01*
X0161461Y0020192D01*
X0161440Y0020326D01*
X0161422Y0020460D01*
X0161408Y0020594D01*
X0161398Y0020729D01*
X0161392Y0020865D01*
X0161390Y0021000D01*
X0106390Y0121000D02*
X0106392Y0121135D01*
X0106398Y0121271D01*
X0106408Y0121406D01*
X0106422Y0121540D01*
X0106440Y0121674D01*
X0106461Y0121808D01*
X0106487Y0121941D01*
X0106517Y0122073D01*
X0106550Y0122204D01*
X0106587Y0122334D01*
X0106628Y0122463D01*
X0106673Y0122591D01*
X0106722Y0122717D01*
X0106774Y0122842D01*
X0106830Y0122965D01*
X0106889Y0123087D01*
X0106952Y0123207D01*
X0107019Y0123325D01*
X0107089Y0123440D01*
X0107162Y0123554D01*
X0107239Y0123666D01*
X0107319Y0123775D01*
X0107402Y0123882D01*
X0107488Y0123986D01*
X0107577Y0124088D01*
X0107669Y0124187D01*
X0107764Y0124284D01*
X0107862Y0124377D01*
X0107963Y0124468D01*
X0108066Y0124556D01*
X0108171Y0124640D01*
X0108279Y0124722D01*
X0108390Y0124800D01*
X0108502Y0124875D01*
X0108617Y0124946D01*
X0108734Y0125015D01*
X0108853Y0125080D01*
X0108974Y0125141D01*
X0109096Y0125199D01*
X0109220Y0125253D01*
X0109346Y0125303D01*
X0109473Y0125350D01*
X0109601Y0125393D01*
X0109731Y0125432D01*
X0109861Y0125467D01*
X0109993Y0125499D01*
X0110126Y0125526D01*
X0110259Y0125550D01*
X0110393Y0125570D01*
X0110527Y0125586D01*
X0110662Y0125598D01*
X0110797Y0125606D01*
X0110932Y0125610D01*
X0111068Y0125610D01*
X0111203Y0125606D01*
X0111338Y0125598D01*
X0111473Y0125586D01*
X0111607Y0125570D01*
X0111741Y0125550D01*
X0111874Y0125526D01*
X0112007Y0125499D01*
X0112139Y0125467D01*
X0112269Y0125432D01*
X0112399Y0125393D01*
X0112527Y0125350D01*
X0112654Y0125303D01*
X0112780Y0125253D01*
X0112904Y0125199D01*
X0113026Y0125141D01*
X0113147Y0125080D01*
X0113266Y0125015D01*
X0113383Y0124946D01*
X0113498Y0124875D01*
X0113610Y0124800D01*
X0113721Y0124722D01*
X0113829Y0124640D01*
X0113934Y0124556D01*
X0114037Y0124468D01*
X0114138Y0124377D01*
X0114236Y0124284D01*
X0114331Y0124187D01*
X0114423Y0124088D01*
X0114512Y0123986D01*
X0114598Y0123882D01*
X0114681Y0123775D01*
X0114761Y0123666D01*
X0114838Y0123554D01*
X0114911Y0123440D01*
X0114981Y0123325D01*
X0115048Y0123207D01*
X0115111Y0123087D01*
X0115170Y0122965D01*
X0115226Y0122842D01*
X0115278Y0122717D01*
X0115327Y0122591D01*
X0115372Y0122463D01*
X0115413Y0122334D01*
X0115450Y0122204D01*
X0115483Y0122073D01*
X0115513Y0121941D01*
X0115539Y0121808D01*
X0115560Y0121674D01*
X0115578Y0121540D01*
X0115592Y0121406D01*
X0115602Y0121271D01*
X0115608Y0121135D01*
X0115610Y0121000D01*
X0115608Y0120865D01*
X0115602Y0120729D01*
X0115592Y0120594D01*
X0115578Y0120460D01*
X0115560Y0120326D01*
X0115539Y0120192D01*
X0115513Y0120059D01*
X0115483Y0119927D01*
X0115450Y0119796D01*
X0115413Y0119666D01*
X0115372Y0119537D01*
X0115327Y0119409D01*
X0115278Y0119283D01*
X0115226Y0119158D01*
X0115170Y0119035D01*
X0115111Y0118913D01*
X0115048Y0118793D01*
X0114981Y0118675D01*
X0114911Y0118560D01*
X0114838Y0118446D01*
X0114761Y0118334D01*
X0114681Y0118225D01*
X0114598Y0118118D01*
X0114512Y0118014D01*
X0114423Y0117912D01*
X0114331Y0117813D01*
X0114236Y0117716D01*
X0114138Y0117623D01*
X0114037Y0117532D01*
X0113934Y0117444D01*
X0113829Y0117360D01*
X0113721Y0117278D01*
X0113610Y0117200D01*
X0113498Y0117125D01*
X0113383Y0117054D01*
X0113266Y0116985D01*
X0113147Y0116920D01*
X0113026Y0116859D01*
X0112904Y0116801D01*
X0112780Y0116747D01*
X0112654Y0116697D01*
X0112527Y0116650D01*
X0112399Y0116607D01*
X0112269Y0116568D01*
X0112139Y0116533D01*
X0112007Y0116501D01*
X0111874Y0116474D01*
X0111741Y0116450D01*
X0111607Y0116430D01*
X0111473Y0116414D01*
X0111338Y0116402D01*
X0111203Y0116394D01*
X0111068Y0116390D01*
X0110932Y0116390D01*
X0110797Y0116394D01*
X0110662Y0116402D01*
X0110527Y0116414D01*
X0110393Y0116430D01*
X0110259Y0116450D01*
X0110126Y0116474D01*
X0109993Y0116501D01*
X0109861Y0116533D01*
X0109731Y0116568D01*
X0109601Y0116607D01*
X0109473Y0116650D01*
X0109346Y0116697D01*
X0109220Y0116747D01*
X0109096Y0116801D01*
X0108974Y0116859D01*
X0108853Y0116920D01*
X0108734Y0116985D01*
X0108617Y0117054D01*
X0108502Y0117125D01*
X0108390Y0117200D01*
X0108279Y0117278D01*
X0108171Y0117360D01*
X0108066Y0117444D01*
X0107963Y0117532D01*
X0107862Y0117623D01*
X0107764Y0117716D01*
X0107669Y0117813D01*
X0107577Y0117912D01*
X0107488Y0118014D01*
X0107402Y0118118D01*
X0107319Y0118225D01*
X0107239Y0118334D01*
X0107162Y0118446D01*
X0107089Y0118560D01*
X0107019Y0118675D01*
X0106952Y0118793D01*
X0106889Y0118913D01*
X0106830Y0119035D01*
X0106774Y0119158D01*
X0106722Y0119283D01*
X0106673Y0119409D01*
X0106628Y0119537D01*
X0106587Y0119666D01*
X0106550Y0119796D01*
X0106517Y0119927D01*
X0106487Y0120059D01*
X0106461Y0120192D01*
X0106440Y0120326D01*
X0106422Y0120460D01*
X0106408Y0120594D01*
X0106398Y0120729D01*
X0106392Y0120865D01*
X0106390Y0121000D01*
X0110213Y0168874D02*
X0110213Y0253126D01*
X0011787Y0253126D01*
X0011787Y0168874D01*
X0110213Y0168874D01*
X0012394Y0211000D02*
X0012396Y0211120D01*
X0012402Y0211240D01*
X0012412Y0211359D01*
X0012426Y0211478D01*
X0012444Y0211597D01*
X0012465Y0211715D01*
X0012491Y0211832D01*
X0012521Y0211948D01*
X0012554Y0212063D01*
X0012591Y0212177D01*
X0012632Y0212289D01*
X0012677Y0212401D01*
X0012726Y0212510D01*
X0012778Y0212618D01*
X0012833Y0212725D01*
X0012892Y0212829D01*
X0012955Y0212931D01*
X0013021Y0213031D01*
X0013090Y0213129D01*
X0013162Y0213225D01*
X0013238Y0213318D01*
X0013316Y0213408D01*
X0013398Y0213496D01*
X0013482Y0213581D01*
X0013569Y0213664D01*
X0013659Y0213743D01*
X0013752Y0213819D01*
X0013847Y0213892D01*
X0013944Y0213962D01*
X0014044Y0214029D01*
X0014145Y0214092D01*
X0014249Y0214152D01*
X0014355Y0214209D01*
X0014462Y0214262D01*
X0014572Y0214311D01*
X0014683Y0214357D01*
X0014795Y0214399D01*
X0014909Y0214437D01*
X0015023Y0214471D01*
X0015139Y0214502D01*
X0015256Y0214528D01*
X0015374Y0214551D01*
X0015492Y0214570D01*
X0015611Y0214585D01*
X0015731Y0214596D01*
X0015850Y0214603D01*
X0015970Y0214606D01*
X0016090Y0214605D01*
X0016210Y0214600D01*
X0016329Y0214591D01*
X0016448Y0214578D01*
X0016567Y0214561D01*
X0016685Y0214540D01*
X0016802Y0214516D01*
X0016919Y0214487D01*
X0017034Y0214455D01*
X0017148Y0214418D01*
X0017261Y0214378D01*
X0017373Y0214334D01*
X0017483Y0214287D01*
X0017592Y0214236D01*
X0017698Y0214181D01*
X0017803Y0214123D01*
X0017906Y0214061D01*
X0018007Y0213996D01*
X0018105Y0213928D01*
X0018201Y0213856D01*
X0018295Y0213782D01*
X0018386Y0213704D01*
X0018475Y0213623D01*
X0018560Y0213539D01*
X0018643Y0213453D01*
X0018723Y0213363D01*
X0018801Y0213272D01*
X0018874Y0213177D01*
X0018945Y0213081D01*
X0019013Y0212982D01*
X0019077Y0212880D01*
X0019138Y0212777D01*
X0019195Y0212672D01*
X0019249Y0212565D01*
X0019299Y0212456D01*
X0019346Y0212345D01*
X0019389Y0212233D01*
X0019428Y0212120D01*
X0019463Y0212005D01*
X0019494Y0211890D01*
X0019522Y0211773D01*
X0019546Y0211656D01*
X0019566Y0211537D01*
X0019582Y0211419D01*
X0019594Y0211299D01*
X0019602Y0211180D01*
X0019606Y0211060D01*
X0019606Y0210940D01*
X0019602Y0210820D01*
X0019594Y0210701D01*
X0019582Y0210581D01*
X0019566Y0210463D01*
X0019546Y0210344D01*
X0019522Y0210227D01*
X0019494Y0210110D01*
X0019463Y0209995D01*
X0019428Y0209880D01*
X0019389Y0209767D01*
X0019346Y0209655D01*
X0019299Y0209544D01*
X0019249Y0209435D01*
X0019195Y0209328D01*
X0019138Y0209223D01*
X0019077Y0209120D01*
X0019013Y0209018D01*
X0018945Y0208919D01*
X0018874Y0208823D01*
X0018801Y0208728D01*
X0018723Y0208637D01*
X0018643Y0208547D01*
X0018560Y0208461D01*
X0018475Y0208377D01*
X0018386Y0208296D01*
X0018295Y0208218D01*
X0018201Y0208144D01*
X0018105Y0208072D01*
X0018007Y0208004D01*
X0017906Y0207939D01*
X0017803Y0207877D01*
X0017698Y0207819D01*
X0017592Y0207764D01*
X0017483Y0207713D01*
X0017373Y0207666D01*
X0017261Y0207622D01*
X0017148Y0207582D01*
X0017034Y0207545D01*
X0016919Y0207513D01*
X0016802Y0207484D01*
X0016685Y0207460D01*
X0016567Y0207439D01*
X0016448Y0207422D01*
X0016329Y0207409D01*
X0016210Y0207400D01*
X0016090Y0207395D01*
X0015970Y0207394D01*
X0015850Y0207397D01*
X0015731Y0207404D01*
X0015611Y0207415D01*
X0015492Y0207430D01*
X0015374Y0207449D01*
X0015256Y0207472D01*
X0015139Y0207498D01*
X0015023Y0207529D01*
X0014909Y0207563D01*
X0014795Y0207601D01*
X0014683Y0207643D01*
X0014572Y0207689D01*
X0014462Y0207738D01*
X0014355Y0207791D01*
X0014249Y0207848D01*
X0014145Y0207908D01*
X0014044Y0207971D01*
X0013944Y0208038D01*
X0013847Y0208108D01*
X0013752Y0208181D01*
X0013659Y0208257D01*
X0013569Y0208336D01*
X0013482Y0208419D01*
X0013398Y0208504D01*
X0013316Y0208592D01*
X0013238Y0208682D01*
X0013162Y0208775D01*
X0013090Y0208871D01*
X0013021Y0208969D01*
X0012955Y0209069D01*
X0012892Y0209171D01*
X0012833Y0209275D01*
X0012778Y0209382D01*
X0012726Y0209490D01*
X0012677Y0209599D01*
X0012632Y0209711D01*
X0012591Y0209823D01*
X0012554Y0209937D01*
X0012521Y0210052D01*
X0012491Y0210168D01*
X0012465Y0210285D01*
X0012444Y0210403D01*
X0012426Y0210522D01*
X0012412Y0210641D01*
X0012402Y0210760D01*
X0012396Y0210880D01*
X0012394Y0211000D01*
X0011390Y0301000D02*
X0011392Y0301135D01*
X0011398Y0301271D01*
X0011408Y0301406D01*
X0011422Y0301540D01*
X0011440Y0301674D01*
X0011461Y0301808D01*
X0011487Y0301941D01*
X0011517Y0302073D01*
X0011550Y0302204D01*
X0011587Y0302334D01*
X0011628Y0302463D01*
X0011673Y0302591D01*
X0011722Y0302717D01*
X0011774Y0302842D01*
X0011830Y0302965D01*
X0011889Y0303087D01*
X0011952Y0303207D01*
X0012019Y0303325D01*
X0012089Y0303440D01*
X0012162Y0303554D01*
X0012239Y0303666D01*
X0012319Y0303775D01*
X0012402Y0303882D01*
X0012488Y0303986D01*
X0012577Y0304088D01*
X0012669Y0304187D01*
X0012764Y0304284D01*
X0012862Y0304377D01*
X0012963Y0304468D01*
X0013066Y0304556D01*
X0013171Y0304640D01*
X0013279Y0304722D01*
X0013390Y0304800D01*
X0013502Y0304875D01*
X0013617Y0304946D01*
X0013734Y0305015D01*
X0013853Y0305080D01*
X0013974Y0305141D01*
X0014096Y0305199D01*
X0014220Y0305253D01*
X0014346Y0305303D01*
X0014473Y0305350D01*
X0014601Y0305393D01*
X0014731Y0305432D01*
X0014861Y0305467D01*
X0014993Y0305499D01*
X0015126Y0305526D01*
X0015259Y0305550D01*
X0015393Y0305570D01*
X0015527Y0305586D01*
X0015662Y0305598D01*
X0015797Y0305606D01*
X0015932Y0305610D01*
X0016068Y0305610D01*
X0016203Y0305606D01*
X0016338Y0305598D01*
X0016473Y0305586D01*
X0016607Y0305570D01*
X0016741Y0305550D01*
X0016874Y0305526D01*
X0017007Y0305499D01*
X0017139Y0305467D01*
X0017269Y0305432D01*
X0017399Y0305393D01*
X0017527Y0305350D01*
X0017654Y0305303D01*
X0017780Y0305253D01*
X0017904Y0305199D01*
X0018026Y0305141D01*
X0018147Y0305080D01*
X0018266Y0305015D01*
X0018383Y0304946D01*
X0018498Y0304875D01*
X0018610Y0304800D01*
X0018721Y0304722D01*
X0018829Y0304640D01*
X0018934Y0304556D01*
X0019037Y0304468D01*
X0019138Y0304377D01*
X0019236Y0304284D01*
X0019331Y0304187D01*
X0019423Y0304088D01*
X0019512Y0303986D01*
X0019598Y0303882D01*
X0019681Y0303775D01*
X0019761Y0303666D01*
X0019838Y0303554D01*
X0019911Y0303440D01*
X0019981Y0303325D01*
X0020048Y0303207D01*
X0020111Y0303087D01*
X0020170Y0302965D01*
X0020226Y0302842D01*
X0020278Y0302717D01*
X0020327Y0302591D01*
X0020372Y0302463D01*
X0020413Y0302334D01*
X0020450Y0302204D01*
X0020483Y0302073D01*
X0020513Y0301941D01*
X0020539Y0301808D01*
X0020560Y0301674D01*
X0020578Y0301540D01*
X0020592Y0301406D01*
X0020602Y0301271D01*
X0020608Y0301135D01*
X0020610Y0301000D01*
X0020608Y0300865D01*
X0020602Y0300729D01*
X0020592Y0300594D01*
X0020578Y0300460D01*
X0020560Y0300326D01*
X0020539Y0300192D01*
X0020513Y0300059D01*
X0020483Y0299927D01*
X0020450Y0299796D01*
X0020413Y0299666D01*
X0020372Y0299537D01*
X0020327Y0299409D01*
X0020278Y0299283D01*
X0020226Y0299158D01*
X0020170Y0299035D01*
X0020111Y0298913D01*
X0020048Y0298793D01*
X0019981Y0298675D01*
X0019911Y0298560D01*
X0019838Y0298446D01*
X0019761Y0298334D01*
X0019681Y0298225D01*
X0019598Y0298118D01*
X0019512Y0298014D01*
X0019423Y0297912D01*
X0019331Y0297813D01*
X0019236Y0297716D01*
X0019138Y0297623D01*
X0019037Y0297532D01*
X0018934Y0297444D01*
X0018829Y0297360D01*
X0018721Y0297278D01*
X0018610Y0297200D01*
X0018498Y0297125D01*
X0018383Y0297054D01*
X0018266Y0296985D01*
X0018147Y0296920D01*
X0018026Y0296859D01*
X0017904Y0296801D01*
X0017780Y0296747D01*
X0017654Y0296697D01*
X0017527Y0296650D01*
X0017399Y0296607D01*
X0017269Y0296568D01*
X0017139Y0296533D01*
X0017007Y0296501D01*
X0016874Y0296474D01*
X0016741Y0296450D01*
X0016607Y0296430D01*
X0016473Y0296414D01*
X0016338Y0296402D01*
X0016203Y0296394D01*
X0016068Y0296390D01*
X0015932Y0296390D01*
X0015797Y0296394D01*
X0015662Y0296402D01*
X0015527Y0296414D01*
X0015393Y0296430D01*
X0015259Y0296450D01*
X0015126Y0296474D01*
X0014993Y0296501D01*
X0014861Y0296533D01*
X0014731Y0296568D01*
X0014601Y0296607D01*
X0014473Y0296650D01*
X0014346Y0296697D01*
X0014220Y0296747D01*
X0014096Y0296801D01*
X0013974Y0296859D01*
X0013853Y0296920D01*
X0013734Y0296985D01*
X0013617Y0297054D01*
X0013502Y0297125D01*
X0013390Y0297200D01*
X0013279Y0297278D01*
X0013171Y0297360D01*
X0013066Y0297444D01*
X0012963Y0297532D01*
X0012862Y0297623D01*
X0012764Y0297716D01*
X0012669Y0297813D01*
X0012577Y0297912D01*
X0012488Y0298014D01*
X0012402Y0298118D01*
X0012319Y0298225D01*
X0012239Y0298334D01*
X0012162Y0298446D01*
X0012089Y0298560D01*
X0012019Y0298675D01*
X0011952Y0298793D01*
X0011889Y0298913D01*
X0011830Y0299035D01*
X0011774Y0299158D01*
X0011722Y0299283D01*
X0011673Y0299409D01*
X0011628Y0299537D01*
X0011587Y0299666D01*
X0011550Y0299796D01*
X0011517Y0299927D01*
X0011487Y0300059D01*
X0011461Y0300192D01*
X0011440Y0300326D01*
X0011422Y0300460D01*
X0011408Y0300594D01*
X0011398Y0300729D01*
X0011392Y0300865D01*
X0011390Y0301000D01*
X0011390Y0376000D02*
X0011392Y0376135D01*
X0011398Y0376271D01*
X0011408Y0376406D01*
X0011422Y0376540D01*
X0011440Y0376674D01*
X0011461Y0376808D01*
X0011487Y0376941D01*
X0011517Y0377073D01*
X0011550Y0377204D01*
X0011587Y0377334D01*
X0011628Y0377463D01*
X0011673Y0377591D01*
X0011722Y0377717D01*
X0011774Y0377842D01*
X0011830Y0377965D01*
X0011889Y0378087D01*
X0011952Y0378207D01*
X0012019Y0378325D01*
X0012089Y0378440D01*
X0012162Y0378554D01*
X0012239Y0378666D01*
X0012319Y0378775D01*
X0012402Y0378882D01*
X0012488Y0378986D01*
X0012577Y0379088D01*
X0012669Y0379187D01*
X0012764Y0379284D01*
X0012862Y0379377D01*
X0012963Y0379468D01*
X0013066Y0379556D01*
X0013171Y0379640D01*
X0013279Y0379722D01*
X0013390Y0379800D01*
X0013502Y0379875D01*
X0013617Y0379946D01*
X0013734Y0380015D01*
X0013853Y0380080D01*
X0013974Y0380141D01*
X0014096Y0380199D01*
X0014220Y0380253D01*
X0014346Y0380303D01*
X0014473Y0380350D01*
X0014601Y0380393D01*
X0014731Y0380432D01*
X0014861Y0380467D01*
X0014993Y0380499D01*
X0015126Y0380526D01*
X0015259Y0380550D01*
X0015393Y0380570D01*
X0015527Y0380586D01*
X0015662Y0380598D01*
X0015797Y0380606D01*
X0015932Y0380610D01*
X0016068Y0380610D01*
X0016203Y0380606D01*
X0016338Y0380598D01*
X0016473Y0380586D01*
X0016607Y0380570D01*
X0016741Y0380550D01*
X0016874Y0380526D01*
X0017007Y0380499D01*
X0017139Y0380467D01*
X0017269Y0380432D01*
X0017399Y0380393D01*
X0017527Y0380350D01*
X0017654Y0380303D01*
X0017780Y0380253D01*
X0017904Y0380199D01*
X0018026Y0380141D01*
X0018147Y0380080D01*
X0018266Y0380015D01*
X0018383Y0379946D01*
X0018498Y0379875D01*
X0018610Y0379800D01*
X0018721Y0379722D01*
X0018829Y0379640D01*
X0018934Y0379556D01*
X0019037Y0379468D01*
X0019138Y0379377D01*
X0019236Y0379284D01*
X0019331Y0379187D01*
X0019423Y0379088D01*
X0019512Y0378986D01*
X0019598Y0378882D01*
X0019681Y0378775D01*
X0019761Y0378666D01*
X0019838Y0378554D01*
X0019911Y0378440D01*
X0019981Y0378325D01*
X0020048Y0378207D01*
X0020111Y0378087D01*
X0020170Y0377965D01*
X0020226Y0377842D01*
X0020278Y0377717D01*
X0020327Y0377591D01*
X0020372Y0377463D01*
X0020413Y0377334D01*
X0020450Y0377204D01*
X0020483Y0377073D01*
X0020513Y0376941D01*
X0020539Y0376808D01*
X0020560Y0376674D01*
X0020578Y0376540D01*
X0020592Y0376406D01*
X0020602Y0376271D01*
X0020608Y0376135D01*
X0020610Y0376000D01*
X0020608Y0375865D01*
X0020602Y0375729D01*
X0020592Y0375594D01*
X0020578Y0375460D01*
X0020560Y0375326D01*
X0020539Y0375192D01*
X0020513Y0375059D01*
X0020483Y0374927D01*
X0020450Y0374796D01*
X0020413Y0374666D01*
X0020372Y0374537D01*
X0020327Y0374409D01*
X0020278Y0374283D01*
X0020226Y0374158D01*
X0020170Y0374035D01*
X0020111Y0373913D01*
X0020048Y0373793D01*
X0019981Y0373675D01*
X0019911Y0373560D01*
X0019838Y0373446D01*
X0019761Y0373334D01*
X0019681Y0373225D01*
X0019598Y0373118D01*
X0019512Y0373014D01*
X0019423Y0372912D01*
X0019331Y0372813D01*
X0019236Y0372716D01*
X0019138Y0372623D01*
X0019037Y0372532D01*
X0018934Y0372444D01*
X0018829Y0372360D01*
X0018721Y0372278D01*
X0018610Y0372200D01*
X0018498Y0372125D01*
X0018383Y0372054D01*
X0018266Y0371985D01*
X0018147Y0371920D01*
X0018026Y0371859D01*
X0017904Y0371801D01*
X0017780Y0371747D01*
X0017654Y0371697D01*
X0017527Y0371650D01*
X0017399Y0371607D01*
X0017269Y0371568D01*
X0017139Y0371533D01*
X0017007Y0371501D01*
X0016874Y0371474D01*
X0016741Y0371450D01*
X0016607Y0371430D01*
X0016473Y0371414D01*
X0016338Y0371402D01*
X0016203Y0371394D01*
X0016068Y0371390D01*
X0015932Y0371390D01*
X0015797Y0371394D01*
X0015662Y0371402D01*
X0015527Y0371414D01*
X0015393Y0371430D01*
X0015259Y0371450D01*
X0015126Y0371474D01*
X0014993Y0371501D01*
X0014861Y0371533D01*
X0014731Y0371568D01*
X0014601Y0371607D01*
X0014473Y0371650D01*
X0014346Y0371697D01*
X0014220Y0371747D01*
X0014096Y0371801D01*
X0013974Y0371859D01*
X0013853Y0371920D01*
X0013734Y0371985D01*
X0013617Y0372054D01*
X0013502Y0372125D01*
X0013390Y0372200D01*
X0013279Y0372278D01*
X0013171Y0372360D01*
X0013066Y0372444D01*
X0012963Y0372532D01*
X0012862Y0372623D01*
X0012764Y0372716D01*
X0012669Y0372813D01*
X0012577Y0372912D01*
X0012488Y0373014D01*
X0012402Y0373118D01*
X0012319Y0373225D01*
X0012239Y0373334D01*
X0012162Y0373446D01*
X0012089Y0373560D01*
X0012019Y0373675D01*
X0011952Y0373793D01*
X0011889Y0373913D01*
X0011830Y0374035D01*
X0011774Y0374158D01*
X0011722Y0374283D01*
X0011673Y0374409D01*
X0011628Y0374537D01*
X0011587Y0374666D01*
X0011550Y0374796D01*
X0011517Y0374927D01*
X0011487Y0375059D01*
X0011461Y0375192D01*
X0011440Y0375326D01*
X0011422Y0375460D01*
X0011408Y0375594D01*
X0011398Y0375729D01*
X0011392Y0375865D01*
X0011390Y0376000D01*
X0156390Y0401000D02*
X0156392Y0401135D01*
X0156398Y0401271D01*
X0156408Y0401406D01*
X0156422Y0401540D01*
X0156440Y0401674D01*
X0156461Y0401808D01*
X0156487Y0401941D01*
X0156517Y0402073D01*
X0156550Y0402204D01*
X0156587Y0402334D01*
X0156628Y0402463D01*
X0156673Y0402591D01*
X0156722Y0402717D01*
X0156774Y0402842D01*
X0156830Y0402965D01*
X0156889Y0403087D01*
X0156952Y0403207D01*
X0157019Y0403325D01*
X0157089Y0403440D01*
X0157162Y0403554D01*
X0157239Y0403666D01*
X0157319Y0403775D01*
X0157402Y0403882D01*
X0157488Y0403986D01*
X0157577Y0404088D01*
X0157669Y0404187D01*
X0157764Y0404284D01*
X0157862Y0404377D01*
X0157963Y0404468D01*
X0158066Y0404556D01*
X0158171Y0404640D01*
X0158279Y0404722D01*
X0158390Y0404800D01*
X0158502Y0404875D01*
X0158617Y0404946D01*
X0158734Y0405015D01*
X0158853Y0405080D01*
X0158974Y0405141D01*
X0159096Y0405199D01*
X0159220Y0405253D01*
X0159346Y0405303D01*
X0159473Y0405350D01*
X0159601Y0405393D01*
X0159731Y0405432D01*
X0159861Y0405467D01*
X0159993Y0405499D01*
X0160126Y0405526D01*
X0160259Y0405550D01*
X0160393Y0405570D01*
X0160527Y0405586D01*
X0160662Y0405598D01*
X0160797Y0405606D01*
X0160932Y0405610D01*
X0161068Y0405610D01*
X0161203Y0405606D01*
X0161338Y0405598D01*
X0161473Y0405586D01*
X0161607Y0405570D01*
X0161741Y0405550D01*
X0161874Y0405526D01*
X0162007Y0405499D01*
X0162139Y0405467D01*
X0162269Y0405432D01*
X0162399Y0405393D01*
X0162527Y0405350D01*
X0162654Y0405303D01*
X0162780Y0405253D01*
X0162904Y0405199D01*
X0163026Y0405141D01*
X0163147Y0405080D01*
X0163266Y0405015D01*
X0163383Y0404946D01*
X0163498Y0404875D01*
X0163610Y0404800D01*
X0163721Y0404722D01*
X0163829Y0404640D01*
X0163934Y0404556D01*
X0164037Y0404468D01*
X0164138Y0404377D01*
X0164236Y0404284D01*
X0164331Y0404187D01*
X0164423Y0404088D01*
X0164512Y0403986D01*
X0164598Y0403882D01*
X0164681Y0403775D01*
X0164761Y0403666D01*
X0164838Y0403554D01*
X0164911Y0403440D01*
X0164981Y0403325D01*
X0165048Y0403207D01*
X0165111Y0403087D01*
X0165170Y0402965D01*
X0165226Y0402842D01*
X0165278Y0402717D01*
X0165327Y0402591D01*
X0165372Y0402463D01*
X0165413Y0402334D01*
X0165450Y0402204D01*
X0165483Y0402073D01*
X0165513Y0401941D01*
X0165539Y0401808D01*
X0165560Y0401674D01*
X0165578Y0401540D01*
X0165592Y0401406D01*
X0165602Y0401271D01*
X0165608Y0401135D01*
X0165610Y0401000D01*
X0165608Y0400865D01*
X0165602Y0400729D01*
X0165592Y0400594D01*
X0165578Y0400460D01*
X0165560Y0400326D01*
X0165539Y0400192D01*
X0165513Y0400059D01*
X0165483Y0399927D01*
X0165450Y0399796D01*
X0165413Y0399666D01*
X0165372Y0399537D01*
X0165327Y0399409D01*
X0165278Y0399283D01*
X0165226Y0399158D01*
X0165170Y0399035D01*
X0165111Y0398913D01*
X0165048Y0398793D01*
X0164981Y0398675D01*
X0164911Y0398560D01*
X0164838Y0398446D01*
X0164761Y0398334D01*
X0164681Y0398225D01*
X0164598Y0398118D01*
X0164512Y0398014D01*
X0164423Y0397912D01*
X0164331Y0397813D01*
X0164236Y0397716D01*
X0164138Y0397623D01*
X0164037Y0397532D01*
X0163934Y0397444D01*
X0163829Y0397360D01*
X0163721Y0397278D01*
X0163610Y0397200D01*
X0163498Y0397125D01*
X0163383Y0397054D01*
X0163266Y0396985D01*
X0163147Y0396920D01*
X0163026Y0396859D01*
X0162904Y0396801D01*
X0162780Y0396747D01*
X0162654Y0396697D01*
X0162527Y0396650D01*
X0162399Y0396607D01*
X0162269Y0396568D01*
X0162139Y0396533D01*
X0162007Y0396501D01*
X0161874Y0396474D01*
X0161741Y0396450D01*
X0161607Y0396430D01*
X0161473Y0396414D01*
X0161338Y0396402D01*
X0161203Y0396394D01*
X0161068Y0396390D01*
X0160932Y0396390D01*
X0160797Y0396394D01*
X0160662Y0396402D01*
X0160527Y0396414D01*
X0160393Y0396430D01*
X0160259Y0396450D01*
X0160126Y0396474D01*
X0159993Y0396501D01*
X0159861Y0396533D01*
X0159731Y0396568D01*
X0159601Y0396607D01*
X0159473Y0396650D01*
X0159346Y0396697D01*
X0159220Y0396747D01*
X0159096Y0396801D01*
X0158974Y0396859D01*
X0158853Y0396920D01*
X0158734Y0396985D01*
X0158617Y0397054D01*
X0158502Y0397125D01*
X0158390Y0397200D01*
X0158279Y0397278D01*
X0158171Y0397360D01*
X0158066Y0397444D01*
X0157963Y0397532D01*
X0157862Y0397623D01*
X0157764Y0397716D01*
X0157669Y0397813D01*
X0157577Y0397912D01*
X0157488Y0398014D01*
X0157402Y0398118D01*
X0157319Y0398225D01*
X0157239Y0398334D01*
X0157162Y0398446D01*
X0157089Y0398560D01*
X0157019Y0398675D01*
X0156952Y0398793D01*
X0156889Y0398913D01*
X0156830Y0399035D01*
X0156774Y0399158D01*
X0156722Y0399283D01*
X0156673Y0399409D01*
X0156628Y0399537D01*
X0156587Y0399666D01*
X0156550Y0399796D01*
X0156517Y0399927D01*
X0156487Y0400059D01*
X0156461Y0400192D01*
X0156440Y0400326D01*
X0156422Y0400460D01*
X0156408Y0400594D01*
X0156398Y0400729D01*
X0156392Y0400865D01*
X0156390Y0401000D01*
X0194125Y0262250D02*
X0197875Y0262250D01*
X0324125Y0187250D02*
X0327875Y0187250D01*
X0414750Y0289125D02*
X0414750Y0292875D01*
X0459125Y0334750D02*
X0462875Y0334750D01*
X0484750Y0057875D02*
X0484750Y0054125D01*
D13*
X0060089Y0262533D02*
X0053956Y0262533D01*
X0057022Y0259467D02*
X0057022Y0265600D01*
X0057022Y0165600D02*
X0057022Y0159467D01*
D14*
X0375009Y0172633D02*
X0380276Y0172633D01*
X0379080Y0149145D02*
X0379080Y0143878D01*
X0381713Y0146511D02*
X0376446Y0146511D01*
X0416446Y0146511D02*
X0421713Y0146511D01*
X0419080Y0143878D02*
X0419080Y0149145D01*
X0420276Y0172633D02*
X0415009Y0172633D01*
X0475633Y0177920D02*
X0480900Y0177920D01*
X0478267Y0175287D02*
X0478267Y0180554D01*
X0504389Y0181991D02*
X0504389Y0176724D01*
X0504389Y0141991D02*
X0504389Y0136724D01*
X0480900Y0137920D02*
X0475633Y0137920D01*
X0478267Y0135287D02*
X0478267Y0140554D01*
X0478267Y0100554D02*
X0478267Y0095287D01*
X0480900Y0097920D02*
X0475633Y0097920D01*
X0504389Y0096724D02*
X0504389Y0101991D01*
X0478267Y0215287D02*
X0478267Y0220554D01*
X0480900Y0217920D02*
X0475633Y0217920D01*
X0474080Y0243878D02*
X0474080Y0249145D01*
X0476713Y0246511D02*
X0471446Y0246511D01*
X0470009Y0272633D02*
X0475276Y0272633D01*
X0505009Y0272633D02*
X0510276Y0272633D01*
X0509080Y0249145D02*
X0509080Y0243878D01*
X0511713Y0246511D02*
X0506446Y0246511D01*
X0504389Y0221991D02*
X0504389Y0216724D01*
X0441713Y0246511D02*
X0436446Y0246511D01*
X0439080Y0243878D02*
X0439080Y0249145D01*
X0440276Y0272633D02*
X0435009Y0272633D01*
X0483267Y0350287D02*
X0483267Y0355554D01*
X0485900Y0352920D02*
X0480633Y0352920D01*
X0509389Y0351724D02*
X0509389Y0356991D01*
X0509389Y0391724D02*
X0509389Y0396991D01*
X0485900Y0392920D02*
X0480633Y0392920D01*
X0483267Y0390287D02*
X0483267Y0395554D01*
D15*
X0467500Y0023500D02*
X0467498Y0023576D01*
X0467492Y0023652D01*
X0467483Y0023727D01*
X0467469Y0023802D01*
X0467452Y0023876D01*
X0467431Y0023949D01*
X0467407Y0024021D01*
X0467378Y0024092D01*
X0467347Y0024161D01*
X0467312Y0024228D01*
X0467273Y0024293D01*
X0467231Y0024357D01*
X0467186Y0024418D01*
X0467138Y0024477D01*
X0467087Y0024533D01*
X0467033Y0024587D01*
X0466977Y0024638D01*
X0466918Y0024686D01*
X0466857Y0024731D01*
X0466793Y0024773D01*
X0466728Y0024812D01*
X0466661Y0024847D01*
X0466592Y0024878D01*
X0466521Y0024907D01*
X0466449Y0024931D01*
X0466376Y0024952D01*
X0466302Y0024969D01*
X0466227Y0024983D01*
X0466152Y0024992D01*
X0466076Y0024998D01*
X0466000Y0025000D01*
X0465924Y0024998D01*
X0465848Y0024992D01*
X0465773Y0024983D01*
X0465698Y0024969D01*
X0465624Y0024952D01*
X0465551Y0024931D01*
X0465479Y0024907D01*
X0465408Y0024878D01*
X0465339Y0024847D01*
X0465272Y0024812D01*
X0465207Y0024773D01*
X0465143Y0024731D01*
X0465082Y0024686D01*
X0465023Y0024638D01*
X0464967Y0024587D01*
X0464913Y0024533D01*
X0464862Y0024477D01*
X0464814Y0024418D01*
X0464769Y0024357D01*
X0464727Y0024293D01*
X0464688Y0024228D01*
X0464653Y0024161D01*
X0464622Y0024092D01*
X0464593Y0024021D01*
X0464569Y0023949D01*
X0464548Y0023876D01*
X0464531Y0023802D01*
X0464517Y0023727D01*
X0464508Y0023652D01*
X0464502Y0023576D01*
X0464500Y0023500D01*
X0464502Y0023424D01*
X0464508Y0023348D01*
X0464517Y0023273D01*
X0464531Y0023198D01*
X0464548Y0023124D01*
X0464569Y0023051D01*
X0464593Y0022979D01*
X0464622Y0022908D01*
X0464653Y0022839D01*
X0464688Y0022772D01*
X0464727Y0022707D01*
X0464769Y0022643D01*
X0464814Y0022582D01*
X0464862Y0022523D01*
X0464913Y0022467D01*
X0464967Y0022413D01*
X0465023Y0022362D01*
X0465082Y0022314D01*
X0465143Y0022269D01*
X0465207Y0022227D01*
X0465272Y0022188D01*
X0465339Y0022153D01*
X0465408Y0022122D01*
X0465479Y0022093D01*
X0465551Y0022069D01*
X0465624Y0022048D01*
X0465698Y0022031D01*
X0465773Y0022017D01*
X0465848Y0022008D01*
X0465924Y0022002D01*
X0466000Y0022000D01*
X0466076Y0022002D01*
X0466152Y0022008D01*
X0466227Y0022017D01*
X0466302Y0022031D01*
X0466376Y0022048D01*
X0466449Y0022069D01*
X0466521Y0022093D01*
X0466592Y0022122D01*
X0466661Y0022153D01*
X0466728Y0022188D01*
X0466793Y0022227D01*
X0466857Y0022269D01*
X0466918Y0022314D01*
X0466977Y0022362D01*
X0467033Y0022413D01*
X0467087Y0022467D01*
X0467138Y0022523D01*
X0467186Y0022582D01*
X0467231Y0022643D01*
X0467273Y0022707D01*
X0467312Y0022772D01*
X0467347Y0022839D01*
X0467378Y0022908D01*
X0467407Y0022979D01*
X0467431Y0023051D01*
X0467452Y0023124D01*
X0467469Y0023198D01*
X0467483Y0023273D01*
X0467492Y0023348D01*
X0467498Y0023424D01*
X0467500Y0023500D01*
X0499500Y0023500D02*
X0499502Y0023576D01*
X0499508Y0023652D01*
X0499517Y0023727D01*
X0499531Y0023802D01*
X0499548Y0023876D01*
X0499569Y0023949D01*
X0499593Y0024021D01*
X0499622Y0024092D01*
X0499653Y0024161D01*
X0499688Y0024228D01*
X0499727Y0024293D01*
X0499769Y0024357D01*
X0499814Y0024418D01*
X0499862Y0024477D01*
X0499913Y0024533D01*
X0499967Y0024587D01*
X0500023Y0024638D01*
X0500082Y0024686D01*
X0500143Y0024731D01*
X0500207Y0024773D01*
X0500272Y0024812D01*
X0500339Y0024847D01*
X0500408Y0024878D01*
X0500479Y0024907D01*
X0500551Y0024931D01*
X0500624Y0024952D01*
X0500698Y0024969D01*
X0500773Y0024983D01*
X0500848Y0024992D01*
X0500924Y0024998D01*
X0501000Y0025000D01*
X0501076Y0024998D01*
X0501152Y0024992D01*
X0501227Y0024983D01*
X0501302Y0024969D01*
X0501376Y0024952D01*
X0501449Y0024931D01*
X0501521Y0024907D01*
X0501592Y0024878D01*
X0501661Y0024847D01*
X0501728Y0024812D01*
X0501793Y0024773D01*
X0501857Y0024731D01*
X0501918Y0024686D01*
X0501977Y0024638D01*
X0502033Y0024587D01*
X0502087Y0024533D01*
X0502138Y0024477D01*
X0502186Y0024418D01*
X0502231Y0024357D01*
X0502273Y0024293D01*
X0502312Y0024228D01*
X0502347Y0024161D01*
X0502378Y0024092D01*
X0502407Y0024021D01*
X0502431Y0023949D01*
X0502452Y0023876D01*
X0502469Y0023802D01*
X0502483Y0023727D01*
X0502492Y0023652D01*
X0502498Y0023576D01*
X0502500Y0023500D01*
X0502498Y0023424D01*
X0502492Y0023348D01*
X0502483Y0023273D01*
X0502469Y0023198D01*
X0502452Y0023124D01*
X0502431Y0023051D01*
X0502407Y0022979D01*
X0502378Y0022908D01*
X0502347Y0022839D01*
X0502312Y0022772D01*
X0502273Y0022707D01*
X0502231Y0022643D01*
X0502186Y0022582D01*
X0502138Y0022523D01*
X0502087Y0022467D01*
X0502033Y0022413D01*
X0501977Y0022362D01*
X0501918Y0022314D01*
X0501857Y0022269D01*
X0501793Y0022227D01*
X0501728Y0022188D01*
X0501661Y0022153D01*
X0501592Y0022122D01*
X0501521Y0022093D01*
X0501449Y0022069D01*
X0501376Y0022048D01*
X0501302Y0022031D01*
X0501227Y0022017D01*
X0501152Y0022008D01*
X0501076Y0022002D01*
X0501000Y0022000D01*
X0500924Y0022002D01*
X0500848Y0022008D01*
X0500773Y0022017D01*
X0500698Y0022031D01*
X0500624Y0022048D01*
X0500551Y0022069D01*
X0500479Y0022093D01*
X0500408Y0022122D01*
X0500339Y0022153D01*
X0500272Y0022188D01*
X0500207Y0022227D01*
X0500143Y0022269D01*
X0500082Y0022314D01*
X0500023Y0022362D01*
X0499967Y0022413D01*
X0499913Y0022467D01*
X0499862Y0022523D01*
X0499814Y0022582D01*
X0499769Y0022643D01*
X0499727Y0022707D01*
X0499688Y0022772D01*
X0499653Y0022839D01*
X0499622Y0022908D01*
X0499593Y0022979D01*
X0499569Y0023051D01*
X0499548Y0023124D01*
X0499531Y0023198D01*
X0499517Y0023273D01*
X0499508Y0023348D01*
X0499502Y0023424D01*
X0499500Y0023500D01*
D16*
X0492683Y0030478D02*
X0489550Y0030478D01*
X0487683Y0030478D02*
X0484550Y0030478D01*
X0491117Y0028911D02*
X0491117Y0032044D01*
X0519550Y0030478D02*
X0522683Y0030478D01*
X0457683Y0030478D02*
X0454550Y0030478D01*
X0456117Y0032044D02*
X0456117Y0028911D01*
D17*
X0441000Y0068500D02*
X0421000Y0068500D01*
X0421000Y0086000D01*
X0441000Y0086000D01*
X0441000Y0068500D01*
X0441000Y0086000D02*
X0441000Y0093500D01*
X0421000Y0093500D01*
X0421000Y0086000D01*
X0361000Y0173500D02*
X0341000Y0173500D01*
X0341000Y0191000D01*
X0361000Y0191000D01*
X0361000Y0173500D01*
X0361000Y0191000D02*
X0361000Y0198500D01*
X0341000Y0198500D01*
X0341000Y0191000D01*
X0396000Y0203500D02*
X0396000Y0221000D01*
X0416000Y0221000D01*
X0416000Y0203500D01*
X0396000Y0203500D01*
X0396000Y0221000D02*
X0396000Y0228500D01*
X0416000Y0228500D01*
X0416000Y0221000D01*
X0481000Y0303500D02*
X0481000Y0311000D01*
X0501000Y0311000D01*
X0501000Y0303500D01*
X0481000Y0303500D01*
X0481000Y0311000D02*
X0481000Y0328500D01*
X0501000Y0328500D01*
X0501000Y0311000D01*
M02*
