%
M48
M72
T01C0.01378
T02C0.03937
T03C0.04000
T04C0.04800
T05C0.05118
T06C0.05500
T07C0.05906
T08C0.06299
T09C0.07000
T10C0.07874
%
T01
X311000Y151000
X378500Y253500
X461000Y366000
X403000Y46000
T02
X426000Y81000
X436000Y81000
X356000Y186000
X346000Y186000
X401000Y216000
X411000Y216000
X486000Y316000
X496000Y316000
T03
X406000Y266000
X406000Y246000
X341000Y156000
X341000Y136000
X431000Y51000
X431000Y31000
T04
X466000Y31000
X476000Y31000
X501000Y31000
X511000Y31000
X236000Y331000
X236000Y361000
X236000Y391000
X436000Y376000
X436000Y361000
X436000Y346000
T05
X483677Y346000
X509268Y346000
X509268Y386000
X483677Y386000
X481000Y274268
X481000Y248677
X446000Y248677
X446000Y274268
X516000Y274268
X516000Y248677
X504268Y211000
X478677Y211000
X478677Y171000
X504268Y171000
X504268Y131000
X478677Y131000
X478677Y91000
X504268Y91000
X426000Y148677
X426000Y174268
X386000Y174268
X386000Y148677
T06
X384750Y103500
X384750Y28500
X334750Y28500
X322250Y28500
X309750Y28500
X247250Y28500
X247250Y103500
X244750Y133500
X232250Y133500
X219750Y133500
X157250Y133500
X157250Y208500
X227250Y228500
X289750Y228500
X302250Y228500
X314750Y228500
X294750Y208500
X364750Y228500
X364750Y303500
X227250Y303500
X294750Y133500
T07
X374504Y139425
X414504Y139425
X469425Y142496
X469425Y102496
X469425Y182496
X469425Y222496
X469504Y239425
X434504Y239425
X504504Y239425
X474425Y357496
X474425Y397496
T08
X73205Y239071
X73205Y225961
X73205Y199701
X73205Y186591
X23992Y186591
X23992Y199701
X23992Y225961
X23992Y239071
T09
X436000Y331000
X436000Y391000
T10
X41394Y65764
X90606Y36236
X151236Y41394
X180764Y90606
X90606Y106236
X41394Y135764
X85606Y286236
X36394Y315764
X85606Y361236
X36394Y390764
X146236Y331394
X175764Y380606
M30
