G75*
%MOIN*%
%OFA0B0*%
%FSLAX25Y25*%
%IPPOS*%
%LPD*%
%AMOC8*
5,1,8,0,0,1.08239X$1,22.5*
%
%ADD10R,0.10630X0.06299*%
%ADD11R,0.03937X0.04331*%
%ADD12C,0.01181*%
%ADD13R,0.04331X0.03937*%
%ADD14R,0.05906X0.05118*%
%ADD15R,0.05118X0.05906*%
D10*
X0141000Y0140488D03*
X0141000Y0151512D03*
X0211000Y0235488D03*
X0211000Y0246512D03*
X0211000Y0360488D03*
X0211000Y0371512D03*
X0231000Y0046512D03*
X0231000Y0035488D03*
D11*
X0311000Y0137654D03*
X0311000Y0144346D03*
X0378500Y0239654D03*
X0378500Y0246346D03*
X0461000Y0372654D03*
X0461000Y0379346D03*
X0403000Y0039346D03*
X0403000Y0032654D03*
D12*
X0488925Y0054622D02*
X0488925Y0057378D01*
X0488925Y0054622D02*
X0486169Y0054622D01*
X0486169Y0057378D01*
X0488925Y0057378D01*
X0488925Y0055802D02*
X0486169Y0055802D01*
X0486169Y0056982D02*
X0488925Y0056982D01*
X0495831Y0057378D02*
X0495831Y0054622D01*
X0493075Y0054622D01*
X0493075Y0057378D01*
X0495831Y0057378D01*
X0495831Y0055802D02*
X0493075Y0055802D01*
X0493075Y0056982D02*
X0495831Y0056982D01*
X0327378Y0176169D02*
X0324622Y0176169D01*
X0324622Y0178925D01*
X0327378Y0178925D01*
X0327378Y0176169D01*
X0327378Y0177349D02*
X0324622Y0177349D01*
X0324622Y0178529D02*
X0327378Y0178529D01*
X0327378Y0183075D02*
X0324622Y0183075D01*
X0324622Y0185831D01*
X0327378Y0185831D01*
X0327378Y0183075D01*
X0327378Y0184255D02*
X0324622Y0184255D01*
X0324622Y0185435D02*
X0327378Y0185435D01*
X0197378Y0251169D02*
X0194622Y0251169D01*
X0194622Y0253925D01*
X0197378Y0253925D01*
X0197378Y0251169D01*
X0197378Y0252349D02*
X0194622Y0252349D01*
X0194622Y0253529D02*
X0197378Y0253529D01*
X0197378Y0258075D02*
X0194622Y0258075D01*
X0194622Y0260831D01*
X0197378Y0260831D01*
X0197378Y0258075D01*
X0197378Y0259255D02*
X0194622Y0259255D01*
X0194622Y0260435D02*
X0197378Y0260435D01*
X0418925Y0289622D02*
X0418925Y0292378D01*
X0418925Y0289622D02*
X0416169Y0289622D01*
X0416169Y0292378D01*
X0418925Y0292378D01*
X0418925Y0290802D02*
X0416169Y0290802D01*
X0416169Y0291982D02*
X0418925Y0291982D01*
X0425831Y0292378D02*
X0425831Y0289622D01*
X0423075Y0289622D01*
X0423075Y0292378D01*
X0425831Y0292378D01*
X0425831Y0290802D02*
X0423075Y0290802D01*
X0423075Y0291982D02*
X0425831Y0291982D01*
X0459622Y0338925D02*
X0462378Y0338925D01*
X0462378Y0336169D01*
X0459622Y0336169D01*
X0459622Y0338925D01*
X0459622Y0337349D02*
X0462378Y0337349D01*
X0462378Y0338529D02*
X0459622Y0338529D01*
X0459622Y0345831D02*
X0462378Y0345831D01*
X0462378Y0343075D01*
X0459622Y0343075D01*
X0459622Y0345831D01*
X0459622Y0344255D02*
X0462378Y0344255D01*
X0462378Y0345435D02*
X0459622Y0345435D01*
D13*
X0378000Y0283346D03*
X0378000Y0276654D03*
X0311000Y0204346D03*
X0311000Y0197654D03*
X0405000Y0103346D03*
X0405000Y0096654D03*
D14*
X0326000Y0197260D03*
X0326000Y0204740D03*
X0196000Y0272260D03*
X0196000Y0279740D03*
X0461000Y0317260D03*
X0461000Y0324740D03*
D15*
X0404740Y0291000D03*
X0397260Y0291000D03*
X0467260Y0056000D03*
X0474740Y0056000D03*
M02*
