G75*
%MOIN*%
%OFA0B0*%
%FSLAX25Y25*%
%IPPOS*%
%LPD*%
%AMOC8*
5,1,8,0,0,1.08239X$1,22.5*
%
%ADD10C,0.10800*%
%ADD11OC8,0.10800*%
%ADD12C,0.16548*%
%ADD13C,0.06706*%
%ADD14C,0.08477*%
%ADD15C,0.08000*%
%ADD16C,0.11300*%
%ADD17C,0.09400*%
%ADD18C,0.06737*%
%ADD19C,0.03778*%
D10*
X0023992Y0186591D03*
X0023992Y0199701D03*
X0023992Y0225961D03*
X0023992Y0239071D03*
X0073205Y0239071D03*
X0073205Y0225961D03*
X0073205Y0199701D03*
X0073205Y0186591D03*
X0341000Y0136000D03*
X0431000Y0031000D03*
X0406000Y0246000D03*
D11*
X0406000Y0266000D03*
X0341000Y0156000D03*
X0431000Y0051000D03*
D12*
X0041394Y0065764D03*
X0090606Y0036236D03*
X0151236Y0041394D03*
X0180764Y0090606D03*
X0090606Y0106236D03*
X0041394Y0135764D03*
X0085606Y0286236D03*
X0036394Y0315764D03*
X0085606Y0361236D03*
X0036394Y0390764D03*
X0146236Y0331394D03*
X0175764Y0380606D03*
D13*
X0434504Y0239425D03*
X0469504Y0239425D03*
X0469425Y0222496D03*
X0504504Y0239425D03*
X0469425Y0182496D03*
X0469425Y0142496D03*
X0469425Y0102496D03*
X0414504Y0139425D03*
X0374504Y0139425D03*
X0474425Y0357496D03*
X0474425Y0397496D03*
D14*
X0483677Y0386000D03*
X0509268Y0386000D03*
X0509268Y0346000D03*
X0483677Y0346000D03*
X0481000Y0274268D03*
X0481000Y0248677D03*
X0446000Y0248677D03*
X0446000Y0274268D03*
X0516000Y0274268D03*
X0516000Y0248677D03*
X0504268Y0211000D03*
X0478677Y0211000D03*
X0478677Y0171000D03*
X0504268Y0171000D03*
X0504268Y0131000D03*
X0478677Y0131000D03*
X0478677Y0091000D03*
X0504268Y0091000D03*
X0426000Y0148677D03*
X0426000Y0174268D03*
X0386000Y0174268D03*
X0386000Y0148677D03*
D15*
X0466000Y0031000D03*
X0476000Y0031000D03*
X0501000Y0031000D03*
X0511000Y0031000D03*
X0236000Y0331000D03*
X0236000Y0361000D03*
X0236000Y0391000D03*
X0436000Y0376000D03*
X0436000Y0361000D03*
X0436000Y0346000D03*
D16*
X0436000Y0331000D03*
X0436000Y0391000D03*
D17*
X0364750Y0303500D03*
X0364750Y0228500D03*
X0314750Y0228500D03*
X0302250Y0228500D03*
X0289750Y0228500D03*
X0294750Y0208500D03*
X0227250Y0228500D03*
X0157250Y0208500D03*
X0157250Y0133500D03*
X0219750Y0133500D03*
X0232250Y0133500D03*
X0244750Y0133500D03*
X0247250Y0103500D03*
X0294750Y0133500D03*
X0384750Y0103500D03*
X0384750Y0028500D03*
X0334750Y0028500D03*
X0322250Y0028500D03*
X0309750Y0028500D03*
X0247250Y0028500D03*
X0227250Y0303500D03*
D18*
X0346000Y0188969D02*
X0346000Y0183031D01*
X0356000Y0183031D02*
X0356000Y0188969D01*
X0401000Y0213031D02*
X0401000Y0218969D01*
X0411000Y0218969D02*
X0411000Y0213031D01*
X0486000Y0313031D02*
X0486000Y0318969D01*
X0496000Y0318969D02*
X0496000Y0313031D01*
X0436000Y0083969D02*
X0436000Y0078031D01*
X0426000Y0078031D02*
X0426000Y0083969D01*
D19*
X0403000Y0046000D03*
X0311000Y0151000D03*
X0378500Y0253500D03*
X0461000Y0366000D03*
M02*
