G75*
%MOIN*%
%OFA0B0*%
%FSLAX25Y25*%
%IPPOS*%
%LPD*%
%AMOC8*
5,1,8,0,0,1.08239X$1,22.5*
%
%ADD10R,0.10630X0.06299*%
%ADD11R,0.03937X0.04331*%
%ADD12C,0.10000*%
%ADD13OC8,0.10000*%
%ADD14C,0.01181*%
%ADD15C,0.15748*%
%ADD16R,0.04331X0.03937*%
%ADD17R,0.05906X0.05118*%
%ADD18R,0.05118X0.05906*%
%ADD19C,0.07677*%
%ADD20C,0.07200*%
%ADD21C,0.10500*%
%ADD22C,0.08600*%
%ADD23C,0.05937*%
%ADD24C,0.01600*%
%ADD25C,0.05000*%
%ADD26C,0.02400*%
%ADD27C,0.01200*%
%ADD28C,0.02978*%
%ADD29C,0.03200*%
%ADD30C,0.04000*%
D10*
X0141000Y0140488D03*
X0141000Y0151512D03*
X0211000Y0235488D03*
X0211000Y0246512D03*
X0211000Y0360488D03*
X0211000Y0371512D03*
X0231000Y0046512D03*
X0231000Y0035488D03*
D11*
X0311000Y0137654D03*
X0311000Y0144346D03*
X0378500Y0239654D03*
X0378500Y0246346D03*
X0461000Y0372654D03*
X0461000Y0379346D03*
X0403000Y0039346D03*
X0403000Y0032654D03*
D12*
X0431000Y0031000D03*
X0341000Y0136000D03*
X0406000Y0246000D03*
X0073205Y0239071D03*
X0073205Y0225961D03*
X0073205Y0199701D03*
X0073205Y0186591D03*
X0023992Y0186591D03*
X0023992Y0199701D03*
X0023992Y0225961D03*
X0023992Y0239071D03*
D13*
X0341000Y0156000D03*
X0406000Y0266000D03*
X0431000Y0051000D03*
D14*
X0488925Y0054622D02*
X0488925Y0057378D01*
X0488925Y0054622D02*
X0486169Y0054622D01*
X0486169Y0057378D01*
X0488925Y0057378D01*
X0488925Y0055802D02*
X0486169Y0055802D01*
X0486169Y0056982D02*
X0488925Y0056982D01*
X0495831Y0057378D02*
X0495831Y0054622D01*
X0493075Y0054622D01*
X0493075Y0057378D01*
X0495831Y0057378D01*
X0495831Y0055802D02*
X0493075Y0055802D01*
X0493075Y0056982D02*
X0495831Y0056982D01*
X0327378Y0176169D02*
X0324622Y0176169D01*
X0324622Y0178925D01*
X0327378Y0178925D01*
X0327378Y0176169D01*
X0327378Y0177349D02*
X0324622Y0177349D01*
X0324622Y0178529D02*
X0327378Y0178529D01*
X0327378Y0183075D02*
X0324622Y0183075D01*
X0324622Y0185831D01*
X0327378Y0185831D01*
X0327378Y0183075D01*
X0327378Y0184255D02*
X0324622Y0184255D01*
X0324622Y0185435D02*
X0327378Y0185435D01*
X0197378Y0251169D02*
X0194622Y0251169D01*
X0194622Y0253925D01*
X0197378Y0253925D01*
X0197378Y0251169D01*
X0197378Y0252349D02*
X0194622Y0252349D01*
X0194622Y0253529D02*
X0197378Y0253529D01*
X0197378Y0258075D02*
X0194622Y0258075D01*
X0194622Y0260831D01*
X0197378Y0260831D01*
X0197378Y0258075D01*
X0197378Y0259255D02*
X0194622Y0259255D01*
X0194622Y0260435D02*
X0197378Y0260435D01*
X0418925Y0289622D02*
X0418925Y0292378D01*
X0418925Y0289622D02*
X0416169Y0289622D01*
X0416169Y0292378D01*
X0418925Y0292378D01*
X0418925Y0290802D02*
X0416169Y0290802D01*
X0416169Y0291982D02*
X0418925Y0291982D01*
X0425831Y0292378D02*
X0425831Y0289622D01*
X0423075Y0289622D01*
X0423075Y0292378D01*
X0425831Y0292378D01*
X0425831Y0290802D02*
X0423075Y0290802D01*
X0423075Y0291982D02*
X0425831Y0291982D01*
X0459622Y0338925D02*
X0462378Y0338925D01*
X0462378Y0336169D01*
X0459622Y0336169D01*
X0459622Y0338925D01*
X0459622Y0337349D02*
X0462378Y0337349D01*
X0462378Y0338529D02*
X0459622Y0338529D01*
X0459622Y0345831D02*
X0462378Y0345831D01*
X0462378Y0343075D01*
X0459622Y0343075D01*
X0459622Y0345831D01*
X0459622Y0344255D02*
X0462378Y0344255D01*
X0462378Y0345435D02*
X0459622Y0345435D01*
D15*
X0175764Y0380606D03*
X0146236Y0331394D03*
X0085606Y0361236D03*
X0036394Y0390764D03*
X0036394Y0315764D03*
X0085606Y0286236D03*
X0041394Y0135764D03*
X0090606Y0106236D03*
X0041394Y0065764D03*
X0090606Y0036236D03*
X0151236Y0041394D03*
X0180764Y0090606D03*
D16*
X0311000Y0197654D03*
X0311000Y0204346D03*
X0378000Y0276654D03*
X0378000Y0283346D03*
X0405000Y0103346D03*
X0405000Y0096654D03*
D17*
X0326000Y0197260D03*
X0326000Y0204740D03*
X0196000Y0272260D03*
X0196000Y0279740D03*
X0461000Y0317260D03*
X0461000Y0324740D03*
D18*
X0404740Y0291000D03*
X0397260Y0291000D03*
X0467260Y0056000D03*
X0474740Y0056000D03*
D19*
X0478677Y0091000D03*
X0504268Y0091000D03*
X0504268Y0131000D03*
X0478677Y0131000D03*
X0478677Y0171000D03*
X0504268Y0171000D03*
X0504268Y0211000D03*
X0478677Y0211000D03*
X0481000Y0248677D03*
X0481000Y0274268D03*
X0446000Y0274268D03*
X0446000Y0248677D03*
X0516000Y0248677D03*
X0516000Y0274268D03*
X0509268Y0346000D03*
X0483677Y0346000D03*
X0483677Y0386000D03*
X0509268Y0386000D03*
X0426000Y0174268D03*
X0426000Y0148677D03*
X0386000Y0148677D03*
X0386000Y0174268D03*
D20*
X0466000Y0031000D03*
X0476000Y0031000D03*
X0501000Y0031000D03*
X0511000Y0031000D03*
X0236000Y0331000D03*
X0236000Y0361000D03*
X0236000Y0391000D03*
X0436000Y0376000D03*
X0436000Y0361000D03*
X0436000Y0346000D03*
D21*
X0436000Y0331000D03*
X0436000Y0391000D03*
D22*
X0364750Y0303500D03*
X0364750Y0228500D03*
X0314750Y0228500D03*
X0302250Y0228500D03*
X0289750Y0228500D03*
X0294750Y0208500D03*
X0227250Y0228500D03*
X0157250Y0208500D03*
X0157250Y0133500D03*
X0219750Y0133500D03*
X0232250Y0133500D03*
X0244750Y0133500D03*
X0247250Y0103500D03*
X0294750Y0133500D03*
X0384750Y0103500D03*
X0384750Y0028500D03*
X0334750Y0028500D03*
X0322250Y0028500D03*
X0309750Y0028500D03*
X0247250Y0028500D03*
X0227250Y0303500D03*
D23*
X0346000Y0188969D02*
X0346000Y0183031D01*
X0356000Y0183031D02*
X0356000Y0188969D01*
X0401000Y0213031D02*
X0401000Y0218969D01*
X0411000Y0218969D02*
X0411000Y0213031D01*
X0486000Y0313031D02*
X0486000Y0318969D01*
X0496000Y0318969D02*
X0496000Y0313031D01*
X0436000Y0083969D02*
X0436000Y0078031D01*
X0426000Y0078031D02*
X0426000Y0083969D01*
D24*
X0011000Y0021000D02*
X0011000Y0216000D01*
X0126000Y0216000D01*
X0126000Y0151000D01*
X0133885Y0143115D01*
X0133885Y0141263D01*
X0135737Y0141263D01*
X0136000Y0141000D01*
X0140225Y0141000D01*
X0140225Y0139713D01*
X0141775Y0139713D01*
X0141775Y0135539D01*
X0146552Y0135539D01*
X0147010Y0135661D01*
X0147420Y0135898D01*
X0147755Y0136233D01*
X0147992Y0136644D01*
X0148115Y0137102D01*
X0148115Y0139713D01*
X0141775Y0139713D01*
X0141775Y0141000D01*
X0166000Y0141000D01*
X0206000Y0101000D01*
X0206000Y0061000D01*
X0221000Y0041000D01*
X0256000Y0041000D01*
X0256000Y0021000D01*
X0011000Y0021000D01*
X0011000Y0021781D02*
X0256000Y0021781D01*
X0256000Y0023379D02*
X0250580Y0023379D01*
X0250447Y0023283D02*
X0251224Y0023847D01*
X0251903Y0024526D01*
X0252467Y0025303D01*
X0252903Y0026158D01*
X0253200Y0027072D01*
X0253335Y0027925D01*
X0247825Y0027925D01*
X0247825Y0029075D01*
X0246675Y0029075D01*
X0246675Y0034585D01*
X0245822Y0034450D01*
X0244908Y0034153D01*
X0244053Y0033717D01*
X0243276Y0033153D01*
X0242597Y0032474D01*
X0242033Y0031697D01*
X0241597Y0030842D01*
X0241300Y0029928D01*
X0241165Y0029075D01*
X0246675Y0029075D01*
X0246675Y0027925D01*
X0241165Y0027925D01*
X0241300Y0027072D01*
X0241597Y0026158D01*
X0242033Y0025303D01*
X0242597Y0024526D01*
X0243276Y0023847D01*
X0244053Y0023283D01*
X0244908Y0022847D01*
X0245822Y0022550D01*
X0246675Y0022415D01*
X0246675Y0027925D01*
X0247825Y0027925D01*
X0247825Y0022415D01*
X0248678Y0022550D01*
X0249592Y0022847D01*
X0250447Y0023283D01*
X0252231Y0024978D02*
X0256000Y0024978D01*
X0256000Y0026576D02*
X0253039Y0026576D01*
X0253335Y0029075D02*
X0253200Y0029928D01*
X0252903Y0030842D01*
X0252467Y0031697D01*
X0251903Y0032474D01*
X0251224Y0033153D01*
X0250447Y0033717D01*
X0249592Y0034153D01*
X0248678Y0034450D01*
X0247825Y0034585D01*
X0247825Y0029075D01*
X0253335Y0029075D01*
X0253224Y0029773D02*
X0256000Y0029773D01*
X0256000Y0028175D02*
X0247825Y0028175D01*
X0246675Y0028175D02*
X0095960Y0028175D01*
X0096213Y0028334D02*
X0097063Y0029012D01*
X0097831Y0029780D01*
X0098508Y0030629D01*
X0099087Y0031549D01*
X0099558Y0032528D01*
X0099917Y0033554D01*
X0100159Y0034613D01*
X0100251Y0035436D01*
X0091406Y0035436D01*
X0091406Y0026591D01*
X0092229Y0026684D01*
X0093289Y0026926D01*
X0094314Y0027285D01*
X0095293Y0027756D01*
X0096213Y0028334D01*
X0097824Y0029773D02*
X0241276Y0029773D01*
X0241867Y0031372D02*
X0237835Y0031372D01*
X0237755Y0031233D02*
X0237992Y0031644D01*
X0238115Y0032102D01*
X0238115Y0034713D01*
X0231775Y0034713D01*
X0231775Y0030539D01*
X0236552Y0030539D01*
X0237010Y0030661D01*
X0237420Y0030898D01*
X0237755Y0031233D01*
X0238115Y0032970D02*
X0243094Y0032970D01*
X0246675Y0032970D02*
X0247825Y0032970D01*
X0247825Y0031372D02*
X0246675Y0031372D01*
X0246675Y0029773D02*
X0247825Y0029773D01*
X0247825Y0026576D02*
X0246675Y0026576D01*
X0246675Y0024978D02*
X0247825Y0024978D01*
X0247825Y0023379D02*
X0246675Y0023379D01*
X0243920Y0023379D02*
X0011000Y0023379D01*
X0011000Y0024978D02*
X0242269Y0024978D01*
X0241461Y0026576D02*
X0011000Y0026576D01*
X0011000Y0028175D02*
X0085253Y0028175D01*
X0084999Y0028334D02*
X0085919Y0027756D01*
X0086898Y0027285D01*
X0087924Y0026926D01*
X0088983Y0026684D01*
X0089806Y0026591D01*
X0089806Y0035436D01*
X0080961Y0035436D01*
X0081054Y0034613D01*
X0081296Y0033554D01*
X0081655Y0032528D01*
X0082126Y0031549D01*
X0082704Y0030629D01*
X0083382Y0029780D01*
X0084150Y0029012D01*
X0084999Y0028334D01*
X0083388Y0029773D02*
X0011000Y0029773D01*
X0011000Y0031372D02*
X0082238Y0031372D01*
X0081500Y0032970D02*
X0011000Y0032970D01*
X0011000Y0034569D02*
X0081064Y0034569D01*
X0080961Y0037036D02*
X0089806Y0037036D01*
X0089806Y0035436D01*
X0091406Y0035436D01*
X0091406Y0037036D01*
X0089806Y0037036D01*
X0089806Y0045881D01*
X0088983Y0045789D01*
X0087924Y0045547D01*
X0086898Y0045188D01*
X0085919Y0044716D01*
X0084999Y0044138D01*
X0084150Y0043461D01*
X0083382Y0042693D01*
X0082704Y0041843D01*
X0082126Y0040923D01*
X0081655Y0039944D01*
X0081296Y0038919D01*
X0081054Y0037859D01*
X0080961Y0037036D01*
X0081043Y0037766D02*
X0011000Y0037766D01*
X0011000Y0039364D02*
X0081452Y0039364D01*
X0082151Y0040963D02*
X0011000Y0040963D01*
X0011000Y0042561D02*
X0083277Y0042561D01*
X0085033Y0044160D02*
X0011000Y0044160D01*
X0011000Y0045758D02*
X0088851Y0045758D01*
X0089806Y0045758D02*
X0091406Y0045758D01*
X0091406Y0045881D02*
X0092229Y0045789D01*
X0093289Y0045547D01*
X0094314Y0045188D01*
X0095293Y0044716D01*
X0096213Y0044138D01*
X0097063Y0043461D01*
X0097831Y0042693D01*
X0098508Y0041843D01*
X0099087Y0040923D01*
X0099558Y0039944D01*
X0099917Y0038919D01*
X0100159Y0037859D01*
X0100251Y0037036D01*
X0091406Y0037036D01*
X0091406Y0045881D01*
X0092362Y0045758D02*
X0142601Y0045758D01*
X0142756Y0046081D02*
X0142285Y0045102D01*
X0141926Y0044076D01*
X0141684Y0043017D01*
X0141591Y0042194D01*
X0150436Y0042194D01*
X0150436Y0051039D01*
X0149613Y0050946D01*
X0148554Y0050704D01*
X0147528Y0050345D01*
X0146549Y0049874D01*
X0145629Y0049296D01*
X0144780Y0048618D01*
X0144012Y0047850D01*
X0143334Y0047001D01*
X0142756Y0046081D01*
X0143618Y0047357D02*
X0011000Y0047357D01*
X0011000Y0048955D02*
X0145202Y0048955D01*
X0148124Y0050554D02*
X0011000Y0050554D01*
X0011000Y0052152D02*
X0212636Y0052152D01*
X0213835Y0050554D02*
X0154348Y0050554D01*
X0153919Y0050704D02*
X0152859Y0050946D01*
X0152036Y0051039D01*
X0152036Y0042194D01*
X0150436Y0042194D01*
X0150436Y0040594D01*
X0141591Y0040594D01*
X0141684Y0039771D01*
X0141926Y0038711D01*
X0142285Y0037686D01*
X0142756Y0036707D01*
X0143334Y0035787D01*
X0144012Y0034937D01*
X0144780Y0034169D01*
X0145629Y0033492D01*
X0146549Y0032913D01*
X0147528Y0032442D01*
X0148554Y0032083D01*
X0149613Y0031841D01*
X0150436Y0031749D01*
X0150436Y0040594D01*
X0152036Y0040594D01*
X0152036Y0042194D01*
X0160881Y0042194D01*
X0160789Y0043017D01*
X0160547Y0044076D01*
X0160188Y0045102D01*
X0159716Y0046081D01*
X0159138Y0047001D01*
X0158461Y0047850D01*
X0157693Y0048618D01*
X0156843Y0049296D01*
X0155923Y0049874D01*
X0154944Y0050345D01*
X0153919Y0050704D01*
X0152036Y0050554D02*
X0150436Y0050554D01*
X0150436Y0048955D02*
X0152036Y0048955D01*
X0152036Y0047357D02*
X0150436Y0047357D01*
X0150436Y0045758D02*
X0152036Y0045758D01*
X0152036Y0044160D02*
X0150436Y0044160D01*
X0150436Y0042561D02*
X0152036Y0042561D01*
X0152036Y0040963D02*
X0256000Y0040963D01*
X0256000Y0039364D02*
X0237974Y0039364D01*
X0237992Y0039333D02*
X0237755Y0039743D01*
X0237420Y0040078D01*
X0237010Y0040315D01*
X0236552Y0040438D01*
X0231775Y0040438D01*
X0231775Y0036263D01*
X0238115Y0036263D01*
X0238115Y0038875D01*
X0237992Y0039333D01*
X0238115Y0037766D02*
X0256000Y0037766D01*
X0256000Y0036167D02*
X0231775Y0036167D01*
X0231775Y0036263D02*
X0231775Y0034713D01*
X0230225Y0034713D01*
X0230225Y0030539D01*
X0225448Y0030539D01*
X0224990Y0030661D01*
X0224580Y0030898D01*
X0224245Y0031233D01*
X0224008Y0031644D01*
X0223885Y0032102D01*
X0223885Y0034713D01*
X0230225Y0034713D01*
X0230225Y0036263D01*
X0223885Y0036263D01*
X0223885Y0038875D01*
X0224008Y0039333D01*
X0224245Y0039743D01*
X0224580Y0040078D01*
X0224990Y0040315D01*
X0225448Y0040438D01*
X0230225Y0040438D01*
X0230225Y0036263D01*
X0231775Y0036263D01*
X0231775Y0037766D02*
X0230225Y0037766D01*
X0230225Y0039364D02*
X0231775Y0039364D01*
X0230225Y0036167D02*
X0159377Y0036167D01*
X0159138Y0035787D02*
X0159716Y0036707D01*
X0160188Y0037686D01*
X0160547Y0038711D01*
X0160789Y0039771D01*
X0160881Y0040594D01*
X0152036Y0040594D01*
X0152036Y0031749D01*
X0152859Y0031841D01*
X0153919Y0032083D01*
X0154944Y0032442D01*
X0155923Y0032913D01*
X0156843Y0033492D01*
X0157693Y0034169D01*
X0158461Y0034937D01*
X0159138Y0035787D01*
X0158092Y0034569D02*
X0223885Y0034569D01*
X0223885Y0032970D02*
X0156013Y0032970D01*
X0152036Y0032970D02*
X0150436Y0032970D01*
X0150436Y0034569D02*
X0152036Y0034569D01*
X0152036Y0036167D02*
X0150436Y0036167D01*
X0150436Y0037766D02*
X0152036Y0037766D01*
X0152036Y0039364D02*
X0150436Y0039364D01*
X0150436Y0040963D02*
X0099062Y0040963D01*
X0099761Y0039364D02*
X0141777Y0039364D01*
X0142257Y0037766D02*
X0100169Y0037766D01*
X0100148Y0034569D02*
X0144380Y0034569D01*
X0143095Y0036167D02*
X0091406Y0036167D01*
X0091406Y0034569D02*
X0089806Y0034569D01*
X0089806Y0036167D02*
X0011000Y0036167D01*
X0011000Y0053751D02*
X0211437Y0053751D01*
X0210238Y0055349D02*
X0011000Y0055349D01*
X0011000Y0056948D02*
X0036875Y0056948D01*
X0035801Y0057393D02*
X0039430Y0055890D01*
X0043358Y0055890D01*
X0046987Y0057393D01*
X0049764Y0060171D01*
X0051268Y0063800D01*
X0051268Y0067728D01*
X0049764Y0071357D01*
X0046987Y0074135D01*
X0043358Y0075638D01*
X0039430Y0075638D01*
X0035801Y0074135D01*
X0033023Y0071357D01*
X0031520Y0067728D01*
X0031520Y0063800D01*
X0033023Y0060171D01*
X0035801Y0057393D01*
X0034647Y0058546D02*
X0011000Y0058546D01*
X0011000Y0060145D02*
X0033049Y0060145D01*
X0032371Y0061743D02*
X0011000Y0061743D01*
X0011000Y0063342D02*
X0031709Y0063342D01*
X0031520Y0064940D02*
X0011000Y0064940D01*
X0011000Y0066539D02*
X0031520Y0066539D01*
X0031689Y0068137D02*
X0011000Y0068137D01*
X0011000Y0069736D02*
X0032351Y0069736D01*
X0033014Y0071334D02*
X0011000Y0071334D01*
X0011000Y0072933D02*
X0034599Y0072933D01*
X0036759Y0074532D02*
X0011000Y0074532D01*
X0011000Y0076130D02*
X0206000Y0076130D01*
X0206000Y0074532D02*
X0046029Y0074532D01*
X0048188Y0072933D02*
X0206000Y0072933D01*
X0206000Y0071334D02*
X0049774Y0071334D01*
X0050436Y0069736D02*
X0206000Y0069736D01*
X0206000Y0068137D02*
X0051098Y0068137D01*
X0051268Y0066539D02*
X0206000Y0066539D01*
X0206000Y0064940D02*
X0051268Y0064940D01*
X0051078Y0063342D02*
X0206000Y0063342D01*
X0206000Y0061743D02*
X0050416Y0061743D01*
X0049739Y0060145D02*
X0206641Y0060145D01*
X0207840Y0058546D02*
X0048140Y0058546D01*
X0045912Y0056948D02*
X0209039Y0056948D01*
X0215033Y0048955D02*
X0157270Y0048955D01*
X0158854Y0047357D02*
X0216232Y0047357D01*
X0217431Y0045758D02*
X0159872Y0045758D01*
X0160517Y0044160D02*
X0218630Y0044160D01*
X0219829Y0042561D02*
X0160840Y0042561D01*
X0160696Y0039364D02*
X0224026Y0039364D01*
X0223885Y0037766D02*
X0160216Y0037766D01*
X0146459Y0032970D02*
X0099713Y0032970D01*
X0098975Y0031372D02*
X0224165Y0031372D01*
X0230225Y0031372D02*
X0231775Y0031372D01*
X0231775Y0032970D02*
X0230225Y0032970D01*
X0230225Y0034569D02*
X0231775Y0034569D01*
X0238115Y0034569D02*
X0246573Y0034569D01*
X0246675Y0034569D02*
X0247825Y0034569D01*
X0247927Y0034569D02*
X0256000Y0034569D01*
X0256000Y0032970D02*
X0251406Y0032970D01*
X0252633Y0031372D02*
X0256000Y0031372D01*
X0206000Y0077729D02*
X0011000Y0077729D01*
X0011000Y0079327D02*
X0206000Y0079327D01*
X0206000Y0080926D02*
X0183194Y0080926D01*
X0182728Y0080732D02*
X0186357Y0082236D01*
X0189135Y0085013D01*
X0190638Y0088642D01*
X0190638Y0092570D01*
X0189135Y0096199D01*
X0186357Y0098977D01*
X0182728Y0100480D01*
X0178800Y0100480D01*
X0175171Y0098977D01*
X0172393Y0096199D01*
X0170890Y0092570D01*
X0170890Y0088642D01*
X0172393Y0085013D01*
X0175171Y0082236D01*
X0178800Y0080732D01*
X0182728Y0080732D01*
X0186646Y0082524D02*
X0206000Y0082524D01*
X0206000Y0084123D02*
X0188244Y0084123D01*
X0189428Y0085721D02*
X0206000Y0085721D01*
X0206000Y0087320D02*
X0190090Y0087320D01*
X0190638Y0088918D02*
X0206000Y0088918D01*
X0206000Y0090517D02*
X0190638Y0090517D01*
X0190638Y0092115D02*
X0206000Y0092115D01*
X0206000Y0093714D02*
X0190164Y0093714D01*
X0189502Y0095312D02*
X0206000Y0095312D01*
X0206000Y0096911D02*
X0188423Y0096911D01*
X0186825Y0098509D02*
X0206000Y0098509D01*
X0206000Y0100108D02*
X0183627Y0100108D01*
X0177900Y0100108D02*
X0098092Y0100108D01*
X0097831Y0099780D02*
X0098508Y0100629D01*
X0099087Y0101549D01*
X0099558Y0102528D01*
X0099917Y0103554D01*
X0100159Y0104613D01*
X0100251Y0105436D01*
X0091406Y0105436D01*
X0091406Y0096591D01*
X0092229Y0096684D01*
X0093289Y0096926D01*
X0094314Y0097285D01*
X0095293Y0097756D01*
X0096213Y0098334D01*
X0097063Y0099012D01*
X0097831Y0099780D01*
X0096433Y0098509D02*
X0174703Y0098509D01*
X0173104Y0096911D02*
X0093223Y0096911D01*
X0091406Y0096911D02*
X0089806Y0096911D01*
X0089806Y0096591D02*
X0089806Y0105436D01*
X0080961Y0105436D01*
X0081054Y0104613D01*
X0081296Y0103554D01*
X0081655Y0102528D01*
X0082126Y0101549D01*
X0082704Y0100629D01*
X0083382Y0099780D01*
X0084150Y0099012D01*
X0084999Y0098334D01*
X0085919Y0097756D01*
X0086898Y0097285D01*
X0087924Y0096926D01*
X0088983Y0096684D01*
X0089806Y0096591D01*
X0087989Y0096911D02*
X0011000Y0096911D01*
X0011000Y0098509D02*
X0084780Y0098509D01*
X0083120Y0100108D02*
X0011000Y0100108D01*
X0011000Y0101706D02*
X0082050Y0101706D01*
X0081383Y0103305D02*
X0011000Y0103305D01*
X0011000Y0104903D02*
X0081021Y0104903D01*
X0080961Y0107036D02*
X0089806Y0107036D01*
X0089806Y0105436D01*
X0091406Y0105436D01*
X0091406Y0107036D01*
X0089806Y0107036D01*
X0089806Y0115881D01*
X0088983Y0115789D01*
X0087924Y0115547D01*
X0086898Y0115188D01*
X0085919Y0114716D01*
X0084999Y0114138D01*
X0084150Y0113461D01*
X0083382Y0112693D01*
X0082704Y0111843D01*
X0082126Y0110923D01*
X0081655Y0109944D01*
X0081296Y0108919D01*
X0081054Y0107859D01*
X0080961Y0107036D01*
X0081109Y0108100D02*
X0011000Y0108100D01*
X0011000Y0106502D02*
X0089806Y0106502D01*
X0089806Y0108100D02*
X0091406Y0108100D01*
X0091406Y0107036D02*
X0091406Y0115881D01*
X0092229Y0115789D01*
X0093289Y0115547D01*
X0094314Y0115188D01*
X0095293Y0114716D01*
X0096213Y0114138D01*
X0097063Y0113461D01*
X0097831Y0112693D01*
X0098508Y0111843D01*
X0099087Y0110923D01*
X0099558Y0109944D01*
X0099917Y0108919D01*
X0100159Y0107859D01*
X0100251Y0107036D01*
X0091406Y0107036D01*
X0091406Y0106502D02*
X0200498Y0106502D01*
X0198900Y0108100D02*
X0100104Y0108100D01*
X0099644Y0109699D02*
X0197301Y0109699D01*
X0195703Y0111297D02*
X0098851Y0111297D01*
X0097628Y0112896D02*
X0194104Y0112896D01*
X0192506Y0114494D02*
X0095647Y0114494D01*
X0091406Y0114494D02*
X0089806Y0114494D01*
X0089806Y0112896D02*
X0091406Y0112896D01*
X0091406Y0111297D02*
X0089806Y0111297D01*
X0089806Y0109699D02*
X0091406Y0109699D01*
X0091406Y0104903D02*
X0089806Y0104903D01*
X0089806Y0103305D02*
X0091406Y0103305D01*
X0091406Y0101706D02*
X0089806Y0101706D01*
X0089806Y0100108D02*
X0091406Y0100108D01*
X0091406Y0098509D02*
X0089806Y0098509D01*
X0099162Y0101706D02*
X0205294Y0101706D01*
X0203695Y0103305D02*
X0099830Y0103305D01*
X0100191Y0104903D02*
X0202097Y0104903D01*
X0190907Y0116093D02*
X0011000Y0116093D01*
X0011000Y0117691D02*
X0189309Y0117691D01*
X0187710Y0119290D02*
X0011000Y0119290D01*
X0011000Y0120888D02*
X0186112Y0120888D01*
X0184513Y0122487D02*
X0011000Y0122487D01*
X0011000Y0124085D02*
X0182915Y0124085D01*
X0181316Y0125684D02*
X0011000Y0125684D01*
X0011000Y0127282D02*
X0036068Y0127282D01*
X0035801Y0127393D02*
X0039430Y0125890D01*
X0043358Y0125890D01*
X0046987Y0127393D01*
X0049764Y0130171D01*
X0051268Y0133800D01*
X0051268Y0137728D01*
X0049764Y0141357D01*
X0046987Y0144135D01*
X0043358Y0145638D01*
X0039430Y0145638D01*
X0035801Y0144135D01*
X0033023Y0141357D01*
X0031520Y0137728D01*
X0031520Y0133800D01*
X0033023Y0130171D01*
X0035801Y0127393D01*
X0034313Y0128881D02*
X0011000Y0128881D01*
X0011000Y0130479D02*
X0032895Y0130479D01*
X0032233Y0132078D02*
X0011000Y0132078D01*
X0011000Y0133676D02*
X0031571Y0133676D01*
X0031520Y0135275D02*
X0011000Y0135275D01*
X0011000Y0136873D02*
X0031520Y0136873D01*
X0031828Y0138472D02*
X0011000Y0138472D01*
X0011000Y0140070D02*
X0032490Y0140070D01*
X0033335Y0141669D02*
X0011000Y0141669D01*
X0011000Y0143268D02*
X0034933Y0143268D01*
X0037566Y0144866D02*
X0011000Y0144866D01*
X0011000Y0146465D02*
X0130535Y0146465D01*
X0128937Y0148063D02*
X0011000Y0148063D01*
X0011000Y0149662D02*
X0127338Y0149662D01*
X0126000Y0151260D02*
X0011000Y0151260D01*
X0011000Y0152859D02*
X0126000Y0152859D01*
X0126000Y0154457D02*
X0011000Y0154457D01*
X0011000Y0156056D02*
X0126000Y0156056D01*
X0126000Y0157654D02*
X0011000Y0157654D01*
X0011000Y0159253D02*
X0126000Y0159253D01*
X0126000Y0160851D02*
X0011000Y0160851D01*
X0011000Y0162450D02*
X0126000Y0162450D01*
X0126000Y0164048D02*
X0011000Y0164048D01*
X0011000Y0165647D02*
X0126000Y0165647D01*
X0126000Y0167245D02*
X0011000Y0167245D01*
X0011000Y0168844D02*
X0126000Y0168844D01*
X0126000Y0170442D02*
X0011000Y0170442D01*
X0011000Y0172041D02*
X0126000Y0172041D01*
X0126000Y0173639D02*
X0011000Y0173639D01*
X0011000Y0175238D02*
X0126000Y0175238D01*
X0126000Y0176836D02*
X0011000Y0176836D01*
X0011000Y0178435D02*
X0126000Y0178435D01*
X0126000Y0180033D02*
X0075666Y0180033D01*
X0074597Y0179591D02*
X0077170Y0180656D01*
X0079139Y0182625D01*
X0080205Y0185198D01*
X0080205Y0187983D01*
X0079139Y0190556D01*
X0077170Y0192525D01*
X0075671Y0193146D01*
X0077170Y0193766D01*
X0079139Y0195736D01*
X0080205Y0198308D01*
X0080205Y0201093D01*
X0079139Y0203666D01*
X0077170Y0205635D01*
X0074597Y0206701D01*
X0071812Y0206701D01*
X0069240Y0205635D01*
X0067270Y0203666D01*
X0066205Y0201093D01*
X0066205Y0198308D01*
X0067270Y0195736D01*
X0069240Y0193766D01*
X0070738Y0193146D01*
X0069240Y0192525D01*
X0067270Y0190556D01*
X0066205Y0187983D01*
X0066205Y0185198D01*
X0067270Y0182625D01*
X0069240Y0180656D01*
X0071812Y0179591D01*
X0074597Y0179591D01*
X0070744Y0180033D02*
X0026453Y0180033D01*
X0025385Y0179591D02*
X0027957Y0180656D01*
X0029926Y0182625D01*
X0030992Y0185198D01*
X0030992Y0187983D01*
X0029926Y0190556D01*
X0027957Y0192525D01*
X0026459Y0193146D01*
X0027957Y0193766D01*
X0029926Y0195736D01*
X0030992Y0198308D01*
X0030992Y0201093D01*
X0029926Y0203666D01*
X0027957Y0205635D01*
X0025385Y0206701D01*
X0022600Y0206701D01*
X0020027Y0205635D01*
X0018058Y0203666D01*
X0016992Y0201093D01*
X0016992Y0198308D01*
X0018058Y0195736D01*
X0020027Y0193766D01*
X0021526Y0193146D01*
X0020027Y0192525D01*
X0018058Y0190556D01*
X0016992Y0187983D01*
X0016992Y0185198D01*
X0018058Y0182625D01*
X0020027Y0180656D01*
X0022600Y0179591D01*
X0025385Y0179591D01*
X0021531Y0180033D02*
X0011000Y0180033D01*
X0011000Y0181632D02*
X0019051Y0181632D01*
X0017807Y0183230D02*
X0011000Y0183230D01*
X0011000Y0184829D02*
X0017145Y0184829D01*
X0016992Y0186427D02*
X0011000Y0186427D01*
X0011000Y0188026D02*
X0017010Y0188026D01*
X0017672Y0189624D02*
X0011000Y0189624D01*
X0011000Y0191223D02*
X0018725Y0191223D01*
X0020743Y0192821D02*
X0011000Y0192821D01*
X0011000Y0194420D02*
X0019374Y0194420D01*
X0017941Y0196018D02*
X0011000Y0196018D01*
X0011000Y0197617D02*
X0017279Y0197617D01*
X0016992Y0199215D02*
X0011000Y0199215D01*
X0011000Y0200814D02*
X0016992Y0200814D01*
X0017539Y0202412D02*
X0011000Y0202412D01*
X0011000Y0204011D02*
X0018403Y0204011D01*
X0020001Y0205609D02*
X0011000Y0205609D01*
X0011000Y0207208D02*
X0126000Y0207208D01*
X0126000Y0208806D02*
X0011000Y0208806D01*
X0011000Y0210405D02*
X0126000Y0210405D01*
X0126000Y0212003D02*
X0011000Y0212003D01*
X0011000Y0213602D02*
X0126000Y0213602D01*
X0126000Y0215201D02*
X0011000Y0215201D01*
X0016000Y0215201D02*
X0145201Y0215201D01*
X0146799Y0216799D02*
X0016000Y0216799D01*
X0016000Y0218398D02*
X0148398Y0218398D01*
X0149996Y0219996D02*
X0076474Y0219996D01*
X0076219Y0219849D02*
X0076991Y0220295D01*
X0077698Y0220837D01*
X0078328Y0221467D01*
X0078871Y0222175D01*
X0079317Y0222947D01*
X0079658Y0223770D01*
X0079888Y0224631D01*
X0079961Y0225186D01*
X0073980Y0225186D01*
X0073980Y0226735D01*
X0079961Y0226735D01*
X0079888Y0227290D01*
X0079658Y0228151D01*
X0079317Y0228975D01*
X0078871Y0229747D01*
X0078328Y0230454D01*
X0077698Y0231084D01*
X0076991Y0231627D01*
X0076219Y0232072D01*
X0075395Y0232414D01*
X0075014Y0232516D01*
X0075395Y0232618D01*
X0076219Y0232959D01*
X0076991Y0233405D01*
X0077698Y0233947D01*
X0078328Y0234578D01*
X0078871Y0235285D01*
X0079317Y0236057D01*
X0079658Y0236880D01*
X0079888Y0237741D01*
X0079961Y0238296D01*
X0073980Y0238296D01*
X0073980Y0239846D01*
X0079961Y0239846D01*
X0079888Y0240400D01*
X0079658Y0241261D01*
X0079317Y0242085D01*
X0078871Y0242857D01*
X0078328Y0243564D01*
X0077698Y0244194D01*
X0076991Y0244737D01*
X0076219Y0245183D01*
X0075395Y0245524D01*
X0074534Y0245755D01*
X0073980Y0245828D01*
X0073980Y0239846D01*
X0072430Y0239846D01*
X0072430Y0245828D01*
X0071875Y0245755D01*
X0071014Y0245524D01*
X0070191Y0245183D01*
X0069419Y0244737D01*
X0068712Y0244194D01*
X0068081Y0243564D01*
X0067539Y0242857D01*
X0067093Y0242085D01*
X0066752Y0241261D01*
X0066521Y0240400D01*
X0066448Y0239846D01*
X0072430Y0239846D01*
X0072430Y0238296D01*
X0073980Y0238296D01*
X0073980Y0226736D01*
X0072430Y0226736D01*
X0072430Y0232717D01*
X0072430Y0238296D01*
X0066448Y0238296D01*
X0066521Y0237741D01*
X0066752Y0236880D01*
X0067093Y0236057D01*
X0067539Y0235285D01*
X0068081Y0234578D01*
X0068712Y0233947D01*
X0069419Y0233405D01*
X0070191Y0232959D01*
X0071014Y0232618D01*
X0071396Y0232516D01*
X0071014Y0232414D01*
X0070191Y0232072D01*
X0069419Y0231627D01*
X0068712Y0231084D01*
X0068081Y0230454D01*
X0067539Y0229747D01*
X0067093Y0228975D01*
X0066752Y0228151D01*
X0066521Y0227290D01*
X0066448Y0226735D01*
X0072430Y0226735D01*
X0072430Y0225186D01*
X0066448Y0225186D01*
X0066521Y0224631D01*
X0066752Y0223770D01*
X0067093Y0222947D01*
X0067539Y0222175D01*
X0068081Y0221467D01*
X0068712Y0220837D01*
X0069419Y0220295D01*
X0070191Y0219849D01*
X0071014Y0219508D01*
X0071875Y0219277D01*
X0072430Y0219204D01*
X0072430Y0225186D01*
X0073980Y0225186D01*
X0073980Y0219204D01*
X0074534Y0219277D01*
X0075395Y0219508D01*
X0076219Y0219849D01*
X0073980Y0219996D02*
X0072430Y0219996D01*
X0072430Y0221595D02*
X0073980Y0221595D01*
X0073980Y0223193D02*
X0072430Y0223193D01*
X0072430Y0224792D02*
X0073980Y0224792D01*
X0073980Y0226390D02*
X0221522Y0226390D01*
X0221597Y0226158D02*
X0222033Y0225303D01*
X0222597Y0224526D01*
X0223276Y0223847D01*
X0224053Y0223283D01*
X0224908Y0222847D01*
X0225822Y0222550D01*
X0226675Y0222415D01*
X0226675Y0227925D01*
X0221165Y0227925D01*
X0221300Y0227072D01*
X0221597Y0226158D01*
X0222404Y0224792D02*
X0079909Y0224792D01*
X0079419Y0223193D02*
X0224229Y0223193D01*
X0226675Y0223193D02*
X0227825Y0223193D01*
X0227825Y0222415D02*
X0228678Y0222550D01*
X0229592Y0222847D01*
X0230447Y0223283D01*
X0231224Y0223847D01*
X0231903Y0224526D01*
X0232467Y0225303D01*
X0232903Y0226158D01*
X0233200Y0227072D01*
X0233335Y0227925D01*
X0227825Y0227925D01*
X0227825Y0229075D01*
X0226675Y0229075D01*
X0226675Y0234585D01*
X0225822Y0234450D01*
X0224908Y0234153D01*
X0224053Y0233717D01*
X0223276Y0233153D01*
X0222597Y0232474D01*
X0222033Y0231697D01*
X0221597Y0230842D01*
X0221300Y0229928D01*
X0221165Y0229075D01*
X0226675Y0229075D01*
X0226675Y0227925D01*
X0227825Y0227925D01*
X0227825Y0222415D01*
X0227825Y0224792D02*
X0226675Y0224792D01*
X0226675Y0226390D02*
X0227825Y0226390D01*
X0227825Y0227989D02*
X0236000Y0227989D01*
X0236000Y0229587D02*
X0233254Y0229587D01*
X0233200Y0229928D02*
X0232903Y0230842D01*
X0232467Y0231697D01*
X0231903Y0232474D01*
X0231224Y0233153D01*
X0230447Y0233717D01*
X0229592Y0234153D01*
X0228678Y0234450D01*
X0227825Y0234585D01*
X0227825Y0229075D01*
X0233335Y0229075D01*
X0233200Y0229928D01*
X0232728Y0231186D02*
X0236000Y0231186D01*
X0236000Y0232784D02*
X0231593Y0232784D01*
X0228885Y0234383D02*
X0236000Y0234383D01*
X0236000Y0235981D02*
X0211775Y0235981D01*
X0211775Y0236000D02*
X0236000Y0236000D01*
X0236000Y0221000D01*
X0151000Y0221000D01*
X0141000Y0211000D01*
X0016000Y0211000D01*
X0016000Y0396000D01*
X0021000Y0401000D01*
X0051000Y0401000D01*
X0056000Y0396000D01*
X0233919Y0396000D01*
X0233170Y0395618D01*
X0232482Y0395119D01*
X0231881Y0394518D01*
X0231382Y0393830D01*
X0230996Y0393073D01*
X0230733Y0392265D01*
X0230600Y0391425D01*
X0230600Y0391400D01*
X0235600Y0391400D01*
X0235600Y0390600D01*
X0236400Y0390600D01*
X0236400Y0385600D01*
X0236425Y0385600D01*
X0237265Y0385733D01*
X0238073Y0385996D01*
X0238830Y0386382D01*
X0239518Y0386881D01*
X0240119Y0387482D01*
X0240618Y0388170D01*
X0241000Y0388919D01*
X0241000Y0386000D01*
X0217913Y0367531D01*
X0217992Y0367667D01*
X0218115Y0368125D01*
X0218115Y0370737D01*
X0211775Y0370737D01*
X0211775Y0372287D01*
X0210225Y0372287D01*
X0210225Y0376461D01*
X0205448Y0376461D01*
X0204990Y0376339D01*
X0204580Y0376102D01*
X0204245Y0375767D01*
X0204008Y0375356D01*
X0203885Y0374898D01*
X0203885Y0372287D01*
X0210225Y0372287D01*
X0210225Y0370737D01*
X0203885Y0370737D01*
X0203885Y0368125D01*
X0204008Y0367667D01*
X0204245Y0367257D01*
X0204580Y0366922D01*
X0204990Y0366685D01*
X0205448Y0366562D01*
X0210225Y0366562D01*
X0210225Y0370737D01*
X0211775Y0370737D01*
X0211775Y0366562D01*
X0216552Y0366562D01*
X0216779Y0366623D01*
X0216000Y0366000D01*
X0201000Y0366000D01*
X0181000Y0341000D01*
X0181000Y0251000D01*
X0196000Y0236000D01*
X0196000Y0252547D01*
X0196000Y0259453D02*
X0196000Y0272260D01*
X0196000Y0279740D02*
X0203510Y0287250D01*
X0211000Y0287250D01*
X0181000Y0287134D02*
X0095480Y0287134D01*
X0095480Y0288200D02*
X0093977Y0291829D01*
X0091199Y0294607D01*
X0087570Y0296110D01*
X0083642Y0296110D01*
X0080013Y0294607D01*
X0077236Y0291829D01*
X0075732Y0288200D01*
X0075732Y0284272D01*
X0077236Y0280643D01*
X0080013Y0277865D01*
X0083642Y0276362D01*
X0087570Y0276362D01*
X0091199Y0277865D01*
X0093977Y0280643D01*
X0095480Y0284272D01*
X0095480Y0288200D01*
X0095260Y0288732D02*
X0181000Y0288732D01*
X0181000Y0290331D02*
X0094598Y0290331D01*
X0093877Y0291929D02*
X0181000Y0291929D01*
X0181000Y0293528D02*
X0092279Y0293528D01*
X0089946Y0295126D02*
X0181000Y0295126D01*
X0181000Y0296725D02*
X0016000Y0296725D01*
X0016000Y0298323D02*
X0181000Y0298323D01*
X0181000Y0299922D02*
X0016000Y0299922D01*
X0016000Y0301520D02*
X0181000Y0301520D01*
X0181000Y0303119D02*
X0016000Y0303119D01*
X0016000Y0304717D02*
X0181000Y0304717D01*
X0181000Y0306316D02*
X0038473Y0306316D01*
X0038017Y0306211D02*
X0039076Y0306453D01*
X0040102Y0306812D01*
X0041081Y0307284D01*
X0042001Y0307862D01*
X0042850Y0308539D01*
X0043618Y0309307D01*
X0044296Y0310157D01*
X0044874Y0311077D01*
X0045345Y0312056D01*
X0045704Y0313081D01*
X0045946Y0314141D01*
X0046039Y0314964D01*
X0037194Y0314964D01*
X0037194Y0316564D01*
X0046039Y0316564D01*
X0045946Y0317387D01*
X0045704Y0318446D01*
X0045345Y0319472D01*
X0044874Y0320451D01*
X0044296Y0321371D01*
X0043618Y0322220D01*
X0042850Y0322988D01*
X0042001Y0323666D01*
X0041081Y0324244D01*
X0040102Y0324715D01*
X0039076Y0325074D01*
X0038017Y0325316D01*
X0037194Y0325409D01*
X0037194Y0316564D01*
X0035594Y0316564D01*
X0035594Y0325409D01*
X0034771Y0325316D01*
X0033711Y0325074D01*
X0032686Y0324715D01*
X0031707Y0324244D01*
X0030787Y0323666D01*
X0029937Y0322988D01*
X0029169Y0322220D01*
X0028492Y0321371D01*
X0027913Y0320451D01*
X0027442Y0319472D01*
X0027083Y0318446D01*
X0026841Y0317387D01*
X0026749Y0316564D01*
X0035594Y0316564D01*
X0035594Y0314964D01*
X0037194Y0314964D01*
X0037194Y0306119D01*
X0038017Y0306211D01*
X0037194Y0306316D02*
X0035594Y0306316D01*
X0035594Y0306119D02*
X0035594Y0314964D01*
X0026749Y0314964D01*
X0026841Y0314141D01*
X0027083Y0313081D01*
X0027442Y0312056D01*
X0027913Y0311077D01*
X0028492Y0310157D01*
X0029169Y0309307D01*
X0029937Y0308539D01*
X0030787Y0307862D01*
X0031707Y0307284D01*
X0032686Y0306812D01*
X0033711Y0306453D01*
X0034771Y0306211D01*
X0035594Y0306119D01*
X0034314Y0306316D02*
X0016000Y0306316D01*
X0016000Y0307914D02*
X0030721Y0307914D01*
X0029005Y0309513D02*
X0016000Y0309513D01*
X0016000Y0311111D02*
X0027897Y0311111D01*
X0027213Y0312710D02*
X0016000Y0312710D01*
X0016000Y0314308D02*
X0026822Y0314308D01*
X0026868Y0317505D02*
X0016000Y0317505D01*
X0016000Y0315907D02*
X0035594Y0315907D01*
X0035594Y0317505D02*
X0037194Y0317505D01*
X0037194Y0315907D02*
X0181000Y0315907D01*
X0181000Y0317505D02*
X0045919Y0317505D01*
X0045474Y0319104D02*
X0181000Y0319104D01*
X0181000Y0320702D02*
X0044716Y0320702D01*
X0043538Y0322301D02*
X0142386Y0322301D01*
X0140643Y0323023D02*
X0144272Y0321520D01*
X0148200Y0321520D01*
X0151829Y0323023D01*
X0154607Y0325801D01*
X0156110Y0329430D01*
X0156110Y0333358D01*
X0154607Y0336987D01*
X0151829Y0339764D01*
X0148200Y0341268D01*
X0144272Y0341268D01*
X0140643Y0339764D01*
X0137865Y0336987D01*
X0136362Y0333358D01*
X0136362Y0329430D01*
X0137865Y0325801D01*
X0140643Y0323023D01*
X0139767Y0323899D02*
X0041629Y0323899D01*
X0037194Y0323899D02*
X0035594Y0323899D01*
X0035594Y0322301D02*
X0037194Y0322301D01*
X0037194Y0320702D02*
X0035594Y0320702D01*
X0035594Y0319104D02*
X0037194Y0319104D01*
X0037194Y0314308D02*
X0035594Y0314308D01*
X0035594Y0312710D02*
X0037194Y0312710D01*
X0037194Y0311111D02*
X0035594Y0311111D01*
X0035594Y0309513D02*
X0037194Y0309513D01*
X0037194Y0307914D02*
X0035594Y0307914D01*
X0042067Y0307914D02*
X0181000Y0307914D01*
X0181000Y0309513D02*
X0043782Y0309513D01*
X0044890Y0311111D02*
X0181000Y0311111D01*
X0181000Y0312710D02*
X0045574Y0312710D01*
X0045965Y0314308D02*
X0181000Y0314308D01*
X0181000Y0322301D02*
X0150086Y0322301D01*
X0152706Y0323899D02*
X0181000Y0323899D01*
X0181000Y0325498D02*
X0154304Y0325498D01*
X0155144Y0327096D02*
X0181000Y0327096D01*
X0181000Y0328695D02*
X0155806Y0328695D01*
X0156110Y0330293D02*
X0181000Y0330293D01*
X0181000Y0331892D02*
X0156110Y0331892D01*
X0156055Y0333490D02*
X0181000Y0333490D01*
X0181000Y0335089D02*
X0155393Y0335089D01*
X0154731Y0336687D02*
X0181000Y0336687D01*
X0181000Y0338286D02*
X0153308Y0338286D01*
X0151540Y0339884D02*
X0181000Y0339884D01*
X0181386Y0341483D02*
X0016000Y0341483D01*
X0016000Y0343081D02*
X0182665Y0343081D01*
X0183944Y0344680D02*
X0016000Y0344680D01*
X0016000Y0346278D02*
X0185223Y0346278D01*
X0186502Y0347877D02*
X0016000Y0347877D01*
X0016000Y0349475D02*
X0187780Y0349475D01*
X0189059Y0351074D02*
X0016000Y0351074D01*
X0016000Y0352672D02*
X0080479Y0352672D01*
X0080013Y0352865D02*
X0083642Y0351362D01*
X0087570Y0351362D01*
X0091199Y0352865D01*
X0093977Y0355643D01*
X0095480Y0359272D01*
X0095480Y0363200D01*
X0093977Y0366829D01*
X0091199Y0369607D01*
X0087570Y0371110D01*
X0083642Y0371110D01*
X0080013Y0369607D01*
X0077236Y0366829D01*
X0075732Y0363200D01*
X0075732Y0359272D01*
X0077236Y0355643D01*
X0080013Y0352865D01*
X0078608Y0354271D02*
X0016000Y0354271D01*
X0016000Y0355870D02*
X0077142Y0355870D01*
X0076480Y0357468D02*
X0016000Y0357468D01*
X0016000Y0359067D02*
X0075817Y0359067D01*
X0075732Y0360665D02*
X0016000Y0360665D01*
X0016000Y0362264D02*
X0075732Y0362264D01*
X0076006Y0363862D02*
X0016000Y0363862D01*
X0016000Y0365461D02*
X0076669Y0365461D01*
X0077465Y0367059D02*
X0016000Y0367059D01*
X0016000Y0368658D02*
X0079064Y0368658D01*
X0081580Y0370256D02*
X0016000Y0370256D01*
X0016000Y0371855D02*
X0171640Y0371855D01*
X0172056Y0371655D02*
X0173081Y0371296D01*
X0174141Y0371054D01*
X0174964Y0370961D01*
X0174964Y0379806D01*
X0176564Y0379806D01*
X0176564Y0381406D01*
X0185409Y0381406D01*
X0185316Y0382229D01*
X0185074Y0383289D01*
X0184715Y0384314D01*
X0184244Y0385293D01*
X0183666Y0386213D01*
X0182988Y0387063D01*
X0182220Y0387831D01*
X0181371Y0388508D01*
X0180451Y0389087D01*
X0179472Y0389558D01*
X0178446Y0389917D01*
X0177387Y0390159D01*
X0176564Y0390251D01*
X0176564Y0381406D01*
X0174964Y0381406D01*
X0174964Y0379806D01*
X0166119Y0379806D01*
X0166211Y0378983D01*
X0166453Y0377924D01*
X0166812Y0376898D01*
X0167284Y0375919D01*
X0167862Y0374999D01*
X0168539Y0374150D01*
X0169307Y0373382D01*
X0170157Y0372704D01*
X0171077Y0372126D01*
X0172056Y0371655D01*
X0174964Y0371855D02*
X0176564Y0371855D01*
X0176564Y0370961D02*
X0177387Y0371054D01*
X0178446Y0371296D01*
X0179472Y0371655D01*
X0180451Y0372126D01*
X0181371Y0372704D01*
X0182220Y0373382D01*
X0182988Y0374150D01*
X0183666Y0374999D01*
X0184244Y0375919D01*
X0184715Y0376898D01*
X0185074Y0377924D01*
X0185316Y0378983D01*
X0185409Y0379806D01*
X0176564Y0379806D01*
X0176564Y0370961D01*
X0176564Y0373453D02*
X0174964Y0373453D01*
X0174964Y0375052D02*
X0176564Y0375052D01*
X0176564Y0376650D02*
X0174964Y0376650D01*
X0174964Y0378249D02*
X0176564Y0378249D01*
X0176564Y0379847D02*
X0233309Y0379847D01*
X0231311Y0378249D02*
X0185148Y0378249D01*
X0184596Y0376650D02*
X0229313Y0376650D01*
X0227315Y0375052D02*
X0218074Y0375052D01*
X0218115Y0374898D02*
X0217992Y0375356D01*
X0217755Y0375767D01*
X0217420Y0376102D01*
X0217010Y0376339D01*
X0216552Y0376461D01*
X0211775Y0376461D01*
X0211775Y0372287D01*
X0218115Y0372287D01*
X0218115Y0374898D01*
X0218115Y0373453D02*
X0225316Y0373453D01*
X0223318Y0371855D02*
X0211775Y0371855D01*
X0210225Y0371855D02*
X0179887Y0371855D01*
X0182292Y0373453D02*
X0203885Y0373453D01*
X0203926Y0375052D02*
X0183699Y0375052D01*
X0174964Y0379847D02*
X0016000Y0379847D01*
X0016000Y0378249D02*
X0166379Y0378249D01*
X0166932Y0376650D02*
X0016000Y0376650D01*
X0016000Y0375052D02*
X0167829Y0375052D01*
X0169236Y0373453D02*
X0016000Y0373453D01*
X0016000Y0381446D02*
X0033744Y0381446D01*
X0033711Y0381453D02*
X0034771Y0381211D01*
X0035594Y0381119D01*
X0035594Y0389964D01*
X0037194Y0389964D01*
X0037194Y0391564D01*
X0046039Y0391564D01*
X0045946Y0392387D01*
X0045704Y0393446D01*
X0045345Y0394472D01*
X0044874Y0395451D01*
X0044296Y0396371D01*
X0043618Y0397220D01*
X0042850Y0397988D01*
X0042001Y0398666D01*
X0041081Y0399244D01*
X0040102Y0399715D01*
X0039076Y0400074D01*
X0038017Y0400316D01*
X0037194Y0400409D01*
X0037194Y0391564D01*
X0035594Y0391564D01*
X0035594Y0400409D01*
X0034771Y0400316D01*
X0033711Y0400074D01*
X0032686Y0399715D01*
X0031707Y0399244D01*
X0030787Y0398666D01*
X0029937Y0397988D01*
X0029169Y0397220D01*
X0028492Y0396371D01*
X0027913Y0395451D01*
X0027442Y0394472D01*
X0027083Y0393446D01*
X0026841Y0392387D01*
X0026749Y0391564D01*
X0035594Y0391564D01*
X0035594Y0389964D01*
X0026749Y0389964D01*
X0026841Y0389141D01*
X0027083Y0388081D01*
X0027442Y0387056D01*
X0027913Y0386077D01*
X0028492Y0385157D01*
X0029169Y0384307D01*
X0029937Y0383539D01*
X0030787Y0382862D01*
X0031707Y0382284D01*
X0032686Y0381812D01*
X0033711Y0381453D01*
X0035594Y0381446D02*
X0037194Y0381446D01*
X0037194Y0381119D02*
X0038017Y0381211D01*
X0039076Y0381453D01*
X0040102Y0381812D01*
X0041081Y0382284D01*
X0042001Y0382862D01*
X0042850Y0383539D01*
X0043618Y0384307D01*
X0044296Y0385157D01*
X0044874Y0386077D01*
X0045345Y0387056D01*
X0045704Y0388081D01*
X0045946Y0389141D01*
X0046039Y0389964D01*
X0037194Y0389964D01*
X0037194Y0381119D01*
X0039043Y0381446D02*
X0166123Y0381446D01*
X0166119Y0381406D02*
X0174964Y0381406D01*
X0174964Y0390251D01*
X0174141Y0390159D01*
X0173081Y0389917D01*
X0172056Y0389558D01*
X0171077Y0389087D01*
X0170157Y0388508D01*
X0169307Y0387831D01*
X0168539Y0387063D01*
X0167862Y0386213D01*
X0167284Y0385293D01*
X0166812Y0384314D01*
X0166453Y0383289D01*
X0166211Y0382229D01*
X0166119Y0381406D01*
X0166397Y0383044D02*
X0042230Y0383044D01*
X0043886Y0384643D02*
X0166970Y0384643D01*
X0167884Y0386241D02*
X0044953Y0386241D01*
X0045620Y0387840D02*
X0169318Y0387840D01*
X0171807Y0389438D02*
X0045980Y0389438D01*
X0045889Y0392635D02*
X0230853Y0392635D01*
X0231675Y0394234D02*
X0045429Y0394234D01*
X0044634Y0395832D02*
X0233589Y0395832D01*
X0235600Y0391037D02*
X0037194Y0391037D01*
X0037194Y0392635D02*
X0035594Y0392635D01*
X0035594Y0391037D02*
X0016000Y0391037D01*
X0016000Y0392635D02*
X0026898Y0392635D01*
X0027359Y0394234D02*
X0016000Y0394234D01*
X0016000Y0395832D02*
X0028153Y0395832D01*
X0029380Y0397431D02*
X0017431Y0397431D01*
X0019029Y0399029D02*
X0031365Y0399029D01*
X0035594Y0399029D02*
X0037194Y0399029D01*
X0037194Y0397431D02*
X0035594Y0397431D01*
X0035594Y0395832D02*
X0037194Y0395832D01*
X0037194Y0394234D02*
X0035594Y0394234D01*
X0041422Y0399029D02*
X0052971Y0399029D01*
X0054569Y0397431D02*
X0043408Y0397431D01*
X0051372Y0400628D02*
X0020628Y0400628D01*
X0016000Y0389438D02*
X0026808Y0389438D01*
X0027168Y0387840D02*
X0016000Y0387840D01*
X0016000Y0386241D02*
X0027834Y0386241D01*
X0028902Y0384643D02*
X0016000Y0384643D01*
X0016000Y0383044D02*
X0030558Y0383044D01*
X0035594Y0383044D02*
X0037194Y0383044D01*
X0037194Y0384643D02*
X0035594Y0384643D01*
X0035594Y0386241D02*
X0037194Y0386241D01*
X0037194Y0387840D02*
X0035594Y0387840D01*
X0035594Y0389438D02*
X0037194Y0389438D01*
X0089632Y0370256D02*
X0203885Y0370256D01*
X0203885Y0368658D02*
X0092149Y0368658D01*
X0093747Y0367059D02*
X0204443Y0367059D01*
X0200568Y0365461D02*
X0094544Y0365461D01*
X0095206Y0363862D02*
X0199290Y0363862D01*
X0198011Y0362264D02*
X0095480Y0362264D01*
X0095480Y0360665D02*
X0196732Y0360665D01*
X0195453Y0359067D02*
X0095395Y0359067D01*
X0094733Y0357468D02*
X0194174Y0357468D01*
X0192896Y0355870D02*
X0094071Y0355870D01*
X0092605Y0354271D02*
X0191617Y0354271D01*
X0190338Y0352672D02*
X0090734Y0352672D01*
X0136417Y0333490D02*
X0016000Y0333490D01*
X0016000Y0331892D02*
X0136362Y0331892D01*
X0136362Y0330293D02*
X0016000Y0330293D01*
X0016000Y0328695D02*
X0136667Y0328695D01*
X0137329Y0327096D02*
X0016000Y0327096D01*
X0016000Y0325498D02*
X0138168Y0325498D01*
X0137079Y0335089D02*
X0016000Y0335089D01*
X0016000Y0336687D02*
X0137741Y0336687D01*
X0139164Y0338286D02*
X0016000Y0338286D01*
X0016000Y0339884D02*
X0140933Y0339884D01*
X0174964Y0381446D02*
X0176564Y0381446D01*
X0176564Y0383044D02*
X0174964Y0383044D01*
X0174964Y0384643D02*
X0176564Y0384643D01*
X0176564Y0386241D02*
X0174964Y0386241D01*
X0174964Y0387840D02*
X0176564Y0387840D01*
X0176564Y0389438D02*
X0174964Y0389438D01*
X0179720Y0389438D02*
X0230830Y0389438D01*
X0230733Y0389735D02*
X0230996Y0388927D01*
X0231382Y0388170D01*
X0231881Y0387482D01*
X0232482Y0386881D01*
X0233170Y0386382D01*
X0233927Y0385996D01*
X0234735Y0385733D01*
X0235575Y0385600D01*
X0235600Y0385600D01*
X0235600Y0390600D01*
X0230600Y0390600D01*
X0230600Y0390575D01*
X0230733Y0389735D01*
X0231621Y0387840D02*
X0182209Y0387840D01*
X0183644Y0386241D02*
X0233445Y0386241D01*
X0235600Y0386241D02*
X0236400Y0386241D01*
X0236400Y0387840D02*
X0235600Y0387840D01*
X0235600Y0389438D02*
X0236400Y0389438D01*
X0238555Y0386241D02*
X0241000Y0386241D01*
X0241000Y0387840D02*
X0240379Y0387840D01*
X0239303Y0384643D02*
X0184557Y0384643D01*
X0185130Y0383044D02*
X0237305Y0383044D01*
X0235307Y0381446D02*
X0185404Y0381446D01*
X0210225Y0375052D02*
X0211775Y0375052D01*
X0211775Y0373453D02*
X0210225Y0373453D01*
X0210225Y0370256D02*
X0211775Y0370256D01*
X0211775Y0368658D02*
X0210225Y0368658D01*
X0210225Y0367059D02*
X0211775Y0367059D01*
X0218115Y0368658D02*
X0219322Y0368658D01*
X0218115Y0370256D02*
X0221320Y0370256D01*
X0181000Y0285535D02*
X0095480Y0285535D01*
X0095341Y0283937D02*
X0181000Y0283937D01*
X0181000Y0282338D02*
X0094679Y0282338D01*
X0094017Y0280739D02*
X0181000Y0280739D01*
X0181000Y0279141D02*
X0092475Y0279141D01*
X0090420Y0277542D02*
X0181000Y0277542D01*
X0181000Y0275944D02*
X0016000Y0275944D01*
X0016000Y0277542D02*
X0080793Y0277542D01*
X0078738Y0279141D02*
X0016000Y0279141D01*
X0016000Y0280739D02*
X0077196Y0280739D01*
X0076533Y0282338D02*
X0016000Y0282338D01*
X0016000Y0283937D02*
X0075871Y0283937D01*
X0075732Y0285535D02*
X0016000Y0285535D01*
X0016000Y0287134D02*
X0075732Y0287134D01*
X0075953Y0288732D02*
X0016000Y0288732D01*
X0016000Y0290331D02*
X0076615Y0290331D01*
X0077335Y0291929D02*
X0016000Y0291929D01*
X0016000Y0293528D02*
X0078934Y0293528D01*
X0081266Y0295126D02*
X0016000Y0295126D01*
X0016000Y0274345D02*
X0181000Y0274345D01*
X0181000Y0272747D02*
X0016000Y0272747D01*
X0016000Y0271148D02*
X0181000Y0271148D01*
X0181000Y0269550D02*
X0016000Y0269550D01*
X0016000Y0267951D02*
X0181000Y0267951D01*
X0181000Y0266353D02*
X0016000Y0266353D01*
X0016000Y0264754D02*
X0181000Y0264754D01*
X0181000Y0263156D02*
X0016000Y0263156D01*
X0016000Y0261557D02*
X0181000Y0261557D01*
X0181000Y0259959D02*
X0016000Y0259959D01*
X0016000Y0258360D02*
X0181000Y0258360D01*
X0181000Y0256762D02*
X0016000Y0256762D01*
X0016000Y0255163D02*
X0181000Y0255163D01*
X0181000Y0253565D02*
X0016000Y0253565D01*
X0016000Y0251966D02*
X0181000Y0251966D01*
X0181632Y0250368D02*
X0016000Y0250368D01*
X0016000Y0248769D02*
X0183231Y0248769D01*
X0184829Y0247171D02*
X0016000Y0247171D01*
X0016000Y0245572D02*
X0021982Y0245572D01*
X0021802Y0245524D02*
X0020978Y0245183D01*
X0020206Y0244737D01*
X0019499Y0244194D01*
X0018869Y0243564D01*
X0018326Y0242857D01*
X0017880Y0242085D01*
X0017539Y0241261D01*
X0017308Y0240400D01*
X0017235Y0239846D01*
X0023217Y0239846D01*
X0023217Y0245828D01*
X0022663Y0245755D01*
X0021802Y0245524D01*
X0023217Y0245572D02*
X0024767Y0245572D01*
X0024767Y0245828D02*
X0024767Y0239846D01*
X0023217Y0239846D01*
X0023217Y0238296D01*
X0017235Y0238296D01*
X0017308Y0237741D01*
X0017539Y0236880D01*
X0017880Y0236057D01*
X0018326Y0235285D01*
X0018869Y0234578D01*
X0019499Y0233947D01*
X0020206Y0233405D01*
X0020978Y0232959D01*
X0021802Y0232618D01*
X0022183Y0232516D01*
X0021802Y0232414D01*
X0020978Y0232072D01*
X0020206Y0231627D01*
X0019499Y0231084D01*
X0018869Y0230454D01*
X0018326Y0229747D01*
X0017880Y0228975D01*
X0017539Y0228151D01*
X0017308Y0227290D01*
X0017235Y0226735D01*
X0023217Y0226735D01*
X0023217Y0225186D01*
X0017235Y0225186D01*
X0017308Y0224631D01*
X0017539Y0223770D01*
X0017880Y0222947D01*
X0018326Y0222175D01*
X0018869Y0221467D01*
X0019499Y0220837D01*
X0020206Y0220295D01*
X0020978Y0219849D01*
X0021802Y0219508D01*
X0022663Y0219277D01*
X0023217Y0219204D01*
X0023217Y0225186D01*
X0024767Y0225186D01*
X0024767Y0226735D01*
X0030749Y0226735D01*
X0030676Y0227290D01*
X0030445Y0228151D01*
X0030104Y0228975D01*
X0029658Y0229747D01*
X0029116Y0230454D01*
X0028485Y0231084D01*
X0027778Y0231627D01*
X0027006Y0232072D01*
X0026183Y0232414D01*
X0025801Y0232516D01*
X0026183Y0232618D01*
X0027006Y0232959D01*
X0027778Y0233405D01*
X0028485Y0233947D01*
X0029116Y0234578D01*
X0029658Y0235285D01*
X0030104Y0236057D01*
X0030445Y0236880D01*
X0030676Y0237741D01*
X0030749Y0238296D01*
X0024767Y0238296D01*
X0024767Y0239846D01*
X0030749Y0239846D01*
X0030676Y0240400D01*
X0030445Y0241261D01*
X0030104Y0242085D01*
X0029658Y0242857D01*
X0029116Y0243564D01*
X0028485Y0244194D01*
X0027778Y0244737D01*
X0027006Y0245183D01*
X0026183Y0245524D01*
X0025322Y0245755D01*
X0024767Y0245828D01*
X0026002Y0245572D02*
X0071195Y0245572D01*
X0072430Y0245572D02*
X0073980Y0245572D01*
X0075214Y0245572D02*
X0186428Y0245572D01*
X0188026Y0243974D02*
X0077919Y0243974D01*
X0079149Y0242375D02*
X0189625Y0242375D01*
X0191223Y0240777D02*
X0079788Y0240777D01*
X0079845Y0237580D02*
X0194420Y0237580D01*
X0196000Y0236000D02*
X0210225Y0236000D01*
X0210225Y0234713D01*
X0211775Y0234713D01*
X0211775Y0230539D01*
X0216552Y0230539D01*
X0217010Y0230661D01*
X0217420Y0230898D01*
X0217755Y0231233D01*
X0217992Y0231644D01*
X0218115Y0232102D01*
X0218115Y0234713D01*
X0211775Y0234713D01*
X0211775Y0236000D01*
X0210225Y0235981D02*
X0079273Y0235981D01*
X0078133Y0234383D02*
X0203885Y0234383D01*
X0203885Y0234713D02*
X0203885Y0232102D01*
X0204008Y0231644D01*
X0204245Y0231233D01*
X0204580Y0230898D01*
X0204990Y0230661D01*
X0205448Y0230539D01*
X0210225Y0230539D01*
X0210225Y0234713D01*
X0203885Y0234713D01*
X0203885Y0232784D02*
X0075796Y0232784D01*
X0073980Y0232784D02*
X0072430Y0232784D01*
X0072430Y0231186D02*
X0073980Y0231186D01*
X0073980Y0229587D02*
X0072430Y0229587D01*
X0072430Y0227989D02*
X0073980Y0227989D01*
X0072430Y0226390D02*
X0024767Y0226390D01*
X0024767Y0226736D02*
X0023217Y0226736D01*
X0023217Y0232717D01*
X0023217Y0238296D01*
X0024767Y0238296D01*
X0024767Y0226736D01*
X0024767Y0227989D02*
X0023217Y0227989D01*
X0023217Y0229587D02*
X0024767Y0229587D01*
X0024767Y0231186D02*
X0023217Y0231186D01*
X0023217Y0232784D02*
X0024767Y0232784D01*
X0024767Y0234383D02*
X0023217Y0234383D01*
X0023217Y0235981D02*
X0024767Y0235981D01*
X0024767Y0237580D02*
X0023217Y0237580D01*
X0023217Y0239178D02*
X0016000Y0239178D01*
X0016000Y0237580D02*
X0017352Y0237580D01*
X0017924Y0235981D02*
X0016000Y0235981D01*
X0016000Y0234383D02*
X0019064Y0234383D01*
X0021400Y0232784D02*
X0016000Y0232784D01*
X0016000Y0231186D02*
X0019631Y0231186D01*
X0018234Y0229587D02*
X0016000Y0229587D01*
X0016000Y0227989D02*
X0017496Y0227989D01*
X0016000Y0226390D02*
X0023217Y0226390D01*
X0023217Y0224792D02*
X0024767Y0224792D01*
X0024767Y0225186D02*
X0024767Y0219204D01*
X0025322Y0219277D01*
X0026183Y0219508D01*
X0027006Y0219849D01*
X0027778Y0220295D01*
X0028485Y0220837D01*
X0029116Y0221467D01*
X0029658Y0222175D01*
X0030104Y0222947D01*
X0030445Y0223770D01*
X0030676Y0224631D01*
X0030749Y0225186D01*
X0024767Y0225186D01*
X0024767Y0223193D02*
X0023217Y0223193D01*
X0023217Y0221595D02*
X0024767Y0221595D01*
X0024767Y0219996D02*
X0023217Y0219996D01*
X0020723Y0219996D02*
X0016000Y0219996D01*
X0016000Y0221595D02*
X0018771Y0221595D01*
X0017778Y0223193D02*
X0016000Y0223193D01*
X0016000Y0224792D02*
X0017287Y0224792D01*
X0027261Y0219996D02*
X0069936Y0219996D01*
X0067984Y0221595D02*
X0029213Y0221595D01*
X0030206Y0223193D02*
X0066991Y0223193D01*
X0066500Y0224792D02*
X0030697Y0224792D01*
X0030489Y0227989D02*
X0066708Y0227989D01*
X0067447Y0229587D02*
X0029750Y0229587D01*
X0028353Y0231186D02*
X0068844Y0231186D01*
X0070613Y0232784D02*
X0026584Y0232784D01*
X0028921Y0234383D02*
X0068276Y0234383D01*
X0067137Y0235981D02*
X0030060Y0235981D01*
X0030632Y0237580D02*
X0066564Y0237580D01*
X0066622Y0240777D02*
X0030575Y0240777D01*
X0029936Y0242375D02*
X0067261Y0242375D01*
X0068491Y0243974D02*
X0028706Y0243974D01*
X0024767Y0243974D02*
X0023217Y0243974D01*
X0023217Y0242375D02*
X0024767Y0242375D01*
X0024767Y0240777D02*
X0023217Y0240777D01*
X0024767Y0239178D02*
X0072430Y0239178D01*
X0073980Y0239178D02*
X0192822Y0239178D01*
X0204292Y0231186D02*
X0077566Y0231186D01*
X0078963Y0229587D02*
X0221246Y0229587D01*
X0221772Y0231186D02*
X0217708Y0231186D01*
X0218115Y0232784D02*
X0222907Y0232784D01*
X0225615Y0234383D02*
X0218115Y0234383D01*
X0211775Y0234383D02*
X0210225Y0234383D01*
X0210225Y0232784D02*
X0211775Y0232784D01*
X0211775Y0231186D02*
X0210225Y0231186D01*
X0226675Y0231186D02*
X0227825Y0231186D01*
X0227825Y0232784D02*
X0226675Y0232784D01*
X0226675Y0234383D02*
X0227825Y0234383D01*
X0227825Y0229587D02*
X0226675Y0229587D01*
X0226675Y0227989D02*
X0079701Y0227989D01*
X0078426Y0221595D02*
X0236000Y0221595D01*
X0236000Y0223193D02*
X0230271Y0223193D01*
X0232096Y0224792D02*
X0236000Y0224792D01*
X0236000Y0226390D02*
X0232978Y0226390D01*
X0143602Y0213602D02*
X0016000Y0213602D01*
X0016000Y0212003D02*
X0142003Y0212003D01*
X0126000Y0205609D02*
X0077196Y0205609D01*
X0078794Y0204011D02*
X0126000Y0204011D01*
X0126000Y0202412D02*
X0079658Y0202412D01*
X0080205Y0200814D02*
X0126000Y0200814D01*
X0126000Y0199215D02*
X0080205Y0199215D01*
X0079918Y0197617D02*
X0126000Y0197617D01*
X0126000Y0196018D02*
X0079256Y0196018D01*
X0077823Y0194420D02*
X0126000Y0194420D01*
X0126000Y0192821D02*
X0076454Y0192821D01*
X0078472Y0191223D02*
X0126000Y0191223D01*
X0126000Y0189624D02*
X0079525Y0189624D01*
X0080187Y0188026D02*
X0126000Y0188026D01*
X0126000Y0186427D02*
X0080205Y0186427D01*
X0080052Y0184829D02*
X0126000Y0184829D01*
X0126000Y0183230D02*
X0079390Y0183230D01*
X0078145Y0181632D02*
X0126000Y0181632D01*
X0132134Y0144866D02*
X0045221Y0144866D01*
X0047854Y0143268D02*
X0133732Y0143268D01*
X0133885Y0141669D02*
X0049452Y0141669D01*
X0050297Y0140070D02*
X0140225Y0140070D01*
X0140225Y0139713D02*
X0133885Y0139713D01*
X0133885Y0137102D01*
X0134008Y0136644D01*
X0134245Y0136233D01*
X0134580Y0135898D01*
X0134990Y0135661D01*
X0135448Y0135539D01*
X0140225Y0135539D01*
X0140225Y0139713D01*
X0140225Y0138472D02*
X0141775Y0138472D01*
X0141775Y0140070D02*
X0166930Y0140070D01*
X0168528Y0138472D02*
X0160785Y0138472D01*
X0160447Y0138717D02*
X0161224Y0138153D01*
X0161903Y0137474D01*
X0162467Y0136697D01*
X0162903Y0135842D01*
X0163200Y0134928D01*
X0163335Y0134075D01*
X0157825Y0134075D01*
X0156675Y0134075D01*
X0156675Y0139585D01*
X0155822Y0139450D01*
X0154908Y0139153D01*
X0154053Y0138717D01*
X0153276Y0138153D01*
X0152597Y0137474D01*
X0152033Y0136697D01*
X0151597Y0135842D01*
X0151300Y0134928D01*
X0151165Y0134075D01*
X0156675Y0134075D01*
X0156675Y0132925D01*
X0151165Y0132925D01*
X0151300Y0132072D01*
X0151597Y0131158D01*
X0152033Y0130303D01*
X0152597Y0129526D01*
X0153276Y0128847D01*
X0154053Y0128283D01*
X0154908Y0127847D01*
X0155822Y0127550D01*
X0156675Y0127415D01*
X0156675Y0132925D01*
X0157825Y0132925D01*
X0157825Y0134075D01*
X0157825Y0139585D01*
X0158678Y0139450D01*
X0159592Y0139153D01*
X0160447Y0138717D01*
X0157825Y0138472D02*
X0156675Y0138472D01*
X0156675Y0136873D02*
X0157825Y0136873D01*
X0157825Y0135275D02*
X0156675Y0135275D01*
X0156675Y0133676D02*
X0051217Y0133676D01*
X0051268Y0135275D02*
X0151413Y0135275D01*
X0152161Y0136873D02*
X0148054Y0136873D01*
X0148115Y0138472D02*
X0153715Y0138472D01*
X0157825Y0133676D02*
X0173324Y0133676D01*
X0174922Y0132078D02*
X0163201Y0132078D01*
X0163200Y0132072D02*
X0163335Y0132925D01*
X0157825Y0132925D01*
X0157825Y0127415D01*
X0158678Y0127550D01*
X0159592Y0127847D01*
X0160447Y0128283D01*
X0161224Y0128847D01*
X0161903Y0129526D01*
X0162467Y0130303D01*
X0162903Y0131158D01*
X0163200Y0132072D01*
X0162557Y0130479D02*
X0176521Y0130479D01*
X0178119Y0128881D02*
X0161258Y0128881D01*
X0157825Y0128881D02*
X0156675Y0128881D01*
X0156675Y0130479D02*
X0157825Y0130479D01*
X0157825Y0132078D02*
X0156675Y0132078D01*
X0153242Y0128881D02*
X0048475Y0128881D01*
X0049892Y0130479D02*
X0151943Y0130479D01*
X0151299Y0132078D02*
X0050555Y0132078D01*
X0051268Y0136873D02*
X0133946Y0136873D01*
X0133885Y0138472D02*
X0050959Y0138472D01*
X0046720Y0127282D02*
X0179718Y0127282D01*
X0171725Y0135275D02*
X0163087Y0135275D01*
X0162339Y0136873D02*
X0170127Y0136873D01*
X0141775Y0136873D02*
X0140225Y0136873D01*
X0172025Y0095312D02*
X0011000Y0095312D01*
X0011000Y0093714D02*
X0171363Y0093714D01*
X0170890Y0092115D02*
X0011000Y0092115D01*
X0011000Y0090517D02*
X0170890Y0090517D01*
X0170890Y0088918D02*
X0011000Y0088918D01*
X0011000Y0087320D02*
X0171438Y0087320D01*
X0172100Y0085721D02*
X0011000Y0085721D01*
X0011000Y0084123D02*
X0173284Y0084123D01*
X0174882Y0082524D02*
X0011000Y0082524D01*
X0011000Y0080926D02*
X0178333Y0080926D01*
X0141955Y0044160D02*
X0096179Y0044160D01*
X0097936Y0042561D02*
X0141633Y0042561D01*
X0091406Y0042561D02*
X0089806Y0042561D01*
X0089806Y0040963D02*
X0091406Y0040963D01*
X0091406Y0039364D02*
X0089806Y0039364D01*
X0089806Y0037766D02*
X0091406Y0037766D01*
X0091406Y0032970D02*
X0089806Y0032970D01*
X0089806Y0031372D02*
X0091406Y0031372D01*
X0091406Y0029773D02*
X0089806Y0029773D01*
X0089806Y0028175D02*
X0091406Y0028175D01*
X0091406Y0044160D02*
X0089806Y0044160D01*
X0081569Y0109699D02*
X0011000Y0109699D01*
X0011000Y0111297D02*
X0082361Y0111297D01*
X0083585Y0112896D02*
X0011000Y0112896D01*
X0011000Y0114494D02*
X0085566Y0114494D01*
X0068264Y0181632D02*
X0028933Y0181632D01*
X0030177Y0183230D02*
X0067020Y0183230D01*
X0066358Y0184829D02*
X0030839Y0184829D01*
X0030992Y0186427D02*
X0066205Y0186427D01*
X0066222Y0188026D02*
X0030974Y0188026D01*
X0030312Y0189624D02*
X0066885Y0189624D01*
X0067938Y0191223D02*
X0029259Y0191223D01*
X0027241Y0192821D02*
X0069955Y0192821D01*
X0068586Y0194420D02*
X0028611Y0194420D01*
X0030044Y0196018D02*
X0067153Y0196018D01*
X0066491Y0197617D02*
X0030706Y0197617D01*
X0030992Y0199215D02*
X0066205Y0199215D01*
X0066205Y0200814D02*
X0030992Y0200814D01*
X0030446Y0202412D02*
X0066751Y0202412D01*
X0067615Y0204011D02*
X0029581Y0204011D01*
X0027983Y0205609D02*
X0069214Y0205609D01*
X0072430Y0234383D02*
X0073980Y0234383D01*
X0073980Y0235981D02*
X0072430Y0235981D01*
X0072430Y0237580D02*
X0073980Y0237580D01*
X0073980Y0240777D02*
X0072430Y0240777D01*
X0072430Y0242375D02*
X0073980Y0242375D01*
X0073980Y0243974D02*
X0072430Y0243974D01*
X0019278Y0243974D02*
X0016000Y0243974D01*
X0016000Y0242375D02*
X0018048Y0242375D01*
X0017409Y0240777D02*
X0016000Y0240777D01*
X0016000Y0319104D02*
X0027313Y0319104D01*
X0028072Y0320702D02*
X0016000Y0320702D01*
X0016000Y0322301D02*
X0029250Y0322301D01*
X0031158Y0323899D02*
X0016000Y0323899D01*
D25*
X0157250Y0208500D02*
X0157250Y0207250D01*
X0141000Y0191000D01*
X0141000Y0151512D01*
X0231000Y0087250D02*
X0247250Y0103500D01*
X0231000Y0087250D02*
X0231000Y0046512D01*
X0421000Y0041000D02*
X0421000Y0071000D01*
X0426000Y0076000D01*
X0426000Y0081000D01*
X0211000Y0246512D02*
X0211000Y0287250D01*
X0227250Y0303500D01*
X0236000Y0331000D02*
X0236000Y0335488D01*
X0211000Y0360488D01*
X0436000Y0347654D02*
X0436000Y0331000D01*
D26*
X0461000Y0324740D02*
X0461000Y0337547D01*
X0461000Y0344453D02*
X0474453Y0344453D01*
X0484740Y0317260D02*
X0461000Y0317260D01*
X0426000Y0289453D02*
X0426000Y0261000D01*
X0426000Y0289453D02*
X0424453Y0291000D01*
X0417547Y0291000D02*
X0404740Y0291000D01*
X0397260Y0291000D02*
X0386635Y0301625D01*
X0366625Y0301625D01*
X0364750Y0303500D01*
X0366625Y0301625D02*
X0378000Y0290250D01*
X0378000Y0283346D01*
X0378000Y0276654D02*
X0350404Y0276654D01*
X0302250Y0228500D01*
X0314750Y0228500D02*
X0364750Y0228500D01*
X0326000Y0204740D02*
X0311394Y0204740D01*
X0311000Y0204346D01*
X0298904Y0204346D01*
X0294750Y0208500D01*
X0297654Y0197654D02*
X0233500Y0133500D01*
X0232250Y0133500D01*
X0297654Y0197654D02*
X0311000Y0197654D01*
X0326000Y0197260D02*
X0326000Y0184453D01*
X0326000Y0177547D02*
X0326000Y0146000D01*
X0384750Y0103500D02*
X0386846Y0103500D01*
X0405000Y0103346D01*
X0405000Y0096654D02*
X0390404Y0096654D01*
X0322250Y0028500D01*
X0431000Y0051000D02*
X0437260Y0056000D01*
X0467260Y0056000D01*
X0474740Y0056000D02*
X0487547Y0056000D01*
X0494453Y0056000D02*
X0494453Y0037547D01*
X0496000Y0036000D01*
D27*
X0497204Y0034558D02*
X0479230Y0034558D01*
X0478719Y0035069D02*
X0480069Y0033719D01*
X0480800Y0031955D01*
X0480800Y0030045D01*
X0480069Y0028281D01*
X0478719Y0026931D01*
X0476955Y0026200D01*
X0475045Y0026200D01*
X0473281Y0026931D01*
X0471931Y0028281D01*
X0471200Y0030045D01*
X0471200Y0031955D01*
X0471931Y0033719D01*
X0473281Y0035069D01*
X0475045Y0035800D01*
X0476955Y0035800D01*
X0478719Y0035069D01*
X0477059Y0035757D02*
X0498882Y0035757D01*
X0499004Y0035819D02*
X0498275Y0035447D01*
X0497612Y0034966D01*
X0497034Y0034388D01*
X0496553Y0033725D01*
X0496181Y0032996D01*
X0495928Y0032218D01*
X0495830Y0031600D01*
X0500400Y0031600D01*
X0500400Y0036170D01*
X0499782Y0036072D01*
X0499004Y0035819D01*
X0500400Y0035757D02*
X0501600Y0035757D01*
X0501600Y0036170D02*
X0502218Y0036072D01*
X0502996Y0035819D01*
X0503725Y0035447D01*
X0504388Y0034966D01*
X0504966Y0034388D01*
X0505447Y0033725D01*
X0505819Y0032996D01*
X0506072Y0032218D01*
X0506170Y0031600D01*
X0501600Y0031600D01*
X0501600Y0030400D01*
X0506170Y0030400D01*
X0506072Y0029782D01*
X0505819Y0029004D01*
X0505447Y0028275D01*
X0504966Y0027612D01*
X0504388Y0027034D01*
X0503725Y0026553D01*
X0502996Y0026181D01*
X0502218Y0025928D01*
X0501600Y0025830D01*
X0501600Y0030400D01*
X0500400Y0030400D01*
X0500400Y0025830D01*
X0499782Y0025928D01*
X0499004Y0026181D01*
X0498275Y0026553D01*
X0497612Y0027034D01*
X0497034Y0027612D01*
X0496553Y0028275D01*
X0496181Y0029004D01*
X0495928Y0029782D01*
X0495830Y0030400D01*
X0500400Y0030400D01*
X0500400Y0031600D01*
X0501600Y0031600D01*
X0501600Y0036170D01*
X0503118Y0035757D02*
X0509941Y0035757D01*
X0510045Y0035800D02*
X0508281Y0035069D01*
X0506931Y0033719D01*
X0506200Y0031955D01*
X0506200Y0030045D01*
X0506931Y0028281D01*
X0508281Y0026931D01*
X0510045Y0026200D01*
X0511955Y0026200D01*
X0513719Y0026931D01*
X0515069Y0028281D01*
X0515800Y0030045D01*
X0515800Y0031955D01*
X0515069Y0033719D01*
X0513719Y0035069D01*
X0511955Y0035800D01*
X0510045Y0035800D01*
X0512059Y0035757D02*
X0521000Y0035757D01*
X0521000Y0036000D02*
X0521000Y0021000D01*
X0376000Y0021000D01*
X0371000Y0026000D01*
X0371000Y0036000D01*
X0399950Y0036000D01*
X0399751Y0035801D01*
X0399541Y0035436D01*
X0399431Y0035030D01*
X0399431Y0033038D01*
X0402616Y0033038D01*
X0402616Y0032269D01*
X0403384Y0032269D01*
X0403384Y0028888D01*
X0405179Y0028888D01*
X0405586Y0028997D01*
X0405951Y0029208D01*
X0406249Y0029506D01*
X0406459Y0029871D01*
X0406568Y0030278D01*
X0406568Y0032269D01*
X0403384Y0032269D01*
X0403384Y0033038D01*
X0406568Y0033038D01*
X0406568Y0035030D01*
X0406459Y0035436D01*
X0406249Y0035801D01*
X0406025Y0036025D01*
X0411000Y0041000D01*
X0516000Y0041000D01*
X0521000Y0036000D01*
X0520045Y0036955D02*
X0433869Y0036955D01*
X0433925Y0036932D02*
X0433126Y0037263D01*
X0432290Y0037487D01*
X0431433Y0037600D01*
X0431400Y0037600D01*
X0431400Y0031400D01*
X0430600Y0031400D01*
X0430600Y0037600D01*
X0430567Y0037600D01*
X0429710Y0037487D01*
X0428874Y0037263D01*
X0428075Y0036932D01*
X0427325Y0036499D01*
X0426639Y0035973D01*
X0426027Y0035361D01*
X0425501Y0034675D01*
X0425068Y0033925D01*
X0424737Y0033126D01*
X0424513Y0032290D01*
X0424400Y0031433D01*
X0424400Y0031400D01*
X0430600Y0031400D01*
X0430600Y0030600D01*
X0424400Y0030600D01*
X0424400Y0030567D01*
X0424513Y0029710D01*
X0424737Y0028874D01*
X0425068Y0028075D01*
X0425501Y0027325D01*
X0426027Y0026639D01*
X0426639Y0026027D01*
X0427325Y0025501D01*
X0428075Y0025068D01*
X0428874Y0024737D01*
X0429710Y0024513D01*
X0430567Y0024400D01*
X0430600Y0024400D01*
X0430600Y0030600D01*
X0431400Y0030600D01*
X0431400Y0031400D01*
X0437600Y0031400D01*
X0437600Y0031433D01*
X0437487Y0032290D01*
X0437263Y0033126D01*
X0436932Y0033925D01*
X0436499Y0034675D01*
X0435973Y0035361D01*
X0435361Y0035973D01*
X0434675Y0036499D01*
X0433925Y0036932D01*
X0435577Y0035757D02*
X0463882Y0035757D01*
X0464004Y0035819D02*
X0463275Y0035447D01*
X0462612Y0034966D01*
X0462034Y0034388D01*
X0461553Y0033725D01*
X0461181Y0032996D01*
X0460928Y0032218D01*
X0460830Y0031600D01*
X0465400Y0031600D01*
X0465400Y0036170D01*
X0464782Y0036072D01*
X0464004Y0035819D01*
X0465400Y0035757D02*
X0466600Y0035757D01*
X0466600Y0036170D02*
X0467218Y0036072D01*
X0467996Y0035819D01*
X0468725Y0035447D01*
X0469388Y0034966D01*
X0469966Y0034388D01*
X0470447Y0033725D01*
X0470819Y0032996D01*
X0471072Y0032218D01*
X0471170Y0031600D01*
X0466600Y0031600D01*
X0466600Y0030400D01*
X0471170Y0030400D01*
X0471072Y0029782D01*
X0470819Y0029004D01*
X0470447Y0028275D01*
X0469966Y0027612D01*
X0469388Y0027034D01*
X0468725Y0026553D01*
X0467996Y0026181D01*
X0467218Y0025928D01*
X0466600Y0025830D01*
X0466600Y0030400D01*
X0465400Y0030400D01*
X0465400Y0025830D01*
X0464782Y0025928D01*
X0464004Y0026181D01*
X0463275Y0026553D01*
X0462612Y0027034D01*
X0462034Y0027612D01*
X0461553Y0028275D01*
X0461181Y0029004D01*
X0460928Y0029782D01*
X0460830Y0030400D01*
X0465400Y0030400D01*
X0465400Y0031600D01*
X0466600Y0031600D01*
X0466600Y0036170D01*
X0468118Y0035757D02*
X0474941Y0035757D01*
X0472770Y0034558D02*
X0469796Y0034558D01*
X0470634Y0033360D02*
X0471782Y0033360D01*
X0471286Y0032161D02*
X0471081Y0032161D01*
X0471200Y0030963D02*
X0466600Y0030963D01*
X0466600Y0032161D02*
X0465400Y0032161D01*
X0465400Y0030963D02*
X0431400Y0030963D01*
X0431400Y0030600D02*
X0437600Y0030600D01*
X0437600Y0030567D01*
X0437487Y0029710D01*
X0437263Y0028874D01*
X0436932Y0028075D01*
X0436499Y0027325D01*
X0435973Y0026639D01*
X0435361Y0026027D01*
X0434675Y0025501D01*
X0433925Y0025068D01*
X0433126Y0024737D01*
X0432290Y0024513D01*
X0431433Y0024400D01*
X0431400Y0024400D01*
X0431400Y0030600D01*
X0431400Y0029764D02*
X0430600Y0029764D01*
X0430600Y0028566D02*
X0431400Y0028566D01*
X0431400Y0027367D02*
X0430600Y0027367D01*
X0430600Y0026169D02*
X0431400Y0026169D01*
X0431400Y0024970D02*
X0430600Y0024970D01*
X0428311Y0024970D02*
X0389478Y0024970D01*
X0389250Y0024656D02*
X0389796Y0025408D01*
X0390218Y0026235D01*
X0390505Y0027118D01*
X0390628Y0027900D01*
X0385350Y0027900D01*
X0385350Y0029100D01*
X0384150Y0029100D01*
X0384150Y0034378D01*
X0383368Y0034255D01*
X0382485Y0033968D01*
X0381658Y0033546D01*
X0380906Y0033000D01*
X0380250Y0032344D01*
X0379704Y0031592D01*
X0379282Y0030765D01*
X0378995Y0029882D01*
X0378871Y0029100D01*
X0384150Y0029100D01*
X0384150Y0027900D01*
X0378871Y0027900D01*
X0378995Y0027118D01*
X0379282Y0026235D01*
X0379704Y0025408D01*
X0380250Y0024656D01*
X0380906Y0024000D01*
X0381658Y0023454D01*
X0382485Y0023032D01*
X0383368Y0022745D01*
X0384150Y0022621D01*
X0384150Y0027900D01*
X0385350Y0027900D01*
X0385350Y0022621D01*
X0386132Y0022745D01*
X0387015Y0023032D01*
X0387842Y0023454D01*
X0388594Y0024000D01*
X0389250Y0024656D01*
X0388280Y0023772D02*
X0521000Y0023772D01*
X0521000Y0024970D02*
X0433689Y0024970D01*
X0435503Y0026169D02*
X0464042Y0026169D01*
X0465400Y0026169D02*
X0466600Y0026169D01*
X0466600Y0027367D02*
X0465400Y0027367D01*
X0465400Y0028566D02*
X0466600Y0028566D01*
X0466600Y0029764D02*
X0465400Y0029764D01*
X0465400Y0033360D02*
X0466600Y0033360D01*
X0466600Y0034558D02*
X0465400Y0034558D01*
X0462204Y0034558D02*
X0436567Y0034558D01*
X0437166Y0033360D02*
X0461366Y0033360D01*
X0460919Y0032161D02*
X0437504Y0032161D01*
X0437494Y0029764D02*
X0460934Y0029764D01*
X0461404Y0028566D02*
X0437135Y0028566D01*
X0436524Y0027367D02*
X0462279Y0027367D01*
X0467958Y0026169D02*
X0499042Y0026169D01*
X0500400Y0026169D02*
X0501600Y0026169D01*
X0501600Y0027367D02*
X0500400Y0027367D01*
X0500400Y0028566D02*
X0501600Y0028566D01*
X0501600Y0029764D02*
X0500400Y0029764D01*
X0500400Y0030963D02*
X0480800Y0030963D01*
X0480714Y0032161D02*
X0495919Y0032161D01*
X0496366Y0033360D02*
X0480218Y0033360D01*
X0480684Y0029764D02*
X0495934Y0029764D01*
X0496404Y0028566D02*
X0480187Y0028566D01*
X0479155Y0027367D02*
X0497279Y0027367D01*
X0501600Y0030963D02*
X0506200Y0030963D01*
X0506286Y0032161D02*
X0506081Y0032161D01*
X0505634Y0033360D02*
X0506782Y0033360D01*
X0507770Y0034558D02*
X0504796Y0034558D01*
X0501600Y0034558D02*
X0500400Y0034558D01*
X0500400Y0033360D02*
X0501600Y0033360D01*
X0501600Y0032161D02*
X0500400Y0032161D01*
X0506066Y0029764D02*
X0506316Y0029764D01*
X0506813Y0028566D02*
X0505596Y0028566D01*
X0504721Y0027367D02*
X0507845Y0027367D01*
X0502958Y0026169D02*
X0521000Y0026169D01*
X0521000Y0027367D02*
X0514155Y0027367D01*
X0515187Y0028566D02*
X0521000Y0028566D01*
X0521000Y0029764D02*
X0515684Y0029764D01*
X0515800Y0030963D02*
X0521000Y0030963D01*
X0521000Y0032161D02*
X0515714Y0032161D01*
X0515218Y0033360D02*
X0521000Y0033360D01*
X0521000Y0034558D02*
X0514230Y0034558D01*
X0518846Y0038154D02*
X0408154Y0038154D01*
X0409352Y0039352D02*
X0517648Y0039352D01*
X0516449Y0040551D02*
X0410551Y0040551D01*
X0406955Y0036955D02*
X0428131Y0036955D01*
X0426423Y0035757D02*
X0406274Y0035757D01*
X0406568Y0034558D02*
X0425433Y0034558D01*
X0424834Y0033360D02*
X0406568Y0033360D01*
X0406568Y0032161D02*
X0424496Y0032161D01*
X0424506Y0029764D02*
X0406398Y0029764D01*
X0406568Y0030963D02*
X0430600Y0030963D01*
X0430600Y0032161D02*
X0431400Y0032161D01*
X0431400Y0033360D02*
X0430600Y0033360D01*
X0430600Y0034558D02*
X0431400Y0034558D01*
X0431400Y0035757D02*
X0430600Y0035757D01*
X0430600Y0036955D02*
X0431400Y0036955D01*
X0424864Y0028566D02*
X0385350Y0028566D01*
X0385350Y0029100D02*
X0390628Y0029100D01*
X0390505Y0029882D01*
X0390218Y0030765D01*
X0389796Y0031592D01*
X0389250Y0032344D01*
X0388594Y0033000D01*
X0387842Y0033546D01*
X0387015Y0033968D01*
X0386132Y0034255D01*
X0385350Y0034378D01*
X0385350Y0029100D01*
X0385350Y0029764D02*
X0384150Y0029764D01*
X0384150Y0028566D02*
X0371000Y0028566D01*
X0371000Y0029764D02*
X0378977Y0029764D01*
X0379383Y0030963D02*
X0371000Y0030963D01*
X0371000Y0032161D02*
X0380117Y0032161D01*
X0381401Y0033360D02*
X0371000Y0033360D01*
X0371000Y0034558D02*
X0399431Y0034558D01*
X0399431Y0033360D02*
X0388099Y0033360D01*
X0389383Y0032161D02*
X0399431Y0032161D01*
X0399431Y0032269D02*
X0399431Y0030278D01*
X0399541Y0029871D01*
X0399751Y0029506D01*
X0400049Y0029208D01*
X0400414Y0028997D01*
X0400821Y0028888D01*
X0402616Y0028888D01*
X0402616Y0032269D01*
X0399431Y0032269D01*
X0399431Y0030963D02*
X0390117Y0030963D01*
X0390523Y0029764D02*
X0399602Y0029764D01*
X0402616Y0029764D02*
X0403384Y0029764D01*
X0403384Y0030963D02*
X0402616Y0030963D01*
X0402616Y0032161D02*
X0403384Y0032161D01*
X0399726Y0035757D02*
X0371000Y0035757D01*
X0371000Y0027367D02*
X0378956Y0027367D01*
X0379316Y0026169D02*
X0371000Y0026169D01*
X0372030Y0024970D02*
X0380022Y0024970D01*
X0381220Y0023772D02*
X0373228Y0023772D01*
X0374427Y0022573D02*
X0521000Y0022573D01*
X0521000Y0021375D02*
X0375625Y0021375D01*
X0384150Y0023772D02*
X0385350Y0023772D01*
X0385350Y0024970D02*
X0384150Y0024970D01*
X0384150Y0026169D02*
X0385350Y0026169D01*
X0385350Y0027367D02*
X0384150Y0027367D01*
X0384150Y0030963D02*
X0385350Y0030963D01*
X0385350Y0032161D02*
X0384150Y0032161D01*
X0384150Y0033360D02*
X0385350Y0033360D01*
X0390544Y0027367D02*
X0425476Y0027367D01*
X0426497Y0026169D02*
X0390184Y0026169D01*
X0469721Y0027367D02*
X0472845Y0027367D01*
X0471813Y0028566D02*
X0470596Y0028566D01*
X0471066Y0029764D02*
X0471316Y0029764D01*
X0476000Y0081000D02*
X0446000Y0111000D01*
X0296000Y0111000D01*
X0281000Y0126000D01*
X0281000Y0141000D01*
X0307950Y0141000D01*
X0307751Y0140801D01*
X0307541Y0140436D01*
X0307431Y0140030D01*
X0307431Y0138038D01*
X0310616Y0138038D01*
X0310616Y0137269D01*
X0311384Y0137269D01*
X0311384Y0133888D01*
X0313179Y0133888D01*
X0313586Y0133997D01*
X0313951Y0134208D01*
X0314249Y0134506D01*
X0314459Y0134871D01*
X0314568Y0135278D01*
X0314568Y0137269D01*
X0311384Y0137269D01*
X0311384Y0138038D01*
X0314568Y0138038D01*
X0314568Y0140030D01*
X0314459Y0140436D01*
X0314249Y0140801D01*
X0314050Y0141000D01*
X0316000Y0141000D01*
X0321000Y0146000D01*
X0356000Y0146000D01*
X0366000Y0156000D01*
X0481000Y0156000D01*
X0491000Y0146000D01*
X0491000Y0086000D01*
X0486000Y0081000D01*
X0476000Y0081000D01*
X0475700Y0081300D02*
X0486300Y0081300D01*
X0487499Y0082499D02*
X0474501Y0082499D01*
X0473303Y0083697D02*
X0488697Y0083697D01*
X0489896Y0084896D02*
X0472104Y0084896D01*
X0470906Y0086094D02*
X0476326Y0086094D01*
X0476589Y0085960D02*
X0475827Y0086349D01*
X0475134Y0086852D01*
X0474529Y0087457D01*
X0474026Y0088150D01*
X0473637Y0088912D01*
X0473373Y0089726D01*
X0473266Y0090400D01*
X0478077Y0090400D01*
X0478077Y0091600D01*
X0473266Y0091600D01*
X0473373Y0092274D01*
X0473637Y0093088D01*
X0474026Y0093850D01*
X0474529Y0094543D01*
X0475134Y0095148D01*
X0475827Y0095651D01*
X0476589Y0096040D01*
X0477404Y0096305D01*
X0478077Y0096411D01*
X0478077Y0091600D01*
X0479277Y0091600D01*
X0479277Y0096411D01*
X0479951Y0096305D01*
X0480765Y0096040D01*
X0481528Y0095651D01*
X0482220Y0095148D01*
X0482825Y0094543D01*
X0483329Y0093850D01*
X0483717Y0093088D01*
X0483982Y0092274D01*
X0484088Y0091600D01*
X0479277Y0091600D01*
X0479277Y0090400D01*
X0479277Y0085589D01*
X0479951Y0085695D01*
X0480765Y0085960D01*
X0481528Y0086349D01*
X0482220Y0086852D01*
X0482825Y0087457D01*
X0483329Y0088150D01*
X0483717Y0088912D01*
X0483982Y0089726D01*
X0484088Y0090400D01*
X0479277Y0090400D01*
X0478077Y0090400D01*
X0478077Y0085589D01*
X0477404Y0085695D01*
X0476589Y0085960D01*
X0478077Y0086094D02*
X0479277Y0086094D01*
X0479277Y0087293D02*
X0478077Y0087293D01*
X0478077Y0088491D02*
X0479277Y0088491D01*
X0479277Y0089690D02*
X0478077Y0089690D01*
X0478077Y0090888D02*
X0466112Y0090888D01*
X0467310Y0089690D02*
X0473384Y0089690D01*
X0473852Y0088491D02*
X0468509Y0088491D01*
X0469707Y0087293D02*
X0474693Y0087293D01*
X0473343Y0092087D02*
X0464913Y0092087D01*
X0463715Y0093285D02*
X0473738Y0093285D01*
X0474486Y0094484D02*
X0462516Y0094484D01*
X0461318Y0095682D02*
X0466139Y0095682D01*
X0465147Y0096093D02*
X0467923Y0094943D01*
X0470928Y0094943D01*
X0473703Y0096093D01*
X0475828Y0098218D01*
X0476978Y0100994D01*
X0476978Y0103998D01*
X0475828Y0106774D01*
X0473703Y0108899D01*
X0470928Y0110049D01*
X0467923Y0110049D01*
X0465147Y0108899D01*
X0463022Y0106774D01*
X0461872Y0103998D01*
X0461872Y0100994D01*
X0463022Y0098218D01*
X0465147Y0096093D01*
X0464359Y0096881D02*
X0460119Y0096881D01*
X0458921Y0098079D02*
X0463161Y0098079D01*
X0462583Y0099278D02*
X0457722Y0099278D01*
X0456524Y0100476D02*
X0462087Y0100476D01*
X0461872Y0101675D02*
X0455325Y0101675D01*
X0454127Y0102873D02*
X0461872Y0102873D01*
X0461903Y0104072D02*
X0452928Y0104072D01*
X0451730Y0105270D02*
X0462399Y0105270D01*
X0462896Y0106469D02*
X0450531Y0106469D01*
X0449332Y0107668D02*
X0463915Y0107668D01*
X0465114Y0108866D02*
X0448134Y0108866D01*
X0446935Y0110065D02*
X0491000Y0110065D01*
X0491000Y0111263D02*
X0295737Y0111263D01*
X0294538Y0112462D02*
X0491000Y0112462D01*
X0491000Y0113660D02*
X0293340Y0113660D01*
X0292141Y0114859D02*
X0491000Y0114859D01*
X0491000Y0116057D02*
X0290943Y0116057D01*
X0289744Y0117256D02*
X0491000Y0117256D01*
X0491000Y0118454D02*
X0288546Y0118454D01*
X0287347Y0119653D02*
X0491000Y0119653D01*
X0491000Y0120851D02*
X0286149Y0120851D01*
X0284950Y0122050D02*
X0491000Y0122050D01*
X0491000Y0123248D02*
X0283752Y0123248D01*
X0282553Y0124447D02*
X0491000Y0124447D01*
X0491000Y0125645D02*
X0479634Y0125645D01*
X0479951Y0125695D02*
X0480765Y0125960D01*
X0481528Y0126349D01*
X0482220Y0126852D01*
X0482825Y0127457D01*
X0483329Y0128150D01*
X0483717Y0128912D01*
X0483982Y0129726D01*
X0484088Y0130400D01*
X0479277Y0130400D01*
X0479277Y0125589D01*
X0479951Y0125695D01*
X0479277Y0125645D02*
X0478077Y0125645D01*
X0478077Y0125589D02*
X0478077Y0130400D01*
X0473266Y0130400D01*
X0473373Y0129726D01*
X0473637Y0128912D01*
X0474026Y0128150D01*
X0474529Y0127457D01*
X0475134Y0126852D01*
X0475827Y0126349D01*
X0476589Y0125960D01*
X0477404Y0125695D01*
X0478077Y0125589D01*
X0477720Y0125645D02*
X0281355Y0125645D01*
X0281000Y0126844D02*
X0475145Y0126844D01*
X0474104Y0128042D02*
X0297034Y0128042D01*
X0297015Y0128032D02*
X0297842Y0128454D01*
X0298594Y0129000D01*
X0299250Y0129656D01*
X0299796Y0130408D01*
X0300218Y0131235D01*
X0300505Y0132118D01*
X0300628Y0132900D01*
X0295350Y0132900D01*
X0295350Y0134100D01*
X0294150Y0134100D01*
X0294150Y0139378D01*
X0293368Y0139255D01*
X0292485Y0138968D01*
X0291658Y0138546D01*
X0290906Y0138000D01*
X0290250Y0137344D01*
X0289704Y0136592D01*
X0289282Y0135765D01*
X0288995Y0134882D01*
X0288871Y0134100D01*
X0294150Y0134100D01*
X0294150Y0132900D01*
X0288871Y0132900D01*
X0288995Y0132118D01*
X0289282Y0131235D01*
X0289704Y0130408D01*
X0290250Y0129656D01*
X0290906Y0129000D01*
X0291658Y0128454D01*
X0292485Y0128032D01*
X0293368Y0127745D01*
X0294150Y0127621D01*
X0294150Y0132900D01*
X0295350Y0132900D01*
X0295350Y0127621D01*
X0296132Y0127745D01*
X0297015Y0128032D01*
X0295350Y0128042D02*
X0294150Y0128042D01*
X0294150Y0129241D02*
X0295350Y0129241D01*
X0295350Y0130439D02*
X0294150Y0130439D01*
X0294150Y0131638D02*
X0295350Y0131638D01*
X0295350Y0132836D02*
X0294150Y0132836D01*
X0294150Y0134035D02*
X0281000Y0134035D01*
X0281000Y0135233D02*
X0289110Y0135233D01*
X0289622Y0136432D02*
X0281000Y0136432D01*
X0281000Y0137630D02*
X0290536Y0137630D01*
X0292213Y0138829D02*
X0281000Y0138829D01*
X0281000Y0140027D02*
X0307431Y0140027D01*
X0307431Y0138829D02*
X0297287Y0138829D01*
X0297015Y0138968D02*
X0296132Y0139255D01*
X0295350Y0139378D01*
X0295350Y0134100D01*
X0300628Y0134100D01*
X0300505Y0134882D01*
X0300218Y0135765D01*
X0299796Y0136592D01*
X0299250Y0137344D01*
X0298594Y0138000D01*
X0297842Y0138546D01*
X0297015Y0138968D01*
X0295350Y0138829D02*
X0294150Y0138829D01*
X0294150Y0137630D02*
X0295350Y0137630D01*
X0295350Y0136432D02*
X0294150Y0136432D01*
X0294150Y0135233D02*
X0295350Y0135233D01*
X0295350Y0134035D02*
X0308349Y0134035D01*
X0308414Y0133997D02*
X0308821Y0133888D01*
X0310616Y0133888D01*
X0310616Y0137269D01*
X0307431Y0137269D01*
X0307431Y0135278D01*
X0307541Y0134871D01*
X0307751Y0134506D01*
X0308049Y0134208D01*
X0308414Y0133997D01*
X0307443Y0135233D02*
X0300390Y0135233D01*
X0299878Y0136432D02*
X0307431Y0136432D01*
X0310616Y0136432D02*
X0311384Y0136432D01*
X0311384Y0137630D02*
X0334604Y0137630D01*
X0334513Y0137290D02*
X0334400Y0136433D01*
X0334400Y0136400D01*
X0340600Y0136400D01*
X0340600Y0142600D01*
X0340567Y0142600D01*
X0339710Y0142487D01*
X0338874Y0142263D01*
X0338075Y0141932D01*
X0337325Y0141499D01*
X0336639Y0140973D01*
X0336027Y0140361D01*
X0335501Y0139675D01*
X0335068Y0138925D01*
X0334737Y0138126D01*
X0334513Y0137290D01*
X0334400Y0136432D02*
X0314568Y0136432D01*
X0314557Y0135233D02*
X0334444Y0135233D01*
X0334400Y0135567D02*
X0334513Y0134710D01*
X0334737Y0133874D01*
X0335068Y0133075D01*
X0335501Y0132325D01*
X0336027Y0131639D01*
X0336639Y0131027D01*
X0337325Y0130501D01*
X0338075Y0130068D01*
X0338874Y0129737D01*
X0339710Y0129513D01*
X0340567Y0129400D01*
X0340600Y0129400D01*
X0340600Y0135600D01*
X0334400Y0135600D01*
X0334400Y0135567D01*
X0334694Y0134035D02*
X0313651Y0134035D01*
X0311384Y0134035D02*
X0310616Y0134035D01*
X0310616Y0135233D02*
X0311384Y0135233D01*
X0310616Y0137630D02*
X0298964Y0137630D01*
X0300618Y0132836D02*
X0335206Y0132836D01*
X0336028Y0131638D02*
X0300349Y0131638D01*
X0299812Y0130439D02*
X0337432Y0130439D01*
X0340600Y0130439D02*
X0341400Y0130439D01*
X0341400Y0129400D02*
X0341433Y0129400D01*
X0342290Y0129513D01*
X0343126Y0129737D01*
X0343925Y0130068D01*
X0344675Y0130501D01*
X0345361Y0131027D01*
X0345973Y0131639D01*
X0346499Y0132325D01*
X0346932Y0133075D01*
X0347263Y0133874D01*
X0347487Y0134710D01*
X0347600Y0135567D01*
X0347600Y0135600D01*
X0341400Y0135600D01*
X0341400Y0136400D01*
X0340600Y0136400D01*
X0340600Y0135600D01*
X0341400Y0135600D01*
X0341400Y0129400D01*
X0341400Y0131638D02*
X0340600Y0131638D01*
X0340600Y0132836D02*
X0341400Y0132836D01*
X0341400Y0134035D02*
X0340600Y0134035D01*
X0340600Y0135233D02*
X0341400Y0135233D01*
X0341400Y0136400D02*
X0347600Y0136400D01*
X0347600Y0136433D01*
X0347487Y0137290D01*
X0347263Y0138126D01*
X0346932Y0138925D01*
X0346499Y0139675D01*
X0345973Y0140361D01*
X0345361Y0140973D01*
X0344675Y0141499D01*
X0343925Y0141932D01*
X0343126Y0142263D01*
X0342290Y0142487D01*
X0341433Y0142600D01*
X0341400Y0142600D01*
X0341400Y0136400D01*
X0341400Y0136432D02*
X0340600Y0136432D01*
X0340600Y0137630D02*
X0341400Y0137630D01*
X0341400Y0138829D02*
X0340600Y0138829D01*
X0340600Y0140027D02*
X0341400Y0140027D01*
X0341400Y0141226D02*
X0340600Y0141226D01*
X0340600Y0142424D02*
X0341400Y0142424D01*
X0342524Y0142424D02*
X0367571Y0142424D01*
X0367075Y0141226D02*
X0345031Y0141226D01*
X0346229Y0140027D02*
X0366951Y0140027D01*
X0366951Y0140928D02*
X0366951Y0137923D01*
X0368101Y0135147D01*
X0370226Y0133022D01*
X0373002Y0131872D01*
X0376006Y0131872D01*
X0378782Y0133022D01*
X0380907Y0135147D01*
X0382057Y0137923D01*
X0382057Y0140928D01*
X0380907Y0143703D01*
X0378782Y0145828D01*
X0376006Y0146978D01*
X0373002Y0146978D01*
X0370226Y0145828D01*
X0368101Y0143703D01*
X0366951Y0140928D01*
X0366951Y0138829D02*
X0346972Y0138829D01*
X0347396Y0137630D02*
X0367072Y0137630D01*
X0367569Y0136432D02*
X0347600Y0136432D01*
X0347556Y0135233D02*
X0368065Y0135233D01*
X0369213Y0134035D02*
X0347306Y0134035D01*
X0346794Y0132836D02*
X0370675Y0132836D01*
X0378333Y0132836D02*
X0410675Y0132836D01*
X0410226Y0133022D02*
X0413002Y0131872D01*
X0416006Y0131872D01*
X0418782Y0133022D01*
X0420907Y0135147D01*
X0422057Y0137923D01*
X0422057Y0140928D01*
X0420907Y0143703D01*
X0418782Y0145828D01*
X0416006Y0146978D01*
X0413002Y0146978D01*
X0410226Y0145828D01*
X0408101Y0143703D01*
X0406951Y0140928D01*
X0406951Y0137923D01*
X0408101Y0135147D01*
X0410226Y0133022D01*
X0409213Y0134035D02*
X0379795Y0134035D01*
X0380943Y0135233D02*
X0408065Y0135233D01*
X0407569Y0136432D02*
X0381439Y0136432D01*
X0381935Y0137630D02*
X0407072Y0137630D01*
X0406951Y0138829D02*
X0382057Y0138829D01*
X0382057Y0140027D02*
X0406951Y0140027D01*
X0407075Y0141226D02*
X0381933Y0141226D01*
X0381437Y0142424D02*
X0407571Y0142424D01*
X0408068Y0143623D02*
X0388044Y0143623D01*
X0388088Y0143637D02*
X0388850Y0144026D01*
X0389543Y0144529D01*
X0390148Y0145134D01*
X0390651Y0145827D01*
X0391040Y0146589D01*
X0391305Y0147404D01*
X0391411Y0148077D01*
X0386600Y0148077D01*
X0386600Y0143266D01*
X0387274Y0143373D01*
X0388088Y0143637D01*
X0386600Y0143623D02*
X0385400Y0143623D01*
X0385400Y0143266D02*
X0385400Y0148077D01*
X0386600Y0148077D01*
X0386600Y0149277D01*
X0391411Y0149277D01*
X0391305Y0149951D01*
X0391040Y0150765D01*
X0390651Y0151528D01*
X0390148Y0152220D01*
X0389543Y0152825D01*
X0388850Y0153329D01*
X0388088Y0153717D01*
X0387274Y0153982D01*
X0386600Y0154088D01*
X0386600Y0149277D01*
X0385400Y0149277D01*
X0385400Y0148077D01*
X0380589Y0148077D01*
X0380695Y0147404D01*
X0380960Y0146589D01*
X0381349Y0145827D01*
X0381852Y0145134D01*
X0382457Y0144529D01*
X0383150Y0144026D01*
X0383912Y0143637D01*
X0384726Y0143373D01*
X0385400Y0143266D01*
X0383956Y0143623D02*
X0380940Y0143623D01*
X0379789Y0144821D02*
X0382164Y0144821D01*
X0381250Y0146020D02*
X0378319Y0146020D01*
X0380756Y0147218D02*
X0357218Y0147218D01*
X0356020Y0146020D02*
X0370689Y0146020D01*
X0369219Y0144821D02*
X0319821Y0144821D01*
X0318623Y0143623D02*
X0368068Y0143623D01*
X0360814Y0150814D02*
X0380985Y0150814D01*
X0380960Y0150765D02*
X0380695Y0149951D01*
X0380589Y0149277D01*
X0385400Y0149277D01*
X0385400Y0154088D01*
X0384726Y0153982D01*
X0383912Y0153717D01*
X0383150Y0153329D01*
X0382457Y0152825D01*
X0381852Y0152220D01*
X0381349Y0151528D01*
X0380960Y0150765D01*
X0380642Y0149615D02*
X0359615Y0149615D01*
X0358417Y0148417D02*
X0385400Y0148417D01*
X0385400Y0149615D02*
X0386600Y0149615D01*
X0386600Y0148417D02*
X0425400Y0148417D01*
X0425400Y0148077D02*
X0420589Y0148077D01*
X0420695Y0147404D01*
X0420960Y0146589D01*
X0421349Y0145827D01*
X0421852Y0145134D01*
X0422457Y0144529D01*
X0423150Y0144026D01*
X0423912Y0143637D01*
X0424726Y0143373D01*
X0425400Y0143266D01*
X0425400Y0148077D01*
X0426600Y0148077D01*
X0426600Y0143266D01*
X0427274Y0143373D01*
X0428088Y0143637D01*
X0428850Y0144026D01*
X0429543Y0144529D01*
X0430148Y0145134D01*
X0430651Y0145827D01*
X0431040Y0146589D01*
X0431305Y0147404D01*
X0431411Y0148077D01*
X0426600Y0148077D01*
X0426600Y0149277D01*
X0431411Y0149277D01*
X0431305Y0149951D01*
X0431040Y0150765D01*
X0430651Y0151528D01*
X0430148Y0152220D01*
X0429543Y0152825D01*
X0428850Y0153329D01*
X0428088Y0153717D01*
X0427274Y0153982D01*
X0426600Y0154088D01*
X0426600Y0149277D01*
X0425400Y0149277D01*
X0425400Y0148077D01*
X0425400Y0147218D02*
X0426600Y0147218D01*
X0426600Y0146020D02*
X0425400Y0146020D01*
X0425400Y0144821D02*
X0426600Y0144821D01*
X0426600Y0143623D02*
X0425400Y0143623D01*
X0423956Y0143623D02*
X0420940Y0143623D01*
X0421437Y0142424D02*
X0461872Y0142424D01*
X0461872Y0141226D02*
X0421933Y0141226D01*
X0422057Y0140027D02*
X0462273Y0140027D01*
X0461872Y0140994D02*
X0463022Y0138218D01*
X0465147Y0136093D01*
X0467923Y0134943D01*
X0470928Y0134943D01*
X0473703Y0136093D01*
X0475828Y0138218D01*
X0476978Y0140994D01*
X0476978Y0143998D01*
X0475828Y0146774D01*
X0473703Y0148899D01*
X0470928Y0150049D01*
X0467923Y0150049D01*
X0465147Y0148899D01*
X0463022Y0146774D01*
X0461872Y0143998D01*
X0461872Y0140994D01*
X0462769Y0138829D02*
X0422057Y0138829D01*
X0421935Y0137630D02*
X0463610Y0137630D01*
X0464808Y0136432D02*
X0421439Y0136432D01*
X0420943Y0135233D02*
X0467223Y0135233D01*
X0471628Y0135233D02*
X0475251Y0135233D01*
X0475134Y0135148D02*
X0474529Y0134543D01*
X0474026Y0133850D01*
X0473637Y0133088D01*
X0473373Y0132274D01*
X0473266Y0131600D01*
X0478077Y0131600D01*
X0478077Y0130400D01*
X0479277Y0130400D01*
X0479277Y0131600D01*
X0478077Y0131600D01*
X0478077Y0136411D01*
X0477404Y0136305D01*
X0476589Y0136040D01*
X0475827Y0135651D01*
X0475134Y0135148D01*
X0474160Y0134035D02*
X0419795Y0134035D01*
X0418333Y0132836D02*
X0473555Y0132836D01*
X0473272Y0131638D02*
X0345972Y0131638D01*
X0344568Y0130439D02*
X0478077Y0130439D01*
X0478077Y0129241D02*
X0479277Y0129241D01*
X0479277Y0130439D02*
X0491000Y0130439D01*
X0491000Y0129241D02*
X0483824Y0129241D01*
X0483251Y0128042D02*
X0491000Y0128042D01*
X0491000Y0126844D02*
X0482209Y0126844D01*
X0479277Y0126844D02*
X0478077Y0126844D01*
X0478077Y0128042D02*
X0479277Y0128042D01*
X0479277Y0131600D02*
X0484088Y0131600D01*
X0483982Y0132274D01*
X0483717Y0133088D01*
X0483329Y0133850D01*
X0482825Y0134543D01*
X0482220Y0135148D01*
X0481528Y0135651D01*
X0480765Y0136040D01*
X0479951Y0136305D01*
X0479277Y0136411D01*
X0479277Y0131600D01*
X0479277Y0131638D02*
X0478077Y0131638D01*
X0478077Y0132836D02*
X0479277Y0132836D01*
X0479277Y0134035D02*
X0478077Y0134035D01*
X0478077Y0135233D02*
X0479277Y0135233D01*
X0482103Y0135233D02*
X0491000Y0135233D01*
X0491000Y0134035D02*
X0483195Y0134035D01*
X0483799Y0132836D02*
X0491000Y0132836D01*
X0491000Y0131638D02*
X0484083Y0131638D01*
X0491000Y0136432D02*
X0474042Y0136432D01*
X0475241Y0137630D02*
X0491000Y0137630D01*
X0491000Y0138829D02*
X0476081Y0138829D01*
X0476578Y0140027D02*
X0491000Y0140027D01*
X0491000Y0141226D02*
X0476978Y0141226D01*
X0476978Y0142424D02*
X0491000Y0142424D01*
X0491000Y0143623D02*
X0476978Y0143623D01*
X0476637Y0144821D02*
X0491000Y0144821D01*
X0490980Y0146020D02*
X0476141Y0146020D01*
X0475384Y0147218D02*
X0489782Y0147218D01*
X0488583Y0148417D02*
X0474186Y0148417D01*
X0471974Y0149615D02*
X0487385Y0149615D01*
X0486186Y0150814D02*
X0431015Y0150814D01*
X0431358Y0149615D02*
X0466877Y0149615D01*
X0464665Y0148417D02*
X0426600Y0148417D01*
X0426600Y0149615D02*
X0425400Y0149615D01*
X0425400Y0149277D02*
X0425400Y0154088D01*
X0424726Y0153982D01*
X0423912Y0153717D01*
X0423150Y0153329D01*
X0422457Y0152825D01*
X0421852Y0152220D01*
X0421349Y0151528D01*
X0420960Y0150765D01*
X0420695Y0149951D01*
X0420589Y0149277D01*
X0425400Y0149277D01*
X0425400Y0150814D02*
X0426600Y0150814D01*
X0426600Y0152012D02*
X0425400Y0152012D01*
X0425400Y0153211D02*
X0426600Y0153211D01*
X0429012Y0153211D02*
X0483789Y0153211D01*
X0482591Y0154409D02*
X0364409Y0154409D01*
X0363211Y0153211D02*
X0382988Y0153211D01*
X0381701Y0152012D02*
X0362012Y0152012D01*
X0365608Y0155608D02*
X0481392Y0155608D01*
X0484988Y0152012D02*
X0430299Y0152012D01*
X0431244Y0147218D02*
X0463466Y0147218D01*
X0462710Y0146020D02*
X0430750Y0146020D01*
X0429836Y0144821D02*
X0462213Y0144821D01*
X0461872Y0143623D02*
X0428044Y0143623D01*
X0422164Y0144821D02*
X0419789Y0144821D01*
X0421250Y0146020D02*
X0418319Y0146020D01*
X0420756Y0147218D02*
X0391244Y0147218D01*
X0390750Y0146020D02*
X0410689Y0146020D01*
X0409219Y0144821D02*
X0389836Y0144821D01*
X0386600Y0144821D02*
X0385400Y0144821D01*
X0385400Y0146020D02*
X0386600Y0146020D01*
X0386600Y0147218D02*
X0385400Y0147218D01*
X0385400Y0150814D02*
X0386600Y0150814D01*
X0386600Y0152012D02*
X0385400Y0152012D01*
X0385400Y0153211D02*
X0386600Y0153211D01*
X0389012Y0153211D02*
X0422988Y0153211D01*
X0421701Y0152012D02*
X0390299Y0152012D01*
X0391015Y0150814D02*
X0420985Y0150814D01*
X0420642Y0149615D02*
X0391358Y0149615D01*
X0339476Y0142424D02*
X0317424Y0142424D01*
X0316226Y0141226D02*
X0336969Y0141226D01*
X0335771Y0140027D02*
X0314568Y0140027D01*
X0314568Y0138829D02*
X0335028Y0138829D01*
X0298835Y0129241D02*
X0473530Y0129241D01*
X0473736Y0108866D02*
X0491000Y0108866D01*
X0491000Y0107668D02*
X0474935Y0107668D01*
X0475955Y0106469D02*
X0491000Y0106469D01*
X0491000Y0105270D02*
X0476451Y0105270D01*
X0476947Y0104072D02*
X0491000Y0104072D01*
X0491000Y0102873D02*
X0476978Y0102873D01*
X0476978Y0101675D02*
X0491000Y0101675D01*
X0491000Y0100476D02*
X0476764Y0100476D01*
X0476267Y0099278D02*
X0491000Y0099278D01*
X0491000Y0098079D02*
X0475690Y0098079D01*
X0474491Y0096881D02*
X0491000Y0096881D01*
X0491000Y0095682D02*
X0481467Y0095682D01*
X0482868Y0094484D02*
X0491000Y0094484D01*
X0491000Y0093285D02*
X0483617Y0093285D01*
X0484011Y0092087D02*
X0491000Y0092087D01*
X0491000Y0090888D02*
X0479277Y0090888D01*
X0479277Y0092087D02*
X0478077Y0092087D01*
X0478077Y0093285D02*
X0479277Y0093285D01*
X0479277Y0094484D02*
X0478077Y0094484D01*
X0478077Y0095682D02*
X0479277Y0095682D01*
X0475887Y0095682D02*
X0472712Y0095682D01*
X0483970Y0089690D02*
X0491000Y0089690D01*
X0491000Y0088491D02*
X0483503Y0088491D01*
X0482661Y0087293D02*
X0491000Y0087293D01*
X0491000Y0086094D02*
X0481029Y0086094D01*
X0491000Y0161000D02*
X0471000Y0161000D01*
X0471000Y0174973D01*
X0473703Y0176093D01*
X0475828Y0178218D01*
X0476978Y0180994D01*
X0476978Y0183998D01*
X0475828Y0186774D01*
X0473703Y0188899D01*
X0471000Y0190019D01*
X0471000Y0206000D01*
X0461000Y0216000D01*
X0415768Y0216000D01*
X0415768Y0219917D01*
X0415043Y0221670D01*
X0413701Y0223011D01*
X0411949Y0223737D01*
X0410051Y0223737D01*
X0408299Y0223011D01*
X0406957Y0221670D01*
X0406231Y0219917D01*
X0406231Y0216000D01*
X0401384Y0216000D01*
X0401384Y0216384D01*
X0405568Y0216384D01*
X0405568Y0219328D01*
X0405456Y0220038D01*
X0405234Y0220722D01*
X0404907Y0221363D01*
X0404485Y0221945D01*
X0403976Y0222453D01*
X0403394Y0222876D01*
X0402754Y0223202D01*
X0402070Y0223425D01*
X0401384Y0223533D01*
X0401384Y0216384D01*
X0400616Y0216384D01*
X0400616Y0216000D01*
X0356000Y0216000D01*
X0356000Y0241000D01*
X0374931Y0241000D01*
X0374931Y0240038D01*
X0378116Y0240038D01*
X0378116Y0239269D01*
X0378884Y0239269D01*
X0378884Y0235888D01*
X0380679Y0235888D01*
X0381086Y0235997D01*
X0381451Y0236208D01*
X0381749Y0236506D01*
X0381959Y0236871D01*
X0382068Y0237278D01*
X0382068Y0239269D01*
X0378884Y0239269D01*
X0378884Y0240038D01*
X0382068Y0240038D01*
X0382068Y0241000D01*
X0386000Y0241000D01*
X0396000Y0251000D01*
X0396000Y0261000D01*
X0401383Y0261000D01*
X0403183Y0259200D01*
X0408817Y0259200D01*
X0410617Y0261000D01*
X0521000Y0261000D01*
X0521000Y0250844D01*
X0520651Y0251528D01*
X0520148Y0252220D01*
X0519543Y0252825D01*
X0518850Y0253329D01*
X0518088Y0253717D01*
X0517274Y0253982D01*
X0516600Y0254088D01*
X0516600Y0249277D01*
X0515400Y0249277D01*
X0515400Y0248077D01*
X0516600Y0248077D01*
X0516600Y0243266D01*
X0517274Y0243373D01*
X0518088Y0243637D01*
X0518850Y0244026D01*
X0519543Y0244529D01*
X0520148Y0245134D01*
X0520651Y0245827D01*
X0521000Y0246511D01*
X0521000Y0241000D01*
X0511000Y0231000D01*
X0496000Y0231000D01*
X0491000Y0226000D01*
X0491000Y0161000D01*
X0491000Y0161601D02*
X0471000Y0161601D01*
X0471000Y0162799D02*
X0491000Y0162799D01*
X0491000Y0163998D02*
X0471000Y0163998D01*
X0471000Y0165196D02*
X0491000Y0165196D01*
X0491000Y0166395D02*
X0481591Y0166395D01*
X0481528Y0166349D02*
X0482220Y0166852D01*
X0482825Y0167457D01*
X0483329Y0168150D01*
X0483717Y0168912D01*
X0483982Y0169726D01*
X0484088Y0170400D01*
X0479277Y0170400D01*
X0479277Y0165589D01*
X0479951Y0165695D01*
X0480765Y0165960D01*
X0481528Y0166349D01*
X0482924Y0167593D02*
X0491000Y0167593D01*
X0491000Y0168792D02*
X0483656Y0168792D01*
X0484024Y0169990D02*
X0491000Y0169990D01*
X0491000Y0171189D02*
X0479277Y0171189D01*
X0479277Y0171600D02*
X0484088Y0171600D01*
X0483982Y0172274D01*
X0483717Y0173088D01*
X0483329Y0173850D01*
X0482825Y0174543D01*
X0482220Y0175148D01*
X0481528Y0175651D01*
X0480765Y0176040D01*
X0479951Y0176305D01*
X0479277Y0176411D01*
X0479277Y0171600D01*
X0478077Y0171600D01*
X0478077Y0170400D01*
X0473266Y0170400D01*
X0473373Y0169726D01*
X0473637Y0168912D01*
X0474026Y0168150D01*
X0474529Y0167457D01*
X0475134Y0166852D01*
X0475827Y0166349D01*
X0476589Y0165960D01*
X0477404Y0165695D01*
X0478077Y0165589D01*
X0478077Y0170400D01*
X0479277Y0170400D01*
X0479277Y0171600D01*
X0479277Y0172387D02*
X0478077Y0172387D01*
X0478077Y0171600D02*
X0478077Y0176411D01*
X0477404Y0176305D01*
X0476589Y0176040D01*
X0475827Y0175651D01*
X0475134Y0175148D01*
X0474529Y0174543D01*
X0474026Y0173850D01*
X0473637Y0173088D01*
X0473373Y0172274D01*
X0473266Y0171600D01*
X0478077Y0171600D01*
X0478077Y0171189D02*
X0471000Y0171189D01*
X0471000Y0172387D02*
X0473409Y0172387D01*
X0473891Y0173586D02*
X0471000Y0173586D01*
X0471000Y0174784D02*
X0474770Y0174784D01*
X0473437Y0175983D02*
X0476477Y0175983D01*
X0478077Y0175983D02*
X0479277Y0175983D01*
X0479277Y0174784D02*
X0478077Y0174784D01*
X0478077Y0173586D02*
X0479277Y0173586D01*
X0480878Y0175983D02*
X0491000Y0175983D01*
X0491000Y0177181D02*
X0474791Y0177181D01*
X0475895Y0178380D02*
X0491000Y0178380D01*
X0491000Y0179578D02*
X0476392Y0179578D01*
X0476888Y0180777D02*
X0491000Y0180777D01*
X0491000Y0181975D02*
X0476978Y0181975D01*
X0476978Y0183174D02*
X0491000Y0183174D01*
X0491000Y0184372D02*
X0476823Y0184372D01*
X0476327Y0185571D02*
X0491000Y0185571D01*
X0491000Y0186769D02*
X0475830Y0186769D01*
X0474635Y0187968D02*
X0491000Y0187968D01*
X0491000Y0189166D02*
X0473058Y0189166D01*
X0471000Y0190365D02*
X0491000Y0190365D01*
X0491000Y0191563D02*
X0471000Y0191563D01*
X0471000Y0192762D02*
X0491000Y0192762D01*
X0491000Y0193960D02*
X0471000Y0193960D01*
X0471000Y0195159D02*
X0491000Y0195159D01*
X0491000Y0196357D02*
X0471000Y0196357D01*
X0471000Y0197556D02*
X0491000Y0197556D01*
X0491000Y0198754D02*
X0471000Y0198754D01*
X0471000Y0199953D02*
X0491000Y0199953D01*
X0491000Y0201151D02*
X0471000Y0201151D01*
X0471000Y0202350D02*
X0491000Y0202350D01*
X0491000Y0203548D02*
X0471000Y0203548D01*
X0471000Y0204747D02*
X0491000Y0204747D01*
X0491000Y0205945D02*
X0480720Y0205945D01*
X0480765Y0205960D02*
X0481528Y0206349D01*
X0482220Y0206852D01*
X0482825Y0207457D01*
X0483329Y0208150D01*
X0483717Y0208912D01*
X0483982Y0209726D01*
X0484088Y0210400D01*
X0479277Y0210400D01*
X0479277Y0205589D01*
X0479951Y0205695D01*
X0480765Y0205960D01*
X0479277Y0205945D02*
X0478077Y0205945D01*
X0478077Y0205589D02*
X0478077Y0210400D01*
X0473266Y0210400D01*
X0473373Y0209726D01*
X0473637Y0208912D01*
X0474026Y0208150D01*
X0474529Y0207457D01*
X0475134Y0206852D01*
X0475827Y0206349D01*
X0476589Y0205960D01*
X0477404Y0205695D01*
X0478077Y0205589D01*
X0476634Y0205945D02*
X0471000Y0205945D01*
X0469856Y0207144D02*
X0474842Y0207144D01*
X0473927Y0208342D02*
X0468658Y0208342D01*
X0467459Y0209541D02*
X0473433Y0209541D01*
X0473266Y0211600D02*
X0478077Y0211600D01*
X0478077Y0210400D01*
X0479277Y0210400D01*
X0479277Y0211600D01*
X0478077Y0211600D01*
X0478077Y0216411D01*
X0477404Y0216305D01*
X0476589Y0216040D01*
X0475827Y0215651D01*
X0475134Y0215148D01*
X0474529Y0214543D01*
X0474026Y0213850D01*
X0473637Y0213088D01*
X0473373Y0212274D01*
X0473266Y0211600D01*
X0473319Y0211938D02*
X0465062Y0211938D01*
X0463863Y0213137D02*
X0473662Y0213137D01*
X0474378Y0214335D02*
X0462665Y0214335D01*
X0461466Y0215534D02*
X0466498Y0215534D01*
X0465147Y0216093D02*
X0467923Y0214943D01*
X0470928Y0214943D01*
X0473703Y0216093D01*
X0475828Y0218218D01*
X0476978Y0220994D01*
X0476978Y0223998D01*
X0475828Y0226774D01*
X0473703Y0228899D01*
X0470928Y0230049D01*
X0467923Y0230049D01*
X0465147Y0228899D01*
X0463022Y0226774D01*
X0461872Y0223998D01*
X0461872Y0220994D01*
X0463022Y0218218D01*
X0465147Y0216093D01*
X0464508Y0216732D02*
X0415768Y0216732D01*
X0415768Y0217931D02*
X0463309Y0217931D01*
X0462645Y0219129D02*
X0415768Y0219129D01*
X0415598Y0220328D02*
X0462148Y0220328D01*
X0461872Y0221526D02*
X0415102Y0221526D01*
X0413988Y0222725D02*
X0461872Y0222725D01*
X0461872Y0223923D02*
X0368488Y0223923D01*
X0368594Y0224000D02*
X0369250Y0224656D01*
X0369796Y0225408D01*
X0370218Y0226235D01*
X0370505Y0227118D01*
X0370628Y0227900D01*
X0365350Y0227900D01*
X0365350Y0229100D01*
X0364150Y0229100D01*
X0364150Y0234378D01*
X0363368Y0234255D01*
X0362485Y0233968D01*
X0361658Y0233546D01*
X0360906Y0233000D01*
X0360250Y0232344D01*
X0359704Y0231592D01*
X0359282Y0230765D01*
X0358995Y0229882D01*
X0358871Y0229100D01*
X0364150Y0229100D01*
X0364150Y0227900D01*
X0358871Y0227900D01*
X0358995Y0227118D01*
X0359282Y0226235D01*
X0359704Y0225408D01*
X0360250Y0224656D01*
X0360906Y0224000D01*
X0361658Y0223454D01*
X0362485Y0223032D01*
X0363368Y0222745D01*
X0364150Y0222621D01*
X0364150Y0227900D01*
X0365350Y0227900D01*
X0365350Y0222621D01*
X0366132Y0222745D01*
X0367015Y0223032D01*
X0367842Y0223454D01*
X0368594Y0224000D01*
X0369588Y0225122D02*
X0462338Y0225122D01*
X0462834Y0226320D02*
X0370245Y0226320D01*
X0370568Y0227519D02*
X0463767Y0227519D01*
X0464965Y0228717D02*
X0365350Y0228717D01*
X0365350Y0229100D02*
X0370628Y0229100D01*
X0370505Y0229882D01*
X0370218Y0230765D01*
X0369796Y0231592D01*
X0369250Y0232344D01*
X0368594Y0233000D01*
X0367842Y0233546D01*
X0367015Y0233968D01*
X0366132Y0234255D01*
X0365350Y0234378D01*
X0365350Y0229100D01*
X0365350Y0229916D02*
X0364150Y0229916D01*
X0364150Y0231114D02*
X0365350Y0231114D01*
X0365350Y0232313D02*
X0364150Y0232313D01*
X0364150Y0233511D02*
X0365350Y0233511D01*
X0367890Y0233511D02*
X0429737Y0233511D01*
X0430226Y0233022D02*
X0433002Y0231872D01*
X0436006Y0231872D01*
X0438782Y0233022D01*
X0440907Y0235147D01*
X0442057Y0237923D01*
X0442057Y0240928D01*
X0440907Y0243703D01*
X0438782Y0245828D01*
X0436006Y0246978D01*
X0433002Y0246978D01*
X0430226Y0245828D01*
X0428101Y0243703D01*
X0426951Y0240928D01*
X0426951Y0237923D01*
X0428101Y0235147D01*
X0430226Y0233022D01*
X0431939Y0232313D02*
X0369273Y0232313D01*
X0370040Y0231114D02*
X0511114Y0231114D01*
X0512313Y0232313D02*
X0507069Y0232313D01*
X0506006Y0231872D02*
X0508782Y0233022D01*
X0510907Y0235147D01*
X0512057Y0237923D01*
X0512057Y0240928D01*
X0510907Y0243703D01*
X0508782Y0245828D01*
X0506006Y0246978D01*
X0503002Y0246978D01*
X0500226Y0245828D01*
X0498101Y0243703D01*
X0496951Y0240928D01*
X0496951Y0237923D01*
X0498101Y0235147D01*
X0500226Y0233022D01*
X0503002Y0231872D01*
X0506006Y0231872D01*
X0509271Y0233511D02*
X0513511Y0233511D01*
X0514710Y0234710D02*
X0510470Y0234710D01*
X0511222Y0235908D02*
X0515908Y0235908D01*
X0517107Y0237107D02*
X0511719Y0237107D01*
X0512057Y0238305D02*
X0518305Y0238305D01*
X0519504Y0239504D02*
X0512057Y0239504D01*
X0512057Y0240702D02*
X0520702Y0240702D01*
X0521000Y0241901D02*
X0511654Y0241901D01*
X0511157Y0243099D02*
X0521000Y0243099D01*
X0521000Y0244298D02*
X0519225Y0244298D01*
X0520411Y0245496D02*
X0521000Y0245496D01*
X0516600Y0245496D02*
X0515400Y0245496D01*
X0515400Y0244298D02*
X0516600Y0244298D01*
X0515400Y0243266D02*
X0515400Y0248077D01*
X0510589Y0248077D01*
X0510695Y0247404D01*
X0510960Y0246589D01*
X0511349Y0245827D01*
X0511852Y0245134D01*
X0512457Y0244529D01*
X0513150Y0244026D01*
X0513912Y0243637D01*
X0514726Y0243373D01*
X0515400Y0243266D01*
X0512775Y0244298D02*
X0510313Y0244298D01*
X0509114Y0245496D02*
X0511589Y0245496D01*
X0510926Y0246695D02*
X0506690Y0246695D01*
X0510618Y0247893D02*
X0486382Y0247893D01*
X0486411Y0248077D02*
X0481600Y0248077D01*
X0481600Y0243266D01*
X0482274Y0243373D01*
X0483088Y0243637D01*
X0483850Y0244026D01*
X0484543Y0244529D01*
X0485148Y0245134D01*
X0485651Y0245827D01*
X0486040Y0246589D01*
X0486305Y0247404D01*
X0486411Y0248077D01*
X0486411Y0249277D02*
X0486305Y0249951D01*
X0486040Y0250765D01*
X0485651Y0251528D01*
X0485148Y0252220D01*
X0484543Y0252825D01*
X0483850Y0253329D01*
X0483088Y0253717D01*
X0482274Y0253982D01*
X0481600Y0254088D01*
X0481600Y0249277D01*
X0486411Y0249277D01*
X0486194Y0250290D02*
X0510806Y0250290D01*
X0510695Y0249951D02*
X0510589Y0249277D01*
X0515400Y0249277D01*
X0515400Y0254088D01*
X0514726Y0253982D01*
X0513912Y0253717D01*
X0513150Y0253329D01*
X0512457Y0252825D01*
X0511852Y0252220D01*
X0511349Y0251528D01*
X0510960Y0250765D01*
X0510695Y0249951D01*
X0511329Y0251489D02*
X0485671Y0251489D01*
X0484681Y0252687D02*
X0512319Y0252687D01*
X0514431Y0253886D02*
X0482569Y0253886D01*
X0481600Y0253886D02*
X0480400Y0253886D01*
X0480400Y0254088D02*
X0479726Y0253982D01*
X0478912Y0253717D01*
X0478150Y0253329D01*
X0477457Y0252825D01*
X0476852Y0252220D01*
X0476349Y0251528D01*
X0475960Y0250765D01*
X0475695Y0249951D01*
X0475589Y0249277D01*
X0480400Y0249277D01*
X0480400Y0248077D01*
X0481600Y0248077D01*
X0481600Y0249277D01*
X0480400Y0249277D01*
X0480400Y0254088D01*
X0479431Y0253886D02*
X0447569Y0253886D01*
X0447274Y0253982D02*
X0446600Y0254088D01*
X0446600Y0249277D01*
X0451411Y0249277D01*
X0451305Y0249951D01*
X0451040Y0250765D01*
X0450651Y0251528D01*
X0450148Y0252220D01*
X0449543Y0252825D01*
X0448850Y0253329D01*
X0448088Y0253717D01*
X0447274Y0253982D01*
X0446600Y0253886D02*
X0445400Y0253886D01*
X0445400Y0254088D02*
X0444726Y0253982D01*
X0443912Y0253717D01*
X0443150Y0253329D01*
X0442457Y0252825D01*
X0441852Y0252220D01*
X0441349Y0251528D01*
X0440960Y0250765D01*
X0440695Y0249951D01*
X0440589Y0249277D01*
X0445400Y0249277D01*
X0445400Y0248077D01*
X0446600Y0248077D01*
X0446600Y0243266D01*
X0447274Y0243373D01*
X0448088Y0243637D01*
X0448850Y0244026D01*
X0449543Y0244529D01*
X0450148Y0245134D01*
X0450651Y0245827D01*
X0451040Y0246589D01*
X0451305Y0247404D01*
X0451411Y0248077D01*
X0446600Y0248077D01*
X0446600Y0249277D01*
X0445400Y0249277D01*
X0445400Y0254088D01*
X0444431Y0253886D02*
X0396000Y0253886D01*
X0396000Y0255084D02*
X0521000Y0255084D01*
X0521000Y0253886D02*
X0517569Y0253886D01*
X0516600Y0253886D02*
X0515400Y0253886D01*
X0515400Y0252687D02*
X0516600Y0252687D01*
X0516600Y0251489D02*
X0515400Y0251489D01*
X0515400Y0250290D02*
X0516600Y0250290D01*
X0515400Y0249092D02*
X0481600Y0249092D01*
X0481600Y0250290D02*
X0480400Y0250290D01*
X0480400Y0249092D02*
X0446600Y0249092D01*
X0446600Y0250290D02*
X0445400Y0250290D01*
X0445400Y0249092D02*
X0411836Y0249092D01*
X0411932Y0248925D02*
X0411499Y0249675D01*
X0410973Y0250361D01*
X0410361Y0250973D01*
X0409675Y0251499D01*
X0408925Y0251932D01*
X0408126Y0252263D01*
X0407290Y0252487D01*
X0406433Y0252600D01*
X0406400Y0252600D01*
X0406400Y0246400D01*
X0405600Y0246400D01*
X0405600Y0252600D01*
X0405567Y0252600D01*
X0404710Y0252487D01*
X0403874Y0252263D01*
X0403075Y0251932D01*
X0402325Y0251499D01*
X0401639Y0250973D01*
X0401027Y0250361D01*
X0400501Y0249675D01*
X0400068Y0248925D01*
X0399737Y0248126D01*
X0399513Y0247290D01*
X0399400Y0246433D01*
X0399400Y0246400D01*
X0405600Y0246400D01*
X0405600Y0245600D01*
X0399400Y0245600D01*
X0399400Y0245567D01*
X0399513Y0244710D01*
X0399737Y0243874D01*
X0400068Y0243075D01*
X0400501Y0242325D01*
X0401027Y0241639D01*
X0401639Y0241027D01*
X0402325Y0240501D01*
X0403075Y0240068D01*
X0403874Y0239737D01*
X0404710Y0239513D01*
X0405567Y0239400D01*
X0405600Y0239400D01*
X0405600Y0245600D01*
X0406400Y0245600D01*
X0406400Y0246400D01*
X0412600Y0246400D01*
X0412600Y0246433D01*
X0412487Y0247290D01*
X0412263Y0248126D01*
X0411932Y0248925D01*
X0412326Y0247893D02*
X0440618Y0247893D01*
X0440589Y0248077D02*
X0440695Y0247404D01*
X0440960Y0246589D01*
X0441349Y0245827D01*
X0441852Y0245134D01*
X0442457Y0244529D01*
X0443150Y0244026D01*
X0443912Y0243637D01*
X0444726Y0243373D01*
X0445400Y0243266D01*
X0445400Y0248077D01*
X0440589Y0248077D01*
X0440926Y0246695D02*
X0436690Y0246695D01*
X0439114Y0245496D02*
X0441589Y0245496D01*
X0442775Y0244298D02*
X0440313Y0244298D01*
X0441157Y0243099D02*
X0462851Y0243099D01*
X0463101Y0243703D02*
X0461951Y0240928D01*
X0461951Y0237923D01*
X0463101Y0235147D01*
X0465226Y0233022D01*
X0468002Y0231872D01*
X0471006Y0231872D01*
X0473782Y0233022D01*
X0475907Y0235147D01*
X0477057Y0237923D01*
X0477057Y0240928D01*
X0475907Y0243703D01*
X0473782Y0245828D01*
X0471006Y0246978D01*
X0468002Y0246978D01*
X0465226Y0245828D01*
X0463101Y0243703D01*
X0463695Y0244298D02*
X0449225Y0244298D01*
X0450411Y0245496D02*
X0464894Y0245496D01*
X0467318Y0246695D02*
X0451074Y0246695D01*
X0451382Y0247893D02*
X0475618Y0247893D01*
X0475589Y0248077D02*
X0475695Y0247404D01*
X0475960Y0246589D01*
X0476349Y0245827D01*
X0476852Y0245134D01*
X0477457Y0244529D01*
X0478150Y0244026D01*
X0478912Y0243637D01*
X0479726Y0243373D01*
X0480400Y0243266D01*
X0480400Y0248077D01*
X0475589Y0248077D01*
X0475926Y0246695D02*
X0471690Y0246695D01*
X0474114Y0245496D02*
X0476589Y0245496D01*
X0477775Y0244298D02*
X0475313Y0244298D01*
X0476157Y0243099D02*
X0497851Y0243099D01*
X0497354Y0241901D02*
X0476654Y0241901D01*
X0477057Y0240702D02*
X0496951Y0240702D01*
X0496951Y0239504D02*
X0477057Y0239504D01*
X0477057Y0238305D02*
X0496951Y0238305D01*
X0497289Y0237107D02*
X0476719Y0237107D01*
X0476222Y0235908D02*
X0497786Y0235908D01*
X0498538Y0234710D02*
X0475470Y0234710D01*
X0474271Y0233511D02*
X0499737Y0233511D01*
X0501939Y0232313D02*
X0472069Y0232313D01*
X0471249Y0229916D02*
X0494916Y0229916D01*
X0493717Y0228717D02*
X0473885Y0228717D01*
X0475084Y0227519D02*
X0492519Y0227519D01*
X0491320Y0226320D02*
X0476016Y0226320D01*
X0476513Y0225122D02*
X0491000Y0225122D01*
X0491000Y0223923D02*
X0476978Y0223923D01*
X0476978Y0222725D02*
X0491000Y0222725D01*
X0491000Y0221526D02*
X0476978Y0221526D01*
X0476702Y0220328D02*
X0491000Y0220328D01*
X0491000Y0219129D02*
X0476206Y0219129D01*
X0475541Y0217931D02*
X0491000Y0217931D01*
X0491000Y0216732D02*
X0474342Y0216732D01*
X0475664Y0215534D02*
X0472352Y0215534D01*
X0478077Y0215534D02*
X0479277Y0215534D01*
X0479277Y0216411D02*
X0479277Y0211600D01*
X0484088Y0211600D01*
X0483982Y0212274D01*
X0483717Y0213088D01*
X0483329Y0213850D01*
X0482825Y0214543D01*
X0482220Y0215148D01*
X0481528Y0215651D01*
X0480765Y0216040D01*
X0479951Y0216305D01*
X0479277Y0216411D01*
X0479277Y0214335D02*
X0478077Y0214335D01*
X0478077Y0213137D02*
X0479277Y0213137D01*
X0479277Y0211938D02*
X0478077Y0211938D01*
X0478077Y0210739D02*
X0466261Y0210739D01*
X0478077Y0209541D02*
X0479277Y0209541D01*
X0479277Y0210739D02*
X0491000Y0210739D01*
X0491000Y0209541D02*
X0483922Y0209541D01*
X0483427Y0208342D02*
X0491000Y0208342D01*
X0491000Y0207144D02*
X0482512Y0207144D01*
X0479277Y0207144D02*
X0478077Y0207144D01*
X0478077Y0208342D02*
X0479277Y0208342D01*
X0484035Y0211938D02*
X0491000Y0211938D01*
X0491000Y0213137D02*
X0483692Y0213137D01*
X0482977Y0214335D02*
X0491000Y0214335D01*
X0491000Y0215534D02*
X0481690Y0215534D01*
X0467601Y0229916D02*
X0370494Y0229916D01*
X0365350Y0227519D02*
X0364150Y0227519D01*
X0364150Y0228717D02*
X0356000Y0228717D01*
X0356000Y0227519D02*
X0358932Y0227519D01*
X0359255Y0226320D02*
X0356000Y0226320D01*
X0356000Y0225122D02*
X0359912Y0225122D01*
X0361012Y0223923D02*
X0356000Y0223923D01*
X0356000Y0222725D02*
X0363499Y0222725D01*
X0364150Y0222725D02*
X0365350Y0222725D01*
X0366001Y0222725D02*
X0398397Y0222725D01*
X0398606Y0222876D02*
X0398024Y0222453D01*
X0397515Y0221945D01*
X0397093Y0221363D01*
X0396766Y0220722D01*
X0396544Y0220038D01*
X0396431Y0219328D01*
X0396431Y0216384D01*
X0400616Y0216384D01*
X0400616Y0223533D01*
X0399930Y0223425D01*
X0399246Y0223202D01*
X0398606Y0222876D01*
X0397211Y0221526D02*
X0356000Y0221526D01*
X0356000Y0220328D02*
X0396638Y0220328D01*
X0396431Y0219129D02*
X0356000Y0219129D01*
X0356000Y0217931D02*
X0396431Y0217931D01*
X0396431Y0216732D02*
X0356000Y0216732D01*
X0364150Y0223923D02*
X0365350Y0223923D01*
X0365350Y0225122D02*
X0364150Y0225122D01*
X0364150Y0226320D02*
X0365350Y0226320D01*
X0359006Y0229916D02*
X0356000Y0229916D01*
X0356000Y0231114D02*
X0359460Y0231114D01*
X0360227Y0232313D02*
X0356000Y0232313D01*
X0356000Y0233511D02*
X0361610Y0233511D01*
X0356000Y0234710D02*
X0428538Y0234710D01*
X0427786Y0235908D02*
X0380754Y0235908D01*
X0382023Y0237107D02*
X0427289Y0237107D01*
X0426951Y0238305D02*
X0382068Y0238305D01*
X0382068Y0240702D02*
X0402062Y0240702D01*
X0400826Y0241901D02*
X0386901Y0241901D01*
X0388099Y0243099D02*
X0400058Y0243099D01*
X0399623Y0244298D02*
X0389298Y0244298D01*
X0390496Y0245496D02*
X0399409Y0245496D01*
X0399435Y0246695D02*
X0391695Y0246695D01*
X0392893Y0247893D02*
X0399674Y0247893D01*
X0400164Y0249092D02*
X0394092Y0249092D01*
X0395290Y0250290D02*
X0400973Y0250290D01*
X0402312Y0251489D02*
X0396000Y0251489D01*
X0396000Y0252687D02*
X0442319Y0252687D01*
X0441329Y0251489D02*
X0409688Y0251489D01*
X0411027Y0250290D02*
X0440806Y0250290D01*
X0445400Y0251489D02*
X0446600Y0251489D01*
X0446600Y0252687D02*
X0445400Y0252687D01*
X0449681Y0252687D02*
X0477319Y0252687D01*
X0476329Y0251489D02*
X0450671Y0251489D01*
X0451194Y0250290D02*
X0475806Y0250290D01*
X0480400Y0251489D02*
X0481600Y0251489D01*
X0481600Y0252687D02*
X0480400Y0252687D01*
X0480400Y0247893D02*
X0481600Y0247893D01*
X0481600Y0246695D02*
X0480400Y0246695D01*
X0480400Y0245496D02*
X0481600Y0245496D01*
X0481600Y0244298D02*
X0480400Y0244298D01*
X0484225Y0244298D02*
X0498695Y0244298D01*
X0499894Y0245496D02*
X0485411Y0245496D01*
X0486074Y0246695D02*
X0502318Y0246695D01*
X0515400Y0246695D02*
X0516600Y0246695D01*
X0516600Y0247893D02*
X0515400Y0247893D01*
X0520671Y0251489D02*
X0521000Y0251489D01*
X0521000Y0252687D02*
X0519681Y0252687D01*
X0521000Y0256283D02*
X0396000Y0256283D01*
X0396000Y0257481D02*
X0521000Y0257481D01*
X0521000Y0258680D02*
X0396000Y0258680D01*
X0396000Y0259878D02*
X0402505Y0259878D01*
X0409495Y0259878D02*
X0521000Y0259878D01*
X0501000Y0306000D02*
X0492000Y0306000D01*
X0492000Y0310819D01*
X0492093Y0310637D01*
X0492515Y0310055D01*
X0493024Y0309547D01*
X0493606Y0309124D01*
X0494246Y0308798D01*
X0494930Y0308575D01*
X0495616Y0308467D01*
X0495616Y0315616D01*
X0496384Y0315616D01*
X0496384Y0308467D01*
X0497070Y0308575D01*
X0497754Y0308798D01*
X0498394Y0309124D01*
X0498976Y0309547D01*
X0499485Y0310055D01*
X0499907Y0310637D01*
X0500234Y0311278D01*
X0500456Y0311962D01*
X0500568Y0312672D01*
X0500568Y0315616D01*
X0496384Y0315616D01*
X0496384Y0316384D01*
X0495616Y0316384D01*
X0495616Y0323533D01*
X0494930Y0323425D01*
X0494246Y0323202D01*
X0493606Y0322876D01*
X0493024Y0322453D01*
X0492515Y0321945D01*
X0492093Y0321363D01*
X0492000Y0321181D01*
X0492000Y0326000D01*
X0476000Y0326000D01*
X0471000Y0331000D01*
X0471000Y0350740D01*
X0472923Y0349943D01*
X0475928Y0349943D01*
X0478703Y0351093D01*
X0480828Y0353218D01*
X0481978Y0355994D01*
X0481978Y0358998D01*
X0480828Y0361774D01*
X0478703Y0363899D01*
X0475928Y0365049D01*
X0472923Y0365049D01*
X0471000Y0364252D01*
X0471000Y0376000D01*
X0464050Y0376000D01*
X0464249Y0376199D01*
X0464459Y0376564D01*
X0464568Y0376970D01*
X0464568Y0378962D01*
X0461384Y0378962D01*
X0461384Y0379731D01*
X0460616Y0379731D01*
X0460616Y0383112D01*
X0458821Y0383112D01*
X0458414Y0383003D01*
X0458049Y0382792D01*
X0457751Y0382494D01*
X0457541Y0382129D01*
X0457431Y0381722D01*
X0457431Y0379731D01*
X0460616Y0379731D01*
X0460616Y0378962D01*
X0457431Y0378962D01*
X0457431Y0376970D01*
X0457541Y0376564D01*
X0457751Y0376199D01*
X0457950Y0376000D01*
X0446000Y0376000D01*
X0441000Y0371000D01*
X0437439Y0371000D01*
X0437996Y0371181D01*
X0438725Y0371553D01*
X0439388Y0372034D01*
X0439966Y0372612D01*
X0440447Y0373275D01*
X0440819Y0374004D01*
X0441072Y0374782D01*
X0441170Y0375400D01*
X0436600Y0375400D01*
X0436600Y0376600D01*
X0441170Y0376600D01*
X0441072Y0377218D01*
X0440819Y0377996D01*
X0440447Y0378725D01*
X0439966Y0379388D01*
X0439388Y0379966D01*
X0438725Y0380447D01*
X0437996Y0380819D01*
X0437218Y0381072D01*
X0436600Y0381170D01*
X0436600Y0376600D01*
X0435400Y0376600D01*
X0435400Y0381170D01*
X0434782Y0381072D01*
X0434004Y0380819D01*
X0433275Y0380447D01*
X0432612Y0379966D01*
X0432034Y0379388D01*
X0431553Y0378725D01*
X0431181Y0377996D01*
X0430928Y0377218D01*
X0430830Y0376600D01*
X0435400Y0376600D01*
X0435400Y0375400D01*
X0430830Y0375400D01*
X0430928Y0374782D01*
X0431181Y0374004D01*
X0431553Y0373275D01*
X0432034Y0372612D01*
X0432612Y0372034D01*
X0433275Y0371553D01*
X0434004Y0371181D01*
X0434561Y0371000D01*
X0426000Y0371000D01*
X0426000Y0406000D01*
X0501000Y0406000D01*
X0501000Y0306000D01*
X0501000Y0306620D02*
X0492000Y0306620D01*
X0492000Y0307819D02*
X0501000Y0307819D01*
X0501000Y0309017D02*
X0498185Y0309017D01*
X0496384Y0309017D02*
X0495616Y0309017D01*
X0495616Y0310216D02*
X0496384Y0310216D01*
X0496384Y0311414D02*
X0495616Y0311414D01*
X0495616Y0312613D02*
X0496384Y0312613D01*
X0496384Y0313811D02*
X0495616Y0313811D01*
X0495616Y0315010D02*
X0496384Y0315010D01*
X0496384Y0316208D02*
X0501000Y0316208D01*
X0500568Y0316384D02*
X0500568Y0319328D01*
X0500456Y0320038D01*
X0500234Y0320722D01*
X0499907Y0321363D01*
X0499485Y0321945D01*
X0498976Y0322453D01*
X0498394Y0322876D01*
X0497754Y0323202D01*
X0497070Y0323425D01*
X0496384Y0323533D01*
X0496384Y0316384D01*
X0500568Y0316384D01*
X0500568Y0317407D02*
X0501000Y0317407D01*
X0501000Y0318605D02*
X0500568Y0318605D01*
X0500493Y0319804D02*
X0501000Y0319804D01*
X0501000Y0321003D02*
X0500091Y0321003D01*
X0499228Y0322201D02*
X0501000Y0322201D01*
X0501000Y0323400D02*
X0497147Y0323400D01*
X0496384Y0323400D02*
X0495616Y0323400D01*
X0494853Y0323400D02*
X0492000Y0323400D01*
X0492000Y0324598D02*
X0501000Y0324598D01*
X0501000Y0325797D02*
X0492000Y0325797D01*
X0492000Y0322201D02*
X0492772Y0322201D01*
X0495616Y0322201D02*
X0496384Y0322201D01*
X0496384Y0321003D02*
X0495616Y0321003D01*
X0495616Y0319804D02*
X0496384Y0319804D01*
X0496384Y0318605D02*
X0495616Y0318605D01*
X0495616Y0317407D02*
X0496384Y0317407D01*
X0500568Y0315010D02*
X0501000Y0315010D01*
X0501000Y0313811D02*
X0500568Y0313811D01*
X0500559Y0312613D02*
X0501000Y0312613D01*
X0501000Y0311414D02*
X0500278Y0311414D01*
X0499601Y0310216D02*
X0501000Y0310216D01*
X0493815Y0309017D02*
X0492000Y0309017D01*
X0492000Y0310216D02*
X0492399Y0310216D01*
X0486000Y0316000D02*
X0484740Y0317260D01*
X0475005Y0326995D02*
X0501000Y0326995D01*
X0501000Y0328194D02*
X0473806Y0328194D01*
X0472608Y0329392D02*
X0501000Y0329392D01*
X0501000Y0330591D02*
X0471409Y0330591D01*
X0471000Y0331789D02*
X0501000Y0331789D01*
X0501000Y0332988D02*
X0471000Y0332988D01*
X0471000Y0334186D02*
X0501000Y0334186D01*
X0501000Y0335385D02*
X0471000Y0335385D01*
X0471000Y0336583D02*
X0501000Y0336583D01*
X0501000Y0337782D02*
X0471000Y0337782D01*
X0471000Y0338980D02*
X0501000Y0338980D01*
X0501000Y0340179D02*
X0471000Y0340179D01*
X0471000Y0341377D02*
X0480787Y0341377D01*
X0480827Y0341349D02*
X0481589Y0340960D01*
X0482404Y0340695D01*
X0483077Y0340589D01*
X0483077Y0345400D01*
X0478266Y0345400D01*
X0478373Y0344726D01*
X0478637Y0343912D01*
X0479026Y0343150D01*
X0479529Y0342457D01*
X0480134Y0341852D01*
X0480827Y0341349D01*
X0479443Y0342576D02*
X0471000Y0342576D01*
X0471000Y0343774D02*
X0478707Y0343774D01*
X0478333Y0344973D02*
X0471000Y0344973D01*
X0471000Y0346171D02*
X0483077Y0346171D01*
X0483077Y0346600D02*
X0483077Y0345400D01*
X0484277Y0345400D01*
X0484277Y0340589D01*
X0484951Y0340695D01*
X0485765Y0340960D01*
X0486528Y0341349D01*
X0487220Y0341852D01*
X0487825Y0342457D01*
X0488329Y0343150D01*
X0488717Y0343912D01*
X0488982Y0344726D01*
X0489088Y0345400D01*
X0484277Y0345400D01*
X0484277Y0346600D01*
X0483077Y0346600D01*
X0478266Y0346600D01*
X0478373Y0347274D01*
X0478637Y0348088D01*
X0479026Y0348850D01*
X0479529Y0349543D01*
X0480134Y0350148D01*
X0480827Y0350651D01*
X0481589Y0351040D01*
X0482404Y0351305D01*
X0483077Y0351411D01*
X0483077Y0346600D01*
X0483077Y0347370D02*
X0484277Y0347370D01*
X0484277Y0346600D02*
X0484277Y0351411D01*
X0484951Y0351305D01*
X0485765Y0351040D01*
X0486528Y0350651D01*
X0487220Y0350148D01*
X0487825Y0349543D01*
X0488329Y0348850D01*
X0488717Y0348088D01*
X0488982Y0347274D01*
X0489088Y0346600D01*
X0484277Y0346600D01*
X0484277Y0346171D02*
X0501000Y0346171D01*
X0501000Y0344973D02*
X0489021Y0344973D01*
X0488647Y0343774D02*
X0501000Y0343774D01*
X0501000Y0342576D02*
X0487912Y0342576D01*
X0486567Y0341377D02*
X0501000Y0341377D01*
X0501000Y0347370D02*
X0488951Y0347370D01*
X0488472Y0348568D02*
X0501000Y0348568D01*
X0501000Y0349767D02*
X0487602Y0349767D01*
X0485912Y0350965D02*
X0501000Y0350965D01*
X0501000Y0352164D02*
X0479774Y0352164D01*
X0480888Y0353362D02*
X0501000Y0353362D01*
X0501000Y0354561D02*
X0481384Y0354561D01*
X0481881Y0355759D02*
X0501000Y0355759D01*
X0501000Y0356958D02*
X0481978Y0356958D01*
X0481978Y0358156D02*
X0501000Y0358156D01*
X0501000Y0359355D02*
X0481830Y0359355D01*
X0481334Y0360553D02*
X0501000Y0360553D01*
X0501000Y0361752D02*
X0480837Y0361752D01*
X0479652Y0362950D02*
X0501000Y0362950D01*
X0501000Y0364149D02*
X0478100Y0364149D01*
X0471000Y0365347D02*
X0501000Y0365347D01*
X0501000Y0366546D02*
X0471000Y0366546D01*
X0471000Y0367744D02*
X0501000Y0367744D01*
X0501000Y0368943D02*
X0471000Y0368943D01*
X0471000Y0370141D02*
X0501000Y0370141D01*
X0501000Y0371340D02*
X0471000Y0371340D01*
X0471000Y0372539D02*
X0501000Y0372539D01*
X0501000Y0373737D02*
X0471000Y0373737D01*
X0471000Y0374936D02*
X0501000Y0374936D01*
X0501000Y0376134D02*
X0464184Y0376134D01*
X0464568Y0377333D02*
X0501000Y0377333D01*
X0501000Y0378531D02*
X0464568Y0378531D01*
X0464568Y0379731D02*
X0464568Y0381722D01*
X0464459Y0382129D01*
X0464249Y0382494D01*
X0463951Y0382792D01*
X0463586Y0383003D01*
X0463179Y0383112D01*
X0461384Y0383112D01*
X0461384Y0379731D01*
X0464568Y0379731D01*
X0464568Y0380928D02*
X0481687Y0380928D01*
X0481589Y0380960D02*
X0482404Y0380695D01*
X0483077Y0380589D01*
X0483077Y0385400D01*
X0478266Y0385400D01*
X0478373Y0384726D01*
X0478637Y0383912D01*
X0479026Y0383150D01*
X0479529Y0382457D01*
X0480134Y0381852D01*
X0480827Y0381349D01*
X0481589Y0380960D01*
X0483077Y0380928D02*
X0484277Y0380928D01*
X0484277Y0380589D02*
X0484951Y0380695D01*
X0485765Y0380960D01*
X0486528Y0381349D01*
X0487220Y0381852D01*
X0487825Y0382457D01*
X0488329Y0383150D01*
X0488717Y0383912D01*
X0488982Y0384726D01*
X0489088Y0385400D01*
X0484277Y0385400D01*
X0484277Y0380589D01*
X0485667Y0380928D02*
X0501000Y0380928D01*
X0501000Y0379730D02*
X0461384Y0379730D01*
X0460616Y0379730D02*
X0439624Y0379730D01*
X0440546Y0378531D02*
X0457431Y0378531D01*
X0457431Y0377333D02*
X0441035Y0377333D01*
X0441096Y0374936D02*
X0444936Y0374936D01*
X0443737Y0373737D02*
X0440683Y0373737D01*
X0439892Y0372539D02*
X0442539Y0372539D01*
X0441340Y0371340D02*
X0438308Y0371340D01*
X0433692Y0371340D02*
X0426000Y0371340D01*
X0426000Y0372539D02*
X0432108Y0372539D01*
X0431317Y0373737D02*
X0426000Y0373737D01*
X0426000Y0374936D02*
X0430904Y0374936D01*
X0430965Y0377333D02*
X0426000Y0377333D01*
X0426000Y0378531D02*
X0431454Y0378531D01*
X0432376Y0379730D02*
X0426000Y0379730D01*
X0426000Y0380928D02*
X0434340Y0380928D01*
X0435400Y0380928D02*
X0436600Y0380928D01*
X0437660Y0380928D02*
X0457431Y0380928D01*
X0457540Y0382127D02*
X0426000Y0382127D01*
X0426000Y0383325D02*
X0478936Y0383325D01*
X0478438Y0384524D02*
X0438265Y0384524D01*
X0438207Y0384500D02*
X0439036Y0384843D01*
X0439814Y0385292D01*
X0440526Y0385839D01*
X0441161Y0386474D01*
X0441708Y0387186D01*
X0442157Y0387964D01*
X0442500Y0388793D01*
X0442733Y0389661D01*
X0442830Y0390400D01*
X0436600Y0390400D01*
X0436600Y0391600D01*
X0442830Y0391600D01*
X0442733Y0392339D01*
X0442500Y0393207D01*
X0442157Y0394036D01*
X0441708Y0394814D01*
X0441161Y0395526D01*
X0440526Y0396161D01*
X0439814Y0396708D01*
X0439036Y0397157D01*
X0438207Y0397500D01*
X0437339Y0397733D01*
X0436600Y0397830D01*
X0436600Y0391600D01*
X0435400Y0391600D01*
X0435400Y0397830D01*
X0434661Y0397733D01*
X0433793Y0397500D01*
X0432964Y0397157D01*
X0432186Y0396708D01*
X0431474Y0396161D01*
X0430839Y0395526D01*
X0430292Y0394814D01*
X0429843Y0394036D01*
X0429500Y0393207D01*
X0429267Y0392339D01*
X0429170Y0391600D01*
X0435400Y0391600D01*
X0435400Y0390400D01*
X0436600Y0390400D01*
X0436600Y0384170D01*
X0437339Y0384267D01*
X0438207Y0384500D01*
X0436600Y0384524D02*
X0435400Y0384524D01*
X0435400Y0384170D02*
X0435400Y0390400D01*
X0429170Y0390400D01*
X0429267Y0389661D01*
X0429500Y0388793D01*
X0429843Y0387964D01*
X0430292Y0387186D01*
X0430839Y0386474D01*
X0431474Y0385839D01*
X0432186Y0385292D01*
X0432964Y0384843D01*
X0433793Y0384500D01*
X0434661Y0384267D01*
X0435400Y0384170D01*
X0435400Y0385722D02*
X0436600Y0385722D01*
X0436600Y0386921D02*
X0435400Y0386921D01*
X0435400Y0388119D02*
X0436600Y0388119D01*
X0436600Y0389318D02*
X0435400Y0389318D01*
X0435400Y0390516D02*
X0426000Y0390516D01*
X0426000Y0389318D02*
X0429359Y0389318D01*
X0429779Y0388119D02*
X0426000Y0388119D01*
X0426000Y0386921D02*
X0430496Y0386921D01*
X0431626Y0385722D02*
X0426000Y0385722D01*
X0426000Y0384524D02*
X0433735Y0384524D01*
X0435400Y0379730D02*
X0436600Y0379730D01*
X0436600Y0378531D02*
X0435400Y0378531D01*
X0435400Y0377333D02*
X0436600Y0377333D01*
X0436600Y0376134D02*
X0457816Y0376134D01*
X0460616Y0380928D02*
X0461384Y0380928D01*
X0461384Y0382127D02*
X0460616Y0382127D01*
X0464460Y0382127D02*
X0479859Y0382127D01*
X0483077Y0382127D02*
X0484277Y0382127D01*
X0484277Y0383325D02*
X0483077Y0383325D01*
X0483077Y0384524D02*
X0484277Y0384524D01*
X0484277Y0385400D02*
X0483077Y0385400D01*
X0483077Y0386600D01*
X0478266Y0386600D01*
X0478373Y0387274D01*
X0478637Y0388088D01*
X0479026Y0388850D01*
X0479529Y0389543D01*
X0480134Y0390148D01*
X0480827Y0390651D01*
X0481589Y0391040D01*
X0482404Y0391305D01*
X0483077Y0391411D01*
X0483077Y0386600D01*
X0484277Y0386600D01*
X0484277Y0391411D01*
X0484951Y0391305D01*
X0485765Y0391040D01*
X0486528Y0390651D01*
X0487220Y0390148D01*
X0487825Y0389543D01*
X0488329Y0388850D01*
X0488717Y0388088D01*
X0488982Y0387274D01*
X0489088Y0386600D01*
X0484277Y0386600D01*
X0484277Y0385400D01*
X0484277Y0385722D02*
X0501000Y0385722D01*
X0501000Y0384524D02*
X0488916Y0384524D01*
X0488418Y0383325D02*
X0501000Y0383325D01*
X0501000Y0382127D02*
X0487495Y0382127D01*
X0489038Y0386921D02*
X0501000Y0386921D01*
X0501000Y0388119D02*
X0488701Y0388119D01*
X0487989Y0389318D02*
X0501000Y0389318D01*
X0501000Y0390516D02*
X0486714Y0390516D01*
X0484277Y0390516D02*
X0483077Y0390516D01*
X0483077Y0389318D02*
X0484277Y0389318D01*
X0484277Y0388119D02*
X0483077Y0388119D01*
X0483077Y0386921D02*
X0484277Y0386921D01*
X0483077Y0385722D02*
X0440374Y0385722D01*
X0441504Y0386921D02*
X0478317Y0386921D01*
X0478653Y0388119D02*
X0442221Y0388119D01*
X0442641Y0389318D02*
X0479365Y0389318D01*
X0480641Y0390516D02*
X0477311Y0390516D01*
X0475928Y0389943D02*
X0478703Y0391093D01*
X0480828Y0393218D01*
X0481978Y0395994D01*
X0481978Y0398998D01*
X0480828Y0401774D01*
X0478703Y0403899D01*
X0475928Y0405049D01*
X0472923Y0405049D01*
X0470147Y0403899D01*
X0468022Y0401774D01*
X0466872Y0398998D01*
X0466872Y0395994D01*
X0468022Y0393218D01*
X0470147Y0391093D01*
X0472923Y0389943D01*
X0475928Y0389943D01*
X0479325Y0391715D02*
X0501000Y0391715D01*
X0501000Y0392913D02*
X0480524Y0392913D01*
X0481198Y0394112D02*
X0501000Y0394112D01*
X0501000Y0395310D02*
X0481695Y0395310D01*
X0481978Y0396509D02*
X0501000Y0396509D01*
X0501000Y0397707D02*
X0481978Y0397707D01*
X0481978Y0398906D02*
X0501000Y0398906D01*
X0501000Y0400104D02*
X0481520Y0400104D01*
X0481023Y0401303D02*
X0501000Y0401303D01*
X0501000Y0402501D02*
X0480101Y0402501D01*
X0478903Y0403700D02*
X0501000Y0403700D01*
X0501000Y0404898D02*
X0476291Y0404898D01*
X0472560Y0404898D02*
X0426000Y0404898D01*
X0426000Y0403700D02*
X0469948Y0403700D01*
X0468749Y0402501D02*
X0426000Y0402501D01*
X0426000Y0401303D02*
X0467827Y0401303D01*
X0467331Y0400104D02*
X0426000Y0400104D01*
X0426000Y0398906D02*
X0466872Y0398906D01*
X0466872Y0397707D02*
X0437435Y0397707D01*
X0436600Y0397707D02*
X0435400Y0397707D01*
X0434565Y0397707D02*
X0426000Y0397707D01*
X0426000Y0396509D02*
X0431927Y0396509D01*
X0430673Y0395310D02*
X0426000Y0395310D01*
X0426000Y0394112D02*
X0429887Y0394112D01*
X0429421Y0392913D02*
X0426000Y0392913D01*
X0426000Y0391715D02*
X0429185Y0391715D01*
X0435400Y0391715D02*
X0436600Y0391715D01*
X0436600Y0392913D02*
X0435400Y0392913D01*
X0435400Y0394112D02*
X0436600Y0394112D01*
X0436600Y0395310D02*
X0435400Y0395310D01*
X0435400Y0396509D02*
X0436600Y0396509D01*
X0440073Y0396509D02*
X0466872Y0396509D01*
X0467156Y0395310D02*
X0441327Y0395310D01*
X0442113Y0394112D02*
X0467652Y0394112D01*
X0468327Y0392913D02*
X0442579Y0392913D01*
X0442815Y0391715D02*
X0469525Y0391715D01*
X0471540Y0390516D02*
X0436600Y0390516D01*
X0435400Y0376134D02*
X0426000Y0376134D01*
X0471000Y0349767D02*
X0479753Y0349767D01*
X0478882Y0348568D02*
X0471000Y0348568D01*
X0471000Y0347370D02*
X0478404Y0347370D01*
X0476000Y0346000D02*
X0474453Y0344453D01*
X0478395Y0350965D02*
X0481443Y0350965D01*
X0483077Y0350965D02*
X0484277Y0350965D01*
X0484277Y0349767D02*
X0483077Y0349767D01*
X0483077Y0348568D02*
X0484277Y0348568D01*
X0484277Y0344973D02*
X0483077Y0344973D01*
X0483077Y0343774D02*
X0484277Y0343774D01*
X0484277Y0342576D02*
X0483077Y0342576D01*
X0483077Y0341377D02*
X0484277Y0341377D01*
X0406400Y0251489D02*
X0405600Y0251489D01*
X0405600Y0250290D02*
X0406400Y0250290D01*
X0406400Y0249092D02*
X0405600Y0249092D01*
X0405600Y0247893D02*
X0406400Y0247893D01*
X0406400Y0246695D02*
X0405600Y0246695D01*
X0405600Y0245496D02*
X0406400Y0245496D01*
X0406400Y0245600D02*
X0406400Y0239400D01*
X0406433Y0239400D01*
X0407290Y0239513D01*
X0408126Y0239737D01*
X0408925Y0240068D01*
X0409675Y0240501D01*
X0410361Y0241027D01*
X0410973Y0241639D01*
X0411499Y0242325D01*
X0411932Y0243075D01*
X0412263Y0243874D01*
X0412487Y0244710D01*
X0412600Y0245567D01*
X0412600Y0245600D01*
X0406400Y0245600D01*
X0406400Y0244298D02*
X0405600Y0244298D01*
X0405600Y0243099D02*
X0406400Y0243099D01*
X0406400Y0241901D02*
X0405600Y0241901D01*
X0405600Y0240702D02*
X0406400Y0240702D01*
X0406400Y0239504D02*
X0405600Y0239504D01*
X0404779Y0239504D02*
X0378884Y0239504D01*
X0378116Y0239504D02*
X0356000Y0239504D01*
X0356000Y0240702D02*
X0374931Y0240702D01*
X0374931Y0239269D02*
X0374931Y0237278D01*
X0375041Y0236871D01*
X0375251Y0236506D01*
X0375549Y0236208D01*
X0375914Y0235997D01*
X0376321Y0235888D01*
X0378116Y0235888D01*
X0378116Y0239269D01*
X0374931Y0239269D01*
X0374931Y0238305D02*
X0356000Y0238305D01*
X0356000Y0237107D02*
X0374977Y0237107D01*
X0376246Y0235908D02*
X0356000Y0235908D01*
X0378116Y0235908D02*
X0378884Y0235908D01*
X0378884Y0237107D02*
X0378116Y0237107D01*
X0378116Y0238305D02*
X0378884Y0238305D01*
X0400616Y0222725D02*
X0401384Y0222725D01*
X0401384Y0221526D02*
X0400616Y0221526D01*
X0400616Y0220328D02*
X0401384Y0220328D01*
X0401384Y0219129D02*
X0400616Y0219129D01*
X0400616Y0217931D02*
X0401384Y0217931D01*
X0401384Y0216732D02*
X0400616Y0216732D01*
X0405568Y0216732D02*
X0406231Y0216732D01*
X0406231Y0217931D02*
X0405568Y0217931D01*
X0405568Y0219129D02*
X0406231Y0219129D01*
X0406402Y0220328D02*
X0405362Y0220328D01*
X0404789Y0221526D02*
X0406898Y0221526D01*
X0408012Y0222725D02*
X0403603Y0222725D01*
X0407221Y0239504D02*
X0426951Y0239504D01*
X0426951Y0240702D02*
X0409938Y0240702D01*
X0411174Y0241901D02*
X0427354Y0241901D01*
X0427851Y0243099D02*
X0411942Y0243099D01*
X0412377Y0244298D02*
X0428695Y0244298D01*
X0429894Y0245496D02*
X0412591Y0245496D01*
X0412565Y0246695D02*
X0432318Y0246695D01*
X0441654Y0241901D02*
X0462354Y0241901D01*
X0461951Y0240702D02*
X0442057Y0240702D01*
X0442057Y0239504D02*
X0461951Y0239504D01*
X0461951Y0238305D02*
X0442057Y0238305D01*
X0441719Y0237107D02*
X0462289Y0237107D01*
X0462786Y0235908D02*
X0441222Y0235908D01*
X0440470Y0234710D02*
X0463538Y0234710D01*
X0464737Y0233511D02*
X0439271Y0233511D01*
X0437069Y0232313D02*
X0466939Y0232313D01*
X0446600Y0244298D02*
X0445400Y0244298D01*
X0445400Y0245496D02*
X0446600Y0245496D01*
X0446600Y0246695D02*
X0445400Y0246695D01*
X0445400Y0247893D02*
X0446600Y0247893D01*
X0482584Y0174784D02*
X0491000Y0174784D01*
X0491000Y0173586D02*
X0483464Y0173586D01*
X0483945Y0172387D02*
X0491000Y0172387D01*
X0479277Y0169990D02*
X0478077Y0169990D01*
X0478077Y0168792D02*
X0479277Y0168792D01*
X0479277Y0167593D02*
X0478077Y0167593D01*
X0478077Y0166395D02*
X0479277Y0166395D01*
X0475763Y0166395D02*
X0471000Y0166395D01*
X0471000Y0167593D02*
X0474430Y0167593D01*
X0473699Y0168792D02*
X0471000Y0168792D01*
X0471000Y0169990D02*
X0473331Y0169990D01*
X0292466Y0128042D02*
X0281000Y0128042D01*
X0281000Y0129241D02*
X0290665Y0129241D01*
X0289688Y0130439D02*
X0281000Y0130439D01*
X0281000Y0131638D02*
X0289151Y0131638D01*
X0288882Y0132836D02*
X0281000Y0132836D01*
D28*
X0311000Y0151000D03*
X0378500Y0253500D03*
X0461000Y0366000D03*
X0403000Y0046000D03*
D29*
X0403000Y0039346D01*
X0384750Y0028500D02*
X0334750Y0028500D01*
X0294750Y0133500D02*
X0244750Y0133500D01*
X0311000Y0144346D02*
X0311000Y0151000D01*
X0378500Y0246346D02*
X0378500Y0253500D01*
X0461000Y0366000D02*
X0461000Y0372654D01*
D30*
X0346000Y0186000D02*
X0346000Y0166000D01*
X0361000Y0151000D01*
M02*
