G04 EAGLE Gerber X2 export*
%TF.Part,Single*%
%TF.FileFunction,Other,Silk screen CMP*%
%TF.FilePolarity,Positive*%
%TF.GenerationSoftware,Autodesk,EAGLE,9.1.0*%
%TF.CreationDate,2018-07-07T04:41:33Z*%
G75*
%MOIN*%
%FSLAX34Y34*%
%LPD*%
%AMOC8*
5,1,8,0,0,1.08239X$1,22.5*%
G01*
%ADD10C,0.000000*%
%ADD11C,0.004000*%
%ADD12C,0.003000*%
%ADD13C,0.016000*%
%ADD14C,0.006000*%
%ADD15C,0.005000*%
%ADD16C,0.010000*%


D10*
X350Y8750D02*
X352Y8800D01*
X358Y8850D01*
X368Y8900D01*
X381Y8948D01*
X398Y8996D01*
X419Y9042D01*
X443Y9086D01*
X471Y9128D01*
X502Y9168D01*
X536Y9205D01*
X573Y9240D01*
X612Y9271D01*
X653Y9300D01*
X697Y9325D01*
X743Y9347D01*
X790Y9365D01*
X838Y9379D01*
X887Y9390D01*
X937Y9397D01*
X987Y9400D01*
X1038Y9399D01*
X1088Y9394D01*
X1138Y9385D01*
X1186Y9373D01*
X1234Y9356D01*
X1280Y9336D01*
X1325Y9313D01*
X1368Y9286D01*
X1408Y9256D01*
X1446Y9223D01*
X1481Y9187D01*
X1514Y9148D01*
X1543Y9107D01*
X1569Y9064D01*
X1592Y9019D01*
X1611Y8972D01*
X1626Y8924D01*
X1638Y8875D01*
X1646Y8825D01*
X1650Y8775D01*
X1650Y8725D01*
X1646Y8675D01*
X1638Y8625D01*
X1626Y8576D01*
X1611Y8528D01*
X1592Y8481D01*
X1569Y8436D01*
X1543Y8393D01*
X1514Y8352D01*
X1481Y8313D01*
X1446Y8277D01*
X1408Y8244D01*
X1368Y8214D01*
X1325Y8187D01*
X1280Y8164D01*
X1234Y8144D01*
X1186Y8127D01*
X1138Y8115D01*
X1088Y8106D01*
X1038Y8101D01*
X987Y8100D01*
X937Y8103D01*
X887Y8110D01*
X838Y8121D01*
X790Y8135D01*
X743Y8153D01*
X697Y8175D01*
X653Y8200D01*
X612Y8229D01*
X573Y8260D01*
X536Y8295D01*
X502Y8332D01*
X471Y8372D01*
X443Y8414D01*
X419Y8458D01*
X398Y8504D01*
X381Y8552D01*
X368Y8600D01*
X358Y8650D01*
X352Y8700D01*
X350Y8750D01*
X350Y1000D02*
X352Y1050D01*
X358Y1100D01*
X368Y1150D01*
X381Y1198D01*
X398Y1246D01*
X419Y1292D01*
X443Y1336D01*
X471Y1378D01*
X502Y1418D01*
X536Y1455D01*
X573Y1490D01*
X612Y1521D01*
X653Y1550D01*
X697Y1575D01*
X743Y1597D01*
X790Y1615D01*
X838Y1629D01*
X887Y1640D01*
X937Y1647D01*
X987Y1650D01*
X1038Y1649D01*
X1088Y1644D01*
X1138Y1635D01*
X1186Y1623D01*
X1234Y1606D01*
X1280Y1586D01*
X1325Y1563D01*
X1368Y1536D01*
X1408Y1506D01*
X1446Y1473D01*
X1481Y1437D01*
X1514Y1398D01*
X1543Y1357D01*
X1569Y1314D01*
X1592Y1269D01*
X1611Y1222D01*
X1626Y1174D01*
X1638Y1125D01*
X1646Y1075D01*
X1650Y1025D01*
X1650Y975D01*
X1646Y925D01*
X1638Y875D01*
X1626Y826D01*
X1611Y778D01*
X1592Y731D01*
X1569Y686D01*
X1543Y643D01*
X1514Y602D01*
X1481Y563D01*
X1446Y527D01*
X1408Y494D01*
X1368Y464D01*
X1325Y437D01*
X1280Y414D01*
X1234Y394D01*
X1186Y377D01*
X1138Y365D01*
X1088Y356D01*
X1038Y351D01*
X987Y350D01*
X937Y353D01*
X887Y360D01*
X838Y371D01*
X790Y385D01*
X743Y403D01*
X697Y425D01*
X653Y450D01*
X612Y479D01*
X573Y510D01*
X536Y545D01*
X502Y582D01*
X471Y622D01*
X443Y664D01*
X419Y708D01*
X398Y754D01*
X381Y802D01*
X368Y850D01*
X358Y900D01*
X352Y950D01*
X350Y1000D01*
X27850Y8750D02*
X27852Y8800D01*
X27858Y8850D01*
X27868Y8900D01*
X27881Y8948D01*
X27898Y8996D01*
X27919Y9042D01*
X27943Y9086D01*
X27971Y9128D01*
X28002Y9168D01*
X28036Y9205D01*
X28073Y9240D01*
X28112Y9271D01*
X28153Y9300D01*
X28197Y9325D01*
X28243Y9347D01*
X28290Y9365D01*
X28338Y9379D01*
X28387Y9390D01*
X28437Y9397D01*
X28487Y9400D01*
X28538Y9399D01*
X28588Y9394D01*
X28638Y9385D01*
X28686Y9373D01*
X28734Y9356D01*
X28780Y9336D01*
X28825Y9313D01*
X28868Y9286D01*
X28908Y9256D01*
X28946Y9223D01*
X28981Y9187D01*
X29014Y9148D01*
X29043Y9107D01*
X29069Y9064D01*
X29092Y9019D01*
X29111Y8972D01*
X29126Y8924D01*
X29138Y8875D01*
X29146Y8825D01*
X29150Y8775D01*
X29150Y8725D01*
X29146Y8675D01*
X29138Y8625D01*
X29126Y8576D01*
X29111Y8528D01*
X29092Y8481D01*
X29069Y8436D01*
X29043Y8393D01*
X29014Y8352D01*
X28981Y8313D01*
X28946Y8277D01*
X28908Y8244D01*
X28868Y8214D01*
X28825Y8187D01*
X28780Y8164D01*
X28734Y8144D01*
X28686Y8127D01*
X28638Y8115D01*
X28588Y8106D01*
X28538Y8101D01*
X28487Y8100D01*
X28437Y8103D01*
X28387Y8110D01*
X28338Y8121D01*
X28290Y8135D01*
X28243Y8153D01*
X28197Y8175D01*
X28153Y8200D01*
X28112Y8229D01*
X28073Y8260D01*
X28036Y8295D01*
X28002Y8332D01*
X27971Y8372D01*
X27943Y8414D01*
X27919Y8458D01*
X27898Y8504D01*
X27881Y8552D01*
X27868Y8600D01*
X27858Y8650D01*
X27852Y8700D01*
X27850Y8750D01*
X27850Y1000D02*
X27852Y1050D01*
X27858Y1100D01*
X27868Y1150D01*
X27881Y1198D01*
X27898Y1246D01*
X27919Y1292D01*
X27943Y1336D01*
X27971Y1378D01*
X28002Y1418D01*
X28036Y1455D01*
X28073Y1490D01*
X28112Y1521D01*
X28153Y1550D01*
X28197Y1575D01*
X28243Y1597D01*
X28290Y1615D01*
X28338Y1629D01*
X28387Y1640D01*
X28437Y1647D01*
X28487Y1650D01*
X28538Y1649D01*
X28588Y1644D01*
X28638Y1635D01*
X28686Y1623D01*
X28734Y1606D01*
X28780Y1586D01*
X28825Y1563D01*
X28868Y1536D01*
X28908Y1506D01*
X28946Y1473D01*
X28981Y1437D01*
X29014Y1398D01*
X29043Y1357D01*
X29069Y1314D01*
X29092Y1269D01*
X29111Y1222D01*
X29126Y1174D01*
X29138Y1125D01*
X29146Y1075D01*
X29150Y1025D01*
X29150Y975D01*
X29146Y925D01*
X29138Y875D01*
X29126Y826D01*
X29111Y778D01*
X29092Y731D01*
X29069Y686D01*
X29043Y643D01*
X29014Y602D01*
X28981Y563D01*
X28946Y527D01*
X28908Y494D01*
X28868Y464D01*
X28825Y437D01*
X28780Y414D01*
X28734Y394D01*
X28686Y377D01*
X28638Y365D01*
X28588Y356D01*
X28538Y351D01*
X28487Y350D01*
X28437Y353D01*
X28387Y360D01*
X28338Y371D01*
X28290Y385D01*
X28243Y403D01*
X28197Y425D01*
X28153Y450D01*
X28112Y479D01*
X28073Y510D01*
X28036Y545D01*
X28002Y582D01*
X27971Y622D01*
X27943Y664D01*
X27919Y708D01*
X27898Y754D01*
X27881Y802D01*
X27868Y850D01*
X27858Y900D01*
X27852Y950D01*
X27850Y1000D01*
D11*
X11173Y3270D02*
X11020Y3270D01*
X11173Y3270D02*
X11191Y3272D01*
X11208Y3276D01*
X11224Y3284D01*
X11239Y3294D01*
X11251Y3306D01*
X11261Y3321D01*
X11269Y3337D01*
X11273Y3354D01*
X11275Y3372D01*
X11276Y3372D02*
X11276Y3423D01*
X11275Y3423D02*
X11273Y3441D01*
X11269Y3458D01*
X11261Y3474D01*
X11251Y3489D01*
X11239Y3501D01*
X11224Y3511D01*
X11208Y3519D01*
X11191Y3523D01*
X11173Y3525D01*
X11173Y3526D02*
X11020Y3526D01*
X11020Y3730D01*
X11276Y3730D01*
X11444Y3730D02*
X11598Y3270D01*
X11751Y3730D01*
X14520Y3270D02*
X14673Y3270D01*
X14691Y3272D01*
X14708Y3276D01*
X14724Y3284D01*
X14739Y3294D01*
X14751Y3306D01*
X14761Y3321D01*
X14769Y3337D01*
X14773Y3354D01*
X14775Y3372D01*
X14776Y3372D02*
X14776Y3423D01*
X14775Y3423D02*
X14773Y3441D01*
X14769Y3458D01*
X14761Y3474D01*
X14751Y3489D01*
X14739Y3501D01*
X14724Y3511D01*
X14708Y3519D01*
X14691Y3523D01*
X14673Y3525D01*
X14673Y3526D02*
X14520Y3526D01*
X14520Y3730D01*
X14776Y3730D01*
X14944Y3730D02*
X15098Y3270D01*
X15251Y3730D01*
X18020Y3270D02*
X18173Y3270D01*
X18191Y3272D01*
X18208Y3276D01*
X18224Y3284D01*
X18239Y3294D01*
X18251Y3306D01*
X18261Y3321D01*
X18269Y3337D01*
X18273Y3354D01*
X18275Y3372D01*
X18276Y3372D02*
X18276Y3423D01*
X18275Y3423D02*
X18273Y3441D01*
X18269Y3458D01*
X18261Y3474D01*
X18251Y3489D01*
X18239Y3501D01*
X18224Y3511D01*
X18208Y3519D01*
X18191Y3523D01*
X18173Y3525D01*
X18173Y3526D02*
X18020Y3526D01*
X18020Y3730D01*
X18276Y3730D01*
X18444Y3730D02*
X18598Y3270D01*
X18751Y3730D01*
X21020Y3730D02*
X21173Y3270D01*
X21327Y3730D01*
X21508Y3730D02*
X21508Y3270D01*
X21636Y3270D01*
X21653Y3272D01*
X21669Y3278D01*
X21684Y3287D01*
X21696Y3299D01*
X21705Y3314D01*
X21711Y3330D01*
X21713Y3347D01*
X21713Y3500D01*
X21712Y3515D01*
X21707Y3529D01*
X21700Y3543D01*
X21690Y3554D01*
X21679Y3564D01*
X21665Y3571D01*
X21651Y3576D01*
X21636Y3577D01*
X21508Y3577D01*
X21983Y3449D02*
X22098Y3449D01*
X21983Y3448D02*
X21964Y3446D01*
X21947Y3440D01*
X21931Y3431D01*
X21917Y3419D01*
X21906Y3404D01*
X21898Y3387D01*
X21894Y3368D01*
X21894Y3350D01*
X21898Y3331D01*
X21906Y3315D01*
X21917Y3299D01*
X21931Y3287D01*
X21947Y3278D01*
X21964Y3272D01*
X21983Y3270D01*
X22098Y3270D01*
X22098Y3500D01*
X22099Y3500D02*
X22098Y3515D01*
X22093Y3529D01*
X22086Y3543D01*
X22076Y3554D01*
X22065Y3564D01*
X22051Y3571D01*
X22037Y3576D01*
X22022Y3577D01*
X21919Y3577D01*
X22263Y3577D02*
X22416Y3577D01*
X22314Y3730D02*
X22314Y3347D01*
X22315Y3332D01*
X22320Y3318D01*
X22327Y3304D01*
X22337Y3293D01*
X22348Y3283D01*
X22362Y3276D01*
X22376Y3271D01*
X22391Y3270D01*
X22416Y3270D01*
X22548Y3577D02*
X22701Y3577D01*
X22599Y3730D02*
X22599Y3347D01*
X22600Y3332D01*
X22605Y3318D01*
X22612Y3304D01*
X22622Y3293D01*
X22633Y3283D01*
X22647Y3276D01*
X22661Y3271D01*
X22676Y3270D01*
X22701Y3270D01*
X23020Y1230D02*
X23173Y770D01*
X23327Y1230D01*
X23508Y1230D02*
X23508Y770D01*
X23636Y770D01*
X23653Y772D01*
X23669Y778D01*
X23684Y787D01*
X23696Y799D01*
X23705Y814D01*
X23711Y830D01*
X23713Y847D01*
X23713Y1000D01*
X23712Y1015D01*
X23707Y1029D01*
X23700Y1043D01*
X23690Y1054D01*
X23679Y1064D01*
X23665Y1071D01*
X23651Y1076D01*
X23636Y1077D01*
X23508Y1077D01*
X23983Y949D02*
X24098Y949D01*
X23983Y948D02*
X23964Y946D01*
X23947Y940D01*
X23931Y931D01*
X23917Y919D01*
X23906Y904D01*
X23898Y887D01*
X23894Y868D01*
X23894Y850D01*
X23898Y831D01*
X23906Y815D01*
X23917Y799D01*
X23931Y787D01*
X23947Y778D01*
X23964Y772D01*
X23983Y770D01*
X24098Y770D01*
X24098Y1000D01*
X24099Y1000D02*
X24098Y1015D01*
X24093Y1029D01*
X24086Y1043D01*
X24076Y1054D01*
X24065Y1064D01*
X24051Y1071D01*
X24037Y1076D01*
X24022Y1077D01*
X23919Y1077D01*
X24263Y1077D02*
X24416Y1077D01*
X24314Y1230D02*
X24314Y847D01*
X24315Y832D01*
X24320Y818D01*
X24327Y804D01*
X24337Y793D01*
X24348Y783D01*
X24362Y776D01*
X24376Y771D01*
X24391Y770D01*
X24416Y770D01*
X24548Y1077D02*
X24701Y1077D01*
X24599Y1230D02*
X24599Y847D01*
X24600Y832D01*
X24605Y818D01*
X24612Y804D01*
X24622Y793D01*
X24633Y783D01*
X24647Y776D01*
X24661Y771D01*
X24676Y770D01*
X24701Y770D01*
X24949Y776D02*
X25026Y776D01*
X25026Y520D01*
X24872Y520D01*
X24854Y522D01*
X24837Y526D01*
X24821Y534D01*
X24806Y544D01*
X24794Y556D01*
X24784Y571D01*
X24776Y587D01*
X24772Y604D01*
X24770Y622D01*
X24770Y878D01*
X24772Y898D01*
X24778Y917D01*
X24787Y935D01*
X24800Y950D01*
X24815Y963D01*
X24833Y972D01*
X24852Y978D01*
X24872Y980D01*
X25026Y980D01*
X25250Y980D02*
X25250Y520D01*
X25506Y520D02*
X25250Y980D01*
X25506Y980D02*
X25506Y520D01*
X25730Y520D02*
X25730Y980D01*
X25858Y980D01*
X25878Y978D01*
X25898Y974D01*
X25916Y966D01*
X25933Y956D01*
X25949Y943D01*
X25962Y927D01*
X25972Y910D01*
X25980Y892D01*
X25984Y872D01*
X25986Y852D01*
X25986Y648D01*
X25984Y628D01*
X25980Y608D01*
X25972Y590D01*
X25962Y573D01*
X25949Y557D01*
X25933Y544D01*
X25916Y534D01*
X25898Y526D01*
X25878Y522D01*
X25858Y520D01*
X25730Y520D01*
X26270Y770D02*
X26423Y770D01*
X26441Y772D01*
X26458Y776D01*
X26474Y784D01*
X26489Y794D01*
X26501Y806D01*
X26511Y821D01*
X26519Y837D01*
X26523Y854D01*
X26525Y872D01*
X26526Y872D02*
X26526Y923D01*
X26525Y923D02*
X26523Y941D01*
X26519Y958D01*
X26511Y974D01*
X26501Y989D01*
X26489Y1001D01*
X26474Y1011D01*
X26458Y1019D01*
X26441Y1023D01*
X26423Y1025D01*
X26423Y1026D02*
X26270Y1026D01*
X26270Y1230D01*
X26526Y1230D01*
X26694Y1230D02*
X26848Y770D01*
X27001Y1230D01*
D12*
X21221Y8971D02*
X21159Y8971D01*
X21221Y8971D02*
X21221Y8765D01*
X21097Y8765D01*
X21081Y8767D01*
X21066Y8771D01*
X21051Y8779D01*
X21039Y8789D01*
X21029Y8801D01*
X21021Y8816D01*
X21017Y8831D01*
X21015Y8847D01*
X21015Y9053D01*
X21017Y9069D01*
X21021Y9084D01*
X21029Y9099D01*
X21039Y9111D01*
X21051Y9121D01*
X21066Y9129D01*
X21081Y9133D01*
X21097Y9135D01*
X21221Y9135D01*
X21399Y9135D02*
X21399Y8765D01*
X21605Y8765D02*
X21399Y9135D01*
X21605Y9135D02*
X21605Y8765D01*
X21783Y8765D02*
X21783Y9135D01*
X21886Y9135D01*
X21904Y9133D01*
X21921Y9129D01*
X21938Y9121D01*
X21952Y9111D01*
X21965Y9098D01*
X21975Y9084D01*
X21983Y9067D01*
X21987Y9050D01*
X21989Y9032D01*
X21989Y8868D01*
X21987Y8850D01*
X21983Y8833D01*
X21975Y8816D01*
X21965Y8802D01*
X21952Y8789D01*
X21937Y8779D01*
X21921Y8771D01*
X21904Y8767D01*
X21886Y8765D01*
X21783Y8765D01*
X19618Y5221D02*
X19515Y5221D01*
X19618Y5221D02*
X19637Y5219D01*
X19655Y5214D01*
X19672Y5206D01*
X19687Y5194D01*
X19700Y5180D01*
X19710Y5164D01*
X19717Y5146D01*
X19721Y5128D01*
X19721Y5108D01*
X19717Y5090D01*
X19710Y5072D01*
X19700Y5056D01*
X19687Y5042D01*
X19672Y5030D01*
X19655Y5022D01*
X19637Y5017D01*
X19618Y5015D01*
X19515Y5015D01*
X19515Y5385D01*
X19618Y5385D01*
X19635Y5383D01*
X19651Y5378D01*
X19666Y5369D01*
X19679Y5358D01*
X19689Y5344D01*
X19696Y5328D01*
X19700Y5312D01*
X19700Y5294D01*
X19696Y5278D01*
X19689Y5262D01*
X19679Y5248D01*
X19666Y5237D01*
X19651Y5228D01*
X19635Y5223D01*
X19618Y5221D01*
X19515Y5765D02*
X19638Y6135D01*
X19762Y5765D01*
X19731Y5858D02*
X19546Y5858D01*
X19515Y6765D02*
X19618Y6765D01*
X19637Y6767D01*
X19655Y6772D01*
X19672Y6780D01*
X19687Y6792D01*
X19700Y6806D01*
X19710Y6822D01*
X19717Y6840D01*
X19721Y6858D01*
X19721Y6878D01*
X19717Y6896D01*
X19710Y6914D01*
X19700Y6930D01*
X19687Y6944D01*
X19672Y6956D01*
X19655Y6964D01*
X19637Y6969D01*
X19618Y6971D01*
X19638Y7135D02*
X19515Y7135D01*
X19638Y7135D02*
X19655Y7133D01*
X19671Y7128D01*
X19686Y7119D01*
X19699Y7108D01*
X19709Y7094D01*
X19716Y7078D01*
X19720Y7062D01*
X19720Y7044D01*
X19716Y7028D01*
X19709Y7012D01*
X19699Y6998D01*
X19686Y6987D01*
X19671Y6978D01*
X19655Y6973D01*
X19638Y6971D01*
X19556Y6971D01*
X19854Y7135D02*
X19978Y6765D01*
X20101Y7135D01*
X10221Y8971D02*
X10159Y8971D01*
X10221Y8971D02*
X10221Y8765D01*
X10097Y8765D01*
X10081Y8767D01*
X10066Y8771D01*
X10051Y8779D01*
X10039Y8789D01*
X10029Y8801D01*
X10021Y8816D01*
X10017Y8831D01*
X10015Y8847D01*
X10015Y9053D01*
X10017Y9069D01*
X10021Y9084D01*
X10029Y9099D01*
X10039Y9111D01*
X10051Y9121D01*
X10066Y9129D01*
X10081Y9133D01*
X10097Y9135D01*
X10221Y9135D01*
X10399Y9135D02*
X10399Y8765D01*
X10605Y8765D02*
X10399Y9135D01*
X10605Y9135D02*
X10605Y8765D01*
X10783Y8765D02*
X10783Y9135D01*
X10886Y9135D01*
X10904Y9133D01*
X10921Y9129D01*
X10938Y9121D01*
X10952Y9111D01*
X10965Y9098D01*
X10975Y9084D01*
X10983Y9067D01*
X10987Y9050D01*
X10989Y9032D01*
X10989Y8868D01*
X10987Y8850D01*
X10983Y8833D01*
X10975Y8816D01*
X10965Y8802D01*
X10952Y8789D01*
X10937Y8779D01*
X10921Y8771D01*
X10904Y8767D01*
X10886Y8765D01*
X10783Y8765D01*
X8868Y4971D02*
X8765Y4971D01*
X8868Y4971D02*
X8887Y4969D01*
X8905Y4964D01*
X8922Y4956D01*
X8937Y4944D01*
X8950Y4930D01*
X8960Y4914D01*
X8967Y4896D01*
X8971Y4878D01*
X8971Y4858D01*
X8967Y4840D01*
X8960Y4822D01*
X8950Y4806D01*
X8937Y4792D01*
X8922Y4780D01*
X8905Y4772D01*
X8887Y4767D01*
X8868Y4765D01*
X8765Y4765D01*
X8765Y5135D01*
X8868Y5135D01*
X8885Y5133D01*
X8901Y5128D01*
X8916Y5119D01*
X8929Y5108D01*
X8939Y5094D01*
X8946Y5078D01*
X8950Y5062D01*
X8950Y5044D01*
X8946Y5028D01*
X8939Y5012D01*
X8929Y4998D01*
X8916Y4987D01*
X8901Y4978D01*
X8885Y4973D01*
X8868Y4971D01*
X8765Y5765D02*
X8888Y6135D01*
X9012Y5765D01*
X8981Y5858D02*
X8796Y5858D01*
X8618Y6765D02*
X8515Y6765D01*
X8618Y6765D02*
X8637Y6767D01*
X8655Y6772D01*
X8672Y6780D01*
X8687Y6792D01*
X8700Y6806D01*
X8710Y6822D01*
X8717Y6840D01*
X8721Y6858D01*
X8721Y6878D01*
X8717Y6896D01*
X8710Y6914D01*
X8700Y6930D01*
X8687Y6944D01*
X8672Y6956D01*
X8655Y6964D01*
X8637Y6969D01*
X8618Y6971D01*
X8638Y7135D02*
X8515Y7135D01*
X8638Y7135D02*
X8655Y7133D01*
X8671Y7128D01*
X8686Y7119D01*
X8699Y7108D01*
X8709Y7094D01*
X8716Y7078D01*
X8720Y7062D01*
X8720Y7044D01*
X8716Y7028D01*
X8709Y7012D01*
X8699Y6998D01*
X8686Y6987D01*
X8671Y6978D01*
X8655Y6973D01*
X8638Y6971D01*
X8556Y6971D01*
X8854Y7135D02*
X8978Y6765D01*
X9101Y7135D01*
D11*
X10699Y526D02*
X10776Y526D01*
X10776Y270D01*
X10622Y270D01*
X10604Y272D01*
X10587Y276D01*
X10571Y284D01*
X10556Y294D01*
X10544Y306D01*
X10534Y321D01*
X10526Y337D01*
X10522Y354D01*
X10520Y372D01*
X10520Y628D01*
X10522Y648D01*
X10528Y667D01*
X10537Y685D01*
X10550Y700D01*
X10565Y713D01*
X10583Y722D01*
X10602Y728D01*
X10622Y730D01*
X10776Y730D01*
X11000Y730D02*
X11000Y270D01*
X11256Y270D02*
X11000Y730D01*
X11256Y730D02*
X11256Y270D01*
X11480Y270D02*
X11480Y730D01*
X11608Y730D01*
X11628Y728D01*
X11648Y724D01*
X11666Y716D01*
X11683Y706D01*
X11699Y693D01*
X11712Y677D01*
X11722Y660D01*
X11730Y642D01*
X11734Y622D01*
X11736Y602D01*
X11736Y398D01*
X11734Y378D01*
X11730Y358D01*
X11722Y340D01*
X11712Y323D01*
X11699Y307D01*
X11683Y294D01*
X11666Y284D01*
X11648Y276D01*
X11628Y272D01*
X11608Y270D01*
X11480Y270D01*
X14199Y526D02*
X14276Y526D01*
X14276Y270D01*
X14122Y270D01*
X14104Y272D01*
X14087Y276D01*
X14071Y284D01*
X14056Y294D01*
X14044Y306D01*
X14034Y321D01*
X14026Y337D01*
X14022Y354D01*
X14020Y372D01*
X14020Y628D01*
X14022Y648D01*
X14028Y667D01*
X14037Y685D01*
X14050Y700D01*
X14065Y713D01*
X14083Y722D01*
X14102Y728D01*
X14122Y730D01*
X14276Y730D01*
X14500Y730D02*
X14500Y270D01*
X14756Y270D02*
X14500Y730D01*
X14756Y730D02*
X14756Y270D01*
X14980Y270D02*
X14980Y730D01*
X15108Y730D01*
X15128Y728D01*
X15148Y724D01*
X15166Y716D01*
X15183Y706D01*
X15199Y693D01*
X15212Y677D01*
X15222Y660D01*
X15230Y642D01*
X15234Y622D01*
X15236Y602D01*
X15236Y398D01*
X15234Y378D01*
X15230Y358D01*
X15222Y340D01*
X15212Y323D01*
X15199Y307D01*
X15183Y294D01*
X15166Y284D01*
X15148Y276D01*
X15128Y272D01*
X15108Y270D01*
X14980Y270D01*
X17949Y526D02*
X18026Y526D01*
X18026Y270D01*
X17872Y270D01*
X17854Y272D01*
X17837Y276D01*
X17821Y284D01*
X17806Y294D01*
X17794Y306D01*
X17784Y321D01*
X17776Y337D01*
X17772Y354D01*
X17770Y372D01*
X17770Y628D01*
X17772Y648D01*
X17778Y667D01*
X17787Y685D01*
X17800Y700D01*
X17815Y713D01*
X17833Y722D01*
X17852Y728D01*
X17872Y730D01*
X18026Y730D01*
X18250Y730D02*
X18250Y270D01*
X18506Y270D02*
X18250Y730D01*
X18506Y730D02*
X18506Y270D01*
X18730Y270D02*
X18730Y730D01*
X18858Y730D01*
X18878Y728D01*
X18898Y724D01*
X18916Y716D01*
X18933Y706D01*
X18949Y693D01*
X18962Y677D01*
X18972Y660D01*
X18980Y642D01*
X18984Y622D01*
X18986Y602D01*
X18986Y398D01*
X18984Y378D01*
X18980Y358D01*
X18972Y340D01*
X18962Y323D01*
X18949Y307D01*
X18933Y294D01*
X18916Y284D01*
X18898Y276D01*
X18878Y272D01*
X18858Y270D01*
X18730Y270D01*
X21199Y526D02*
X21276Y526D01*
X21276Y270D01*
X21122Y270D01*
X21104Y272D01*
X21087Y276D01*
X21071Y284D01*
X21056Y294D01*
X21044Y306D01*
X21034Y321D01*
X21026Y337D01*
X21022Y354D01*
X21020Y372D01*
X21020Y628D01*
X21022Y648D01*
X21028Y667D01*
X21037Y685D01*
X21050Y700D01*
X21065Y713D01*
X21083Y722D01*
X21102Y728D01*
X21122Y730D01*
X21276Y730D01*
X21500Y730D02*
X21500Y270D01*
X21756Y270D02*
X21500Y730D01*
X21756Y730D02*
X21756Y270D01*
X21980Y270D02*
X21980Y730D01*
X22108Y730D01*
X22128Y728D01*
X22148Y724D01*
X22166Y716D01*
X22183Y706D01*
X22199Y693D01*
X22212Y677D01*
X22222Y660D01*
X22230Y642D01*
X22234Y622D01*
X22236Y602D01*
X22236Y398D01*
X22234Y378D01*
X22230Y358D01*
X22222Y340D01*
X22212Y323D01*
X22199Y307D01*
X22183Y294D01*
X22166Y284D01*
X22148Y276D01*
X22128Y272D01*
X22108Y270D01*
X21980Y270D01*
D12*
X1971Y471D02*
X1909Y471D01*
X1971Y471D02*
X1971Y265D01*
X1847Y265D01*
X1831Y267D01*
X1816Y271D01*
X1801Y279D01*
X1789Y289D01*
X1779Y301D01*
X1771Y316D01*
X1767Y331D01*
X1765Y347D01*
X1765Y553D01*
X1767Y569D01*
X1771Y584D01*
X1779Y599D01*
X1789Y611D01*
X1801Y621D01*
X1816Y629D01*
X1831Y633D01*
X1847Y635D01*
X1971Y635D01*
X2149Y635D02*
X2149Y265D01*
X2355Y265D02*
X2149Y635D01*
X2355Y635D02*
X2355Y265D01*
X2533Y265D02*
X2533Y635D01*
X2636Y635D01*
X2654Y633D01*
X2671Y629D01*
X2688Y621D01*
X2702Y611D01*
X2715Y598D01*
X2725Y584D01*
X2733Y567D01*
X2737Y550D01*
X2739Y532D01*
X2739Y368D01*
X2737Y350D01*
X2733Y333D01*
X2725Y316D01*
X2715Y302D01*
X2702Y289D01*
X2687Y279D01*
X2671Y271D01*
X2654Y267D01*
X2636Y265D01*
X2533Y265D01*
X3265Y3515D02*
X3368Y3515D01*
X3387Y3517D01*
X3405Y3522D01*
X3422Y3530D01*
X3437Y3542D01*
X3450Y3556D01*
X3460Y3572D01*
X3467Y3590D01*
X3471Y3608D01*
X3471Y3628D01*
X3467Y3646D01*
X3460Y3664D01*
X3450Y3680D01*
X3437Y3694D01*
X3422Y3706D01*
X3405Y3714D01*
X3387Y3719D01*
X3368Y3721D01*
X3388Y3885D02*
X3265Y3885D01*
X3388Y3885D02*
X3405Y3883D01*
X3421Y3878D01*
X3436Y3869D01*
X3449Y3858D01*
X3459Y3844D01*
X3466Y3828D01*
X3470Y3812D01*
X3470Y3794D01*
X3466Y3778D01*
X3459Y3762D01*
X3449Y3748D01*
X3436Y3737D01*
X3421Y3728D01*
X3405Y3723D01*
X3388Y3721D01*
X3306Y3721D01*
X3604Y3885D02*
X3728Y3515D01*
X3851Y3885D01*
X3765Y635D02*
X3765Y265D01*
X3888Y429D02*
X3765Y635D01*
X3888Y429D02*
X4012Y635D01*
X4012Y265D01*
X4182Y368D02*
X4182Y532D01*
X4181Y532D02*
X4183Y551D01*
X4188Y569D01*
X4196Y586D01*
X4208Y601D01*
X4222Y614D01*
X4238Y624D01*
X4256Y631D01*
X4274Y635D01*
X4294Y635D01*
X4312Y631D01*
X4330Y624D01*
X4346Y614D01*
X4360Y601D01*
X4372Y586D01*
X4380Y569D01*
X4385Y551D01*
X4387Y532D01*
X4387Y368D01*
X4385Y349D01*
X4380Y331D01*
X4372Y314D01*
X4360Y299D01*
X4346Y286D01*
X4330Y276D01*
X4312Y269D01*
X4294Y265D01*
X4274Y265D01*
X4256Y269D01*
X4238Y276D01*
X4222Y286D01*
X4208Y299D01*
X4196Y314D01*
X4188Y331D01*
X4183Y349D01*
X4181Y368D01*
X4653Y265D02*
X4669Y267D01*
X4684Y271D01*
X4699Y279D01*
X4711Y289D01*
X4721Y301D01*
X4729Y316D01*
X4733Y331D01*
X4735Y347D01*
X4653Y265D02*
X4630Y267D01*
X4608Y271D01*
X4586Y278D01*
X4566Y289D01*
X4547Y301D01*
X4529Y316D01*
X4540Y553D02*
X4542Y569D01*
X4546Y584D01*
X4554Y599D01*
X4564Y611D01*
X4576Y621D01*
X4591Y629D01*
X4606Y633D01*
X4622Y635D01*
X4642Y634D01*
X4661Y630D01*
X4680Y624D01*
X4698Y615D01*
X4714Y604D01*
X4580Y481D02*
X4566Y491D01*
X4555Y504D01*
X4546Y519D01*
X4541Y536D01*
X4539Y553D01*
X4695Y419D02*
X4709Y409D01*
X4720Y396D01*
X4729Y381D01*
X4734Y364D01*
X4736Y347D01*
X4694Y419D02*
X4581Y481D01*
X4908Y635D02*
X4908Y265D01*
X4867Y265D02*
X4949Y265D01*
X4949Y635D02*
X4867Y635D01*
X5015Y3515D02*
X5015Y3885D01*
X5138Y3679D01*
X5262Y3885D01*
X5262Y3515D01*
X5462Y3515D02*
X5462Y3885D01*
X5421Y3515D02*
X5503Y3515D01*
X5503Y3885D02*
X5421Y3885D01*
X5759Y3515D02*
X5775Y3517D01*
X5790Y3521D01*
X5805Y3529D01*
X5817Y3539D01*
X5827Y3551D01*
X5835Y3566D01*
X5839Y3581D01*
X5841Y3597D01*
X5759Y3515D02*
X5736Y3517D01*
X5714Y3521D01*
X5692Y3528D01*
X5672Y3539D01*
X5653Y3551D01*
X5635Y3566D01*
X5646Y3803D02*
X5648Y3819D01*
X5652Y3834D01*
X5660Y3849D01*
X5670Y3861D01*
X5682Y3871D01*
X5697Y3879D01*
X5712Y3883D01*
X5728Y3885D01*
X5748Y3884D01*
X5767Y3880D01*
X5786Y3874D01*
X5804Y3865D01*
X5820Y3854D01*
X5686Y3731D02*
X5672Y3741D01*
X5661Y3754D01*
X5652Y3769D01*
X5647Y3786D01*
X5645Y3803D01*
X5801Y3669D02*
X5815Y3659D01*
X5826Y3646D01*
X5835Y3631D01*
X5840Y3614D01*
X5842Y3597D01*
X5800Y3669D02*
X5687Y3731D01*
X5984Y3782D02*
X5984Y3618D01*
X5983Y3782D02*
X5985Y3801D01*
X5990Y3819D01*
X5998Y3836D01*
X6010Y3851D01*
X6024Y3864D01*
X6040Y3874D01*
X6058Y3881D01*
X6076Y3885D01*
X6096Y3885D01*
X6114Y3881D01*
X6132Y3874D01*
X6148Y3864D01*
X6162Y3851D01*
X6174Y3836D01*
X6182Y3819D01*
X6187Y3801D01*
X6189Y3782D01*
X6189Y3618D01*
X6187Y3599D01*
X6182Y3581D01*
X6174Y3564D01*
X6162Y3549D01*
X6148Y3536D01*
X6132Y3526D01*
X6114Y3519D01*
X6096Y3515D01*
X6076Y3515D01*
X6058Y3519D01*
X6040Y3526D01*
X6024Y3536D01*
X6010Y3549D01*
X5998Y3564D01*
X5990Y3581D01*
X5985Y3599D01*
X5983Y3618D01*
X6220Y347D02*
X6218Y331D01*
X6214Y316D01*
X6206Y301D01*
X6196Y289D01*
X6184Y279D01*
X6169Y271D01*
X6154Y267D01*
X6138Y265D01*
X6115Y267D01*
X6093Y271D01*
X6071Y278D01*
X6051Y289D01*
X6032Y301D01*
X6014Y316D01*
X6025Y553D02*
X6027Y569D01*
X6031Y584D01*
X6039Y599D01*
X6049Y611D01*
X6061Y621D01*
X6076Y629D01*
X6091Y633D01*
X6107Y635D01*
X6127Y634D01*
X6146Y630D01*
X6165Y624D01*
X6183Y615D01*
X6199Y604D01*
X6025Y553D02*
X6027Y536D01*
X6032Y519D01*
X6041Y504D01*
X6052Y491D01*
X6066Y481D01*
X6180Y419D02*
X6194Y409D01*
X6205Y396D01*
X6214Y381D01*
X6219Y364D01*
X6221Y347D01*
X6179Y419D02*
X6066Y481D01*
X6444Y265D02*
X6526Y265D01*
X6444Y265D02*
X6428Y267D01*
X6413Y271D01*
X6398Y279D01*
X6386Y289D01*
X6376Y301D01*
X6368Y316D01*
X6364Y331D01*
X6362Y347D01*
X6362Y553D01*
X6364Y569D01*
X6368Y584D01*
X6376Y599D01*
X6386Y611D01*
X6398Y621D01*
X6413Y629D01*
X6428Y633D01*
X6444Y635D01*
X6526Y635D01*
X6680Y635D02*
X6680Y265D01*
X6680Y409D02*
X6886Y635D01*
X6762Y491D02*
X6886Y265D01*
X7388Y3515D02*
X7404Y3517D01*
X7419Y3521D01*
X7434Y3529D01*
X7446Y3539D01*
X7456Y3551D01*
X7464Y3566D01*
X7468Y3581D01*
X7470Y3597D01*
X7388Y3515D02*
X7365Y3517D01*
X7343Y3521D01*
X7321Y3528D01*
X7301Y3539D01*
X7282Y3551D01*
X7264Y3566D01*
X7275Y3803D02*
X7277Y3819D01*
X7281Y3834D01*
X7289Y3849D01*
X7299Y3861D01*
X7311Y3871D01*
X7326Y3879D01*
X7341Y3883D01*
X7357Y3885D01*
X7377Y3884D01*
X7396Y3880D01*
X7415Y3874D01*
X7433Y3865D01*
X7449Y3854D01*
X7275Y3803D02*
X7277Y3786D01*
X7282Y3769D01*
X7291Y3754D01*
X7302Y3741D01*
X7316Y3731D01*
X7430Y3669D02*
X7444Y3659D01*
X7455Y3646D01*
X7464Y3631D01*
X7469Y3614D01*
X7471Y3597D01*
X7429Y3669D02*
X7316Y3731D01*
X7724Y3515D02*
X7740Y3517D01*
X7755Y3521D01*
X7770Y3529D01*
X7782Y3539D01*
X7792Y3551D01*
X7800Y3566D01*
X7804Y3581D01*
X7806Y3597D01*
X7724Y3515D02*
X7701Y3517D01*
X7679Y3521D01*
X7657Y3528D01*
X7637Y3539D01*
X7618Y3551D01*
X7600Y3566D01*
X7611Y3803D02*
X7613Y3819D01*
X7617Y3834D01*
X7625Y3849D01*
X7635Y3861D01*
X7647Y3871D01*
X7662Y3879D01*
X7677Y3883D01*
X7693Y3885D01*
X7713Y3884D01*
X7732Y3880D01*
X7751Y3874D01*
X7769Y3865D01*
X7785Y3854D01*
X7611Y3803D02*
X7613Y3786D01*
X7618Y3769D01*
X7627Y3754D01*
X7638Y3741D01*
X7652Y3731D01*
X7766Y3669D02*
X7780Y3659D01*
X7791Y3646D01*
X7800Y3631D01*
X7805Y3614D01*
X7807Y3597D01*
X7765Y3669D02*
X7652Y3731D01*
X8220Y347D02*
X8218Y331D01*
X8214Y316D01*
X8206Y301D01*
X8196Y289D01*
X8184Y279D01*
X8169Y271D01*
X8154Y267D01*
X8138Y265D01*
X8115Y267D01*
X8093Y271D01*
X8071Y278D01*
X8051Y289D01*
X8032Y301D01*
X8014Y316D01*
X8025Y553D02*
X8027Y569D01*
X8031Y584D01*
X8039Y599D01*
X8049Y611D01*
X8061Y621D01*
X8076Y629D01*
X8091Y633D01*
X8107Y635D01*
X8127Y634D01*
X8146Y630D01*
X8165Y624D01*
X8183Y615D01*
X8199Y604D01*
X8025Y553D02*
X8027Y536D01*
X8032Y519D01*
X8041Y504D01*
X8052Y491D01*
X8066Y481D01*
X8180Y419D02*
X8194Y409D01*
X8205Y396D01*
X8214Y381D01*
X8219Y364D01*
X8221Y347D01*
X8179Y419D02*
X8066Y481D01*
X8474Y265D02*
X8490Y267D01*
X8505Y271D01*
X8520Y279D01*
X8532Y289D01*
X8542Y301D01*
X8550Y316D01*
X8554Y331D01*
X8556Y347D01*
X8474Y265D02*
X8451Y267D01*
X8429Y271D01*
X8407Y278D01*
X8387Y289D01*
X8368Y301D01*
X8350Y316D01*
X8361Y553D02*
X8363Y569D01*
X8367Y584D01*
X8375Y599D01*
X8385Y611D01*
X8397Y621D01*
X8412Y629D01*
X8427Y633D01*
X8443Y635D01*
X8463Y634D01*
X8482Y630D01*
X8501Y624D01*
X8519Y615D01*
X8535Y604D01*
X8361Y553D02*
X8363Y536D01*
X8368Y519D01*
X8377Y504D01*
X8388Y491D01*
X8402Y481D01*
X8516Y419D02*
X8530Y409D01*
X8541Y396D01*
X8550Y381D01*
X8555Y364D01*
X8557Y347D01*
X8515Y419D02*
X8402Y481D01*
X8699Y553D02*
X8802Y635D01*
X8802Y265D01*
X8699Y265D02*
X8905Y265D01*
D11*
X2020Y9270D02*
X2020Y9730D01*
X2020Y9526D02*
X2276Y9526D01*
X2276Y9730D02*
X2276Y9270D01*
X2496Y9347D02*
X2496Y9577D01*
X2495Y9347D02*
X2496Y9332D01*
X2501Y9318D01*
X2508Y9304D01*
X2518Y9293D01*
X2529Y9283D01*
X2543Y9276D01*
X2557Y9271D01*
X2572Y9270D01*
X2700Y9270D01*
X2700Y9577D01*
X2939Y9449D02*
X3067Y9398D01*
X2938Y9449D02*
X2925Y9456D01*
X2914Y9466D01*
X2905Y9479D01*
X2899Y9493D01*
X2897Y9508D01*
X2898Y9523D01*
X2903Y9537D01*
X2911Y9550D01*
X2922Y9561D01*
X2934Y9569D01*
X2949Y9574D01*
X2964Y9576D01*
X2994Y9574D01*
X3023Y9569D01*
X3051Y9561D01*
X3079Y9550D01*
X3067Y9397D02*
X3080Y9390D01*
X3091Y9380D01*
X3100Y9367D01*
X3106Y9353D01*
X3108Y9338D01*
X3107Y9323D01*
X3102Y9309D01*
X3094Y9296D01*
X3083Y9285D01*
X3071Y9277D01*
X3056Y9272D01*
X3041Y9270D01*
X3005Y9272D01*
X2970Y9277D01*
X2935Y9285D01*
X2900Y9296D01*
X3311Y9270D02*
X3311Y9730D01*
X3515Y9577D02*
X3311Y9423D01*
X3400Y9487D02*
X3515Y9270D01*
X3666Y9117D02*
X3717Y9117D01*
X3870Y9577D01*
X3666Y9577D02*
X3768Y9270D01*
X4303Y9270D02*
X4303Y9730D01*
X4431Y9730D01*
X4452Y9728D01*
X4473Y9723D01*
X4492Y9715D01*
X4510Y9703D01*
X4525Y9689D01*
X4538Y9672D01*
X4548Y9653D01*
X4555Y9633D01*
X4559Y9613D01*
X4559Y9591D01*
X4555Y9571D01*
X4548Y9551D01*
X4538Y9532D01*
X4525Y9515D01*
X4510Y9501D01*
X4492Y9489D01*
X4473Y9481D01*
X4452Y9476D01*
X4431Y9474D01*
X4303Y9474D01*
X4456Y9474D02*
X4558Y9270D01*
X4746Y9372D02*
X4746Y9474D01*
X4748Y9493D01*
X4753Y9511D01*
X4761Y9528D01*
X4773Y9543D01*
X4787Y9555D01*
X4803Y9565D01*
X4820Y9572D01*
X4839Y9576D01*
X4857Y9576D01*
X4876Y9572D01*
X4893Y9565D01*
X4909Y9555D01*
X4923Y9543D01*
X4935Y9528D01*
X4943Y9511D01*
X4948Y9493D01*
X4950Y9474D01*
X4950Y9372D01*
X4948Y9353D01*
X4943Y9335D01*
X4935Y9318D01*
X4923Y9303D01*
X4909Y9291D01*
X4893Y9281D01*
X4876Y9274D01*
X4857Y9270D01*
X4839Y9270D01*
X4820Y9274D01*
X4803Y9281D01*
X4787Y9291D01*
X4773Y9303D01*
X4761Y9318D01*
X4753Y9335D01*
X4748Y9353D01*
X4746Y9372D01*
X5153Y9270D02*
X5153Y9730D01*
X5153Y9270D02*
X5281Y9270D01*
X5298Y9272D01*
X5314Y9278D01*
X5329Y9287D01*
X5341Y9299D01*
X5350Y9314D01*
X5356Y9330D01*
X5358Y9347D01*
X5357Y9347D02*
X5357Y9500D01*
X5358Y9500D02*
X5357Y9515D01*
X5352Y9529D01*
X5345Y9543D01*
X5335Y9554D01*
X5324Y9564D01*
X5310Y9571D01*
X5296Y9576D01*
X5281Y9577D01*
X5153Y9577D01*
X5541Y9474D02*
X5541Y9372D01*
X5541Y9474D02*
X5543Y9493D01*
X5548Y9511D01*
X5556Y9528D01*
X5568Y9543D01*
X5582Y9555D01*
X5598Y9565D01*
X5615Y9572D01*
X5634Y9576D01*
X5652Y9576D01*
X5671Y9572D01*
X5688Y9565D01*
X5704Y9555D01*
X5718Y9543D01*
X5730Y9528D01*
X5738Y9511D01*
X5743Y9493D01*
X5745Y9474D01*
X5745Y9372D01*
X5743Y9353D01*
X5738Y9335D01*
X5730Y9318D01*
X5718Y9303D01*
X5704Y9291D01*
X5688Y9281D01*
X5671Y9274D01*
X5652Y9270D01*
X5634Y9270D01*
X5615Y9274D01*
X5598Y9281D01*
X5582Y9291D01*
X5568Y9303D01*
X5556Y9318D01*
X5548Y9335D01*
X5543Y9353D01*
X5541Y9372D01*
X5892Y9577D02*
X6046Y9577D01*
X5944Y9730D02*
X5944Y9347D01*
X5943Y9347D02*
X5944Y9332D01*
X5949Y9318D01*
X5956Y9304D01*
X5966Y9293D01*
X5977Y9283D01*
X5991Y9276D01*
X6005Y9271D01*
X6020Y9270D01*
X6046Y9270D01*
X6213Y9270D02*
X6213Y9577D01*
X6200Y9704D02*
X6200Y9730D01*
X6226Y9730D01*
X6226Y9704D01*
X6200Y9704D01*
X6473Y9270D02*
X6575Y9270D01*
X6473Y9270D02*
X6458Y9271D01*
X6444Y9276D01*
X6430Y9283D01*
X6419Y9293D01*
X6409Y9304D01*
X6402Y9318D01*
X6397Y9332D01*
X6396Y9347D01*
X6396Y9500D01*
X6397Y9515D01*
X6402Y9529D01*
X6409Y9543D01*
X6419Y9554D01*
X6430Y9564D01*
X6444Y9571D01*
X6458Y9576D01*
X6473Y9577D01*
X6575Y9577D01*
X6779Y9449D02*
X6907Y9398D01*
X6778Y9449D02*
X6765Y9456D01*
X6754Y9466D01*
X6745Y9479D01*
X6739Y9493D01*
X6737Y9508D01*
X6738Y9523D01*
X6743Y9537D01*
X6751Y9550D01*
X6762Y9561D01*
X6774Y9569D01*
X6789Y9574D01*
X6804Y9576D01*
X6834Y9574D01*
X6863Y9569D01*
X6891Y9561D01*
X6919Y9550D01*
X6907Y9397D02*
X6920Y9390D01*
X6931Y9380D01*
X6940Y9367D01*
X6946Y9353D01*
X6948Y9338D01*
X6947Y9323D01*
X6942Y9309D01*
X6934Y9296D01*
X6923Y9285D01*
X6911Y9277D01*
X6896Y9272D01*
X6881Y9270D01*
X6845Y9272D01*
X6810Y9277D01*
X6775Y9285D01*
X6740Y9296D01*
X7516Y9730D02*
X7536Y9728D01*
X7555Y9723D01*
X7574Y9715D01*
X7590Y9703D01*
X7604Y9689D01*
X7616Y9673D01*
X7624Y9654D01*
X7629Y9635D01*
X7631Y9615D01*
X7516Y9730D02*
X7493Y9728D01*
X7470Y9723D01*
X7449Y9714D01*
X7429Y9702D01*
X7411Y9687D01*
X7396Y9669D01*
X7384Y9649D01*
X7375Y9628D01*
X7593Y9525D02*
X7606Y9540D01*
X7617Y9557D01*
X7625Y9576D01*
X7629Y9595D01*
X7631Y9615D01*
X7592Y9526D02*
X7375Y9270D01*
X7631Y9270D01*
X7825Y9500D02*
X7827Y9534D01*
X7831Y9568D01*
X7839Y9602D01*
X7850Y9635D01*
X7863Y9666D01*
X7870Y9681D01*
X7879Y9695D01*
X7891Y9707D01*
X7905Y9717D01*
X7920Y9724D01*
X7936Y9729D01*
X7953Y9730D01*
X7970Y9729D01*
X7986Y9724D01*
X8001Y9717D01*
X8015Y9707D01*
X8027Y9695D01*
X8036Y9681D01*
X8043Y9666D01*
X8042Y9666D02*
X8055Y9635D01*
X8066Y9602D01*
X8074Y9568D01*
X8078Y9534D01*
X8080Y9500D01*
X7825Y9500D02*
X7827Y9466D01*
X7831Y9432D01*
X7839Y9398D01*
X7850Y9365D01*
X7863Y9334D01*
X7870Y9319D01*
X7879Y9305D01*
X7891Y9293D01*
X7905Y9283D01*
X7920Y9276D01*
X7936Y9271D01*
X7953Y9270D01*
X8042Y9334D02*
X8055Y9365D01*
X8066Y9398D01*
X8074Y9432D01*
X8078Y9466D01*
X8080Y9500D01*
X8043Y9334D02*
X8036Y9319D01*
X8027Y9305D01*
X8015Y9293D01*
X8001Y9283D01*
X7986Y9276D01*
X7970Y9271D01*
X7953Y9270D01*
X7851Y9372D02*
X8055Y9628D01*
X8275Y9628D02*
X8403Y9730D01*
X8403Y9270D01*
X8275Y9270D02*
X8531Y9270D01*
X8725Y9398D02*
X8727Y9419D01*
X8732Y9440D01*
X8740Y9459D01*
X8752Y9477D01*
X8766Y9492D01*
X8783Y9505D01*
X8802Y9515D01*
X8822Y9522D01*
X8842Y9526D01*
X8864Y9526D01*
X8884Y9522D01*
X8904Y9515D01*
X8923Y9505D01*
X8940Y9492D01*
X8954Y9477D01*
X8966Y9459D01*
X8974Y9440D01*
X8979Y9419D01*
X8981Y9398D01*
X8979Y9377D01*
X8974Y9356D01*
X8966Y9337D01*
X8954Y9319D01*
X8940Y9304D01*
X8923Y9291D01*
X8904Y9281D01*
X8884Y9274D01*
X8864Y9270D01*
X8842Y9270D01*
X8822Y9274D01*
X8802Y9281D01*
X8783Y9291D01*
X8766Y9304D01*
X8752Y9319D01*
X8740Y9337D01*
X8732Y9356D01*
X8727Y9377D01*
X8725Y9398D01*
X8751Y9628D02*
X8753Y9647D01*
X8758Y9665D01*
X8766Y9682D01*
X8778Y9697D01*
X8792Y9709D01*
X8808Y9719D01*
X8825Y9726D01*
X8844Y9730D01*
X8862Y9730D01*
X8881Y9726D01*
X8898Y9719D01*
X8914Y9709D01*
X8928Y9697D01*
X8940Y9682D01*
X8948Y9665D01*
X8953Y9647D01*
X8955Y9628D01*
X8953Y9609D01*
X8948Y9591D01*
X8940Y9574D01*
X8928Y9559D01*
X8914Y9547D01*
X8898Y9537D01*
X8881Y9530D01*
X8862Y9526D01*
X8844Y9526D01*
X8825Y9530D01*
X8808Y9537D01*
X8792Y9547D01*
X8778Y9559D01*
X8766Y9574D01*
X8758Y9591D01*
X8753Y9609D01*
X8751Y9628D01*
X18020Y9730D02*
X18020Y9270D01*
X18020Y9730D02*
X18148Y9730D01*
X18168Y9728D01*
X18188Y9724D01*
X18206Y9716D01*
X18223Y9706D01*
X18239Y9693D01*
X18252Y9677D01*
X18262Y9660D01*
X18270Y9642D01*
X18274Y9622D01*
X18276Y9602D01*
X18276Y9398D01*
X18274Y9378D01*
X18270Y9358D01*
X18262Y9340D01*
X18252Y9323D01*
X18239Y9307D01*
X18223Y9294D01*
X18206Y9284D01*
X18188Y9276D01*
X18168Y9272D01*
X18148Y9270D01*
X18020Y9270D01*
X18496Y9347D02*
X18496Y9577D01*
X18495Y9347D02*
X18496Y9332D01*
X18501Y9318D01*
X18508Y9304D01*
X18518Y9293D01*
X18529Y9283D01*
X18543Y9276D01*
X18557Y9271D01*
X18572Y9270D01*
X18700Y9270D01*
X18700Y9577D01*
X18988Y9449D02*
X19103Y9449D01*
X18988Y9448D02*
X18969Y9446D01*
X18952Y9440D01*
X18936Y9431D01*
X18922Y9419D01*
X18911Y9404D01*
X18903Y9387D01*
X18899Y9368D01*
X18899Y9350D01*
X18903Y9331D01*
X18911Y9315D01*
X18922Y9299D01*
X18936Y9287D01*
X18952Y9278D01*
X18969Y9272D01*
X18988Y9270D01*
X19103Y9270D01*
X19103Y9500D01*
X19102Y9515D01*
X19097Y9529D01*
X19090Y9543D01*
X19080Y9554D01*
X19069Y9564D01*
X19055Y9571D01*
X19041Y9576D01*
X19026Y9577D01*
X18924Y9577D01*
X19311Y9730D02*
X19311Y9347D01*
X19312Y9332D01*
X19317Y9318D01*
X19324Y9304D01*
X19334Y9293D01*
X19345Y9283D01*
X19359Y9276D01*
X19373Y9271D01*
X19388Y9270D01*
X19816Y9398D02*
X19816Y9602D01*
X19818Y9623D01*
X19823Y9644D01*
X19831Y9663D01*
X19843Y9681D01*
X19857Y9696D01*
X19874Y9709D01*
X19893Y9719D01*
X19913Y9726D01*
X19933Y9730D01*
X19955Y9730D01*
X19975Y9726D01*
X19995Y9719D01*
X20014Y9709D01*
X20031Y9696D01*
X20045Y9681D01*
X20057Y9663D01*
X20065Y9644D01*
X20070Y9623D01*
X20072Y9602D01*
X20072Y9398D01*
X20070Y9377D01*
X20065Y9356D01*
X20057Y9337D01*
X20045Y9319D01*
X20031Y9304D01*
X20014Y9291D01*
X19995Y9281D01*
X19975Y9274D01*
X19955Y9270D01*
X19933Y9270D01*
X19913Y9274D01*
X19893Y9281D01*
X19874Y9291D01*
X19857Y9304D01*
X19843Y9319D01*
X19831Y9337D01*
X19823Y9356D01*
X19818Y9377D01*
X19816Y9398D01*
X20021Y9372D02*
X20123Y9270D01*
X20266Y9347D02*
X20266Y9577D01*
X20265Y9347D02*
X20266Y9332D01*
X20271Y9318D01*
X20278Y9304D01*
X20288Y9293D01*
X20299Y9283D01*
X20313Y9276D01*
X20327Y9271D01*
X20342Y9270D01*
X20470Y9270D01*
X20470Y9577D01*
X20758Y9449D02*
X20873Y9449D01*
X20758Y9448D02*
X20739Y9446D01*
X20722Y9440D01*
X20706Y9431D01*
X20692Y9419D01*
X20681Y9404D01*
X20673Y9387D01*
X20669Y9368D01*
X20669Y9350D01*
X20673Y9331D01*
X20681Y9315D01*
X20692Y9299D01*
X20706Y9287D01*
X20722Y9278D01*
X20739Y9272D01*
X20758Y9270D01*
X20873Y9270D01*
X20873Y9500D01*
X20872Y9515D01*
X20867Y9529D01*
X20860Y9543D01*
X20850Y9554D01*
X20839Y9564D01*
X20825Y9571D01*
X20811Y9576D01*
X20796Y9577D01*
X20694Y9577D01*
X21278Y9730D02*
X21278Y9270D01*
X21150Y9270D01*
X21135Y9271D01*
X21121Y9276D01*
X21107Y9283D01*
X21096Y9293D01*
X21086Y9304D01*
X21079Y9318D01*
X21074Y9332D01*
X21073Y9347D01*
X21073Y9500D01*
X21074Y9515D01*
X21079Y9529D01*
X21086Y9543D01*
X21096Y9554D01*
X21107Y9564D01*
X21121Y9571D01*
X21135Y9576D01*
X21150Y9577D01*
X21278Y9577D01*
X21498Y9577D02*
X21498Y9270D01*
X21498Y9577D02*
X21651Y9577D01*
X21651Y9526D01*
X21883Y9449D02*
X21998Y9449D01*
X21883Y9448D02*
X21864Y9446D01*
X21847Y9440D01*
X21831Y9431D01*
X21817Y9419D01*
X21806Y9404D01*
X21798Y9387D01*
X21794Y9368D01*
X21794Y9350D01*
X21798Y9331D01*
X21806Y9315D01*
X21817Y9299D01*
X21831Y9287D01*
X21847Y9278D01*
X21864Y9272D01*
X21883Y9270D01*
X21998Y9270D01*
X21998Y9500D01*
X21997Y9515D01*
X21992Y9529D01*
X21985Y9543D01*
X21975Y9554D01*
X21964Y9564D01*
X21950Y9571D01*
X21936Y9576D01*
X21921Y9577D01*
X21819Y9577D01*
X22162Y9577D02*
X22316Y9577D01*
X22214Y9730D02*
X22214Y9347D01*
X22213Y9347D02*
X22214Y9332D01*
X22219Y9318D01*
X22226Y9304D01*
X22236Y9293D01*
X22247Y9283D01*
X22261Y9276D01*
X22275Y9271D01*
X22290Y9270D01*
X22316Y9270D01*
X22501Y9347D02*
X22501Y9577D01*
X22500Y9347D02*
X22501Y9332D01*
X22506Y9318D01*
X22513Y9304D01*
X22523Y9293D01*
X22534Y9283D01*
X22548Y9276D01*
X22562Y9271D01*
X22577Y9270D01*
X22705Y9270D01*
X22705Y9577D01*
X22923Y9577D02*
X22923Y9270D01*
X22923Y9577D02*
X23076Y9577D01*
X23076Y9526D01*
X23297Y9270D02*
X23425Y9270D01*
X23297Y9270D02*
X23282Y9271D01*
X23268Y9276D01*
X23254Y9283D01*
X23243Y9293D01*
X23233Y9304D01*
X23226Y9318D01*
X23221Y9332D01*
X23220Y9347D01*
X23221Y9347D02*
X23221Y9474D01*
X23223Y9493D01*
X23228Y9511D01*
X23236Y9528D01*
X23248Y9543D01*
X23262Y9555D01*
X23278Y9565D01*
X23295Y9572D01*
X23314Y9576D01*
X23332Y9576D01*
X23351Y9572D01*
X23368Y9565D01*
X23384Y9555D01*
X23398Y9543D01*
X23410Y9528D01*
X23418Y9511D01*
X23423Y9493D01*
X23425Y9474D01*
X23425Y9423D01*
X23221Y9423D01*
X23870Y9270D02*
X23870Y9730D01*
X23998Y9730D01*
X24018Y9728D01*
X24038Y9724D01*
X24056Y9716D01*
X24073Y9706D01*
X24089Y9693D01*
X24102Y9677D01*
X24112Y9660D01*
X24120Y9642D01*
X24124Y9622D01*
X24126Y9602D01*
X24126Y9398D01*
X24124Y9378D01*
X24120Y9358D01*
X24112Y9340D01*
X24102Y9323D01*
X24089Y9307D01*
X24073Y9294D01*
X24056Y9284D01*
X24038Y9276D01*
X24018Y9272D01*
X23998Y9270D01*
X23870Y9270D01*
X24407Y9270D02*
X24535Y9270D01*
X24407Y9270D02*
X24392Y9271D01*
X24378Y9276D01*
X24364Y9283D01*
X24353Y9293D01*
X24343Y9304D01*
X24336Y9318D01*
X24331Y9332D01*
X24330Y9347D01*
X24331Y9347D02*
X24331Y9474D01*
X24333Y9493D01*
X24338Y9511D01*
X24346Y9528D01*
X24358Y9543D01*
X24372Y9555D01*
X24388Y9565D01*
X24405Y9572D01*
X24424Y9576D01*
X24442Y9576D01*
X24461Y9572D01*
X24478Y9565D01*
X24494Y9555D01*
X24508Y9543D01*
X24520Y9528D01*
X24528Y9511D01*
X24533Y9493D01*
X24535Y9474D01*
X24535Y9423D01*
X24331Y9423D01*
X24798Y9270D02*
X24900Y9270D01*
X24798Y9270D02*
X24783Y9271D01*
X24769Y9276D01*
X24755Y9283D01*
X24744Y9293D01*
X24734Y9304D01*
X24727Y9318D01*
X24722Y9332D01*
X24721Y9347D01*
X24721Y9500D01*
X24722Y9515D01*
X24727Y9529D01*
X24734Y9543D01*
X24744Y9554D01*
X24755Y9564D01*
X24769Y9571D01*
X24783Y9576D01*
X24798Y9577D01*
X24900Y9577D01*
X25066Y9474D02*
X25066Y9372D01*
X25066Y9474D02*
X25068Y9493D01*
X25073Y9511D01*
X25081Y9528D01*
X25093Y9543D01*
X25107Y9555D01*
X25123Y9565D01*
X25140Y9572D01*
X25159Y9576D01*
X25177Y9576D01*
X25196Y9572D01*
X25213Y9565D01*
X25229Y9555D01*
X25243Y9543D01*
X25255Y9528D01*
X25263Y9511D01*
X25268Y9493D01*
X25270Y9474D01*
X25270Y9372D01*
X25268Y9353D01*
X25263Y9335D01*
X25255Y9318D01*
X25243Y9303D01*
X25229Y9291D01*
X25213Y9281D01*
X25196Y9274D01*
X25177Y9270D01*
X25159Y9270D01*
X25140Y9274D01*
X25123Y9281D01*
X25107Y9291D01*
X25093Y9303D01*
X25081Y9318D01*
X25073Y9335D01*
X25068Y9353D01*
X25066Y9372D01*
X25658Y9270D02*
X25658Y9730D01*
X25658Y9270D02*
X25530Y9270D01*
X25515Y9271D01*
X25501Y9276D01*
X25487Y9283D01*
X25476Y9293D01*
X25466Y9304D01*
X25459Y9318D01*
X25454Y9332D01*
X25453Y9347D01*
X25453Y9500D01*
X25454Y9515D01*
X25459Y9529D01*
X25466Y9543D01*
X25476Y9554D01*
X25487Y9564D01*
X25501Y9571D01*
X25515Y9576D01*
X25530Y9577D01*
X25658Y9577D01*
X25937Y9270D02*
X26065Y9270D01*
X25937Y9270D02*
X25922Y9271D01*
X25908Y9276D01*
X25894Y9283D01*
X25883Y9293D01*
X25873Y9304D01*
X25866Y9318D01*
X25861Y9332D01*
X25860Y9347D01*
X25861Y9347D02*
X25861Y9474D01*
X25863Y9493D01*
X25868Y9511D01*
X25876Y9528D01*
X25888Y9543D01*
X25902Y9555D01*
X25918Y9565D01*
X25935Y9572D01*
X25954Y9576D01*
X25972Y9576D01*
X25991Y9572D01*
X26008Y9565D01*
X26024Y9555D01*
X26038Y9543D01*
X26050Y9528D01*
X26058Y9511D01*
X26063Y9493D01*
X26065Y9474D01*
X26065Y9423D01*
X25861Y9423D01*
X26268Y9270D02*
X26268Y9577D01*
X26421Y9577D01*
X26421Y9526D01*
D13*
X3850Y7700D02*
X3850Y5300D01*
X2150Y5300D02*
X2150Y7700D01*
D14*
X3650Y7700D02*
X3650Y5300D01*
X2350Y5300D02*
X2350Y7700D01*
X2700Y6600D02*
X2700Y6400D01*
X2700Y6600D02*
X3300Y6600D01*
X3300Y6400D01*
X2700Y6400D01*
X2700Y6750D02*
X3000Y6750D01*
X3300Y6750D01*
X3000Y6250D02*
X2700Y6250D01*
X3000Y6250D02*
X3300Y6250D01*
X3000Y6750D02*
X3000Y7000D01*
X3000Y6250D02*
X3000Y6000D01*
D13*
X2150Y5300D02*
X2152Y5243D01*
X2158Y5187D01*
X2167Y5131D01*
X2180Y5075D01*
X2197Y5021D01*
X2217Y4968D01*
X2241Y4917D01*
X2269Y4867D01*
X2299Y4819D01*
X2333Y4773D01*
X2370Y4730D01*
X2409Y4689D01*
X2451Y4651D01*
X2496Y4616D01*
X2543Y4584D01*
X2592Y4555D01*
X2642Y4529D01*
X2695Y4507D01*
X2748Y4488D01*
X2803Y4473D01*
X2859Y4462D01*
X2915Y4454D01*
X2972Y4450D01*
X3028Y4450D01*
X3085Y4454D01*
X3141Y4462D01*
X3197Y4473D01*
X3252Y4488D01*
X3305Y4507D01*
X3358Y4529D01*
X3408Y4555D01*
X3457Y4584D01*
X3504Y4616D01*
X3549Y4651D01*
X3591Y4689D01*
X3630Y4730D01*
X3667Y4773D01*
X3701Y4819D01*
X3731Y4867D01*
X3759Y4917D01*
X3783Y4968D01*
X3803Y5021D01*
X3820Y5075D01*
X3833Y5131D01*
X3842Y5187D01*
X3848Y5243D01*
X3850Y5300D01*
X3850Y7700D02*
X3848Y7757D01*
X3842Y7813D01*
X3833Y7869D01*
X3820Y7925D01*
X3803Y7979D01*
X3783Y8032D01*
X3759Y8083D01*
X3731Y8133D01*
X3701Y8181D01*
X3667Y8227D01*
X3630Y8270D01*
X3591Y8311D01*
X3549Y8349D01*
X3504Y8384D01*
X3457Y8416D01*
X3408Y8445D01*
X3358Y8471D01*
X3305Y8493D01*
X3252Y8512D01*
X3197Y8527D01*
X3141Y8538D01*
X3085Y8546D01*
X3028Y8550D01*
X2972Y8550D01*
X2915Y8546D01*
X2859Y8538D01*
X2803Y8527D01*
X2748Y8512D01*
X2695Y8493D01*
X2642Y8471D01*
X2592Y8445D01*
X2543Y8416D01*
X2496Y8384D01*
X2451Y8349D01*
X2409Y8311D01*
X2370Y8270D01*
X2333Y8227D01*
X2299Y8181D01*
X2269Y8133D01*
X2241Y8083D01*
X2217Y8032D01*
X2197Y7979D01*
X2180Y7925D01*
X2167Y7869D01*
X2158Y7813D01*
X2152Y7757D01*
X2150Y7700D01*
D14*
X2350Y5300D02*
X2352Y5250D01*
X2358Y5201D01*
X2367Y5152D01*
X2380Y5104D01*
X2397Y5057D01*
X2417Y5012D01*
X2441Y4968D01*
X2468Y4926D01*
X2499Y4886D01*
X2532Y4849D01*
X2568Y4815D01*
X2606Y4783D01*
X2647Y4754D01*
X2689Y4729D01*
X2734Y4707D01*
X2780Y4688D01*
X2828Y4673D01*
X2876Y4662D01*
X2925Y4654D01*
X2975Y4650D01*
X3025Y4650D01*
X3075Y4654D01*
X3124Y4662D01*
X3172Y4673D01*
X3220Y4688D01*
X3266Y4707D01*
X3311Y4729D01*
X3353Y4754D01*
X3394Y4783D01*
X3432Y4815D01*
X3468Y4849D01*
X3501Y4886D01*
X3532Y4926D01*
X3559Y4968D01*
X3583Y5012D01*
X3603Y5057D01*
X3620Y5104D01*
X3633Y5152D01*
X3642Y5201D01*
X3648Y5250D01*
X3650Y5300D01*
X3650Y7700D02*
X3648Y7750D01*
X3642Y7799D01*
X3633Y7848D01*
X3620Y7896D01*
X3603Y7943D01*
X3583Y7988D01*
X3559Y8032D01*
X3532Y8074D01*
X3501Y8114D01*
X3468Y8151D01*
X3432Y8185D01*
X3394Y8217D01*
X3353Y8246D01*
X3311Y8271D01*
X3266Y8293D01*
X3220Y8312D01*
X3172Y8327D01*
X3124Y8338D01*
X3075Y8346D01*
X3025Y8350D01*
X2975Y8350D01*
X2925Y8346D01*
X2876Y8338D01*
X2828Y8327D01*
X2780Y8312D01*
X2734Y8293D01*
X2689Y8271D01*
X2647Y8246D01*
X2606Y8217D01*
X2568Y8185D01*
X2532Y8151D01*
X2499Y8114D01*
X2468Y8074D01*
X2441Y8032D01*
X2417Y7988D01*
X2397Y7943D01*
X2380Y7896D01*
X2367Y7848D01*
X2358Y7799D01*
X2352Y7750D01*
X2350Y7700D01*
D13*
X14350Y7700D02*
X14350Y5300D01*
X12650Y5300D02*
X12650Y7700D01*
D14*
X14150Y7700D02*
X14150Y5300D01*
X12850Y5300D02*
X12850Y7700D01*
X13200Y6600D02*
X13200Y6400D01*
X13200Y6600D02*
X13800Y6600D01*
X13800Y6400D01*
X13200Y6400D01*
X13200Y6750D02*
X13500Y6750D01*
X13800Y6750D01*
X13500Y6250D02*
X13200Y6250D01*
X13500Y6250D02*
X13800Y6250D01*
X13500Y6750D02*
X13500Y7000D01*
X13500Y6250D02*
X13500Y6000D01*
D13*
X12650Y5300D02*
X12652Y5243D01*
X12658Y5187D01*
X12667Y5131D01*
X12680Y5075D01*
X12697Y5021D01*
X12717Y4968D01*
X12741Y4917D01*
X12769Y4867D01*
X12799Y4819D01*
X12833Y4773D01*
X12870Y4730D01*
X12909Y4689D01*
X12951Y4651D01*
X12996Y4616D01*
X13043Y4584D01*
X13092Y4555D01*
X13142Y4529D01*
X13195Y4507D01*
X13248Y4488D01*
X13303Y4473D01*
X13359Y4462D01*
X13415Y4454D01*
X13472Y4450D01*
X13528Y4450D01*
X13585Y4454D01*
X13641Y4462D01*
X13697Y4473D01*
X13752Y4488D01*
X13805Y4507D01*
X13858Y4529D01*
X13908Y4555D01*
X13957Y4584D01*
X14004Y4616D01*
X14049Y4651D01*
X14091Y4689D01*
X14130Y4730D01*
X14167Y4773D01*
X14201Y4819D01*
X14231Y4867D01*
X14259Y4917D01*
X14283Y4968D01*
X14303Y5021D01*
X14320Y5075D01*
X14333Y5131D01*
X14342Y5187D01*
X14348Y5243D01*
X14350Y5300D01*
X14350Y7700D02*
X14348Y7757D01*
X14342Y7813D01*
X14333Y7869D01*
X14320Y7925D01*
X14303Y7979D01*
X14283Y8032D01*
X14259Y8083D01*
X14231Y8133D01*
X14201Y8181D01*
X14167Y8227D01*
X14130Y8270D01*
X14091Y8311D01*
X14049Y8349D01*
X14004Y8384D01*
X13957Y8416D01*
X13908Y8445D01*
X13858Y8471D01*
X13805Y8493D01*
X13752Y8512D01*
X13697Y8527D01*
X13641Y8538D01*
X13585Y8546D01*
X13528Y8550D01*
X13472Y8550D01*
X13415Y8546D01*
X13359Y8538D01*
X13303Y8527D01*
X13248Y8512D01*
X13195Y8493D01*
X13142Y8471D01*
X13092Y8445D01*
X13043Y8416D01*
X12996Y8384D01*
X12951Y8349D01*
X12909Y8311D01*
X12870Y8270D01*
X12833Y8227D01*
X12799Y8181D01*
X12769Y8133D01*
X12741Y8083D01*
X12717Y8032D01*
X12697Y7979D01*
X12680Y7925D01*
X12667Y7869D01*
X12658Y7813D01*
X12652Y7757D01*
X12650Y7700D01*
D14*
X12850Y5300D02*
X12852Y5250D01*
X12858Y5201D01*
X12867Y5152D01*
X12880Y5104D01*
X12897Y5057D01*
X12917Y5012D01*
X12941Y4968D01*
X12968Y4926D01*
X12999Y4886D01*
X13032Y4849D01*
X13068Y4815D01*
X13106Y4783D01*
X13147Y4754D01*
X13189Y4729D01*
X13234Y4707D01*
X13280Y4688D01*
X13328Y4673D01*
X13376Y4662D01*
X13425Y4654D01*
X13475Y4650D01*
X13525Y4650D01*
X13575Y4654D01*
X13624Y4662D01*
X13672Y4673D01*
X13720Y4688D01*
X13766Y4707D01*
X13811Y4729D01*
X13853Y4754D01*
X13894Y4783D01*
X13932Y4815D01*
X13968Y4849D01*
X14001Y4886D01*
X14032Y4926D01*
X14059Y4968D01*
X14083Y5012D01*
X14103Y5057D01*
X14120Y5104D01*
X14133Y5152D01*
X14142Y5201D01*
X14148Y5250D01*
X14150Y5300D01*
X14150Y7700D02*
X14148Y7750D01*
X14142Y7799D01*
X14133Y7848D01*
X14120Y7896D01*
X14103Y7943D01*
X14083Y7988D01*
X14059Y8032D01*
X14032Y8074D01*
X14001Y8114D01*
X13968Y8151D01*
X13932Y8185D01*
X13894Y8217D01*
X13853Y8246D01*
X13811Y8271D01*
X13766Y8293D01*
X13720Y8312D01*
X13672Y8327D01*
X13624Y8338D01*
X13575Y8346D01*
X13525Y8350D01*
X13475Y8350D01*
X13425Y8346D01*
X13376Y8338D01*
X13328Y8327D01*
X13280Y8312D01*
X13234Y8293D01*
X13189Y8271D01*
X13147Y8246D01*
X13106Y8217D01*
X13068Y8185D01*
X13032Y8151D01*
X12999Y8114D01*
X12968Y8074D01*
X12941Y8032D01*
X12917Y7988D01*
X12897Y7943D01*
X12880Y7896D01*
X12867Y7848D01*
X12858Y7799D01*
X12852Y7750D01*
X12850Y7700D01*
X24250Y2500D02*
X24750Y2500D01*
X25000Y2250D01*
X25000Y1750D02*
X24750Y1500D01*
X25000Y2250D02*
X25250Y2500D01*
X25750Y2500D01*
X26000Y2250D01*
X26000Y1750D02*
X25750Y1500D01*
X25500Y1500D01*
X25250Y1500D01*
X25000Y1750D01*
X24000Y1750D02*
X24000Y2250D01*
X24250Y2500D01*
X24000Y1750D02*
X24250Y1500D01*
X24750Y1500D01*
X26000Y2250D02*
X26250Y2500D01*
X26750Y2500D01*
X27000Y2250D01*
X27000Y1750D02*
X26750Y1500D01*
X26250Y1500D01*
X26000Y1750D01*
X27000Y1750D02*
X27000Y2250D01*
D15*
X27025Y2125D02*
X27150Y2225D01*
X27150Y1775D01*
X27025Y1775D02*
X27275Y1775D01*
X27550Y1500D02*
X25500Y1500D01*
X27550Y1500D02*
X27550Y8500D01*
X23450Y8500D01*
X23450Y1500D01*
X25500Y1500D01*
D11*
X26020Y3571D02*
X26480Y3571D01*
X26480Y3520D02*
X26480Y3622D01*
X26020Y3622D02*
X26020Y3520D01*
X26020Y3818D02*
X26480Y3818D01*
X26480Y4074D02*
X26020Y3818D01*
X26020Y4074D02*
X26480Y4074D01*
X24352Y3520D02*
X24148Y3520D01*
X24127Y3522D01*
X24106Y3527D01*
X24087Y3535D01*
X24069Y3547D01*
X24054Y3561D01*
X24041Y3578D01*
X24031Y3597D01*
X24024Y3617D01*
X24020Y3637D01*
X24020Y3659D01*
X24024Y3679D01*
X24031Y3699D01*
X24041Y3718D01*
X24054Y3735D01*
X24069Y3749D01*
X24087Y3761D01*
X24106Y3769D01*
X24127Y3774D01*
X24148Y3776D01*
X24352Y3776D01*
X24373Y3774D01*
X24394Y3769D01*
X24413Y3761D01*
X24431Y3749D01*
X24446Y3735D01*
X24459Y3718D01*
X24469Y3699D01*
X24476Y3679D01*
X24480Y3659D01*
X24480Y3637D01*
X24476Y3617D01*
X24469Y3597D01*
X24459Y3578D01*
X24446Y3561D01*
X24431Y3547D01*
X24413Y3535D01*
X24394Y3527D01*
X24373Y3522D01*
X24352Y3520D01*
X24352Y3985D02*
X24020Y3985D01*
X24352Y3985D02*
X24373Y3987D01*
X24394Y3992D01*
X24413Y4000D01*
X24431Y4012D01*
X24446Y4026D01*
X24459Y4043D01*
X24469Y4062D01*
X24476Y4082D01*
X24480Y4102D01*
X24480Y4124D01*
X24476Y4144D01*
X24469Y4164D01*
X24459Y4183D01*
X24446Y4200D01*
X24431Y4214D01*
X24413Y4226D01*
X24394Y4234D01*
X24373Y4239D01*
X24352Y4241D01*
X24020Y4241D01*
X24020Y4548D02*
X24480Y4548D01*
X24020Y4420D02*
X24020Y4676D01*
X25224Y3776D02*
X25224Y3699D01*
X25224Y3776D02*
X25480Y3776D01*
X25480Y3622D01*
X25478Y3604D01*
X25474Y3587D01*
X25466Y3571D01*
X25456Y3556D01*
X25444Y3544D01*
X25429Y3534D01*
X25413Y3526D01*
X25396Y3522D01*
X25378Y3520D01*
X25122Y3520D01*
X25102Y3522D01*
X25083Y3528D01*
X25065Y3537D01*
X25050Y3550D01*
X25037Y3565D01*
X25028Y3583D01*
X25022Y3602D01*
X25020Y3622D01*
X25020Y3776D01*
X25020Y4000D02*
X25480Y4000D01*
X25480Y4256D02*
X25020Y4000D01*
X25020Y4256D02*
X25480Y4256D01*
X25480Y4480D02*
X25020Y4480D01*
X25020Y4608D01*
X25022Y4628D01*
X25026Y4648D01*
X25034Y4666D01*
X25044Y4683D01*
X25057Y4699D01*
X25073Y4712D01*
X25090Y4722D01*
X25108Y4730D01*
X25128Y4734D01*
X25148Y4736D01*
X25352Y4736D01*
X25372Y4734D01*
X25392Y4730D01*
X25410Y4722D01*
X25427Y4712D01*
X25443Y4699D01*
X25456Y4683D01*
X25466Y4666D01*
X25474Y4648D01*
X25478Y4628D01*
X25480Y4608D01*
X25480Y4480D01*
D16*
X9750Y3000D02*
X9750Y1000D01*
X9750Y3000D02*
X10500Y3000D01*
X12250Y3000D01*
X12250Y1000D01*
X10500Y1000D01*
X9750Y1000D01*
X10500Y1000D02*
X10500Y3000D01*
X11750Y4500D02*
X11750Y8500D01*
X11750Y4500D02*
X11000Y4500D01*
X9250Y4500D01*
X9250Y8500D01*
X11000Y8500D01*
X11750Y8500D01*
X11000Y8500D02*
X11000Y4500D01*
X20250Y3000D02*
X20250Y1000D01*
X20250Y3000D02*
X21000Y3000D01*
X22750Y3000D01*
X22750Y1000D01*
X21000Y1000D01*
X20250Y1000D01*
X21000Y1000D02*
X21000Y3000D01*
X16750Y3000D02*
X16750Y1000D01*
X16750Y3000D02*
X17500Y3000D01*
X19250Y3000D01*
X19250Y1000D01*
X17500Y1000D01*
X16750Y1000D01*
X17500Y1000D02*
X17500Y3000D01*
X13250Y3000D02*
X13250Y1000D01*
X13250Y3000D02*
X14000Y3000D01*
X15750Y3000D01*
X15750Y1000D01*
X14000Y1000D01*
X13250Y1000D01*
X14000Y1000D02*
X14000Y3000D01*
X22750Y4500D02*
X22750Y8500D01*
X22750Y4500D02*
X22000Y4500D01*
X20250Y4500D01*
X20250Y8500D01*
X22000Y8500D01*
X22750Y8500D01*
X22000Y8500D02*
X22000Y4500D01*
X9000Y3250D02*
X2000Y3250D01*
X9000Y3250D02*
X9000Y2500D01*
X9000Y750D01*
X2000Y750D01*
X2000Y2500D01*
X2000Y3250D01*
X2000Y2500D02*
X9000Y2500D01*
M02*
