M48
;GenerationSoftware,Autodesk,EAGLE,9.1.0*%
;CreationDate,2018-07-07T04:41:46Z*%
FMAT,2
ICI,OFF
INCH,TZ,000.000
T5C0.014
T4C0.032
T3C0.039
T2C0.040
T1C0.130
%
G90
M72
T1
X100Y875
X100Y100
X2850Y875
X2850Y100
T2
X2650Y200
X2450Y200
X2550Y200
T3
X1050Y600
X250Y200
X350Y200
X450Y200
X550Y200
X650Y200
X750Y200
X1100Y150
X1100Y250
X1050Y800
X1050Y700
X850Y200
X1050Y500
X2150Y150
X2150Y250
X1800Y150
X1800Y250
X1450Y150
X1450Y250
X2150Y800
X2150Y700
X2150Y600
X2150Y500
T4
X300Y555
X300Y745
X1350Y555
X1350Y745
T5
X1550Y700
X1750Y800
X500Y700
M30