G04 EAGLE Gerber X2 export*
%TF.Part,Single*%
%TF.FileFunction,Other,Solder stop mask SOL*%
%TF.FilePolarity,Positive*%
%TF.GenerationSoftware,Autodesk,EAGLE,9.1.0*%
%TF.CreationDate,2018-07-07T04:41:33Z*%
G75*
%MOIN*%
%FSLAX34Y34*%
%LPD*%
%AMOC8*
5,1,8,0,0,1.08239X$1,22.5*%
G01*
%ADD10C,0.138000*%
%ADD11R,0.070992X0.078866*%
%ADD12C,0.060000*%
%ADD13R,0.070992X0.078984*%
%ADD14R,0.078984X0.070992*%
%ADD15C,0.068000*%
%ADD16C,0.067370*%
%ADD17C,0.037780*%


D10*
X1000Y8750D03*
X1000Y1000D03*
X28500Y8750D03*
X28500Y1000D03*
D11*
X3551Y8500D03*
X2449Y8500D03*
X3551Y4500D03*
X2449Y4500D03*
X14051Y8500D03*
X12949Y8500D03*
X14051Y4500D03*
X12949Y4500D03*
D12*
X3000Y5550D03*
X3000Y7450D03*
X13500Y5550D03*
X13500Y7450D03*
D13*
X6940Y6000D03*
X8060Y6000D03*
X6940Y4500D03*
X8060Y4500D03*
D14*
X2000Y7060D03*
X2000Y5940D03*
D13*
X16940Y7000D03*
X18060Y7000D03*
X16940Y5500D03*
X18060Y5500D03*
D14*
X12500Y7060D03*
X12500Y5940D03*
D15*
X24500Y2300D02*
X24500Y1700D01*
X25500Y1700D02*
X25500Y2300D01*
X26500Y2300D02*
X26500Y1700D01*
D16*
X11297Y1500D02*
X10703Y1500D01*
X10703Y2500D02*
X11297Y2500D01*
X10797Y8000D02*
X10203Y8000D01*
X10203Y7000D02*
X10797Y7000D01*
X10797Y6000D02*
X10203Y6000D01*
X10203Y5000D02*
X10797Y5000D01*
X21203Y1500D02*
X21797Y1500D01*
X21797Y2500D02*
X21203Y2500D01*
X18297Y1500D02*
X17703Y1500D01*
X17703Y2500D02*
X18297Y2500D01*
X14797Y1500D02*
X14203Y1500D01*
X14203Y2500D02*
X14797Y2500D01*
X21203Y8000D02*
X21797Y8000D01*
X21797Y7000D02*
X21203Y7000D01*
X21203Y6000D02*
X21797Y6000D01*
X21797Y5000D02*
X21203Y5000D01*
X2500Y2297D02*
X2500Y1703D01*
X3500Y1703D02*
X3500Y2297D01*
X4500Y2297D02*
X4500Y1703D01*
X5500Y1703D02*
X5500Y2297D01*
X6500Y2297D02*
X6500Y1703D01*
X7500Y1703D02*
X7500Y2297D01*
X8500Y2297D02*
X8500Y1703D01*
D11*
X6949Y7500D03*
X8051Y7500D03*
X18949Y8500D03*
X20051Y8500D03*
D17*
X5000Y7000D03*
X15500Y7000D03*
X17500Y8000D03*
M02*
