G04 EAGLE Gerber X2 export*
%TF.Part,Single*%
%TF.FileFunction,Other,Solder side*%
%TF.FilePolarity,Positive*%
%TF.GenerationSoftware,Autodesk,EAGLE,9.1.0*%
%TF.CreationDate,2018-07-07T04:41:33Z*%
G75*
%MOIN*%
%FSLAX34Y34*%
%LPD*%
%AMOC8*
5,1,8,0,0,1.08239X$1,22.5*%
G01*
%ADD10R,0.062992X0.070866*%
%ADD11C,0.052000*%
%ADD12R,0.062992X0.070984*%
%ADD13R,0.070984X0.062992*%
%ADD14C,0.060000*%
%ADD15C,0.059370*%
%ADD16C,0.029780*%
%ADD17C,0.020000*%
%ADD18C,0.010000*%
%ADD19C,0.050000*%

G36*
X27501Y471D02*
X27501Y471D01*
X27502Y471D01*
X27506Y472D01*
X27509Y472D01*
X27510Y473D01*
X27511Y473D01*
X27515Y475D01*
X27518Y477D01*
X27519Y478D01*
X27522Y481D01*
X27524Y484D01*
X27525Y485D01*
X27525Y486D01*
X27527Y489D01*
X27528Y493D01*
X27528Y494D01*
X27529Y495D01*
X27529Y500D01*
X27529Y572D01*
X27528Y577D01*
X27528Y581D01*
X27528Y582D01*
X27525Y587D01*
X27521Y594D01*
X27449Y862D01*
X27449Y1138D01*
X27464Y1195D01*
X27472Y1224D01*
X27496Y1312D01*
X27504Y1341D01*
X27521Y1406D01*
X27525Y1413D01*
X27525Y1414D01*
X27527Y1418D01*
X27529Y1422D01*
X27529Y1423D01*
X27529Y1428D01*
X27529Y8322D01*
X27528Y8327D01*
X27528Y8331D01*
X27528Y8332D01*
X27525Y8337D01*
X27521Y8344D01*
X27449Y8612D01*
X27449Y8888D01*
X27465Y8946D01*
X27472Y8975D01*
X27477Y8992D01*
X27477Y8993D01*
X27478Y8997D01*
X27478Y9002D01*
X27477Y9007D01*
X27476Y9011D01*
X27473Y9015D01*
X27471Y9019D01*
X27467Y9022D01*
X27463Y9025D01*
X27459Y9027D01*
X27454Y9029D01*
X27449Y9029D01*
X2051Y9029D01*
X2046Y9028D01*
X2042Y9028D01*
X2038Y9025D01*
X2033Y9023D01*
X2030Y9020D01*
X2027Y9016D01*
X2025Y9012D01*
X2023Y9007D01*
X2022Y9003D01*
X2022Y8998D01*
X2023Y8992D01*
X2044Y8913D01*
X2046Y8909D01*
X2047Y8905D01*
X2048Y8905D01*
X2048Y8904D01*
X2051Y8901D01*
X2053Y8898D01*
X2054Y8898D01*
X2055Y8897D01*
X2058Y8895D01*
X2061Y8893D01*
X2062Y8893D01*
X2063Y8892D01*
X2067Y8892D01*
X2071Y8891D01*
X2072Y8891D01*
X2073Y8891D01*
X2076Y8892D01*
X2080Y8892D01*
X2081Y8892D01*
X2082Y8893D01*
X2085Y8894D01*
X2089Y8896D01*
X2090Y8897D01*
X2091Y8898D01*
X2093Y8900D01*
X2109Y8915D01*
X2789Y8915D01*
X2825Y8879D01*
X2825Y8364D01*
X2825Y8360D01*
X2826Y8356D01*
X2826Y8355D01*
X2826Y8354D01*
X2828Y8351D01*
X2830Y8347D01*
X2830Y8346D01*
X2831Y8346D01*
X2831Y8345D01*
X2833Y8343D01*
X3058Y8118D01*
X3092Y8084D01*
X3093Y8083D01*
X3095Y8082D01*
X3097Y8080D01*
X3100Y8079D01*
X3102Y8078D01*
X3103Y8077D01*
X3106Y8077D01*
X3109Y8076D01*
X3111Y8076D01*
X3113Y8076D01*
X3115Y8076D01*
X3118Y8076D01*
X3120Y8077D01*
X3122Y8077D01*
X3125Y8079D01*
X3127Y8080D01*
X3129Y8081D01*
X3131Y8082D01*
X3132Y8084D01*
X3135Y8086D01*
X3136Y8088D01*
X3137Y8089D01*
X3138Y8092D01*
X3140Y8094D01*
X3140Y8096D01*
X3141Y8098D01*
X3141Y8101D01*
X3142Y8103D01*
X3142Y8105D01*
X3142Y8107D01*
X3141Y8113D01*
X3135Y8132D01*
X3135Y8441D01*
X3492Y8441D01*
X3492Y8045D01*
X3223Y8045D01*
X3198Y8052D01*
X3197Y8052D01*
X3193Y8052D01*
X3188Y8053D01*
X3183Y8052D01*
X3179Y8050D01*
X3175Y8048D01*
X3171Y8045D01*
X3168Y8042D01*
X3165Y8038D01*
X3163Y8033D01*
X3161Y8029D01*
X3161Y8023D01*
X3161Y7750D01*
X3162Y7745D01*
X3162Y7741D01*
X3162Y7740D01*
X3165Y7736D01*
X3167Y7732D01*
X3170Y7729D01*
X3174Y7726D01*
X3179Y7723D01*
X3182Y7722D01*
X3272Y7632D01*
X3321Y7514D01*
X3321Y7386D01*
X3272Y7268D01*
X3182Y7178D01*
X3064Y7129D01*
X2936Y7129D01*
X2933Y7130D01*
X2933Y7131D01*
X2929Y7132D01*
X2924Y7133D01*
X2919Y7132D01*
X2914Y7132D01*
X2910Y7130D01*
X2906Y7128D01*
X2901Y7124D01*
X2676Y6899D01*
X2445Y6899D01*
X2444Y6899D01*
X2443Y6899D01*
X2439Y6898D01*
X2435Y6898D01*
X2435Y6897D01*
X2434Y6897D01*
X2430Y6895D01*
X2427Y6893D01*
X2426Y6892D01*
X2425Y6892D01*
X2423Y6889D01*
X2421Y6886D01*
X2420Y6885D01*
X2419Y6884D01*
X2418Y6881D01*
X2417Y6877D01*
X2417Y6876D01*
X2416Y6875D01*
X2416Y6870D01*
X2416Y6720D01*
X2380Y6684D01*
X1620Y6684D01*
X1584Y6720D01*
X1584Y7400D01*
X1620Y7436D01*
X2380Y7436D01*
X2416Y7400D01*
X2416Y7250D01*
X2416Y7249D01*
X2416Y7248D01*
X2417Y7244D01*
X2417Y7240D01*
X2418Y7239D01*
X2418Y7238D01*
X2420Y7235D01*
X2422Y7232D01*
X2423Y7231D01*
X2423Y7230D01*
X2426Y7228D01*
X2429Y7225D01*
X2430Y7225D01*
X2431Y7224D01*
X2434Y7223D01*
X2437Y7222D01*
X2439Y7221D01*
X2440Y7221D01*
X2445Y7221D01*
X2531Y7221D01*
X2535Y7221D01*
X2539Y7222D01*
X2540Y7222D01*
X2541Y7222D01*
X2544Y7224D01*
X2548Y7226D01*
X2549Y7226D01*
X2549Y7227D01*
X2550Y7227D01*
X2552Y7229D01*
X2674Y7351D01*
X2674Y7352D01*
X2677Y7355D01*
X2680Y7359D01*
X2681Y7364D01*
X2682Y7368D01*
X2682Y7369D01*
X2682Y7373D01*
X2682Y7378D01*
X2680Y7383D01*
X2679Y7386D01*
X2679Y7514D01*
X2728Y7632D01*
X2818Y7722D01*
X2821Y7723D01*
X2825Y7726D01*
X2829Y7728D01*
X2832Y7732D01*
X2835Y7736D01*
X2837Y7740D01*
X2839Y7745D01*
X2839Y7750D01*
X2839Y7870D01*
X2839Y7874D01*
X2838Y7878D01*
X2838Y7879D01*
X2838Y7880D01*
X2836Y7883D01*
X2834Y7887D01*
X2833Y7888D01*
X2833Y7889D01*
X2831Y7890D01*
X2831Y7891D01*
X2645Y8076D01*
X2642Y8079D01*
X2639Y8081D01*
X2638Y8081D01*
X2637Y8082D01*
X2634Y8083D01*
X2630Y8084D01*
X2629Y8085D01*
X2628Y8085D01*
X2627Y8085D01*
X2624Y8085D01*
X2109Y8085D01*
X2073Y8121D01*
X2073Y8473D01*
X2073Y8474D01*
X2073Y8475D01*
X2072Y8479D01*
X2072Y8482D01*
X2071Y8483D01*
X2071Y8484D01*
X2069Y8487D01*
X2067Y8491D01*
X2066Y8491D01*
X2066Y8492D01*
X2063Y8495D01*
X2060Y8497D01*
X2059Y8498D01*
X2058Y8498D01*
X2055Y8500D01*
X2051Y8501D01*
X2050Y8501D01*
X2049Y8502D01*
X2046Y8502D01*
X2042Y8502D01*
X2041Y8502D01*
X2040Y8502D01*
X2036Y8501D01*
X2032Y8500D01*
X2032Y8499D01*
X2031Y8499D01*
X2028Y8497D01*
X2024Y8495D01*
X2024Y8494D01*
X2023Y8493D01*
X2021Y8490D01*
X2018Y8487D01*
X2018Y8486D01*
X2017Y8486D01*
X2016Y8481D01*
X2011Y8463D01*
X2003Y8434D01*
X1979Y8344D01*
X1841Y8105D01*
X1645Y7909D01*
X1485Y7817D01*
X1483Y7815D01*
X1481Y7813D01*
X1479Y7812D01*
X1478Y7811D01*
X1476Y7808D01*
X1475Y7806D01*
X1474Y7804D01*
X1473Y7803D01*
X1472Y7800D01*
X1471Y7797D01*
X1471Y7794D01*
X1471Y7793D01*
X1471Y7792D01*
X1471Y1958D01*
X1471Y1955D01*
X1471Y1952D01*
X1472Y1951D01*
X1472Y1949D01*
X1474Y1946D01*
X1475Y1944D01*
X1476Y1942D01*
X1477Y1941D01*
X1479Y1938D01*
X1481Y1936D01*
X1483Y1935D01*
X1484Y1934D01*
X1485Y1933D01*
X1645Y1841D01*
X1841Y1645D01*
X1979Y1406D01*
X2051Y1138D01*
X2051Y862D01*
X2026Y771D01*
X2019Y741D01*
X1995Y654D01*
X1987Y624D01*
X1979Y594D01*
X1933Y515D01*
X1932Y511D01*
X1930Y507D01*
X1930Y506D01*
X1930Y502D01*
X1929Y498D01*
X1929Y497D01*
X1929Y496D01*
X1931Y492D01*
X1931Y489D01*
X1932Y488D01*
X1932Y487D01*
X1935Y484D01*
X1937Y481D01*
X1937Y480D01*
X1938Y479D01*
X1941Y477D01*
X1944Y475D01*
X1945Y474D01*
X1946Y474D01*
X1949Y473D01*
X1953Y471D01*
X1954Y471D01*
X1955Y471D01*
X1956Y471D01*
X1958Y471D01*
X27500Y471D01*
X27501Y471D01*
G37*
%LPC*%
G36*
X3429Y1346D02*
X3429Y1346D01*
X3297Y1400D01*
X3197Y1501D01*
X3142Y1632D01*
X3142Y2368D01*
X3187Y2476D01*
X3188Y2479D01*
X3189Y2482D01*
X3189Y2484D01*
X3189Y2485D01*
X3189Y2486D01*
X3189Y2487D01*
X3189Y2717D01*
X3237Y2831D01*
X5169Y4763D01*
X5283Y4811D01*
X6535Y4811D01*
X6536Y4811D01*
X6537Y4811D01*
X6541Y4812D01*
X6545Y4812D01*
X6546Y4813D01*
X6547Y4813D01*
X6550Y4815D01*
X6553Y4817D01*
X6554Y4818D01*
X6555Y4818D01*
X6557Y4821D01*
X6560Y4824D01*
X6560Y4825D01*
X6561Y4826D01*
X6562Y4829D01*
X6563Y4833D01*
X6564Y4834D01*
X6564Y4835D01*
X6564Y4840D01*
X6564Y4880D01*
X6600Y4916D01*
X6601Y4916D01*
X6602Y4916D01*
X6606Y4917D01*
X6610Y4917D01*
X6611Y4918D01*
X6612Y4918D01*
X6615Y4920D01*
X6618Y4922D01*
X6619Y4923D01*
X6620Y4923D01*
X6622Y4926D01*
X6625Y4929D01*
X6625Y4930D01*
X6626Y4931D01*
X6627Y4934D01*
X6628Y4937D01*
X6629Y4939D01*
X6629Y4940D01*
X6629Y4945D01*
X6629Y5555D01*
X6629Y5556D01*
X6629Y5557D01*
X6628Y5561D01*
X6628Y5565D01*
X6627Y5565D01*
X6627Y5566D01*
X6625Y5570D01*
X6623Y5573D01*
X6623Y5574D01*
X6622Y5575D01*
X6619Y5577D01*
X6616Y5579D01*
X6615Y5580D01*
X6615Y5581D01*
X6611Y5582D01*
X6608Y5583D01*
X6607Y5583D01*
X6606Y5584D01*
X6600Y5584D01*
X6564Y5620D01*
X6564Y6380D01*
X6600Y6416D01*
X6601Y6416D01*
X6602Y6416D01*
X6606Y6417D01*
X6610Y6417D01*
X6611Y6418D01*
X6612Y6418D01*
X6615Y6420D01*
X6618Y6422D01*
X6619Y6423D01*
X6620Y6423D01*
X6622Y6426D01*
X6625Y6429D01*
X6625Y6430D01*
X6626Y6431D01*
X6627Y6434D01*
X6628Y6437D01*
X6629Y6439D01*
X6629Y6440D01*
X6629Y6445D01*
X6629Y7056D01*
X6629Y7057D01*
X6629Y7058D01*
X6628Y7061D01*
X6628Y7065D01*
X6627Y7066D01*
X6627Y7067D01*
X6625Y7070D01*
X6623Y7074D01*
X6622Y7075D01*
X6619Y7077D01*
X6616Y7080D01*
X6615Y7080D01*
X6615Y7081D01*
X6611Y7082D01*
X6573Y7121D01*
X6573Y7879D01*
X6609Y7915D01*
X7289Y7915D01*
X7325Y7879D01*
X7325Y7121D01*
X7289Y7085D01*
X7280Y7085D01*
X7279Y7085D01*
X7278Y7085D01*
X7274Y7084D01*
X7271Y7083D01*
X7270Y7083D01*
X7269Y7083D01*
X7266Y7081D01*
X7262Y7079D01*
X7262Y7078D01*
X7261Y7077D01*
X7258Y7075D01*
X7256Y7072D01*
X7255Y7071D01*
X7255Y7070D01*
X7253Y7067D01*
X7252Y7063D01*
X7252Y7062D01*
X7251Y7061D01*
X7251Y7056D01*
X7251Y6821D01*
X7251Y6818D01*
X7251Y6815D01*
X7252Y6813D01*
X7252Y6811D01*
X7254Y6809D01*
X7255Y6806D01*
X7256Y6805D01*
X7257Y6803D01*
X7259Y6801D01*
X7261Y6799D01*
X7263Y6798D01*
X7264Y6796D01*
X7267Y6795D01*
X7269Y6794D01*
X7271Y6793D01*
X7273Y6793D01*
X7276Y6792D01*
X7279Y6792D01*
X7280Y6792D01*
X7282Y6792D01*
X7285Y6792D01*
X7288Y6793D01*
X7290Y6793D01*
X7292Y6794D01*
X7294Y6795D01*
X7297Y6797D01*
X7299Y6799D01*
X7300Y6799D01*
X7301Y6800D01*
X7508Y7008D01*
X7600Y7099D01*
X7617Y7106D01*
X7618Y7106D01*
X7622Y7109D01*
X7626Y7111D01*
X7626Y7112D01*
X7629Y7115D01*
X7632Y7119D01*
X7633Y7123D01*
X7635Y7128D01*
X7635Y7133D01*
X7635Y7441D01*
X8021Y7441D01*
X8022Y7441D01*
X8023Y7441D01*
X8027Y7442D01*
X8031Y7442D01*
X8032Y7443D01*
X8033Y7443D01*
X8036Y7445D01*
X8039Y7447D01*
X8040Y7448D01*
X8041Y7448D01*
X8043Y7451D01*
X8046Y7454D01*
X8046Y7455D01*
X8047Y7456D01*
X8048Y7459D01*
X8049Y7463D01*
X8050Y7464D01*
X8050Y7465D01*
X8050Y7470D01*
X8050Y7501D01*
X8052Y7501D01*
X8052Y7470D01*
X8052Y7469D01*
X8052Y7468D01*
X8053Y7464D01*
X8053Y7461D01*
X8054Y7460D01*
X8054Y7459D01*
X8056Y7455D01*
X8058Y7452D01*
X8059Y7451D01*
X8062Y7448D01*
X8065Y7446D01*
X8066Y7445D01*
X8067Y7445D01*
X8070Y7443D01*
X8074Y7442D01*
X8075Y7442D01*
X8076Y7441D01*
X8081Y7441D01*
X8467Y7441D01*
X8467Y7301D01*
X8467Y7299D01*
X8467Y7297D01*
X8468Y7294D01*
X8468Y7291D01*
X8469Y7289D01*
X8470Y7288D01*
X8472Y7285D01*
X8473Y7283D01*
X8474Y7281D01*
X8476Y7280D01*
X8478Y7278D01*
X8480Y7276D01*
X8482Y7275D01*
X8483Y7274D01*
X8486Y7273D01*
X8489Y7272D01*
X8491Y7272D01*
X8493Y7272D01*
X8495Y7272D01*
X8498Y7271D01*
X8500Y7272D01*
X8502Y7272D01*
X8507Y7274D01*
X8597Y7311D01*
X10013Y7311D01*
X10016Y7311D01*
X10019Y7311D01*
X10022Y7312D01*
X10023Y7312D01*
X10023Y7313D01*
X10024Y7313D01*
X10132Y7358D01*
X10868Y7358D01*
X10999Y7303D01*
X11100Y7203D01*
X11154Y7071D01*
X11154Y6929D01*
X11100Y6797D01*
X10999Y6697D01*
X10868Y6642D01*
X10132Y6642D01*
X10024Y6687D01*
X10021Y6688D01*
X10018Y6689D01*
X10016Y6689D01*
X10015Y6689D01*
X10014Y6689D01*
X10013Y6689D01*
X8800Y6689D01*
X8796Y6689D01*
X8792Y6688D01*
X8791Y6688D01*
X8790Y6688D01*
X8787Y6686D01*
X8783Y6684D01*
X8782Y6683D01*
X8781Y6683D01*
X8779Y6681D01*
X8671Y6572D01*
X8556Y6525D01*
X7917Y6525D01*
X7913Y6524D01*
X7909Y6524D01*
X7908Y6523D01*
X7907Y6523D01*
X7904Y6521D01*
X7900Y6520D01*
X7899Y6519D01*
X7898Y6518D01*
X7896Y6516D01*
X7845Y6466D01*
X7844Y6463D01*
X7842Y6461D01*
X7841Y6459D01*
X7840Y6458D01*
X7839Y6455D01*
X7838Y6452D01*
X7837Y6450D01*
X7837Y6449D01*
X7837Y6446D01*
X7837Y6443D01*
X7837Y6441D01*
X7837Y6439D01*
X7838Y6436D01*
X7839Y6434D01*
X7840Y6432D01*
X7841Y6430D01*
X7843Y6428D01*
X7844Y6425D01*
X7846Y6424D01*
X7847Y6423D01*
X7849Y6421D01*
X7852Y6419D01*
X7853Y6419D01*
X7855Y6418D01*
X7858Y6417D01*
X7861Y6416D01*
X7863Y6416D01*
X7864Y6416D01*
X7865Y6416D01*
X7866Y6416D01*
X8400Y6416D01*
X8436Y6380D01*
X8436Y6140D01*
X8436Y6139D01*
X8436Y6138D01*
X8437Y6134D01*
X8437Y6131D01*
X8438Y6130D01*
X8438Y6129D01*
X8440Y6125D01*
X8442Y6122D01*
X8442Y6121D01*
X8443Y6121D01*
X8446Y6118D01*
X8449Y6116D01*
X8450Y6115D01*
X8454Y6113D01*
X8457Y6112D01*
X8458Y6112D01*
X8459Y6111D01*
X8465Y6111D01*
X9842Y6111D01*
X9843Y6111D01*
X9847Y6112D01*
X9852Y6112D01*
X9856Y6115D01*
X9860Y6117D01*
X9864Y6120D01*
X9867Y6124D01*
X9869Y6129D01*
X9900Y6203D01*
X10001Y6303D01*
X10132Y6358D01*
X10868Y6358D01*
X10999Y6303D01*
X11100Y6203D01*
X11154Y6071D01*
X11154Y5929D01*
X11100Y5797D01*
X10999Y5697D01*
X10868Y5642D01*
X10132Y5642D01*
X10001Y5697D01*
X9900Y5797D01*
X9869Y5871D01*
X9867Y5875D01*
X9864Y5879D01*
X9861Y5882D01*
X9857Y5885D01*
X9852Y5887D01*
X9848Y5889D01*
X9842Y5889D01*
X8465Y5889D01*
X8464Y5889D01*
X8463Y5889D01*
X8459Y5888D01*
X8455Y5888D01*
X8454Y5887D01*
X8453Y5887D01*
X8450Y5885D01*
X8447Y5883D01*
X8446Y5882D01*
X8445Y5882D01*
X8443Y5879D01*
X8440Y5876D01*
X8440Y5875D01*
X8439Y5874D01*
X8438Y5871D01*
X8437Y5867D01*
X8436Y5866D01*
X8436Y5865D01*
X8436Y5860D01*
X8436Y5620D01*
X8400Y5584D01*
X7720Y5584D01*
X7684Y5620D01*
X7684Y6234D01*
X7684Y6235D01*
X7684Y6236D01*
X7684Y6237D01*
X7684Y6240D01*
X7683Y6241D01*
X7683Y6243D01*
X7681Y6246D01*
X7680Y6249D01*
X7679Y6250D01*
X7678Y6252D01*
X7676Y6254D01*
X7674Y6256D01*
X7672Y6257D01*
X7671Y6258D01*
X7668Y6259D01*
X7666Y6261D01*
X7664Y6261D01*
X7662Y6262D01*
X7659Y6262D01*
X7657Y6263D01*
X7655Y6263D01*
X7653Y6263D01*
X7650Y6262D01*
X7647Y6262D01*
X7645Y6261D01*
X7643Y6261D01*
X7641Y6259D01*
X7638Y6258D01*
X7636Y6256D01*
X7635Y6256D01*
X7635Y6255D01*
X7634Y6255D01*
X7324Y5945D01*
X7322Y5942D01*
X7320Y5938D01*
X7319Y5938D01*
X7319Y5937D01*
X7318Y5933D01*
X7316Y5930D01*
X7316Y5928D01*
X7316Y5927D01*
X7316Y5924D01*
X7316Y5620D01*
X7280Y5584D01*
X7279Y5584D01*
X7278Y5584D01*
X7274Y5583D01*
X7271Y5583D01*
X7270Y5582D01*
X7269Y5582D01*
X7266Y5580D01*
X7262Y5578D01*
X7262Y5577D01*
X7261Y5577D01*
X7258Y5574D01*
X7256Y5571D01*
X7255Y5570D01*
X7255Y5569D01*
X7253Y5566D01*
X7252Y5563D01*
X7252Y5561D01*
X7251Y5560D01*
X7251Y5555D01*
X7251Y4945D01*
X7251Y4944D01*
X7251Y4943D01*
X7252Y4939D01*
X7252Y4935D01*
X7253Y4935D01*
X7253Y4934D01*
X7255Y4930D01*
X7257Y4927D01*
X7258Y4926D01*
X7258Y4925D01*
X7261Y4923D01*
X7264Y4921D01*
X7265Y4920D01*
X7266Y4919D01*
X7269Y4918D01*
X7273Y4917D01*
X7274Y4917D01*
X7275Y4916D01*
X7280Y4916D01*
X7316Y4880D01*
X7316Y4120D01*
X7280Y4084D01*
X6600Y4084D01*
X6564Y4120D01*
X6564Y4160D01*
X6564Y4161D01*
X6564Y4162D01*
X6563Y4166D01*
X6563Y4169D01*
X6562Y4170D01*
X6562Y4171D01*
X6560Y4175D01*
X6558Y4178D01*
X6558Y4179D01*
X6557Y4179D01*
X6554Y4182D01*
X6551Y4184D01*
X6550Y4185D01*
X6546Y4187D01*
X6543Y4188D01*
X6542Y4188D01*
X6541Y4189D01*
X6535Y4189D01*
X5486Y4189D01*
X5482Y4189D01*
X5478Y4188D01*
X5477Y4188D01*
X5476Y4188D01*
X5473Y4186D01*
X5469Y4184D01*
X5468Y4183D01*
X5467Y4183D01*
X5465Y4181D01*
X3819Y2535D01*
X3817Y2532D01*
X3815Y2529D01*
X3814Y2528D01*
X3814Y2527D01*
X3813Y2523D01*
X3811Y2520D01*
X3811Y2518D01*
X3811Y2517D01*
X3811Y2514D01*
X3811Y2487D01*
X3811Y2484D01*
X3811Y2481D01*
X3812Y2478D01*
X3812Y2477D01*
X3813Y2477D01*
X3813Y2476D01*
X3858Y2368D01*
X3858Y1632D01*
X3803Y1501D01*
X3703Y1400D01*
X3571Y1346D01*
X3429Y1346D01*
G37*
%LPD*%
%LPC*%
G36*
X16600Y5084D02*
X16600Y5084D01*
X16564Y5120D01*
X16564Y5880D01*
X16600Y5916D01*
X16800Y5916D01*
X16801Y5916D01*
X16802Y5916D01*
X16806Y5917D01*
X16810Y5917D01*
X16811Y5918D01*
X16812Y5918D01*
X16815Y5920D01*
X16818Y5922D01*
X16819Y5923D01*
X16820Y5923D01*
X16822Y5926D01*
X16825Y5929D01*
X16825Y5930D01*
X16826Y5931D01*
X16827Y5934D01*
X16828Y5937D01*
X16829Y5939D01*
X16829Y5940D01*
X16829Y5945D01*
X16829Y6555D01*
X16829Y6556D01*
X16829Y6557D01*
X16828Y6561D01*
X16828Y6565D01*
X16827Y6565D01*
X16827Y6566D01*
X16825Y6570D01*
X16823Y6573D01*
X16823Y6574D01*
X16822Y6575D01*
X16819Y6577D01*
X16816Y6579D01*
X16815Y6580D01*
X16815Y6581D01*
X16811Y6582D01*
X16808Y6583D01*
X16807Y6583D01*
X16806Y6584D01*
X16800Y6584D01*
X16600Y6584D01*
X16564Y6620D01*
X16564Y7380D01*
X16600Y7416D01*
X17116Y7416D01*
X17120Y7416D01*
X17124Y7417D01*
X17125Y7417D01*
X17126Y7417D01*
X17129Y7419D01*
X17133Y7421D01*
X17134Y7422D01*
X17135Y7422D01*
X17137Y7424D01*
X17331Y7618D01*
X17333Y7621D01*
X17335Y7624D01*
X17336Y7625D01*
X17336Y7626D01*
X17337Y7629D01*
X17339Y7633D01*
X17339Y7634D01*
X17339Y7635D01*
X17339Y7636D01*
X17339Y7639D01*
X17339Y7852D01*
X17339Y7856D01*
X17338Y7860D01*
X17338Y7861D01*
X17338Y7862D01*
X17336Y7865D01*
X17334Y7869D01*
X17333Y7870D01*
X17333Y7871D01*
X17331Y7873D01*
X17290Y7913D01*
X17290Y8087D01*
X17413Y8210D01*
X17470Y8210D01*
X17474Y8210D01*
X17478Y8211D01*
X17479Y8211D01*
X17480Y8211D01*
X17483Y8213D01*
X17487Y8215D01*
X17488Y8215D01*
X17488Y8216D01*
X17489Y8216D01*
X17491Y8218D01*
X17933Y8661D01*
X18544Y8661D01*
X18545Y8661D01*
X18546Y8661D01*
X18550Y8662D01*
X18553Y8662D01*
X18554Y8663D01*
X18555Y8663D01*
X18558Y8665D01*
X18562Y8667D01*
X18562Y8668D01*
X18563Y8668D01*
X18566Y8671D01*
X18568Y8674D01*
X18569Y8675D01*
X18569Y8676D01*
X18571Y8679D01*
X18572Y8683D01*
X18572Y8684D01*
X18573Y8685D01*
X18573Y8690D01*
X18573Y8879D01*
X18609Y8915D01*
X19289Y8915D01*
X19325Y8879D01*
X19325Y8121D01*
X19289Y8085D01*
X18609Y8085D01*
X18573Y8121D01*
X18573Y8310D01*
X18573Y8311D01*
X18573Y8312D01*
X18572Y8316D01*
X18572Y8319D01*
X18571Y8320D01*
X18571Y8321D01*
X18569Y8325D01*
X18567Y8328D01*
X18566Y8329D01*
X18563Y8332D01*
X18560Y8334D01*
X18559Y8335D01*
X18558Y8335D01*
X18555Y8337D01*
X18551Y8338D01*
X18550Y8338D01*
X18549Y8339D01*
X18544Y8339D01*
X18079Y8339D01*
X18075Y8339D01*
X18071Y8338D01*
X18070Y8338D01*
X18069Y8338D01*
X18066Y8336D01*
X18062Y8334D01*
X18061Y8333D01*
X18060Y8333D01*
X18060Y8332D01*
X18058Y8331D01*
X17718Y7991D01*
X17716Y7988D01*
X17713Y7985D01*
X17713Y7984D01*
X17713Y7983D01*
X17712Y7979D01*
X17710Y7976D01*
X17710Y7974D01*
X17710Y7973D01*
X17710Y7970D01*
X17710Y7913D01*
X17669Y7873D01*
X17667Y7870D01*
X17665Y7867D01*
X17664Y7866D01*
X17664Y7865D01*
X17663Y7861D01*
X17661Y7858D01*
X17661Y7856D01*
X17661Y7855D01*
X17661Y7852D01*
X17661Y7493D01*
X17324Y7157D01*
X17322Y7154D01*
X17320Y7151D01*
X17319Y7150D01*
X17319Y7149D01*
X17318Y7145D01*
X17316Y7142D01*
X17316Y7141D01*
X17316Y7140D01*
X17316Y7139D01*
X17316Y7136D01*
X17316Y6620D01*
X17280Y6584D01*
X17080Y6584D01*
X17079Y6584D01*
X17078Y6584D01*
X17074Y6583D01*
X17071Y6583D01*
X17070Y6582D01*
X17069Y6582D01*
X17066Y6580D01*
X17062Y6578D01*
X17062Y6577D01*
X17061Y6577D01*
X17058Y6574D01*
X17056Y6571D01*
X17055Y6570D01*
X17055Y6569D01*
X17053Y6566D01*
X17052Y6563D01*
X17052Y6561D01*
X17051Y6560D01*
X17051Y6555D01*
X17051Y5945D01*
X17051Y5944D01*
X17051Y5943D01*
X17052Y5939D01*
X17052Y5935D01*
X17053Y5935D01*
X17053Y5934D01*
X17055Y5930D01*
X17057Y5927D01*
X17058Y5926D01*
X17058Y5925D01*
X17061Y5923D01*
X17064Y5921D01*
X17065Y5920D01*
X17066Y5919D01*
X17069Y5918D01*
X17073Y5917D01*
X17074Y5917D01*
X17075Y5916D01*
X17080Y5916D01*
X17280Y5916D01*
X17316Y5880D01*
X17316Y5120D01*
X17280Y5084D01*
X16600Y5084D01*
G37*
%LPD*%
%LPC*%
G36*
X21132Y5642D02*
X21132Y5642D01*
X21001Y5697D01*
X20900Y5797D01*
X20846Y5929D01*
X20846Y5986D01*
X20845Y5990D01*
X20844Y5994D01*
X20844Y5995D01*
X20842Y5999D01*
X20840Y6002D01*
X20840Y6003D01*
X20839Y6004D01*
X20837Y6006D01*
X19963Y6881D01*
X19959Y6883D01*
X19956Y6885D01*
X19956Y6886D01*
X19955Y6886D01*
X19951Y6887D01*
X19947Y6889D01*
X19946Y6889D01*
X19945Y6889D01*
X19942Y6889D01*
X18465Y6889D01*
X18464Y6889D01*
X18463Y6889D01*
X18459Y6888D01*
X18455Y6888D01*
X18454Y6887D01*
X18453Y6887D01*
X18450Y6885D01*
X18447Y6883D01*
X18446Y6882D01*
X18445Y6882D01*
X18443Y6879D01*
X18440Y6876D01*
X18440Y6875D01*
X18439Y6874D01*
X18438Y6871D01*
X18437Y6867D01*
X18436Y6866D01*
X18436Y6865D01*
X18436Y6860D01*
X18436Y6620D01*
X18400Y6584D01*
X17720Y6584D01*
X17684Y6620D01*
X17684Y7380D01*
X17720Y7416D01*
X18400Y7416D01*
X18436Y7380D01*
X18436Y7140D01*
X18436Y7139D01*
X18436Y7138D01*
X18437Y7134D01*
X18437Y7131D01*
X18438Y7130D01*
X18438Y7129D01*
X18440Y7125D01*
X18442Y7122D01*
X18442Y7121D01*
X18443Y7121D01*
X18446Y7118D01*
X18449Y7116D01*
X18450Y7115D01*
X18454Y7113D01*
X18457Y7112D01*
X18458Y7112D01*
X18459Y7111D01*
X18465Y7111D01*
X20046Y7111D01*
X20906Y6250D01*
X20907Y6250D01*
X20908Y6249D01*
X20911Y6247D01*
X20914Y6245D01*
X20915Y6244D01*
X20916Y6244D01*
X20920Y6243D01*
X20923Y6242D01*
X20924Y6242D01*
X20925Y6242D01*
X20929Y6242D01*
X20933Y6242D01*
X20934Y6243D01*
X20935Y6243D01*
X20938Y6244D01*
X20942Y6246D01*
X20943Y6246D01*
X20944Y6247D01*
X20948Y6250D01*
X21001Y6303D01*
X21132Y6358D01*
X21868Y6358D01*
X21999Y6303D01*
X22100Y6203D01*
X22154Y6071D01*
X22154Y5929D01*
X22100Y5797D01*
X21999Y5697D01*
X21868Y5642D01*
X21132Y5642D01*
G37*
%LPD*%
%LPC*%
G36*
X12120Y6684D02*
X12120Y6684D01*
X12084Y6720D01*
X12084Y7400D01*
X12120Y7436D01*
X12880Y7436D01*
X12916Y7400D01*
X12916Y7250D01*
X12916Y7249D01*
X12916Y7248D01*
X12917Y7244D01*
X12917Y7240D01*
X12918Y7239D01*
X12918Y7238D01*
X12920Y7235D01*
X12922Y7232D01*
X12923Y7231D01*
X12923Y7230D01*
X12926Y7228D01*
X12929Y7225D01*
X12930Y7225D01*
X12931Y7224D01*
X12934Y7223D01*
X12937Y7222D01*
X12939Y7221D01*
X12940Y7221D01*
X12945Y7221D01*
X12981Y7221D01*
X12985Y7221D01*
X12989Y7222D01*
X12990Y7222D01*
X12991Y7222D01*
X12994Y7224D01*
X12998Y7226D01*
X12999Y7226D01*
X12999Y7227D01*
X13000Y7227D01*
X13002Y7229D01*
X13171Y7398D01*
X13173Y7401D01*
X13175Y7404D01*
X13176Y7405D01*
X13176Y7406D01*
X13177Y7410D01*
X13179Y7413D01*
X13179Y7414D01*
X13179Y7415D01*
X13179Y7416D01*
X13179Y7419D01*
X13179Y7514D01*
X13228Y7632D01*
X13318Y7722D01*
X13321Y7723D01*
X13325Y7726D01*
X13329Y7728D01*
X13332Y7732D01*
X13335Y7736D01*
X13337Y7740D01*
X13339Y7745D01*
X13339Y7750D01*
X13339Y7921D01*
X13339Y7925D01*
X13338Y7929D01*
X13338Y7930D01*
X13338Y7931D01*
X13336Y7934D01*
X13334Y7938D01*
X13333Y7939D01*
X13333Y7940D01*
X13331Y7942D01*
X13196Y8076D01*
X13193Y8079D01*
X13190Y8081D01*
X13189Y8081D01*
X13189Y8082D01*
X13185Y8083D01*
X13181Y8084D01*
X13180Y8085D01*
X13179Y8085D01*
X13176Y8085D01*
X12609Y8085D01*
X12573Y8121D01*
X12573Y8879D01*
X12609Y8915D01*
X13289Y8915D01*
X13325Y8879D01*
X13325Y8415D01*
X13325Y8411D01*
X13326Y8407D01*
X13326Y8406D01*
X13326Y8405D01*
X13328Y8402D01*
X13330Y8398D01*
X13331Y8397D01*
X13331Y8396D01*
X13333Y8394D01*
X13558Y8169D01*
X13586Y8142D01*
X13588Y8140D01*
X13590Y8138D01*
X13592Y8137D01*
X13593Y8136D01*
X13596Y8135D01*
X13599Y8134D01*
X13601Y8134D01*
X13602Y8133D01*
X13605Y8134D01*
X13608Y8133D01*
X13610Y8134D01*
X13612Y8134D01*
X13615Y8135D01*
X13618Y8136D01*
X13619Y8137D01*
X13621Y8137D01*
X13623Y8139D01*
X13626Y8141D01*
X13627Y8142D01*
X13628Y8143D01*
X13630Y8146D01*
X13632Y8148D01*
X13632Y8150D01*
X13633Y8151D01*
X13634Y8154D01*
X13635Y8157D01*
X13635Y8160D01*
X13635Y8161D01*
X13635Y8162D01*
X13635Y8441D01*
X13992Y8441D01*
X13992Y8045D01*
X13723Y8045D01*
X13698Y8052D01*
X13697Y8052D01*
X13693Y8052D01*
X13688Y8053D01*
X13683Y8052D01*
X13679Y8050D01*
X13675Y8048D01*
X13671Y8045D01*
X13668Y8042D01*
X13665Y8038D01*
X13663Y8033D01*
X13661Y8029D01*
X13661Y8023D01*
X13661Y7750D01*
X13662Y7745D01*
X13662Y7741D01*
X13662Y7740D01*
X13665Y7736D01*
X13667Y7732D01*
X13670Y7729D01*
X13674Y7726D01*
X13679Y7723D01*
X13682Y7722D01*
X13772Y7632D01*
X13821Y7514D01*
X13821Y7386D01*
X13772Y7268D01*
X13682Y7178D01*
X13564Y7129D01*
X13436Y7129D01*
X13398Y7145D01*
X13393Y7146D01*
X13389Y7147D01*
X13388Y7147D01*
X13384Y7147D01*
X13379Y7146D01*
X13375Y7144D01*
X13370Y7142D01*
X13366Y7139D01*
X13126Y6899D01*
X12945Y6899D01*
X12944Y6899D01*
X12943Y6899D01*
X12939Y6898D01*
X12935Y6898D01*
X12935Y6897D01*
X12934Y6897D01*
X12930Y6895D01*
X12927Y6893D01*
X12926Y6892D01*
X12925Y6892D01*
X12923Y6889D01*
X12921Y6886D01*
X12920Y6885D01*
X12919Y6884D01*
X12918Y6881D01*
X12917Y6877D01*
X12917Y6876D01*
X12916Y6875D01*
X12916Y6870D01*
X12916Y6720D01*
X12880Y6684D01*
X12120Y6684D01*
G37*
%LPD*%
%LPC*%
G36*
X2109Y4085D02*
X2109Y4085D01*
X2073Y4121D01*
X2073Y4879D01*
X2109Y4915D01*
X2624Y4915D01*
X2628Y4916D01*
X2632Y4916D01*
X2633Y4917D01*
X2634Y4917D01*
X2637Y4919D01*
X2641Y4920D01*
X2642Y4921D01*
X2643Y4922D01*
X2645Y4924D01*
X2831Y5109D01*
X2833Y5112D01*
X2835Y5116D01*
X2836Y5116D01*
X2836Y5117D01*
X2837Y5121D01*
X2839Y5125D01*
X2839Y5126D01*
X2839Y5127D01*
X2839Y5130D01*
X2839Y5250D01*
X2838Y5255D01*
X2838Y5259D01*
X2838Y5260D01*
X2835Y5264D01*
X2833Y5268D01*
X2830Y5271D01*
X2826Y5274D01*
X2821Y5277D01*
X2818Y5278D01*
X2728Y5368D01*
X2679Y5486D01*
X2679Y5614D01*
X2680Y5617D01*
X2681Y5617D01*
X2682Y5621D01*
X2683Y5626D01*
X2682Y5631D01*
X2682Y5636D01*
X2680Y5640D01*
X2678Y5644D01*
X2674Y5649D01*
X2552Y5771D01*
X2549Y5773D01*
X2546Y5776D01*
X2545Y5776D01*
X2544Y5776D01*
X2540Y5778D01*
X2537Y5779D01*
X2535Y5779D01*
X2534Y5779D01*
X2531Y5779D01*
X2445Y5779D01*
X2444Y5779D01*
X2443Y5779D01*
X2439Y5778D01*
X2435Y5778D01*
X2435Y5777D01*
X2434Y5777D01*
X2430Y5775D01*
X2427Y5773D01*
X2426Y5773D01*
X2425Y5772D01*
X2423Y5769D01*
X2421Y5766D01*
X2420Y5765D01*
X2419Y5765D01*
X2418Y5761D01*
X2417Y5758D01*
X2417Y5757D01*
X2416Y5756D01*
X2416Y5750D01*
X2416Y5600D01*
X2380Y5564D01*
X1620Y5564D01*
X1584Y5600D01*
X1584Y6280D01*
X1620Y6316D01*
X2380Y6316D01*
X2416Y6280D01*
X2416Y6130D01*
X2416Y6129D01*
X2416Y6128D01*
X2417Y6124D01*
X2417Y6121D01*
X2418Y6120D01*
X2418Y6119D01*
X2420Y6116D01*
X2422Y6112D01*
X2423Y6112D01*
X2423Y6111D01*
X2426Y6108D01*
X2429Y6106D01*
X2430Y6105D01*
X2431Y6105D01*
X2434Y6103D01*
X2437Y6102D01*
X2439Y6102D01*
X2440Y6101D01*
X2445Y6101D01*
X2676Y6101D01*
X2901Y5876D01*
X2902Y5876D01*
X2905Y5873D01*
X2909Y5870D01*
X2914Y5869D01*
X2918Y5868D01*
X2919Y5868D01*
X2923Y5868D01*
X2928Y5868D01*
X2933Y5870D01*
X2936Y5871D01*
X3064Y5871D01*
X3182Y5822D01*
X3272Y5732D01*
X3321Y5614D01*
X3321Y5486D01*
X3272Y5368D01*
X3182Y5278D01*
X3179Y5277D01*
X3175Y5274D01*
X3171Y5272D01*
X3168Y5268D01*
X3165Y5264D01*
X3163Y5260D01*
X3161Y5255D01*
X3161Y5250D01*
X3161Y4977D01*
X3161Y4976D01*
X3162Y4972D01*
X3162Y4967D01*
X3165Y4963D01*
X3167Y4959D01*
X3170Y4955D01*
X3174Y4952D01*
X3178Y4950D01*
X3183Y4948D01*
X3187Y4948D01*
X3192Y4947D01*
X3198Y4948D01*
X3223Y4955D01*
X3492Y4955D01*
X3492Y4559D01*
X3135Y4559D01*
X3135Y4868D01*
X3141Y4887D01*
X3141Y4889D01*
X3142Y4891D01*
X3141Y4894D01*
X3142Y4897D01*
X3141Y4899D01*
X3141Y4901D01*
X3140Y4904D01*
X3140Y4906D01*
X3138Y4908D01*
X3138Y4910D01*
X3136Y4912D01*
X3134Y4914D01*
X3133Y4916D01*
X3132Y4917D01*
X3129Y4919D01*
X3127Y4920D01*
X3125Y4921D01*
X3124Y4922D01*
X3121Y4923D01*
X3118Y4924D01*
X3116Y4924D01*
X3114Y4924D01*
X3111Y4924D01*
X3109Y4924D01*
X3107Y4923D01*
X3105Y4923D01*
X3102Y4922D01*
X3099Y4921D01*
X3098Y4920D01*
X3096Y4919D01*
X3092Y4916D01*
X2833Y4657D01*
X2831Y4654D01*
X2828Y4651D01*
X2828Y4650D01*
X2828Y4649D01*
X2826Y4645D01*
X2825Y4642D01*
X2825Y4641D01*
X2825Y4640D01*
X2825Y4639D01*
X2825Y4636D01*
X2825Y4121D01*
X2789Y4085D01*
X2109Y4085D01*
G37*
%LPD*%
%LPC*%
G36*
X12609Y4085D02*
X12609Y4085D01*
X12573Y4121D01*
X12573Y4879D01*
X12609Y4915D01*
X13124Y4915D01*
X13128Y4916D01*
X13132Y4916D01*
X13133Y4917D01*
X13134Y4917D01*
X13137Y4919D01*
X13141Y4920D01*
X13142Y4921D01*
X13143Y4922D01*
X13145Y4924D01*
X13331Y5109D01*
X13333Y5112D01*
X13335Y5116D01*
X13336Y5116D01*
X13336Y5117D01*
X13337Y5121D01*
X13339Y5125D01*
X13339Y5126D01*
X13339Y5127D01*
X13339Y5130D01*
X13339Y5250D01*
X13338Y5255D01*
X13338Y5259D01*
X13338Y5260D01*
X13335Y5264D01*
X13333Y5268D01*
X13330Y5271D01*
X13326Y5274D01*
X13321Y5277D01*
X13318Y5278D01*
X13228Y5368D01*
X13179Y5486D01*
X13179Y5614D01*
X13180Y5617D01*
X13181Y5617D01*
X13182Y5621D01*
X13183Y5626D01*
X13182Y5631D01*
X13182Y5636D01*
X13180Y5640D01*
X13178Y5644D01*
X13174Y5649D01*
X13052Y5771D01*
X13049Y5773D01*
X13046Y5776D01*
X13045Y5776D01*
X13044Y5776D01*
X13040Y5778D01*
X13037Y5779D01*
X13035Y5779D01*
X13034Y5779D01*
X13031Y5779D01*
X12945Y5779D01*
X12944Y5779D01*
X12943Y5779D01*
X12939Y5778D01*
X12935Y5778D01*
X12935Y5777D01*
X12934Y5777D01*
X12930Y5775D01*
X12927Y5773D01*
X12926Y5773D01*
X12925Y5772D01*
X12923Y5769D01*
X12921Y5766D01*
X12920Y5765D01*
X12919Y5765D01*
X12918Y5761D01*
X12917Y5758D01*
X12917Y5757D01*
X12916Y5756D01*
X12916Y5750D01*
X12916Y5600D01*
X12880Y5564D01*
X12120Y5564D01*
X12084Y5600D01*
X12084Y6280D01*
X12120Y6316D01*
X12880Y6316D01*
X12916Y6280D01*
X12916Y6130D01*
X12916Y6129D01*
X12916Y6128D01*
X12917Y6124D01*
X12917Y6121D01*
X12918Y6120D01*
X12918Y6119D01*
X12920Y6116D01*
X12922Y6112D01*
X12923Y6112D01*
X12923Y6111D01*
X12926Y6108D01*
X12929Y6106D01*
X12930Y6105D01*
X12931Y6105D01*
X12934Y6103D01*
X12937Y6102D01*
X12939Y6102D01*
X12940Y6101D01*
X12945Y6101D01*
X13176Y6101D01*
X13401Y5876D01*
X13402Y5876D01*
X13405Y5873D01*
X13409Y5870D01*
X13414Y5869D01*
X13418Y5868D01*
X13419Y5868D01*
X13423Y5868D01*
X13428Y5868D01*
X13433Y5870D01*
X13436Y5871D01*
X13564Y5871D01*
X13682Y5822D01*
X13772Y5732D01*
X13821Y5614D01*
X13821Y5486D01*
X13772Y5368D01*
X13682Y5278D01*
X13679Y5277D01*
X13675Y5274D01*
X13671Y5272D01*
X13668Y5268D01*
X13665Y5264D01*
X13663Y5260D01*
X13661Y5255D01*
X13661Y5250D01*
X13661Y4977D01*
X13661Y4976D01*
X13662Y4972D01*
X13662Y4967D01*
X13665Y4963D01*
X13667Y4959D01*
X13670Y4955D01*
X13674Y4952D01*
X13678Y4950D01*
X13683Y4948D01*
X13687Y4948D01*
X13692Y4947D01*
X13698Y4948D01*
X13723Y4955D01*
X13992Y4955D01*
X13992Y4559D01*
X13635Y4559D01*
X13635Y4868D01*
X13641Y4887D01*
X13641Y4889D01*
X13642Y4891D01*
X13641Y4894D01*
X13642Y4897D01*
X13641Y4899D01*
X13641Y4901D01*
X13640Y4904D01*
X13640Y4906D01*
X13638Y4908D01*
X13638Y4910D01*
X13636Y4912D01*
X13634Y4914D01*
X13633Y4916D01*
X13632Y4917D01*
X13629Y4919D01*
X13627Y4920D01*
X13625Y4921D01*
X13624Y4922D01*
X13621Y4923D01*
X13618Y4924D01*
X13616Y4924D01*
X13614Y4924D01*
X13611Y4924D01*
X13609Y4924D01*
X13607Y4923D01*
X13605Y4923D01*
X13602Y4922D01*
X13599Y4921D01*
X13598Y4920D01*
X13596Y4919D01*
X13592Y4916D01*
X13333Y4657D01*
X13331Y4654D01*
X13328Y4651D01*
X13328Y4650D01*
X13328Y4649D01*
X13326Y4645D01*
X13325Y4642D01*
X13325Y4641D01*
X13325Y4640D01*
X13325Y4639D01*
X13325Y4636D01*
X13325Y4121D01*
X13289Y4085D01*
X12609Y4085D01*
G37*
%LPD*%
%LPC*%
G36*
X21132Y4642D02*
X21132Y4642D01*
X21001Y4697D01*
X20900Y4797D01*
X20869Y4871D01*
X20867Y4875D01*
X20864Y4879D01*
X20861Y4882D01*
X20857Y4885D01*
X20852Y4887D01*
X20848Y4889D01*
X20842Y4889D01*
X18514Y4889D01*
X18327Y5076D01*
X18324Y5078D01*
X18321Y5081D01*
X18320Y5081D01*
X18316Y5082D01*
X18312Y5084D01*
X18311Y5084D01*
X18310Y5084D01*
X18307Y5084D01*
X17720Y5084D01*
X17684Y5120D01*
X17684Y5880D01*
X17720Y5916D01*
X18400Y5916D01*
X18436Y5880D01*
X18436Y5293D01*
X18436Y5289D01*
X18437Y5285D01*
X18437Y5284D01*
X18439Y5280D01*
X18441Y5277D01*
X18441Y5276D01*
X18442Y5275D01*
X18444Y5272D01*
X18597Y5119D01*
X18600Y5117D01*
X18603Y5115D01*
X18604Y5114D01*
X18605Y5114D01*
X18609Y5113D01*
X18612Y5111D01*
X18614Y5111D01*
X18615Y5111D01*
X18618Y5111D01*
X20842Y5111D01*
X20843Y5111D01*
X20847Y5112D01*
X20852Y5112D01*
X20856Y5115D01*
X20860Y5117D01*
X20864Y5120D01*
X20867Y5124D01*
X20869Y5129D01*
X20900Y5203D01*
X21001Y5303D01*
X21132Y5358D01*
X21868Y5358D01*
X21999Y5303D01*
X22100Y5203D01*
X22154Y5071D01*
X22154Y4929D01*
X22100Y4797D01*
X21999Y4697D01*
X21868Y4642D01*
X21132Y4642D01*
G37*
%LPD*%
%LPC*%
G36*
X7720Y4084D02*
X7720Y4084D01*
X7684Y4120D01*
X7684Y4880D01*
X7720Y4916D01*
X8307Y4916D01*
X8311Y4916D01*
X8315Y4917D01*
X8316Y4917D01*
X8320Y4919D01*
X8323Y4921D01*
X8324Y4922D01*
X8325Y4922D01*
X8327Y4924D01*
X8441Y5037D01*
X8514Y5111D01*
X9842Y5111D01*
X9843Y5111D01*
X9847Y5112D01*
X9852Y5112D01*
X9856Y5115D01*
X9860Y5117D01*
X9864Y5120D01*
X9867Y5124D01*
X9869Y5129D01*
X9900Y5203D01*
X10001Y5303D01*
X10132Y5358D01*
X10868Y5358D01*
X10999Y5303D01*
X11100Y5203D01*
X11154Y5071D01*
X11154Y4929D01*
X11100Y4797D01*
X10999Y4697D01*
X10868Y4642D01*
X10132Y4642D01*
X10001Y4697D01*
X9900Y4797D01*
X9869Y4871D01*
X9867Y4875D01*
X9864Y4879D01*
X9861Y4882D01*
X9857Y4885D01*
X9852Y4887D01*
X9848Y4889D01*
X9842Y4889D01*
X8618Y4889D01*
X8614Y4889D01*
X8610Y4888D01*
X8609Y4888D01*
X8608Y4888D01*
X8605Y4886D01*
X8601Y4884D01*
X8600Y4883D01*
X8599Y4883D01*
X8597Y4881D01*
X8444Y4728D01*
X8442Y4724D01*
X8439Y4721D01*
X8439Y4720D01*
X8437Y4716D01*
X8436Y4712D01*
X8436Y4711D01*
X8436Y4710D01*
X8436Y4707D01*
X8436Y4120D01*
X8400Y4084D01*
X7720Y4084D01*
G37*
%LPD*%
%LPC*%
G36*
X24428Y1339D02*
X24428Y1339D01*
X24296Y1394D01*
X24194Y1496D01*
X24139Y1628D01*
X24139Y2372D01*
X24194Y2504D01*
X24296Y2606D01*
X24428Y2661D01*
X24572Y2661D01*
X24704Y2606D01*
X24806Y2504D01*
X24861Y2372D01*
X24861Y1628D01*
X24806Y1496D01*
X24704Y1394D01*
X24572Y1339D01*
X24428Y1339D01*
G37*
%LPD*%
%LPC*%
G36*
X26428Y1339D02*
X26428Y1339D01*
X26296Y1394D01*
X26194Y1496D01*
X26139Y1628D01*
X26139Y2372D01*
X26194Y2504D01*
X26296Y2606D01*
X26428Y2661D01*
X26572Y2661D01*
X26704Y2606D01*
X26806Y2504D01*
X26861Y2372D01*
X26861Y1628D01*
X26806Y1496D01*
X26704Y1394D01*
X26572Y1339D01*
X26428Y1339D01*
G37*
%LPD*%
%LPC*%
G36*
X4429Y1346D02*
X4429Y1346D01*
X4297Y1400D01*
X4197Y1501D01*
X4142Y1632D01*
X4142Y2368D01*
X4197Y2499D01*
X4297Y2600D01*
X4429Y2654D01*
X4571Y2654D01*
X4703Y2600D01*
X4803Y2499D01*
X4858Y2368D01*
X4858Y1632D01*
X4803Y1501D01*
X4703Y1400D01*
X4571Y1346D01*
X4429Y1346D01*
G37*
%LPD*%
%LPC*%
G36*
X5429Y1346D02*
X5429Y1346D01*
X5297Y1400D01*
X5197Y1501D01*
X5142Y1632D01*
X5142Y2368D01*
X5197Y2499D01*
X5297Y2600D01*
X5429Y2654D01*
X5571Y2654D01*
X5703Y2600D01*
X5803Y2499D01*
X5858Y2368D01*
X5858Y1632D01*
X5803Y1501D01*
X5703Y1400D01*
X5571Y1346D01*
X5429Y1346D01*
G37*
%LPD*%
%LPC*%
G36*
X6429Y1346D02*
X6429Y1346D01*
X6297Y1400D01*
X6197Y1501D01*
X6142Y1632D01*
X6142Y2368D01*
X6197Y2499D01*
X6297Y2600D01*
X6429Y2654D01*
X6571Y2654D01*
X6703Y2600D01*
X6803Y2499D01*
X6858Y2368D01*
X6858Y1632D01*
X6803Y1501D01*
X6703Y1400D01*
X6571Y1346D01*
X6429Y1346D01*
G37*
%LPD*%
%LPC*%
G36*
X7429Y1346D02*
X7429Y1346D01*
X7297Y1400D01*
X7197Y1501D01*
X7142Y1632D01*
X7142Y2368D01*
X7197Y2499D01*
X7297Y2600D01*
X7429Y2654D01*
X7571Y2654D01*
X7703Y2600D01*
X7803Y2499D01*
X7858Y2368D01*
X7858Y1632D01*
X7803Y1501D01*
X7703Y1400D01*
X7571Y1346D01*
X7429Y1346D01*
G37*
%LPD*%
%LPC*%
G36*
X8429Y1346D02*
X8429Y1346D01*
X8297Y1400D01*
X8197Y1501D01*
X8142Y1632D01*
X8142Y2368D01*
X8197Y2499D01*
X8297Y2600D01*
X8429Y2654D01*
X8571Y2654D01*
X8703Y2600D01*
X8803Y2499D01*
X8858Y2368D01*
X8858Y1632D01*
X8803Y1501D01*
X8703Y1400D01*
X8571Y1346D01*
X8429Y1346D01*
G37*
%LPD*%
%LPC*%
G36*
X10632Y2142D02*
X10632Y2142D01*
X10501Y2197D01*
X10400Y2297D01*
X10346Y2429D01*
X10346Y2571D01*
X10400Y2703D01*
X10501Y2803D01*
X10632Y2858D01*
X11368Y2858D01*
X11499Y2803D01*
X11600Y2703D01*
X11654Y2571D01*
X11654Y2429D01*
X11600Y2297D01*
X11499Y2197D01*
X11368Y2142D01*
X10632Y2142D01*
G37*
%LPD*%
%LPC*%
G36*
X14132Y2142D02*
X14132Y2142D01*
X14001Y2197D01*
X13900Y2297D01*
X13846Y2429D01*
X13846Y2571D01*
X13900Y2703D01*
X14001Y2803D01*
X14132Y2858D01*
X14868Y2858D01*
X14999Y2803D01*
X15100Y2703D01*
X15154Y2571D01*
X15154Y2429D01*
X15100Y2297D01*
X14999Y2197D01*
X14868Y2142D01*
X14132Y2142D01*
G37*
%LPD*%
%LPC*%
G36*
X17632Y2142D02*
X17632Y2142D01*
X17501Y2197D01*
X17400Y2297D01*
X17346Y2429D01*
X17346Y2571D01*
X17400Y2703D01*
X17501Y2803D01*
X17632Y2858D01*
X18368Y2858D01*
X18499Y2803D01*
X18600Y2703D01*
X18654Y2571D01*
X18654Y2429D01*
X18600Y2297D01*
X18499Y2197D01*
X18368Y2142D01*
X17632Y2142D01*
G37*
%LPD*%
%LPC*%
G36*
X21132Y2142D02*
X21132Y2142D01*
X21001Y2197D01*
X20900Y2297D01*
X20846Y2429D01*
X20846Y2571D01*
X20900Y2703D01*
X21001Y2803D01*
X21132Y2858D01*
X21868Y2858D01*
X21999Y2803D01*
X22100Y2703D01*
X22154Y2571D01*
X22154Y2429D01*
X22100Y2297D01*
X21999Y2197D01*
X21868Y2142D01*
X21132Y2142D01*
G37*
%LPD*%
%LPC*%
G36*
X21132Y6642D02*
X21132Y6642D01*
X21001Y6697D01*
X20900Y6797D01*
X20846Y6929D01*
X20846Y7071D01*
X20900Y7203D01*
X21001Y7303D01*
X21132Y7358D01*
X21868Y7358D01*
X21999Y7303D01*
X22100Y7203D01*
X22154Y7071D01*
X22154Y6929D01*
X22100Y6797D01*
X21999Y6697D01*
X21868Y6642D01*
X21132Y6642D01*
G37*
%LPD*%
%LPC*%
G36*
X25559Y2059D02*
X25559Y2059D01*
X25559Y2696D01*
X25594Y2691D01*
X25654Y2671D01*
X25710Y2643D01*
X25761Y2606D01*
X25806Y2561D01*
X25843Y2510D01*
X25871Y2454D01*
X25891Y2394D01*
X25901Y2332D01*
X25901Y2059D01*
X25559Y2059D01*
G37*
%LPD*%
%LPC*%
G36*
X25559Y1941D02*
X25559Y1941D01*
X25901Y1941D01*
X25901Y1668D01*
X25891Y1606D01*
X25871Y1546D01*
X25843Y1490D01*
X25806Y1439D01*
X25761Y1394D01*
X25710Y1357D01*
X25654Y1329D01*
X25594Y1309D01*
X25559Y1304D01*
X25559Y1941D01*
G37*
%LPD*%
%LPC*%
G36*
X25406Y1309D02*
X25406Y1309D01*
X25346Y1329D01*
X25290Y1357D01*
X25239Y1394D01*
X25194Y1439D01*
X25157Y1490D01*
X25129Y1546D01*
X25109Y1606D01*
X25099Y1668D01*
X25099Y1941D01*
X25441Y1941D01*
X25441Y1304D01*
X25406Y1309D01*
G37*
%LPD*%
%LPC*%
G36*
X25099Y2059D02*
X25099Y2059D01*
X25099Y2332D01*
X25109Y2394D01*
X25129Y2454D01*
X25157Y2510D01*
X25194Y2561D01*
X25239Y2606D01*
X25290Y2643D01*
X25346Y2671D01*
X25406Y2691D01*
X25441Y2696D01*
X25441Y2059D01*
X25099Y2059D01*
G37*
%LPD*%
%LPC*%
G36*
X18059Y1559D02*
X18059Y1559D01*
X18059Y1898D01*
X18328Y1898D01*
X18390Y1888D01*
X18449Y1868D01*
X18505Y1840D01*
X18556Y1803D01*
X18600Y1759D01*
X18637Y1708D01*
X18665Y1653D01*
X18685Y1593D01*
X18690Y1559D01*
X18059Y1559D01*
G37*
%LPD*%
%LPC*%
G36*
X20810Y1559D02*
X20810Y1559D01*
X20815Y1593D01*
X20835Y1653D01*
X20863Y1708D01*
X20900Y1759D01*
X20944Y1803D01*
X20995Y1840D01*
X21051Y1868D01*
X21110Y1888D01*
X21172Y1898D01*
X21441Y1898D01*
X21441Y1559D01*
X20810Y1559D01*
G37*
%LPD*%
%LPC*%
G36*
X2559Y1941D02*
X2559Y1941D01*
X2898Y1941D01*
X2898Y1672D01*
X2888Y1610D01*
X2868Y1551D01*
X2840Y1495D01*
X2803Y1444D01*
X2759Y1400D01*
X2708Y1363D01*
X2653Y1335D01*
X2593Y1315D01*
X2559Y1310D01*
X2559Y1941D01*
G37*
%LPD*%
%LPC*%
G36*
X9810Y8059D02*
X9810Y8059D01*
X9815Y8093D01*
X9835Y8153D01*
X9863Y8208D01*
X9900Y8259D01*
X9944Y8303D01*
X9995Y8340D01*
X10051Y8368D01*
X10110Y8388D01*
X10172Y8398D01*
X10441Y8398D01*
X10441Y8059D01*
X9810Y8059D01*
G37*
%LPD*%
%LPC*%
G36*
X10559Y8059D02*
X10559Y8059D01*
X10559Y8398D01*
X10828Y8398D01*
X10890Y8388D01*
X10949Y8368D01*
X11005Y8340D01*
X11056Y8303D01*
X11100Y8259D01*
X11137Y8208D01*
X11165Y8153D01*
X11185Y8093D01*
X11190Y8059D01*
X10559Y8059D01*
G37*
%LPD*%
%LPC*%
G36*
X21559Y8059D02*
X21559Y8059D01*
X21559Y8398D01*
X21828Y8398D01*
X21890Y8388D01*
X21949Y8368D01*
X22005Y8340D01*
X22056Y8303D01*
X22100Y8259D01*
X22137Y8208D01*
X22165Y8153D01*
X22185Y8093D01*
X22190Y8059D01*
X21559Y8059D01*
G37*
%LPD*%
%LPC*%
G36*
X20810Y8059D02*
X20810Y8059D01*
X20815Y8093D01*
X20835Y8153D01*
X20863Y8208D01*
X20900Y8259D01*
X20944Y8303D01*
X20995Y8340D01*
X21051Y8368D01*
X21110Y8388D01*
X21172Y8398D01*
X21441Y8398D01*
X21441Y8059D01*
X20810Y8059D01*
G37*
%LPD*%
%LPC*%
G36*
X11059Y1559D02*
X11059Y1559D01*
X11059Y1898D01*
X11328Y1898D01*
X11390Y1888D01*
X11449Y1868D01*
X11505Y1840D01*
X11556Y1803D01*
X11600Y1759D01*
X11637Y1708D01*
X11665Y1653D01*
X11685Y1593D01*
X11690Y1559D01*
X11059Y1559D01*
G37*
%LPD*%
%LPC*%
G36*
X13810Y1559D02*
X13810Y1559D01*
X13815Y1593D01*
X13835Y1653D01*
X13863Y1708D01*
X13900Y1759D01*
X13944Y1803D01*
X13995Y1840D01*
X14051Y1868D01*
X14110Y1888D01*
X14172Y1898D01*
X14441Y1898D01*
X14441Y1559D01*
X13810Y1559D01*
G37*
%LPD*%
%LPC*%
G36*
X21559Y1559D02*
X21559Y1559D01*
X21559Y1898D01*
X21828Y1898D01*
X21890Y1888D01*
X21949Y1868D01*
X22005Y1840D01*
X22056Y1803D01*
X22100Y1759D01*
X22137Y1708D01*
X22165Y1653D01*
X22185Y1593D01*
X22190Y1559D01*
X21559Y1559D01*
G37*
%LPD*%
%LPC*%
G36*
X2559Y2059D02*
X2559Y2059D01*
X2559Y2690D01*
X2593Y2685D01*
X2653Y2665D01*
X2708Y2637D01*
X2759Y2600D01*
X2803Y2556D01*
X2840Y2505D01*
X2868Y2449D01*
X2888Y2390D01*
X2898Y2328D01*
X2898Y2059D01*
X2559Y2059D01*
G37*
%LPD*%
%LPC*%
G36*
X14559Y1559D02*
X14559Y1559D01*
X14559Y1898D01*
X14828Y1898D01*
X14890Y1888D01*
X14949Y1868D01*
X15005Y1840D01*
X15056Y1803D01*
X15100Y1759D01*
X15137Y1708D01*
X15165Y1653D01*
X15185Y1593D01*
X15190Y1559D01*
X14559Y1559D01*
G37*
%LPD*%
%LPC*%
G36*
X17310Y1559D02*
X17310Y1559D01*
X17315Y1593D01*
X17335Y1653D01*
X17363Y1708D01*
X17400Y1759D01*
X17444Y1803D01*
X17495Y1840D01*
X17551Y1868D01*
X17610Y1888D01*
X17672Y1898D01*
X17941Y1898D01*
X17941Y1559D01*
X17310Y1559D01*
G37*
%LPD*%
%LPC*%
G36*
X10310Y1559D02*
X10310Y1559D01*
X10315Y1593D01*
X10335Y1653D01*
X10363Y1708D01*
X10400Y1759D01*
X10444Y1803D01*
X10495Y1840D01*
X10551Y1868D01*
X10610Y1888D01*
X10672Y1898D01*
X10941Y1898D01*
X10941Y1559D01*
X10310Y1559D01*
G37*
%LPD*%
%LPC*%
G36*
X21172Y7602D02*
X21172Y7602D01*
X21110Y7612D01*
X21051Y7632D01*
X20995Y7660D01*
X20944Y7697D01*
X20900Y7741D01*
X20863Y7792D01*
X20835Y7847D01*
X20815Y7907D01*
X20810Y7941D01*
X21441Y7941D01*
X21441Y7602D01*
X21172Y7602D01*
G37*
%LPD*%
%LPC*%
G36*
X10559Y7602D02*
X10559Y7602D01*
X10559Y7941D01*
X11190Y7941D01*
X11185Y7907D01*
X11165Y7847D01*
X11137Y7792D01*
X11100Y7741D01*
X11056Y7697D01*
X11005Y7660D01*
X10949Y7632D01*
X10890Y7612D01*
X10828Y7602D01*
X10559Y7602D01*
G37*
%LPD*%
%LPC*%
G36*
X10172Y7602D02*
X10172Y7602D01*
X10110Y7612D01*
X10051Y7632D01*
X9995Y7660D01*
X9944Y7697D01*
X9900Y7741D01*
X9863Y7792D01*
X9835Y7847D01*
X9815Y7907D01*
X9810Y7941D01*
X10441Y7941D01*
X10441Y7602D01*
X10172Y7602D01*
G37*
%LPD*%
%LPC*%
G36*
X14172Y1102D02*
X14172Y1102D01*
X14110Y1112D01*
X14051Y1132D01*
X13995Y1160D01*
X13944Y1197D01*
X13900Y1241D01*
X13863Y1292D01*
X13835Y1347D01*
X13815Y1407D01*
X13810Y1441D01*
X14441Y1441D01*
X14441Y1102D01*
X14172Y1102D01*
G37*
%LPD*%
%LPC*%
G36*
X2102Y2059D02*
X2102Y2059D01*
X2102Y2328D01*
X2112Y2390D01*
X2132Y2449D01*
X2160Y2505D01*
X2197Y2556D01*
X2241Y2600D01*
X2292Y2637D01*
X2347Y2665D01*
X2407Y2685D01*
X2441Y2690D01*
X2441Y2059D01*
X2102Y2059D01*
G37*
%LPD*%
%LPC*%
G36*
X2407Y1315D02*
X2407Y1315D01*
X2347Y1335D01*
X2292Y1363D01*
X2241Y1400D01*
X2197Y1444D01*
X2160Y1495D01*
X2132Y1551D01*
X2112Y1610D01*
X2102Y1672D01*
X2102Y1941D01*
X2441Y1941D01*
X2441Y1310D01*
X2407Y1315D01*
G37*
%LPD*%
%LPC*%
G36*
X21559Y7602D02*
X21559Y7602D01*
X21559Y7941D01*
X22190Y7941D01*
X22185Y7907D01*
X22165Y7847D01*
X22137Y7792D01*
X22100Y7741D01*
X22056Y7697D01*
X22005Y7660D01*
X21949Y7632D01*
X21890Y7612D01*
X21828Y7602D01*
X21559Y7602D01*
G37*
%LPD*%
%LPC*%
G36*
X11059Y1102D02*
X11059Y1102D01*
X11059Y1441D01*
X11690Y1441D01*
X11685Y1407D01*
X11665Y1347D01*
X11637Y1292D01*
X11600Y1241D01*
X11556Y1197D01*
X11505Y1160D01*
X11449Y1132D01*
X11390Y1112D01*
X11328Y1102D01*
X11059Y1102D01*
G37*
%LPD*%
%LPC*%
G36*
X10672Y1102D02*
X10672Y1102D01*
X10610Y1112D01*
X10551Y1132D01*
X10495Y1160D01*
X10444Y1197D01*
X10400Y1241D01*
X10363Y1292D01*
X10335Y1347D01*
X10315Y1407D01*
X10310Y1441D01*
X10941Y1441D01*
X10941Y1102D01*
X10672Y1102D01*
G37*
%LPD*%
%LPC*%
G36*
X21559Y1102D02*
X21559Y1102D01*
X21559Y1441D01*
X22190Y1441D01*
X22185Y1407D01*
X22165Y1347D01*
X22137Y1292D01*
X22100Y1241D01*
X22056Y1197D01*
X22005Y1160D01*
X21949Y1132D01*
X21890Y1112D01*
X21828Y1102D01*
X21559Y1102D01*
G37*
%LPD*%
%LPC*%
G36*
X21172Y1102D02*
X21172Y1102D01*
X21110Y1112D01*
X21051Y1132D01*
X20995Y1160D01*
X20944Y1197D01*
X20900Y1241D01*
X20863Y1292D01*
X20835Y1347D01*
X20815Y1407D01*
X20810Y1441D01*
X21441Y1441D01*
X21441Y1102D01*
X21172Y1102D01*
G37*
%LPD*%
%LPC*%
G36*
X18059Y1102D02*
X18059Y1102D01*
X18059Y1441D01*
X18690Y1441D01*
X18685Y1407D01*
X18665Y1347D01*
X18637Y1292D01*
X18600Y1241D01*
X18556Y1197D01*
X18505Y1160D01*
X18449Y1132D01*
X18390Y1112D01*
X18328Y1102D01*
X18059Y1102D01*
G37*
%LPD*%
%LPC*%
G36*
X17672Y1102D02*
X17672Y1102D01*
X17610Y1112D01*
X17551Y1132D01*
X17495Y1160D01*
X17444Y1197D01*
X17400Y1241D01*
X17363Y1292D01*
X17335Y1347D01*
X17315Y1407D01*
X17310Y1441D01*
X17941Y1441D01*
X17941Y1102D01*
X17672Y1102D01*
G37*
%LPD*%
%LPC*%
G36*
X14559Y1102D02*
X14559Y1102D01*
X14559Y1441D01*
X15190Y1441D01*
X15185Y1407D01*
X15165Y1347D01*
X15137Y1292D01*
X15100Y1241D01*
X15056Y1197D01*
X15005Y1160D01*
X14949Y1132D01*
X14890Y1112D01*
X14828Y1102D01*
X14559Y1102D01*
G37*
%LPD*%
%LPC*%
G36*
X8110Y7559D02*
X8110Y7559D01*
X8110Y7955D01*
X8379Y7955D01*
X8405Y7948D01*
X8428Y7935D01*
X8447Y7916D01*
X8460Y7893D01*
X8467Y7868D01*
X8467Y7559D01*
X8110Y7559D01*
G37*
%LPD*%
%LPC*%
G36*
X3610Y8559D02*
X3610Y8559D01*
X3610Y8955D01*
X3879Y8955D01*
X3905Y8948D01*
X3928Y8935D01*
X3947Y8916D01*
X3960Y8893D01*
X3967Y8868D01*
X3967Y8559D01*
X3610Y8559D01*
G37*
%LPD*%
%LPC*%
G36*
X20110Y8559D02*
X20110Y8559D01*
X20110Y8955D01*
X20379Y8955D01*
X20405Y8948D01*
X20428Y8935D01*
X20447Y8916D01*
X20460Y8893D01*
X20467Y8868D01*
X20467Y8559D01*
X20110Y8559D01*
G37*
%LPD*%
%LPC*%
G36*
X14110Y8559D02*
X14110Y8559D01*
X14110Y8955D01*
X14379Y8955D01*
X14405Y8948D01*
X14428Y8935D01*
X14447Y8916D01*
X14460Y8893D01*
X14467Y8868D01*
X14467Y8559D01*
X14110Y8559D01*
G37*
%LPD*%
%LPC*%
G36*
X3610Y4559D02*
X3610Y4559D01*
X3610Y4955D01*
X3879Y4955D01*
X3905Y4948D01*
X3928Y4935D01*
X3947Y4916D01*
X3960Y4893D01*
X3967Y4868D01*
X3967Y4559D01*
X3610Y4559D01*
G37*
%LPD*%
%LPC*%
G36*
X14110Y4559D02*
X14110Y4559D01*
X14110Y4955D01*
X14379Y4955D01*
X14405Y4948D01*
X14428Y4935D01*
X14447Y4916D01*
X14460Y4893D01*
X14467Y4868D01*
X14467Y4559D01*
X14110Y4559D01*
G37*
%LPD*%
%LPC*%
G36*
X13723Y4045D02*
X13723Y4045D01*
X13697Y4052D01*
X13674Y4065D01*
X13656Y4084D01*
X13642Y4107D01*
X13635Y4132D01*
X13635Y4441D01*
X13992Y4441D01*
X13992Y4045D01*
X13723Y4045D01*
G37*
%LPD*%
%LPC*%
G36*
X3223Y4045D02*
X3223Y4045D01*
X3197Y4052D01*
X3174Y4065D01*
X3156Y4084D01*
X3142Y4107D01*
X3135Y4132D01*
X3135Y4441D01*
X3492Y4441D01*
X3492Y4045D01*
X3223Y4045D01*
G37*
%LPD*%
%LPC*%
G36*
X20110Y8045D02*
X20110Y8045D01*
X20110Y8441D01*
X20467Y8441D01*
X20467Y8132D01*
X20462Y8112D01*
X20460Y8107D01*
X20447Y8084D01*
X20428Y8065D01*
X20405Y8052D01*
X20379Y8045D01*
X20110Y8045D01*
G37*
%LPD*%
%LPC*%
G36*
X3135Y8559D02*
X3135Y8559D01*
X3135Y8868D01*
X3142Y8893D01*
X3156Y8916D01*
X3174Y8935D01*
X3197Y8948D01*
X3223Y8955D01*
X3492Y8955D01*
X3492Y8559D01*
X3135Y8559D01*
G37*
%LPD*%
%LPC*%
G36*
X19635Y8559D02*
X19635Y8559D01*
X19635Y8868D01*
X19642Y8893D01*
X19656Y8916D01*
X19674Y8935D01*
X19697Y8948D01*
X19723Y8955D01*
X19992Y8955D01*
X19992Y8559D01*
X19635Y8559D01*
G37*
%LPD*%
%LPC*%
G36*
X13635Y8559D02*
X13635Y8559D01*
X13635Y8868D01*
X13642Y8893D01*
X13656Y8916D01*
X13674Y8935D01*
X13697Y8948D01*
X13723Y8955D01*
X13992Y8955D01*
X13992Y8559D01*
X13635Y8559D01*
G37*
%LPD*%
%LPC*%
G36*
X7635Y7559D02*
X7635Y7559D01*
X7635Y7868D01*
X7642Y7893D01*
X7656Y7916D01*
X7674Y7935D01*
X7697Y7948D01*
X7723Y7955D01*
X7992Y7955D01*
X7992Y7559D01*
X7635Y7559D01*
G37*
%LPD*%
%LPC*%
G36*
X3610Y8045D02*
X3610Y8045D01*
X3610Y8441D01*
X3967Y8441D01*
X3967Y8132D01*
X3962Y8112D01*
X3960Y8107D01*
X3947Y8084D01*
X3928Y8065D01*
X3905Y8052D01*
X3879Y8045D01*
X3610Y8045D01*
G37*
%LPD*%
%LPC*%
G36*
X14110Y8045D02*
X14110Y8045D01*
X14110Y8441D01*
X14467Y8441D01*
X14467Y8132D01*
X14462Y8112D01*
X14460Y8107D01*
X14447Y8084D01*
X14428Y8065D01*
X14405Y8052D01*
X14379Y8045D01*
X14110Y8045D01*
G37*
%LPD*%
%LPC*%
G36*
X14110Y4045D02*
X14110Y4045D01*
X14110Y4441D01*
X14467Y4441D01*
X14467Y4132D01*
X14460Y4107D01*
X14447Y4084D01*
X14428Y4065D01*
X14405Y4052D01*
X14379Y4045D01*
X14110Y4045D01*
G37*
%LPD*%
%LPC*%
G36*
X3610Y4045D02*
X3610Y4045D01*
X3610Y4441D01*
X3967Y4441D01*
X3967Y4132D01*
X3960Y4107D01*
X3947Y4084D01*
X3928Y4065D01*
X3905Y4052D01*
X3879Y4045D01*
X3610Y4045D01*
G37*
%LPD*%
%LPC*%
G36*
X19723Y8045D02*
X19723Y8045D01*
X19697Y8052D01*
X19674Y8065D01*
X19656Y8084D01*
X19642Y8107D01*
X19635Y8132D01*
X19635Y8441D01*
X19992Y8441D01*
X19992Y8045D01*
X19723Y8045D01*
G37*
%LPD*%
%LPC*%
G36*
X10499Y7999D02*
X10499Y7999D01*
X10499Y8001D01*
X10501Y8001D01*
X10501Y7999D01*
X10499Y7999D01*
G37*
%LPD*%
%LPC*%
G36*
X25499Y1999D02*
X25499Y1999D01*
X25499Y2001D01*
X25501Y2001D01*
X25501Y1999D01*
X25499Y1999D01*
G37*
%LPD*%
%LPC*%
G36*
X2499Y1999D02*
X2499Y1999D01*
X2499Y2001D01*
X2501Y2001D01*
X2501Y1999D01*
X2499Y1999D01*
G37*
%LPD*%
%LPC*%
G36*
X21499Y1499D02*
X21499Y1499D01*
X21499Y1501D01*
X21501Y1501D01*
X21501Y1499D01*
X21499Y1499D01*
G37*
%LPD*%
%LPC*%
G36*
X21499Y7999D02*
X21499Y7999D01*
X21499Y8001D01*
X21501Y8001D01*
X21501Y7999D01*
X21499Y7999D01*
G37*
%LPD*%
%LPC*%
G36*
X14499Y1499D02*
X14499Y1499D01*
X14499Y1501D01*
X14501Y1501D01*
X14501Y1499D01*
X14499Y1499D01*
G37*
%LPD*%
%LPC*%
G36*
X10999Y1499D02*
X10999Y1499D01*
X10999Y1501D01*
X11001Y1501D01*
X11001Y1499D01*
X10999Y1499D01*
G37*
%LPD*%
%LPC*%
G36*
X17999Y1499D02*
X17999Y1499D01*
X17999Y1501D01*
X18001Y1501D01*
X18001Y1499D01*
X17999Y1499D01*
G37*
%LPD*%
%LPC*%
G36*
X20050Y8499D02*
X20050Y8499D01*
X20050Y8501D01*
X20052Y8501D01*
X20052Y8499D01*
X20050Y8499D01*
G37*
%LPD*%
%LPC*%
G36*
X14050Y8499D02*
X14050Y8499D01*
X14050Y8501D01*
X14052Y8501D01*
X14052Y8499D01*
X14050Y8499D01*
G37*
%LPD*%
%LPC*%
G36*
X3550Y8499D02*
X3550Y8499D01*
X3550Y8501D01*
X3552Y8501D01*
X3552Y8499D01*
X3550Y8499D01*
G37*
%LPD*%
%LPC*%
G36*
X3550Y4499D02*
X3550Y4499D01*
X3550Y4501D01*
X3552Y4501D01*
X3552Y4499D01*
X3550Y4499D01*
G37*
%LPD*%
%LPC*%
G36*
X14050Y4499D02*
X14050Y4499D01*
X14050Y4501D01*
X14052Y4501D01*
X14052Y4499D01*
X14050Y4499D01*
G37*
%LPD*%
D10*
X3551Y8500D03*
X2449Y8500D03*
X3551Y4500D03*
X2449Y4500D03*
X14051Y8500D03*
X12949Y8500D03*
X14051Y4500D03*
X12949Y4500D03*
D11*
X3000Y5550D03*
X3000Y7450D03*
X13500Y5550D03*
X13500Y7450D03*
D12*
X6940Y6000D03*
X8060Y6000D03*
X6940Y4500D03*
X8060Y4500D03*
D13*
X2000Y7060D03*
X2000Y5940D03*
D12*
X16940Y7000D03*
X18060Y7000D03*
X16940Y5500D03*
X18060Y5500D03*
D13*
X12500Y7060D03*
X12500Y5940D03*
D14*
X24500Y2300D02*
X24500Y1700D01*
X25500Y1700D02*
X25500Y2300D01*
X26500Y2300D02*
X26500Y1700D01*
D15*
X11297Y1500D02*
X10703Y1500D01*
X10703Y2500D02*
X11297Y2500D01*
X10797Y8000D02*
X10203Y8000D01*
X10203Y7000D02*
X10797Y7000D01*
X10797Y6000D02*
X10203Y6000D01*
X10203Y5000D02*
X10797Y5000D01*
X21203Y1500D02*
X21797Y1500D01*
X21797Y2500D02*
X21203Y2500D01*
X18297Y1500D02*
X17703Y1500D01*
X17703Y2500D02*
X18297Y2500D01*
X14797Y1500D02*
X14203Y1500D01*
X14203Y2500D02*
X14797Y2500D01*
X21203Y8000D02*
X21797Y8000D01*
X21797Y7000D02*
X21203Y7000D01*
X21203Y6000D02*
X21797Y6000D01*
X21797Y5000D02*
X21203Y5000D01*
X2500Y2297D02*
X2500Y1703D01*
X3500Y1703D02*
X3500Y2297D01*
X4500Y2297D02*
X4500Y1703D01*
X5500Y1703D02*
X5500Y2297D01*
X6500Y2297D02*
X6500Y1703D01*
X7500Y1703D02*
X7500Y2297D01*
X8500Y2297D02*
X8500Y1703D01*
D10*
X6949Y7500D03*
X8051Y7500D03*
X18949Y8500D03*
X20051Y8500D03*
D16*
X5000Y7000D03*
X15500Y7000D03*
D17*
X3000Y7949D02*
X2449Y8500D01*
X3000Y7949D02*
X3000Y7450D01*
X2610Y7060D02*
X2000Y7060D01*
X2610Y7060D02*
X3000Y7450D01*
X2610Y5940D02*
X2000Y5940D01*
X2610Y5940D02*
X3000Y5550D01*
X3000Y5051D01*
X2449Y4500D01*
D18*
X8060Y6000D02*
X10500Y6000D01*
X8560Y5000D02*
X8060Y4500D01*
X8560Y5000D02*
X10500Y5000D01*
D19*
X6940Y4500D02*
X5345Y4500D01*
X6940Y4500D02*
X6940Y6000D01*
D18*
X16940Y5500D02*
X16940Y7000D01*
D17*
X17500Y7560D01*
X17500Y8000D01*
D16*
X17500Y8000D03*
D17*
X18000Y8500D02*
X18949Y8500D01*
X18000Y8500D02*
X17500Y8000D01*
D19*
X6940Y7491D02*
X6940Y6000D01*
X6940Y7491D02*
X6949Y7500D01*
X7776Y6836D02*
X6940Y6000D01*
X7776Y6836D02*
X8495Y6836D01*
X8659Y7000D01*
X10500Y7000D01*
X3500Y2655D02*
X3500Y2000D01*
X3500Y2655D02*
X5345Y4500D01*
D17*
X13475Y7475D02*
X13500Y7450D01*
X13060Y7060D02*
X12500Y7060D01*
X13060Y7060D02*
X13475Y7475D01*
X13500Y7450D02*
X13500Y8000D01*
X13000Y8500D01*
X12949Y8500D01*
X13500Y5550D02*
X13500Y5051D01*
X12949Y4500D01*
X13110Y5940D02*
X12500Y5940D01*
X13110Y5940D02*
X13500Y5550D01*
D18*
X18060Y7000D02*
X20000Y7000D01*
X21000Y6000D01*
X21500Y6000D01*
X18560Y5000D02*
X18060Y5500D01*
X18560Y5000D02*
X21500Y5000D01*
M02*
